<svg version="1.1" xmlns="http://www.w3.org/2000/svg" xmlns:xlink="http://www.w3.org/1999/xlink" width="82.50568" height="102.47554" viewBox="0,0,82.50568,102.47554"><g transform="translate(-194.46598,-128.02405)"><g data-paper-data="{&quot;isPaintingLayer&quot;:true}" fill="#b1b1b1" fill-rule="nonzero" stroke="#000000" stroke-width="1.5" stroke-linecap="butt" stroke-linejoin="miter" stroke-miterlimit="10" stroke-dasharray="" stroke-dashoffset="0" style="mix-blend-mode: normal"><path d="M275.37474,173.75578l-34.73916,-1.85949l0.8077,-15.00966l34.73915,1.85951z" data-paper-data="{&quot;index&quot;:null}"/><path d="M236.37382,226.66029l-5.34951,-36.37102l18.04878,-2.65465l5.34951,36.37102z"/><path d="M227.83687,229.64843l-5.42185,-36.86282l18.29283,-2.69054l5.42185,36.86282z"/><path d="M222.69428,196.34241l-5.24101,-35.63332l28.42506,-4.18081l5.24101,35.63333c0,0 -7.35309,1.08151 -11.57186,1.70201c-5.09126,0.74883 -16.85319,2.4788 -16.85319,2.4788z"/><path d="M246.10304,141.63269c1.23842,8.41995 -5.02373,16.31439 -13.9869,17.63271c-8.96318,1.31832 -17.2332,-4.4387 -18.47163,-12.85865c-1.23842,-8.41995 5.02373,-16.31438 13.98691,-17.6327c8.96318,-1.31832 17.2332,4.43869 18.47163,12.85865z" data-paper-data="{&quot;index&quot;:null}"/><path d="M225.70282,194.66647l-30.21389,-17.24494l7.44739,-13.05675l30.21388,17.24495z" data-paper-data="{&quot;index&quot;:null}"/></g></g></svg>