<svg version="1.1" xmlns="http://www.w3.org/2000/svg" xmlns:xlink="http://www.w3.org/1999/xlink" width="49.19888" height="102.35761" viewBox="0,0,49.19888,102.35761"><g transform="translate(-217.8373,-130.23423)"><g data-paper-data="{&quot;isPaintingLayer&quot;:true}" fill="#b1b1b1" fill-rule="nonzero" stroke="#000000" stroke-width="1.5" stroke-linecap="butt" stroke-linejoin="miter" stroke-miterlimit="10" stroke-dasharray="" stroke-dashoffset="0" style="mix-blend-mode: normal"><path d="M247.66643,197.77876l3.59583,-34.60256l14.95043,1.55791l-3.59584,34.60255z" data-paper-data="{&quot;index&quot;:null}"/><path d="M235.6616,230.33043l1.46192,-36.73324l18.22854,0.72546l-1.46192,36.73324z"/><path d="M218.75586,226.88764l9.64379,-35.98973l17.85957,4.78564l-9.64379,35.98973z"/><path d="M226.27947,195.81146l2.82516,-35.90572l28.64235,2.25366l-2.82516,35.90572c0,0 -7.4093,-0.58298 -11.66032,-0.91746c-5.13019,-0.40365 -16.98202,-1.33619 -16.98202,-1.33619z"/><path d="M261.28289,147.68783c-0.66757,8.48432 -8.53037,14.78614 -17.56207,14.07549c-9.0317,-0.71064 -15.81216,-8.16462 -15.14459,-16.64894c0.66757,-8.48432 8.53037,-14.78613 17.56207,-14.07549c9.0317,0.71064 15.81216,8.16462 15.14459,16.64894z" data-paper-data="{&quot;index&quot;:null}"/><path d="M219.1732,197.9134l2.391,-34.70663l14.99612,1.02885l-2.39101,34.70663z" data-paper-data="{&quot;index&quot;:null}"/></g></g></svg>