<svg version="1.1" xmlns="http://www.w3.org/2000/svg" xmlns:xlink="http://www.w3.org/1999/xlink" width="86.62113" height="117.41683" viewBox="0,0,86.62113,117.41683"><g transform="translate(-189.53246,-114.28525)"><g data-paper-data="{&quot;isPaintingLayer&quot;:true}" fill-rule="nonzero" stroke-linejoin="miter" stroke-miterlimit="10" stroke-dasharray="" stroke-dashoffset="0" style="mix-blend-mode: normal"><path d="M241.08888,228.27607l-3.72017,-36.5736l18.14931,-1.8461l3.72017,36.5736z" fill="#9b6a16" stroke="#000000" stroke-width="1.5" stroke-linecap="butt"/><path d="M232.42702,230.88004l-3.77047,-37.06814l18.39473,-1.87106l3.77047,37.06814z" fill="#9b6a16" stroke="#000000" stroke-width="1.5" stroke-linecap="butt"/><path d="M241.79988,178.1186l-33.87256,7.93199l-3.42305,-14.63642l33.87256,-7.93197z" data-paper-data="{&quot;index&quot;:null}" fill="#b1b1b1" stroke="#000000" stroke-width="1.5" stroke-linecap="butt"/><g stroke="#000000" stroke-linecap="butt"><path d="M228.77672,197.37761l-3.64471,-35.8318l28.58338,-2.90742l3.64472,35.83181c0,0 -7.39405,0.7521 -11.63632,1.18361c-5.11962,0.52075 -16.94706,1.72381 -16.94706,1.72381z" fill="#9b6a16" stroke-width="1.5"/><path d="M238.63609,167.24346c0.6242,1.31092 0.87689,2.60256 0.45532,3.99632c-0.23792,0.78658 -1.71328,1.23861 -1.42835,2.00942c1.03867,2.80982 -1.41835,4.49725 -4.22842,3.57022c-1.27953,-0.4221 -1.01046,-3.05047 -1.23593,-3.19997c-1.5329,-1.01647 -3.21278,-0.67443 -3.82659,-3.01764c-0.3132,-1.19561 1.03424,-4.48649 2.66319,-4.21544c0.19401,-0.0717 0.40015,-0.12031 0.61547,-0.14221c0.51098,-0.05198 1.00166,0.0538 1.4236,0.27788c2.26013,0.03015 4.50486,-1.49813 5.56173,0.72142z" fill="#b1b1b1" stroke-width="1"/><path d="M253.94141,189.35429c-0.38314,0.5514 -6.18504,4.02314 -6.32745,4.03762c-3.74187,0.38061 -6.98177,-4.91433 -4.51954,-7.80631c1.89881,-2.23024 4.86405,-1.27516 7.15788,-1.98163c0.1694,-0.05585 0.34742,-0.09431 0.5322,-0.11311c1.30329,-0.13257 2.4744,0.7611 2.71026,2.0262c0.79991,1.24704 1.16772,2.79949 0.44665,3.83723z" fill="#b1b1b1" stroke-width="1"/></g><g><path d="M232.36943,157.87322l-14.859,-1.96448l9.86957,-2.51516l-15.72603,-1.57403l11.09663,-2.33772l-16.40042,-2.26106l9.72257,-0.98895l0.10137,-1.97494l-7.84148,-1.31814l9.78085,-1.90164l0.89233,-3.11327l1.64022,-3.18934l3.53909,-3.83587l5.69404,-3.45057l5.11351,-1.72913l2.40333,-3.11585l2.79376,-2.24881l6.66758,-2.79396l6.58143,-0.66945l-2.62898,2.38316l-1.86587,2.45667l-1.0267,3.27807l2.60111,-1.17133l4.87521,-1.1004l5.08565,-0.5173l5.95526,0.60324l3.20457,1.7898l-3.58988,0.36515l-5.24787,1.89393l-3.99039,2.37053l-2.65941,2.08402l-2.95599,3.62543l2.72027,-1.4857l2.33239,-0.84175l6.64229,-0.07113l5.07557,2.35511l-1.74929,0.63131l-4.76871,2.14744l-2.83942,1.80007l-2.44897,2.66712l-2.04331,3.68372l1.85322,-1.09526l2.84199,-0.28908l3.6533,1.74416l-1.79494,0.18258l-3.33379,1.39698l-3.63294,1.42741l-2.67463,1.93443z" fill="#000000" stroke="#000000" stroke-width="4" stroke-linecap="round"/><path d="M254.60498,143.76769c0.86123,8.46685 -5.74717,16.0738 -14.76028,16.99059c-9.0131,0.91679 -17.01782,-5.20375 -17.87905,-13.6706c-0.86123,-8.46685 5.74717,-16.07379 14.76028,-16.99058c9.0131,-0.91679 17.01782,5.20374 17.87905,13.6706z" data-paper-data="{&quot;index&quot;:null}" fill="#b1b1b1" stroke="#000000" stroke-width="1.5" stroke-linecap="butt"/><path d="M234.515,136.48087c0.05363,-0.03399 0.10638,-0.06632 0.15829,-0.09697c0.27198,-0.19387 0.58974,-0.33036 0.93727,-0.38991c0.11702,-0.02328 0.23007,-0.03419 0.34008,-0.03275c1.18055,-0.02625 2.20162,0.8598 2.32317,2.05478c0.37773,0.5959 0.06338,1.10856 -0.40514,1.54774c-0.24858,0.35276 -0.59555,0.63423 -1.00579,0.80137c-0.16654,0.13367 -0.30065,0.2572 -0.37053,0.37119c-0.07543,0.12303 -0.15774,0.26176 -0.24644,0.4135c1.60033,1.21124 2.6431,2.55964 2.05721,3.66704c-0.35921,0.67896 -1.21211,1.00773 -1.94621,1.23382c-0.14305,0.04406 -1.20936,-0.41467 -2.52118,-1.02503c-1.31684,1.8063 -2.88421,3.2902 -4.39522,2.71752c-1.59172,-0.60327 -1.61892,-1.77117 -1.32777,-2.94853c0.05166,-0.20893 0.54772,-0.97019 1.24079,-1.94893c-0.48191,-0.24331 -0.8327,-0.42465 -0.97056,-0.50165c-0.12625,-0.04484 -0.24772,-0.10054 -0.36318,-0.16609c-0.62219,-0.35321 -1.06968,-0.99225 -1.14759,-1.75822c-0.11364,-1.11718 0.59718,-2.12818 1.63943,-2.42831c0.08527,-0.03746 0.17673,-0.06442 0.27539,-0.07914c0.0936,-0.01396 0.20351,-0.01721 0.3278,-0.01041c0.27372,-0.00417 0.53866,0.04069 0.78557,0.12701c0.67607,0.16088 1.52675,0.46279 2.42792,0.86191c0.96226,-1.2072 1.77355,-2.1398 2.01111,-2.22553z" fill="#000000" stroke="none" stroke-width="0.5" stroke-linecap="butt"/><path d="M245.35619,136.2363c0.2033,0.0294 1.00235,0.6395 1.96663,1.44365c0.65257,-0.46555 1.28083,-0.84536 1.79308,-1.08425c0.18257,-0.10921 0.38629,-0.18832 0.60503,-0.22983c0.0979,-0.02578 0.186,-0.04119 0.26286,-0.04539c0.08102,-0.00443 0.15829,0.00207 0.23236,0.01795c0.87947,0.06842 1.61131,0.75744 1.70373,1.66605c0.06337,0.62298 -0.18848,1.20537 -0.62631,1.58864c-0.08124,0.07113 -0.16891,0.13539 -0.26214,0.19179c-0.09722,0.08391 -0.34697,0.28583 -0.69104,0.55858c0.71242,0.66622 1.23227,1.19145 1.30765,1.34944c0.42474,0.89028 0.59434,1.82514 -0.57492,2.5664c-1.10998,0.70368 -2.60163,-0.22181 -3.94651,-1.44517c-0.94511,0.70107 -1.71948,1.24115 -1.84065,1.22948c-0.62184,-0.05989 -1.35517,-0.18215 -1.75252,-0.66422c-0.6481,-0.78628 -0.0382,-2.03125 1.03836,-3.25827c-0.09551,-0.10637 -0.18381,-0.20339 -0.26405,-0.28905c-0.07434,-0.07936 -0.2014,-0.15583 -0.35597,-0.23504c-0.3542,-0.06597 -0.6767,-0.2334 -0.9325,-0.47371c-0.44517,-0.27315 -0.77955,-0.6301 -0.57622,-1.16668c-0.09886,-0.9719 0.56948,-1.845 1.51428,-2.01741c0.0874,-0.01915 0.17924,-0.02899 0.27628,-0.0296c0.28662,-0.00947 0.56212,0.04723 0.81055,0.15713c0.04638,0.01591 0.09369,0.03303 0.14198,0.05133z" data-paper-data="{&quot;index&quot;:null}" fill="#000000" stroke="none" stroke-width="0.5" stroke-linecap="butt"/><path d="M241.0886,156.03899c-2.44168,0.43962 -6.20004,0.95432 -8.36649,-0.72617c-0.50026,-0.38804 -0.68025,-1.93489 -0.66475,-2.54614c0.09526,-3.75646 4.34504,-3.71048 7.10535,-3.99126l0.02696,-0.01709c0.32712,-0.21713 0.71032,-0.36016 1.12806,-0.40265c0.09336,-0.0095 0.18604,-0.01373 0.27775,-0.01293c7.26445,-1.66525 6.91674,6.53967 0.49313,7.69624z" fill="#000000" stroke="none" stroke-width="0.5" stroke-linecap="butt"/><path d="M228.45944,128.34806l-3.70625,11.1069c0,0 -1.98199,2.83881 -1.98245,4.28205c-0.00046,1.44324 1.98008,3.12335 1.98008,3.12335c0,0 -1.91317,0.15114 -2.71516,-0.09708c-0.58296,-0.18043 -0.02163,-0.69981 -0.42474,-1.01859c-0.90151,-0.71292 -2.44782,-3.30311 -2.44782,-3.30311l2.82162,-3.46064" fill="none" stroke="#000000" stroke-width="4" stroke-linecap="round"/><path d="M225.32603,133.20056l0.34994,3.44029l3.50885,4.78136l-0.29165,-4.35297l1.14585,-3.59244l4.38834,-5.88689l15.12001,-2.8981l3.07277,3.46558l-1.21678,5.86654l-1.5515,2.57583l-0.30429,-2.99155l-2.19052,-3.70645l-6.85529,-2.02296l2.76097,4.85743l-1.81766,4.4164l-2.19052,-3.70645l-3.86373,-2.32726l-3.56457,-2.35769z" fill="#000000" stroke="#000000" stroke-width="4" stroke-linecap="round"/></g><g stroke="#000000" stroke-width="1.5" stroke-linecap="butt"><path d="M271.683,153.45715l-1.75962,34.74435l-15.01234,-0.75603l1.75964,-34.74436z" data-paper-data="{&quot;index&quot;:null}" fill="#b1b1b1"/><path d="M271.19188,163.15458l-1.26849,25.04692l-15.01234,-0.75603l1.22894,-24.26568z" data-paper-data="{&quot;index&quot;:null}" fill="#9b6a16"/><path d="M265.78877,169.88168c0.11595,1.37583 -0.90539,2.58516 -2.28123,2.70112c-1.37583,0.11595 -2.58517,-0.90539 -2.70112,-2.28122c-0.11595,-1.37583 0.90539,-2.58516 2.28123,-2.70112c1.37583,-0.11595 2.58517,0.90539 2.70112,2.28122z" fill="#b1b1b1"/><path d="M265.09503,184.38437c-2.1475,0.28265 -4.50638,-1.73491 -4.50602,-3.94471c0.00059,-3.49091 5.82179,-2.29165 6.13234,-0.0811c0.28598,0.36859 0.47222,0.82138 0.51432,1.32092c0.10311,1.22343 -0.69306,2.31519 -1.8381,2.62359c-0.09391,0.03934 -0.19441,0.06709 -0.30256,0.08132z" fill="#b1b1b1"/></g></g></g></svg>