<svg version="1.1" xmlns="http://www.w3.org/2000/svg" xmlns:xlink="http://www.w3.org/1999/xlink" width="84.91911" height="119.93602" viewBox="0,0,84.91911,119.93602"><g transform="translate(-188.03536,-113.29437)"><g data-paper-data="{&quot;isPaintingLayer&quot;:true}" fill-rule="nonzero" stroke-linejoin="miter" stroke-miterlimit="10" stroke-dasharray="" stroke-dashoffset="0" style="mix-blend-mode: normal"><path d="M253.51695,193.25716l-17.07269,-30.31154l13.09473,-7.38038l17.07269,30.31155z" data-paper-data="{&quot;index&quot;:null}" fill="#b1b1b1" stroke="#000000" stroke-width="1.5" stroke-linecap="butt"/><path d="M254.01515,222.93714l-4.55982,-36.47844l18.10208,-2.26277l4.55982,36.47844z" fill="#9b6a16" stroke="#000000" stroke-width="1.5" stroke-linecap="butt"/><path d="M224.16722,229.50889l5.77212,-36.8096l18.26642,2.86436l-5.77212,36.8096z" fill="#9b6a16" stroke="#000000" stroke-width="1.5" stroke-linecap="butt"/><g stroke="#000000" stroke-linecap="butt"><path d="M230.47199,198.76945l-7.35473,-35.25776l28.12547,-5.86694l7.35473,35.25777c0,0 -7.2756,1.51768 -11.4499,2.38844c-5.03761,1.05084 -16.67557,3.4785 -16.67557,3.4785z" fill="#9b6a16" stroke-width="1.5"/><path d="M237.14107,167.77272c0.75727,1.23883 1.14303,2.49715 0.86883,3.92721c-0.15476,0.80708 -1.57505,1.41023 -1.21143,2.14718c1.32551,2.68644 -0.94252,4.62046 -3.83382,3.99097c-1.31652,-0.28663 -1.3225,-2.92871 -1.56231,-3.05393c-1.63037,-0.85138 -3.26553,-0.33635 -4.11992,-2.60293c-0.43595,-1.15652 0.56161,-4.56977 2.20992,-4.46976c0.1855,-0.0915 0.38545,-0.16131 0.59732,-0.2055c0.50279,-0.10488 1.00182,-0.05076 1.44479,0.12818c2.25099,-0.20528 4.32445,-1.95891 5.6066,0.13857z" fill="#b1b1b1" stroke-width="1"/><path d="M254.66481,188.17026c-0.32366,0.58828 -5.73266,4.6451 -5.87279,4.67433c-3.68192,0.76804 -7.45538,-4.16088 -5.30757,-7.29345c1.65634,-2.41578 4.70489,-1.77455 6.91273,-2.71594c0.16266,-0.07318 0.33572,-0.12996 0.51753,-0.16789c1.28241,-0.26751 2.54019,0.4994 2.90645,1.73307c0.92537,1.15701 1.45278,2.66274 0.84365,3.76989z" fill="#b1b1b1" stroke-width="1"/></g><g><path d="M232.0593,160.56249l-14.98327,0.3882l9.35352,-4.03066l-15.77841,0.90967l10.59322,-4.04768l-16.55213,0.33681l9.44749,-2.50026l-0.20936,-1.96642l-7.95117,-0.07309l9.36203,-3.4108l0.39346,-3.21464l1.12019,-3.40697l2.89428,-4.34306l5.08299,-4.3002l4.77938,-2.50905l1.88539,-3.45396l2.40686,-2.65881l6.14741,-3.80425l6.39522,-1.69249l-2.22306,2.76568l-1.45785,2.7187l-0.50034,3.39846l2.38543,-1.56445l4.64255,-1.85075l4.94176,-1.30783l5.97621,-0.33739l3.44544,1.26554l-3.48831,0.92317l-4.88626,2.69288l-3.56963,2.96653l-2.29999,2.475l-2.35137,4.04385l2.45386,-1.89362l2.17168,-1.19683l6.54908,-1.1111l5.38191,1.53067l-1.62875,0.89763l-4.37329,2.86817l-2.52227,2.22276l-2.00079,3.01792l-1.44084,3.9584l1.6587,-1.37213l2.76158,-0.73085l3.88148,1.15014l-1.74415,0.46159l-3.0737,1.90213l-3.36439,1.97907l-2.33846,2.32965z" fill="#000000" stroke="#000000" stroke-width="4" stroke-linecap="round"/><path d="M251.80982,143.14691c2.17734,8.2273 -3.15742,16.77581 -11.91552,19.09362c-8.7581,2.31781 -17.62302,-2.47278 -19.80036,-10.70008c-2.17734,-8.2273 3.15742,-16.77579 11.91552,-19.09361c8.7581,-2.31781 17.62301,2.47277 19.80036,10.70008z" data-paper-data="{&quot;index&quot;:null}" fill="#b1b1b1" stroke="#000000" stroke-width="1.5" stroke-linecap="butt"/><path d="M230.82619,139.09821c0.04763,-0.04197 0.09467,-0.08217 0.14114,-0.12057c0.23824,-0.23409 0.53068,-0.4187 0.8646,-0.53196c0.11193,-0.04133 0.22188,-0.06982 0.33075,-0.08563c1.16186,-0.21091 2.30915,0.50419 2.61646,1.66536c0.46645,0.52935 0.23631,1.08493 -0.1576,1.59211c-0.19023,0.38735 -0.4888,0.71972 -0.86779,0.94908c-0.14353,0.15811 -0.25663,0.30114 -0.30778,0.42466c-0.05522,0.13333 -0.11477,0.28324 -0.1786,0.44701c1.77036,0.94551 3.01154,2.11384 2.60642,3.29938c-0.24837,0.72685 -1.03923,1.18522 -1.72883,1.52355c-0.13437,0.06594 -1.25939,-0.22004 -2.65066,-0.6173c-1.01752,1.99034 -2.33301,3.7015 -3.91509,3.37267c-1.66658,-0.3464 -1.87647,-1.49561 -1.7734,-2.70405c0.01829,-0.21445 0.38893,-1.04403 0.92006,-2.11928c-0.51408,-0.16479 -0.88896,-0.28893 -1.03717,-0.34337c-0.13171,-0.02451 -0.26041,-0.06048 -0.38473,-0.10713c-0.66984,-0.25135 -1.21195,-0.81237 -1.40893,-1.55668c-0.2873,-1.08557 0.25632,-2.19547 1.23866,-2.6552c0.07834,-0.05036 0.16445,-0.09132 0.25959,-0.12132c0.09025,-0.02846 0.1983,-0.04889 0.32212,-0.06165c0.26969,-0.04701 0.53838,-0.04422 0.79576,0.00235c0.69293,0.05295 1.5804,0.21783 2.533,0.47081c0.7612,-1.34308 1.41633,-2.39128 1.63753,-2.51318z" fill="#000000" stroke="none" stroke-width="0.5" stroke-linecap="butt"/><path d="M241.49513,137.15784c0.2054,-0.00282 1.09018,0.47453 2.16855,1.11765c0.57156,-0.56205 1.13254,-1.03562 1.60104,-1.35183c0.1632,-0.13646 0.35201,-0.24652 0.56154,-0.32179c0.09265,-0.04081 0.17724,-0.06983 0.25249,-0.08602c0.07932,-0.01707 0.15666,-0.02276 0.2323,-0.01868c0.87932,-0.07023 1.71009,0.49559 1.94376,1.3785c0.1602,0.60535 0.00273,1.22001 -0.36963,1.66716c-0.0691,0.08298 -0.1456,0.16019 -0.22885,0.2305c-0.08287,0.09811 -0.29789,0.33667 -0.59497,0.65996c0.80801,0.54635 1.40375,0.98363 1.50295,1.12786c0.559,0.81272 0.87299,1.70946 -0.16566,2.62479c-0.986,0.86892 -2.60425,0.18861 -4.12422,-0.8089c-0.82357,0.8405 -1.50375,1.49527 -1.62526,1.50272c-0.62355,0.0383 -1.36697,0.03246 -1.83495,-0.3814c-0.76331,-0.67501 -0.35603,-2.00017 0.51496,-3.38073c-0.111,-0.09009 -0.2134,-0.17208 -0.30608,-0.24411c-0.08586,-0.06673 -0.22333,-0.12234 -0.3884,-0.17636c-0.36017,-0.00966 -0.70492,-0.12448 -0.99521,-0.32174c-0.48247,-0.20002 -0.86866,-0.50016 -0.75192,-1.06197c-0.24994,-0.9444 0.27333,-1.91144 1.17945,-2.22978c0.08331,-0.03261 0.17248,-0.05671 0.26823,-0.07253c0.2816,-0.05426 0.56258,-0.04144 0.82516,0.02818c0.0483,0.00844 0.09771,0.01793 0.14827,0.02844z" data-paper-data="{&quot;index&quot;:null}" fill="#000000" stroke="none" stroke-width="0.5" stroke-linecap="butt"/><path d="M240.38333,157.38464c-2.34263,0.8168 -5.97391,1.91408 -8.37692,0.59383c-0.55488,-0.30485 -0.97505,-1.8044 -1.05552,-2.41053c-0.49455,-3.72498 3.70993,-4.34551 6.39214,-5.05536l0.02395,-0.0211c0.28905,-0.2657 0.64511,-0.46702 1.05103,-0.57445c0.09072,-0.02401 0.18159,-0.04271 0.27229,-0.0563c6.91376,-2.78302 7.85606,5.37503 1.69304,7.52388z" fill="#000000" stroke="none" stroke-width="0.5" stroke-linecap="butt"/><path d="M223.57103,132.01478l-1.92002,11.55046c0,0 -1.51266,3.11431 -1.28697,4.5398c0.2257,1.42548 2.44505,2.77449 2.44505,2.77449c0,0 -1.86585,0.44906 -2.69683,0.32959c-0.60403,-0.08686 -0.13102,-0.68778 -0.5791,-0.93945c-1.00209,-0.56285 -2.93518,-2.87872 -2.93518,-2.87872l2.24449,-3.86004" fill="none" stroke="#000000" stroke-width="4" stroke-linecap="round"/><path d="M221.23671,137.29833l0.88471,3.34295l4.21474,4.17245l-0.97015,-4.2535l0.56876,-3.72761l3.41165,-6.50182l14.47909,-5.23159l3.57787,2.94126l-0.28247,5.98473l-1.12871,2.78713l-0.76931,-2.90692l-2.74426,-3.3174l-7.08761,-0.92375l3.48802,4.36477l-1.10316,4.64666l-2.74426,-3.3174l-4.18068,-1.69306l-3.88999,-1.76999z" fill="#000000" stroke="#000000" stroke-width="4" stroke-linecap="round"/></g><g stroke="#000000" stroke-width="1.5" stroke-linecap="butt"><path d="M202.92004,191.43482l13.56747,-32.0342l13.84279,5.85823l-13.56749,32.0342z" data-paper-data="{&quot;index&quot;:null}" fill="#b1b1b1"/><path d="M206.70683,182.49381l9.78068,-23.0932l13.84279,5.85823l-9.47562,22.37288z" data-paper-data="{&quot;index&quot;:null}" fill="#9b6a16"/><path d="M214.08919,178.02745c0.36289,-1.33217 1.737,-2.11794 3.06917,-1.75505c1.33217,0.36289 2.11794,1.737 1.75505,3.06917c-0.36289,1.33217 -1.737,2.11794 -3.06917,1.75505c-1.33217,-0.36289 -2.11794,-1.737 -1.75505,-3.06917z" fill="#b1b1b1"/><path d="M219.71413,164.64204c2.11421,0.47092 3.6382,3.17504 2.88007,5.25073c-1.19765,3.27905 -6.25464,0.15629 -5.78832,-2.02673c-0.14226,-0.44431 -0.16191,-0.93352 -0.03016,-1.41719c0.32268,-1.1846 1.44496,-1.93714 2.62632,-1.83418c0.10171,-0.00474 0.20563,0.00365 0.3121,0.02737z" fill="#b1b1b1"/></g></g></g></svg>