<svg version="1.1" xmlns="http://www.w3.org/2000/svg" xmlns:xlink="http://www.w3.org/1999/xlink" width="89.00674" height="120.15079" viewBox="0,0,89.00674,120.15079"><g transform="translate(-187.27262,-112.44051)"><g data-paper-data="{&quot;isPaintingLayer&quot;:true}" fill-rule="nonzero" stroke-linejoin="miter" stroke-miterlimit="10" stroke-dasharray="" stroke-dashoffset="0" style="mix-blend-mode: normal"><path d="M264.9999,193.61403l-25.51844,-23.64479l10.21942,-11.02295l25.51842,23.64479z" data-paper-data="{&quot;index&quot;:null}" fill="#b1b1b1" stroke="#000000" stroke-width="1.5" stroke-linecap="butt"/><path d="M250.50566,228.41891l-7.53289,-35.98227l17.85587,-3.73813l7.53289,35.98227z" fill="#9b6a16" stroke="#000000" stroke-width="1.5" stroke-linecap="butt"/><path d="M216.96794,224.56619l14.19854,-34.44801l17.09451,7.04589l-14.19854,34.44801z" fill="#9b6a16" stroke="#000000" stroke-width="1.5" stroke-linecap="butt"/><g stroke="#000000" stroke-linecap="butt"><path d="M227.08407,196.55205l-2.81136,-35.9068l28.64321,-2.24265l2.81136,35.90681c0,0 -7.40952,0.58014 -11.66067,0.91298c-5.13034,0.40168 -16.98254,1.32966 -16.98254,1.32966z" fill="#9b6a16" stroke-width="1.5"/><path d="M237.6408,166.65506c0.59358,1.32507 0.81619,2.62223 0.36236,4.00582c-0.25613,0.78085 -1.74159,1.19848 -1.47464,1.97569c0.97312,2.83319 -1.52244,4.46308 -4.31021,3.47103c-1.26938,-0.45171 -0.93932,-3.07312 -1.16126,-3.22781c-1.50887,-1.0518 -3.19625,-0.74889 -3.75546,-3.10572c-0.28534,-1.20257 1.13818,-4.46125 2.7604,-4.15244c0.19562,-0.06717 0.40284,-0.11098 0.61861,-0.12788c0.51205,-0.04009 1.00014,0.07706 1.41676,0.31087c2.25882,0.08265 4.53845,-1.39308 5.54347,0.85043z" fill="#b1b1b1" stroke-width="1"/><path d="M252.42835,189.11547c-0.39584,0.54235 -6.27683,3.87837 -6.41954,3.88955c-3.7497,0.29359 -6.86572,-5.07519 -4.33698,-7.90919c1.9501,-2.18553 4.89236,-1.16183 7.20199,-1.81481c0.17065,-0.0519 0.34952,-0.08622 0.53468,-0.10071c1.30601,-0.10226 2.45605,0.81837 2.66246,2.08861c0.77073,1.26529 1.10237,2.82586 0.35739,3.84657z" fill="#b1b1b1" stroke-width="1"/></g><g><path d="M230.98493,158.48487l-14.9806,-0.48025l9.57127,-3.48215l-15.80461,-0.0057l10.80987,-3.42735l-16.54384,-0.62241l9.57644,-1.94889l-0.09512,-1.97525l-7.93358,-0.53348l9.54387,-2.86285l0.57898,-3.18645l1.31563,-3.33637l3.14097,-4.16814l5.32352,-3.99859l4.91668,-2.22803l2.08227,-3.33896l2.55681,-2.51495l6.35741,-3.44182l6.48251,-1.31925l-2.37951,2.63229l-1.61287,2.6297l-0.69633,3.36378l2.47203,-1.42367l4.74195,-1.57875l5.00921,-1.01942l5.98572,0.0093l3.36636,1.46296l-3.53592,0.71959l-5.03403,2.40535l-3.73545,2.75481l-2.43948,2.33764l-2.58163,3.90087l2.55941,-1.74832l2.23735,-1.06905l6.60244,-0.72993l5.28423,1.83981l-1.67801,0.80179l-4.53207,2.61007l-2.64677,2.07295l-2.17221,2.89697l-1.66768,3.86831l1.73538,-1.27376l2.79927,-0.56968l3.80835,1.37301l-1.76796,0.3598l-3.1787,1.72092l-3.47336,1.78088l-2.46946,2.1903z" fill="#000000" stroke="#000000" stroke-width="4" stroke-linecap="round"/><path d="M251.71097,142.24243c1.69718,8.3396 -4.12373,16.56478 -13.00137,18.37145c-8.87764,1.80668 -17.45022,-3.48931 -19.1474,-11.82891c-1.69718,-8.3396 4.12373,-16.56477 13.00137,-18.37144c8.87764,-1.80668 17.45022,3.4893 19.1474,11.82891z" data-paper-data="{&quot;index&quot;:null}" fill="#b1b1b1" stroke="#000000" stroke-width="1.5" stroke-linecap="butt"/><path d="M230.99705,136.9852c0.04999,-0.03914 0.09927,-0.07654 0.14789,-0.1122c0.2514,-0.2199 0.55404,-0.38726 0.89396,-0.48099c0.11414,-0.03478 0.22554,-0.05685 0.33515,-0.06634c1.17212,-0.14327 2.27607,0.63708 2.51561,1.8141c0.435,0.55548 0.17307,1.0968 -0.24955,1.58031c-0.21235,0.37568 -0.52967,0.6902 -0.9213,0.89723c-0.15245,0.14954 -0.27364,0.28577 -0.33187,0.40613c-0.06285,0.12991 -0.13099,0.27612 -0.20419,0.43592c1.71263,1.04646 2.88406,2.28472 2.41095,3.4448c-0.29006,0.71125 -1.10613,1.12304 -1.81417,1.42086c-0.13797,0.05804 -1.24454,-0.29261 -2.61045,-0.76978c-1.13109,1.92806 -2.54348,3.56017 -4.10386,3.14026c-1.64373,-0.44234 -1.7867,-1.60178 -1.61382,-2.80222c0.03067,-0.21303 0.44874,-1.01975 1.04126,-2.06244c-0.50367,-0.19429 -0.87073,-0.33993 -1.01555,-0.40286c-0.13007,-0.0321 -0.25647,-0.07546 -0.37787,-0.12923c-0.65417,-0.28972 -1.16287,-0.8812 -1.31641,-1.63567c-0.22394,-1.10038 0.38305,-2.17693 1.39037,-2.57901c0.08113,-0.04574 0.16946,-0.08164 0.26618,-0.10608c0.09175,-0.02318 0.2008,-0.03732 0.32515,-0.04288c0.27196,-0.03131 0.54004,-0.01297 0.79429,0.04842c0.6887,0.093 1.56514,0.309 2.50147,0.61672c0.83771,-1.29673 1.55245,-2.30523 1.78033,-2.41412z" fill="#000000" stroke="none" stroke-width="0.5" stroke-linecap="butt"/><path d="M241.76046,135.66601c0.20521,0.00908 1.06086,0.53688 2.10018,1.24136c0.60315,-0.52801 1.19062,-0.96829 1.67664,-1.25683c0.17083,-0.12678 0.36569,-0.22572 0.57924,-0.28873c0.09486,-0.03537 0.18099,-0.05945 0.25705,-0.07125c0.08018,-0.01245 0.15772,-0.01365 0.23299,-0.0052c0.88192,-0.01919 1.67852,0.5938 1.86065,1.48876c0.12488,0.61361 -0.06794,1.21812 -0.46557,1.64296c-0.07378,0.07884 -0.15464,0.15148 -0.24181,0.21686c-0.08841,0.09314 -0.31689,0.31885 -0.6322,0.6244c0.77501,0.59223 1.34442,1.06328 1.43511,1.21301c0.51099,0.84373 0.77252,1.75715 -0.31741,2.61079c-1.03467,0.81035 -2.6108,0.03746 -4.07044,-1.04641c-0.87087,0.7914 -1.58783,1.40566 -1.70956,1.40606c-0.62472,0.00211 -1.36656,-0.04677 -1.80979,-0.48703c-0.72293,-0.71809 -0.23958,-2.01743 0.7099,-3.34523c-0.1056,-0.09637 -0.20308,-0.18415 -0.29143,-0.26142c-0.08185,-0.0716 -0.21587,-0.13507 -0.37754,-0.19856c-0.359,-0.0305 -0.69652,-0.16509 -0.97491,-0.37883c-0.47008,-0.22763 -0.83823,-0.54963 -0.68915,-1.10374c-0.19482,-0.95729 0.38358,-1.8924 1.30661,-2.15773c0.08507,-0.02773 0.17548,-0.04663 0.27198,-0.05687c0.28427,-0.03787 0.56404,-0.00879 0.82214,0.07592c0.04773,0.01123 0.09651,0.02357 0.14638,0.03698z" data-paper-data="{&quot;index&quot;:null}" fill="#000000" stroke="none" stroke-width="0.5" stroke-linecap="butt"/><path d="M239.47905,155.79446c-2.386,0.67975 -6.07474,1.56487 -8.39726,0.10766c-0.53629,-0.33648 -0.8689,-1.85784 -0.91413,-2.46761c-0.27798,-3.74738 3.95539,-4.12335 6.67421,-4.67665l0.02513,-0.01968c0.30396,-0.24852 0.67107,-0.42887 1.08254,-0.51261c0.09196,-0.01871 0.18376,-0.03212 0.27509,-0.04043c7.06334,-2.37791 7.53156,5.82101 1.25443,7.60931z" fill="#000000" stroke="none" stroke-width="0.5" stroke-linecap="butt"/><path d="M224.16433,129.49346l-2.58577,11.41987c0,0 -1.6905,3.02148 -1.54774,4.45764c0.14276,1.43616 2.28025,2.91144 2.28025,2.91144c0,0 -1.88873,0.34025 -2.71139,0.17284c-0.59799,-0.12169 -0.09097,-0.69421 -0.52372,-0.97141c-0.96781,-0.61994 -2.76352,-3.0439 -2.76352,-3.0439l2.46428,-3.72356" fill="none" stroke="#000000" stroke-width="4" stroke-linecap="round"/><path d="M221.52791,134.63295l0.68961,3.38858l3.96601,4.40956l-0.72217,-4.30254l0.7837,-3.68841l3.7825,-6.29331l14.75779,-4.38422l3.40151,3.14355l-0.62861,5.95833l-1.28823,2.71708l-0.59966,-2.94659l-2.54751,-3.47078l-7.02221,-1.33269l3.22937,4.55947l-1.37043,4.57498l-2.54751,-3.47078l-4.0756,-1.93235l-3.78094,-1.99232z" fill="#000000" stroke="#000000" stroke-width="4" stroke-linecap="round"/></g><g stroke="#000000" stroke-width="1.5" stroke-linecap="butt"><path d="M203.52285,193.58456l16.23706,-30.76726l13.29571,7.01184l-16.23708,30.76726z" data-paper-data="{&quot;index&quot;:null}" fill="#b1b1b1"/><path d="M208.05473,184.99717l11.70516,-22.17987l13.29571,7.01184l-11.34008,21.48805z" data-paper-data="{&quot;index&quot;:null}" fill="#9b6a16"/><path d="M215.78949,181.17341c0.47463,-1.29657 1.91047,-1.96289 3.20704,-1.48826c1.29657,0.47463 1.96289,1.91047 1.48826,3.20704c-0.47463,1.29657 -1.91047,1.96289 -3.20704,1.48826c-1.29657,-0.47463 -1.96289,-1.91047 -1.48826,-3.20704z" fill="#b1b1b1"/><path d="M222.53007,168.31363c2.06662,0.64864 3.35563,3.47233 2.42409,5.47619c-1.47161,3.16558 -6.24534,-0.37507 -5.59545,-2.51063c-0.10403,-0.45479 -0.08211,-0.94389 0.09022,-1.41464c0.42205,-1.15294 1.60414,-1.80753 2.77251,-1.60469c0.10175,0.0039 0.20458,0.02109 0.30865,0.05376z" fill="#b1b1b1"/></g></g></g></svg>