<svg version="1.1" xmlns="http://www.w3.org/2000/svg" xmlns:xlink="http://www.w3.org/1999/xlink" width="63.5457" height="103.2266" viewBox="0,0,63.5457,103.2266"><g transform="translate(-209.9621,-129.60861)"><g data-paper-data="{&quot;isPaintingLayer&quot;:true}" fill="#b1b1b1" fill-rule="nonzero" stroke="#000000" stroke-width="1.5" stroke-linecap="butt" stroke-linejoin="miter" stroke-miterlimit="10" stroke-dasharray="" stroke-dashoffset="0" style="mix-blend-mode: normal"><path d="M258.59825,196.0628l-13.06484,-32.24247l13.93273,-5.64102l13.06481,32.24247z" data-paper-data="{&quot;index&quot;:null}"/><path d="M241.6396,226.01012v-36.76232h18.24296v36.76232z"/><path d="M219.59253,228.20565l7.54321,-36.48786l18.10676,3.74325l-7.54321,36.48786z"/><path d="M224.54923,194.47705l4.06935,-35.78606l28.5469,3.24616l-4.06935,35.78607c0,0 -7.38461,-0.83973 -11.62146,-1.32152c-5.11309,-0.58143 -16.92543,-1.92465 -16.92543,-1.92465z"/><path d="M263.36426,145.7683c0,8.51054 -7.34426,15.4097 -16.40387,15.4097c-9.05961,0 -16.40387,-6.89916 -16.40387,-15.4097c0,-8.51054 7.34426,-15.40969 16.40387,-15.40969c9.05961,0 16.40387,6.89915 16.40387,15.4097z" data-paper-data="{&quot;index&quot;:null}"/><path d="M215.61473,196.61719l-4.80623,-34.45529l14.88665,-2.08087l4.80622,34.45529z" data-paper-data="{&quot;index&quot;:null}"/></g></g></svg>