<svg version="1.1" xmlns="http://www.w3.org/2000/svg" xmlns:xlink="http://www.w3.org/1999/xlink" width="89.05399" height="90.96045" viewBox="0,0,89.05399,90.96045"><g transform="translate(-194.38897,-141.47718)"><g data-paper-data="{&quot;isPaintingLayer&quot;:true}" fill="#b1b1b1" fill-rule="nonzero" stroke="#000000" stroke-width="1.5" stroke-linecap="butt" stroke-linejoin="miter" stroke-miterlimit="10" stroke-dasharray="" stroke-dashoffset="0" style="mix-blend-mode: normal"><path d="M201.44756,186.22667l21.44104,-27.39615l11.83453,9.26747l-21.44105,27.39613z" data-paper-data="{&quot;index&quot;:null}"/><path d="M195.44311,213.74524l28.71199,-22.95844l11.39291,14.24805l-28.71199,22.95844z"/><path d="M218.42731,192.88772l17.57118,-31.43972l25.07978,14.01671l-17.57118,31.43973c0,0 -6.48772,-3.62589 -10.20999,-5.70621c-4.49209,-2.51056 -14.86977,-8.31049 -14.86977,-8.31049z"/><path d="M272.87855,160.24803c-1.34024,8.40435 -9.67933,14.06085 -18.6259,12.63415c-8.94657,-1.4267 -15.11271,-9.39635 -13.77248,-17.80069c1.34024,-8.40435 9.67933,-14.06084 18.6259,-12.63414c8.94657,1.4267 15.11271,9.39634 13.77248,17.80069z" data-paper-data="{&quot;index&quot;:null}"/><path d="M233.51076,222.49626l17.98029,-32.63392l16.19428,8.92255l-17.98029,32.63392z"/><path d="M270.52843,214.44334l-21.35901,-27.46014l11.86219,-9.23203l21.359,27.46016z" data-paper-data="{&quot;index&quot;:null}"/></g></g></svg>