<svg version="1.1" xmlns="http://www.w3.org/2000/svg" xmlns:xlink="http://www.w3.org/1999/xlink" width="86.65292" height="65.52564" viewBox="0,0,86.65292,65.52564"><g transform="translate(-199.14388,-188.00797)"><g data-paper-data="{&quot;isPaintingLayer&quot;:true}" fill="#b1b1b1" fill-rule="nonzero" stroke="#000000" stroke-width="1.5" stroke-linecap="butt" stroke-linejoin="miter" stroke-miterlimit="10" stroke-dasharray="" stroke-dashoffset="0" style="mix-blend-mode: normal"><path d="M212.68977,226.84773l36.30996,5.74933l-2.85306,18.01848l-36.30996,-5.74933z"/><path d="M200.16082,236.26641l32.74674,-17.77399l8.82018,16.25027l-32.74674,17.77399z"/><g><path d="M256.31226,248.15027l-6.07004,-34.25522l14.80154,-2.61851l6.07004,34.25524z" data-paper-data="{&quot;index&quot;:null}"/><path d="M224.52026,224.76542l28.50131,-22.01992l17.5655,22.73579l-28.50133,22.01991c0,0 -4.54391,-5.88138 -7.15093,-9.25576c-3.1462,-4.07225 -10.41457,-13.48003 -10.41457,-13.48003z"/><path d="M238.53819,247.72953l-4.64685,-34.47715l14.8961,-2.01201l4.64685,34.47714z"/><path d="M270.91012,221.4734c-8.4866,0.63797 -15.91689,-6.16846 -16.596,-15.20258c-0.67912,-9.03411 5.6501,-16.87489 14.13669,-17.51284c8.4866,-0.63797 15.91687,6.16847 16.59599,15.20259c0.67912,9.03412 -5.65009,16.87489 -14.13669,17.51284z" data-paper-data="{&quot;index&quot;:null}"/></g></g></g></svg>