<svg version="1.1" xmlns="http://www.w3.org/2000/svg" xmlns:xlink="http://www.w3.org/1999/xlink" width="13.34674" height="13.1525" viewBox="0,0,13.34674,13.1525"><defs><radialGradient cx="240.00001" cy="180.00002" r="11.16585" gradientUnits="userSpaceOnUse" id="color-1"><stop offset="0" stop-color="#d900ff"/><stop offset="1" stop-color="#d900ff" stop-opacity="0"/></radialGradient></defs><g transform="translate(-233.32662,-173.42376)"><g data-paper-data="{&quot;isPaintingLayer&quot;:true}" fill="url(#color-1)" fill-rule="nonzero" stroke="none" stroke-width="0" stroke-linecap="butt" stroke-linejoin="miter" stroke-miterlimit="10" stroke-dasharray="" stroke-dashoffset="0" style="mix-blend-mode: normal"><path d="M244.87361,184.54342c-2.51772,2.62578 -6.7407,2.72024 -9.43233,0.21098c-2.69161,-2.50925 -2.83257,-6.67201 -0.31486,-9.2978c0.02191,-0.02284 0.04393,-0.0455 0.0661,-0.06797c0.00862,0.12735 0.06407,0.25195 0.16554,0.34656c0.21379,0.1993 0.55094,0.18998 0.75306,-0.02082c0.20212,-0.2108 0.19267,-0.54324 -0.02111,-0.74255c-0.07999,-0.07457 -0.17726,-0.11993 -0.27825,-0.13647c0.94824,-0.74505 2.06168,-1.19637 3.21279,-1.35111c-0.07918,0.10091 -0.06934,0.24655 0.02666,0.33605c0.10224,0.09532 0.2635,0.09087 0.36016,-0.00995c0.09666,-0.10081 0.09214,-0.25982 -0.0101,-0.35513c-0.00373,-0.00347 -0.00753,-0.00681 -0.0114,-0.01002c1.36071,-0.1083 2.75494,0.19356 3.97569,0.91022c-0.02153,0.01203 -0.04163,0.02739 -0.05953,0.04605c-0.09666,0.10081 -0.09214,0.25981 0.0101,0.35512c0.10224,0.09532 0.2635,0.09087 0.36015,-0.00995c0.04118,-0.04296 0.06401,-0.09648 0.06871,-0.15114c0.28341,0.1928 0.55563,0.40948 0.81373,0.65011c0.21593,0.20129 0.41542,0.41322 0.59845,0.63414c-0.17419,-0.03472 -0.36206,0.01725 -0.49314,0.15396c-0.17303,0.18046 -0.19101,0.45008 -0.05847,0.64899c-0.18883,-0.0593 -0.40384,-0.01188 -0.54912,0.13963c-0.20212,0.2108 -0.19267,0.54324 0.02111,0.74254c0.21379,0.1993 0.55094,0.18997 0.75306,-0.02082c0.17303,-0.18046 0.191,-0.45008 0.05847,-0.64898c0.18883,0.0593 0.40386,0.01187 0.54912,-0.13964c0.08334,-0.08692 0.13072,-0.19454 0.14261,-0.30496c0.25051,0.37818 0.45815,0.77613 0.62273,1.18697c-0.10238,-0.07908 -0.25089,-0.06967 -0.34202,0.02537c-0.09666,0.10081 -0.09215,0.25982 0.01009,0.35513c0.10224,0.09532 0.26349,0.09086 0.36015,-0.00995c0.03431,-0.03578 0.05589,-0.0789 0.06485,-0.1239c0.79629,2.24533 0.33415,4.8267 -1.42308,6.65934zM238.88552,184.30696c-0.20212,0.2108 -0.19267,0.54324 0.02111,0.74254c0.21379,0.1993 0.55094,0.18997 0.75306,-0.02082c0.20212,-0.2108 0.19265,-0.54324 -0.02113,-0.74254c-0.21379,-0.1993 -0.55094,-0.18997 -0.75306,0.02082zM241.75875,184.64167c-0.20212,0.2108 -0.19267,0.54324 0.02111,0.74254c0.21379,0.1993 0.55094,0.18997 0.75308,-0.02082c0.20212,-0.2108 0.19265,-0.54324 -0.02113,-0.74254c-0.21379,-0.1993 -0.55094,-0.18998 -0.75306,0.02082zM240.21054,181.22071c-0.20212,0.2108 -0.19267,0.54324 0.02111,0.74255c0.21379,0.1993 0.55094,0.18997 0.75306,-0.02082c0.20212,-0.2108 0.19267,-0.54324 -0.02111,-0.74255c-0.21379,-0.1993 -0.55094,-0.18997 -0.75306,0.02082zM241.11657,178.84257c-0.20212,0.2108 -0.19267,0.54324 0.02111,0.74255c0.21379,0.1993 0.55094,0.18997 0.75306,-0.02083c0.20212,-0.2108 0.19267,-0.54324 -0.02111,-0.74254c-0.21379,-0.1993 -0.55094,-0.18998 -0.75306,0.02082zM236.63557,178.36405c-0.20212,0.2108 -0.19267,0.54324 0.02111,0.74254c0.21379,0.1993 0.55094,0.18998 0.75306,-0.02082c0.20212,-0.2108 0.19267,-0.54324 -0.02111,-0.74254c-0.21379,-0.1993 -0.55094,-0.18997 -0.75306,0.02082zM235.23889,180.94402c-0.20212,0.2108 -0.19267,0.54324 0.02111,0.74254c0.21379,0.1993 0.55094,0.18997 0.75306,-0.02082c0.20212,-0.2108 0.19265,-0.54324 -0.02113,-0.74254c-0.21379,-0.1993 -0.55094,-0.18998 -0.75306,0.02082zM240.10927,174.97369c-0.20212,0.2108 -0.19267,0.54324 0.02111,0.74255c0.21379,0.1993 0.55094,0.18998 0.75306,-0.02082c0.20212,-0.2108 0.19267,-0.54324 -0.02111,-0.74255c-0.21379,-0.1993 -0.55094,-0.18998 -0.75306,0.02082zM245.5332,180.26414c0.07468,0.00627 0.15144,-0.01984 0.20694,-0.07772c0.09666,-0.10081 0.09214,-0.25982 -0.0101,-0.35513c-0.10224,-0.09532 -0.26349,-0.09086 -0.36015,0.00995c-0.07107,0.07412 -0.08745,0.17967 -0.05052,0.26825c-0.07468,-0.00627 -0.15144,0.01984 -0.20694,0.07772c-0.09666,0.10081 -0.09214,0.25982 0.0101,0.35513c0.10224,0.09532 0.2635,0.09086 0.36015,-0.00995c0.07107,-0.07412 0.08743,-0.17967 0.0505,-0.26825zM235.23582,177.55677c0.02944,-0.01307 0.05683,-0.03192 0.08038,-0.05649c0.09666,-0.10081 0.09214,-0.25981 -0.0101,-0.35512c-0.10224,-0.09532 -0.2635,-0.09086 -0.36015,0.00995c-0.09209,0.09604 -0.09235,0.24488 -0.00377,0.34117c-0.02944,0.01307 -0.05682,0.03191 -0.08037,0.05648c-0.09666,0.10081 -0.09215,0.25982 0.01009,0.35513c0.10224,0.09532 0.2635,0.09086 0.36015,-0.00995c0.09209,-0.09604 0.09235,-0.24488 0.00377,-0.34116zM234.32906,178.96053c-0.09666,0.10081 -0.09215,0.25982 0.01009,0.35513c0.10224,0.09532 0.26349,0.09086 0.36015,-0.00995c0.09666,-0.10081 0.09215,-0.25982 -0.01009,-0.35513c-0.10224,-0.09532 -0.26349,-0.09086 -0.36015,0.00996zM241.58239,174.8821c-0.09666,0.10081 -0.09215,0.25982 0.01009,0.35513c0.10224,0.09532 0.26349,0.09086 0.36015,-0.00995c0.09666,-0.10081 0.09215,-0.25981 -0.01009,-0.35512c-0.10224,-0.09532 -0.26349,-0.09087 -0.36015,0.00995zM236.01456,182.50946c-0.09666,0.10081 -0.09215,0.25982 0.01009,0.35513c0.10224,0.09532 0.2635,0.09086 0.36015,-0.00996c0.09666,-0.10081 0.09215,-0.25982 -0.01009,-0.35513c-0.10224,-0.09532 -0.2635,-0.09086 -0.36015,0.00996zM245.63731,181.18925c-0.09666,0.10081 -0.09215,0.25982 0.01009,0.35513c0.10224,0.09532 0.2635,0.09086 0.36015,-0.00995c0.09666,-0.10081 0.09215,-0.25982 -0.01009,-0.35513c-0.10224,-0.09532 -0.2635,-0.09086 -0.36015,0.00995zM243.61056,179.7393c-0.09666,0.10081 -0.09214,0.25982 0.0101,0.35513c0.10224,0.09532 0.2635,0.09086 0.36015,-0.00996c0.09666,-0.10081 0.09214,-0.25982 -0.0101,-0.35513c-0.10224,-0.09532 -0.2635,-0.09086 -0.36015,0.00995zM240.38253,184.38412c-0.09666,0.10081 -0.09215,0.25982 0.01009,0.35513c0.10224,0.09532 0.2635,0.09086 0.36016,-0.00995c0.09666,-0.10081 0.09214,-0.25982 -0.0101,-0.35513c-0.10224,-0.09532 -0.2635,-0.09086 -0.36015,0.00995zM242.78083,176.07257c-0.09666,0.10081 -0.09215,0.25982 0.01009,0.35513c0.10224,0.09532 0.26349,0.09087 0.36015,-0.00995c0.09666,-0.10081 0.09214,-0.25982 -0.0101,-0.35513c-0.10224,-0.09532 -0.26349,-0.09086 -0.36015,0.00995zM244.3073,179.40001c-0.09666,0.10081 -0.09214,0.25982 0.0101,0.35513c0.10224,0.09532 0.2635,0.09086 0.36015,-0.00995c0.09666,-0.10081 0.09215,-0.25982 -0.01009,-0.35513c-0.10224,-0.09532 -0.2635,-0.09086 -0.36016,0.00995zM243.38343,180.47974c-0.09666,0.10081 -0.09214,0.25982 0.0101,0.35513c0.10224,0.09532 0.26349,0.09086 0.36015,-0.00996c0.09666,-0.10081 0.09214,-0.25982 -0.0101,-0.35513c-0.10224,-0.09532 -0.2635,-0.09086 -0.36015,0.00996zM242.84502,182.35827c-0.09666,0.10081 -0.09215,0.25982 0.01009,0.35513c0.10224,0.09532 0.26349,0.09086 0.36015,-0.00995c0.09666,-0.10081 0.09215,-0.25982 -0.01009,-0.35513c-0.10224,-0.09532 -0.26349,-0.09086 -0.36015,0.00995zM240.13365,176.97405c-0.09666,0.10081 -0.09214,0.25981 0.0101,0.35512c0.10224,0.09532 0.2635,0.09087 0.36015,-0.00995c0.09666,-0.10081 0.09215,-0.25982 -0.01009,-0.35513c-0.10224,-0.09532 -0.2635,-0.09086 -0.36016,0.00995zM242.804,181.58759c-0.09666,0.10081 -0.09214,0.25982 0.0101,0.35513c0.10224,0.09532 0.26349,0.09086 0.36015,-0.00996c0.09666,-0.10081 0.09214,-0.25982 -0.0101,-0.35513c-0.10224,-0.09532 -0.2635,-0.09086 -0.36015,0.00996zM242.82574,183.69537c-0.09666,0.10081 -0.09214,0.25982 0.0101,0.35513c0.10224,0.09532 0.2635,0.09087 0.36015,-0.00995c0.09666,-0.10081 0.09215,-0.25982 -0.01009,-0.35513c-0.10224,-0.09532 -0.2635,-0.09087 -0.36016,0.00995zM243.76494,184.49769c-0.09666,0.10081 -0.09214,0.25982 0.0101,0.35513c0.10224,0.09532 0.2635,0.09086 0.36015,-0.00995c0.09666,-0.10081 0.09215,-0.25981 -0.01009,-0.35512c-0.10224,-0.09532 -0.2635,-0.09087 -0.36016,0.00995zM237.45761,174.84552c-0.09666,0.10081 -0.09215,0.25982 0.01009,0.35513c0.10224,0.09532 0.26349,0.09086 0.36015,-0.00995c0.09666,-0.10081 0.09215,-0.25982 -0.01009,-0.35513c-0.10224,-0.09532 -0.26349,-0.09086 -0.36015,0.00995zM236.47562,176.5669c-0.09666,0.10081 -0.09215,0.25982 0.01009,0.35513c0.10224,0.09532 0.26349,0.09086 0.36015,-0.00995c0.09666,-0.10081 0.09215,-0.25982 -0.01009,-0.35513c-0.10224,-0.09532 -0.26349,-0.09086 -0.36015,0.00995zM243.2843,178.33646c-0.09666,0.10081 -0.09214,0.25982 0.0101,0.35513c0.10224,0.09532 0.2635,0.09086 0.36015,-0.00996c0.09666,-0.10081 0.09215,-0.25981 -0.01009,-0.35512c-0.10224,-0.09532 -0.2635,-0.09086 -0.36016,0.00995zM244.03417,182.5513c-0.09666,0.10081 -0.09214,0.25982 0.0101,0.35513c0.10224,0.09532 0.26349,0.09086 0.36015,-0.00996c0.09666,-0.10081 0.09214,-0.25981 -0.0101,-0.35512c-0.10224,-0.09532 -0.26349,-0.09086 -0.36015,0.00995zM238.86321,175.93616c-0.09666,0.10081 -0.09214,0.25982 0.0101,0.35513c0.10224,0.09532 0.2635,0.09087 0.36015,-0.00995c0.09666,-0.10081 0.09215,-0.25982 -0.01009,-0.35513c-0.10224,-0.09532 -0.2635,-0.09086 -0.36016,0.00996zM241.70471,176.49765c-0.09666,0.10081 -0.09215,0.25981 0.01009,0.35512c0.10224,0.09532 0.26349,0.09086 0.36015,-0.00996c0.09666,-0.10081 0.09215,-0.25981 -0.01009,-0.35512c-0.10224,-0.09532 -0.26349,-0.09086 -0.36015,0.00996zM240.89848,185.74407c-0.09666,0.10081 -0.09214,0.25982 0.0101,0.35513c0.10224,0.09532 0.2635,0.09086 0.36015,-0.00996c0.09666,-0.10081 0.09215,-0.25982 -0.01009,-0.35513c-0.10224,-0.09532 -0.2635,-0.09087 -0.36016,0.00995zM239.48898,185.85834c-0.09666,0.10081 -0.09214,0.25982 0.0101,0.35513c0.10224,0.09532 0.26349,0.09087 0.36015,-0.00995c0.09666,-0.10081 0.09214,-0.25982 -0.0101,-0.35513c-0.10224,-0.09532 -0.26349,-0.09087 -0.36015,0.00995zM235.32034,178.2366c-0.09666,0.10081 -0.09215,0.25982 0.01009,0.35513c0.10224,0.09532 0.26349,0.09086 0.36015,-0.00996c0.09666,-0.10081 0.09215,-0.25982 -0.01009,-0.35513c-0.10224,-0.09532 -0.26349,-0.09086 -0.36015,0.00995zM244.84929,178.98971c-0.09666,0.10081 -0.09214,0.25982 0.0101,0.35513c0.10224,0.09532 0.26349,0.09086 0.36015,-0.00995c0.09666,-0.10081 0.09214,-0.25981 -0.0101,-0.35512c-0.10224,-0.09532 -0.2635,-0.09087 -0.36015,0.00995zM241.96143,177.46944c-0.09666,0.10081 -0.09214,0.25982 0.0101,0.35513c0.10224,0.09532 0.2635,0.09086 0.36015,-0.00995c0.09666,-0.10081 0.09214,-0.25982 -0.0101,-0.35513c-0.10224,-0.09532 -0.26349,-0.09086 -0.36015,0.00995zM236.25169,179.43446c-0.09666,0.10081 -0.09215,0.25982 0.01009,0.35513c0.10224,0.09532 0.2635,0.09086 0.36016,-0.00996c0.09666,-0.10081 0.09214,-0.25981 -0.0101,-0.35512c-0.10224,-0.09532 -0.2635,-0.09087 -0.36015,0.00995zM242.63534,179.01326c-0.09666,0.10081 -0.09215,0.25982 0.01009,0.35513c0.10224,0.09532 0.26349,0.09086 0.36015,-0.00995c0.09666,-0.10081 0.09215,-0.25982 -0.01009,-0.35513c-0.10224,-0.09532 -0.26349,-0.09086 -0.36015,0.00995zM237.21479,184.43406c-0.09666,0.10081 -0.09214,0.25981 0.0101,0.35512c0.10224,0.09532 0.26349,0.09087 0.36015,-0.00995c0.09666,-0.10081 0.09214,-0.25982 -0.0101,-0.35513c-0.10224,-0.09532 -0.26349,-0.09086 -0.36015,0.00995zM244.54513,181.05001c-0.09666,0.10081 -0.09214,0.25982 0.0101,0.35513c0.10224,0.09532 0.26349,0.09087 0.36015,-0.00995c0.09666,-0.10081 0.09214,-0.25982 -0.0101,-0.35513c-0.10224,-0.09532 -0.26349,-0.09087 -0.36015,0.00995zM236.76408,183.35468c-0.09666,0.10081 -0.09215,0.25982 0.01009,0.35513c0.10224,0.09532 0.2635,0.09086 0.36016,-0.00996c0.09666,-0.10081 0.09214,-0.25982 -0.0101,-0.35513c-0.10224,-0.09532 -0.2635,-0.09086 -0.36015,0.00996zM234.74268,180.07857c-0.09666,0.10081 -0.09215,0.25982 0.01009,0.35513c0.10224,0.09532 0.2635,0.09087 0.36016,-0.00995c0.09666,-0.10081 0.09214,-0.25982 -0.0101,-0.35513c-0.10224,-0.09532 -0.2635,-0.09087 -0.36015,0.00995zM235.75213,184.02269c-0.09666,0.10081 -0.09215,0.25982 0.01009,0.35513c0.10224,0.09532 0.26349,0.09086 0.36015,-0.00995c0.09666,-0.10081 0.09215,-0.25981 -0.01009,-0.35512c-0.10224,-0.09532 -0.26349,-0.09087 -0.36015,0.00995zM244.25132,178.10264c-0.09666,0.10081 -0.09214,0.25982 0.0101,0.35513c0.10224,0.09532 0.2635,0.09086 0.36015,-0.00996c0.09666,-0.10081 0.09215,-0.25982 -0.01009,-0.35513c-0.10224,-0.09532 -0.2635,-0.09086 -0.36016,0.00995zM245.11564,178.28583c-0.09666,0.10081 -0.09214,0.25982 0.0101,0.35513c0.10224,0.09532 0.26349,0.09086 0.36015,-0.00995c0.09666,-0.10081 0.09214,-0.25982 -0.0101,-0.35513c-0.10224,-0.09532 -0.26349,-0.09086 -0.36015,0.00995zM238.55368,185.86537c-0.09666,0.10081 -0.09215,0.25982 0.01009,0.35513c0.10224,0.09532 0.2635,0.09086 0.36016,-0.00996c0.09666,-0.10081 0.09214,-0.25981 -0.0101,-0.35512c-0.10224,-0.09532 -0.2635,-0.09087 -0.36015,0.00995zM238.33583,183.57476c-0.09666,0.10081 -0.09215,0.25982 0.01009,0.35513c0.10224,0.09532 0.26349,0.09086 0.36015,-0.00995c0.09666,-0.10081 0.09215,-0.25981 -0.01009,-0.35512c-0.10224,-0.09532 -0.26349,-0.09087 -0.36015,0.00995zM243.95012,181.87429c0.13941,0 0.25242,-0.06656 0.25242,-0.14867c0,-0.08211 -0.11301,-0.14866 -0.25242,-0.14866c-0.13941,0 -0.25243,0.06656 -0.25243,0.14866c0,0.08211 0.11301,0.14867 0.25243,0.14867zM245.15588,182.25895c0.13941,0 0.25242,-0.06656 0.25242,-0.14866c0,-0.08211 -0.11301,-0.14867 -0.25242,-0.14867c-0.13941,0 -0.25243,0.06656 -0.25243,0.14867c0,0.08211 0.11301,0.14866 0.25243,0.14866zM234.60554,182.58443c0.13941,0 0.25242,-0.06656 0.25242,-0.14867c0,-0.08211 -0.11301,-0.14866 -0.25242,-0.14866c-0.13941,0 -0.25243,0.06656 -0.25243,0.14866c0,0.08211 0.11301,0.14867 0.25243,0.14867zM233.85195,181.07539c0.13941,0 0.25243,-0.06656 0.25243,-0.14866c0,-0.08211 -0.11301,-0.14867 -0.25243,-0.14867c-0.13941,0 -0.25242,0.06657 -0.25242,0.14867c0,0.08211 0.11301,0.14866 0.25242,0.14866zM239.93095,179.18167c0.13941,0 0.25243,-0.06657 0.25243,-0.14867c0,-0.08211 -0.11301,-0.14866 -0.25243,-0.14866c-0.13941,0 -0.25243,0.06656 -0.25243,0.14866c0,0.08211 0.11301,0.14867 0.25243,0.14867zM240.73479,183.29457c0.13941,0 0.25242,-0.06656 0.25242,-0.14867c0,-0.08211 -0.11301,-0.14866 -0.25242,-0.14866c-0.13941,0 -0.25243,0.06656 -0.25243,0.14866c0,0.08211 0.11301,0.14867 0.25243,0.14867zM239.52903,178.53071c0.13941,0 0.25242,-0.06656 0.25242,-0.14867c0,-0.08211 -0.11301,-0.14867 -0.25242,-0.14867c-0.13941,0 -0.25243,0.06657 -0.25243,0.14867c0,0.08211 0.11301,0.14867 0.25243,0.14867zM241.94054,180.69072c0.13941,0 0.25242,-0.06656 0.25242,-0.14866c0,-0.08211 -0.11301,-0.14867 -0.25242,-0.14867c-0.13941,0 -0.25243,0.06656 -0.25243,0.14867c0,0.08211 0.11301,0.14866 0.25243,0.14866zM239.12711,182.99868c0.13941,0 0.25243,-0.06656 0.25243,-0.14867c0,-0.08211 -0.11301,-0.14866 -0.25243,-0.14866c-0.13941,0 -0.25242,0.06656 -0.25242,0.14866c0,0.08211 0.11301,0.14867 0.25242,0.14867zM237.36872,181.40087c0.13941,0 0.25243,-0.06657 0.25243,-0.14867c0,-0.08211 -0.11302,-0.14867 -0.25243,-0.14867c-0.13941,0 -0.25243,0.06656 -0.25243,0.14867c0,0.08211 0.11301,0.14867 0.25243,0.14867zM237.82087,179.74387c0.13941,0 0.25242,-0.06656 0.25242,-0.14866c0,-0.08211 -0.11301,-0.14867 -0.25242,-0.14867c-0.13941,0 -0.25243,0.06656 -0.25243,0.14867c0,0.08211 0.11301,0.14866 0.25243,0.14866zM239.37832,179.71428c0.13941,0 0.25242,-0.06656 0.25242,-0.14867c0,-0.08211 -0.11301,-0.14866 -0.25242,-0.14866c-0.13941,0 -0.25243,0.06656 -0.25243,0.14866c0,0.08211 0.11301,0.14867 0.25243,0.14867zM238.32328,178.97455c0.13941,0 0.25243,-0.06656 0.25243,-0.14866c0,-0.08211 -0.11301,-0.14867 -0.25243,-0.14867c-0.13941,0 -0.25242,0.06656 -0.25242,0.14867c0,0.08211 0.11301,0.14866 0.25242,0.14866zM238.67496,181.25292c0.13941,0 0.25242,-0.06656 0.25242,-0.14867c0,-0.08211 -0.11301,-0.14867 -0.25242,-0.14867c-0.13941,0 -0.25243,0.06656 -0.25243,0.14867c0,0.08211 0.11302,0.14867 0.25243,0.14867zM244.45252,183.82718c0.13941,0 0.25243,-0.06656 0.25243,-0.14866c0,-0.08211 -0.11301,-0.14867 -0.25243,-0.14867c-0.13941,0 -0.25242,0.06656 -0.25242,0.14867c0,0.08211 0.11301,0.14866 0.25242,0.14866zM235.10794,183.88636c0.13941,0 0.25243,-0.06657 0.25243,-0.14867c0,-0.08211 -0.11301,-0.14867 -0.25243,-0.14867c-0.13941,0 -0.25242,0.06656 -0.25242,0.14867c0,0.08211 0.11301,0.14867 0.25242,0.14867zM237.92137,177.58386c0.13941,0 0.25243,-0.06656 0.25243,-0.14866c0,-0.08211 -0.11301,-0.14867 -0.25243,-0.14867c-0.13941,0 -0.25243,0.06656 -0.25243,0.14867c0,0.08211 0.11302,0.14866 0.25243,0.14866zM241.73958,182.61402c0.13941,0 0.25243,-0.06656 0.25243,-0.14867c0,-0.08211 -0.11301,-0.14866 -0.25243,-0.14866c-0.13941,0 -0.25243,0.06656 -0.25243,0.14866c0,0.08211 0.11302,0.14867 0.25243,0.14867zM239.42855,176.9329c0.13941,0 0.25242,-0.06657 0.25242,-0.14867c0,-0.08211 -0.11301,-0.14866 -0.25242,-0.14866c-0.13941,0 -0.25243,0.06656 -0.25243,0.14866c0,0.08211 0.11301,0.14867 0.25243,0.14867zM236.86633,180.72031c0.13941,0 0.25243,-0.06656 0.25243,-0.14867c0,-0.08211 -0.11301,-0.14867 -0.25243,-0.14867c-0.13941,0 -0.25242,0.06657 -0.25242,0.14867c0,0.08211 0.11301,0.14867 0.25242,0.14867zM238.7252,178.17565c0.13941,0 0.25242,-0.06656 0.25242,-0.14867c0,-0.08211 -0.11301,-0.14867 -0.25242,-0.14867c-0.13941,0 -0.25243,0.06657 -0.25243,0.14867c0,0.08211 0.11301,0.14867 0.25243,0.14867zM237.72041,182.22936c0.13941,0 0.25242,-0.06656 0.25242,-0.14867c0,-0.08211 -0.11301,-0.14867 -0.25242,-0.14867c-0.13941,0 -0.25243,0.06656 -0.25243,0.14867c0,0.08211 0.11301,0.14867 0.25243,0.14867zM240.78502,180.24689c0.13941,0 0.25243,-0.06657 0.25243,-0.14867c0,-0.08211 -0.11301,-0.14867 -0.25243,-0.14867c-0.13941,0 -0.25242,0.06656 -0.25242,0.14867c0,0.08211 0.11301,0.14867 0.25242,0.14867zM238.52423,180.27647c0.13941,0 0.25242,-0.06656 0.25242,-0.14866c0,-0.08211 -0.11301,-0.14867 -0.25242,-0.14867c-0.13941,0 -0.25243,0.06656 -0.25243,0.14867c0,0.08211 0.11301,0.14866 0.25243,0.14866zM239.72998,180.69072c0.13941,0 0.25242,-0.06656 0.25242,-0.14866c0,-0.08211 -0.11301,-0.14867 -0.25242,-0.14867c-0.13941,0 -0.25243,0.06656 -0.25243,0.14867c0,0.08211 0.11301,0.14866 0.25243,0.14866zM234.25386,181.81511c0.13941,0 0.25243,-0.06656 0.25243,-0.14866c0,-0.08211 -0.11302,-0.14867 -0.25243,-0.14867c-0.13941,0 -0.25243,0.06657 -0.25243,0.14867c0,0.08211 0.11301,0.14866 0.25243,0.14866zM237.92137,180.72031c0.13941,0 0.25243,-0.06656 0.25243,-0.14867c0,-0.08211 -0.11301,-0.14867 -0.25243,-0.14867c-0.13941,0 -0.25243,0.06657 -0.25243,0.14867c0,0.08211 0.11302,0.14867 0.25243,0.14867zM241.8903,183.88636c0.13941,0 0.25242,-0.06657 0.25242,-0.14867c0,-0.08211 -0.11301,-0.14867 -0.25242,-0.14867c-0.13941,0 -0.25243,0.06656 -0.25243,0.14867c0,0.08211 0.11301,0.14867 0.25243,0.14867z" data-paper-data="{&quot;index&quot;:null}"/></g></g></svg>