<svg version="1.1" xmlns="http://www.w3.org/2000/svg" xmlns:xlink="http://www.w3.org/1999/xlink" width="87.21418" height="95.44666" viewBox="0,0,87.21418,95.44666"><g transform="translate(-205.28498,-139.74187)"><g data-paper-data="{&quot;isPaintingLayer&quot;:true}" fill="#b1b1b1" fill-rule="nonzero" stroke="#000000" stroke-width="1.5" stroke-linecap="butt" stroke-linejoin="miter" stroke-miterlimit="10" stroke-dasharray="" stroke-dashoffset="0" style="mix-blend-mode: normal"><path d="M218.27705,202.3855l-1.56847,-34.75352l15.01628,-0.67343l1.56845,34.75351z" data-paper-data="{&quot;index&quot;:null}"/><path d="M206.34536,221.52999l25.38722,-26.58867l13.19438,12.59816l-25.38722,26.58867z"/><path d="M245.89017,230.08948l5.38116,-36.86878l18.29579,2.67035l-5.38116,36.86878z"/><path d="M226.6318,198.61921l12.17305,-33.89718l27.04012,9.71057l-12.17305,33.89719c0,0 -6.99483,-2.51196 -11.00805,-3.95318c-4.84321,-1.73928 -16.03206,-5.75739 -16.03206,-5.75739z"/><path d="M274.20414,158.51272c-1.34024,8.40435 -9.67933,14.06085 -18.6259,12.63415c-8.94657,-1.4267 -15.11271,-9.39635 -13.77248,-17.80069c1.34024,-8.40435 9.67933,-14.06084 18.6259,-12.63414c8.94657,1.4267 15.11271,9.39634 13.77248,17.80069z" data-paper-data="{&quot;index&quot;:null}"/><path d="M291.00636,185.92382l-34.74978,-1.64912l0.70829,-15.01467l34.74979,1.64914z" data-paper-data="{&quot;index&quot;:null}"/></g></g></svg>