<svg version="1.1" xmlns="http://www.w3.org/2000/svg" xmlns:xlink="http://www.w3.org/1999/xlink" width="87.32908" height="56.44573" viewBox="0,0,87.32908,56.44573"><g transform="translate(-196.78975,-149.94194)"><g data-paper-data="{&quot;isPaintingLayer&quot;:true}" fill="#b1b1b1" fill-rule="nonzero" stroke="#000000" stroke-width="1.5" stroke-linecap="butt" stroke-linejoin="miter" stroke-miterlimit="10" stroke-dasharray="" stroke-dashoffset="0" style="mix-blend-mode: normal"><path d="M243.25258,155.50473l14.93942,31.41784l-13.57301,6.45878l-14.9394,-31.41785z" data-paper-data="{&quot;index&quot;:null}"/><path d="M197.6308,187.21357l36.94385,-4.83901l2.40133,18.33304l-36.94385,4.83901z"/><path d="M199.18878,182.38971l29.27172,-22.24038l11.03658,14.52583l-29.27173,22.24036z"/><path d="M223.08735,179.49556l32.37727,-15.7247l11.89912,25.09951l-32.37729,15.72471c0,0 -3.0781,-6.49282 -4.84415,-10.21803c-2.13127,-4.49561 -7.05497,-14.88147 -7.05497,-14.88147z"/><path d="M274.86282,181.70702c-7.67258,3.68252 -17.07029,0.04665 -20.99038,-8.12094c-3.92009,-8.16759 -0.8781,-17.77397 6.79449,-21.45649c7.67258,-3.68252 17.07027,-0.04665 20.99037,8.12094c3.92009,8.16759 0.87811,17.77397 -6.79449,21.45649z" data-paper-data="{&quot;index&quot;:null}"/><path d="M214.05181,185.03023l20.4245,-28.16216l12.16562,8.82834l-20.4245,28.16214z" data-paper-data="{&quot;index&quot;:null}"/></g></g></svg>