<svg version="1.1" xmlns="http://www.w3.org/2000/svg" xmlns:xlink="http://www.w3.org/1999/xlink" width="105.42311" height="88.97279" viewBox="0,0,105.42311,88.97279"><g transform="translate(-193.35117,-174.0371)"><g data-paper-data="{&quot;isPaintingLayer&quot;:true}" fill-rule="nonzero" stroke-linejoin="miter" stroke-miterlimit="10" stroke-dasharray="" stroke-dashoffset="0" style="mix-blend-mode: normal"><path d="M227.72639,224.73326l34.73373,-1.95831l0.84188,15.00777l-34.73372,1.9583z" data-paper-data="{&quot;index&quot;:null}" fill="#b1b1b1" stroke="#000000" stroke-width="1.5" stroke-linecap="butt"/><path d="M194.35563,224.91135l32.96669,-16.26854l8.07311,16.35942l-32.96669,16.26854z" fill="#9b6a16" stroke="#000000" stroke-width="1.5" stroke-linecap="butt"/><path d="M196.78101,221.09346l36.25034,-8.61258l4.27392,17.9889l-36.25034,8.61258z" fill="#9b6a16" stroke="#000000" stroke-width="1.5" stroke-linecap="butt"/><g stroke="#000000" stroke-linecap="butt"><path d="M226.50291,208.67493l35.90618,2.8193l-2.24899,28.64271l-35.90619,-2.8193c0,0 0.58178,-7.40939 0.91556,-11.66047c0.40282,-5.13025 1.33342,-16.98224 1.33342,-16.98224z" fill="#9b6a16" stroke-width="1.5"/><path d="M254.38921,223.76229c-1.40139,0.37981 -2.7174,0.39753 -4.01334,-0.2664c-0.73138,-0.3747 -0.9124,-1.9071 -1.72172,-1.76455c-2.95023,0.51966 -4.17126,-2.19944 -2.75684,-4.79852c0.64404,-1.18347 3.18196,-0.44888 3.36936,-0.64399c1.27412,-1.32651 1.23789,-3.04047 3.65308,-3.22552c1.23234,-0.09442 4.22934,1.81959 3.67147,3.37385c0.03586,0.2037 0.04684,0.41521 0.0299,0.63098c-0.0402,0.51204 -0.23199,0.9759 -0.52788,1.35099c-0.43369,2.21834 0.66871,4.70011 -1.70402,5.34318z" fill="#b1b1b1" stroke-width="1"/><path d="M229.89854,234.86853c-0.47403,-0.47554 -2.8527,-6.80459 -2.84149,-6.9473c0.29442,-3.74964 6.08323,-5.99082 8.48848,-3.05128c1.85488,2.2669 0.38512,5.01365 0.67016,7.39683c0.02467,0.17665 0.03069,0.35868 0.01615,0.54384c-0.10254,1.30599 -1.19117,2.29849 -2.47805,2.30441c-1.36995,0.5641 -2.96314,0.64847 -3.85527,-0.24649z" fill="#b1b1b1" stroke-width="1"/></g><g data-paper-data="{&quot;index&quot;:null}"><path d="M259.68342,214.22625l4.58904,-14.26849l0.71036,10.16021l4.35987,-15.19135l0.31642,11.33578l5.15639,-15.73206l-0.76499,9.74275l1.925,0.45277l2.69865,-7.47955l0.12258,9.96325l2.90361,1.43449l2.84477,2.18393l3.14143,4.16778l2.37712,6.21915l0.78718,5.34024l2.63604,2.92161l1.71317,3.15076l1.55706,7.05963l-0.51784,6.59509l-1.87482,-3.01265l-2.08355,-2.27497l-3.04174,-1.59615l0.68749,2.7686l0.21118,4.99339l-0.40015,5.0962l-1.65809,5.7515l-2.33382,2.83301l0.28246,-3.59733l-0.92531,-5.5019l-1.61902,-4.34987l-1.57505,-2.98911l-3.03862,-3.55646l0.9755,2.94204l0.41125,2.44529l-1.11739,6.54802l-3.22448,4.57282l-0.30844,-1.83397l-1.2604,-5.07578l-1.2635,-3.11546l-2.18638,-2.8863l-3.25912,-2.66891l0.74634,2.01916l-0.22361,2.84788l-2.36913,3.28267l0.14123,-1.79866l-0.77853,-3.52981l-0.755,-3.82959l-1.42515,-2.97734z" fill="#000000" stroke="#000000" stroke-width="4" stroke-linecap="round"/><path d="M269.58691,238.62516c-8.48443,-0.66619 -14.78753,-8.52796 -14.07836,-17.55977c0.70917,-9.03181 8.16205,-15.81349 16.64647,-15.1473c8.48443,0.66619 14.78752,8.52796 14.07835,17.55977c-0.70917,9.03181 -8.16204,15.81349 -16.64647,15.1473z" data-paper-data="{&quot;index&quot;:null}" fill="#b1b1b1" stroke="#000000" stroke-width="1.5" stroke-linecap="butt"/><path d="M280.34765,220.16137c0.02386,0.05884 0.04623,0.11652 0.06711,0.17307c0.14213,0.30225 0.21962,0.63929 0.21608,0.99188c0.00199,0.1193 -0.00749,0.23248 -0.02857,0.34046c-0.18521,1.16623 -1.23951,2.01246 -2.43698,1.91844c-0.65383,0.26512 -1.10203,-0.13581 -1.45039,-0.67529c-0.30264,-0.30763 -0.51756,-0.69933 -0.60867,-1.13284c-0.10175,-0.18775 -0.19932,-0.34178 -0.29898,-0.43092c-0.10757,-0.09621 -0.22934,-0.20199 -0.36279,-0.31639c-1.47781,1.35803 -2.99089,2.14297 -3.97573,1.36855c-0.60381,-0.47479 -0.77482,-1.37273 -0.86604,-2.13542c-0.01778,-0.14862 0.62417,-1.11575 1.45921,-2.29734c-1.54181,-1.61853 -2.72162,-3.42591 -1.88805,-4.81021c0.87809,-1.45824 2.03205,-1.27623 3.13839,-0.77931c0.19633,0.08818 0.85665,0.71233 1.69573,1.56919c0.32554,-0.43065 0.56667,-0.74337 0.66707,-0.86525c0.06669,-0.1162 0.1432,-0.22575 0.22834,-0.32764c0.45874,-0.54903 1.16748,-0.87508 1.93505,-0.81481c1.11949,0.0879 1.98714,0.968 2.09613,2.04711c0.02162,0.09059 0.0318,0.1854 0.02864,0.28511c-0.00299,0.09459 -0.01944,0.20331 -0.04836,0.32438c-0.04483,0.27006 -0.13633,0.52271 -0.26539,0.75021c-0.27914,0.63642 -0.72825,1.41943 -1.28204,2.23474c1.01574,1.16256 1.78829,2.12749 1.83017,2.37655z" fill="#000000" stroke="none" stroke-width="0.5" stroke-linecap="butt"/><path d="M278.6503,230.87166c-0.06527,0.19477 -0.80838,0.87189 -1.77195,1.67688c0.34139,0.72528 0.60279,1.41132 0.74625,1.95802c0.07481,0.19915 0.11623,0.41373 0.11797,0.63637c0.00786,0.10094 0.00728,0.19036 -0.00233,0.26674c-0.01012,0.0805 -0.03034,0.15537 -0.0592,0.22541c-0.22454,0.85307 -1.03328,1.44996 -1.94378,1.37847c-0.62427,-0.04902 -1.15226,-0.40092 -1.4511,-0.90021c-0.05546,-0.09265 -0.10301,-0.19039 -0.14184,-0.2922c-0.06518,-0.11065 -0.2192,-0.39247 -0.42605,-0.77976c-0.78284,0.58185 -1.39254,0.99944 -1.56146,1.04536c-0.95187,0.25875 -1.90198,0.2585 -2.42229,-1.02443c-0.49392,-1.21789 0.6833,-2.52008 2.12737,-3.62461c-0.52083,-1.05521 -0.91379,-1.91365 -0.88064,-2.03079c0.17009,-0.60112 0.42147,-1.30078 0.96681,-1.60556c0.88947,-0.49711 2.00536,0.32552 3.02017,1.60408c0.12173,-0.07496 0.23297,-0.14449 0.3316,-0.20812c0.09138,-0.05896 0.18932,-0.1703 0.29489,-0.30822c0.12823,-0.33671 0.35061,-0.62408 0.63277,-0.8328c0.34833,-0.38917 0.7593,-0.65436 1.25089,-0.35838c0.97391,0.07647 1.71348,0.89012 1.71423,1.85052c0.00322,0.08942 -0.00352,0.18153 -0.02026,0.27712c-0.04192,0.2837 -0.14695,0.54463 -0.2995,0.76941c-0.02394,0.04279 -0.04924,0.08628 -0.07588,0.13052z" data-paper-data="{&quot;index&quot;:null}" fill="#000000" stroke="none" stroke-width="0.5" stroke-linecap="butt"/><path d="M259.92945,223.13287c0.00393,-2.48093 0.16937,-6.27077 2.21007,-8.10192c0.47121,-0.42283 2.02533,-0.32341 2.62396,-0.19889c3.67893,0.76524 2.874,4.93834 2.65681,7.70438l0.01199,0.02958c0.15515,0.36066 0.22738,0.76326 0.19451,1.18187c-0.00735,0.09355 -0.01975,0.18549 -0.03693,0.27559c0.33983,7.44512 -7.67077,5.63629 -7.66042,-0.89059z" fill="#000000" stroke="none" stroke-width="0.5" stroke-linecap="butt"/><path d="M289.43195,215.65718l-10.26547,-5.63203c0,0 -2.43878,-2.45753 -3.85869,-2.71598c-1.41991,-0.25845 -3.427,1.38986 -3.427,1.38986c0,0 0.19329,-1.90937 0.58088,-2.65407c0.28174,-0.54132 0.69241,0.10382 1.07811,-0.23581c0.86259,-0.75955 3.68748,-1.81793 3.68748,-1.81793l2.9005,3.3948" fill="none" stroke="#000000" stroke-width="4" stroke-linecap="round"/><path d="M285.21774,211.7068l-3.44743,-0.27069l-5.33158,2.59762l4.33499,0.49119l3.32974,1.76957l5.0076,5.37l0.14856,15.39454l-3.95905,2.40377l-5.55453,-2.24589l-2.25699,-1.98697l2.99776,0.23538l4.03832,-1.49267l3.21583,-6.38325l-5.27274,1.84818l-4.02034,-2.57786l4.03832,-1.49267l2.98045,-3.38548l2.95691,-3.0857z" fill="#000000" stroke="#000000" stroke-width="4" stroke-linecap="round"/></g><g stroke="#000000" stroke-width="1.5" stroke-linecap="butt"><path d="M222.46262,223.10868l29.18079,-18.94064l8.18732,12.60594l-29.18081,18.94063z" data-paper-data="{&quot;index&quot;:null}" fill="#b1b1b1"/><path d="M230.60721,217.82219l21.03619,-13.65415l8.18732,12.60594l-20.38006,13.22825z" data-paper-data="{&quot;index&quot;:null}" fill="#9b6a16"/><path d="M239.22457,218.25645c1.04671,-0.90042 2.62518,-0.78182 3.5256,0.26489c0.90042,1.04671 0.78182,2.62518 -0.26489,3.5256c-1.04671,0.90042 -2.62518,0.78182 -3.5256,-0.26489c-0.90042,-1.04671 -0.78182,-2.62518 0.26489,-3.5256z" fill="#b1b1b1"/><path d="M251.38108,210.3174c1.4878,1.5742 1.23593,4.66796 -0.55463,5.96299c-2.82863,2.04582 -5.26925,-3.37342 -3.66033,-4.9208c0.13099,-0.44777 0.38867,-0.86406 0.76871,-1.19098c0.93076,-0.80067 2.28199,-0.7956 3.20304,-0.04868c0.08692,0.05303 0.16831,0.11819 0.24323,0.19746z" fill="#b1b1b1"/></g></g></g></svg>