<svg version="1.1" xmlns="http://www.w3.org/2000/svg" xmlns:xlink="http://www.w3.org/1999/xlink" width="48.83366" height="99.21193" viewBox="0,0,48.83366,99.21193"><g transform="translate(-213.61875,-131.22069)"><g data-paper-data="{&quot;isPaintingLayer&quot;:true}" fill="#b1b1b1" fill-rule="nonzero" stroke="#000000" stroke-width="1.5" stroke-linecap="butt" stroke-linejoin="miter" stroke-miterlimit="10" stroke-dasharray="" stroke-dashoffset="0" style="mix-blend-mode: normal"><path d="M248.1921,195.99947l-16.45923,-30.64899l13.24465,-7.10785l16.4592,30.64899z" data-paper-data="{&quot;index&quot;:null}"/><path d="M229.76932,226.22554l6.71588,-36.14367l17.93596,3.33269l-6.71588,36.14367z"/><path d="M226.49193,196.21544v-36.01669h28.73087v36.0167c0,0 -7.4322,0 -11.69636,0c-5.14604,0 -17.03451,0 -17.03451,0z"/><path d="M258.36705,147.38038c0,8.51054 -7.34426,15.4097 -16.40387,15.4097c-9.05961,0 -16.40387,-6.89916 -16.40387,-15.4097c0,-8.51054 7.34426,-15.40969 16.40387,-15.40969c9.05961,0 16.40387,6.89915 16.40387,15.4097z" data-paper-data="{&quot;index&quot;:null}"/><path d="M233.89989,212.94157v-37.25941h18.48964v37.25941z"/><path d="M227.01868,199.92308l-12.43152,-32.49191l14.03739,-5.37531l12.43151,32.49192z" data-paper-data="{&quot;index&quot;:null}"/></g></g></svg>