<svg version="1.1" xmlns="http://www.w3.org/2000/svg" xmlns:xlink="http://www.w3.org/1999/xlink" width="59.04756" height="97.2824" viewBox="0,0,59.04756,97.2824"><g transform="translate(-231.04888,-130.89019)"><g data-paper-data="{&quot;isPaintingLayer&quot;:true}" fill="#b1b1b1" fill-rule="nonzero" stroke="#000000" stroke-width="1.5" stroke-linecap="butt" stroke-linejoin="miter" stroke-miterlimit="10" stroke-dasharray="" stroke-dashoffset="0" style="mix-blend-mode: normal"><path d="M276.53627,195.8573l-19.2589,-28.97176l12.52028,-8.31772l19.25889,28.97174z" data-paper-data="{&quot;index&quot;:null}"/><path d="M244.85456,210.67465l16.75081,-32.72429l16.23913,8.31244l-16.75081,32.72429z"/><path d="M243.22526,227.25087l-9.85897,-35.93139l17.83063,-4.89242l9.85897,35.93139z"/><path d="M231.98905,189.39711l10.78488,-34.36405l27.41254,8.60321l-10.78489,34.36407c0,0 -7.09117,-2.22551 -11.15966,-3.50238c-4.90991,-1.54093 -16.25288,-5.10084 -16.25288,-5.10084z"/><path d="M280.53646,147.96289c-0.47179,8.49745 -8.18722,14.97886 -17.23291,14.47662c-9.04568,-0.50223 -15.99619,-7.79793 -15.52439,-16.29537c0.47179,-8.49745 8.18722,-14.97886 17.23291,-14.47662c9.04568,0.50223 15.99619,7.79792 15.52439,16.29537z" data-paper-data="{&quot;index&quot;:null}"/><path d="M276.03531,202.82383l-23.59515,-25.56435l11.0428,-10.19799l23.59515,25.56435z" data-paper-data="{&quot;index&quot;:null}"/></g></g></svg>