<svg version="1.1" xmlns="http://www.w3.org/2000/svg" xmlns:xlink="http://www.w3.org/1999/xlink" width="124.88801" height="35.56462" viewBox="0,0,124.88801,35.56462"><g transform="translate(-176.24294,-151.49844)"><g data-paper-data="{&quot;isPaintingLayer&quot;:true}" fill-rule="nonzero" stroke-linecap="butt" stroke-linejoin="miter" stroke-miterlimit="10" stroke-dasharray="" stroke-dashoffset="0" style="mix-blend-mode: normal"><path d="M182.16035,184.2834c-0.50392,-1.34841 -0.77407,-2.73207 -0.7913,-4.14257c-0.17538,-14.36027 25.93242,-26.06461 58.3134,-26.14239c32.38098,-0.07778 58.77312,11.50047 58.9485,25.86074c0.0025,0.20464 -0.00034,0.40874 -0.00846,0.61227" fill="none" stroke="#00abff" stroke-width="5"/><path d="M185.35854,170.44501c0,0 6.20706,-1.47511 15.1777,-0.40174c7.98442,0.95536 13.53467,0.87854 19.55443,2.04708c5.80735,1.1273 12.07651,3.51807 20.05452,3.49891c5.67483,-0.01363 11.37821,3.57905 19.04893,2.75128c4.42641,-0.47767 10.8338,-5.24572 14.85522,-5.77178c9.43292,-1.23395 16.67497,-2.37682 16.67497,-2.37682c0,0 6.20379,7.00947 6.24135,10.08446c0.00086,0.07075 -0.00125,0.14264 -0.0062,0.2156c-0.43823,0.00444 -0.85644,0.01032 -1.24468,0.02372c-3.48684,0.027 -7.0476,0.33974 -10.39412,0.37088c-1.78413,0.00006 -2.68745,0.69894 -4.31758,1.06723c-1.77515,0.40105 -4.11815,0.00261 -5.94489,0.00262c-1.78223,0 -3.19949,-0.68369 -4.79723,-0.70802c-1.86039,-0.02832 -3.46202,0.5738 -5.36783,0.13089c-3.10124,-0.71238 -7.28129,-0.83599 -10.46443,-0.8465c-3.45675,-0.01142 -7.07269,-0.86193 -10.50015,-0.15112c-3.31669,0.68809 -6.8918,1.39254 -10.23658,0.37492c-3.23482,-0.95737 -6.95455,-0.93716 -10.36581,-0.93977c-3.58926,-0.00014 -6.90564,0.69419 -10.3207,0.71275c-3.88328,0.00089 -6.65893,-0.32064 -10.14244,1.13996c-3.00745,1.27327 -7.13111,0.6435 -10.32856,0.6435c-3.1016,0 -6.62257,0.97631 -9.68818,1.78954c-0.78843,-1.75325 -1.44364,-3.5962 -1.45962,-4.90523c-0.0354,-2.89857 3.97191,-8.75235 3.97191,-8.75235z" fill="#71d0ff" stroke="#00abff" stroke-width="5"/><path d="M278.46152,167.61737c1.44206,-0.90566 3.48423,-0.26614 3.48423,-0.26614l2.83817,0.92882c2.82266,2.35475 3.51536,4.39821 4.71479,6.97323c0,0 0.50356,1.08597 -1.9452,1.30929c-2.44876,0.22332 -2.95232,-0.86265 -2.95232,-0.86265c-0.99379,-2.15227 -1.48701,-3.97042 -3.60087,-5.97028l-1.93869,-0.56709c0,0 -2.04217,-0.63952 -0.60011,-1.54518z" fill="#a4e1ff" stroke="none" stroke-width="0.5"/><path d="M272.29686,166.44967c2.07258,-0.61998 3.47058,0.29917 3.47058,0.29917l0.77657,0.51528c2.83721,2.21318 3.63508,4.82045 4.47242,7.31649c0,0 0.36695,1.09669 -2.10597,1.25942c-2.47292,0.16274 -2.83988,-0.93395 -2.83988,-0.93395c-0.724,-2.16962 -1.30164,-4.61841 -3.85429,-6.53142l-0.59403,-0.38586c0,0 -1.398,-0.91915 0.67459,-1.53913z" fill="#a4e1ff" stroke="none" stroke-width="0.5"/><path d="M270.35605,172.29765c2.49996,-0.006 2.5135,1.10268 2.5135,1.10268l0.01473,1.20587c0.01965,1.60864 -0.01016,3.1596 -0.29033,4.76565c0,0 -0.19411,1.10535 -2.68657,1.01926c-2.49245,-0.08609 -2.29834,-1.19143 -2.29834,-1.19143c0.27326,-1.54518 0.29422,-3.03348 0.27531,-4.58147l-0.01473,-1.20587c0,0 -0.01354,-1.10868 2.48642,-1.11468z" fill="#a4e1ff" stroke="none" stroke-width="0.5"/><path d="M274.76867,181.68635l0.31899,-0.85232c0.69984,-0.50213 1.07009,-1.12373 1.00927,-1.71342c0,0 -0.01354,-1.10868 2.48642,-1.11468c2.49996,-0.006 2.5135,1.10268 2.5135,1.10268c-0.04264,0.96954 -0.62751,1.95903 -1.65461,2.81512l0.32635,-0.24938c0,0 0.00258,0.21117 -0.20232,0.44968c-1.48936,0.05495 -3.14289,-0.16758 -4.50807,-0.16758c-0.06875,0 -0.13696,-0.00102 -0.20466,-0.00298c-0.08348,-0.1539 -0.08486,-0.26713 -0.08486,-0.26713z" fill="#a4e1ff" stroke="none" stroke-width="0.5"/><path d="M277.28217,182.78903c-0.90789,0.00218 -1.48785,-0.14265 -1.85833,-0.328c1.01871,0.02423 2.15866,0.1374 3.26434,0.16216c-0.34602,0.09876 -0.80286,0.16439 -1.40601,0.16584z" fill="#a4e1ff" stroke="none" stroke-width="0.5"/><path d="M259.46854,171.41937c2.49996,-0.006 2.5135,1.10268 2.5135,1.10268l-0.07609,-0.11798c1.30937,2.28846 1.48633,4.69368 1.52033,7.04846c0,0 0.01354,1.10868 -2.48642,1.11468c-2.49996,0.006 -2.5135,-1.10268 -2.5135,-1.10268c-0.02126,-2.16578 -0.14067,-4.40778 -1.36447,-6.51104l-0.07977,-0.41945c0,0 -0.01354,-1.10868 2.48642,-1.11468z" fill="#a4e1ff" stroke="none" stroke-width="0.5"/><path d="M213.11307,177.17902c2.00809,0.6604 0.51895,1.55095 0.51895,1.55095l-0.55834,0.1374c-0.22655,0.54564 -0.3777,1.10419 -0.4005,1.66155c-3.7112,-0.01546 -6.42681,-0.27796 -9.81016,1.14064c-0.39164,0.16581 -0.80221,0.29935 -1.2272,0.40621c0.26237,-0.62949 0.77728,-1.25402 1.77424,-2.01152c0,0 1.3135,-0.94334 3.44064,-0.36083c0.41396,0.11336 0.69761,0.24039 0.886,0.37147c0.0669,-0.53433 0.21194,-1.06731 0.41285,-1.59233l1.46627,-1.07337c0,0 1.48915,-0.89055 3.49724,-0.23014z" fill="#a4e1ff" stroke="none" stroke-width="0.5"/><path d="M185.11759,182.32133l-0.42518,-0.87083c-0.00605,-2.03687 1.04497,-3.38887 2.86439,-5.27489c0,0 0.98963,-1.01813 3.28541,-0.57925c2.29579,0.43888 1.30616,1.45701 1.30616,1.45701c-1.59433,1.62658 -2.49656,2.6458 -2.45603,4.38512l0.26933,0.3334c0,0 0.21922,0.38012 -0.11305,0.74594c-1.04034,0.14566 -2.09836,0.35792 -3.14582,0.60003c-1.22887,-0.17864 -1.58521,-0.79652 -1.58521,-0.79652z" fill="#a4e1ff" stroke="none" stroke-width="0.5"/><path d="M208.93718,170.84059c0.00592,0.48453 -0.46824,0.75845 -1.00399,0.91331c-0.2093,0.59713 -0.33648,1.20064 -0.32243,1.80316c0,0 0.01354,1.10868 -2.48642,1.11468c-0.26991,0.00065 -0.51083,-0.0117 -0.72588,-0.03424c-0.20222,0.02397 -0.41458,0.03698 -0.63368,0.0375c-0.99778,0.0024 -1.86219,-0.25476 -2.26774,-0.62867c-0.0144,0.15698 -0.19631,1.08681 -2.48519,1.09231c-2.49996,0.006 -2.5135,-1.10268 -2.5135,-1.10268c-0.0165,-2.10722 0.69943,-3.73654 2.48518,-5.68973l0.98898,-1.18965c0,0 0.86512,-1.0402 3.21066,-0.65654c2.34554,0.38366 1.48043,1.42386 1.48043,1.42386l-1.02091,1.22699c-1.29581,1.38193 -1.92309,2.52547 -2.09523,3.89151c0.25574,-0.21111 0.66128,-0.38134 1.15391,-0.48257c0.11406,-0.64536 0.32863,-1.28833 0.602,-1.92315l3.12031,-0.89877c0,0 2.49996,-0.006 2.5135,1.10268z" fill="#a4e1ff" stroke="none" stroke-width="0.5"/><path d="M217.96887,166.58016c2.08761,0.60999 0.71214,1.5358 0.71214,1.5358l-0.71969,0.48336c-0.24946,0.15653 -2.89468,1.78409 -3.07061,2.01654c-0.79368,1.04866 -0.76516,2.1863 -1.198,3.27567c0,0 -0.43389,1.09187 -2.89595,0.89945c-2.46206,-0.19242 -2.02817,-1.28429 -2.02817,-1.28429c0.48527,-1.22104 0.51247,-2.49442 1.43643,-3.66461c0.42392,-0.53689 2.83407,-1.99514 3.67196,-2.5218l0.62882,-0.4243c0,0 1.37546,-0.92581 3.46307,-0.31582z" fill="#a4e1ff" stroke="none" stroke-width="0.5"/><path d="M201.89503,176.25206c2.45407,0.21154 1.97707,1.29987 1.97707,1.29987l-0.35615,0.80601c-0.22168,0.4025 -0.44337,0.805 -0.66505,1.2075c0,0 -0.5932,1.07704 -3.0218,0.81397c-2.4286,-0.26307 -1.83541,-1.3401 -1.83541,-1.3401c0.22168,-0.4025 0.44337,-0.805 0.66505,-1.2075l0.30522,-0.70296c0,0 0.47701,-1.08833 2.93108,-0.87679z" fill="#a4e1ff" stroke="none" stroke-width="0.5"/><path d="M194.05324,166.22921c2.32618,0.40618 1.41029,1.43779 1.41029,1.43779l-0.81947,0.89397c-1.56612,1.20754 -2.0493,2.13333 -2.00685,3.52467c0,0 0.01354,1.10868 -2.48642,1.11468c-2.49996,0.006 -2.5135,-1.10268 -2.5135,-1.10268c0.00443,-1.7726 0.70729,-3.0742 2.65219,-4.62637l0.52168,-0.61663c0,0 0.91589,-1.03161 3.24208,-0.62544z" fill="#a4e1ff" stroke="none" stroke-width="0.5"/><path d="M202.0121,179.03604c0.90789,-0.00218 1.48785,0.14265 1.85833,0.328c-1.01871,-0.02423 -2.15866,-0.1374 -3.26434,-0.16216c0.34602,-0.09876 0.80286,-0.16439 1.40601,-0.16584z" data-paper-data="{&quot;index&quot;:null}" fill="#a4e1ff" stroke="none" stroke-width="0.5"/><path d="M266.1812,184.64605c-2.00809,-0.6604 -0.51895,-1.55095 -0.51895,-1.55095l0.55834,-0.1374c0.22655,-0.54564 0.3777,-1.10419 0.4005,-1.66155c3.7112,0.01546 6.42681,0.27796 9.81016,-1.14064c0.39164,-0.16581 0.80221,-0.29935 1.2272,-0.40621c-0.26237,0.62949 -0.77728,1.25402 -1.77424,2.01152c0,0 -1.3135,0.94334 -3.44064,0.36083c-0.41396,-0.11336 -0.69761,-0.24039 -0.886,-0.37147c-0.0669,0.53433 -0.21194,1.06731 -0.41285,1.59233l-1.46627,1.07337c0,0 -1.48915,0.89055 -3.49724,0.23014z" data-paper-data="{&quot;index&quot;:null}" fill="#a4e1ff" stroke="none" stroke-width="0.5"/><path d="M281.36138,180.28279c-1.34097,-0.12877 -1.78662,-0.51326 -1.91579,-0.83398c1.591,-0.15736 3.28362,-0.08146 4.88587,-0.01036c-0.04077,0.07616 -0.61993,1.07003 -2.97008,0.84434z" data-paper-data="{&quot;index&quot;:null}" fill="#a4e1ff" stroke="none" stroke-width="0.5"/><path d="M277.39924,185.57301c-2.45407,-0.21154 -1.97707,-1.29987 -1.97707,-1.29987l0.35615,-0.80601c0.22168,-0.4025 0.44337,-0.805 0.66505,-1.2075c0,0 0.5932,-1.07704 3.0218,-0.81397c2.4286,0.26307 1.83541,1.3401 1.83541,1.3401c-0.22168,0.4025 -0.44337,0.805 -0.66505,1.2075l-0.30522,0.70296c0,0 -0.47701,1.08833 -2.93108,0.87679z" data-paper-data="{&quot;index&quot;:null}" fill="#a4e1ff" stroke="none" stroke-width="0.5"/></g></g></svg>