<svg version="1.1" xmlns="http://www.w3.org/2000/svg" xmlns:xlink="http://www.w3.org/1999/xlink" width="76.48433" height="86.96915" viewBox="0,0,76.48433,86.96915"><g transform="translate(-200.06383,-128.19495)"><g data-paper-data="{&quot;isPaintingLayer&quot;:true}" fill="#b1b1b1" fill-rule="nonzero" stroke="#000000" stroke-width="1.5" stroke-linecap="butt" stroke-linejoin="miter" stroke-miterlimit="10" stroke-dasharray="" stroke-dashoffset="0" style="mix-blend-mode: normal"><path d="M224.67453,179.24044l28.0345,-20.59936l8.89701,12.1155l-28.0345,20.59934z" data-paper-data="{&quot;index&quot;:null}"/><path d="M275.6748,193.5171l-36.15514,6.65388l-3.30192,-17.94165l36.15514,-6.65388z"/><path d="M221.79062,188.61119l7.49058,-35.22915l28.10265,5.97531l-7.49059,35.22916c0,0 -7.26969,-1.54572 -11.44061,-2.43256c-5.03351,-1.07025 -16.66203,-3.54275 -16.66203,-3.54275z"/><path d="M262.61414,147.81393c-1.76999,8.32445 -10.38851,13.54533 -19.25002,11.66115c-8.86151,-1.88418 -14.61033,-10.1599 -12.84035,-18.48435c1.76999,-8.32445 10.3885,-13.54532 19.25002,-11.66115c8.86151,1.88418 14.61034,10.15989 12.84035,18.48435z" data-paper-data="{&quot;index&quot;:null}"/><path d="M201.10056,173.01496l29.25552,-18.82501l8.13738,12.63824l-29.25553,18.825z" data-paper-data="{&quot;index&quot;:null}"/><path d="M215.9104,200.38479l27.64788,-24.97716l12.39469,13.72001l-27.64788,24.97716z"/></g></g></svg>