<svg version="1.1" xmlns="http://www.w3.org/2000/svg" xmlns:xlink="http://www.w3.org/1999/xlink" width="88.69331" height="111.03389" viewBox="0,0,88.69331,111.03389"><g transform="translate(-195.05409,-121.3569)"><g data-paper-data="{&quot;isPaintingLayer&quot;:true}" fill-rule="nonzero" stroke-linejoin="miter" stroke-miterlimit="10" stroke-dasharray="" stroke-dashoffset="0" style="mix-blend-mode: normal"><path d="M260.11339,191.68713l-30.4544,-16.81656l7.26972,-13.15648l30.45438,16.81656z" data-paper-data="{&quot;index&quot;:null}" fill="#b1b1b1" stroke="#000000" stroke-width="1.5" stroke-linecap="butt"/><path d="M236.03455,227.78077v-36.76232h18.24296v36.76232z" fill="#9b6a16" stroke="#000000" stroke-width="1.5" stroke-linecap="butt"/><path d="M233.39765,231.44492l-11.57342,-35.41637l17.57505,-5.7432l11.57342,35.41637z" fill="#9b6a16" stroke="#000000" stroke-width="1.5" stroke-linecap="butt"/><g stroke="#000000" stroke-linecap="butt"><path d="M222.17381,193.27803l6.60005,-35.4068l28.24435,5.26493l-6.60005,35.40681c0,0 -7.30635,-1.36195 -11.4983,-2.14336c-5.0589,-0.94301 -16.74605,-3.12157 -16.74605,-3.12157z" fill="#9b6a16" stroke-width="1.5"/><path d="M240.12517,167.14332c0.2295,1.43369 0.10797,2.7442 -0.68926,3.96268c-0.44993,0.68766 -1.99288,0.70563 -1.9367,1.52549c0.2048,2.98864 -2.62816,3.91532 -5.06312,2.23401c-1.10874,-0.76556 -0.10992,-3.21159 -0.28412,-3.41856c-1.18435,-1.40723 -2.89254,-1.55244 -2.82118,-3.97365c0.03641,-1.23542 2.25658,-4.01324 3.74314,-3.29415c0.20635,-0.01413 0.41784,-0.00268 0.6306,0.03698c0.50492,0.09412 0.9459,0.33388 1.2876,0.66777c2.16005,0.66581 4.74447,-0.16799 5.13305,2.25943z" fill="#b1b1b1" stroke-width="1"/><path d="M248.57962,192.67102c-0.52299,0.42109 -7.06808,2.11722 -7.2088,2.09099c-3.69749,-0.68924 -5.31402,-6.68257 -2.13665,-8.76353c2.45032,-1.60479 5.02627,0.14715 7.42622,0.1157c0.17827,-0.00585 0.35992,0.00741 0.5425,0.04145c1.28783,0.24006 2.15966,1.42752 2.02947,2.70781c0.41609,1.42192 0.33153,3.0151 -0.65274,3.80759z" fill="#b1b1b1" stroke-width="1"/></g><g><path d="M231.89849,156.66854l-13.38423,-6.74622l10.14746,0.87383l-14.33147,-6.66294l11.24772,1.44531l-14.74211,-7.53367l9.50626,2.2666l0.74582,-1.8315l-6.97057,-3.8259l9.86173,1.42396l1.86742,-2.64603l2.59867,-2.47168l4.60452,-2.45711l6.51255,-1.38393l5.39771,0.05048l3.29505,-2.15108l3.37832,-1.20384l7.21569,-0.44344l6.435,1.53431l-3.26694,1.38495l-2.57055,1.70556l-2.04854,2.75742l2.84172,-0.24983l4.96573,0.56573l4.9725,1.1856l5.42479,2.52995l2.43682,2.74492l-3.51001,-0.8369l-5.57884,0.06091l-4.54832,0.92488l-3.1972,1.09246l-3.98465,2.45034l3.05772,-0.50746l2.47949,-0.02707l6.29552,2.11931l4.01746,3.89461l-1.85962,0.0203l-5.20983,0.45802l-3.27371,0.76508l-3.19044,1.71233l-3.14203,2.80582l2.11047,-0.42418l2.77876,0.66254l2.87557,2.84953l-1.755,-0.41845l-3.60784,0.22173l-3.90034,0.15199l-3.16233,0.9462z" fill="#000000" stroke="#000000" stroke-width="4" stroke-linecap="round"/><path d="M257.53802,150.66853c-1.97385,8.27848 -10.71798,13.28616 -19.53055,11.18496c-8.81258,-2.1012 -14.35645,-10.51559 -12.3826,-18.79407c1.97385,-8.27848 10.71798,-13.28615 19.53055,-11.18495c8.81258,2.1012 14.35645,10.51558 12.3826,18.79407z" data-paper-data="{&quot;index&quot;:null}" fill="#b1b1b1" stroke="#000000" stroke-width="1.5" stroke-linecap="butt"/><path d="M240.96633,137.17469c0.06183,-0.01444 0.12228,-0.0276 0.18139,-0.03946c0.32064,-0.09354 0.66562,-0.11783 1.01339,-0.05965c0.11817,0.01654 0.2285,0.04345 0.33191,0.08102c1.1234,0.36382 1.79589,1.5366 1.51731,2.705c0.16052,0.68703 -0.30507,1.06764 -0.89204,1.32812c-0.35084,0.25127 -0.77113,0.40285 -1.21353,0.42563c-0.20126,0.0714 -0.36856,0.1439 -0.47207,0.22854c-0.11172,0.09135 -0.23511,0.19524 -0.36882,0.30933c1.11243,1.67053 1.65323,3.28703 0.73545,4.13986c-0.56268,0.52287 -1.47628,0.55257 -2.24389,0.52441c-0.14958,-0.00548 -1.00546,-0.78965 -2.04326,-1.79782c-1.83804,1.27216 -3.80653,2.15742 -5.04481,1.11926c-1.30443,-1.09361 -0.94567,-2.20538 -0.28319,-3.22128c0.11756,-0.18028 0.83656,-0.73582 1.81318,-1.43187c-0.37496,-0.38838 -0.6465,-0.67509 -0.75134,-0.79318c-0.10445,-0.0839 -0.20082,-0.17648 -0.28827,-0.27638c-0.47124,-0.53833 -0.68344,-1.28906 -0.50487,-2.038c0.26044,-1.09232 1.26445,-1.81299 2.34741,-1.75331c0.09285,-0.00731 0.18809,-0.00266 0.2861,0.01592c0.09298,0.01762 0.19784,0.05074 0.31296,0.09808c0.25984,0.08616 0.49525,0.21574 0.69998,0.37852c0.58543,0.37446 1.28932,0.93956 2.00889,1.61309c1.30601,-0.82317 2.37907,-1.43674 2.63162,-1.43949z" fill="#000000" stroke="none" stroke-width="0.5" stroke-linecap="butt"/><path d="M251.28383,140.5124c0.18229,0.09468 0.73598,0.93381 1.38181,2.01056c0.76945,-0.22479 1.48772,-0.37663 2.05006,-0.43358c0.20834,-0.04302 0.42675,-0.05067 0.64696,-0.01786c0.10093,0.00788 0.18919,0.02233 0.26315,0.04366c0.07796,0.02248 0.14879,0.05406 0.2135,0.09344c0.80793,0.35411 1.27218,1.24563 1.06036,2.13403c-0.14523,0.60912 -0.57475,1.07615 -1.11435,1.29394c-0.10012,0.04042 -0.20406,0.07224 -0.31066,0.09481c-0.11942,0.04723 -0.42172,0.15569 -0.8364,0.29997c0.45341,0.8636 0.7714,1.53068 0.79057,1.70468c0.10801,0.98048 -0.03958,1.91906 -1.38768,2.23412c-1.27975,0.29908 -2.38363,-1.06584 -3.25085,-2.66373c-1.12321,0.35089 -2.03221,0.60597 -2.14278,0.55506c-0.56747,-0.26125 -1.21968,-0.61809 -1.43621,-1.20409c-0.35316,-0.9558 0.63257,-1.93062 2.05303,-2.73488c-0.05518,-0.13188 -0.10661,-0.25256 -0.15418,-0.35986c-0.04407,-0.09941 -0.13888,-0.21344 -0.25876,-0.33912c-0.31275,-0.17889 -0.56216,-0.44315 -0.7246,-0.75426c-0.33044,-0.40447 -0.5287,-0.85159 -0.16006,-1.29134c0.22658,-0.95027 1.14507,-1.55472 2.09397,-1.40652c0.08883,0.01068 0.17879,0.03163 0.27063,0.06299c0.27377,0.0854 0.51525,0.22963 0.71365,0.41519c0.03856,0.03029 0.0776,0.06203 0.11717,0.0952z" data-paper-data="{&quot;index&quot;:null}" fill="#000000" stroke="none" stroke-width="0.5" stroke-linecap="butt"/><path d="M240.73551,157.80668c-2.45031,-0.38862 -6.16865,-1.13977 -7.66118,-3.43975c-0.34464,-0.53108 -0.00542,-2.05098 0.21043,-2.62306c1.32649,-3.51575 5.32429,-2.07341 8.02318,-1.42991l0.03108,-0.00726c0.38036,-0.09735 0.78929,-0.10627 1.19774,-0.00888c0.09128,0.02176 0.18019,0.04828 0.26653,0.07922c7.40775,0.81884 4.37856,8.45203 -2.06776,7.42964z" fill="#000000" stroke="none" stroke-width="0.5" stroke-linecap="butt"/><path d="M237.92538,127.50179l-7.15582,9.26789c0,0 -2.806,2.02818 -3.28152,3.39083c-0.47552,1.36265 0.8416,3.60108 0.8416,3.60108c0,0 -1.85629,-0.48705 -2.53189,-0.98543c-0.49108,-0.36227 0.20994,-0.66793 -0.06577,-1.10163c-0.61659,-0.96994 -1.2241,-3.92479 -1.2241,-3.92479l3.80353,-2.33896" fill="none" stroke="#000000" stroke-width="4" stroke-linecap="round"/><path d="M233.36927,131.05241l-0.80202,3.36375l1.73939,5.66991l1.1575,-4.20638l2.26453,-3.01504l6.0816,-4.11427l15.23134,2.24056l1.76074,4.28392l-3.08009,5.13905l-2.31294,1.92156l0.69741,-2.925l-0.84837,-4.22095l-5.80733,-4.16682l1.00815,5.49556l-3.17013,3.57194l-0.84837,-4.22095l-2.88232,-3.4694l-2.58982,-3.39966z" fill="#000000" stroke="#000000" stroke-width="4" stroke-linecap="round"/></g><g stroke="#000000" stroke-width="1.5" stroke-linecap="butt"><path d="M226.23819,205.21107l-16.51274,-30.62018l13.22816,-7.13847l16.51273,30.6202z" data-paper-data="{&quot;index&quot;:null}" fill="#b1b1b1"/><path d="M221.62934,196.66474l-11.9039,-22.07384l13.22816,-7.13847l11.53259,21.38534z" data-paper-data="{&quot;index&quot;:null}" fill="#9b6a16"/><path d="M222.76075,188.11094c-0.8126,-1.11626 -0.56644,-2.67992 0.54982,-3.49252c1.11626,-0.8126 2.67992,-0.56644 3.49252,0.54982c0.8126,1.11626 0.56644,2.67992 -0.54982,3.49252c-1.11626,0.8126 -2.67992,0.56644 -3.49252,-0.54982z" fill="#b1b1b1"/><path d="M215.83331,175.35085c1.68962,-1.35529 4.75279,-0.85346 5.89841,1.0362c1.80978,2.98517 -3.78947,4.97844 -5.20133,3.24938c-0.43568,-0.16686 -0.82971,-0.45744 -1.12474,-0.86272c-0.72259,-0.99261 -0.60799,-2.33897 0.21114,-3.19644c0.05991,-0.08234 0.13144,-0.15818 0.21653,-0.22643z" fill="#b1b1b1"/></g></g></g></svg>