<svg version="1.1" xmlns="http://www.w3.org/2000/svg" xmlns:xlink="http://www.w3.org/1999/xlink" width="84.56726" height="101.09745" viewBox="0,0,84.56726,101.09745"><g transform="translate(-211.04996,-129.45418)"><g data-paper-data="{&quot;isPaintingLayer&quot;:true}" fill="#b1b1b1" fill-rule="nonzero" stroke="#000000" stroke-width="1.5" stroke-linecap="butt" stroke-linejoin="miter" stroke-miterlimit="10" stroke-dasharray="" stroke-dashoffset="0" style="mix-blend-mode: normal"><path d="M294.53421,174.05046l-34.78134,-0.72458l0.31734,-15.02802l34.78134,0.7246z" data-paper-data="{&quot;index&quot;:null}"/><path d="M236.67079,226.54963l5.55858,-36.33965l18.0332,2.75838l-5.55857,36.33965z"/><path d="M227.63281,226.90117l5.63373,-36.83104l18.27706,2.79568l-5.63374,36.83104z"/><path d="M232.48981,193.5523l5.44582,-35.60259l28.40055,4.34419l-5.44583,35.6026c0,0 -7.34676,-1.12376 -11.56189,-1.76853c-5.08686,-0.7781 -16.83865,-2.57566 -16.83865,-2.57566z"/><path d="M270.92192,148.11998c-1.28681,8.41268 -9.58981,14.12206 -18.54526,12.75221c-8.95546,-1.36984 -15.1721,-9.30015 -13.88528,-17.71285c1.28681,-8.41268 9.58981,-14.12205 18.54527,-12.7522c8.95546,1.36984 15.1721,9.30014 13.88528,17.71285z" data-paper-data="{&quot;index&quot;:null}"/><path d="M243.95852,192.25364l-31.92243,-13.82842l5.971,-13.79456l31.92243,13.82842z" data-paper-data="{&quot;index&quot;:null}"/></g></g></svg>