<svg version="1.1" xmlns="http://www.w3.org/2000/svg" xmlns:xlink="http://www.w3.org/1999/xlink" width="228" height="228" viewBox="0,0,228,228"><defs><radialGradient cx="240" cy="180" r="114" gradientUnits="userSpaceOnUse" id="color-1"><stop offset="0" stop-color="#56d4ff"/><stop offset="1" stop-color="#56d4ff" stop-opacity="0"/></radialGradient><radialGradient cx="240" cy="180" r="63" gradientUnits="userSpaceOnUse" id="color-2"><stop offset="0" stop-color="#56d4ff" stop-opacity="0"/><stop offset="1" stop-color="#56d4ff" stop-opacity="0"/></radialGradient></defs><g transform="translate(-126,-66)"><g data-paper-data="{&quot;isPaintingLayer&quot;:true}" fill-rule="nonzero" stroke-linejoin="miter" stroke-miterlimit="10" stroke-dasharray="" stroke-dashoffset="0" style="mix-blend-mode: normal"><path d="M126,180c0,-62.96046 51.03954,-114 114,-114c62.96046,0 114,51.03954 114,114c0,62.96046 -51.03954,114 -114,114c-62.96046,0 -114,-51.03954 -114,-114z" fill="url(#color-1)" stroke="none" stroke-width="0" stroke-linecap="butt"/><path d="M177,180c0,-34.79394 28.20606,-63 63,-63c34.79394,0 63,28.20606 63,63c0,34.79394 -28.20606,63 -63,63c-34.79394,0 -63,-28.20606 -63,-63z" fill="url(#color-2)" stroke="#57d3ff" stroke-width="22.5" stroke-linecap="butt"/><g stroke-width="6" stroke-linecap="round"><path d="M241.20168,218.51281l-2.54428,-68.10601c0,0 -5.02737,14.93156 -8.81865,20.23381c-3.18851,4.45926 -12.43539,8.28073 -12.43539,8.28073l47.59664,2.38914c0,0 -13.81819,5.74619 -17.14362,11.40124c-4.0574,6.89981 -6.6547,25.80109 -6.6547,25.80109z" fill="#57d3ff" stroke="#57d3ff"/><path d="M232.12681,193.11509c-3.32543,-5.65505 -15.12681,-10.19116 -15.12681,-10.19116l46.38655,-4.40595c0,0 -10.0536,-3.01474 -13.24212,-7.47401c-3.79128,-5.30225 -8.81865,-20.23381 -8.81865,-20.23381l-2.54428,67.70265c0,0 -2.5973,-18.49792 -6.6547,-25.39773z" data-paper-data="{&quot;index&quot;:null}" fill="#57d3ff" stroke="#57d3ff"/></g></g></g></svg>