<svg version="1.1" xmlns="http://www.w3.org/2000/svg" xmlns:xlink="http://www.w3.org/1999/xlink" width="121.9623" height="28.98653" viewBox="0,0,121.9623,28.98653"><g transform="translate(-178.85228,-178.99868)"><g data-paper-data="{&quot;isPaintingLayer&quot;:true}" fill-rule="nonzero" stroke-linecap="butt" stroke-linejoin="miter" stroke-miterlimit="10" stroke-dasharray="" stroke-dashoffset="0" style="mix-blend-mode: normal"><path d="M298.31458,182.67139c-0.51249,2.0463 -1.62266,4.09864 -3.37446,6.11574c-11.30866,13.02123 -45.07366,19.64289 -75.41625,14.78989c-23.93432,-3.82806 -38.58991,-13.65231 -38.16249,-24.0221" fill="none" stroke="#00abff" stroke-width="5"/><path d="M200.49249,198.65185c0,0 -0.91128,-2.99664 4.53037,-6.22858c4.84341,-2.87662 6.64788,-5.13029 11.2447,-7.14541c2.69381,-1.18089 6.43106,-2.27032 9.5746,-3.66277c0.71207,0.15494 1.44579,0.28887 2.2158,0.402c3.47808,0.51094 6.91792,1.06126 10.42609,1.33776c1.95313,0.15394 3.9109,0.40034 5.86913,0.58998c-3.36501,2.01724 -8.28023,3.7295 -10.16863,5.44641c-2.59637,2.3606 0.27441,4.91965 -0.22241,8.19762c-0.58634,3.86857 6.34205,7.43048 6.34205,7.43048c0,0 -15.74076,-0.64962 -22.76348,-1.77283c-6.12454,-0.97956 -17.0482,-4.59466 -17.0482,-4.59466z" fill="#71d0ff" stroke="#00abff" stroke-width="5"/><path d="M224.52551,189.82263c2.10402,-0.57944 3.45424,0.32348 3.45424,0.32348l0.0919,0.27117c1.73461,0.45054 3.61097,0.83322 5.58216,1.03701c0,0 2.42468,0.26137 1.81563,1.30189c-0.60904,1.04053 -3.03372,0.77916 -3.03372,0.77916c-0.46094,-0.0513 -0.91814,-0.10938 -1.37119,-0.17354c0.04654,0.02242 0.0709,0.03601 0.0709,0.03601c1.92521,1.1647 3.81158,1.21391 6.89696,1.70739l0.79845,0.00623c0,0 2.4844,0.11967 2.20555,1.18582c-0.27885,1.06616 -2.76326,0.94649 -2.76326,0.94649l-1.98691,-0.12794c-4.07295,-0.65143 -6.31661,-0.92621 -9.11467,-2.41016c0,0 -1.52378,-0.85053 0.45816,-1.50445c0.38571,-0.12726 0.75405,-0.19754 1.0972,-0.2282c-1.103,-0.21004 -2.17548,-0.45098 -3.21135,-0.7116l-1.74383,-0.95642c0,0 -1.35022,-0.90292 0.7538,-1.48236z" fill="#a4e1ff" stroke="none" stroke-width="0.5"/><path d="M248.51312,197.7395c1.0391,0.97579 -1.23472,1.42171 -1.23472,1.42171l-1.57745,0.30588c-5.6736,1.28137 -11.28037,0.8817 -16.61637,-0.57277c0,0 -2.09741,-0.58383 -0.73694,-1.48391c1.36047,-0.90008 3.45787,-0.31625 3.45787,-0.31625c3.54581,1.01407 7.70536,1.45802 11.47456,0.4955l1.92011,-0.38003c0,0 2.27383,-0.44592 3.31292,0.52987z" fill="#a4e1ff" stroke="none" stroke-width="0.5"/><path d="M228.21311,201.87382c-0.27885,1.06616 -2.76326,0.94649 -2.76326,0.94649l-1.98691,-0.12794c-4.29715,-0.69591 -6.77563,-1.58121 -10.10792,-2.95797c0,0 -1.79623,-0.7462 -0.0574,-1.51704c1.73884,-0.77083 3.53507,-0.02463 3.53507,-0.02463c2.86498,1.19748 4.69446,1.90898 8.37642,2.48904l0.79845,0.00623c0,0 2.4844,0.11967 2.20555,1.18582z" fill="#a4e1ff" stroke="none" stroke-width="0.5"/><path d="M209.68059,189.32531c1.0238,0.16375 1.4334,0.44794 1.57011,0.71603c1.18497,0.28872 2.4125,0.54666 3.68796,0.7476c0,0 2.34259,0.37467 1.46951,1.37997c-0.09426,0.10854 -0.20565,0.20099 -0.32937,0.27956c-0.02112,0.08937 -0.06892,0.17905 -0.14544,0.26716c-0.34846,0.40123 -1.19698,0.65996 -2.12911,0.69451c0.32591,0.0596 2.22212,0.45139 1.42275,1.37181c-0.87308,1.0053 -3.21567,0.63063 -3.21567,0.63063c-4.44919,-0.71583 -7.63117,-1.56175 -11.11702,-2.94802l-2.15812,-0.80475c0,0 -1.88687,-0.7038 -0.24684,-1.51354c1.64003,-0.80973 3.5269,-0.10593 3.5269,-0.10593l2.22556,0.83036c2.45487,0.9938 4.64393,1.63759 7.46339,2.17502c-0.35455,-0.17501 -0.56981,-0.39612 -0.60871,-0.62851c-1.32042,-0.26703 -2.60019,-0.57358 -3.84193,-0.90093l-0.78964,-1.56033c0,0 0.87308,-1.0053 3.21567,-0.63063z" fill="#a4e1ff" stroke="none" stroke-width="0.5"/><path d="M203.89687,184.24019c2.02588,-0.62863 3.49074,0.24076 3.49074,0.24076l0.76425,0.45453c0.24168,0.15377 2.73638,1.77331 3.1642,1.92361c1.93004,0.67804 4.33899,1.05662 6.48272,1.60382c0,0 2.14862,0.54846 0.87057,1.47053c-1.27805,0.92206 -3.42668,0.3736 -3.42668,0.3736c-2.40278,-0.61337 -5.07824,-1.06086 -7.21836,-1.83285c-0.98191,-0.35419 -3.20289,-1.82135 -4.01657,-2.33816l-0.6719,-0.39782c0,0 -1.46486,-0.86939 0.56102,-1.49802z" fill="#a4e1ff" stroke="none" stroke-width="0.5"/><path d="M218.59633,194.00665c1.31555,-0.9123 3.44142,-0.34774 3.44142,-0.34774l1.57339,0.41926c0.77018,0.22696 1.54036,0.45392 2.31055,0.68088c0,0 2.0609,0.60731 0.64572,1.49172c-1.41518,0.88441 -3.47607,0.2771 -3.47607,0.2771c-0.77018,-0.22696 -1.54036,-0.45392 -2.31055,-0.68088l-1.37413,-0.36349c0,0 -2.12587,-0.56455 -0.81033,-1.47685z" fill="#a4e1ff" stroke="none" stroke-width="0.5"/><path d="M194.68349,193.71727c1.68065,-0.79425 3.53144,-0.07301 3.53144,-0.07301l1.59471,0.63535c1.99137,1.04249 3.77232,1.55379 6.7212,2.01378c0,0 2.34259,0.37467 1.46951,1.37997c-0.87308,1.0053 -3.21567,0.63063 -3.21567,0.63063c-3.73618,-0.60951 -6.23175,-1.33782 -8.81563,-2.65047l-1.11541,-0.42077c0,0 -1.85078,-0.72124 -0.17014,-1.51548z" fill="#a4e1ff" stroke="none" stroke-width="0.5"/></g></g></svg>