<svg version="1.1" xmlns="http://www.w3.org/2000/svg" xmlns:xlink="http://www.w3.org/1999/xlink" width="89.00672" height="120.15079" viewBox="0,0,89.00672,120.15079"><g transform="translate(-187.90155,-121.02173)"><g data-paper-data="{&quot;isPaintingLayer&quot;:true}" fill-rule="nonzero" stroke-linejoin="miter" stroke-miterlimit="10" stroke-dasharray="" stroke-dashoffset="0" style="mix-blend-mode: normal"><path d="M275.84823,171.02195l-25.51842,23.64479l-10.21942,-11.02295l25.51844,-23.64479z" data-paper-data="{&quot;index&quot;:null}" fill="#b1b1b1" stroke="#000000" stroke-width="1.5" stroke-linecap="butt"/><path d="M268.99046,128.93225l-7.53289,35.98227l-17.85587,-3.73813l7.53289,-35.98227z" data-paper-data="{&quot;index&quot;:null}" fill="#9b6a16" stroke="#000000" stroke-width="1.5" stroke-linecap="butt"/><path d="M234.69137,122.00095l14.19854,34.44801l-17.09451,7.04589l-14.19854,-34.44801z" data-paper-data="{&quot;index&quot;:null}" fill="#9b6a16" stroke="#000000" stroke-width="1.5" stroke-linecap="butt"/><g data-paper-data="{&quot;index&quot;:null}" stroke="#000000" stroke-linecap="butt"><path d="M244.69553,158.39064c4.25115,0.33284 11.66067,0.91298 11.66067,0.91298l-2.81136,35.90681l-28.64321,-2.24265l2.81136,-35.9068c0,0 11.8522,0.92798 16.98254,1.32966z" fill="#9b6a16" stroke-width="1.5"/><path d="M238.26976,186.95798c-1.00502,2.24351 -3.28465,0.76778 -5.54347,0.85043c-0.41662,0.23381 -0.90471,0.35096 -1.41676,0.31087c-0.21577,-0.0169 -0.42299,-0.06071 -0.61861,-0.12788c-1.62222,0.30881 -3.04574,-2.94987 -2.7604,-4.15244c0.55921,-2.35683 2.24659,-2.05392 3.75546,-3.10572c0.22194,-0.15469 -0.10812,-2.7761 1.16126,-3.22781c2.78777,-0.99205 5.28333,0.63784 4.31021,3.47103c-0.26695,0.77721 1.21851,1.19484 1.47464,1.97569c0.45383,1.38359 0.23122,2.68075 -0.36236,4.00582z" fill="#b1b1b1" stroke-width="1"/><path d="M253.05727,164.49754c0.74498,1.02071 0.41334,2.58128 -0.35739,3.84657c-0.20641,1.27024 -1.35645,2.19087 -2.66246,2.08861c-0.18516,-0.01449 -0.36403,-0.04881 -0.53468,-0.10071c-2.30963,-0.65298 -5.25189,0.37072 -7.20199,-1.81481c-2.52874,-2.834 0.58728,-8.20278 4.33698,-7.90919c0.14271,0.01118 6.0237,3.3472 6.41954,3.88955z" fill="#b1b1b1" stroke-width="1"/></g><g data-paper-data="{&quot;index&quot;:null}"><path d="M249.5126,203.68053l2.46946,2.1903l3.47336,1.78088l3.1787,1.72092l1.76796,0.3598l-3.80835,1.37301l-2.79927,-0.56968l-1.73538,-1.27376l1.66768,3.86831l2.17221,2.89697l2.64677,2.07295l4.53207,2.61007l1.67801,0.80179l-5.28423,1.83981l-6.60244,-0.72993l-2.23735,-1.06905l-2.55941,-1.74832l2.58163,3.90087l2.43948,2.33764l3.73545,2.75481l5.03403,2.40535l3.53592,0.71959l-3.36636,1.46296l-5.98572,0.0093l-5.00921,-1.01942l-4.74195,-1.57875l-2.47203,-1.42367l0.69633,3.36378l1.61287,2.6297l2.37951,2.63229l-6.48251,-1.31925l-6.35741,-3.44182l-2.55681,-2.51495l-2.08227,-3.33896l-4.91668,-2.22803l-5.32352,-3.99859l-3.14097,-4.16814l-1.31563,-3.33637l-0.57898,-3.18645l-9.54387,-2.86285l7.93358,-0.53348l0.09512,-1.97525l-9.57644,-1.94889l16.54384,-0.62241l-10.80987,-3.42735l15.80461,-0.0057l-9.57127,-3.48215l14.9806,-0.48025z" fill="#000000" stroke="#000000" stroke-width="4" stroke-linecap="round"/><path d="M252.3399,211.37059c-1.69718,8.33961 -10.26976,13.63559 -19.1474,11.82891c-8.87764,-1.80667 -14.69855,-10.03184 -13.00137,-18.37144c1.69718,-8.3396 10.26976,-13.63559 19.1474,-11.82891c8.87764,1.80667 14.69855,10.03185 13.00137,18.37145z" data-paper-data="{&quot;index&quot;:null}" fill="#b1b1b1" stroke="#000000" stroke-width="1.5" stroke-linecap="butt"/><path d="M231.46955,216.4269c-0.22788,-0.10889 -0.94262,-1.11739 -1.78033,-2.41412c-0.93633,0.30772 -1.81277,0.52372 -2.50147,0.61672c-0.25425,0.06139 -0.52233,0.07973 -0.79429,0.04842c-0.12435,-0.00556 -0.2334,-0.0197 -0.32515,-0.04288c-0.09672,-0.02444 -0.18505,-0.06034 -0.26618,-0.10608c-1.00732,-0.40208 -1.61431,-1.47863 -1.39037,-2.57901c0.15354,-0.75447 0.66224,-1.34595 1.31641,-1.63567c0.1214,-0.05377 0.2478,-0.09713 0.37787,-0.12923c0.14482,-0.06293 0.51188,-0.20857 1.01555,-0.40286c-0.59252,-1.04269 -1.01059,-1.84941 -1.04126,-2.06244c-0.17288,-1.20044 -0.02991,-2.35988 1.61382,-2.80222c1.56038,-0.41991 2.97277,1.2122 4.10386,3.14026c1.36591,-0.47717 2.47248,-0.82782 2.61045,-0.76978c0.70804,0.29782 1.52411,0.70961 1.81417,1.42086c0.47311,1.16008 -0.69832,2.39834 -2.41095,3.4448c0.0732,0.1598 0.14134,0.30601 0.20419,0.43592c0.05823,0.12036 0.17942,0.25659 0.33187,0.40613c0.39163,0.20703 0.70895,0.52155 0.9213,0.89723c0.42262,0.48351 0.68455,1.02483 0.24955,1.58031c-0.23954,1.17702 -1.34349,1.95737 -2.51561,1.8141c-0.10961,-0.00949 -0.22101,-0.03156 -0.33515,-0.06634c-0.33992,-0.09373 -0.64256,-0.26109 -0.89396,-0.48099c-0.04862,-0.03566 -0.0979,-0.07306 -0.14789,-0.1122z" fill="#000000" stroke="none" stroke-width="0.5" stroke-linecap="butt"/><path d="M242.20845,218.04775c-0.04987,0.01341 -0.09865,0.02575 -0.14638,0.03698c-0.2581,0.08471 -0.53787,0.11379 -0.82214,0.07592c-0.0965,-0.01024 -0.18691,-0.02914 -0.27198,-0.05687c-0.92303,-0.26533 -1.50143,-1.20044 -1.30661,-2.15773c-0.14908,-0.55411 0.21907,-0.87611 0.68915,-1.10374c0.27839,-0.21374 0.61591,-0.34833 0.97491,-0.37883c0.16167,-0.06349 0.29569,-0.12696 0.37754,-0.19856c0.08835,-0.07727 0.18583,-0.16505 0.29143,-0.26142c-0.94948,-1.3278 -1.43283,-2.62714 -0.7099,-3.34523c0.44323,-0.44026 1.18507,-0.48914 1.80979,-0.48703c0.12173,0.0004 0.83869,0.61466 1.70956,1.40606c1.45964,-1.08387 3.03577,-1.85676 4.07044,-1.04641c1.08993,0.85364 0.8284,1.76706 0.31741,2.61079c-0.09069,0.14973 -0.6601,0.62078 -1.43511,1.21301c0.31531,0.30555 0.54379,0.53126 0.6322,0.6244c0.08717,0.06538 0.16803,0.13802 0.24181,0.21686c0.39763,0.42484 0.59045,1.02935 0.46557,1.64296c-0.18213,0.89496 -0.97873,1.50795 -1.86065,1.48876c-0.07527,0.00845 -0.15281,0.00725 -0.23299,-0.0052c-0.07606,-0.0118 -0.16219,-0.03588 -0.25705,-0.07125c-0.21355,-0.06301 -0.40841,-0.16195 -0.57924,-0.28873c-0.48602,-0.28854 -1.07349,-0.72882 -1.67664,-1.25683c-1.03932,0.70448 -1.89497,1.23228 -2.10018,1.24136z" data-paper-data="{&quot;index&quot;:null}" fill="#000000" stroke="none" stroke-width="0.5" stroke-linecap="butt"/><path d="M240.10799,197.81858c6.27713,1.7883 5.80891,9.98722 -1.25443,7.60931c-0.09133,-0.00831 -0.18313,-0.02172 -0.27509,-0.04043c-0.41147,-0.08374 -0.77858,-0.26409 -1.08254,-0.51261l-0.02513,-0.01968c-2.71882,-0.5533 -6.95219,-0.92927 -6.67421,-4.67665c0.04523,-0.60977 0.37784,-2.13113 0.91413,-2.46761c2.32252,-1.45721 6.01126,-0.57209 8.39726,0.10766z" fill="#000000" stroke="none" stroke-width="0.5" stroke-linecap="butt"/><path d="M219.40565,212.89665l-2.46428,-3.72356c0,0 1.79571,-2.42396 2.76352,-3.0439c0.43275,-0.2772 -0.07427,-0.84972 0.52372,-0.97141c0.82266,-0.16741 2.71139,0.17284 2.71139,0.17284c0,0 -2.13749,1.47528 -2.28025,2.91144c-0.14276,1.43616 1.54774,4.45764 1.54774,4.45764l2.58577,11.41987" fill="none" stroke="#000000" stroke-width="4" stroke-linecap="round"/><path d="M228.18446,224.04252l3.78094,-1.99232l4.0756,-1.93235l2.54751,-3.47078l1.37043,4.57498l-3.22937,4.55947l7.02221,-1.33269l2.54751,-3.47078l0.59966,-2.94659l1.28823,2.71708l0.62861,5.95833l-3.40151,3.14355l-14.75779,-4.38422l-3.7825,-6.29331l-0.7837,-3.68841l0.72217,-4.30254l-3.96601,4.40956l-0.68961,3.38858z" fill="#000000" stroke="#000000" stroke-width="4" stroke-linecap="round"/></g><g data-paper-data="{&quot;index&quot;:null}" stroke="#000000" stroke-width="1.5" stroke-linecap="butt"><path d="M217.44747,153.01663l16.23708,30.76726l-13.29571,7.01184l-16.23706,-30.76726z" data-paper-data="{&quot;index&quot;:null}" fill="#b1b1b1"/><path d="M222.34445,162.29584l11.34008,21.48805l-13.29571,7.01184l-11.70516,-22.17987z" data-paper-data="{&quot;index&quot;:null}" fill="#9b6a16"/><path d="M217.90668,169.23258c1.29657,-0.47463 2.73241,0.19169 3.20704,1.48826c0.47463,1.29657 -0.19169,2.73241 -1.48826,3.20704c-1.29657,0.47463 -2.73241,-0.19169 -3.20704,-1.48826c-0.47463,-1.29657 0.19169,-2.73241 1.48826,-3.20704z" fill="#b1b1b1"/><path d="M223.15901,185.29941c-0.10407,0.03267 -0.2069,0.04986 -0.30865,0.05376c-1.16837,0.20284 -2.35046,-0.45175 -2.77251,-1.60469c-0.17233,-0.47075 -0.19425,-0.95985 -0.09022,-1.41464c-0.64989,-2.13556 4.12384,-5.67621 5.59545,-2.51063c0.93154,2.00386 -0.35747,4.82755 -2.42409,5.47619z" fill="#b1b1b1"/></g></g></g></svg>