<svg version="1.1" xmlns="http://www.w3.org/2000/svg" xmlns:xlink="http://www.w3.org/1999/xlink" width="49.94343" height="46.24397" viewBox="0,0,49.94343,46.24397"><defs><linearGradient x1="209.25171" y1="179.75418" x2="258.7035" y2="179.75418" gradientUnits="userSpaceOnUse" id="color-1"><stop offset="0" stop-color="#00edff"/><stop offset="1" stop-color="#00edff" stop-opacity="0"/></linearGradient><linearGradient x1="209.73453" y1="180.14123" x2="241.26574" y2="180.14123" gradientUnits="userSpaceOnUse" id="color-2"><stop offset="0" stop-color="#00caf0"/><stop offset="1" stop-color="#00caf0" stop-opacity="0"/></linearGradient><linearGradient x1="208.76009" y1="179.26254" x2="224.28989" y2="179.26254" gradientUnits="userSpaceOnUse" id="color-3"><stop offset="0" stop-color="#00edff"/><stop offset="1" stop-color="#00edff" stop-opacity="0"/></linearGradient><linearGradient x1="208.91171" y1="179.86869" x2="218.81375" y2="179.86869" gradientUnits="userSpaceOnUse" id="color-4"><stop offset="0" stop-color="#00caf0"/><stop offset="1" stop-color="#00caf0" stop-opacity="0"/></linearGradient><linearGradient x1="211.79359" y1="179.37747" x2="227.3234" y2="179.37747" gradientUnits="userSpaceOnUse" id="color-5"><stop offset="0" stop-color="#00edff"/><stop offset="1" stop-color="#00edff" stop-opacity="0"/></linearGradient><linearGradient x1="211.94522" y1="179.85101" x2="221.84726" y2="179.85101" gradientUnits="userSpaceOnUse" id="color-6"><stop offset="0" stop-color="#00caf0"/><stop offset="1" stop-color="#00caf0" stop-opacity="0"/></linearGradient></defs><g transform="translate(-208.76009,-156.14059)"><g data-paper-data="{&quot;isPaintingLayer&quot;:true}" fill-rule="nonzero" stroke="none" stroke-width="0" stroke-linecap="round" stroke-linejoin="miter" stroke-miterlimit="10" stroke-dasharray="" stroke-dashoffset="0" style="mix-blend-mode: normal"><g><path d="M209.25171,174.83272l29.11447,-9.84291l-1.28446,4.17579l-5.99415,5.96541l12.84463,0.59654l14.77132,3.28097l-13.91501,5.36887l-14.34316,2.08789l5.78007,3.28097l3.63931,4.77233l-30.18486,-7.45676c0,0 1.32162,-4.45694 1.24495,-6.64656c-0.06361,-1.81671 -1.67311,-5.58253 -1.67311,-5.58253z" fill="url(#color-1)"/><path d="M209.73453,177.00323l18.56383,-6.27599l-0.81899,2.66255l-3.82196,3.80364l8.18993,0.38036l9.41842,2.092l-8.87242,3.42327l-9.14542,1.33127l3.68546,2.092l2.32048,3.04291l-19.24632,-4.75454c0,0 0.84268,-2.84181 0.7938,-4.23795c-0.04056,-1.15836 -1.0668,-3.55951 -1.0668,-3.55951z" fill="url(#color-2)"/></g><g><path d="M208.76009,171.55522l9.14309,-15.41463l-0.40337,6.53956l-1.8824,9.34222l4.03372,0.93422l4.63877,5.13821l-4.36986,8.408l-4.50431,3.26977l1.81517,5.13821l1.14289,7.47378l-9.47923,-11.67777c0,0 0.41504,-6.97986 0.39096,-10.40894c-0.01998,-2.84508 -0.52542,-8.7426 -0.52542,-8.7426z" fill="url(#color-3)"/><path d="M208.91171,174.95438l5.82977,-9.8286l-0.2572,4.16972l-1.20025,5.95675l2.57196,0.59567l2.95775,3.27621l-2.78629,5.36106l-2.87202,2.08485l1.15738,3.27621l0.72872,4.76539l-6.0441,-7.44592c0,0 0.26464,-4.45046 0.24929,-6.6369c-0.01274,-1.81407 -0.33502,-5.57442 -0.33502,-5.57442z" fill="url(#color-4)"/></g><g><path d="M211.79359,173.35631l9.14309,-12.04231l-0.40337,5.10887l-1.8824,7.29838l4.03372,0.72984l4.63877,4.0141l-4.36986,6.56855l-4.50431,2.55443l1.81517,4.0141l1.14289,5.8387l-9.47923,-9.12297c0,0 0.41504,-5.45284 0.39096,-8.13173c-0.01997,-2.22265 -0.52542,-6.82995 -0.52542,-6.82995z" fill="url(#color-5)"/><path d="M211.94522,176.01182l5.82977,-7.67836l-0.2572,3.2575l-1.20025,4.65357l2.57196,0.46535l2.95775,2.55946l-2.78629,4.1882l-2.87202,1.62874l1.15738,2.55946l0.72872,3.72285l-6.0441,-5.81694c0,0 0.26463,-3.47682 0.24928,-5.18492c-0.01273,-1.41719 -0.33501,-4.35488 -0.33501,-4.35488z" fill="url(#color-6)"/></g></g></g></svg>