<svg version="1.1" xmlns="http://www.w3.org/2000/svg" xmlns:xlink="http://www.w3.org/1999/xlink" width="56.18307" height="99.22844" viewBox="0,0,56.18307,99.22844"><g transform="translate(-209.18867,-131.3597)"><g data-paper-data="{&quot;isPaintingLayer&quot;:true}" fill="#b1b1b1" fill-rule="nonzero" stroke="#000000" stroke-width="1.5" stroke-linecap="butt" stroke-linejoin="miter" stroke-miterlimit="10" stroke-dasharray="" stroke-dashoffset="0" style="mix-blend-mode: normal"><path d="M237.26855,195.09295l-11.44441,-32.85258l14.19615,-4.94081l11.44438,32.85258z" data-paper-data="{&quot;index&quot;:null}"/><path d="M210.20602,220.84611l17.58153,-32.28557l16.02141,8.72467l-17.58153,32.28557z"/><path d="M225.47638,193.3484l5.65333,-35.57024l28.37473,4.50972l-5.65333,35.57025c0,0 -7.34007,-1.16659 -11.55138,-1.83591c-5.08225,-0.80774 -16.82336,-2.67381 -16.82336,-2.67381z"/><path d="M264.62174,150.12193c-1.33585,8.40505 -9.67199,14.0659 -18.6193,12.64387c-8.94731,-1.42203 -15.11761,-9.38846 -13.78176,-17.79351c1.33585,-8.40505 9.67199,-14.06589 18.6193,-12.64386c8.94731,1.42203 15.11761,9.38845 13.78176,17.79351z" data-paper-data="{&quot;index&quot;:null}"/><path d="M245.59289,215.58192v-37.25941h18.48964v37.25941z"/><path d="M247.41558,197.24819l-18.35188,-29.55462l12.77203,-7.92575l18.35187,29.55462z" data-paper-data="{&quot;index&quot;:null}"/></g></g></svg>