<svg version="1.1" xmlns="http://www.w3.org/2000/svg" xmlns:xlink="http://www.w3.org/1999/xlink" width="57.26727" height="102.23734" viewBox="0,0,57.26727,102.23734"><g transform="translate(-218.14912,-130.00426)"><g data-paper-data="{&quot;isPaintingLayer&quot;:true}" fill="#b1b1b1" fill-rule="nonzero" stroke="#000000" stroke-width="1.5" stroke-linecap="butt" stroke-linejoin="miter" stroke-miterlimit="10" stroke-dasharray="" stroke-dashoffset="0" style="mix-blend-mode: normal"><path d="M274.3851,153.43546l-18.18245,29.65916l-12.81272,-7.85979l18.18246,-29.65915z" data-paper-data="{&quot;index&quot;:null}"/><path d="M240.43029,219.85659l10.06133,-35.3587l17.54643,4.99284l-10.06133,35.3587z"/><path d="M221.66175,225.91438l10.86393,-35.64041l17.68623,5.39113l-10.86393,35.64041z"/><path d="M232.82303,198.7735l-6.68486,-35.39088l28.23166,-5.33258l6.68486,35.39089c0,0 -7.30306,1.37945 -11.49313,2.1709c-5.05662,0.95513 -16.73853,3.16168 -16.73853,3.16168z"/><path d="M253.98898,143.15762c1.5796,8.36266 -4.35654,16.50508 -13.25874,18.18658c-8.9022,1.68151 -17.39936,-3.73465 -18.97896,-12.09731c-1.5796,-8.36266 4.35654,-16.50507 13.25874,-18.18657c8.9022,-1.68151 17.39936,3.73464 18.97896,12.09731z" data-paper-data="{&quot;index&quot;:null}"/><path d="M256.99511,164.70293l-32.42688,12.60019l-5.4482,-14.00927l32.42688,-12.60019z" data-paper-data="{&quot;index&quot;:null}"/></g></g></svg>