<svg version="1.1" xmlns="http://www.w3.org/2000/svg" xmlns:xlink="http://www.w3.org/1999/xlink" width="113.19343" height="104.80885" viewBox="0,0,113.19343,104.80885"><defs><linearGradient x1="184.51751" y1="181.11419" x2="296.59667" y2="181.11419" gradientUnits="userSpaceOnUse" id="color-1"><stop offset="0" stop-color="#00edff"/><stop offset="1" stop-color="#00edff" stop-opacity="0"/></linearGradient><linearGradient x1="185.61179" y1="181.99141" x2="257.07516" y2="181.99141" gradientUnits="userSpaceOnUse" id="color-2"><stop offset="0" stop-color="#00caf0"/><stop offset="1" stop-color="#00caf0" stop-opacity="0"/></linearGradient><linearGradient x1="183.40329" y1="179.99992" x2="218.60053" y2="179.99992" gradientUnits="userSpaceOnUse" id="color-3"><stop offset="0" stop-color="#00edff"/><stop offset="1" stop-color="#00edff" stop-opacity="0"/></linearGradient><linearGradient x1="183.74692" y1="181.37372" x2="206.18923" y2="181.37372" gradientUnits="userSpaceOnUse" id="color-4"><stop offset="0" stop-color="#00caf0"/><stop offset="1" stop-color="#00caf0" stop-opacity="0"/></linearGradient><linearGradient x1="190.27851" y1="180.2604" x2="225.47578" y2="180.2604" gradientUnits="userSpaceOnUse" id="color-5"><stop offset="0" stop-color="#00edff"/><stop offset="1" stop-color="#00edff" stop-opacity="0"/></linearGradient><linearGradient x1="190.62217" y1="181.33365" x2="213.06448" y2="181.33365" gradientUnits="userSpaceOnUse" id="color-6"><stop offset="0" stop-color="#00caf0"/><stop offset="1" stop-color="#00caf0" stop-opacity="0"/></linearGradient></defs><g transform="translate(-183.40329,-127.59557)"><g data-paper-data="{&quot;isPaintingLayer&quot;:true}" fill-rule="nonzero" stroke="none" stroke-width="0" stroke-linecap="round" stroke-linejoin="miter" stroke-miterlimit="10" stroke-dasharray="" stroke-dashoffset="0" style="mix-blend-mode: normal"><g><path d="M184.51751,169.96003l65.98599,-22.30829l-2.91114,9.46415l-13.58534,13.5202l29.11149,1.35202l33.4782,7.4361l-31.53744,12.16818l-32.50781,4.73206l13.10014,7.4361l8.24825,10.81617l-68.41196,-16.90025c0,0 2.99536,-10.10136 2.8216,-15.06398c-0.14417,-4.11745 -3.79199,-12.65243 -3.79199,-12.65243z" fill="url(#color-1)"/><path d="M185.61179,174.87935l42.07367,-14.22411l-1.85619,6.03449l-8.66222,8.62069l18.56193,0.86206l21.34622,4.74138l-20.10874,7.75861l-20.72748,3.01723l8.35285,4.74138l5.25921,6.89655l-43.62049,-10.77585c0,0 1.90988,-6.44077 1.79909,-9.60503c-0.09193,-2.62535 -2.41783,-8.06739 -2.41783,-8.06739z" fill="url(#color-2)"/></g><g><path d="M183.40329,162.5318l20.7222,-34.93622l-0.91421,14.82147l-4.26633,21.17351l9.14216,2.11735l10.51346,11.64541l-9.90399,19.05617l-10.20872,7.41071l4.11396,11.64541l2.59028,16.93882l-21.48404,-26.46688c0,0 0.94066,-15.81938 0.88608,-23.59116c-0.04528,-6.44818 -1.19083,-19.81452 -1.19083,-19.81452z" fill="url(#color-3)"/><path d="M183.74692,170.23577l13.21278,-22.27586l-0.58293,9.45039l-2.72029,13.50057l5.82917,1.35005l6.70354,7.42531l-6.31494,12.15048l-6.50924,4.72517l2.62312,7.42531l1.65159,10.80044l-13.69855,-16.87568c0,0 0.59979,-10.08667 0.565,-15.04209c-0.02887,-4.11147 -0.7593,-12.63405 -0.7593,-12.63405z" fill="url(#color-4)"/></g><g><path d="M190.27851,166.61385l20.7222,-27.29309l-0.91421,11.57891l-4.26633,16.54129l9.14216,1.65413l10.51346,9.09769l-9.90399,14.88718l-10.20872,5.78944l4.11396,9.09769l2.59028,13.23302l-21.48404,-20.6766c0,0 0.94066,-12.3585 0.88608,-18.43002c-0.04526,-5.03749 -1.19083,-15.47962 -1.19083,-15.47962z" fill="url(#color-5)"/><path d="M190.62217,172.63238l13.21278,-17.40249l-0.58293,7.3829l-2.72029,10.547l5.82917,1.05468l6.70354,5.80084l-6.31494,9.49227l-6.50924,3.69143l2.62312,5.80084l1.65159,8.43759l-13.69855,-13.1837c0,0 0.59977,-7.87998 0.56498,-11.75127c-0.02885,-3.21197 -0.75928,-9.87004 -0.75928,-9.87004z" fill="url(#color-6)"/></g></g></g></svg>