<svg version="1.1" xmlns="http://www.w3.org/2000/svg" xmlns:xlink="http://www.w3.org/1999/xlink" width="38.06628" height="204.37702" viewBox="0,0,38.06628,204.37702"><g transform="translate(-205,-77.823)"><g data-paper-data="{&quot;isPaintingLayer&quot;:true}" fill="#ffffff" fill-rule="nonzero" stroke="none" stroke-width="0" stroke-linecap="butt" stroke-linejoin="miter" stroke-miterlimit="10" stroke-dasharray="" stroke-dashoffset="0" style="mix-blend-mode: normal"><path d="M240,282.2c-19.32997,0 -35,-45.7565 -35,-102.2c0,-55.71167 15.26632,-101.01168 34.25,-102.177c0,3.17011 0,6.34022 0,9.51033c0,3.20333 0,6.40666 0,9.60999c-3.08632,-0.15734 -6.11952,0.81853 -8.67387,3.55898c-10.86714,11.65891 -16.0932,45.68457 -16.0932,45.68457c-1.84412,12.05736 -2.64807,29.633 -1.61902,46.12088c1.00646,16.12615 3.09724,35.77161 6.33103,44.4947c0,0 4.78918,14.79999 11.07856,20.77997c3.38528,3.21873 7.20519,4.61144 10.94684,4.22244c0.02638,1.07205 -0.00489,2.12149 0.00755,2.80935c0.06439,3.55931 0.43131,6.93976 0.92482,10.46726c0.31377,2.24284 0.61625,4.48691 0.91357,6.73176c-1.01041,0.25608 -2.03312,0.38679 -3.06628,0.38679z"/></g></g></svg>