<svg version="1.1" xmlns="http://www.w3.org/2000/svg" xmlns:xlink="http://www.w3.org/1999/xlink" width="80.76321" height="99.08425" viewBox="0,0,80.76321,99.08425"><g transform="translate(-189.87725,-124.18472)"><g data-paper-data="{&quot;isPaintingLayer&quot;:true}" fill="#b1b1b1" fill-rule="nonzero" stroke="#000000" stroke-width="1.5" stroke-linecap="butt" stroke-linejoin="miter" stroke-miterlimit="10" stroke-dasharray="" stroke-dashoffset="0" style="mix-blend-mode: normal"><path d="M190.92061,197.21218l30.24732,-20.89421l10.36856,15.00995l-30.24732,20.89421z" data-paper-data="{&quot;index&quot;:null}"/><path d="M240.47866,216.53947l11.65273,-35.39036l17.56214,5.78256l-11.65273,35.39036z" data-paper-data="{&quot;index&quot;:null}"/><g><path d="M226.24193,191.06544v-36.01669h28.73087v36.0167c0,0 -7.4322,0 -11.69636,0c-5.14604,0 -17.03451,0 -17.03451,0z"/><path d="M257.36267,140.34441c0,8.51054 -7.34426,15.4097 -16.40387,15.4097c-9.05961,0 -16.40387,-6.89916 -16.40387,-15.4097c0,-8.51054 7.34426,-15.40969 16.40387,-15.40969c9.05961,0 16.40387,6.89915 16.40387,15.4097z" data-paper-data="{&quot;index&quot;:null}"/><path d="M228.84039,179.72618l25.80648,-23.33008l10.07716,11.15317l-25.80648,23.33005z" data-paper-data="{&quot;index&quot;:null}"/><path d="M218.80827,164.61813l15.79963,-30.99417l13.39371,6.82281l-15.79964,30.99417z" data-paper-data="{&quot;index&quot;:null}"/></g></g></g></svg>