<svg version="1.1" xmlns="http://www.w3.org/2000/svg" xmlns:xlink="http://www.w3.org/1999/xlink" width="57.54251" height="101.51213" viewBox="0,0,57.54251,101.51213"><g transform="translate(-208.06401,-130.83345)"><g data-paper-data="{&quot;isPaintingLayer&quot;:true}" fill="#b1b1b1" fill-rule="nonzero" stroke="#000000" stroke-width="1.5" stroke-linecap="butt" stroke-linejoin="miter" stroke-miterlimit="10" stroke-dasharray="" stroke-dashoffset="0" style="mix-blend-mode: normal"><path d="M252.77088,199.39842l-21.70719,-27.18574l11.74891,-9.37578l21.70717,27.18575z" data-paper-data="{&quot;index&quot;:null}"/><path d="M237.04248,225.89922l6.10925,-36.75514l18.2394,3.03166l-6.10925,36.75514z"/><path d="M209.07808,222.7799l17.23282,-32.47304l16.11445,8.55162l-17.23282,32.47304z"/><path d="M223.08532,192.86386l7.43143,-35.24168l28.11263,5.92813l-7.43143,35.24168c0,0 -7.27228,-1.53351 -11.44468,-2.41335c-5.03531,-1.0618 -16.66795,-3.51478 -16.66795,-3.51478z"/><path d="M264.85652,146.99314c0,8.51054 -7.34426,15.4097 -16.40387,15.4097c-9.05961,0 -16.40387,-6.89916 -16.40387,-15.4097c0,-8.51054 7.34426,-15.40969 16.40387,-15.40969c9.05961,0 16.40387,6.89915 16.40387,15.4097z" data-paper-data="{&quot;index&quot;:null}"/><path d="M258.31274,189.46261l-34.53625,4.18495l-1.81243,-14.92171l34.53626,-4.18494z" data-paper-data="{&quot;index&quot;:null}"/></g></g></svg>