<svg version="1.1" xmlns="http://www.w3.org/2000/svg" xmlns:xlink="http://www.w3.org/1999/xlink" width="71.78602" height="81.94179" viewBox="0,0,71.78602,81.94179"><g transform="translate(-209.20213,-134.66136)"><g data-paper-data="{&quot;isPaintingLayer&quot;:true}" fill="#b1b1b1" fill-rule="nonzero" stroke="#000000" stroke-width="1.5" stroke-linecap="butt" stroke-linejoin="miter" stroke-miterlimit="10" stroke-dasharray="" stroke-dashoffset="0" style="mix-blend-mode: normal"><path d="M232.03084,191.67491l7.713,-33.9231l14.65634,3.33674l-7.71301,33.92308z" data-paper-data="{&quot;index&quot;:null}"/><path d="M279.93392,169.08851l-22.9801,28.69465l-14.23945,-11.40366l22.9801,-28.69465z"/><path d="M235.98372,200.64724l-17.39464,-31.53773l25.15796,-13.87588l17.39464,31.53774c0,0 -6.50795,3.58946 -10.24183,5.64888c-4.50609,2.48533 -14.91613,8.227 -14.91613,8.227z"/><path d="M243.0381,143.13868c4.11025,7.45219 1.01133,17.04037 -6.92164,21.4158c-7.93298,4.37543 -17.69594,1.88123 -21.8062,-5.57096c-4.11025,-7.45219 -1.01133,-17.04036 6.92165,-21.4158c7.93298,-4.37543 17.69594,-1.88124 21.8062,5.57096z" data-paper-data="{&quot;index&quot;:null}"/><path d="M210.13305,202.39758l9.79749,-33.38077l14.42416,4.22915l-9.7975,33.38077z" data-paper-data="{&quot;index&quot;:null}"/><path d="M240.76029,213.50652l4.55537,-36.97989l18.35093,2.26056l-4.55537,36.97989z"/></g></g></svg>