<svg version="1.1" xmlns="http://www.w3.org/2000/svg" xmlns:xlink="http://www.w3.org/1999/xlink" width="60.10248" height="102.15866" viewBox="0,0,60.10248,102.15866"><g transform="translate(-210.54885,-132.75108)"><g data-paper-data="{&quot;isPaintingLayer&quot;:true}" fill="#b1b1b1" fill-rule="nonzero" stroke="#000000" stroke-width="1.5" stroke-linecap="butt" stroke-linejoin="miter" stroke-miterlimit="10" stroke-dasharray="" stroke-dashoffset="0" style="mix-blend-mode: normal"><path d="M220.71259,172.21205l26.43675,-22.61339l9.7739,11.41987l-26.43676,22.61338z" data-paper-data="{&quot;index&quot;:null}"/><path d="M211.51103,227.58906l12.81333,-34.98689l17.36192,6.35849l-12.81333,34.9869z"/><path d="M236.82809,226.4903l9.93134,-35.39543l17.56465,4.92834l-9.93133,35.39544z"/><path d="M222.70995,195.22236l6.29089,-35.46303l28.28922,5.0183l-6.29089,35.46305c0,0 -7.31795,-1.29816 -11.51655,-2.04296c-5.06693,-0.89885 -16.77265,-2.97535 -16.77265,-2.97535z"/><path d="M263.691,148.91077c0,8.51054 -7.34426,15.4097 -16.40387,15.4097c-9.05961,0 -16.40387,-6.89916 -16.40387,-15.4097c0,-8.51054 7.34426,-15.40969 16.40387,-15.40969c9.05961,0 16.40387,6.89915 16.40387,15.4097z" data-paper-data="{&quot;index&quot;:null}"/><path d="M235.34784,176.96517l34.45709,4.79335l-2.07531,14.88741l-34.45706,-4.79338z" data-paper-data="{&quot;index&quot;:null}"/></g></g></svg>