<svg version="1.1" xmlns="http://www.w3.org/2000/svg" xmlns:xlink="http://www.w3.org/1999/xlink" width="93.69148" height="42.03684" viewBox="0,0,93.69148,42.03684"><g transform="translate(-167.2215,-158.54169)"><g data-paper-data="{&quot;isPaintingLayer&quot;:true}" fill-rule="nonzero" stroke-linecap="butt" stroke-linejoin="miter" stroke-miterlimit="10" stroke-dasharray="" stroke-dashoffset="0" style="mix-blend-mode: normal"><path d="M256.75,180.00003c0,8.56042 -7.49923,15.5 -16.75,15.5c-9.25077,0 -16.75,-6.93958 -16.75,-15.5c0,-8.56042 7.49923,-15.5 16.75,-15.5c9.25077,0 16.75,6.93958 16.75,15.5zM240.82644,193.86851c0.8243,0 -1.58018,-2.95801 0.11179,-5.04857c0.47272,-0.58408 1.15074,1.07002 2.10492,1.04203c1.63352,-0.04791 3.78673,-1.54956 5.00952,-2.5076c2.78607,-2.18286 3.52512,-7.36248 3.52512,-8.26081c0,-1.06493 -0.34505,-4.68352 -2.66245,-6.76211c-2.79039,-2.50284 -7.73176,-3.41408 -9.01404,-3.41408c-0.7692,0 -6.10093,1.20739 -8.20999,3.28615c-1.06437,1.04907 -2.28585,2.33084 -2.48771,3.51551c-0.18294,1.07358 0.65921,2.06743 -0.26143,2.73609c-2.1932,1.59292 -4.11573,-0.42464 -4.11573,0.4134c0,0.77339 1.30673,0.0158 3.17628,2.25563c0.83571,1.00123 0.93843,3.77375 2.16799,5.26922c0.97851,1.19014 2.50316,2.1816 3.62812,2.9479c2.60078,1.48861 5.35608,-0.56929 6.59651,-0.09242c0.20227,0.07776 0.2975,4.61966 0.43111,4.61966z" fill="#ffffff" stroke="#000000" stroke-width="2.5"/><path d="M240.00001,169.62503c-6.19205,0 -11.21169,4.64505 -11.21169,10.375c0,5.72995 5.01964,10.375 11.21169,10.375c6.19205,0 11.21169,-4.64505 11.21169,-10.375c0,-5.72995 -5.01964,-10.375 -11.21169,-10.375zM232.55506,188.4311c-3.08296,-2.53295 -4.43006,-7.29231 -4.43006,-8.63941c0,-1.25206 1.35433,-5.29831 4.14084,-7.86836c2.43732,-2.24798 6.264,-3.13164 7.35916,-3.13164c1.42901,0 7.56587,1.54986 10.58376,4.66125c1.93911,1.99918 1.41624,5.67056 1.41624,6.58875c0,1.13404 -0.69485,5.31488 -3.22842,7.52474c-2.71038,2.36408 -7.3084,2.72526 -8.52158,2.72526c-1.0001,0 -5.03113,0.01989 -7.31994,-1.86059z" fill="#ffffff" stroke="#000000" stroke-width="2.5"/><path d="M237.125,172.29169v-12.5h5.53797v12.5z" fill="#ffffff" stroke="#000000" stroke-width="2.5"/><path d="M233.14399,183.06067h-12.5l-0.00001,-5.53797l12.5,-0.00001z" fill="#ffffff" stroke="#000000" stroke-width="2.5"/><path d="M242.93196,186.81067v12.5h-5.53798v-12.5z" data-paper-data="{&quot;index&quot;:null}" fill="#ffffff" stroke="#000000" stroke-width="2.5"/><path d="M247.16297,177.79169l12.5,-0.00001l0.00001,5.53798h-12.5z" data-paper-data="{&quot;index&quot;:null}" fill="#ffffff" stroke="#000000" stroke-width="2.5"/><text transform="translate(167.38136,183.78363) scale(0.31972,0.31972)" font-size="40" xml:space="preserve" fill="#000000" fill-rule="nonzero" stroke="none" stroke-width="1" stroke-linecap="butt" stroke-linejoin="miter" stroke-miterlimit="10" stroke-dasharray="" stroke-dashoffset="0" font-family="Sans Serif" font-weight="normal" text-anchor="start" style="mix-blend-mode: normal"><tspan x="0" dy="0">[ENTER]</tspan></text><text transform="translate(167.52444,197.76754) scale(0.22488,0.22488)" font-size="40" xml:space="preserve" fill="#000000" fill-rule="nonzero" stroke="none" stroke-width="1" stroke-linecap="butt" stroke-linejoin="miter" stroke-miterlimit="10" stroke-dasharray="" stroke-dashoffset="0" font-family="Sans Serif" font-weight="normal" text-anchor="start" style="mix-blend-mode: normal"><tspan x="0" dy="0">[Or Click Me]</tspan></text></g></g></svg>