<svg version="1.1" xmlns="http://www.w3.org/2000/svg" xmlns:xlink="http://www.w3.org/1999/xlink" width="102.53256" height="151" viewBox="0,0,102.53256,151"><defs><linearGradient x1="143" y1="182.66666" x2="245.53257" y2="182.66666" gradientUnits="userSpaceOnUse" id="color-1"><stop offset="0" stop-color="#ffffff" stop-opacity="0"/><stop offset="1" stop-color="#ffffff"/></linearGradient></defs><g transform="translate(-143,-107.16666)"><g data-paper-data="{&quot;isPaintingLayer&quot;:true}" fill="url(#color-1)" fill-rule="nonzero" stroke="none" stroke-width="0" stroke-linecap="butt" stroke-linejoin="miter" stroke-miterlimit="10" stroke-dasharray="" stroke-dashoffset="0" style="mix-blend-mode: normal"><path d="M143,258.16666c0,0 37.5441,-25.75649 37.58676,-32.9811c0.03587,-6.07508 -37.34763,-7.51861 -37.34763,-7.51861c0,0 50.01078,-15.60321 50.04841,-21.97551c0.03367,-5.70237 -49.8332,-14.47223 -49.8332,-14.47223c0,0 50.01276,-8.41607 50.05188,-15.04184c0.03571,-6.04769 -49.82645,-23.13708 -49.82645,-23.13708c0,0 49.99674,4.13089 50.03147,-1.75089c0.03584,-6.07015 -49.81966,-34.12274 -49.81966,-34.12274l99.18304,30.08429l2.45794,89.09578z"/></g></g></svg>