<svg version="1.1" xmlns="http://www.w3.org/2000/svg" xmlns:xlink="http://www.w3.org/1999/xlink" width="78.76649" height="99.67109" viewBox="0,0,78.76649,99.67109"><g transform="translate(-211.61795,-132.75108)"><g data-paper-data="{&quot;isPaintingLayer&quot;:true}" fill="#b1b1b1" fill-rule="nonzero" stroke="#000000" stroke-width="1.5" stroke-linecap="butt" stroke-linejoin="miter" stroke-miterlimit="10" stroke-dasharray="" stroke-dashoffset="0" style="mix-blend-mode: normal"><path d="M261.34915,203.72726l-31.38763,-15.0028l6.48617,-13.55993l31.3876,15.00282z" data-paper-data="{&quot;index&quot;:null}"/><path d="M236.90637,223.57477l10.63017,-35.19187l17.46364,5.27512l-10.63017,35.19187z"/><path d="M212.61452,223.61749l15.73451,-33.77409l16.76008,7.80811l-15.73451,33.77409z"/><path d="M221.81205,194.13734l8.44622,-35.01232l27.92969,6.73763l-8.44623,35.01234c0,0 -7.22495,-1.74292 -11.37019,-2.7429c-5.00254,-1.20679 -16.55948,-3.99474 -16.55948,-3.99474z"/><path d="M264.44538,148.91077c0,8.51054 -7.34426,15.4097 -16.40387,15.4097c-9.05961,0 -16.40387,-6.89916 -16.40387,-15.4097c0,-8.51054 7.34426,-15.40969 16.40387,-15.40969c9.05961,0 16.40387,6.89915 16.40387,15.4097z" data-paper-data="{&quot;index&quot;:null}"/><path d="M289.42213,172.59629l-32.66882,11.95888l-5.17113,-14.11389l32.66883,-11.95887z" data-paper-data="{&quot;index&quot;:null}"/></g></g></svg>