<svg version="1.1" xmlns="http://www.w3.org/2000/svg" xmlns:xlink="http://www.w3.org/1999/xlink" width="70.47422" height="102.20751" viewBox="0,0,70.47422,102.20751"><g transform="translate(-206.3402,-130.83345)"><g data-paper-data="{&quot;isPaintingLayer&quot;:true}" fill="#b1b1b1" fill-rule="nonzero" stroke="#000000" stroke-width="1.5" stroke-linecap="butt" stroke-linejoin="miter" stroke-miterlimit="10" stroke-dasharray="" stroke-dashoffset="0" style="mix-blend-mode: normal"><path d="M264.01134,195.40181l-21.70719,-27.18574l11.74891,-9.37578l21.70717,27.18575z" data-paper-data="{&quot;index&quot;:null}"/><path d="M234.99069,226.06979l4.90714,-36.43334l18.07971,2.43512l-4.90714,36.43334z"/><path d="M220.55646,229.14647l6.10925,-36.75514l18.2394,3.03166l-6.10925,36.75514z"/><path d="M224.09999,194.01395l5.06995,-35.65807l28.44479,4.04435l-5.06995,35.65807c0,0 -7.3582,-1.04621 -11.5799,-1.64646c-5.0948,-0.72439 -16.86489,-2.39789 -16.86489,-2.39789z"/><path d="M262.35864,146.99314c0,8.51054 -7.34426,15.4097 -16.40387,15.4097c-9.05961,0 -16.40387,-6.89916 -16.40387,-15.4097c0,-8.51054 7.34426,-15.40969 16.40387,-15.40969c9.05961,0 16.40387,6.89915 16.40387,15.4097z" data-paper-data="{&quot;index&quot;:null}"/><path d="M220.00404,197.28856l-12.69199,-32.39105l13.99378,-5.48784l12.69198,32.39106z" data-paper-data="{&quot;index&quot;:null}"/></g></g></svg>