<svg version="1.1" xmlns="http://www.w3.org/2000/svg" xmlns:xlink="http://www.w3.org/1999/xlink" width="70.49851" height="101.53888" viewBox="0,0,70.49851,101.53888"><g transform="translate(-210.95341,-131.11861)"><g data-paper-data="{&quot;isPaintingLayer&quot;:true}" fill="#b1b1b1" fill-rule="nonzero" stroke="#000000" stroke-width="1.5" stroke-linecap="butt" stroke-linejoin="miter" stroke-miterlimit="10" stroke-dasharray="" stroke-dashoffset="0" style="mix-blend-mode: normal"><path d="M228.5639,226.31218l10.89942,-35.62957l17.68085,5.40873l-10.89942,35.62957z"/><path d="M220.13399,226.2953l2.46582,-36.67953l18.20188,1.22365l-2.46583,36.67953z"/><path d="M219.66398,195.17808l-7.81127,-33.90061l14.64852,-3.37089l7.81125,33.9006z" data-paper-data="{&quot;index&quot;:null}"/><path d="M226.22595,191.87737l9.41821,-34.73977l26.73978,7.52055l-9.41821,34.73978c0,0 -6.91714,-1.94544 -10.88579,-3.06162c-4.78941,-1.34701 -15.85398,-4.45893 -15.85398,-4.45893z"/><path d="M267.3806,151.72044c-2.26492,8.20363 -11.1804,12.89944 -19.9133,10.48839c-8.7329,-2.41105 -13.97621,-11.01594 -11.71129,-19.21956c2.26492,-8.20363 11.1804,-12.89943 19.91329,-10.48838c8.7329,2.41105 13.97621,11.01593 11.71129,19.21956z" data-paper-data="{&quot;index&quot;:null}"/><path d="M280.45924,181.33877l-31.69502,14.34199l-6.20068,-13.69284l31.69502,-14.34197z" data-paper-data="{&quot;index&quot;:null}"/></g></g></svg>