<svg version="1.1" xmlns="http://www.w3.org/2000/svg" xmlns:xlink="http://www.w3.org/1999/xlink" width="94.61731" height="53.5025" viewBox="0,0,94.61731,53.5025"><g transform="translate(-199.14388,-209.89576)"><g data-paper-data="{&quot;isPaintingLayer&quot;:true}" fill="#b1b1b1" fill-rule="nonzero" stroke="#000000" stroke-width="1.5" stroke-linecap="butt" stroke-linejoin="miter" stroke-miterlimit="10" stroke-dasharray="" stroke-dashoffset="0" style="mix-blend-mode: normal"><g><path d="M212.68977,226.84772l36.30996,5.74933l-2.85306,18.01848l-36.30996,-5.74933z"/><path d="M200.16082,236.2664l32.74674,-17.77399l8.82018,16.25027l-32.74674,17.77399z"/><g><path d="M244.06736,257.19016l12.12641,-32.607l14.08715,5.2435l-12.12641,32.60701z" data-paper-data="{&quot;index&quot;:null}"/><path d="M228.51054,220.9194l35.72944,-4.53962l3.62129,28.50174l-35.72946,4.53961c0,0 -0.93677,-7.37294 -1.47423,-11.60309c-0.64862,-5.105 -2.14706,-16.89865 -2.14706,-16.89865z"/><path d="M228.95781,247.8202l13.46578,-32.07709l13.86131,5.81427l-13.46578,32.07709z"/><path d="M270.17082,241.5901c-7.63947,-3.75072 -10.59575,-13.38384 -6.60304,-21.51617c3.9927,-8.13233 13.42245,-11.68432 21.0619,-7.9336c7.63947,3.75072 10.59574,13.38384 6.60304,21.51616c-3.9927,8.13233 -13.42243,11.68433 -21.0619,7.9336z" data-paper-data="{&quot;index&quot;:null}"/></g></g></g></g></svg>