<svg version="1.1" xmlns="http://www.w3.org/2000/svg" xmlns:xlink="http://www.w3.org/1999/xlink" width="31.27606" height="93.49395" viewBox="0,0,31.27606,93.49395"><defs><radialGradient cx="258.05892" cy="182.13161" r="14.26931" gradientUnits="userSpaceOnUse" id="color-1"><stop offset="0" stop-color="#ffffff"/><stop offset="1" stop-color="#ffffff" stop-opacity="0"/></radialGradient><radialGradient cx="258.95058" cy="189.861" r="14.26931" gradientUnits="userSpaceOnUse" id="color-2"><stop offset="0" stop-color="#ffffff"/><stop offset="1" stop-color="#ffffff" stop-opacity="0"/></radialGradient><radialGradient cx="253.65763" cy="203.31425" r="14.26931" gradientUnits="userSpaceOnUse" id="color-3"><stop offset="0" stop-color="#ffffff"/><stop offset="1" stop-color="#ffffff" stop-opacity="0"/></radialGradient><radialGradient cx="246.29523" cy="214.17562" r="13.46766" gradientUnits="userSpaceOnUse" id="color-4"><stop offset="0" stop-color="#ffffff"/><stop offset="1" stop-color="#ffffff" stop-opacity="0"/></radialGradient><radialGradient cx="258.14269" cy="177.86842" r="14.26931" gradientUnits="userSpaceOnUse" id="color-5"><stop offset="0" stop-color="#ffffff"/><stop offset="1" stop-color="#ffffff" stop-opacity="0"/></radialGradient><radialGradient cx="259.03434" cy="170.13902" r="14.2693" gradientUnits="userSpaceOnUse" id="color-6"><stop offset="0" stop-color="#ffffff"/><stop offset="1" stop-color="#ffffff" stop-opacity="0"/></radialGradient><radialGradient cx="253.7414" cy="156.68578" r="14.2693" gradientUnits="userSpaceOnUse" id="color-7"><stop offset="0" stop-color="#ffffff"/><stop offset="1" stop-color="#ffffff" stop-opacity="0"/></radialGradient><radialGradient cx="246.379" cy="145.8244" r="13.46766" gradientUnits="userSpaceOnUse" id="color-8"><stop offset="0" stop-color="#ffffff"/><stop offset="1" stop-color="#ffffff" stop-opacity="0"/></radialGradient></defs><g transform="translate(-234.49211,-133.25304)"><g data-paper-data="{&quot;isPaintingLayer&quot;:true}" fill-rule="nonzero" stroke="none" stroke-width="0" stroke-linecap="butt" stroke-linejoin="miter" stroke-miterlimit="10" stroke-dasharray="" stroke-dashoffset="0" style="mix-blend-mode: normal"><path d="M264.79275,179.78833c0,6.06209 -4.30691,10.97639 -9.61976,10.97639c-5.31284,0 -9.61976,-4.9143 -9.61976,-10.97639c0,-6.06209 4.30691,-10.97639 9.61976,-10.97639c5.31284,0 9.61976,4.9143 9.61976,10.97639z" fill="url(#color-1)"/><path d="M256.06465,203.18066c-5.31285,0 -9.61976,-4.91429 -9.61976,-10.97638c0,-6.06209 4.30691,-10.97639 9.61976,-10.97639c5.31285,0 9.61976,4.9143 9.61976,10.97639c0,6.06209 -4.30691,10.97638 -9.61976,10.97638z" data-paper-data="{&quot;index&quot;:null}" fill="url(#color-2)"/><path d="M250.7717,216.63391c-5.31285,0 -9.61975,-4.91429 -9.61975,-10.97638c0,-6.06209 4.30691,-10.97639 9.61975,-10.97639c5.31285,0 9.61976,4.9143 9.61976,10.97639c0,6.06209 -4.30692,10.97638 -9.61976,10.97638z" data-paper-data="{&quot;index&quot;:null}" fill="url(#color-3)"/><path d="M243.57143,226.74699c-5.01437,0 -9.07932,-4.63821 -9.07932,-10.35973c0,-5.72152 4.06495,-10.35974 9.07932,-10.35974c5.01437,0 9.07932,4.63822 9.07932,10.35974c0,5.72152 -4.06495,10.35973 -9.07932,10.35973z" data-paper-data="{&quot;index&quot;:null}" fill="url(#color-4)"/><path d="M255.25676,191.18808c-5.31285,0 -9.61976,-4.91429 -9.61976,-10.97638c0,-6.06209 4.30691,-10.97639 9.61976,-10.97639c5.31284,0 9.61976,4.9143 9.61976,10.97639c0,6.06209 -4.30692,10.97638 -9.61976,10.97638z" data-paper-data="{&quot;index&quot;:null}" fill="url(#color-5)"/><path d="M265.76817,167.79575c0,6.06209 -4.30692,10.97639 -9.61976,10.97639c-5.31285,0 -9.61976,-4.9143 -9.61976,-10.97639c0,-6.06209 4.30691,-10.97638 9.61976,-10.97638c5.31284,0 9.61976,4.91429 9.61976,10.97638z" data-paper-data="{&quot;index&quot;:null}" fill="url(#color-6)"/><path d="M260.47523,154.3425c0,6.06209 -4.30691,10.97639 -9.61976,10.97639c-5.31285,0 -9.61975,-4.9143 -9.61975,-10.97639c0,-6.06209 4.30691,-10.97638 9.61975,-10.97638c5.31285,0 9.61976,4.91429 9.61976,10.97638z" data-paper-data="{&quot;index&quot;:null}" fill="url(#color-7)"/><path d="M252.73453,143.61277c0,5.72153 -4.06495,10.35974 -9.07932,10.35974c-5.01437,0 -9.07932,-4.63822 -9.07932,-10.35974c0,-5.72153 4.06495,-10.35973 9.07932,-10.35973c5.01437,0 9.07932,4.63821 9.07932,10.35974z" data-paper-data="{&quot;index&quot;:null}" fill="url(#color-8)"/></g></g></svg>