<svg version="1.1" xmlns="http://www.w3.org/2000/svg" xmlns:xlink="http://www.w3.org/1999/xlink" width="55.05012" height="97.53146" viewBox="0,0,55.05012,97.53146"><g transform="translate(-208.30759,-130.46566)"><g data-paper-data="{&quot;isPaintingLayer&quot;:true}" fill="#b1b1b1" fill-rule="nonzero" stroke="#000000" stroke-width="1.5" stroke-linecap="butt" stroke-linejoin="miter" stroke-miterlimit="10" stroke-dasharray="" stroke-dashoffset="0" style="mix-blend-mode: normal"><path d="M221.17425,227.16276l-4.39929,-36.49815l18.11187,-2.18312l4.39929,36.49815z"/><path d="M244.41166,226.67333l-8.06314,-36.3765l18.05151,-4.00126l8.06314,36.3765z"/><path d="M227.54885,197.29749l-5.81853,-35.5436l28.35348,-4.6415l5.81854,35.54361c0,0 -7.33458,1.20067 -11.54272,1.88957c-5.07845,0.83135 -16.81075,2.75194 -16.81075,2.75194z"/><path d="M248.29807,144.24594c1.15987,8.43113 -5.1756,16.26684 -14.15068,17.50155c-8.97508,1.2347 -17.19108,-4.59916 -18.35095,-13.03029c-1.15987,-8.43113 5.1756,-16.26683 14.15068,-17.50154c8.97508,-1.2347 17.19107,4.59915 18.35095,13.03029z" data-paper-data="{&quot;index&quot;:null}"/><path d="M226.63581,195.75738l-17.30442,-30.17986l13.04205,-7.47309l17.30442,30.17985z" data-paper-data="{&quot;index&quot;:null}"/><path d="M226.04349,184.75757l26.13237,-22.96446l9.91915,11.29394l-26.13237,22.96444z" data-paper-data="{&quot;index&quot;:null}"/></g></g></svg>