<svg version="1.1" xmlns="http://www.w3.org/2000/svg" xmlns:xlink="http://www.w3.org/1999/xlink" width="44.84429" height="101.10232" viewBox="0,0,44.84429,101.10232"><g transform="translate(-218.6961,-129.01261)"><g data-paper-data="{&quot;isPaintingLayer&quot;:true}" fill="#b1b1b1" fill-rule="nonzero" stroke="#000000" stroke-width="1.5" stroke-linecap="butt" stroke-linejoin="miter" stroke-miterlimit="10" stroke-dasharray="" stroke-dashoffset="0" style="mix-blend-mode: normal"><path d="M228.58824,226.11909l5.53588,-36.34313l18.03494,2.74712l-5.53588,36.34313z"/><path d="M219.55049,226.47628l5.61074,-36.83453l18.27881,2.78426l-5.61074,36.83453z"/><path d="M224.38666,193.12439l5.42359,-35.60599l28.40326,4.32645l-5.42359,35.606c0,0 -7.34744,-1.11918 -11.56298,-1.76131c-5.08735,-0.77492 -16.84026,-2.56516 -16.84026,-2.56516z"/><path d="M262.79039,147.66806c-1.28157,8.41349 -9.581,14.12804 -18.5373,12.76378c-8.95631,-1.36425 -15.17791,-9.29068 -13.89633,-17.70416c1.28157,-8.41349 9.581,-14.12803 18.5373,-12.76377c8.95631,1.36425 15.17791,9.29067 13.89633,17.70416z" data-paper-data="{&quot;index&quot;:null}"/></g></g></svg>