<svg version="1.1" xmlns="http://www.w3.org/2000/svg" xmlns:xlink="http://www.w3.org/1999/xlink" width="57.61661" height="99.17127" viewBox="0,0,57.61661,99.17127"><g transform="translate(-232.34609,-130.78921)"><g data-paper-data="{&quot;isPaintingLayer&quot;:true}" fill="#b1b1b1" fill-rule="nonzero" stroke="#000000" stroke-width="1.5" stroke-linecap="butt" stroke-linejoin="miter" stroke-miterlimit="10" stroke-dasharray="" stroke-dashoffset="0" style="mix-blend-mode: normal"><path d="M286.90118,169.60912l-29.37403,18.63959l-8.05008,-12.69402l29.37401,-18.63958z" data-paper-data="{&quot;index&quot;:null}"/><path d="M248.43453,212.33102l12.90544,-34.42264l17.08192,6.40421l-12.90544,34.42264z"/><path d="M248.70825,228.98487l-13.8965,-34.57096l17.15553,-6.89601l13.8965,34.57096z"/><path d="M233.22405,192.66134l6.79132,-35.3706l28.21548,5.4175l-6.79132,35.37062c0,0 -7.29888,-1.40142 -11.48654,-2.20548c-5.05372,-0.97033 -16.72894,-3.21204 -16.72894,-3.21204z"/><path d="M276.72387,145.95576c0.50138,8.49576 -6.42368,15.8156 -15.46757,16.34931c-9.04388,0.53372 -16.78183,-5.9208 -17.2832,-14.41655c-0.50138,-8.49576 6.42368,-15.8156 15.46757,-16.34931c9.04388,-0.53372 16.78183,5.92079 17.2832,14.41655z" data-paper-data="{&quot;index&quot;:null}"/><path d="M288.9882,166.26637l-32.31924,12.87377l-5.56639,-13.96273l32.31924,-12.87377z" data-paper-data="{&quot;index&quot;:null}"/></g></g></svg>