<svg version="1.1" xmlns="http://www.w3.org/2000/svg" xmlns:xlink="http://www.w3.org/1999/xlink" width="71.64669" height="96.85351" viewBox="0,0,71.64669,96.85351"><g transform="translate(-210.48844,-139.20718)"><g data-paper-data="{&quot;isPaintingLayer&quot;:true}" fill="#b1b1b1" fill-rule="nonzero" stroke="#000000" stroke-width="1.5" stroke-linecap="butt" stroke-linejoin="miter" stroke-miterlimit="10" stroke-dasharray="" stroke-dashoffset="0" style="mix-blend-mode: normal"><path d="M281.0762,163.27151l-25.89837,23.22802l-10.03304,-11.19287l25.89837,-23.22801z" data-paper-data="{&quot;index&quot;:null}"/><path d="M246.15029,229.01577l3.70881,-36.57476l18.14988,1.84045l-3.70881,36.57476z"/><path d="M211.52466,225.04256l20.11509,-31.36313l15.56368,9.98191l-20.11509,31.36314z"/><path d="M225.84377,200.41936l5.75361,-35.55415l28.36191,4.58969l-5.75362,35.55415c0,0 -7.33675,-1.18729 -11.54615,-1.86846c-5.07995,-0.82208 -16.81575,-2.72122 -16.81575,-2.72122z"/><path d="M265.17264,159.43801c-2.07848,8.25282 -10.8853,13.14942 -19.67058,10.93685c-8.78527,-2.21258 -14.22219,-10.69646 -12.14373,-18.94929c2.07848,-8.25282 10.88529,-13.1494 19.67057,-10.93684c8.78527,2.21258 14.22219,10.69645 12.14371,18.9493z" data-paper-data="{&quot;index&quot;:null}"/><path d="M266.41894,168.65563l-30.66086,16.4371l-7.10581,-13.24575l30.66086,-16.4371z" data-paper-data="{&quot;index&quot;:null}"/></g></g></svg>