<svg version="1.1" xmlns="http://www.w3.org/2000/svg" xmlns:xlink="http://www.w3.org/1999/xlink" width="48.72344" height="102.14781" viewBox="0,0,48.72344,102.14781"><g transform="translate(-213.29377,-130.67443)"><g data-paper-data="{&quot;isPaintingLayer&quot;:true}" fill="#b1b1b1" fill-rule="nonzero" stroke="#000000" stroke-width="1.5" stroke-linecap="butt" stroke-linejoin="miter" stroke-miterlimit="10" stroke-dasharray="" stroke-dashoffset="0" style="mix-blend-mode: normal"><path d="M260.85829,138.48574l-13.38069,32.11267l-13.87341,-5.78539l13.38071,-32.11266z" data-paper-data="{&quot;index&quot;:null}"/><path d="M243.01384,223.95678l-0.66152,-36.75637l18.24,-0.32828l0.66152,36.75637z"/><path d="M218.84913,229.59761l4.80451,-36.94834l18.33527,2.38417l-4.80451,36.94835z"/><path d="M223.88167,197.67701l-5.39383,-35.6105l28.40686,-4.30272l5.39382,35.61051c0,0 -7.34838,1.11303 -11.56445,1.75165c-5.088,0.77066 -16.84241,2.55108 -16.84241,2.55108z"/><path d="M246.33937,143.98151c1.4979,8.37768 -4.51742,16.46178 -13.4356,18.05633c-8.91818,1.59454 -17.36208,-3.90427 -18.86,-12.28195c-1.4979,-8.37768 4.51742,-16.46176 13.4356,-18.05632c8.91818,-1.59454 17.36207,3.90426 18.85999,12.28196z" data-paper-data="{&quot;index&quot;:null}"/><path d="M245.26937,139.54854l-12.01606,32.64783l-14.10776,-5.18783l12.01606,-32.64783z" data-paper-data="{&quot;index&quot;:null}"/></g></g></svg>