<svg version="1.1" xmlns="http://www.w3.org/2000/svg" xmlns:xlink="http://www.w3.org/1999/xlink" width="122.46099" height="33.33803" viewBox="0,0,122.46099,33.33803"><g transform="translate(-178.57823,-177.04072)"><g data-paper-data="{&quot;isPaintingLayer&quot;:true}" fill-rule="nonzero" stroke-linecap="butt" stroke-linejoin="miter" stroke-miterlimit="10" stroke-dasharray="" stroke-dashoffset="0" style="mix-blend-mode: normal"><path d="M298.53921,181.60216c-1.06039,8.63248 -10.52774,16.90834 -27.04049,21.90883c-27.31169,8.27068 -63.55465,4.44916 -80.95092,-8.53559c-6.20506,-4.63152 -9.17418,-9.80326 -9.18695,-14.91592" fill="none" stroke="#00abff" stroke-width="5"/><path d="M182.2788,185.16802c0,0 3.48151,-2.91024 12.36287,-4.20808c0.58598,-0.08563 1.15383,-0.17302 1.70566,-0.26162c2.01691,0.10453 4.05219,0.33435 5.50313,0.83946c3.45354,0.59355 6.99238,0.54865 10.46625,1.1076c3.47942,0.11274 6.97161,0.28952 10.49167,0.28953c3.49369,0.00002 6.97266,0.25819 10.48223,0.2582c3.57609,-0.00277 6.84176,-0.45235 10.36837,-0.08608c0.42684,0.04198 0.8558,0.07498 1.28639,0.10056c-0.76177,0.13059 -1.48455,0.29305 -2.16235,0.4983c-6.16693,1.8675 -15.46733,1.64715 -20.61316,2.92984c-5.38717,1.34285 -6.6905,4.42774 -11.69074,7.18319c-5.90115,3.25191 -5.37515,8.38604 -5.37515,8.38604c0,0 -11.64811,-5.08474 -15.67444,-8.09003c-3.51137,-2.62092 -7.15072,-8.9469 -7.15072,-8.9469z" fill="#71d0ff" stroke="#00abff" stroke-width="5"/><path d="M288.84879,181.94038c0,0 0.85367,1.11713 -1.49606,1.52299c-2.34973,0.40586 -3.2034,-0.71127 -3.2034,-0.71127c-0.27957,-0.37008 -0.497,-0.74202 -0.67047,-1.11506c0.65926,0.0026 1.32172,0.00485 1.98955,0.00573c1.05501,0.0014 2.11003,0.00206 3.16505,0.00231c0.0675,0.09851 0.13916,0.19695 0.21533,0.2953z" fill="#a4e1ff" stroke="none" stroke-width="0.5"/><path d="M279.49336,182.8836c0,0 0.4639,1.16793 -1.99268,1.38848c-2.45658,0.22055 -2.92048,-0.94738 -2.92048,-0.94738c-0.21196,-0.53825 -0.40103,-1.07969 -0.55004,-1.62332c0.33474,-0.01234 0.66908,-0.02504 1.00298,-0.03804c1.35683,-0.02599 2.68913,-0.03576 4.01469,-0.03767c0.12582,0.42115 0.27822,0.84066 0.44553,1.25792z" fill="#a4e1ff" stroke="none" stroke-width="0.5"/><path d="M273.76399,180.435c-0.27963,-0.30866 -0.65665,-0.99877 0.93633,-1.48117c2.10859,-0.63853 3.45166,0.36395 3.45166,0.36395l0.57113,0.7178c0.03501,0.36423 0.10041,0.7278 0.18881,1.09033c-1.28556,0.00237 -2.57795,0.01239 -3.89331,0.03765c-0.37034,0.01447 -0.74122,0.02857 -1.1126,0.04221c-0.05797,-0.25653 -0.10591,-0.51349 -0.14203,-0.77076z" fill="#a4e1ff" stroke="none" stroke-width="0.5"/><path d="M266.42066,186.18283c-2.14427,-0.61109 -0.85893,-1.63054 -0.85893,-1.63054l1.06007,-0.83036c0.74075,-0.65098 0.93795,-1.25545 0.77882,-1.84142c1.74575,-0.02561 3.48822,-0.07167 5.22161,-0.12958c0.1557,0.42107 0.20669,0.84355 0.11563,1.25984c-0.13739,0.62814 -1.06874,1.15635 -1.60311,1.73453l-1.28448,1.02918c0,0 -1.28533,1.01945 -3.42961,0.40836z" fill="#a4e1ff" stroke="none" stroke-width="0.5"/><path d="M264.93995,179.2953c0,0 -1.34307,-1.00248 0.76552,-1.64102c2.10859,-0.63853 3.45166,0.36395 3.45166,0.36395c1.23982,0.93568 2.58962,2.07091 3.23687,3.24024c-1.73029,0.05686 -3.46945,0.10137 -5.21178,0.12518c-0.41744,-0.69508 -1.27355,-1.37493 -2.24228,-2.08835z" fill="#a4e1ff" stroke="none" stroke-width="0.5"/><path d="M213.85647,184.24931c2.49272,0.09066 2.30202,1.27577 2.30202,1.27577l-0.30751,0.26606c0.75139,0.89534 1.71117,1.7713 2.99789,2.51629c0,0 1.56771,0.92584 -0.37966,1.67117c-1.94738,0.74534 -3.51509,-0.1805 -3.51509,-0.1805c-0.29577,-0.17743 -0.57901,-0.35978 -0.85042,-0.54632c0.00564,0.03316 0.00598,0.05215 0.00598,0.05215c-0.09953,1.58129 1.33659,2.16532 3.10552,3.48567l0.62838,0.2343c0,0 1.81438,0.81769 0.09449,1.68029c-1.71989,0.86261 -3.53427,0.04492 -3.53427,0.04492l-1.40578,-0.68244c-2.33514,-1.74297 -3.73956,-2.6288 -3.88816,-4.74242c0,0 -0.02137,-1.18853 2.47854,-1.19869c0.4865,-0.00198 0.87913,0.04144 1.19601,0.11266c-0.58516,-0.50174 -1.10256,-1.02205 -1.5631,-1.54928l-0.04825,-1.34519c0,0 0.1907,-1.18511 2.68341,-1.09445z" fill="#a4e1ff" stroke="none" stroke-width="0.5"/><path d="M221.87862,198.12161c-0.5413,1.16037 -2.98199,0.90302 -2.98199,0.90302l-1.68834,-0.18161c-6.32694,-0.49298 -10.23959,-2.4529 -12.45474,-5.2677c0,0 -0.85367,-1.11713 1.49606,-1.52299c2.34973,-0.40586 3.2034,0.71127 3.2034,0.71127c1.40519,1.9125 4.10081,3.49687 8.46031,3.72603l2.06591,0.21425c0,0 2.44069,0.25735 1.89939,1.41773z" fill="#a4e1ff" stroke="none" stroke-width="0.5"/><path d="M199.87355,195.95957c-1.71989,0.86261 -3.53427,0.04492 -3.53427,0.04492l-1.40579,-0.68244c-2.45156,-1.84654 -3.1859,-3.33937 -3.91134,-5.51132c0,0 -0.3853,-1.17437 2.08483,-1.35755c2.47013,-0.18319 2.85543,0.99119 2.85543,0.99119c0.60432,1.87955 1.06489,3.03277 3.18827,4.60061l0.62838,0.2343c0,0 1.81438,0.81768 0.09449,1.68029z" fill="#a4e1ff" stroke="none" stroke-width="0.5"/><path d="M204.84941,182.35648c0,0 1.34307,1.00248 -0.76552,1.64102c-0.22765,0.06894 -0.44638,0.11875 -0.65546,0.15276c-0.14236,0.07295 -0.30646,0.13854 -0.49126,0.1945c-0.84157,0.25485 -1.88203,0.24043 -2.67435,0.00388c0.17635,0.14607 1.1392,1.03578 -0.79135,1.6204c-2.10859,0.63853 -3.45166,-0.36395 -3.45166,-0.36395c-2.23143,-1.67272 -3.54499,-3.1547 -4.39736,-4.99389c1.43438,-0.00008 3.32111,-0.00182 5.18444,0.11317c0.53357,0.96346 1.25642,1.81124 2.29281,2.70064c-0.03712,-0.25631 0.10164,-0.51346 0.39699,-0.73005c-0.6786,-0.61443 -1.26926,-1.25214 -1.80037,-1.89734l0.00783,-0.00805c1.54605,0.13058 3.0217,0.3567 4.14631,0.74821c0.78541,0.13499 1.57523,0.23695 2.36769,0.32051c0.20051,0.16898 0.41056,0.33524 0.63126,0.4982z" fill="#a4e1ff" stroke="none" stroke-width="0.5"/><path d="M191.28927,179.81342l-0.59185,-1.32982c0,0 -0.51718,-1.16286 1.92874,-1.40874c2.44592,-0.24588 2.9631,0.91698 2.9631,0.91698l0.60969,1.37179c0.10543,0.29619 0.22066,0.57886 0.34813,0.85112c-1.80375,-0.10235 -3.60487,-0.10353 -5.00062,-0.10355c-0.04705,0 -0.09407,-0.00007 -0.14106,-0.0002c-0.0398,-0.09809 -0.07849,-0.19726 -0.11613,-0.29758z" fill="#a4e1ff" stroke="none" stroke-width="0.5"/><path d="M202.70931,179.55591c0.58697,0.43812 0.51467,0.80673 0.24724,1.0829c0.19691,0.21686 0.40408,0.43172 0.6235,0.64354c-0.537,-0.06436 -1.07259,-0.13919 -1.60621,-0.22911c-1.06154,-0.35819 -2.40709,-0.58018 -3.82812,-0.71777l1.11193,-1.14349c0,0 2.10859,-0.63853 3.45166,0.36395z" fill="#a4e1ff" stroke="none" stroke-width="0.5"/><path d="M209.02788,182.6692c-2.31484,0.44891 -3.25905,-0.65163 -3.25905,-0.65163c-0.00476,-0.00555 -0.00953,-0.0111 -0.01431,-0.01665c1.42315,0.11793 2.85111,0.20707 4.27376,0.35123c-0.23374,0.12136 -0.55739,0.23114 -1.0004,0.31705z" fill="#a4e1ff" stroke="none" stroke-width="0.5"/><path d="M203.24892,186.24912c2.33104,-0.42953 3.23451,0.67871 3.23451,0.67871l0.66666,0.82149c0.29582,0.42133 0.59163,0.84266 0.88745,1.26399c0,0 0.79157,1.12742 -1.57981,1.50375c-2.37138,0.37633 -3.16294,-0.75109 -3.16294,-0.75109c-0.29582,-0.42133 -0.59163,-0.84266 -0.88745,-1.26399l-0.58599,-0.71509c0,0 -0.90347,-1.10824 1.42757,-1.53778z" fill="#a4e1ff" stroke="none" stroke-width="0.5"/><path d="M187.87456,181.10718c0.1249,1.49221 0.82791,2.45454 2.53495,3.70617c0,0 1.34307,1.00248 -0.76552,1.64102c-2.10859,0.63853 -3.45166,-0.36395 -3.45166,-0.36395c-2.12529,-1.60941 -3.09376,-2.96835 -3.31201,-4.86918l-0.29911,-0.69159c0,0 -0.06855,-0.17259 -0.0134,-0.39761c1.69628,0.11053 3.37535,0.25045 5.07362,0.35051z" fill="#a4e1ff" stroke="none" stroke-width="0.5"/><path d="M184.57389,179.14117c1.96506,-0.17642 2.65507,0.5356 2.85252,0.82759c-1.51593,-0.0928 -3.01761,-0.21503 -4.53215,-0.31648c0.28453,-0.22759 0.791,-0.43133 1.67963,-0.51111z" fill="#a4e1ff" stroke="none" stroke-width="0.5"/></g></g></svg>