<svg version="1.1" xmlns="http://www.w3.org/2000/svg" xmlns:xlink="http://www.w3.org/1999/xlink" width="59.98242" height="24.13916" viewBox="0,0,59.98242,24.13916"><defs><radialGradient cx="239.91515" cy="181.10305" r="29.95184" gradientUnits="userSpaceOnUse" id="color-1"><stop offset="0" stop-color="#56d4ff" stop-opacity="0"/><stop offset="1" stop-color="#56d4ff"/></radialGradient><radialGradient cx="239.99388" cy="181.35148" r="29.95184" gradientUnits="userSpaceOnUse" id="color-2"><stop offset="0" stop-color="#56d4ff"/><stop offset="1" stop-color="#56d4ff" stop-opacity="0"/></radialGradient><radialGradient cx="239.91515" cy="181.10305" r="29.95184" gradientUnits="userSpaceOnUse" id="color-3"><stop offset="0" stop-color="#56d4ff" stop-opacity="0"/><stop offset="1" stop-color="#56d4ff"/></radialGradient><radialGradient cx="239.99388" cy="181.35148" r="29.95184" gradientUnits="userSpaceOnUse" id="color-4"><stop offset="0" stop-color="#00fdff"/><stop offset="1" stop-color="#00fdff" stop-opacity="0"/></radialGradient></defs><g transform="translate(-209.9633,-169.15768)"><g data-paper-data="{&quot;isPaintingLayer&quot;:true}" fill-rule="nonzero" stroke="none" stroke-width="0" stroke-linecap="butt" stroke-linejoin="miter" stroke-miterlimit="10" stroke-dasharray="" stroke-dashoffset="0" style="mix-blend-mode: normal"><path d="" fill="#66baff"/><path d="M214.20577,190.84232c0,0 -4.24247,-7.97239 -4.24247,-11.74738c0,-3.41762 4.24247,-9.93726 4.24247,-9.93726c0,0 16.26447,1.52729 24.77603,1.52729c8.68124,0 26.81242,-1.52729 26.81242,-1.52729c0,0 4.07277,7.03784 4.07277,10.27666c0,3.87477 -4.07277,11.40798 -4.07277,11.40798c0,0 -18.43528,2.20609 -27.32151,2.20609c-8.26482,0 -24.26694,-2.20609 -24.26694,-2.20609z" fill="url(#color-1)"/><path d="" fill="#66baff"/><path d="M214.2845,191.09075c0,0 -4.24247,-7.97239 -4.24247,-11.74738c0,-3.41762 4.24247,-9.93726 4.24247,-9.93726c0,0 16.26447,1.52729 24.77603,1.52729c8.68124,0 26.81242,-1.52729 26.81242,-1.52729c0,0 4.07277,7.03784 4.07277,10.27666c0,3.87477 -4.07277,11.40798 -4.07277,11.40798c0,0 -18.43528,2.20609 -27.32151,2.20609c-8.26482,0 -24.26694,-2.20609 -24.26694,-2.20609z" data-paper-data="{&quot;index&quot;:null}" fill="url(#color-2)"/><path d="" data-paper-data="{&quot;index&quot;:null}" fill="#66baff"/><path d="M214.20577,190.84232c0,0 -4.24247,-7.97239 -4.24247,-11.74738c0,-3.41762 4.24247,-9.93726 4.24247,-9.93726c0,0 16.26447,1.52729 24.77603,1.52729c8.68124,0 26.81242,-1.52729 26.81242,-1.52729c0,0 4.07277,7.03784 4.07277,10.27666c0,3.87477 -4.07277,11.40798 -4.07277,11.40798c0,0 -18.43528,2.20609 -27.32151,2.20609c-8.26482,0 -24.26694,-2.20609 -24.26694,-2.20609z" data-paper-data="{&quot;index&quot;:null}" fill="url(#color-3)"/><path d="" data-paper-data="{&quot;index&quot;:null}" fill="#66baff"/><path d="M214.2845,191.09075c0,0 -4.24247,-7.97239 -4.24247,-11.74738c0,-3.41762 4.24247,-9.93726 4.24247,-9.93726c0,0 16.26447,1.52729 24.77603,1.52729c8.68124,0 26.81242,-1.52729 26.81242,-1.52729c0,0 4.07277,7.03784 4.07277,10.27666c0,3.87477 -4.07277,11.40798 -4.07277,11.40798c0,0 -18.43528,2.20609 -27.32151,2.20609c-8.26482,0 -24.26694,-2.20609 -24.26694,-2.20609z" data-paper-data="{&quot;index&quot;:null}" fill="url(#color-4)"/></g></g></svg>