<svg version="1.1" xmlns="http://www.w3.org/2000/svg" xmlns:xlink="http://www.w3.org/1999/xlink" width="84.93958" height="101.02639" viewBox="0,0,84.93958,101.02639"><g transform="translate(-213.63939,-128.82236)"><g data-paper-data="{&quot;isPaintingLayer&quot;:true}" fill="#b1b1b1" fill-rule="nonzero" stroke="#000000" stroke-width="1.5" stroke-linecap="butt" stroke-linejoin="miter" stroke-miterlimit="10" stroke-dasharray="" stroke-dashoffset="0" style="mix-blend-mode: normal"><path d="M228.12855,194.67635l-13.50673,-32.05987l13.85389,-5.83198l13.50671,32.05987z" data-paper-data="{&quot;index&quot;:null}"/><path d="M232.01668,225.76141l5.8732,-36.29013l18.00864,2.91452l-5.8732,36.29013z"/><path d="M222.976,226.03464l5.95261,-36.78084l18.25215,2.95393l-5.95261,36.78084z"/><path d="M228.12174,192.7291l5.75407,-35.55408l28.36184,4.59009l-5.75408,35.55409c0,0 -7.33673,-1.18738 -11.54613,-1.86863c-5.07995,-0.82214 -16.81571,-2.72146 -16.81571,-2.72146z"/><path d="M266.94601,147.63144c-1.35966,8.40122 -9.7118,14.03845 -18.65505,12.59106c-8.94325,-1.44737 -15.09096,-9.43125 -13.7313,-17.83248c1.35966,-8.40122 9.7118,-14.03844 18.65505,-12.59105c8.94325,1.44737 15.09096,9.43124 13.7313,17.83248z" data-paper-data="{&quot;index&quot;:null}"/><path d="M297.52252,153.93611l-26.72981,22.26621l-9.62392,-11.54654l26.72982,-22.2662z" data-paper-data="{&quot;index&quot;:null}"/></g></g></svg>