<svg version="1.1" xmlns="http://www.w3.org/2000/svg" xmlns:xlink="http://www.w3.org/1999/xlink" width="80.33325" height="100.88614" viewBox="0,0,80.33325,100.88614"><g transform="translate(-201.18897,-130.23423)"><g data-paper-data="{&quot;isPaintingLayer&quot;:true}" fill="#b1b1b1" fill-rule="nonzero" stroke="#000000" stroke-width="1.5" stroke-linecap="butt" stroke-linejoin="miter" stroke-miterlimit="10" stroke-dasharray="" stroke-dashoffset="0" style="mix-blend-mode: normal"><path d="M202.24871,181.59l25.51508,-23.64843l10.21475,11.02731l-25.51508,23.64841z" data-paper-data="{&quot;index&quot;:null}"/><path d="M207.14274,218.30185l22.63534,-28.96739l14.37481,11.23258l-22.63535,28.96738z"/><path d="M258.0339,230.09187l-19.10951,-31.98577l15.87265,-9.48292l19.10951,31.98577z"/><path d="M226.27947,195.81146l2.82516,-35.90572l28.64235,2.25366l-2.82516,35.90572c0,0 -7.4093,-0.58298 -11.66032,-0.91746c-5.13019,-0.40365 -16.98202,-1.33619 -16.98202,-1.33619z"/><path d="M261.28289,147.68783c-0.66757,8.48432 -8.53037,14.78614 -17.56207,14.07549c-9.0317,-0.71064 -15.81216,-8.16462 -15.14459,-16.64894c0.66757,-8.48432 8.53037,-14.78613 17.56207,-14.07549c9.0317,0.71064 15.81216,8.16462 15.14459,16.64894z" data-paper-data="{&quot;index&quot;:null}"/><path d="M268.94594,194.80194l-22.34006,-26.66813l11.51987,-9.65582l22.34006,26.66813z" data-paper-data="{&quot;index&quot;:null}"/></g></g></svg>