<svg version="1.1" xmlns="http://www.w3.org/2000/svg" xmlns:xlink="http://www.w3.org/1999/xlink" width="88.08555" height="100.788" viewBox="0,0,88.08555,100.788"><g transform="translate(-198.2797,-130.23421)"><g data-paper-data="{&quot;isPaintingLayer&quot;:true}" fill="#b1b1b1" fill-rule="nonzero" stroke="#000000" stroke-width="1.5" stroke-linecap="butt" stroke-linejoin="miter" stroke-miterlimit="10" stroke-dasharray="" stroke-dashoffset="0" style="mix-blend-mode: normal"><path d="M276.65001,190.86937l-28.42459,-20.05766l8.66988,-12.27906l28.42457,20.05767z" data-paper-data="{&quot;index&quot;:null}"/><path d="M259.35934,229.96576l-23.57797,-28.20545l13.9967,-11.70035l23.57796,28.20546z"/><path d="M206.16443,216.46132l25.17228,-27.47034l13.6319,12.49151l-25.17228,27.47034z"/><path d="M226.27947,195.81144l2.82516,-35.90572l28.64235,2.25366l-2.82516,35.90572c0,0 -7.4093,-0.58298 -11.66032,-0.91746c-5.13019,-0.40365 -16.98202,-1.33619 -16.98202,-1.33619z"/><path d="M261.28289,147.68781c-0.66757,8.48432 -8.53037,14.78614 -17.56207,14.07549c-9.0317,-0.71064 -15.81216,-8.16462 -15.14459,-16.64894c0.66757,-8.48432 8.53037,-14.78613 17.56207,-14.07549c9.0317,0.71064 15.81216,8.16462 15.14459,16.64894z" data-paper-data="{&quot;index&quot;:null}"/><path d="M199.33317,179.77213l27.32089,-21.53685l9.30885,11.80201l-27.32089,21.53685z" data-paper-data="{&quot;index&quot;:null}"/></g></g></svg>