<svg version="1.1" xmlns="http://www.w3.org/2000/svg" xmlns:xlink="http://www.w3.org/1999/xlink" width="68.51803" height="102.24286" viewBox="0,0,68.51803,102.24286"><g transform="translate(-207.80921,-129.0126)"><g data-paper-data="{&quot;isPaintingLayer&quot;:true}" fill="#b1b1b1" fill-rule="nonzero" stroke="#000000" stroke-width="1.5" stroke-linecap="butt" stroke-linejoin="miter" stroke-miterlimit="10" stroke-dasharray="" stroke-dashoffset="0" style="mix-blend-mode: normal"><path d="M250.72576,182.20057l-30.4618,16.80315l-7.25647,-13.16381l30.4618,-16.80312z" data-paper-data="{&quot;index&quot;:null}"/><path d="M240.18093,226.55677l-0.60705,-36.75732l18.24048,-0.30125l0.60705,36.75732z"/><path d="M208.81655,221.92428l16.77384,-33.27013l16.51001,8.32385l-16.77384,33.27013z"/><path d="M224.38666,193.12439l5.42359,-35.60599l28.40326,4.32645l-5.42359,35.606c0,0 -7.34744,-1.11918 -11.56298,-1.76131c-5.08735,-0.77492 -16.84026,-2.56516 -16.84026,-2.56516z"/><path d="M262.79039,147.66806c-1.28157,8.41349 -9.581,14.12804 -18.5373,12.76378c-8.95631,-1.36425 -15.17791,-9.29068 -13.89633,-17.70416c1.28157,-8.41349 9.581,-14.12803 18.5373,-12.76377c8.95631,1.36425 15.17791,9.29067 13.89633,17.70416z" data-paper-data="{&quot;index&quot;:null}"/><path d="M275.53542,177.96001l-34.73213,1.98644l-0.86254,-15.00661l34.73213,-1.98643z" data-paper-data="{&quot;index&quot;:null}"/></g></g></svg>