<svg version="1.1" xmlns="http://www.w3.org/2000/svg" xmlns:xlink="http://www.w3.org/1999/xlink" width="86.33333" height="18.66667" viewBox="0,0,86.33333,18.66667"><defs><radialGradient cx="240" cy="180" r="43.16667" gradientUnits="userSpaceOnUse" id="color-1"><stop offset="0" stop-color="#58ffff"/><stop offset="1" stop-color="#58ffff" stop-opacity="0"/></radialGradient><linearGradient x1="279.44934" y1="179.60217" x2="200.55065" y2="180.39784" gradientUnits="userSpaceOnUse" id="color-2"><stop offset="0" stop-color="#00caf0" stop-opacity="0"/><stop offset="1" stop-color="#00caf0"/></linearGradient></defs><g transform="translate(-196.83333,-170.66667)"><g data-paper-data="{&quot;isPaintingLayer&quot;:true}" fill-rule="nonzero" stroke="none" stroke-width="0" stroke-linecap="butt" stroke-linejoin="miter" stroke-miterlimit="10" stroke-dasharray="" stroke-dashoffset="0" style="mix-blend-mode: normal"><path d="M283.16667,180c0,5.15466 -19.32637,9.33333 -43.16667,9.33333c-23.84029,0 -43.16667,-4.17868 -43.16667,-9.33333c0,-5.15466 19.32637,-9.33333 43.16667,-9.33333c23.84029,0 43.16667,4.17868 43.16667,9.33333z" fill="url(#color-1)"/><path d="M239.97749,177.7679c21.78728,-0.21972 39.45942,0.60151 39.47186,1.83426c0.01243,1.23276 -17.63954,2.41022 -39.42684,2.62994c-21.78728,0.21972 -39.45942,-0.60151 -39.47186,-1.83426c-0.01243,-1.23276 17.63954,-2.41022 39.42684,-2.62994z" data-paper-data="{&quot;index&quot;:null}" fill="url(#color-2)"/></g></g></svg>