<svg version="1.1" xmlns="http://www.w3.org/2000/svg" xmlns:xlink="http://www.w3.org/1999/xlink" width="58.23486" height="90.60776" viewBox="0,0,58.23486,90.60776"><g transform="translate(-208.55456,-134.31667)"><g data-paper-data="{&quot;isPaintingLayer&quot;:true}" fill-rule="nonzero" stroke-linejoin="miter" stroke-miterlimit="10" stroke-dasharray="" stroke-dashoffset="0" style="mix-blend-mode: normal"><g><g><path d="M227.21286,136.25964c-3.90078,-0.28591 -0.16725,-0.20992 3.99563,0.42426c2.47812,0.37752 5.10839,1.28984 6.37092,1.90337c16.45463,7.99615 27.31054,23.72234 27.31054,41.81482" data-paper-data="{&quot;index&quot;:null}" fill="none" stroke="#00f5ff" stroke-width="3.5" stroke-linecap="butt"/><path d="M225.81111,134.56667l-6,0.10286l-3.6,0.51429l-3.9,1.64571l-2.5,1.33714l6.6,-0.72h6.8l6.4,0.52484" fill="#00f5ff" stroke="#00f5ff" stroke-width="0.5" stroke-linecap="round"/></g><g data-paper-data="{&quot;index&quot;:null}" stroke="#00f5ff"><path d="M265.03942,176.17234c0,18.09248 -8.52258,36.48534 -24.97721,44.48149c-1.26253,0.61353 -3.8928,1.52585 -6.37092,1.90337c-4.16288,0.63417 -7.89641,0.71016 -3.99563,0.42425" data-paper-data="{&quot;index&quot;:null}" fill="none" stroke-width="3.5" stroke-linecap="butt"/><path d="M228.29391,224.67443l-6,-0.10286l-3.6,-0.51429l-3.9,-1.64571l-2.5,-1.33714l6.6,0.72h6.8l6.4,-0.52483" fill="#00f5ff" stroke-width="0.5" stroke-linecap="round"/></g></g></g></g></svg>