<svg version="1.1" xmlns="http://www.w3.org/2000/svg" xmlns:xlink="http://www.w3.org/1999/xlink" width="101.78877" height="77.09846" viewBox="0,0,101.78877,77.09846"><g transform="translate(-184.5475,-140.49375)"><g data-paper-data="{&quot;isPaintingLayer&quot;:true}" fill="#b1b1b1" fill-rule="nonzero" stroke="#000000" stroke-width="1.5" stroke-linecap="butt" stroke-linejoin="miter" stroke-miterlimit="10" stroke-dasharray="" stroke-dashoffset="0" style="mix-blend-mode: normal"><path d="M185.6015,183.2067l29.12976,-23.2319l11.52863,14.45537l-29.12976,23.2319z"/><path d="M274.64257,160.47034l-34.70133,2.46667l-1.07003,-14.99323l34.70134,-2.46665z" data-paper-data="{&quot;index&quot;:null}"/><path d="M216.0747,170.22342l32.2596,-15.96471l12.08519,25.01045l-32.25962,15.96472c0,0 -3.12623,-6.46978 -4.9199,-10.18178c-2.16459,-4.47966 -7.16529,-14.82868 -7.16529,-14.82868z"/><path d="M197.82839,205.93945l21.7313,-29.47872l14.69615,10.61003l-21.73133,29.47869z"/><path d="M271.10646,172.19997c-7.64502,3.7394 -17.06947,0.17342 -21.05011,-7.96483c-3.98064,-8.13826 -1.01007,-17.76696 6.63496,-21.50636c7.64502,-3.7394 17.06945,-0.17341 21.05011,7.96484c3.98064,8.13826 1.01009,17.76696 -6.63496,21.50636z" data-paper-data="{&quot;index&quot;:null}"/><path d="M249.83938,168.92005l34.71331,-2.29192l0.98601,14.99898l-34.71331,2.2919z" data-paper-data="{&quot;index&quot;:null}"/></g></g></svg>