<svg version="1.1" xmlns="http://www.w3.org/2000/svg" xmlns:xlink="http://www.w3.org/1999/xlink" width="74.52013" height="101.24416" viewBox="0,0,74.52013,101.24416"><g transform="translate(-202.40912,-132.75108)"><g data-paper-data="{&quot;isPaintingLayer&quot;:true}" fill="#b1b1b1" fill-rule="nonzero" stroke="#000000" stroke-width="1.5" stroke-linecap="butt" stroke-linejoin="miter" stroke-miterlimit="10" stroke-dasharray="" stroke-dashoffset="0" style="mix-blend-mode: normal"><path d="M215.69505,190.82672l-12.31902,-32.53473l14.05591,-5.32672l12.31901,32.53474z" data-paper-data="{&quot;index&quot;:null}"/><path d="M230.33202,227.98841l-9.50277,-36.02723l17.87818,-4.71567l9.50278,36.02724z"/><path d="M239.27182,186.42526l27.27894,-21.58997l9.32511,11.78916l-27.27894,21.58993z" data-paper-data="{&quot;index&quot;:null}"/><path d="M245.41087,233.16753l-4.03061,-36.54069l18.13298,-2.00015l4.03062,36.5407z"/><path d="M228.67732,200.06148l-5.72076,-35.55945l28.36613,-4.56352l5.72077,35.55947c0,0 -7.33785,1.1805 -11.54787,1.8578c-5.08071,0.81737 -16.81825,2.7057 -16.81825,2.7057z"/><path d="M255.01554,148.91077c0,8.51054 -7.34426,15.4097 -16.40387,15.4097c-9.05961,0 -16.40387,-6.89916 -16.40387,-15.4097c0,-8.51054 7.34426,-15.40969 16.40387,-15.40969c9.05961,0 16.40387,6.89915 16.40387,15.4097z" data-paper-data="{&quot;index&quot;:null}"/></g></g></svg>