<svg version="1.1" xmlns="http://www.w3.org/2000/svg" xmlns:xlink="http://www.w3.org/1999/xlink" width="96.0818" height="64.40828" viewBox="0,0,96.0818,64.40828"><g transform="translate(-190.21438,-139.36768)"><g data-paper-data="{&quot;isPaintingLayer&quot;:true}" fill="#b1b1b1" fill-rule="nonzero" stroke="#000000" stroke-width="1.5" stroke-linecap="butt" stroke-linejoin="miter" stroke-miterlimit="10" stroke-dasharray="" stroke-dashoffset="0" style="mix-blend-mode: normal"><path d="M201.30612,140.26957l36.26823,8.53695l-4.23637,17.99778l-36.26823,-8.53695z"/><path d="M285.20055,176.51534l-34.78603,0.44589l-0.19691,-15.03008l34.78604,-0.44587z" data-paper-data="{&quot;index&quot;:null}"/><path d="M230.34876,156.19774l32.49049,15.48941l-12.18927,24.95989l-32.49051,-15.48942c0,0 3.15316,-6.4567 4.96226,-10.1612c2.18324,-4.4706 7.22701,-14.79869 7.22701,-14.79869z"/><path d="M190.99485,163.93289l36.60525,-1.14014l0.7443,18.11065l-36.60525,1.14011z"/><path d="M262.81294,200.67783c-7.66516,-3.69794 -10.68781,-13.31044 -6.75128,-21.47012c3.93653,-8.15968 13.34153,-11.77662 21.00669,-8.07867c7.66516,3.69794 10.68779,13.31042 6.75127,21.47011c-3.93653,8.15968 -13.34152,11.77663 -21.00669,8.07867z" data-paper-data="{&quot;index&quot;:null}"/><path d="M242.78385,188.0125l34.55831,-3.99881l1.72354,14.93222l-34.5583,3.9988z" data-paper-data="{&quot;index&quot;:null}"/></g></g></svg>