<svg version="1.1" xmlns="http://www.w3.org/2000/svg" xmlns:xlink="http://www.w3.org/1999/xlink" width="122.2541" height="33.74431" viewBox="0,0,122.2541,33.74431"><g transform="translate(-178.89362,-152.33189)"><g data-paper-data="{&quot;isPaintingLayer&quot;:true}" fill-rule="nonzero" stroke-linecap="butt" stroke-linejoin="miter" stroke-miterlimit="10" stroke-dasharray="" stroke-dashoffset="0" style="mix-blend-mode: normal"><path d="M181.39362,179.05549c0.22976,-2.61416 1.42099,-5.25734 3.66626,-7.84263c11.30866,-13.02123 45.07366,-19.64289 75.41625,-14.78989c25.25975,4.04005 40.18464,14.75879 37.95173,25.74896" fill="none" stroke="#00abff" stroke-width="5"/><path d="M230.75082,178.42952c1.98186,-2.282 11.57822,-3.33903 12.55049,-6.70112c0.56106,-1.9401 -7.22284,-6.14611 -6.90729,-7.94027c0.74016,-4.20851 0.89615,-7.50659 0.89615,-7.50659c0,0 16.97838,-0.08642 23.47571,0.95276c6.76263,1.08162 16.33598,5.41473 16.33598,5.41473c0,0 -6.61496,3.33955 -13.79956,7.55822c-1.97291,1.15846 -0.99778,3.95124 -2.93142,5.19134c-4.40943,2.82788 -11.38227,4.16752 -13.45211,6.55082c-0.47046,0.5417 -1.11564,1.05987 -1.87071,1.55889c-2.17682,-0.19444 -4.35376,-0.4808 -6.52473,-0.65191c-3.49697,-0.27561 -6.92573,-0.82456 -10.3927,-1.33399c-0.52286,-0.07682 -1.02834,-0.16325 -1.52129,-0.2594c1.70965,-0.8144 3.18778,-1.73537 4.14147,-2.83348z" fill="#71d0ff" stroke="#00abff" stroke-width="5"/><path d="M227.51663,160.31995c-1.39877,-0.88921 0.67328,-1.48948 0.67328,-1.48948l2.9641,-0.82052c5.96538,-0.32542 10.51968,0.09719 16.37441,0.4987c0,0 2.46832,0.17024 2.07162,1.2295c-0.39671,1.05926 -2.86503,0.88901 -2.86503,0.88901c-4.89045,-0.33909 -8.89899,-0.76451 -13.86488,-0.60185l-1.88266,0.58357c0,0 -2.07206,0.60027 -3.47084,-0.28893z" fill="#a4e1ff" stroke="none" stroke-width="0.5"/><path d="M222.87025,162.39349c-0.57299,-1.04429 1.86047,-1.29019 1.86047,-1.29019l1.36167,-0.13498c5.672,-0.3798 11.45246,0.19391 17.01234,0.71365c0,0 2.44251,0.22874 1.90951,1.27692c-0.53302,1.04818 -2.97553,0.81945 -2.97553,0.81945c-4.83144,-0.45331 -10.19968,-1.06106 -15.13791,-0.69254l-1.0241,0.1061c0,0 -2.43346,0.24589 -3.00644,-0.7984z" fill="#a4e1ff" stroke="none" stroke-width="0.5"/><path d="M234.51382,165.17731c0.87308,-1.0053 3.21567,-0.63063 3.21567,-0.63063l2.54795,0.40752c3.399,0.54364 6.65881,1.08734 9.94612,1.7504c0,0 2.26199,0.45686 1.19738,1.42758c-1.0646,0.97071 -3.3266,0.51385 -3.3266,0.51385c-3.16141,-0.63942 -6.29223,-1.15809 -9.56307,-1.68123l-2.54795,-0.40752c0,0 -2.34259,-0.37467 -1.46951,-1.37997z" fill="#a4e1ff" stroke="none" stroke-width="0.5"/><path d="M264.14869,163.72421c1.41518,-0.88441 3.47607,-0.2771 3.47607,-0.2771l2.31055,0.68088c4.43756,1.33188 6.88944,3.36258 11.50387,4.63496c0,0 2.09741,0.58383 0.73694,1.48391c-1.36047,0.90008 -3.45787,0.31625 -3.45787,0.31625c-4.63727,-1.30124 -7.15615,-3.38409 -11.61329,-4.6663l-2.31055,-0.68088c0,0 -2.0609,-0.60731 -0.64572,-1.49172z" fill="#a4e1ff" stroke="none" stroke-width="0.5"/><path d="M267.49372,171.58032c-0.61443,-0.14999 -1.79015,-0.54955 -1.13056,-1.30902c0.87308,-1.0053 3.21567,-0.63063 3.21567,-0.63063l1.36571,0.36928c1.28548,0.66492 2.73236,1.2724 4.22513,1.85211c0,0 1.85078,0.72124 0.17014,1.51548c-1.68065,0.79425 -3.53144,0.07301 -3.53144,0.07301c-1.51083,-0.59061 -2.97686,-1.20709 -4.31464,-1.87024z" fill="#a4e1ff" stroke="none" stroke-width="0.5"/><path d="M259.09019,165.99479c-0.87308,1.0053 -3.21567,0.63063 -3.21567,0.63063l-1.68421,-0.42023c-0.81085,-0.453 -1.99039,-0.8147 -3.25538,-0.99247c0,0 -2.34259,-0.37467 -1.46951,-1.37997c0.87308,-1.0053 3.21567,-0.63063 3.21567,-0.63063c2.0293,0.34951 3.90853,0.92347 5.34981,1.62916l-0.41023,-0.21647c0,0 2.34259,0.37467 1.46951,1.37997z" fill="#a4e1ff" stroke="none" stroke-width="0.5"/><path d="M268.92072,177.61964c-2.48573,0.11446 -2.75246,-0.95226 -2.75246,-0.95226l-0.20678,-0.87227c-0.58265,-1.64327 -3.48509,-2.2089 -6.9538,-2.75336c0,0 -2.34259,-0.37467 -1.46951,-1.37997c0.87308,-1.0053 3.21567,-0.63063 3.21567,-0.63063c3.25914,0.52923 7.28299,1.31718 9.18644,2.66982c0.68668,0.48797 0.61312,1.10932 0.91968,1.66397l0.27976,1.07351c0,0 0.26673,1.06673 -2.219,1.18119z" fill="#a4e1ff" stroke="none" stroke-width="0.5"/><path d="M228.80439,169.24538c0.87308,-1.0053 3.21567,-0.63063 3.21567,-0.63063l-0.27573,-0.00992c5.28943,0.25914 10.42383,1.01275 15.40124,1.80644c0,0 2.34259,0.37467 1.46951,1.37997c-0.87308,1.0053 -3.21567,0.63063 -3.21567,0.63063c-4.57435,-0.734 -9.34421,-1.45474 -14.21279,-1.68473l-0.91272,-0.1118c0,0 -2.34259,-0.37467 -1.46951,-1.37997z" fill="#a4e1ff" stroke="none" stroke-width="0.5"/></g></g></svg>