<svg version="1.1" xmlns="http://www.w3.org/2000/svg" xmlns:xlink="http://www.w3.org/1999/xlink" width="67.71793" height="98.52588" viewBox="0,0,67.71793,98.52588"><g transform="translate(-211.25899,-130.46566)"><g data-paper-data="{&quot;isPaintingLayer&quot;:true}" fill="#b1b1b1" fill-rule="nonzero" stroke="#000000" stroke-width="1.5" stroke-linecap="butt" stroke-linejoin="miter" stroke-miterlimit="10" stroke-dasharray="" stroke-dashoffset="0" style="mix-blend-mode: normal"><path d="M278.00211,161.42762l-32.29771,12.92767l-5.58176,-13.95658l32.2977,-12.92767z" data-paper-data="{&quot;index&quot;:null}"/><path d="M216.75005,224.9633l4.45227,-36.49172l18.10868,2.20939l-4.45227,36.49172z"/><path d="M237.67645,228.19005l-2.65271,-37.16486l18.44273,-1.31638l2.65271,37.16486z"/><path d="M220.56097,194.79951l2.94617,-35.896l28.63459,2.35019l-2.94616,35.89601c0,0 -7.4073,-0.60796 -11.65716,-0.95675c-5.1288,-0.42094 -16.97742,-1.39342 -16.97742,-1.39342z"/><path d="M253.50189,144.24594c1.15987,8.43113 -5.1756,16.26684 -14.15068,17.50155c-8.97508,1.2347 -17.19108,-4.59916 -18.35095,-13.03029c-1.15987,-8.43113 5.1756,-16.26683 14.15068,-17.50154c8.97508,-1.2347 17.19107,4.59915 18.35095,13.03029z" data-paper-data="{&quot;index&quot;:null}"/><path d="M244.76556,193.4529l-32.53997,-12.30515l5.31276,-14.06119l32.53998,12.30517z" data-paper-data="{&quot;index&quot;:null}"/></g></g></svg>