<svg version="1.1" xmlns="http://www.w3.org/2000/svg" xmlns:xlink="http://www.w3.org/1999/xlink" width="88.6065" height="108.9248" viewBox="0,0,88.6065,108.9248"><g transform="translate(-200.82103,-125.17933)"><g data-paper-data="{&quot;isPaintingLayer&quot;:true}" fill-rule="nonzero" stroke-linejoin="miter" stroke-miterlimit="10" stroke-dasharray="" stroke-dashoffset="0" style="mix-blend-mode: normal"><path d="M261.45272,200.85915l-14.36409,-31.68501l13.69202,-6.20246l14.36408,31.685z" data-paper-data="{&quot;index&quot;:null}" fill="#b1b1b1" stroke="#000000" stroke-width="1.5" stroke-linecap="butt"/><path d="M246.92783,229.19065l-4.55982,-36.47844l18.10208,-2.26277l4.55982,36.47844z" fill="#9b6a16" stroke="#000000" stroke-width="1.5" stroke-linecap="butt"/><path d="M218.55146,228.97721l8.51477,-36.27344l18.00036,4.22538l-8.51477,36.27344z" fill="#9b6a16" stroke="#000000" stroke-width="1.5" stroke-linecap="butt"/><g stroke="#000000" stroke-linecap="butt"><path d="M223.66273,193.53716l6.06926,-35.50163l28.32001,4.84151l-6.06926,35.50164c0,0 -7.32592,-1.25242 -11.5291,-1.97098c-5.07245,-0.86717 -16.79091,-2.87053 -16.79091,-2.87053z" fill="#9b6a16" stroke-width="1.5"/><path d="M241.22082,167.13664c0.25094,1.4301 0.14904,2.74227 -0.62986,3.97255c-0.43959,0.69432 -1.9821,0.73539 -1.91365,1.55431c0.24952,2.98524 -2.56925,3.95423 -5.02911,2.30956c-1.12007,-0.74888 -0.15799,-3.20958 -0.33527,-3.41393c-1.20528,-1.38934 -2.91545,-1.50896 -2.88035,-3.93097c0.01791,-1.23583 2.19624,-4.04657 3.6934,-3.34982c0.20612,-0.01721 0.41775,-0.00893 0.63108,0.02754c0.50627,0.08655 0.9508,0.31968 1.29746,0.64842c2.16977,0.6334 4.74142,-0.239 5.1663,2.18233z" fill="#b1b1b1" stroke-width="1"/><path d="M250.05649,192.53491c-0.51663,0.42887 -7.03559,2.22279 -7.17669,2.19867c-3.70739,-0.63381 -5.41347,-6.60227 -2.2676,-8.73056c2.42602,-1.6413 5.02791,0.07189 7.42712,0.00452c0.17816,-0.00852 0.35999,0.00202 0.54306,0.03332c1.29128,0.22075 2.18079,1.39503 2.06978,2.67713c0.43733,1.41553 0.37663,3.0098 -0.59567,3.81694z" fill="#b1b1b1" stroke-width="1"/></g><g><path d="M235.60121,155.98661l-11.95953,-9.03431l9.82687,2.67716l-12.90636,-9.12204l10.80698,3.43646l-13.15442,-10.05224l8.94658,3.93256l1.06179,-1.66831l-6.17262,-5.0125l9.44722,3.16722l2.31114,-2.26878l2.99934,-1.96628l4.97015,-1.59269l6.65511,-0.19512l5.30139,1.01642l3.62704,-1.52614l3.5393,-0.5793l7.17844,0.8561l6.05615,2.66204l-3.46217,0.77743l-2.83446,1.21758l-2.50928,2.34593l2.84052,0.26318l4.78411,1.44597l4.67975,2.05703l4.88394,3.46065l1.90578,3.13698l-3.30336,-1.45203l-5.49954,-0.93927l-4.64042,0.09529l-3.34117,0.50216l-4.35909,1.69705l3.09917,0.0484l2.44424,0.41746l5.81414,3.2126l3.25495,4.55118l-1.83318,-0.31309l-5.20762,-0.48249l-3.3578,0.16637l-3.44554,1.11322l-3.59376,2.19769l2.15232,-0.03933l2.61516,1.14952l2.3187,3.31848l-1.65168,-0.72601l-3.58922,-0.42804l-3.8645,-0.54904l-3.28067,0.36451z" fill="#000000" stroke="#000000" stroke-width="4" stroke-linecap="round"/><path d="M261.90078,154.67579c-3.42465,7.79109 -12.92429,11.15167 -21.21803,7.50607c-8.29374,-3.6456 -12.24091,-12.91687 -8.81626,-20.70796c3.42465,-7.79109 12.92428,-11.15166 21.21802,-7.50606c8.29374,3.6456 12.24091,12.91686 8.81626,20.70796z" data-paper-data="{&quot;index&quot;:null}" fill="#b1b1b1" stroke="#000000" stroke-width="1.5" stroke-linecap="butt"/><path d="M248.01387,138.43207c0.06341,-0.00314 0.12524,-0.00526 0.18552,-0.00633c0.3322,-0.03459 0.67596,0.00329 1.00768,0.12282c0.11329,0.03743 0.21703,0.08368 0.31203,0.13916c1.04007,0.55915 1.49164,1.83341 1.0083,2.93302c0.03488,0.70468 -0.49135,0.99574 -1.11549,1.14688c-0.39017,0.18437 -0.83081,0.25822 -1.27014,0.2014c-0.21079,0.0342 -0.38837,0.07557 -0.50536,0.14029c-0.12628,0.06986 -0.26628,0.14998 -0.41826,0.23827c0.79524,1.84276 1.03777,3.52998 -0.01791,4.20464c-0.64723,0.41364 -1.55138,0.27923 -2.30153,0.11404c-0.14618,-0.03218 -0.84777,-0.95696 -1.68822,-2.1347c-2.03617,0.92239 -4.13138,1.44076 -5.1637,0.19761c-1.08746,-1.30955 -0.53539,-2.33909 0.29834,-3.21991c0.14795,-0.15631 0.95482,-0.57409 2.04031,-1.08397c-0.29933,-0.44926 -0.51514,-0.77997 -0.59712,-0.91492c-0.08773,-0.10125 -0.16596,-0.20959 -0.23411,-0.32355c-0.3672,-0.61403 -0.44151,-1.39062 -0.13169,-2.09547c0.45187,-1.02801 1.56872,-1.55721 2.62347,-1.30453c0.09265,0.00944 0.18552,0.03107 0.27862,0.0669c0.08832,0.03399 0.18555,0.08535 0.29033,0.15254c0.24021,0.13131 0.4486,0.30095 0.62086,0.49777c0.5089,0.47326 1.10019,1.15529 1.6875,1.94681c1.43233,-0.57595 2.59793,-0.9874 2.84689,-0.94488z" fill="#000000" stroke="none" stroke-width="0.5" stroke-linecap="butt"/><path d="M257.56674,143.56373c0.16239,0.1258 0.55683,1.05053 0.99936,2.22554c0.79727,-0.08334 1.53112,-0.10408 2.09457,-0.05939c0.21268,-0.00501 0.42892,0.02659 0.6397,0.09831c0.09789,0.02583 0.18213,0.05585 0.25107,0.09009c0.07267,0.03608 0.1367,0.07984 0.19331,0.13016c0.73144,0.49309 1.02851,1.45334 0.661,2.28944c-0.25198,0.57325 -0.7582,0.95581 -1.32808,1.07343c-0.10575,0.02183 -0.2137,0.03453 -0.32262,0.03764c-0.12595,0.02508 -0.44278,0.07764 -0.8766,0.14532c0.2914,0.93084 0.48478,1.64409 0.47247,1.81871c-0.06934,0.98397 -0.38265,1.88094 -1.76538,1.94946c-1.31263,0.06504 -2.15419,-1.47552 -2.7212,-3.2029c-1.16789,0.14404 -2.10788,0.2322 -2.20755,0.1623c-0.51151,-0.35866 -1.08926,-0.82654 -1.19732,-1.44185c-0.17626,-1.0036 0.96812,-1.78611 2.50967,-2.32295c-0.03066,-0.13963 -0.05965,-0.26757 -0.08723,-0.38166c-0.02556,-0.1057 -0.09841,-0.23486 -0.19384,-0.37998c-0.27565,-0.23202 -0.4737,-0.53667 -0.57779,-0.87185c-0.25266,-0.45711 -0.36762,-0.93251 0.07381,-1.29912c0.39311,-0.89433 1.40501,-1.32449 2.31203,-1.00873c0.08548,0.02642 0.17023,0.06314 0.25497,0.11045c0.25404,0.13306 0.46579,0.3182 0.62775,0.5363c0.03251,0.0367 0.06524,0.07492 0.09823,0.11465z" data-paper-data="{&quot;index&quot;:null}" fill="#000000" stroke="none" stroke-width="0.5" stroke-linecap="butt"/><path d="M244.09149,158.6891c-2.34109,-0.8212 -5.86476,-2.22617 -6.92122,-4.75628c-0.24395,-0.58422 0.36201,-2.01879 0.67683,-2.54296c1.93473,-3.22132 5.60955,-1.08628 8.14955,0.0302l0.03188,-0.00158c0.39164,-0.02765 0.79556,0.03682 1.17996,0.20578c0.08591,0.03776 0.16863,0.07977 0.24803,0.12567c7.14131,2.13236 2.79396,9.09958 -3.36501,6.93916z" fill="#000000" stroke="none" stroke-width="0.5" stroke-linecap="butt"/><path d="M246.75455,128.37093l-8.70004,7.83639c0,0 -3.12388,1.49281 -3.83577,2.74826c-0.71188,1.25545 0.18302,3.69358 0.18302,3.69358c0,0 -1.73904,-0.81165 -2.31445,-1.42297c-0.41825,-0.44437 0.32617,-0.61953 0.1326,-1.0956c-0.4329,-1.0647 -0.50136,-4.08056 -0.50136,-4.08056l4.16095,-1.61991" fill="none" stroke="#000000" stroke-width="4" stroke-linecap="round"/><path d="M241.63618,131.04811l-1.39152,3.16571l0.69576,5.88976l1.89217,-3.93105l2.76792,-2.5607l6.72014,-2.9585l14.58375,4.93234l0.965,4.53001l-3.95072,4.50429l-2.6197,1.47623l1.21002,-2.75279l-0.07866,-4.30464l-4.96713,-5.13956l0.00757,5.58726l-3.75862,2.94639l-0.07866,-4.30464l-2.21433,-3.92954l-1.93905,-3.80854z" fill="#000000" stroke="#000000" stroke-width="4" stroke-linecap="round"/></g><g stroke="#000000" stroke-width="1.5" stroke-linecap="butt"><path d="M201.87656,187.46845l22.03007,-26.92475l11.63617,9.51532l-22.03009,26.92475z" data-paper-data="{&quot;index&quot;:null}" fill="#b1b1b1"/><path d="M208.02533,179.95353l15.8813,-19.40984l11.63617,9.51532l-15.38595,18.80441z" data-paper-data="{&quot;index&quot;:null}" fill="#9b6a16"/><path d="M216.36591,177.74394c0.72294,-1.17632 2.26259,-1.54386 3.43891,-0.82092c1.17632,0.72294 1.54386,2.26259 0.82092,3.43891c-0.72294,1.17632 -2.26259,1.54386 -3.43891,0.82092c-1.17632,-0.72294 -1.54386,-2.26259 -0.82092,-3.43891z" fill="#b1b1b1"/><path d="M225.52871,166.48107c1.8964,1.04658 2.59827,4.07018 1.28691,5.84883c-2.07161,2.8098 -6.04609,-1.60928 -4.98457,-3.573c-0.01154,-0.46639 0.1072,-0.94137 0.36967,-1.36846c0.64285,-1.04601 1.93149,-1.45251 3.0362,-1.02142c0.09894,0.02406 0.1963,0.06134 0.2918,0.11405z" fill="#b1b1b1"/></g></g></g></svg>