<svg version="1.1" xmlns="http://www.w3.org/2000/svg" xmlns:xlink="http://www.w3.org/1999/xlink" width="486.87172" height="150.20234" viewBox="0,0,486.87172,150.20234"><g transform="translate(3.43586,-104.586)"><g data-paper-data="{&quot;isPaintingLayer&quot;:true}" fill-rule="nonzero" stroke-linejoin="miter" stroke-miterlimit="10" stroke-dasharray="" stroke-dashoffset="0" style="mix-blend-mode: normal"><path d="" fill="#d9d9d9" stroke="#000000" stroke-width="1" stroke-linecap="butt"/><path d="" fill="none" stroke="#000000" stroke-width="1" stroke-linecap="butt"/><path d="" fill="#d9d9d9" stroke="#000000" stroke-width="1" stroke-linecap="butt"/><path d="" fill="none" stroke="#000000" stroke-width="1" stroke-linecap="butt"/><path d="" fill="#d9d9d9" stroke="#000000" stroke-width="1" stroke-linecap="butt"/><path d="" fill="none" stroke="#000000" stroke-width="1" stroke-linecap="butt"/><path d="" fill="#d9d9d9" stroke="#000000" stroke-width="1" stroke-linecap="butt"/><g stroke="#000000" stroke-width="0" stroke-linecap="butt"><g><g><g><path d="M-3.43586,117.53229v-12.32062h48.92391v12.32062z" fill="#b1b1b1"/><path d="M-3.43584,129.71307v-12.32062h48.92391v12.32062z" fill="#c9c9c9"/><path d="M94.14376,117.39246v12.32062h-48.92391v-12.32062z" data-paper-data="{&quot;index&quot;:null}" fill="#b1b1b1"/><path d="M94.14376,105.21167v12.32062h-48.92391v-12.32062z" data-paper-data="{&quot;index&quot;:null}" fill="#c9c9c9"/></g><g><path d="M92.8403,117.53228v-12.32062h48.92391v12.32062z" fill="#b1b1b1"/><path d="M92.84032,129.71307v-12.32062h48.92391v12.32062z" fill="#c9c9c9"/><path d="M190.41992,117.39245v12.32062h-48.92391v-12.32062z" data-paper-data="{&quot;index&quot;:null}" fill="#b1b1b1"/><path d="M190.41992,105.21167v12.32062h-48.92391v-12.32062z" data-paper-data="{&quot;index&quot;:null}" fill="#c9c9c9"/></g></g><g><g><path d="M190.15172,117.53228v-12.32062h48.92391v12.32062z" fill="#b1b1b1"/><path d="M190.15173,129.71307v-12.32062h48.92391v12.32062z" fill="#c9c9c9"/><path d="M287.7313,117.39245v12.32062h-48.92391v-12.32062z" data-paper-data="{&quot;index&quot;:null}" fill="#b1b1b1"/><path d="M287.7313,105.21167v12.32062h-48.92391v-12.32062z" data-paper-data="{&quot;index&quot;:null}" fill="#c9c9c9"/></g><g><path d="M286.42785,117.53228v-12.32062h48.92391v12.32062z" fill="#b1b1b1"/><path d="M286.42787,129.71307v-12.32062h48.92391v12.32062z" fill="#c9c9c9"/><path d="M384.00746,117.39245v12.32062h-48.92391v-12.32062z" data-paper-data="{&quot;index&quot;:null}" fill="#b1b1b1"/><path d="M384.00746,105.21167v12.32062h-48.92391v-12.32062z" data-paper-data="{&quot;index&quot;:null}" fill="#c9c9c9"/></g></g></g><path d="M384.35477,117.53228v-12.32062h48.92391v12.32062z" fill="#b1b1b1"/><path d="M384.35478,129.71307v-12.32062h48.92391v12.32062z" fill="#c9c9c9"/><path d="M481.93437,117.39245v12.32062h-48.92391v-12.32062z" data-paper-data="{&quot;index&quot;:null}" fill="#b1b1b1"/><path d="M481.93437,105.21166v12.32062h-48.92391v-12.32062z" data-paper-data="{&quot;index&quot;:null}" fill="#c9c9c9"/></g><g stroke="#000000" stroke-width="0" stroke-linecap="butt"><g><g><g><path d="M-3.43585,145.58652v-15.98889h48.92391v15.98889z" fill="#b1b1b1"/><path d="M-3.43584,161.39395v-15.98889h48.92391v15.98889z" fill="#c9c9c9"/><path d="M94.14377,145.40506v15.98889h-48.92391v-15.98889z" data-paper-data="{&quot;index&quot;:null}" fill="#b1b1b1"/><path d="M94.14377,129.59763v15.98889h-48.92391v-15.98889z" data-paper-data="{&quot;index&quot;:null}" fill="#c9c9c9"/></g><g><path d="M92.8403,145.58652v-15.98889h48.92391v15.98889z" fill="#b1b1b1"/><path d="M92.84032,161.39395v-15.98889h48.92391v15.98889z" fill="#c9c9c9"/><path d="M190.41992,145.40506v15.98889h-48.92391v-15.98889z" data-paper-data="{&quot;index&quot;:null}" fill="#b1b1b1"/><path d="M190.41992,129.59762v15.98889h-48.92391v-15.98889z" data-paper-data="{&quot;index&quot;:null}" fill="#c9c9c9"/></g></g><g><g><path d="M190.15171,145.58652v-15.98889h48.92391v15.98889z" fill="#b1b1b1"/><path d="M190.15172,161.39395v-15.98889h48.9239v15.98889z" fill="#c9c9c9"/><path d="M287.7313,145.40506v15.98889h-48.92391v-15.98889z" data-paper-data="{&quot;index&quot;:null}" fill="#b1b1b1"/><path d="M287.7313,129.59762v15.98889h-48.92391v-15.98889z" data-paper-data="{&quot;index&quot;:null}" fill="#c9c9c9"/></g><g><path d="M286.42785,145.58651v-15.98889h48.9239v15.98889z" fill="#b1b1b1"/><path d="M286.42785,161.39394v-15.98889h48.9239v15.98889z" fill="#c9c9c9"/><path d="M384.00745,145.40505v15.98889h-48.9239v-15.98889z" data-paper-data="{&quot;index&quot;:null}" fill="#b1b1b1"/><path d="M384.00745,129.59762v15.98889h-48.9239v-15.98889z" data-paper-data="{&quot;index&quot;:null}" fill="#c9c9c9"/></g></g></g><path d="M384.35476,145.58651v-15.98889h48.9239v15.98889z" fill="#b1b1b1"/><path d="M384.35477,161.39394v-15.98889h48.9239v15.98889z" fill="#c9c9c9"/><path d="M481.93436,145.40505v15.98889h-48.9239v-15.98889z" data-paper-data="{&quot;index&quot;:null}" fill="#b1b1b1"/><path d="M481.93436,129.59762v15.98889h-48.9239v-15.98889z" data-paper-data="{&quot;index&quot;:null}" fill="#c9c9c9"/></g><g stroke="#000000" stroke-width="0" stroke-linecap="butt"><g><g><g><path d="M-1.93436,183.94695v-22.69402h48.92391v22.69402z" fill="#b1b1b1"/><path d="M-1.93434,206.3834v-22.69401h48.92391v22.69401z" fill="#c9c9c9"/><path d="M95.64527,183.68939v22.69401h-48.92391v-22.69401z" data-paper-data="{&quot;index&quot;:null}" fill="#b1b1b1"/><path d="M95.64527,161.25293v22.69402h-48.92391v-22.69402z" data-paper-data="{&quot;index&quot;:null}" fill="#c9c9c9"/></g><g><path d="M94.34181,183.94694v-22.69402h48.92391v22.69402z" fill="#b1b1b1"/><path d="M94.34182,206.3834v-22.69402h48.92391v22.69402z" fill="#c9c9c9"/><path d="M191.92141,183.68938v22.69402h-48.92391v-22.69402z" data-paper-data="{&quot;index&quot;:null}" fill="#b1b1b1"/><path d="M191.92141,161.25293v22.69402h-48.92391v-22.69402z" data-paper-data="{&quot;index&quot;:null}" fill="#c9c9c9"/></g></g><g><g><path d="M191.65321,183.94694v-22.69402h48.92391v22.69402z" fill="#b1b1b1"/><path d="M191.65322,206.3834v-22.69402h48.92391v22.69402z" fill="#c9c9c9"/><path d="M289.23278,183.68938v22.69402h-48.92391v-22.69402z" data-paper-data="{&quot;index&quot;:null}" fill="#b1b1b1"/><path d="M289.23278,161.25293v22.69402h-48.92391v-22.69402z" data-paper-data="{&quot;index&quot;:null}" fill="#c9c9c9"/></g><g><path d="M287.92933,183.94694v-22.69402h48.92391v22.69402z" fill="#b1b1b1"/><path d="M287.92936,206.38339v-22.69401h48.92391v22.69401z" fill="#c9c9c9"/><path d="M385.50895,183.68938v22.69401h-48.92391v-22.69401z" data-paper-data="{&quot;index&quot;:null}" fill="#b1b1b1"/><path d="M385.50895,161.25292v22.69402h-48.92391v-22.69402z" data-paper-data="{&quot;index&quot;:null}" fill="#c9c9c9"/></g></g></g><path d="M385.85626,183.94694v-22.69402h48.92391v22.69402z" fill="#b1b1b1"/><path d="M385.85627,206.38338v-22.69401h48.92391v22.69401z" fill="#c9c9c9"/><path d="M483.43586,183.68937v22.69401h-48.92391v-22.69401z" data-paper-data="{&quot;index&quot;:null}" fill="#b1b1b1"/><path d="M483.43586,161.25292v22.69402h-48.92391v-22.69402z" data-paper-data="{&quot;index&quot;:null}" fill="#c9c9c9"/></g><g stroke="#000000" stroke-width="0" stroke-linecap="butt"><g><g><g><path d="M-1.93436,230.61827v-24.44752h48.92391v24.44752z" fill="#b1b1b1"/><path d="M-1.93434,254.78833v-24.44752h48.92391v24.44752z" fill="#c9c9c9"/><path d="M95.64527,230.34082v24.44752h-48.92391v-24.44752z" data-paper-data="{&quot;index&quot;:null}" fill="#b1b1b1"/><path d="M95.64527,206.17076v24.44752h-48.92391v-24.44752z" data-paper-data="{&quot;index&quot;:null}" fill="#c9c9c9"/></g><g><path d="M94.34181,230.61827v-24.44752h48.92391v24.44752z" fill="#b1b1b1"/><path d="M94.34182,254.78833v-24.44752h48.92391v24.44752z" fill="#c9c9c9"/><path d="M191.92141,230.34081v24.44752h-48.92391v-24.44752z" data-paper-data="{&quot;index&quot;:null}" fill="#b1b1b1"/><path d="M191.92141,206.17075v24.44752h-48.92391v-24.44752z" data-paper-data="{&quot;index&quot;:null}" fill="#c9c9c9"/></g></g><g><g><path d="M191.65319,230.61827v-24.44752h48.92391v24.44752z" fill="#b1b1b1"/><path d="M191.65321,254.78833v-24.44752h48.9239v24.44752z" fill="#c9c9c9"/><path d="M289.23278,230.34081v24.44752h-48.92391v-24.44752z" data-paper-data="{&quot;index&quot;:null}" fill="#b1b1b1"/><path d="M289.23278,206.17075v24.44752h-48.92391v-24.44752z" data-paper-data="{&quot;index&quot;:null}" fill="#c9c9c9"/></g><g><path d="M287.92933,230.61826v-24.44752h48.9239v24.44752z" fill="#b1b1b1"/><path d="M287.92933,254.78832v-24.44752h48.9239v24.44752z" fill="#c9c9c9"/><path d="M385.50894,230.34081v24.44752h-48.9239v-24.44752z" data-paper-data="{&quot;index&quot;:null}" fill="#b1b1b1"/><path d="M385.50894,206.17075v24.44752h-48.9239v-24.44752z" data-paper-data="{&quot;index&quot;:null}" fill="#c9c9c9"/></g></g></g><path d="M385.85625,230.61826v-24.44752h48.9239v24.44752z" fill="#b1b1b1"/><path d="M385.85626,254.78831v-24.44752h48.9239v24.44752z" fill="#c9c9c9"/><path d="M483.43585,230.34079v24.44752h-48.9239v-24.44752z" data-paper-data="{&quot;index&quot;:null}" fill="#b1b1b1"/><path d="M483.43585,206.17074v24.44752h-48.9239v-24.44752z" data-paper-data="{&quot;index&quot;:null}" fill="#c9c9c9"/></g><path d="M-1.93586,106.836l482,-1" fill="none" stroke="#7e7e7e" stroke-width="2.5" stroke-linecap="round"/></g></g></svg>