<svg version="1.1" xmlns="http://www.w3.org/2000/svg" xmlns:xlink="http://www.w3.org/1999/xlink" width="122.5467" height="40.96573" viewBox="0,0,122.5467,40.96573"><g transform="translate(-177.87932,-147.41721)"><g data-paper-data="{&quot;isPaintingLayer&quot;:true}" fill-rule="nonzero" stroke-linecap="butt" stroke-linejoin="miter" stroke-miterlimit="10" stroke-dasharray="" stroke-dashoffset="0" style="mix-blend-mode: normal"><path d="M182.57958,185.88294c-3.40206,-8.42313 0.30549,-17.52745 11.67319,-24.76188c20.25372,-12.88951 57.15434,-14.96223 82.41984,-4.62953c11.88087,4.85885 19.07327,11.59565 21.25341,18.71009" fill="none" stroke="#00abff" stroke-width="5"/><path d="M211.11896,153.73791c0,0 6.91643,0.67573 12.36118,4.51673c4.84616,3.41872 9.26694,5.13305 12.28418,8.11113c2.91078,2.873 4.38633,7.02346 10.61124,9.56922c3.69912,1.51281 3.8399,5.28134 7.94589,7.48624c-0.05959,0.00205 -0.11923,0.00375 -0.17892,0.00509c-3.46742,0.07797 -6.5558,1.38103 -10.19186,1.38489c-2.191,0.00236 -4.33475,0.18076 -6.48206,0.41931c-1.05916,-1.1065 -2.24277,-2.07667 -3.95177,-2.77559c-5.7049,-2.3331 -8.26144,-6.90117 -12.47296,-8.9432c-4.40904,-2.13781 -10.97171,-1.70117 -18.06903,-3.16391c-8.37607,-1.72629 -18.43023,0.30208 -18.43023,0.30208c0,0 6.37376,-7.38307 11.06144,-10.36631c4.08814,-2.6017 15.51292,-6.54566 15.51292,-6.54566z" fill="#71d0ff" stroke="#00abff" stroke-width="5"/><path d="M267.30761,178.41605c1.95061,0.79773 0.38693,1.79286 0.38693,1.79286l0.10841,-0.12988c-0.33034,0.3649 -0.68357,0.72412 -1.05644,1.0782c-0.75259,0.19633 -1.51826,0.35728 -2.30954,0.45289c-1.86985,0.22705 -3.70081,0.71589 -5.54198,1.1298c1.66671,-1.18204 3.19105,-2.41566 4.36471,-3.726l0.5336,-0.40047c0,0 1.56368,-0.99513 3.5143,-0.1974z" fill="#a4e1ff" stroke="none" stroke-width="0.5"/><path d="M223.11844,168.6718c0.62228,1.23526 -1.79903,1.55273 -1.79903,1.55273l-0.62884,-0.05657c-1.54088,0.67233 -2.97607,1.43861 -4.04516,2.31754c0,0 -1.33871,1.07714 -3.45007,0.39418c-2.11137,-0.68296 -0.77266,-1.7601 -0.77266,-1.7601c0.25806,-0.20417 0.52995,-0.40399 0.814,-0.59954c-0.06421,0.01419 -0.10192,0.02091 -0.10192,0.02091c-3.18087,0.49841 -3.88132,1.39387 -5.94082,2.70454l-0.26417,0.38447c0,0 -1.0439,1.1589 -3.31553,0.62634c-2.27162,-0.53256 -1.22772,-1.69146 -1.22772,-1.69146l0.90619,-0.91481c2.7187,-1.73019 4.03033,-2.71463 8.19131,-3.51686c0,0 2.35982,-0.42107 3.18519,0.78282c0.16062,0.23429 0.20062,0.43893 0.16085,0.61659c0.81066,-0.45602 1.68011,-0.88573 2.58165,-1.29037l2.66313,-0.48819c0,0 2.42131,-0.31747 3.0436,0.9178z" fill="#a4e1ff" stroke="none" stroke-width="0.5"/><path d="M198.07827,177.34053c-2.48498,0.13958 -2.75858,-1.12816 -2.75858,-1.12816l-0.18212,-0.8782c-1.05602,-3.22616 1.58664,-5.79323 6.4783,-7.83588c0,0 1.94959,-0.79838 3.51455,0.19623c1.56496,0.99461 -0.38464,1.79299 -0.38464,1.79299c-3.35579,1.33963 -5.64257,3.18911 -4.69486,5.37386l0.23873,1.07183c0,0 0.2736,1.26775 -2.21138,1.40733z" fill="#a4e1ff" stroke="none" stroke-width="0.5"/><path d="M195.29647,165.96533c-2.27162,-0.53256 -1.22772,-1.69146 -1.22772,-1.69146l0.90619,-0.91482c2.88743,-1.82221 5.62359,-2.6928 9.71494,-3.79378c0,0 2.21442,-0.59195 3.37474,0.53777c1.16032,1.12972 -1.05411,1.72167 -1.05411,1.72167c-3.54812,0.94144 -5.69618,1.56243 -8.13435,3.12982l-0.26417,0.38447c0,0 -1.0439,1.1589 -3.31552,0.62634z" fill="#a4e1ff" stroke="none" stroke-width="0.5"/><path d="M228.87427,161.66593c-0.68339,0.43491 -1.44067,0.52738 -2.07674,0.49366c-1.01045,0.4664 -1.96617,0.96487 -2.81077,1.50783c0,0 -1.56368,0.99513 -3.5143,0.1974c-0.2106,-0.08613 -0.38023,-0.17455 -0.51528,-0.26378c-0.19112,-0.04354 -0.37457,-0.10014 -0.54552,-0.17005c-0.77852,-0.31839 -1.08491,-0.82589 -0.86904,-1.29032c-0.23408,0.13566 -1.69565,0.90817 -3.48156,0.17779c-1.95061,-0.79773 -0.38693,-1.79286 -0.38693,-1.79286c2.97919,-1.88843 5.84882,-3.11451 10.00938,-4.28633l2.45745,-0.74543c0,0 2.14903,-0.65167 3.4264,0.44469c1.27737,1.09635 -0.87165,1.74802 -0.87165,1.74802l-2.53527,0.76855c-2.96883,0.8187 -5.07983,1.63913 -7.15317,2.8046c0.49843,-0.10651 1.05518,-0.12836 1.5816,-0.06056c1.00495,-0.54009 2.08459,-1.04576 3.19832,-1.52525l3.70016,0.19919c0,0 1.95061,0.79773 0.38693,1.79286z" fill="#a4e1ff" stroke="none" stroke-width="0.5"/><path d="M241.93985,160.75992c0.75563,1.21575 -1.62744,1.60125 -1.62744,1.60125l-1.24541,0.20077c-0.41604,0.05975 -4.78193,0.66447 -5.24865,0.81568c-2.10556,0.68218 -3.6987,1.708 -5.58175,2.54248c0,0 -1.8874,0.83638 -3.52683,-0.1265c-1.63943,-0.96288 0.24797,-1.79926 0.24797,-1.79926c2.11071,-0.9353 3.93991,-2.06453 6.31922,-2.81346c1.09164,-0.34361 5.03451,-0.87255 6.43322,-1.07404l1.09096,-0.17718c0,0 2.38307,-0.3855 3.1387,0.83026z" fill="#a4e1ff" stroke="none" stroke-width="0.5"/><path d="M215.71992,164.23968c1.60607,0.9774 -0.30979,1.79676 -0.30979,1.79676l-1.42112,0.60589c-0.74372,0.28848 -1.48744,0.57697 -2.23116,0.86545c0,0 -1.99009,0.77194 -3.50322,-0.24333c-1.51312,-1.01527 0.47696,-1.78721 0.47696,-1.78721c0.74372,-0.28848 1.48744,-0.57697 2.23116,-0.86545l1.23523,-0.53015c0,0 1.91587,-0.81936 3.52194,0.15804z" fill="#a4e1ff" stroke="none" stroke-width="0.5"/><path d="M223.85937,152.76355c1.23036,1.11026 -0.94592,1.73794 -0.94592,1.73794l-1.90594,0.53565c-2.93121,0.57602 -4.62107,1.24814 -6.56366,2.50516c0,0 -1.56368,0.99513 -3.5143,0.1974c-1.95061,-0.79773 -0.38693,-1.79286 -0.38693,-1.79286c2.52033,-1.58267 4.91447,-2.52007 8.62928,-3.2824l1.28082,-0.38347c0,0 2.17628,-0.62768 3.40665,0.48257z" fill="#a4e1ff" stroke="none" stroke-width="0.5"/></g></g></svg>