<svg version="1.1" xmlns="http://www.w3.org/2000/svg" xmlns:xlink="http://www.w3.org/1999/xlink" width="483.66721" height="312.41722" viewBox="0,0,483.66721,312.41722"><defs><linearGradient x1="240.14336" y1="101.786" x2="240.14336" y2="129.16457" gradientUnits="userSpaceOnUse" id="color-1"><stop offset="0" stop-color="#0e5700"/><stop offset="1" stop-color="#0e5700" stop-opacity="0"/></linearGradient><linearGradient x1="240.14336" y1="254.32373" x2="240.14336" y2="194.87313" gradientUnits="userSpaceOnUse" id="color-2"><stop offset="0" stop-color="#424242"/><stop offset="1" stop-color="#424242" stop-opacity="0"/></linearGradient></defs><g transform="translate(2.32808,-101.32253)"><g data-paper-data="{&quot;isPaintingLayer&quot;:true}" fill-rule="nonzero" stroke-linecap="butt" stroke-linejoin="miter" stroke-miterlimit="10" stroke-dasharray="" stroke-dashoffset="0" style="mix-blend-mode: normal"><path d="" fill="#d9d9d9" stroke="#000000" stroke-width="1"/><path d="" fill="none" stroke="#000000" stroke-width="1"/><path d="" fill="#d9d9d9" stroke="#000000" stroke-width="1"/><path d="" fill="none" stroke="#000000" stroke-width="1"/><path d="" fill="#d9d9d9" stroke="#000000" stroke-width="1"/><path d="" fill="none" stroke="#000000" stroke-width="1"/><path d="" fill="#d9d9d9" stroke="#000000" stroke-width="1"/><g stroke="#616161" stroke-width="0.5"><g><g><g><path d="M-1.08912,103.9425v-2.36995h48.45228v2.36995z" fill="#b1b1b1"/><path d="M-1.0891,106.28555v-2.36995h48.45228v2.36995z" fill="#c9c9c9"/><path d="M95.54983,103.9156v2.36995h-48.45228v-2.36995z" data-paper-data="{&quot;index&quot;:null}" fill="#b1b1b1"/><path d="M95.54983,101.57255v2.36995h-48.45228v-2.36995z" data-paper-data="{&quot;index&quot;:null}" fill="#c9c9c9"/></g><g><path d="M94.25894,103.9425v-2.36995h48.45228v2.36995z" fill="#b1b1b1"/><path d="M94.25896,106.28555v-2.36995h48.45228v2.36995z" fill="#c9c9c9"/><path d="M190.89788,103.9156v2.36995h-48.45228v-2.36995z" data-paper-data="{&quot;index&quot;:null}" fill="#b1b1b1"/><path d="M190.89788,101.57255v2.36995h-48.45228v-2.36995z" data-paper-data="{&quot;index&quot;:null}" fill="#c9c9c9"/></g></g><g><g><path d="M190.63227,103.9425v-2.36995h48.45228v2.36995z" fill="#b1b1b1"/><path d="M190.63228,106.28555v-2.36995h48.45228v2.36995z" fill="#c9c9c9"/><path d="M287.27118,103.9156v2.36995h-48.45228v-2.36995z" data-paper-data="{&quot;index&quot;:null}" fill="#b1b1b1"/><path d="M287.27118,101.57255v2.36995h-48.45228v-2.36995z" data-paper-data="{&quot;index&quot;:null}" fill="#c9c9c9"/></g><g><path d="M285.98028,103.9425v-2.36995h48.45228v2.36995z" fill="#b1b1b1"/><path d="M285.98031,106.28555v-2.36995h48.45228v2.36995z" fill="#c9c9c9"/><path d="M382.61923,103.9156v2.36995h-48.45228v-2.36995z" data-paper-data="{&quot;index&quot;:null}" fill="#b1b1b1"/><path d="M382.61923,101.57255v2.36995h-48.45228v-2.36995z" data-paper-data="{&quot;index&quot;:null}" fill="#c9c9c9"/></g></g></g><path d="M382.96319,103.9425v-2.36995h48.45228v2.36995z" fill="#b1b1b1"/><path d="M382.9632,106.28555v-2.36995h48.45228v2.36995z" fill="#c9c9c9"/><path d="M479.60212,103.9156v2.36995h-48.45228v-2.36995z" data-paper-data="{&quot;index&quot;:null}" fill="#b1b1b1"/><path d="M479.60212,101.57254v2.36995h-48.45228v-2.36995z" data-paper-data="{&quot;index&quot;:null}" fill="#c9c9c9"/></g><g stroke="#616161" stroke-width="0.5"><g><g><g><path d="M-1.08912,111.76304v-5.99049h48.45228v5.99049z" fill="#b1b1b1"/><path d="M-1.0891,117.68554v-5.99049h48.45228v5.99049z" fill="#c9c9c9"/><path d="M95.54983,111.69506v5.99049h-48.45228v-5.99049z" data-paper-data="{&quot;index&quot;:null}" fill="#b1b1b1"/><path d="M95.54983,105.77255v5.99049h-48.45228v-5.99049z" data-paper-data="{&quot;index&quot;:null}" fill="#c9c9c9"/></g><g><path d="M94.25894,111.76304v-5.99049h48.45228v5.99049z" fill="#b1b1b1"/><path d="M94.25896,117.68554v-5.99049h48.45228v5.99049z" fill="#c9c9c9"/><path d="M190.89788,111.69505v5.99049h-48.45228v-5.99049z" data-paper-data="{&quot;index&quot;:null}" fill="#b1b1b1"/><path d="M190.89788,105.77255v5.99049h-48.45228v-5.99049z" data-paper-data="{&quot;index&quot;:null}" fill="#c9c9c9"/></g></g><g><g><path d="M190.63227,111.76304v-5.99049h48.45228v5.99049z" fill="#b1b1b1"/><path d="M190.63228,117.68554v-5.99049h48.45228v5.99049z" fill="#c9c9c9"/><path d="M287.27118,111.69505v5.99049h-48.45228v-5.99049z" data-paper-data="{&quot;index&quot;:null}" fill="#b1b1b1"/><path d="M287.27118,105.77255v5.99049h-48.45228v-5.99049z" data-paper-data="{&quot;index&quot;:null}" fill="#c9c9c9"/></g><g><path d="M285.98028,111.76304v-5.99049h48.45228v5.99049z" fill="#b1b1b1"/><path d="M285.98031,117.68554v-5.99049h48.45228v5.99049z" fill="#c9c9c9"/><path d="M382.61923,111.69505v5.99049h-48.45228v-5.99049z" data-paper-data="{&quot;index&quot;:null}" fill="#b1b1b1"/><path d="M382.61923,105.77255v5.99049h-48.45228v-5.99049z" data-paper-data="{&quot;index&quot;:null}" fill="#c9c9c9"/></g></g></g><path d="M382.96319,111.76304v-5.99049h48.45228v5.99049z" fill="#b1b1b1"/><path d="M382.9632,117.68554v-5.99049h48.45228v5.99049z" fill="#c9c9c9"/><path d="M479.60212,111.69505v5.99049h-48.45228v-5.99049z" data-paper-data="{&quot;index&quot;:null}" fill="#b1b1b1"/><path d="M479.60212,105.77254v5.99049h-48.45228v-5.99049z" data-paper-data="{&quot;index&quot;:null}" fill="#c9c9c9"/></g><g stroke="#616161" stroke-width="0.5"><g><g><g><path d="M-1.08912,127.89639v-10.35138h48.45228v10.35138z" fill="#b1b1b1"/><path d="M-1.0891,138.13028v-10.35138h48.45228v10.35138z" fill="#c9c9c9"/><path d="M95.54983,127.77891v10.35138h-48.45228v-10.35138z" data-paper-data="{&quot;index&quot;:null}" fill="#b1b1b1"/><path d="M95.54983,117.54501v10.35138h-48.45228v-10.35138z" data-paper-data="{&quot;index&quot;:null}" fill="#c9c9c9"/></g><g><path d="M94.25894,127.89639v-10.35138h48.45228v10.35138z" fill="#b1b1b1"/><path d="M94.25896,138.13028v-10.35138h48.45228v10.35138z" fill="#c9c9c9"/><path d="M190.89788,127.7789v10.35138h-48.45228v-10.35138z" data-paper-data="{&quot;index&quot;:null}" fill="#b1b1b1"/><path d="M190.89788,117.54501v10.35138h-48.45228v-10.35138z" data-paper-data="{&quot;index&quot;:null}" fill="#c9c9c9"/></g></g><g><g><path d="M190.63227,127.89639v-10.35138h48.45228v10.35138z" fill="#b1b1b1"/><path d="M190.63228,138.13028v-10.35138h48.45228v10.35138z" fill="#c9c9c9"/><path d="M287.27118,127.7789v10.35138h-48.45228v-10.35138z" data-paper-data="{&quot;index&quot;:null}" fill="#b1b1b1"/><path d="M287.27118,117.54501v10.35138h-48.45228v-10.35138z" data-paper-data="{&quot;index&quot;:null}" fill="#c9c9c9"/></g><g><path d="M285.98028,127.89639v-10.35138h48.45228v10.35138z" fill="#b1b1b1"/><path d="M285.98031,138.13028v-10.35138h48.45228v10.35138z" fill="#c9c9c9"/><path d="M382.61923,127.7789v10.35138h-48.45228v-10.35138z" data-paper-data="{&quot;index&quot;:null}" fill="#b1b1b1"/><path d="M382.61923,117.54501v10.35138h-48.45228v-10.35138z" data-paper-data="{&quot;index&quot;:null}" fill="#c9c9c9"/></g></g></g><path d="M382.96319,127.89639v-10.35138h48.45228v10.35138z" fill="#b1b1b1"/><path d="M382.9632,138.13028v-10.35138h48.45228v10.35138z" fill="#c9c9c9"/><path d="M479.60212,127.7789v10.35138h-48.45228v-10.35138z" data-paper-data="{&quot;index&quot;:null}" fill="#b1b1b1"/><path d="M479.60212,117.545v10.35138h-48.45228v-10.35138z" data-paper-data="{&quot;index&quot;:null}" fill="#c9c9c9"/></g><g stroke="#616161" stroke-width="0.5"><g><g><g><path d="M-1.08911,152.9355v-14.91288h48.45228v14.91288z" fill="#b1b1b1"/><path d="M-1.0891,167.67914v-14.91288h48.45228v14.91288z" fill="#c9c9c9"/><path d="M95.54984,152.76625v14.91288h-48.45228v-14.91288z" data-paper-data="{&quot;index&quot;:null}" fill="#b1b1b1"/><path d="M95.54984,138.02262v14.91288h-48.45228v-14.91288z" data-paper-data="{&quot;index&quot;:null}" fill="#c9c9c9"/></g><g><path d="M94.25894,152.9355v-14.91288h48.45228v14.91288z" fill="#b1b1b1"/><path d="M94.25896,167.67914v-14.91288h48.45228v14.91288z" fill="#c9c9c9"/><path d="M190.89788,152.76625v14.91288h-48.45228v-14.91288z" data-paper-data="{&quot;index&quot;:null}" fill="#b1b1b1"/><path d="M190.89788,138.0226v14.91288h-48.45228v-14.91288z" data-paper-data="{&quot;index&quot;:null}" fill="#c9c9c9"/></g></g><g><g><path d="M190.63226,152.9355v-14.91288h48.45228v14.91288z" fill="#b1b1b1"/><path d="M190.63227,167.67914v-14.91288h48.45227v14.91288z" fill="#c9c9c9"/><path d="M287.27118,152.76625v14.91288h-48.45228v-14.91288z" data-paper-data="{&quot;index&quot;:null}" fill="#b1b1b1"/><path d="M287.27118,138.0226v14.91288h-48.45228v-14.91288z" data-paper-data="{&quot;index&quot;:null}" fill="#c9c9c9"/></g><g><path d="M285.98028,152.93549v-14.91288h48.45227v14.91288z" fill="#b1b1b1"/><path d="M285.98028,167.67912v-14.91288h48.45227v14.91288z" fill="#c9c9c9"/><path d="M382.61922,152.76625v14.91288h-48.45227v-14.91288z" data-paper-data="{&quot;index&quot;:null}" fill="#b1b1b1"/><path d="M382.61922,138.0226v14.91288h-48.45227v-14.91288z" data-paper-data="{&quot;index&quot;:null}" fill="#c9c9c9"/></g></g></g><path d="M382.96318,152.93549v-14.91288h48.45227v14.91288z" fill="#b1b1b1"/><path d="M382.96319,167.67912v-14.91288h48.45227v14.91288z" fill="#c9c9c9"/><path d="M479.60211,152.76625v14.91288h-48.45227v-14.91288z" data-paper-data="{&quot;index&quot;:null}" fill="#b1b1b1"/><path d="M479.60211,138.0226v14.91288h-48.45227v-14.91288z" data-paper-data="{&quot;index&quot;:null}" fill="#c9c9c9"/></g><g stroke="#616161" stroke-width="0.5"><g><g><g><path d="M0.39791,188.71438v-21.16678h48.45228v21.16678z" fill="#b1b1b1"/><path d="M0.39793,209.64092v-21.16677h48.45228v21.16677z" fill="#c9c9c9"/><path d="M97.03687,188.47415v21.16677h-48.45228v-21.16677z" data-paper-data="{&quot;index&quot;:null}" fill="#b1b1b1"/><path d="M97.03687,167.54761v21.16678h-48.45228v-21.16678z" data-paper-data="{&quot;index&quot;:null}" fill="#c9c9c9"/></g><g><path d="M95.74597,188.71438v-21.16678h48.45228v21.16678z" fill="#b1b1b1"/><path d="M95.74598,209.64092v-21.16678h48.45228v21.16678z" fill="#c9c9c9"/><path d="M192.3849,188.47415v21.16678h-48.45228v-21.16678z" data-paper-data="{&quot;index&quot;:null}" fill="#b1b1b1"/><path d="M192.3849,167.54761v21.16678h-48.45228v-21.16678z" data-paper-data="{&quot;index&quot;:null}" fill="#c9c9c9"/></g></g><g><g><path d="M192.11929,188.71438v-21.16678h48.45228v21.16678z" fill="#b1b1b1"/><path d="M192.1193,209.64092v-21.16678h48.45228v21.16678z" fill="#c9c9c9"/><path d="M288.75818,188.47415v21.16678h-48.45228v-21.16678z" data-paper-data="{&quot;index&quot;:null}" fill="#b1b1b1"/><path d="M288.75818,167.54761v21.16678h-48.45228v-21.16678z" data-paper-data="{&quot;index&quot;:null}" fill="#c9c9c9"/></g><g><path d="M287.46729,188.71438v-21.16678h48.45228v21.16678z" fill="#b1b1b1"/><path d="M287.46733,209.64091v-21.16677h48.45228v21.16677z" fill="#c9c9c9"/><path d="M384.10625,188.47415v21.16677h-48.45228v-21.16677z" data-paper-data="{&quot;index&quot;:null}" fill="#b1b1b1"/><path d="M384.10625,167.54759v21.16678h-48.45228v-21.16678z" data-paper-data="{&quot;index&quot;:null}" fill="#c9c9c9"/></g></g></g><path d="M384.45021,188.71438v-21.16678h48.45228v21.16678z" fill="#b1b1b1"/><path d="M384.45022,209.64091v-21.16677h48.45228v21.16677z" fill="#c9c9c9"/><path d="M481.08914,188.47415v21.16677h-48.45228v-21.16677z" data-paper-data="{&quot;index&quot;:null}" fill="#b1b1b1"/><path d="M481.08914,167.54759v21.16678h-48.45228v-21.16678z" data-paper-data="{&quot;index&quot;:null}" fill="#c9c9c9"/></g><g stroke="#616161" stroke-width="0.5"><g><g><g><path d="M0.39791,232.24486v-22.80227h48.45228v22.80227z" fill="#b1b1b1"/><path d="M0.39793,254.78834v-22.80227h48.45228v22.80227z" fill="#c9c9c9"/><path d="M97.03687,231.98608v22.80227h-48.45228v-22.80227z" data-paper-data="{&quot;index&quot;:null}" fill="#b1b1b1"/><path d="M97.03687,209.44259v22.80227h-48.45228v-22.80227z" data-paper-data="{&quot;index&quot;:null}" fill="#c9c9c9"/></g><g><path d="M95.74597,232.24486v-22.80227h48.45228v22.80227z" fill="#b1b1b1"/><path d="M95.74598,254.78834v-22.80227h48.45228v22.80227z" fill="#c9c9c9"/><path d="M192.3849,231.98608v22.80227h-48.45228v-22.80227z" data-paper-data="{&quot;index&quot;:null}" fill="#b1b1b1"/><path d="M192.3849,209.44258v22.80227h-48.45228v-22.80227z" data-paper-data="{&quot;index&quot;:null}" fill="#c9c9c9"/></g></g><g><g><path d="M192.11927,232.24486v-22.80227h48.45228v22.80227z" fill="#b1b1b1"/><path d="M192.11929,254.78834v-22.80227h48.45227v22.80227z" fill="#c9c9c9"/><path d="M288.75818,231.98608v22.80227h-48.45228v-22.80227z" data-paper-data="{&quot;index&quot;:null}" fill="#b1b1b1"/><path d="M288.75818,209.44258v22.80227h-48.45228v-22.80227z" data-paper-data="{&quot;index&quot;:null}" fill="#c9c9c9"/></g><g><path d="M287.46729,232.24486v-22.80227h48.45227v22.80227z" fill="#b1b1b1"/><path d="M287.46729,254.78834v-22.80227h48.45227v22.80227z" fill="#c9c9c9"/><path d="M384.10624,231.98608v22.80227h-48.45227v-22.80227z" data-paper-data="{&quot;index&quot;:null}" fill="#b1b1b1"/><path d="M384.10624,209.44258v22.80227h-48.45227v-22.80227z" data-paper-data="{&quot;index&quot;:null}" fill="#c9c9c9"/></g></g></g><path d="M384.4502,232.24486v-22.80227h48.45227v22.80227z" fill="#b1b1b1"/><path d="M384.45021,254.78832v-22.80227h48.45227v22.80227z" fill="#c9c9c9"/><path d="M481.08913,231.98606v22.80227h-48.45227v-22.80227z" data-paper-data="{&quot;index&quot;:null}" fill="#b1b1b1"/><path d="M481.08913,209.44257v22.80227h-48.45227v-22.80227z" data-paper-data="{&quot;index&quot;:null}" fill="#c9c9c9"/></g><path d="M-0.00578,129.16457v-27.37857h480.29827v27.37857z" fill="url(#color-1)" stroke="#616161" stroke-width="0"/><path d="M480.29249,194.87313v59.4506h-480.29827v-59.4506z" data-paper-data="{&quot;index&quot;:null}" fill="url(#color-2)" stroke="#616161" stroke-width="0"/><path d="M-2.07807,413.48975v-151.65165h479.98199v151.65166z" fill="#00d614" stroke="#616161" stroke-width="0.5"/><path d="M439.6997,328.61792c0,26.12158 -92.09758,47.2973 -205.70571,47.2973c-113.60812,0 -205.70571,-21.17572 -205.70571,-47.2973c0,-26.12158 92.09758,-47.2973 205.70571,-47.2973c113.60812,0 205.70571,21.17572 205.70571,47.2973z" fill="#00d614" stroke="none" stroke-width="0"/></g></g></svg>