<svg version="1.1" xmlns="http://www.w3.org/2000/svg" xmlns:xlink="http://www.w3.org/1999/xlink" width="35.25" height="203.8799" viewBox="0,0,35.25,203.8799"><g transform="translate(-238.75,-77.8)"><g data-paper-data="{&quot;isPaintingLayer&quot;:true}" fill="#ffffff" fill-rule="nonzero" stroke="none" stroke-width="0" stroke-linecap="butt" stroke-linejoin="miter" stroke-miterlimit="10" stroke-dasharray="" stroke-dashoffset="0" style="mix-blend-mode: normal"><path d="M239,77.8c19.32997,0 35,45.7565 35,102.2c0,52.94131 -13.78579,96.48069 -31.447,101.6799c-0.29458,-2.22349 -0.5943,-4.44621 -0.9051,-6.66772c-0.49081,-3.50822 -0.85604,-6.86747 -0.92008,-10.40703c-0.01717,-0.94915 -0.07106,-1.89758 -0.15295,-2.84252c4.60641,-0.6184 9.06923,-3.94299 12.42728,-9.89069c2.08584,-3.6944 8.23195,-14.71883 11.63577,-33.72538c6.81581,-38.05864 3.23303,-76.82521 -7.47807,-105.07994c-1.15962,-3.05895 -2.40831,-5.0998 -3.51277,-6.70609c-1.03164,-1.50038 -1.90687,-2.62161 -3.30574,-3.83924c-3.22937,-2.81097 -7.43758,-5.16938 -11.59134,-5.5427c0,-3.21509 0,-6.43017 0,-9.64526c0,-3.17693 0,-6.35385 0,-9.53078c0.08326,-0.0017 0.1666,-0.00255 0.25,-0.00255z"/></g></g></svg>