<svg version="1.1" xmlns="http://www.w3.org/2000/svg" xmlns:xlink="http://www.w3.org/1999/xlink" width="73.61327" height="102.5678" viewBox="0,0,73.61327,102.5678"><g transform="translate(-202.83179,-130.15638)"><g data-paper-data="{&quot;isPaintingLayer&quot;:true}" fill="#b1b1b1" fill-rule="nonzero" stroke="#000000" stroke-width="1.5" stroke-linecap="butt" stroke-linejoin="miter" stroke-miterlimit="10" stroke-dasharray="" stroke-dashoffset="0" style="mix-blend-mode: normal"><path d="M265.39989,193.46919l-26.00825,-23.10493l9.98623,-11.23466l26.00823,23.10494z" data-paper-data="{&quot;index&quot;:null}"/><path d="M251.22705,229.3008l-8.78632,-35.6969l17.71426,-4.36013l8.78632,35.6969z"/><path d="M216.59446,224.82313l13.9544,-34.54763l17.14394,6.92474l-13.9544,34.54763z"/><path d="M228.58709,196.70669l-3.50611,-35.84563l28.59441,-2.79686l3.50612,35.84564c0,0 -7.3969,0.7235 -11.64081,1.1386c-5.1216,0.50095 -16.9536,1.65826 -16.9536,1.65826z"/><path d="M252.68272,146.31607c0,8.51054 -7.34426,15.4097 -16.40387,15.4097c-9.05961,0 -16.40387,-6.89916 -16.40387,-15.4097c0,-8.51054 7.34426,-15.40969 16.40387,-15.40969c9.05961,0 16.40387,6.89915 16.40387,15.4097z" data-paper-data="{&quot;index&quot;:null}"/><path d="M203.8414,193.14245l15.86578,-30.96036l13.37911,6.8514l-15.86579,30.96036z" data-paper-data="{&quot;index&quot;:null}"/></g></g></svg>