<svg version="1.1" xmlns="http://www.w3.org/2000/svg" xmlns:xlink="http://www.w3.org/1999/xlink" width="477.24193" height="155.07583" viewBox="0,0,477.24193,155.07583"><defs><linearGradient x1="266.33489" y1="133.60928" x2="266.33489" y2="180.00684" gradientUnits="userSpaceOnUse" id="color-1"><stop offset="0" stop-color="#00d614"/><stop offset="1" stop-color="#4b9100"/></linearGradient><linearGradient x1="189.20419" y1="126.76564" x2="189.20419" y2="173.16319" gradientUnits="userSpaceOnUse" id="color-2"><stop offset="0" stop-color="#00d614"/><stop offset="1" stop-color="#4b9100"/></linearGradient><linearGradient x1="208.49773" y1="144.30746" x2="208.49773" y2="190.70502" gradientUnits="userSpaceOnUse" id="color-3"><stop offset="0" stop-color="#00d614"/><stop offset="1" stop-color="#4b9100"/></linearGradient><linearGradient x1="128.47444" y1="124.07994" x2="128.47444" y2="170.47749" gradientUnits="userSpaceOnUse" id="color-4"><stop offset="0" stop-color="#00d614"/><stop offset="1" stop-color="#4b9100"/></linearGradient><linearGradient x1="302.99837" y1="141.32732" x2="302.99837" y2="187.7249" gradientUnits="userSpaceOnUse" id="color-5"><stop offset="0" stop-color="#00d614"/><stop offset="1" stop-color="#4b9100"/></linearGradient><linearGradient x1="356.03386" y1="126.45336" x2="356.03386" y2="172.85089" gradientUnits="userSpaceOnUse" id="color-6"><stop offset="0" stop-color="#00d614"/><stop offset="1" stop-color="#4b9100"/></linearGradient><linearGradient x1="242.23969" y1="118.13749" x2="242.23969" y2="164.53501" gradientUnits="userSpaceOnUse" id="color-7"><stop offset="0" stop-color="#00d614"/><stop offset="1" stop-color="#4b9100"/></linearGradient><linearGradient x1="292.8454" y1="141.34517" x2="292.8454" y2="168.11298" gradientUnits="userSpaceOnUse" id="color-8"><stop offset="0" stop-color="#00d614"/><stop offset="1" stop-color="#4b9100"/></linearGradient><linearGradient x1="269.37253" y1="163.55306" x2="269.37253" y2="118.11456" gradientUnits="userSpaceOnUse" id="color-9"><stop offset="0" stop-color="#00d614"/><stop offset="1" stop-color="#4b9100"/></linearGradient><linearGradient x1="192.24183" y1="170.25524" x2="192.24183" y2="124.81674" gradientUnits="userSpaceOnUse" id="color-10"><stop offset="0" stop-color="#00d614"/><stop offset="1" stop-color="#4b9100"/></linearGradient><linearGradient x1="211.53537" y1="153.07599" x2="211.53537" y2="107.63749" gradientUnits="userSpaceOnUse" id="color-11"><stop offset="0" stop-color="#00d614"/><stop offset="1" stop-color="#4b9100"/></linearGradient><linearGradient x1="131.51207" y1="172.88543" x2="131.51207" y2="127.44692" gradientUnits="userSpaceOnUse" id="color-12"><stop offset="0" stop-color="#00d614"/><stop offset="1" stop-color="#4b9100"/></linearGradient><linearGradient x1="306.036" y1="155.99451" x2="306.036" y2="110.55603" gradientUnits="userSpaceOnUse" id="color-13"><stop offset="0" stop-color="#00d614"/><stop offset="1" stop-color="#4b9100"/></linearGradient><linearGradient x1="359.07149" y1="170.56104" x2="359.07149" y2="125.12257" gradientUnits="userSpaceOnUse" id="color-14"><stop offset="0" stop-color="#00d614"/><stop offset="1" stop-color="#4b9100"/></linearGradient><linearGradient x1="245.27732" y1="178.70502" x2="245.27732" y2="133.26653" gradientUnits="userSpaceOnUse" id="color-15"><stop offset="0" stop-color="#00d614"/><stop offset="1" stop-color="#4b9100"/></linearGradient><linearGradient x1="295.88303" y1="155.97704" x2="295.88303" y2="129.76252" gradientUnits="userSpaceOnUse" id="color-16"><stop offset="0" stop-color="#00d614"/><stop offset="1" stop-color="#4b9100"/></linearGradient><linearGradient x1="218.1517" y1="178.90119" x2="218.1517" y2="137.24289" gradientUnits="userSpaceOnUse" id="color-17"><stop offset="0" stop-color="#00d614"/><stop offset="1" stop-color="#4b9100"/></linearGradient><linearGradient x1="288.86556" y1="185.04578" x2="288.86556" y2="143.3875" gradientUnits="userSpaceOnUse" id="color-18"><stop offset="0" stop-color="#00d614"/><stop offset="1" stop-color="#4b9100"/></linearGradient><linearGradient x1="271.17715" y1="169.29573" x2="271.17715" y2="127.63749" gradientUnits="userSpaceOnUse" id="color-19"><stop offset="0" stop-color="#00d614"/><stop offset="1" stop-color="#4b9100"/></linearGradient><linearGradient x1="344.54292" y1="187.45715" x2="344.54292" y2="145.79886" gradientUnits="userSpaceOnUse" id="color-20"><stop offset="0" stop-color="#00d614"/><stop offset="1" stop-color="#4b9100"/></linearGradient><linearGradient x1="184.53844" y1="171.97149" x2="184.53844" y2="130.3132" gradientUnits="userSpaceOnUse" id="color-21"><stop offset="0" stop-color="#00d614"/><stop offset="1" stop-color="#4b9100"/></linearGradient><linearGradient x1="135.91523" y1="185.32617" x2="135.91523" y2="143.66789" gradientUnits="userSpaceOnUse" id="color-22"><stop offset="0" stop-color="#00d614"/><stop offset="1" stop-color="#4b9100"/></linearGradient><linearGradient x1="240.24231" y1="192.79258" x2="240.24231" y2="151.13432" gradientUnits="userSpaceOnUse" id="color-23"><stop offset="0" stop-color="#00d614"/><stop offset="1" stop-color="#4b9100"/></linearGradient><linearGradient x1="193.84673" y1="171.95547" x2="193.84673" y2="147.92183" gradientUnits="userSpaceOnUse" id="color-24"><stop offset="0" stop-color="#00d614"/><stop offset="1" stop-color="#4b9100"/></linearGradient><linearGradient x1="218.1517" y1="164.90119" x2="218.1517" y2="123.24292" gradientUnits="userSpaceOnUse" id="color-25"><stop offset="0" stop-color="#00d614"/><stop offset="1" stop-color="#4b9100"/></linearGradient><linearGradient x1="288.86556" y1="171.04578" x2="288.86556" y2="129.3875" gradientUnits="userSpaceOnUse" id="color-26"><stop offset="0" stop-color="#00d614"/><stop offset="1" stop-color="#4b9100"/></linearGradient><linearGradient x1="271.17715" y1="155.29573" x2="271.17715" y2="113.63749" gradientUnits="userSpaceOnUse" id="color-27"><stop offset="0" stop-color="#00d614"/><stop offset="1" stop-color="#4b9100"/></linearGradient><linearGradient x1="344.54292" y1="173.45715" x2="344.54292" y2="131.79886" gradientUnits="userSpaceOnUse" id="color-28"><stop offset="0" stop-color="#00d614"/><stop offset="1" stop-color="#4b9100"/></linearGradient><linearGradient x1="184.53844" y1="157.97149" x2="184.53844" y2="116.31322" gradientUnits="userSpaceOnUse" id="color-29"><stop offset="0" stop-color="#00d614"/><stop offset="1" stop-color="#4b9100"/></linearGradient><linearGradient x1="135.91523" y1="171.32616" x2="135.91523" y2="129.66789" gradientUnits="userSpaceOnUse" id="color-30"><stop offset="0" stop-color="#00d614"/><stop offset="1" stop-color="#4b9100"/></linearGradient><linearGradient x1="240.24232" y1="178.79258" x2="240.24232" y2="137.13432" gradientUnits="userSpaceOnUse" id="color-31"><stop offset="0" stop-color="#00d614"/><stop offset="1" stop-color="#4b9100"/></linearGradient><linearGradient x1="193.84673" y1="157.95546" x2="193.84673" y2="133.92183" gradientUnits="userSpaceOnUse" id="color-32"><stop offset="0" stop-color="#00d614"/><stop offset="1" stop-color="#4b9100"/></linearGradient><linearGradient x1="242.1763" y1="254.32376" x2="242.1763" y2="194.87318" gradientUnits="userSpaceOnUse" id="color-33"><stop offset="0" stop-color="#424242"/><stop offset="1" stop-color="#424242" stop-opacity="0"/></linearGradient><linearGradient x1="242.17631" y1="101.78603" x2="242.17631" y2="129.16458" gradientUnits="userSpaceOnUse" id="color-34"><stop offset="0" stop-color="#4c4c4c"/><stop offset="1" stop-color="#4c4c4c" stop-opacity="0"/></linearGradient></defs><g transform="translate(-3.53494,-101.00627)"><g data-paper-data="{&quot;isPaintingLayer&quot;:true}" fill-rule="nonzero" stroke-linecap="butt" stroke-linejoin="miter" stroke-miterlimit="10" stroke-dasharray="" stroke-dashoffset="0" style="mix-blend-mode: normal"><path d="" data-paper-data="{&quot;index&quot;:null}" fill="#d9d9d9" stroke="#000000" stroke-width="1"/><path d="" data-paper-data="{&quot;index&quot;:null}" fill="none" stroke="#000000" stroke-width="1"/><path d="" data-paper-data="{&quot;index&quot;:null}" fill="#d9d9d9" stroke="#000000" stroke-width="1"/><path d="" data-paper-data="{&quot;index&quot;:null}" fill="none" stroke="#000000" stroke-width="1"/><path d="" data-paper-data="{&quot;index&quot;:null}" fill="#d9d9d9" stroke="#000000" stroke-width="1"/><path d="" data-paper-data="{&quot;index&quot;:null}" fill="none" stroke="#000000" stroke-width="1"/><path d="" data-paper-data="{&quot;index&quot;:null}" fill="#d9d9d9" stroke="#000000" stroke-width="1"/><path d="M7.51463,255.8321v-151.65166h467.75884v151.65165z" data-paper-data="{&quot;index&quot;:null}" fill="#c9c9c9" stroke="#616161" stroke-width="0.5"/><g data-paper-data="{&quot;index&quot;:null}" stroke="#616161" stroke-width="0"><path d="M11.49239,255.15642v-153.65465h54.7321v153.65465z" fill="#989898"/><path d="M3.53494,255.48675v-153.65465h13.55532v153.65465z" fill="#c9c9c9"/><path d="M56.18722,255.48674v-153.65465h13.55532v153.65465z" fill="#c9c9c9"/></g><g data-paper-data="{&quot;index&quot;:null}" stroke="none" stroke-width="0"><path d="M221.89432,180.00684v-46.39756h88.88116v46.39756z" fill="url(#color-1)"/><path d="M144.76361,173.16319v-46.39756h88.88116v46.39756z" fill="url(#color-2)"/><path d="M164.05713,190.70502v-46.39756h88.88116v46.39756z" fill="url(#color-3)"/><path d="M84.03386,170.47749v-46.39756h88.88116v46.39756z" fill="url(#color-4)"/><path d="M258.55779,187.7249v-46.39756h88.88116v46.39756z" fill="url(#color-5)"/><path d="M311.59328,172.85089v-46.39755h88.88116v46.39755z" fill="url(#color-6)"/><path d="M197.7991,164.53501v-46.39756h88.88117v46.39756z" fill="url(#color-7)"/><path d="M267.20661,168.11298v-26.76783h51.2776v26.76783z" fill="url(#color-8)"/></g><g data-paper-data="{&quot;index&quot;:null}" stroke="#616161" stroke-width="0"><path d="M422.41992,254.66092v-153.65465h54.7321v153.65465z" fill="#989898"/><path d="M414.46247,254.99125v-153.65465h13.55532v153.65465z" fill="#c9c9c9"/><path d="M467.11475,254.99124v-153.65465h13.55532v153.65465z" fill="#c9c9c9"/></g><g data-paper-data="{&quot;index&quot;:null}" stroke="none" stroke-width="0"><path d="M313.8131,118.11456v45.43851h-88.88115v-45.43851z" fill="url(#color-9)"/><path d="M236.68242,124.81674v45.4385h-88.88116v-45.4385z" fill="url(#color-10)"/><path d="M255.97593,107.63749v45.43851h-88.88116v-45.43851z" fill="url(#color-11)"/><path d="M175.95264,127.44692v45.4385h-88.88116v-45.4385z" fill="url(#color-12)"/><path d="M350.47658,110.55603v45.43851h-88.88116v-45.43851z" fill="url(#color-13)"/><path d="M403.51207,125.12258v45.43849h-88.88115v-45.4385z" fill="url(#color-14)"/><path d="M289.7179,133.26653v45.4385h-88.88117v-45.4385z" fill="url(#color-15)"/><path d="M321.52183,129.76252v26.21452h-51.27759v-26.21452z" fill="url(#color-16)"/></g><g data-paper-data="{&quot;index&quot;:null}" stroke="none" stroke-width="0"><path d="M258.89506,137.2429v41.65826h-81.48672v-41.65827z" fill="url(#color-17)"/><path d="M329.60891,143.3875v41.65826h-81.48673v-41.65826z" fill="url(#color-18)"/><path d="M311.9205,127.63749v41.65826h-81.48672v-41.65826z" fill="url(#color-19)"/><path d="M385.2863,145.79886l6.07526,28.78448c0,0 -96.19191,25.0214 -112.35674,19.70749c-10.45701,-3.43756 24.79474,-48.49197 24.79474,-48.49197z" fill="url(#color-20)"/><path d="M225.28182,130.31321v41.65826h-81.48673v-41.65827z" fill="url(#color-21)"/><path d="M176.65856,143.66789v41.65826h-81.48672v-41.65826z" fill="url(#color-22)"/><path d="M280.9857,151.13432v41.65827h-81.48673v-41.65827z" fill="url(#color-23)"/><path d="M217.35252,147.92183v24.03361h-47.01158v-24.03361z" fill="url(#color-24)"/></g><g data-paper-data="{&quot;index&quot;:null}" stroke="none" stroke-width="0"><path d="M258.89506,123.24292v41.65827h-81.48672v-41.65827z" fill="url(#color-25)"/><path d="M329.60891,129.3875v41.65826h-81.48673v-41.65826z" fill="url(#color-26)"/><path d="M311.92052,113.63749v41.65827h-81.48673v-41.65827z" fill="url(#color-27)"/><path d="M385.28629,131.79886v41.65827h-81.48673v-41.65827z" fill="url(#color-28)"/><path d="M225.28182,116.31322v41.65827h-81.48673v-41.65827z" fill="url(#color-29)"/><path d="M176.65856,129.66789v41.65826h-81.48672v-41.65826z" fill="url(#color-30)"/><path d="M280.98569,137.13432v41.65827h-81.48673v-41.65827z" fill="url(#color-31)"/><path d="M217.35252,133.92183v24.03361h-47.01158v-24.03361z" fill="url(#color-32)"/></g><path d="M243.22546,110.18192c102.85817,0 186.2412,18.42473 186.2412,41.15278c0,22.72805 -83.38303,41.15278 -186.2412,41.15278c-102.85816,0 -186.24119,-18.42473 -186.24119,-41.15278c0,-22.72805 83.38301,-41.15278 186.24119,-41.15278z" data-paper-data="{&quot;index&quot;:null}" fill="none" stroke="#b3b3b3" stroke-width="12.5"/><path d="M480.77687,194.87318v59.4506h-477.20111v-59.4506z" data-paper-data="{&quot;index&quot;:null}" fill="url(#color-33)" stroke="#616161" stroke-width="0"/><path d="M50.22923,188.2522l-43.29686,1.57762v-60.06006h40.29431z" data-paper-data="{&quot;index&quot;:null}" fill="#989898" stroke="none" stroke-width="0"/><path d="M3.57576,129.16458v-27.37857h477.20111v27.37857z" data-paper-data="{&quot;index&quot;:null}" fill="url(#color-34)" stroke="#616161" stroke-width="0"/></g></g></svg>