<svg version="1.1" xmlns="http://www.w3.org/2000/svg" xmlns:xlink="http://www.w3.org/1999/xlink" width="74.32383" height="88.04794" viewBox="0,0,74.32383,88.04794"><g transform="translate(-208.55641,-145.55404)"><g data-paper-data="{&quot;isPaintingLayer&quot;:true}" fill="#b1b1b1" fill-rule="nonzero" stroke="#000000" stroke-width="1.5" stroke-linecap="butt" stroke-linejoin="miter" stroke-miterlimit="10" stroke-dasharray="" stroke-dashoffset="0" style="mix-blend-mode: normal"><path d="M255.17422,203.15102l-22.58107,-26.46436l11.43733,-9.75345l22.58105,26.46436z" data-paper-data="{&quot;index&quot;:null}"/><path d="M246.92992,228.9556v-36.76232h18.24296v36.76232z"/><path d="M226.49035,197.12835l16.97201,-31.76717l25.34098,13.53873l-16.97202,31.76718c0,0 -6.55529,-3.50225 -10.31633,-5.51163c-4.53886,-2.42496 -15.02465,-8.0271 -15.02465,-8.0271z"/><path d="M282.13025,161.71373c0,8.51054 -7.34426,15.4097 -16.40387,15.4097c-9.05961,0 -16.40387,-6.89916 -16.40387,-15.4097c0,-8.51054 7.34426,-15.40969 16.40387,-15.40969c9.05961,0 16.40387,6.89915 16.40387,15.4097z" data-paper-data="{&quot;index&quot;:null}"/><path d="M209.61447,220.41792l24.43573,-28.12754l13.95804,12.12601l-24.43573,28.12754z"/><path d="M252.93067,217.45196l-18.45031,-29.49327l12.74101,-7.97551l18.45031,29.49327z" data-paper-data="{&quot;index&quot;:null}"/></g></g></svg>