<svg version="1.1" xmlns="http://www.w3.org/2000/svg" xmlns:xlink="http://www.w3.org/1999/xlink" width="77.68044" height="96.65601" viewBox="0,0,77.68044,96.65601"><g transform="translate(-206.3749,-134.46008)"><g data-paper-data="{&quot;isPaintingLayer&quot;:true}" fill="#b1b1b1" fill-rule="nonzero" stroke="#000000" stroke-width="1.5" stroke-linecap="butt" stroke-linejoin="miter" stroke-miterlimit="10" stroke-dasharray="" stroke-dashoffset="0" style="mix-blend-mode: normal"><path d="M254.90486,186.48256l-33.26007,10.19976l-4.40298,-14.37206l33.26006,-10.19973z" data-paper-data="{&quot;index&quot;:null}"/><path d="M247.51132,229.14396l-0.60705,-36.75732l18.24048,-0.30125l0.60705,36.75732z"/><path d="M207.41531,219.79411l20.71897,-30.96753l15.36737,10.28158l-20.71897,30.96753z"/><path d="M224.84366,193.10777l12.60951,-33.73725l26.91255,10.05873l-12.60951,33.73726c0,0 -6.96182,-2.60202 -10.95611,-4.09492c-4.82035,-1.80164 -15.95642,-5.96382 -15.95642,-5.96382z"/><path d="M271.75236,156.49222c-2.97956,7.97192 -12.27443,11.8632 -20.76066,8.6914c-8.48625,-3.17179 -12.95029,-12.20556 -9.97072,-20.17746c2.97956,-7.97192 12.27443,-11.86319 20.76066,-8.69139c8.48625,3.17179 12.95029,12.20555 9.97072,20.17746z" data-paper-data="{&quot;index&quot;:null}"/><path d="M280.96932,189.37285l-34.40142,-5.17775l2.23296,-14.8646l34.40142,5.17776z" data-paper-data="{&quot;index&quot;:null}"/></g></g></svg>