<svg version="1.1" xmlns="http://www.w3.org/2000/svg" xmlns:xlink="http://www.w3.org/1999/xlink" width="34.30503" height="101.40076" viewBox="0,0,34.30503,101.40076"><g transform="translate(-224.80984,-128.71062)"><g data-paper-data="{&quot;isPaintingLayer&quot;:true}" fill="#b1b1b1" fill-rule="nonzero" stroke="#000000" stroke-width="1.5" stroke-linecap="butt" stroke-linejoin="miter" stroke-miterlimit="10" stroke-dasharray="" stroke-dashoffset="0" style="mix-blend-mode: normal"><path d="M234.9344,227.46793l0.63795,-36.75679l18.24021,0.31657l-0.63795,36.75679z"/><path d="M226.02509,229.02763l0.64658,-37.2538l18.48686,0.32085l-0.64658,37.2538z"/><path d="M226.36864,195.32868l0.625,-36.01127l28.72655,0.49857l-0.625,36.01128c0,0 -7.43107,-0.12897 -11.6946,-0.20297c-5.14526,-0.08931 -17.03195,-0.29561 -17.03195,-0.29561z"/><path d="M258.36487,145.15533c-0.14769,8.50926 -7.61057,15.27993 -16.66881,15.12271c-9.05825,-0.15722 -16.28169,-7.18279 -16.13399,-15.69203c0.14769,-8.50926 7.61057,-15.27992 16.66881,-15.1227c9.05825,0.15722 16.28169,7.18278 16.13399,15.69203z" data-paper-data="{&quot;index&quot;:null}"/></g></g></svg>