<svg version="1.1" xmlns="http://www.w3.org/2000/svg" xmlns:xlink="http://www.w3.org/1999/xlink" width="57.27493" height="102.51154" viewBox="0,0,57.27493,102.51154"><g transform="translate(-209.93931,-132.75108)"><g data-paper-data="{&quot;isPaintingLayer&quot;:true}" fill="#b1b1b1" fill-rule="nonzero" stroke="#000000" stroke-width="1.5" stroke-linecap="butt" stroke-linejoin="miter" stroke-miterlimit="10" stroke-dasharray="" stroke-dashoffset="0" style="mix-blend-mode: normal"><path d="M214.37705,189.06561l27.27894,-21.58997l9.32511,11.78916l-27.27894,21.58993z" data-paper-data="{&quot;index&quot;:null}"/><path d="M249.13593,234.29937l-12.72595,-34.48939l17.11504,-6.31513l12.72596,34.4894z"/><path d="M220.0678,227.97243l-0.89625,-37.24863l18.48429,-0.44476l0.89625,37.24864z"/><path d="M228.67732,200.06148l-5.72076,-35.55945l28.36613,-4.56352l5.72077,35.55947c0,0 -7.33785,1.1805 -11.54787,1.8578c-5.08071,0.81737 -16.81825,2.7057 -16.81825,2.7057z"/><path d="M255.01554,148.91077c0,8.51054 -7.34426,15.4097 -16.40387,15.4097c-9.05961,0 -16.40387,-6.89916 -16.40387,-15.4097c0,-8.51054 7.34426,-15.40969 16.40387,-15.40969c9.05961,0 16.40387,6.89915 16.40387,15.4097z" data-paper-data="{&quot;index&quot;:null}"/><path d="M243.8864,194.71826l-32.99838,-11.01698l4.75611,-14.2591l32.99838,11.01699z" data-paper-data="{&quot;index&quot;:null}"/></g></g></svg>