<svg version="1.1" xmlns="http://www.w3.org/2000/svg" xmlns:xlink="http://www.w3.org/1999/xlink" width="61.32754" height="102.27187" viewBox="0,0,61.32754,102.27187"><g transform="translate(-203.99664,-131.28984)"><g data-paper-data="{&quot;isPaintingLayer&quot;:true}" fill="#b1b1b1" fill-rule="nonzero" stroke="#000000" stroke-width="1.5" stroke-linecap="butt" stroke-linejoin="miter" stroke-miterlimit="10" stroke-dasharray="" stroke-dashoffset="0" style="mix-blend-mode: normal"><path d="M242.53248,228.85545l-2.52419,-37.17381l18.44717,-1.2526l2.52419,37.17381z"/><path d="M264.4818,138.37118l-4.58775,34.48506l-14.90066,-1.97802l4.58776,-34.48507z" data-paper-data="{&quot;index&quot;:null}"/><path d="M233.75709,232.67586l-7.41428,-36.0069l17.86809,-3.67926l7.41428,36.0069z"/><path d="M230.76714,200.43527l-6.50241,-35.42486l28.25877,-5.18703l6.50241,35.42487c0,0 -7.31008,1.3418 -11.50417,2.11164c-5.06148,0.92906 -16.7546,3.07538 -16.7546,3.07538z"/><path d="M254.58757,149.61177c-1.11172,8.43762 -9.29428,14.31829 -18.27626,13.13484c-8.98198,-1.18344 -15.36208,-8.98286 -14.25036,-17.42048c1.11172,-8.43762 9.29428,-14.31828 18.27626,-13.13483c8.98198,1.18344 15.36208,8.98285 14.25036,17.42048z" data-paper-data="{&quot;index&quot;:null}"/><path d="M210.77682,167.23913l32.09968,13.41184l-5.79884,13.86779l-32.09966,-13.41185z" data-paper-data="{&quot;index&quot;:null}"/></g></g></svg>