<svg version="1.1" xmlns="http://www.w3.org/2000/svg" xmlns:xlink="http://www.w3.org/1999/xlink" width="80.59156" height="95.79121" viewBox="0,0,80.59156,95.79121"><g transform="translate(-206.9071,-130.87867)"><g data-paper-data="{&quot;isPaintingLayer&quot;:true}" fill="#b1b1b1" fill-rule="nonzero" stroke="#000000" stroke-width="1.5" stroke-linecap="butt" stroke-linejoin="miter" stroke-miterlimit="10" stroke-dasharray="" stroke-dashoffset="0" style="mix-blend-mode: normal"><path d="M207.8182,215.19637l9.14187,-36.1205l17.92447,4.53655l-9.14187,36.1205z"/><path d="M264.96606,143.22849l-26.13985,22.95594l-9.92185,-11.29153l26.13987,-22.95593z" data-paper-data="{&quot;index&quot;:null}"/><path d="M224.22949,186.42397l16.03022,-32.2271l24.7527,12.60469l-16.03023,32.22712c0,0 -6.4031,-3.26062 -10.07686,-5.13138c-4.43349,-2.25765 -14.67585,-7.47332 -14.67585,-7.47332z"/><path d="M231.30589,225.90164l-0.52826,-36.61919l18.12056,-0.44153l0.52821,36.61919z"/><path d="M269.24589,154.70765c-3.82552,7.60229 -13.48719,10.46388 -21.57994,6.39154c-8.09276,-4.07234 -11.55201,-13.53647 -7.72649,-21.13877c3.82552,-7.60229 13.48718,-10.46386 21.57995,-6.39153c8.09276,4.07234 11.55203,13.53646 7.72649,21.13877z" data-paper-data="{&quot;index&quot;:null}"/><path d="M250.32721,164.96095l26.2551,-22.82403l9.85843,11.34694l-26.25511,22.82402z" data-paper-data="{&quot;index&quot;:null}"/></g></g></svg>