<svg version="1.1" xmlns="http://www.w3.org/2000/svg" xmlns:xlink="http://www.w3.org/1999/xlink" width="46.78713" height="16.87855" viewBox="0,0,46.78713,16.87855"><defs><linearGradient x1="211.93808" y1="180.06849" x2="252.13564" y2="180.06849" gradientUnits="userSpaceOnUse" id="color-1"><stop offset="0" stop-color="#000000" stop-opacity="0"/><stop offset="1" stop-color="#000000"/></linearGradient><linearGradient x1="211.93808" y1="180.06849" x2="252.13564" y2="180.06849" gradientUnits="userSpaceOnUse" id="color-2"><stop offset="0" stop-color="#000000" stop-opacity="0"/><stop offset="1" stop-color="#000000"/></linearGradient></defs><g transform="translate(-211.43808,-171.56073)"><g data-paper-data="{&quot;isPaintingLayer&quot;:true}" fill-rule="nonzero" stroke-linecap="butt" stroke-linejoin="miter" stroke-miterlimit="10" stroke-dasharray="" stroke-dashoffset="0" style="mix-blend-mode: normal"><path d="M251.61854,185.06792l-23.45678,-0.00079c0,0 -6.88909,0.54604 -6.88935,-0.52639c-0.00004,-0.15331 0.76157,-0.52079 2.44678,-1.01046c1.75763,-0.51071 4.44191,-0.36681 4.44186,-0.54515c-0.00008,-0.30824 -4.66682,-0.48726 -4.6669,-0.99998c-0.00008,-0.51148 4.66651,-1.35666 4.66643,-1.6666c-0.00004,-0.17801 -3.85175,0.07327 -7.5432,0.00325c-4.36332,-0.08277 -8.67925,-0.48209 -8.6793,-0.66991c-0.00006,-0.23737 3.89805,-0.7931 7.93022,-1.10814c4.07858,-0.31867 8.29174,-0.39622 8.2917,-0.5585c-0.00009,-0.37343 -4.02936,-0.46855 -6.91491,-0.8841c-1.60957,-0.23179 -2.86328,-0.7929 -2.86334,-1.00487c-0.00016,-0.65835 9.77749,-1.16419 9.77749,-1.16419c0,0 14.30453,0.19526 23.45677,0.00079c1.92318,-0.04086 -2.11107,0.54688 -2.11102,0.94118c0.00005,0.38242 2.11124,0.60813 2.11131,0.8889c0.00007,0.26523 -3.55538,-0.08449 -3.55525,0.44442c0.00011,0.45666 3.5558,1.09961 3.55595,1.66672c0.00013,0.53531 -4.44417,1.10204 -4.44403,1.66667c0.00017,0.69029 4.44479,1.37741 4.44495,2.00006c0.00006,0.23224 -4.33322,0.45552 -4.33317,0.66664c0.00027,1.09311 4.3338,1.86046 4.3338,1.86046z" fill="url(#color-1)" stroke="url(#color-2)" stroke-width="1"/><path d="M257.46785,187.34851l-34.78729,0.3336l-0.1484,-15.03064l34.78729,-0.33359z" data-paper-data="{&quot;index&quot;:null}" fill="#b1b1b1" stroke="#000000" stroke-width="1.5"/></g></g></svg>