<svg version="1.1" xmlns="http://www.w3.org/2000/svg" xmlns:xlink="http://www.w3.org/1999/xlink" width="71.32618" height="102.41102" viewBox="0,0,71.32618,102.41102"><g transform="translate(-202.00982,-129.83238)"><g data-paper-data="{&quot;isPaintingLayer&quot;:true}" fill="#b1b1b1" fill-rule="nonzero" stroke="#000000" stroke-width="1.5" stroke-linecap="butt" stroke-linejoin="miter" stroke-miterlimit="10" stroke-dasharray="" stroke-dashoffset="0" style="mix-blend-mode: normal"><path d="M258.28733,198.72149l-12.16649,-32.59208l14.08367,-5.25283l12.16647,32.59208z" data-paper-data="{&quot;index&quot;:null}"/><path d="M228.99697,227.15503l5.07771,-36.40996l18.06811,2.51977l-5.07772,36.40995z"/><path d="M215.38443,223.35666l15.8964,-33.69819l16.72242,7.88844l-15.8964,33.69819z"/><path d="M224.38018,194.21585l4.97472,-35.67147l28.45549,3.96839l-4.97472,35.67148c0,0 -7.36097,-1.02656 -11.58426,-1.61553c-5.09671,-0.71078 -16.87123,-2.35286 -16.87123,-2.35286z"/><path d="M262.20836,148.27946c-1.1755,8.42897 -9.40229,14.24759 -18.37507,12.99625c-8.97278,-1.25134 -15.29371,-9.09878 -14.11821,-17.52775c1.1755,-8.42897 9.40229,-14.24758 18.37507,-12.99624c8.97278,1.25134 15.29371,9.09877 14.11821,17.52775z" data-paper-data="{&quot;index&quot;:null}"/><path d="M229.09384,192.88122l-26.02541,-23.0856l9.9715,-11.24773l26.0254,23.08561z" data-paper-data="{&quot;index&quot;:null}"/></g></g></svg>