<svg version="1.1" xmlns="http://www.w3.org/2000/svg" xmlns:xlink="http://www.w3.org/1999/xlink" width="88.29753" height="114.01015" viewBox="0,0,88.29753,114.01015"><g transform="translate(-192.55511,-117.87115)"><g data-paper-data="{&quot;isPaintingLayer&quot;:true}" fill-rule="nonzero" stroke-linejoin="miter" stroke-miterlimit="10" stroke-dasharray="" stroke-dashoffset="0" style="mix-blend-mode: normal"><path d="M266.508,153.28337l0.07969,34.78879l-15.03132,0.03869l-0.07968,-34.7888z" data-paper-data="{&quot;index&quot;:null}" fill="#b1b1b1" stroke="#000000" stroke-width="1.5" stroke-linecap="butt"/><path d="M255.2584,119.3834v36.76232h-18.24296v-36.76232z" data-paper-data="{&quot;index&quot;:null}" fill="#9b6a16" stroke="#000000" stroke-width="1.5" stroke-linecap="butt"/><path d="M243.6415,118.63753l0.82264,37.25033l-18.48513,0.40823l-0.82264,-37.25033z" data-paper-data="{&quot;index&quot;:null}" fill="#9b6a16" stroke="#000000" stroke-width="1.5" stroke-linecap="butt"/><g data-paper-data="{&quot;index&quot;:null}" stroke="#000000" stroke-linecap="butt"><path d="M226.49192,152.30338c0,0 11.88847,0 17.03451,0c4.26416,0 11.69636,0 11.69636,0v36.0167h-28.73087v-36.01669z" fill="#9b6a16" stroke-width="1.5"/><path d="M239.35012,181.28513c-0.82683,2.31511 -3.21469,1.02183 -5.46017,1.28054c-0.3971,0.26562 -0.87455,0.42051 -1.38817,0.42051c-0.21643,0 -0.42643,-0.0275 -0.6267,-0.0792c-1.59316,0.4345 -3.2667,-2.70313 -3.0761,-3.9243c0.37354,-2.39329 2.07941,-2.22301 3.50158,-3.38938c0.20918,-0.17155 -0.32449,-2.75919 0.90576,-3.30861c2.70183,-1.20663 5.317,0.2235 4.568,3.124c-0.20547,0.79568 1.30806,1.09609 1.62436,1.85456c0.56045,1.34394 0.43977,2.65452 -0.04857,4.02188z" fill="#b1b1b1" stroke-width="1"/><path d="M252.33935,157.73897c0.82238,0.95944 0.61356,2.54114 -0.05605,3.86273c-0.10663,1.28247 -1.1813,2.29006 -2.49131,2.29006c-0.18573,0 -0.36673,-0.02025 -0.54091,-0.05867c-2.35355,-0.47071 -5.20692,0.77953 -7.32167,-1.24711c-2.74224,-2.62797 -0.0548,-8.22359 3.70638,-8.22359c0.14315,0 6.26659,2.86679 6.70356,3.37659z" fill="#b1b1b1" stroke-width="1"/></g><g data-paper-data="{&quot;index&quot;:null}"><path d="M253.3086,196.05263l2.85665,1.65384l3.75874,1.05245l3.45804,1.05245h1.8042l-3.45805,2.1049h-2.85665l-1.95454,-0.9021l2.4056,3.45804l2.7063,2.4056l3.007,1.50349l4.96154,1.65385l1.8042,0.45105l-4.81119,2.85664l-6.61539,0.6014l-2.4056,-0.6014l-2.85665,-1.2028l3.30769,3.30769l2.85665,1.8042l4.20979,1.95455l5.41259,1.35315h3.6084l-3.007,2.1049l-5.86364,1.20279h-5.11189l-4.96154,-0.6014l-2.70629,-0.9021l1.35315,3.15735l2.10489,2.25524l2.85665,2.10489h-6.61539l-6.91609,-2.10489l-3.00699,-1.95455l-2.7063,-2.85665l-5.26224,-1.20279l-6.01399,-2.85665l-3.90909,-3.45804l-1.95455,-3.00699l-1.2028,-3.00699l-9.92308,-0.9021l7.66784,-2.10489l-0.3007,-1.95454h-9.77274l16.08742,-3.9091l-11.27623,-1.20279l15.48602,-3.15735l-10.07343,-1.5035l14.58393,-3.45805z" fill="#000000" stroke="#000000" stroke-width="4" stroke-linecap="round"/><path d="M257.61266,203.02441c0,8.51055 -7.34426,15.4097 -16.40387,15.4097c-9.05961,0 -16.40387,-6.89915 -16.40387,-15.40969c0,-8.51054 7.34426,-15.4097 16.40387,-15.4097c9.05961,0 16.40387,6.89916 16.40387,15.4097z" data-paper-data="{&quot;index&quot;:null}" fill="#b1b1b1" stroke="#000000" stroke-width="1.5" stroke-linecap="butt"/><path d="M238.16986,212.14113c-0.24502,-0.06125 -1.14652,-0.90696 -2.226,-2.01059c-0.85616,0.48827 -1.67192,0.87471 -2.32824,1.10318c-0.2369,0.11086 -0.49594,0.1823 -0.76868,0.20585c-0.12296,0.01935 -0.23264,0.02724 -0.32717,0.02282c-0.09965,-0.00466 -0.19337,-0.02223 -0.28199,-0.05087c-1.06727,-0.19312 -1.87675,-1.127 -1.87675,-2.24994c0,-0.76993 0.38053,-1.45097 0.96378,-1.86533c0.10824,-0.0769 0.22345,-0.1446 0.34451,-0.20199c0.12936,-0.09055 0.46,-0.30646 0.91481,-0.59729c-0.78855,-0.90358 -1.3591,-1.61073 -1.43164,-1.81336c-0.4088,-1.14185 -0.49992,-2.30651 1.02258,-3.06776c1.4453,-0.72265 3.15479,0.59502 4.64766,2.25879c1.24332,-0.73998 2.25774,-1.30426 2.40451,-1.2749c0.75321,0.15064 1.63501,0.39142 2.06108,1.03054c0.69495,1.04243 -0.20602,2.48943 -1.67556,3.8564c0.1036,0.14199 0.19953,0.27167 0.28702,0.38644c0.08106,0.10633 0.22698,0.21566 0.40619,0.33179c0.42505,0.12477 0.79872,0.36969 1.08172,0.69548c0.51055,0.38952 0.87517,0.86773 0.55968,1.4988c0,1.20115 -0.92616,2.18598 -2.10331,2.27933c-0.1093,0.01256 -0.22287,0.01315 -0.34165,0.00183c-0.35178,-0.02407 -0.68172,-0.12771 -0.97192,-0.29306c-0.05475,-0.02524 -0.1105,-0.05206 -0.16729,-0.08045z" fill="#000000" stroke="none" stroke-width="0.5" stroke-linecap="butt"/><path d="M249.01627,211.58787c-0.04619,0.02309 -0.09153,0.04491 -0.13606,0.06543c-0.23603,0.13448 -0.50438,0.21877 -0.79049,0.23835c-0.09661,0.00921 -0.18897,0.00872 -0.27786,-0.00149c-0.9574,-0.07592 -1.71066,-0.87691 -1.71066,-1.85382c-0.25659,-0.51325 0.03996,-0.9022 0.4552,-1.219c0.23017,-0.26496 0.53407,-0.46416 0.87978,-0.56564c0.14576,-0.09445 0.26443,-0.18338 0.33036,-0.26986c0.07116,-0.09334 0.14918,-0.1988 0.23344,-0.31429c-1.1952,-1.11178 -1.92796,-2.28864 -1.36275,-3.13647c0.34653,-0.51981 1.06372,-0.71565 1.67631,-0.83816c0.11937,-0.02388 0.94442,0.43507 1.95562,1.0369c1.21418,-1.35318 2.60452,-2.42486 3.78001,-1.83712c1.23827,0.61914 1.16415,1.56636 0.83168,2.49505c-0.059,0.16481 -0.52304,0.73995 -1.16438,1.47484c0.36991,0.23653 0.63881,0.41214 0.74402,0.48578c0.09846,0.04668 0.19218,0.10174 0.2802,0.16428c0.47437,0.337 0.78386,0.89092 0.78386,1.51711c0,0.9133 -0.65836,1.67284 -1.52639,1.82991c-0.07208,0.02329 -0.1483,0.03758 -0.22935,0.04137c-0.07689,0.0036 -0.16609,-0.00282 -0.2661,-0.01856c-0.22182,-0.01916 -0.4325,-0.07725 -0.62518,-0.16742c-0.5338,-0.18582 -1.19727,-0.50011 -1.8936,-0.89723c-0.87795,0.8976 -1.61116,1.58543 -1.81044,1.63525z" data-paper-data="{&quot;index&quot;:null}" fill="#000000" stroke="none" stroke-width="0.5" stroke-linecap="butt"/><path d="M242.92388,192.1839c6.50767,0.50059 7.68389,8.6282 0.28822,7.70663c-0.09116,0.01007 -0.18379,0.01524 -0.27763,0.01524c-0.4199,0 -0.81561,-0.10352 -1.16302,-0.28643l-0.02855,-0.01427c-2.77455,0 -6.99786,0.4758 -7.47277,-3.25174c-0.07728,-0.60654 -0.05474,-2.16367 0.40368,-2.60034c1.98527,-1.8911 5.77643,-1.75937 8.25006,-1.56909z" fill="#000000" stroke="none" stroke-width="0.5" stroke-linecap="butt"/><path d="M225.64425,211.0876l-3.15734,-3.15734c0,0 1.27626,-2.73337 2.101,-3.53386c0.36878,-0.35793 -0.24223,-0.81784 0.31948,-1.05634c0.77276,-0.3281 2.6914,-0.37134 2.6914,-0.37134c0,0 -1.80036,1.87191 -1.65385,3.30769c0.14651,1.43578 2.4056,4.05945 2.4056,4.05945l4.81119,10.67483" fill="none" stroke="#000000" stroke-width="4" stroke-linecap="round"/><path d="M236.46943,220.25894l3.30769,-2.7063l3.60839,-2.7063l1.8042,-3.90909l2.25525,4.20979l-2.25525,5.11189l6.61539,-2.7063l1.8042,-3.90909v-3.00699l1.8042,2.4056l1.8042,5.71329l-2.7063,3.75874l-15.33567,-1.35315l-4.96154,-5.41259l-1.5035,-3.45804l-0.15035,-4.36014l-3.00699,5.11189v3.45804z" fill="#000000" stroke="#000000" stroke-width="4" stroke-linecap="round"/></g><g data-paper-data="{&quot;index&quot;:null}" stroke="#000000" stroke-width="1.5" stroke-linecap="butt"><path d="M226.31262,153.10141l-0.17475,34.78845l-15.03115,-0.07977l0.17477,-34.78844z" data-paper-data="{&quot;index&quot;:null}" fill="#b1b1b1"/><path d="M226.25991,163.59338l-0.12205,24.29647l-15.03115,-0.07977l0.12599,-25.0787z" data-paper-data="{&quot;index&quot;:null}" fill="#9b6a16"/><path d="M219.07722,167.62096c1.36726,0.19226 2.31978,1.4565 2.12752,2.82376c-0.19226,1.36726 -1.4565,2.31978 -2.82376,2.12752c-1.36726,-0.19226 -2.31978,-1.4565 -2.12752,-2.82376c0.19226,-1.36726 1.4565,-2.31978 2.82376,-2.12752z" fill="#b1b1b1"/><path d="M216.13982,184.26732c-0.10719,-0.02022 -0.20598,-0.05351 -0.29757,-0.09801c-1.12612,-0.37158 -1.86035,-1.50592 -1.68939,-2.72172c0.06981,-0.49642 0.28092,-0.93816 0.58696,-1.29028c0.43298,-2.18988 6.31186,-3.06364 6.11836,0.42191c-0.12249,2.20641 -2.5899,4.08969 -4.71836,3.68809z" fill="#b1b1b1"/></g></g></g></svg>