<svg version="1.1" xmlns="http://www.w3.org/2000/svg" xmlns:xlink="http://www.w3.org/1999/xlink" width="70.56046" height="107.7187" viewBox="0,0,70.56046,107.7187"><g transform="translate(-204.37082,-125.62391)"><g data-paper-data="{&quot;isPaintingLayer&quot;:true}" fill="#b1b1b1" fill-rule="nonzero" stroke="#000000" stroke-width="1.5" stroke-linecap="butt" stroke-linejoin="miter" stroke-miterlimit="10" stroke-dasharray="" stroke-dashoffset="0" style="mix-blend-mode: normal"><path d="M230.81944,126.66166l29.14299,18.99878l-8.21244,12.58959l-29.14298,-18.99878z" data-paper-data="{&quot;index&quot;:null}"/><path d="M245.04723,219.97986l11.62917,-34.8745l17.30615,5.77087l-11.62917,34.8745z"/><path d="M224.77432,224.27805l16.24728,-33.53043l16.63917,8.06257l-16.24728,33.53043z"/><path d="M235.6232,199.49177l-9.34571,-34.78303l27.74677,-7.45517l9.34572,34.78305c0,0 -7.17763,1.92852 -11.29574,3.035c-4.96977,1.33531 -16.45104,4.42016 -16.45104,4.42016z"/><path d="M252.51674,142.43275c2.20835,8.21903 -3.09414,16.78759 -11.84345,19.1384c-8.7493,2.35082 -17.63222,-2.40632 -19.84056,-10.62535c-2.20835,-8.21903 3.09414,-16.78759 11.84345,-19.1384c8.7493,-2.35082 17.63222,2.40631 19.84056,10.62535z" data-paper-data="{&quot;index&quot;:null}"/><path d="M213.86412,134.31069l28.76354,19.5685l-8.45151,12.43039l-28.76354,-19.5685z" data-paper-data="{&quot;index&quot;:null}"/></g></g></svg>