<svg version="1.1" xmlns="http://www.w3.org/2000/svg" xmlns:xlink="http://www.w3.org/1999/xlink" width="45.41881" height="98.88164" viewBox="0,0,45.41881,98.88164"><g transform="translate(-219.79213,-130.19178)"><g data-paper-data="{&quot;isPaintingLayer&quot;:true}" fill="#b1b1b1" fill-rule="nonzero" stroke="#000000" stroke-width="1.5" stroke-linecap="butt" stroke-linejoin="miter" stroke-miterlimit="10" stroke-dasharray="" stroke-dashoffset="0" style="mix-blend-mode: normal"><path d="M260.75893,174.90748l-34.56642,3.92804l-1.69298,-14.93573l34.56641,-3.92804z" data-paper-data="{&quot;index&quot;:null}"/><path d="M222.68813,222.45997l11.421,-34.94323l17.34026,5.66756l-11.421,34.94323z"/><path d="M222.05722,228.11331l0.05476,-37.25937l18.48963,0.02717l-0.05476,37.25937z"/><path d="M220.56097,194.79951l2.94617,-35.896l28.63459,2.35019l-2.94616,35.89601c0,0 -7.4073,-0.60796 -11.65716,-0.95675c-5.1288,-0.42094 -16.97742,-1.39342 -16.97742,-1.39342z"/><path d="M254.04966,143.97206c1.15987,8.43113 -5.1756,16.26684 -14.15068,17.50155c-8.97508,1.2347 -17.19108,-4.59916 -18.35095,-13.03029c-1.15987,-8.43113 5.1756,-16.26683 14.15068,-17.50154c8.97508,-1.2347 17.19107,4.59915 18.35095,13.03029z" data-paper-data="{&quot;index&quot;:null}"/><path d="M264.26481,175.16013l-33.0665,10.81079l-4.67511,-14.28586l33.06652,-10.81078z" data-paper-data="{&quot;index&quot;:null}"/></g></g></svg>