<svg version="1.1" xmlns="http://www.w3.org/2000/svg" xmlns:xlink="http://www.w3.org/1999/xlink" width="84.09364" height="69.19433" viewBox="0,0,84.09364,69.19433"><g transform="translate(-199.14388,-184.33928)"><g data-paper-data="{&quot;isPaintingLayer&quot;:true}" fill="#b1b1b1" fill-rule="nonzero" stroke="#000000" stroke-width="1.5" stroke-linecap="butt" stroke-linejoin="miter" stroke-miterlimit="10" stroke-dasharray="" stroke-dashoffset="0" style="mix-blend-mode: normal"><path d="M212.68977,226.84772l36.30996,5.74933l-2.85306,18.01848l-36.30996,-5.74933z"/><path d="M200.16082,236.2664l32.74674,-17.77399l8.82018,16.25027l-32.74674,17.77399z"/><g><path d="M259.59068,245.89907l-10.63676,-33.12288l14.31284,-4.59181l10.63677,33.12289z" data-paper-data="{&quot;index&quot;:null}"/><path d="M224.934,227.01794l25.26939,-25.66436l20.47271,20.15765l-25.26941,25.66437c0,0 -5.29596,-5.21445 -8.33446,-8.2062c-3.66691,-3.61047 -12.13825,-11.95145 -12.13825,-11.95145z"/><path d="M241.9224,247.88052l-9.25653,-33.53481l14.48837,-4.00362l9.25653,33.53481z"/><path d="M270.45539,217.49641c-8.3229,1.77727 -16.60366,-3.96431 -18.49558,-12.82417c-1.89193,-8.85986 3.32142,-17.48295 11.6443,-19.26022c8.3229,-1.77727 16.60365,3.96431 18.49557,12.82417c1.89193,8.85986 -3.3214,17.48295 -11.6443,19.26022z" data-paper-data="{&quot;index&quot;:null}"/></g></g></g></svg>