<svg version="1.1" xmlns="http://www.w3.org/2000/svg" xmlns:xlink="http://www.w3.org/1999/xlink" width="64.94856" height="100.75241" viewBox="0,0,64.94856,100.75241"><g transform="translate(-207.78918,-130.23422)"><g data-paper-data="{&quot;isPaintingLayer&quot;:true}" fill="#b1b1b1" fill-rule="nonzero" stroke="#000000" stroke-width="1.5" stroke-linecap="butt" stroke-linejoin="miter" stroke-miterlimit="10" stroke-dasharray="" stroke-dashoffset="0" style="mix-blend-mode: normal"><path d="M257.26488,198.04363l-8.65507,-33.69505l14.55982,-3.7355l8.65505,33.69505z" data-paper-data="{&quot;index&quot;:null}"/><path d="M240.46065,229.28513l-3.07379,-36.63359l18.17908,-1.52534l3.07379,36.63359z"/><path d="M218.77333,226.1992l7.8515,-36.42276l18.07446,3.89623l-7.8515,36.42276z"/><path d="M226.27947,195.81144l2.82516,-35.90572l28.64235,2.25365l-2.82516,35.90573c0,0 -7.4093,-0.58298 -11.66032,-0.91746c-5.13018,-0.40366 -16.98202,-1.33619 -16.98202,-1.33619z"/><path d="M261.28289,147.68781c-0.66757,8.48432 -8.53037,14.78613 -17.56207,14.0755c-9.0317,-0.71064 -15.81216,-8.16463 -15.14459,-16.64894c0.66757,-8.48432 8.53037,-14.78612 17.56207,-14.07549c9.0317,0.71064 15.81216,8.16462 15.14459,16.64894z" data-paper-data="{&quot;index&quot;:null}"/><path d="M208.77774,190.11727l14.00532,-31.84522l13.7612,6.04744l-14.00533,31.84521z" data-paper-data="{&quot;index&quot;:null}"/></g></g></svg>