<svg version="1.1" xmlns="http://www.w3.org/2000/svg" xmlns:xlink="http://www.w3.org/1999/xlink" width="43.32708" height="101.4117" viewBox="0,0,43.32708,101.4117"><g transform="translate(-222.53091,-129.2256)"><g data-paper-data="{&quot;isPaintingLayer&quot;:true}" fill="#b1b1b1" fill-rule="nonzero" stroke="#000000" stroke-width="1.5" stroke-linecap="butt" stroke-linejoin="miter" stroke-miterlimit="10" stroke-dasharray="" stroke-dashoffset="0" style="mix-blend-mode: normal"><path d="M263.40494,175.34712l-34.58574,-3.75411l1.6263,-14.94313l34.58573,3.75413z" data-paper-data="{&quot;index&quot;:null}"/><path d="M234.17927,227.2111l3.45317,-36.59978l18.16229,1.71359l-3.45317,36.59978z"/><path d="M225.17662,228.08339l3.49986,-37.09468l18.40788,1.73677l-3.49986,37.09468z"/><path d="M228.1019,194.50988l3.38312,-35.85744l28.60385,2.69875l-3.38313,35.85745c0,0 -7.39934,-0.69811 -11.64465,-1.09867c-5.12328,-0.48338 -16.95919,-1.60008 -16.95919,-1.60008z"/><path d="M263.84939,146.93636c-0.79941,8.4729 -8.75925,14.65171 -17.77881,13.80071c-9.01956,-0.85099 -15.68329,-8.40951 -14.88388,-16.88243c0.79941,-8.4729 8.75925,-14.6517 17.77882,-13.8007c9.01956,0.85099 15.68329,8.4095 14.88388,16.88243z" data-paper-data="{&quot;index&quot;:null}"/><path d="M261.40534,178.92625l-31.39225,14.99313l-6.48199,-13.56195l31.39224,-14.99313z" data-paper-data="{&quot;index&quot;:null}"/></g></g></svg>