<svg version="1.1" xmlns="http://www.w3.org/2000/svg" xmlns:xlink="http://www.w3.org/1999/xlink" width="482.67826" height="153.71581" viewBox="0,0,482.67826,153.71581"><defs><linearGradient x1="240.14335" y1="101.78599" x2="240.14335" y2="129.16456" gradientUnits="userSpaceOnUse" id="color-1"><stop offset="0" stop-color="#565656"/><stop offset="1" stop-color="#565656" stop-opacity="0"/></linearGradient><linearGradient x1="240.14335" y1="254.32372" x2="240.14335" y2="194.87312" gradientUnits="userSpaceOnUse" id="color-2"><stop offset="0" stop-color="#424242"/><stop offset="1" stop-color="#424242" stop-opacity="0"/></linearGradient></defs><g transform="translate(1.33913,-101.32253)"><g data-paper-data="{&quot;isPaintingLayer&quot;:true}" fill-rule="nonzero" stroke-linecap="butt" stroke-linejoin="miter" stroke-miterlimit="10" stroke-dasharray="" stroke-dashoffset="0" style="mix-blend-mode: normal"><path d="" fill="#d9d9d9" stroke="#000000" stroke-width="1"/><path d="" fill="none" stroke="#000000" stroke-width="1"/><path d="" fill="#d9d9d9" stroke="#000000" stroke-width="1"/><path d="" fill="none" stroke="#000000" stroke-width="1"/><path d="" fill="#d9d9d9" stroke="#000000" stroke-width="1"/><path d="" fill="none" stroke="#000000" stroke-width="1"/><path d="" fill="#d9d9d9" stroke="#000000" stroke-width="1"/><g stroke="#616161" stroke-width="0.5"><g><g><g><path d="M-1.08913,103.94249v-2.36995h48.45228v2.36995z" fill="#b1b1b1"/><path d="M-1.08911,106.28554v-2.36995h48.45228v2.36995z" fill="#c9c9c9"/><path d="M95.54982,103.91559v2.36995h-48.45228v-2.36995z" data-paper-data="{&quot;index&quot;:null}" fill="#b1b1b1"/><path d="M95.54982,101.57254v2.36995h-48.45228v-2.36995z" data-paper-data="{&quot;index&quot;:null}" fill="#c9c9c9"/></g><g><path d="M94.25893,103.94249v-2.36995h48.45228v2.36995z" fill="#b1b1b1"/><path d="M94.25895,106.28554v-2.36995h48.45228v2.36995z" fill="#c9c9c9"/><path d="M190.89787,103.91559v2.36995h-48.45228v-2.36995z" data-paper-data="{&quot;index&quot;:null}" fill="#b1b1b1"/><path d="M190.89787,101.57254v2.36995h-48.45228v-2.36995z" data-paper-data="{&quot;index&quot;:null}" fill="#c9c9c9"/></g></g><g><g><path d="M190.63226,103.94249v-2.36995h48.45228v2.36995z" fill="#b1b1b1"/><path d="M190.63227,106.28554v-2.36995h48.45228v2.36995z" fill="#c9c9c9"/><path d="M287.27117,103.91559v2.36995h-48.45228v-2.36995z" data-paper-data="{&quot;index&quot;:null}" fill="#b1b1b1"/><path d="M287.27117,101.57254v2.36995h-48.45228v-2.36995z" data-paper-data="{&quot;index&quot;:null}" fill="#c9c9c9"/></g><g><path d="M285.98028,103.94249v-2.36995h48.45228v2.36995z" fill="#b1b1b1"/><path d="M285.9803,106.28554v-2.36995h48.45228v2.36995z" fill="#c9c9c9"/><path d="M382.61922,103.91559v2.36995h-48.45228v-2.36995z" data-paper-data="{&quot;index&quot;:null}" fill="#b1b1b1"/><path d="M382.61922,101.57254v2.36995h-48.45228v-2.36995z" data-paper-data="{&quot;index&quot;:null}" fill="#c9c9c9"/></g></g></g><path d="M382.96318,103.94249v-2.36995h48.45228v2.36995z" fill="#b1b1b1"/><path d="M382.96319,106.28554v-2.36995h48.45228v2.36995z" fill="#c9c9c9"/><path d="M479.60211,103.91559v2.36995h-48.45228v-2.36995z" data-paper-data="{&quot;index&quot;:null}" fill="#b1b1b1"/><path d="M479.60211,101.57253v2.36995h-48.45228v-2.36995z" data-paper-data="{&quot;index&quot;:null}" fill="#c9c9c9"/></g><g stroke="#616161" stroke-width="0.5"><g><g><g><path d="M-1.08913,111.76303v-5.99049h48.45228v5.99049z" fill="#b1b1b1"/><path d="M-1.08911,117.68553v-5.99049h48.45228v5.99049z" fill="#c9c9c9"/><path d="M95.54982,111.69505v5.99049h-48.45228v-5.99049z" data-paper-data="{&quot;index&quot;:null}" fill="#b1b1b1"/><path d="M95.54982,105.77254v5.99049h-48.45228v-5.99049z" data-paper-data="{&quot;index&quot;:null}" fill="#c9c9c9"/></g><g><path d="M94.25893,111.76303v-5.99049h48.45228v5.99049z" fill="#b1b1b1"/><path d="M94.25895,117.68553v-5.99049h48.45228v5.99049z" fill="#c9c9c9"/><path d="M190.89787,111.69504v5.99049h-48.45228v-5.99049z" data-paper-data="{&quot;index&quot;:null}" fill="#b1b1b1"/><path d="M190.89787,105.77254v5.99049h-48.45228v-5.99049z" data-paper-data="{&quot;index&quot;:null}" fill="#c9c9c9"/></g></g><g><g><path d="M190.63226,111.76303v-5.99049h48.45228v5.99049z" fill="#b1b1b1"/><path d="M190.63227,117.68553v-5.99049h48.45228v5.99049z" fill="#c9c9c9"/><path d="M287.27117,111.69504v5.99049h-48.45228v-5.99049z" data-paper-data="{&quot;index&quot;:null}" fill="#b1b1b1"/><path d="M287.27117,105.77254v5.99049h-48.45228v-5.99049z" data-paper-data="{&quot;index&quot;:null}" fill="#c9c9c9"/></g><g><path d="M285.98028,111.76303v-5.99049h48.45228v5.99049z" fill="#b1b1b1"/><path d="M285.9803,117.68553v-5.99049h48.45228v5.99049z" fill="#c9c9c9"/><path d="M382.61922,111.69504v5.99049h-48.45228v-5.99049z" data-paper-data="{&quot;index&quot;:null}" fill="#b1b1b1"/><path d="M382.61922,105.77254v5.99049h-48.45228v-5.99049z" data-paper-data="{&quot;index&quot;:null}" fill="#c9c9c9"/></g></g></g><path d="M382.96318,111.76303v-5.99049h48.45228v5.99049z" fill="#b1b1b1"/><path d="M382.96319,117.68553v-5.99049h48.45228v5.99049z" fill="#c9c9c9"/><path d="M479.60211,111.69504v5.99049h-48.45228v-5.99049z" data-paper-data="{&quot;index&quot;:null}" fill="#b1b1b1"/><path d="M479.60211,105.77253v5.99049h-48.45228v-5.99049z" data-paper-data="{&quot;index&quot;:null}" fill="#c9c9c9"/></g><g stroke="#616161" stroke-width="0.5"><g><g><g><path d="M-1.08913,127.89638v-10.35138h48.45228v10.35138z" fill="#b1b1b1"/><path d="M-1.08911,138.13028v-10.35138h48.45228v10.35138z" fill="#c9c9c9"/><path d="M95.54982,127.7789v10.35138h-48.45228v-10.35138z" data-paper-data="{&quot;index&quot;:null}" fill="#b1b1b1"/><path d="M95.54982,117.545v10.35138h-48.45228v-10.35138z" data-paper-data="{&quot;index&quot;:null}" fill="#c9c9c9"/></g><g><path d="M94.25893,127.89638v-10.35138h48.45228v10.35138z" fill="#b1b1b1"/><path d="M94.25895,138.13028v-10.35138h48.45228v10.35138z" fill="#c9c9c9"/><path d="M190.89787,127.77889v10.35138h-48.45228v-10.35138z" data-paper-data="{&quot;index&quot;:null}" fill="#b1b1b1"/><path d="M190.89787,117.545v10.35138h-48.45228v-10.35138z" data-paper-data="{&quot;index&quot;:null}" fill="#c9c9c9"/></g></g><g><g><path d="M190.63226,127.89638v-10.35138h48.45228v10.35138z" fill="#b1b1b1"/><path d="M190.63227,138.13028v-10.35138h48.45228v10.35138z" fill="#c9c9c9"/><path d="M287.27117,127.77889v10.35138h-48.45228v-10.35138z" data-paper-data="{&quot;index&quot;:null}" fill="#b1b1b1"/><path d="M287.27117,117.545v10.35138h-48.45228v-10.35138z" data-paper-data="{&quot;index&quot;:null}" fill="#c9c9c9"/></g><g><path d="M285.98028,127.89638v-10.35138h48.45228v10.35138z" fill="#b1b1b1"/><path d="M285.9803,138.13028v-10.35138h48.45228v10.35138z" fill="#c9c9c9"/><path d="M382.61922,127.77889v10.35138h-48.45228v-10.35138z" data-paper-data="{&quot;index&quot;:null}" fill="#b1b1b1"/><path d="M382.61922,117.545v10.35138h-48.45228v-10.35138z" data-paper-data="{&quot;index&quot;:null}" fill="#c9c9c9"/></g></g></g><path d="M382.96318,127.89638v-10.35138h48.45228v10.35138z" fill="#b1b1b1"/><path d="M382.96319,138.13028v-10.35138h48.45228v10.35138z" fill="#c9c9c9"/><path d="M479.60211,127.77889v10.35138h-48.45228v-10.35138z" data-paper-data="{&quot;index&quot;:null}" fill="#b1b1b1"/><path d="M479.60211,117.54499v10.35138h-48.45228v-10.35138z" data-paper-data="{&quot;index&quot;:null}" fill="#c9c9c9"/></g><g stroke="#616161" stroke-width="0.5"><g><g><g><path d="M-1.08912,152.93549v-14.91288h48.45228v14.91288z" fill="#b1b1b1"/><path d="M-1.08911,167.67913v-14.91288h48.45228v14.91288z" fill="#c9c9c9"/><path d="M95.54983,152.76624v14.91288h-48.45228v-14.91288z" data-paper-data="{&quot;index&quot;:null}" fill="#b1b1b1"/><path d="M95.54983,138.02261v14.91288h-48.45228v-14.91288z" data-paper-data="{&quot;index&quot;:null}" fill="#c9c9c9"/></g><g><path d="M94.25893,152.93549v-14.91288h48.45228v14.91288z" fill="#b1b1b1"/><path d="M94.25895,167.67913v-14.91288h48.45228v14.91288z" fill="#c9c9c9"/><path d="M190.89787,152.76624v14.91288h-48.45228v-14.91288z" data-paper-data="{&quot;index&quot;:null}" fill="#b1b1b1"/><path d="M190.89787,138.02259v14.91288h-48.45228v-14.91288z" data-paper-data="{&quot;index&quot;:null}" fill="#c9c9c9"/></g></g><g><g><path d="M190.63225,152.93549v-14.91288h48.45228v14.91288z" fill="#b1b1b1"/><path d="M190.63226,167.67913v-14.91288h48.45227v14.91288z" fill="#c9c9c9"/><path d="M287.27117,152.76624v14.91288h-48.45228v-14.91288z" data-paper-data="{&quot;index&quot;:null}" fill="#b1b1b1"/><path d="M287.27117,138.02259v14.91288h-48.45228v-14.91288z" data-paper-data="{&quot;index&quot;:null}" fill="#c9c9c9"/></g><g><path d="M285.98028,152.93548v-14.91288h48.45227v14.91288z" fill="#b1b1b1"/><path d="M285.98028,167.67911v-14.91288h48.45227v14.91288z" fill="#c9c9c9"/><path d="M382.61921,152.76624v14.91288h-48.45227v-14.91288z" data-paper-data="{&quot;index&quot;:null}" fill="#b1b1b1"/><path d="M382.61921,138.02259v14.91288h-48.45227v-14.91288z" data-paper-data="{&quot;index&quot;:null}" fill="#c9c9c9"/></g></g></g><path d="M382.96317,152.93548v-14.91288h48.45227v14.91288z" fill="#b1b1b1"/><path d="M382.96318,167.67911v-14.91288h48.45227v14.91288z" fill="#c9c9c9"/><path d="M479.6021,152.76624v14.91288h-48.45227v-14.91288z" data-paper-data="{&quot;index&quot;:null}" fill="#b1b1b1"/><path d="M479.6021,138.02259v14.91288h-48.45227v-14.91288z" data-paper-data="{&quot;index&quot;:null}" fill="#c9c9c9"/></g><g stroke="#616161" stroke-width="0.5"><g><g><g><path d="M0.3979,188.71437v-21.16678h48.45228v21.16678z" fill="#b1b1b1"/><path d="M0.39792,209.64091v-21.16677h48.45228v21.16677z" fill="#c9c9c9"/><path d="M97.03686,188.47414v21.16677h-48.45228v-21.16677z" data-paper-data="{&quot;index&quot;:null}" fill="#b1b1b1"/><path d="M97.03686,167.5476v21.16678h-48.45228v-21.16678z" data-paper-data="{&quot;index&quot;:null}" fill="#c9c9c9"/></g><g><path d="M95.74596,188.71437v-21.16678h48.45228v21.16678z" fill="#b1b1b1"/><path d="M95.74597,209.64091v-21.16678h48.45228v21.16678z" fill="#c9c9c9"/><path d="M192.38489,188.47414v21.16678h-48.45228v-21.16678z" data-paper-data="{&quot;index&quot;:null}" fill="#b1b1b1"/><path d="M192.38489,167.5476v21.16678h-48.45228v-21.16678z" data-paper-data="{&quot;index&quot;:null}" fill="#c9c9c9"/></g></g><g><g><path d="M192.11928,188.71437v-21.16678h48.45228v21.16678z" fill="#b1b1b1"/><path d="M192.11929,209.64091v-21.16678h48.45228v21.16678z" fill="#c9c9c9"/><path d="M288.75817,188.47414v21.16678h-48.45228v-21.16678z" data-paper-data="{&quot;index&quot;:null}" fill="#b1b1b1"/><path d="M288.75817,167.5476v21.16678h-48.45228v-21.16678z" data-paper-data="{&quot;index&quot;:null}" fill="#c9c9c9"/></g><g><path d="M287.46729,188.71437v-21.16678h48.45228v21.16678z" fill="#b1b1b1"/><path d="M287.46732,209.6409v-21.16677h48.45228v21.16677z" fill="#c9c9c9"/><path d="M384.10624,188.47414v21.16677h-48.45228v-21.16677z" data-paper-data="{&quot;index&quot;:null}" fill="#b1b1b1"/><path d="M384.10624,167.54758v21.16678h-48.45228v-21.16678z" data-paper-data="{&quot;index&quot;:null}" fill="#c9c9c9"/></g></g></g><path d="M384.4502,188.71437v-21.16678h48.45228v21.16678z" fill="#b1b1b1"/><path d="M384.45021,209.6409v-21.16677h48.45228v21.16677z" fill="#c9c9c9"/><path d="M481.08913,188.47414v21.16677h-48.45228v-21.16677z" data-paper-data="{&quot;index&quot;:null}" fill="#b1b1b1"/><path d="M481.08913,167.54758v21.16678h-48.45228v-21.16678z" data-paper-data="{&quot;index&quot;:null}" fill="#c9c9c9"/></g><g stroke="#616161" stroke-width="0.5"><g><g><g><path d="M0.3979,232.24485v-22.80227h48.45228v22.80227z" fill="#b1b1b1"/><path d="M0.39792,254.78833v-22.80227h48.45228v22.80227z" fill="#c9c9c9"/><path d="M97.03686,231.98607v22.80227h-48.45228v-22.80227z" data-paper-data="{&quot;index&quot;:null}" fill="#b1b1b1"/><path d="M97.03686,209.44258v22.80227h-48.45228v-22.80227z" data-paper-data="{&quot;index&quot;:null}" fill="#c9c9c9"/></g><g><path d="M95.74596,232.24485v-22.80227h48.45228v22.80227z" fill="#b1b1b1"/><path d="M95.74597,254.78833v-22.80227h48.45228v22.80227z" fill="#c9c9c9"/><path d="M192.38489,231.98607v22.80227h-48.45228v-22.80227z" data-paper-data="{&quot;index&quot;:null}" fill="#b1b1b1"/><path d="M192.38489,209.44257v22.80227h-48.45228v-22.80227z" data-paper-data="{&quot;index&quot;:null}" fill="#c9c9c9"/></g></g><g><g><path d="M192.11926,232.24485v-22.80227h48.45228v22.80227z" fill="#b1b1b1"/><path d="M192.11928,254.78833v-22.80227h48.45227v22.80227z" fill="#c9c9c9"/><path d="M288.75817,231.98607v22.80227h-48.45228v-22.80227z" data-paper-data="{&quot;index&quot;:null}" fill="#b1b1b1"/><path d="M288.75817,209.44257v22.80227h-48.45228v-22.80227z" data-paper-data="{&quot;index&quot;:null}" fill="#c9c9c9"/></g><g><path d="M287.46729,232.24485v-22.80227h48.45227v22.80227z" fill="#b1b1b1"/><path d="M287.46729,254.78833v-22.80227h48.45227v22.80227z" fill="#c9c9c9"/><path d="M384.10623,231.98607v22.80227h-48.45227v-22.80227z" data-paper-data="{&quot;index&quot;:null}" fill="#b1b1b1"/><path d="M384.10623,209.44257v22.80227h-48.45227v-22.80227z" data-paper-data="{&quot;index&quot;:null}" fill="#c9c9c9"/></g></g></g><path d="M384.45019,232.24485v-22.80227h48.45227v22.80227z" fill="#b1b1b1"/><path d="M384.4502,254.78831v-22.80227h48.45227v22.80227z" fill="#c9c9c9"/><path d="M481.08912,231.98605v22.80227h-48.45227v-22.80227z" data-paper-data="{&quot;index&quot;:null}" fill="#b1b1b1"/><path d="M481.08912,209.44256v22.80227h-48.45227v-22.80227z" data-paper-data="{&quot;index&quot;:null}" fill="#c9c9c9"/></g><path d="M-0.00579,129.16456v-27.37857h480.29827v27.37857z" fill="url(#color-1)" stroke="#616161" stroke-width="0"/><path d="M480.29248,194.87312v59.4506h-480.29827v-59.4506z" data-paper-data="{&quot;index&quot;:null}" fill="url(#color-2)" stroke="#616161" stroke-width="0"/></g></g></svg>