<svg version="1.1" xmlns="http://www.w3.org/2000/svg" xmlns:xlink="http://www.w3.org/1999/xlink" width="122.27015" height="36.75668" viewBox="0,0,122.27015,36.75668"><g transform="translate(-178.86902,-149.62128)"><g data-paper-data="{&quot;isPaintingLayer&quot;:true}" fill-rule="nonzero" stroke-linecap="butt" stroke-linejoin="miter" stroke-miterlimit="10" stroke-dasharray="" stroke-dashoffset="0" style="mix-blend-mode: normal"><path d="M181.36902,179.55933c0.31845,-9.04626 9.88012,-17.84591 27.13224,-23.07029c27.31169,-8.27068 63.55465,-4.44916 80.95092,8.53559c6.67701,4.98379 9.60713,10.59311 9.13868,16.08124" fill="none" stroke="#00abff" stroke-width="5"/><path d="M213.64994,177.86533c6.26894,-0.44784 14.44624,0.13373 21.17528,-1.90399c4.78643,-1.44945 13.92849,0.3659 19.42625,-2.32767c3.1725,-1.55433 2.86847,-7.50301 5.6401,-8.99868c6.50132,-3.50835 11.25783,-6.37925 11.25783,-6.37925c0,0 13.66942,4.7887 17.39451,7.56915c3.8772,2.89398 5.43065,9.46779 5.43065,9.46779c0,0 -9.96874,1.05676 -21.62672,2.72746c-2.73543,0.39201 -5.42919,2.45565 -8.20446,3.38626c-2.94893,0.0493 -5.73208,0.59223 -8.60216,1.06765c-2.3155,0.11817 -4.54622,0.171 -6.61258,0.30351c-1.75288,0.02212 -3.50377,0.00226 -5.22052,-0.16811c-3.53313,-0.32831 -6.83573,0.08659 -10.41752,0.08366c-3.50963,0 -6.9884,-0.25818 -10.48223,-0.2582c-3.50332,-0.00002 -6.98068,-0.18206 -10.44375,-0.28723c-3.44838,-0.56223 -6.96014,-0.51633 -10.39078,-1.09444c-1.00628,-0.33954 -2.26775,-0.5567 -3.60682,-0.69558c5.77847,-1.01951 9.87516,-2.106 15.28292,-2.49232z" fill="#71d0ff" stroke="#00abff" stroke-width="5"/><path d="M257.67873,159.02522c0.13269,-1.1869 2.62917,-1.12381 2.62917,-1.12381l3.51763,0.12399c5.21716,1.42168 8.25777,3.1003 12.3657,5.13289c0,0 1.73052,0.85779 -0.07372,1.68053c-1.80424,0.82274 -3.53476,-0.03505 -3.53476,-0.03505c-3.42614,-1.7011 -6.0273,-3.22582 -10.21832,-4.50499l-2.3219,-0.02357c0,0 -2.49647,-0.06309 -2.36378,-1.24998z" fill="#a4e1ff" stroke="none" stroke-width="0.5"/><path d="M251.05887,159.52689c1.00945,-1.08737 3.29659,-0.60745 3.29659,-0.60745l1.27613,0.27086c5.05943,1.28954 8.86624,3.45308 12.57285,5.50571c0,0 1.62777,0.9021 -0.26969,1.67599c-1.89746,0.77389 -3.52524,-0.12821 -3.52524,-0.12821c-3.21864,-1.78517 -6.6487,-3.86069 -11.10677,-4.94994l-0.9662,-0.19966c0,0 -2.28714,-0.47992 -1.27769,-1.56729z" fill="#a4e1ff" stroke="none" stroke-width="0.5"/><path d="M256.44019,165.32428c2.10859,-0.63853 3.45166,0.36395 3.45166,0.36395l1.46081,1.09036c1.94874,1.45456 3.78633,2.86929 5.47821,4.39743c0,0 1.16333,1.05205 -1.04952,1.60512c-2.21284,0.55308 -3.37617,-0.49897 -3.37617,-0.49897c-1.62462,-1.47115 -3.39445,-2.8268 -5.26971,-4.22652l-1.46081,-1.09036c0,0 -1.34307,-1.00248 0.76552,-1.64102z" fill="#a4e1ff" stroke="none" stroke-width="0.5"/><path d="M282.12842,172.53147c2.37138,-0.37633 3.16294,0.75109 3.16294,0.75109l0.88745,1.26399c1.48981,2.1842 0.93852,4.40721 2.14638,6.59845c-0.95204,-0.0003 -1.90408,-0.00096 -2.85611,-0.00222c-0.73827,-0.00098 -1.47,-0.00362 -2.1981,-0.00656c-0.72364,-1.96341 -0.45838,-3.94704 -1.83491,-5.837l-0.88745,-1.26399c0,0 -0.79156,-1.12742 1.57981,-1.50375z" fill="#a4e1ff" stroke="none" stroke-width="0.5"/><path d="M288.84879,181.94038c0,0 0.85367,1.11713 -1.49606,1.52299c-2.34973,0.40586 -3.2034,-0.71127 -3.2034,-0.71127c-0.27957,-0.37008 -0.497,-0.74202 -0.67047,-1.11506c0.65926,0.0026 1.32172,0.00485 1.98955,0.00573c1.05501,0.0014 2.11003,0.00206 3.16505,0.00231c0.0675,0.09851 0.13916,0.19695 0.21533,0.2953z" fill="#a4e1ff" stroke="none" stroke-width="0.5"/><path d="M279.49336,182.8836c0,0 0.4639,1.16793 -1.99268,1.38848c-2.45658,0.22055 -2.92048,-0.94738 -2.92048,-0.94738c-0.21196,-0.53825 -0.40103,-1.07969 -0.55004,-1.62332c0.33474,-0.01234 0.66908,-0.02504 1.00298,-0.03804c1.35683,-0.02599 2.68913,-0.03576 4.01469,-0.03767c0.12582,0.42115 0.27822,0.84066 0.44553,1.25792z" fill="#a4e1ff" stroke="none" stroke-width="0.5"/><path d="M273.76399,180.435c-0.27963,-0.30866 -0.65665,-0.99877 0.93633,-1.48117c2.10859,-0.63853 3.45166,0.36395 3.45166,0.36395l0.57113,0.7178c0.03501,0.36423 0.10041,0.7278 0.18881,1.09033c-1.28556,0.00237 -2.57795,0.01239 -3.89331,0.03765c-0.37034,0.01447 -0.74122,0.02857 -1.1126,0.04221c-0.05797,-0.25653 -0.10591,-0.51349 -0.14203,-0.77076z" fill="#a4e1ff" stroke="none" stroke-width="0.5"/><path d="M274.903,173.08923c-2.10859,0.63853 -3.45166,-0.36395 -3.45166,-0.36395l-0.75373,-0.85409c-0.0108,-0.63281 -0.44404,-1.29056 -1.20377,-1.81018c0,0 -1.34307,-1.00248 0.76552,-1.64102c2.10859,-0.63853 3.45166,0.36395 3.45166,0.36395c1.12842,0.89047 1.82187,1.93635 1.98083,2.97319l-0.02333,-0.30891c0,0 1.34307,1.00248 -0.76552,1.64102z" fill="#a4e1ff" stroke="none" stroke-width="0.5"/><path d="M266.42066,186.18283c-2.14427,-0.61109 -0.85893,-1.63054 -0.85893,-1.63054l1.06007,-0.83036c0.74075,-0.65098 0.93795,-1.25545 0.77882,-1.84142c1.74575,-0.02561 3.48822,-0.07167 5.22161,-0.12958c0.1557,0.42107 0.20669,0.84355 0.11563,1.25984c-0.13739,0.62814 -1.06874,1.15635 -1.60311,1.73453l-1.28448,1.02918c0,0 -1.28533,1.01945 -3.42961,0.40836z" fill="#a4e1ff" stroke="none" stroke-width="0.5"/><path d="M264.93995,179.2953c0,0 -1.34307,-1.00248 0.76552,-1.64102c2.10859,-0.63853 3.45166,0.36395 3.45166,0.36395c1.23982,0.93568 2.58962,2.07091 3.23687,3.24024c-1.73029,0.05686 -3.46945,0.10137 -5.21178,0.12518c-0.41744,-0.69508 -1.27355,-1.37493 -2.24228,-2.08835z" fill="#a4e1ff" stroke="none" stroke-width="0.5"/><path d="M246.17085,167.28455c2.10859,-0.63853 3.45166,0.36395 3.45166,0.36395l-0.2061,-0.08778c3.85679,1.74475 6.89542,3.88221 9.75248,6.01011c0,0 1.34307,1.00248 -0.76552,1.64102c-2.10859,0.63853 -3.45166,-0.36395 -3.45166,-0.36395c-2.61927,-1.95964 -5.41316,-3.96359 -8.97508,-5.56197l-0.5713,-0.36037c0,0 -1.34307,-1.00248 0.76552,-1.64102z" fill="#a4e1ff" stroke="none" stroke-width="0.5"/><path d="M191.28927,179.81342l-0.59185,-1.32982c0,0 -0.51718,-1.16286 1.92874,-1.40874c2.44592,-0.24588 2.9631,0.91698 2.9631,0.91698l0.60969,1.37179c0.10543,0.29619 0.22066,0.57886 0.34813,0.85112c-1.80375,-0.10235 -3.60487,-0.10353 -5.00062,-0.10355c-0.04705,0 -0.09407,-0.00007 -0.14106,-0.0002c-0.0398,-0.09809 -0.07849,-0.19726 -0.11613,-0.29758z" fill="#a4e1ff" stroke="none" stroke-width="0.5"/><path d="M202.70931,179.55591c0.58697,0.43812 0.51467,0.80673 0.24724,1.0829c0.19691,0.21686 0.40408,0.43172 0.6235,0.64354c-0.537,-0.06436 -1.07259,-0.13919 -1.60621,-0.22911c-1.06154,-0.35819 -2.40709,-0.58018 -3.82812,-0.71777l1.11193,-1.14349c0,0 2.10859,-0.63853 3.45166,0.36395z" fill="#a4e1ff" stroke="none" stroke-width="0.5"/><path d="M205.236,173.40322c2.49946,0.02478 2.44733,1.2131 2.44733,1.2131l-0.02854,0.62081c-0.02312,0.20519 -0.30703,2.35176 -0.17673,2.60721c0.58781,1.15245 1.97834,2.17741 2.92044,3.27542c0,0 0.32332,0.37685 0.12773,0.77946c-1.75374,-0.19499 -3.51716,-0.29019 -5.27152,-0.4452c-0.9841,-1.02773 -2.14402,-2.02864 -2.67167,-3.12513c-0.28607,-0.59448 0.00224,-2.5279 0.07881,-3.21793l0.02257,-0.54421c0,0 0.05213,-1.18831 2.55159,-1.16353z" fill="#a4e1ff" stroke="none" stroke-width="0.5"/><path d="M209.02788,182.6692c-2.31484,0.44891 -3.25905,-0.65163 -3.25905,-0.65163c-0.00476,-0.00555 -0.00953,-0.0111 -0.01431,-0.01665c1.42315,0.11793 2.85111,0.20707 4.27376,0.35123c-0.23374,0.12136 -0.55739,0.23114 -1.0004,0.31705z" fill="#a4e1ff" stroke="none" stroke-width="0.5"/><path d="M184.57389,179.14117c1.96506,-0.17642 2.65507,0.5356 2.85252,0.82759c-1.51593,-0.0928 -3.01761,-0.21503 -4.53215,-0.31648c0.28453,-0.22759 0.791,-0.43133 1.67963,-0.51111z" fill="#a4e1ff" stroke="none" stroke-width="0.5"/></g></g></svg>