<svg version="1.1" xmlns="http://www.w3.org/2000/svg" xmlns:xlink="http://www.w3.org/1999/xlink" width="78.9575" height="101.33056" viewBox="0,0,78.9575,101.33056"><g transform="translate(-197.17201,-129.33472)"><g data-paper-data="{&quot;isPaintingLayer&quot;:true}" fill="#b1b1b1" fill-rule="nonzero" stroke="#000000" stroke-width="1.5" stroke-linecap="butt" stroke-linejoin="miter" stroke-miterlimit="10" stroke-dasharray="" stroke-dashoffset="0" style="mix-blend-mode: normal"><path d="M262.70195,195.70898l-19.72393,-28.65717l12.38443,-8.51869l19.72391,28.65717z" data-paper-data="{&quot;index&quot;:null}"/><path d="M235.61411,228.20121v-36.76232h18.24296v36.76232z"/><path d="M226.73321,229.91528v-37.25941h18.48964v37.25941z"/><path d="M226.49192,196.21544v-36.01669h28.73087v36.0167c0,0 -7.4322,0 -11.69636,0c-5.14604,0 -17.03451,0 -17.03451,0z"/><path d="M257.61266,145.49441c0,8.51054 -7.34426,15.4097 -16.40387,15.4097c-9.05961,0 -16.40387,-6.89916 -16.40387,-15.4097c0,-8.51054 7.34426,-15.40969 16.40387,-15.40969c9.05961,0 16.40387,6.89915 16.40387,15.4097z" data-paper-data="{&quot;index&quot;:null}"/><path d="M229.84279,199.47657l-31.67804,-14.37945l6.20911,-13.68902l31.67804,14.37946z" data-paper-data="{&quot;index&quot;:null}"/></g></g></svg>