<svg version="1.1" xmlns="http://www.w3.org/2000/svg" xmlns:xlink="http://www.w3.org/1999/xlink" width="54.46897" height="101.34805" viewBox="0,0,54.46897,101.34805"><g transform="translate(-212.34995,-132.62307)"><g data-paper-data="{&quot;isPaintingLayer&quot;:true}" fill="#b1b1b1" fill-rule="nonzero" stroke="#000000" stroke-width="1.5" stroke-linecap="butt" stroke-linejoin="miter" stroke-miterlimit="10" stroke-dasharray="" stroke-dashoffset="0" style="mix-blend-mode: normal"><path d="M247.32561,199.02245l3.72278,-34.58912l14.9446,1.61276l-3.7228,34.58911z" data-paper-data="{&quot;index&quot;:null}"/><path d="M240.88247,229.96933l3.73392,-36.57221l18.14861,1.85293l-3.73392,36.57221z"/><path d="M217.37069,227.21578l11.70343,-35.37363l17.55383,5.80772l-11.70343,35.37363z"/><path d="M227.23634,197.45336l2.96493,-35.89444l28.63335,2.36515l-2.96493,35.89445c0,0 -7.40698,-0.61183 -11.65666,-0.96286c-5.12857,-0.42363 -16.97669,-1.4023 -16.97669,-1.4023z"/><path d="M262.34602,150.14103c-0.70059,8.48165 -8.58787,14.75281 -17.61674,14.00702c-9.02886,-0.74579 -15.78025,-8.22613 -15.07965,-16.70778c0.70059,-8.48165 8.58787,-14.7528 17.61673,-14.00701c9.02886,0.74579 15.78025,8.22612 15.07965,16.70778z" data-paper-data="{&quot;index&quot;:null}"/><path d="M213.29772,195.25529l10.93334,-33.02619l14.27109,4.71996l-10.93335,33.02618z" data-paper-data="{&quot;index&quot;:null}"/></g></g></svg>