<svg version="1.1" xmlns="http://www.w3.org/2000/svg" xmlns:xlink="http://www.w3.org/1999/xlink" width="52.47827" height="102.5091" viewBox="0,0,52.47827,102.5091"><g transform="translate(-210.484,-128.87578)"><g data-paper-data="{&quot;isPaintingLayer&quot;:true}" fill="#b1b1b1" fill-rule="nonzero" stroke="#000000" stroke-width="1.5" stroke-linecap="butt" stroke-linejoin="miter" stroke-miterlimit="10" stroke-dasharray="" stroke-dashoffset="0" style="mix-blend-mode: normal"><path d="M242.30607,193.66486l4.92837,-34.43803l14.87917,2.13364l-4.92839,34.43802z" data-paper-data="{&quot;index&quot;:null}"/><path d="M241.26722,227.10567v-36.76232h18.24296v36.76232z"/><path d="M223.4243,229.13862l2.90207,-37.14622l18.43347,1.44012l-2.90207,37.14622z"/><path d="M228.08671,196.22279l-2.65584,-35.91863l28.65265,-2.11859l2.65584,35.91864c0,0 -7.41196,0.54804 -11.66452,0.86248c-5.13203,0.37946 -16.98814,1.25611 -16.98814,1.25611z"/><path d="M254.82277,143.47584c0.77586,8.4751 -5.90885,16.01507 -14.93074,16.84099c-9.02188,0.82592 -16.96452,-5.37497 -17.74039,-13.85007c-0.77586,-8.4751 5.90885,-16.01506 14.93074,-16.84098c9.02188,-0.82592 16.96452,5.37496 17.74039,13.85007z" data-paper-data="{&quot;index&quot;:null}"/><path d="M211.36631,195.04931l6.80782,-34.11628l14.74159,2.9373l-6.80783,34.11628z" data-paper-data="{&quot;index&quot;:null}"/></g></g></svg>