<svg version="1.1" xmlns="http://www.w3.org/2000/svg" xmlns:xlink="http://www.w3.org/1999/xlink" width="8.87675" height="14.85249" viewBox="0,0,8.87675,14.85249"><defs><radialGradient cx="240" cy="180.00001" r="7.42624" gradientUnits="userSpaceOnUse" id="color-1"><stop offset="0" stop-color="#ec0000"/><stop offset="1" stop-color="#ec0000" stop-opacity="0"/></radialGradient></defs><g transform="translate(-235.56163,-172.57376)"><g data-paper-data="{&quot;isPaintingLayer&quot;:true}" fill="url(#color-1)" fill-rule="nonzero" stroke="none" stroke-width="0" stroke-linecap="butt" stroke-linejoin="miter" stroke-miterlimit="10" stroke-dasharray="" stroke-dashoffset="0" style="mix-blend-mode: normal"><path d="M243.24136,185.13066c-1.6745,2.96517 -4.48314,3.07184 -6.2733,0.23825c-1.79015,-2.83358 -1.8839,-7.53439 -0.20941,-10.49957c0.01457,-0.02579 0.02922,-0.05138 0.04396,-0.07675c0.00573,0.14381 0.04261,0.28451 0.1101,0.39135c0.14219,0.22506 0.36642,0.21453 0.50085,-0.02351c0.13443,-0.23805 0.12814,-0.61346 -0.01404,-0.83853c-0.0532,-0.08421 -0.11789,-0.13543 -0.18506,-0.15411c0.63066,-0.84135 1.37119,-1.351 2.13678,-1.52575c-0.05266,0.11395 -0.04612,0.27842 0.01773,0.37948c0.068,0.10764 0.17525,0.10261 0.23954,-0.01124c0.06429,-0.11384 0.06128,-0.2934 -0.00672,-0.40103c-0.00248,-0.00392 -0.00501,-0.00769 -0.00758,-0.01131c0.90499,-0.1223 1.83227,0.21858 2.64417,1.02787c-0.01432,0.01359 -0.02769,0.03093 -0.03959,0.052c-0.06429,0.11384 -0.06128,0.29339 0.00672,0.40102c0.068,0.10764 0.17525,0.10261 0.23953,-0.01124c0.02739,-0.04851 0.04257,-0.10895 0.0457,-0.17067c0.18849,0.21772 0.36954,0.46241 0.5412,0.73414c0.14361,0.22731 0.27629,0.46663 0.39802,0.71611c-0.11585,-0.03921 -0.2408,0.01948 -0.32798,0.17386c-0.11508,0.20379 -0.12704,0.50825 -0.03889,0.73287c-0.12559,-0.06696 -0.26859,-0.01341 -0.36521,0.15768c-0.13443,0.23805 -0.12814,0.61346 0.01404,0.83852c0.14219,0.22506 0.36642,0.21452 0.50085,-0.02351c0.11508,-0.20379 0.12703,-0.50825 0.03889,-0.73286c0.12559,0.06696 0.2686,0.0134 0.36521,-0.15769c0.05543,-0.09816 0.08694,-0.21969 0.09485,-0.34438c0.16661,0.42706 0.30471,0.87645 0.41417,1.34039c-0.06809,-0.0893 -0.16686,-0.07868 -0.22747,0.02865c-0.06429,0.11384 -0.06129,0.2934 0.00671,0.40103c0.068,0.10764 0.17524,0.1026 0.23953,-0.01124c0.02282,-0.0404 0.03717,-0.0891 0.04313,-0.13992c0.5296,2.53555 0.22224,5.45056 -0.94647,7.52008zM239.25877,184.86363c-0.13443,0.23805 -0.12814,0.61346 0.01404,0.83852c0.14219,0.22506 0.36642,0.21452 0.50085,-0.02351c0.13443,-0.23805 0.12813,-0.61346 -0.01405,-0.83852c-0.14219,-0.22506 -0.36642,-0.21452 -0.50085,0.02351zM241.16971,185.24161c-0.13443,0.23805 -0.12814,0.61346 0.01404,0.83852c0.14219,0.22506 0.36642,0.21452 0.50086,-0.02351c0.13443,-0.23805 0.12813,-0.61346 -0.01405,-0.83852c-0.14219,-0.22506 -0.36642,-0.21453 -0.50085,0.02351zM240.14002,181.37848c-0.13443,0.23805 -0.12814,0.61346 0.01404,0.83853c0.14219,0.22506 0.36642,0.21452 0.50085,-0.02351c0.13443,-0.23805 0.12814,-0.61346 -0.01404,-0.83853c-0.14219,-0.22506 -0.36642,-0.21452 -0.50085,0.02351zM240.74261,178.69296c-0.13443,0.23805 -0.12814,0.61346 0.01404,0.83853c0.14219,0.22506 0.36642,0.21452 0.50085,-0.02352c0.13443,-0.23805 0.12814,-0.61346 -0.01404,-0.83852c-0.14219,-0.22506 -0.36642,-0.21453 -0.50085,0.02351zM237.76236,178.15259c-0.13443,0.23805 -0.12814,0.61346 0.01404,0.83852c0.14219,0.22506 0.36642,0.21453 0.50085,-0.02351c0.13443,-0.23805 0.12814,-0.61346 -0.01404,-0.83852c-0.14219,-0.22506 -0.36642,-0.21452 -0.50085,0.02351zM236.83345,181.06602c-0.13443,0.23805 -0.12814,0.61346 0.01404,0.83852c0.14219,0.22506 0.36642,0.21452 0.50085,-0.02351c0.13443,-0.23805 0.12813,-0.61346 -0.01405,-0.83852c-0.14219,-0.22506 -0.36642,-0.21453 -0.50085,0.02351zM240.07267,174.32401c-0.13443,0.23805 -0.12814,0.61346 0.01404,0.83853c0.14219,0.22506 0.36642,0.21453 0.50085,-0.02351c0.13443,-0.23805 0.12814,-0.61346 -0.01404,-0.83853c-0.14219,-0.22506 -0.36642,-0.21453 -0.50085,0.02351zM243.68004,180.29827c0.04967,0.00708 0.10072,-0.02241 0.13763,-0.08776c0.06429,-0.11384 0.06128,-0.2934 -0.00672,-0.40103c-0.068,-0.10764 -0.17524,-0.1026 -0.23953,0.01124c-0.04727,0.0837 -0.05816,0.20289 -0.0336,0.30292c-0.04967,-0.00708 -0.10072,0.02241 -0.13763,0.08776c-0.06429,0.11384 -0.06128,0.2934 0.00672,0.40103c0.068,0.10764 0.17525,0.1026 0.23953,-0.01124c0.04727,-0.0837 0.05815,-0.20289 0.03359,-0.30292zM236.83141,177.24096c0.01958,-0.01476 0.0378,-0.03605 0.05346,-0.06379c0.06429,-0.11384 0.06128,-0.29339 -0.00672,-0.40102c-0.068,-0.10764 -0.17525,-0.1026 -0.23953,0.01124c-0.06125,0.10845 -0.06142,0.27653 -0.00251,0.38527c-0.01958,0.01476 -0.03779,0.03604 -0.05345,0.06378c-0.06429,0.11384 -0.06129,0.2934 0.00671,0.40103c0.068,0.10764 0.17525,0.1026 0.23953,-0.01124c0.06125,-0.10845 0.06142,-0.27653 0.00251,-0.38526zM236.22834,178.82616c-0.06429,0.11384 -0.06129,0.2934 0.00671,0.40103c0.068,0.10764 0.17524,0.1026 0.23953,-0.01124c0.06429,-0.11384 0.06129,-0.2934 -0.00671,-0.40103c-0.068,-0.10764 -0.17524,-0.1026 -0.23953,0.01125zM241.05242,174.22058c-0.06429,0.11384 -0.06129,0.2934 0.00671,0.40103c0.068,0.10764 0.17524,0.1026 0.23953,-0.01124c0.06429,-0.11384 0.06129,-0.29339 -0.00671,-0.40102c-0.068,-0.10764 -0.17524,-0.10261 -0.23953,0.01124zM237.34934,182.8338c-0.06429,0.11384 -0.06129,0.2934 0.00671,0.40103c0.068,0.10764 0.17525,0.1026 0.23953,-0.01125c0.06429,-0.11384 0.06129,-0.2934 -0.00671,-0.40103c-0.068,-0.10764 -0.17525,-0.1026 -0.23953,0.01125zM243.74928,181.34295c-0.06429,0.11384 -0.06129,0.2934 0.00671,0.40103c0.068,0.10764 0.17525,0.1026 0.23953,-0.01124c0.06429,-0.11384 0.06129,-0.2934 -0.00671,-0.40103c-0.068,-0.10764 -0.17525,-0.1026 -0.23953,0.01124zM242.40132,179.70559c-0.06429,0.11384 -0.06128,0.2934 0.00672,0.40103c0.068,0.10764 0.17525,0.1026 0.23953,-0.01125c0.06429,-0.11384 0.06128,-0.2934 -0.00672,-0.40103c-0.068,-0.10764 -0.17525,-0.1026 -0.23953,0.01124zM240.25441,184.95077c-0.06429,0.11384 -0.06129,0.2934 0.00671,0.40103c0.068,0.10764 0.17525,0.1026 0.23954,-0.01124c0.06429,-0.11384 0.06128,-0.2934 -0.00672,-0.40103c-0.068,-0.10764 -0.17525,-0.1026 -0.23953,0.01124zM241.84948,175.56493c-0.06429,0.11384 -0.06129,0.2934 0.00671,0.40103c0.068,0.10764 0.17524,0.10261 0.23953,-0.01124c0.06429,-0.11384 0.06128,-0.2934 -0.00672,-0.40103c-0.068,-0.10764 -0.17524,-0.1026 -0.23953,0.01124zM242.86471,179.32245c-0.06429,0.11384 -0.06128,0.2934 0.00672,0.40103c0.068,0.10764 0.17525,0.1026 0.23953,-0.01124c0.06429,-0.11384 0.06129,-0.2934 -0.00671,-0.40103c-0.068,-0.10764 -0.17525,-0.1026 -0.23954,0.01124zM242.25026,180.54174c-0.06429,0.11384 -0.06128,0.2934 0.00672,0.40103c0.068,0.10764 0.17524,0.1026 0.23953,-0.01125c0.06429,-0.11384 0.06128,-0.2934 -0.00672,-0.40103c-0.068,-0.10764 -0.17525,-0.1026 -0.23953,0.01125zM241.89217,182.66307c-0.06429,0.11384 -0.06129,0.2934 0.00671,0.40103c0.068,0.10764 0.17524,0.1026 0.23953,-0.01124c0.06429,-0.11384 0.06129,-0.2934 -0.00671,-0.40103c-0.068,-0.10764 -0.17524,-0.1026 -0.23953,0.01124zM240.08888,176.58292c-0.06429,0.11384 -0.06128,0.29339 0.00672,0.40102c0.068,0.10764 0.17525,0.10261 0.23953,-0.01124c0.06429,-0.11384 0.06129,-0.2934 -0.00671,-0.40103c-0.068,-0.10764 -0.17525,-0.1026 -0.23954,0.01124zM241.86489,181.79278c-0.06429,0.11384 -0.06128,0.2934 0.00672,0.40103c0.068,0.10764 0.17524,0.1026 0.23953,-0.01125c0.06429,-0.11384 0.06128,-0.2934 -0.00672,-0.40103c-0.068,-0.10764 -0.17525,-0.1026 -0.23953,0.01125zM241.87935,184.173c-0.06429,0.11384 -0.06128,0.2934 0.00672,0.40103c0.068,0.10764 0.17525,0.10261 0.23953,-0.01124c0.06429,-0.11384 0.06129,-0.2934 -0.00671,-0.40103c-0.068,-0.10764 -0.17525,-0.10261 -0.23954,0.01124zM242.504,185.07902c-0.06429,0.11384 -0.06128,0.2934 0.00672,0.40103c0.068,0.10764 0.17525,0.1026 0.23953,-0.01124c0.06429,-0.11384 0.06129,-0.29339 -0.00671,-0.40102c-0.068,-0.10764 -0.17525,-0.10261 -0.23954,0.01124zM238.30909,174.17928c-0.06429,0.11384 -0.06129,0.2934 0.00671,0.40103c0.068,0.10764 0.17524,0.1026 0.23953,-0.01124c0.06429,-0.11384 0.06129,-0.2934 -0.00671,-0.40103c-0.068,-0.10764 -0.17524,-0.1026 -0.23953,0.01124zM237.65598,176.12315c-0.06429,0.11384 -0.06129,0.2934 0.00671,0.40103c0.068,0.10764 0.17524,0.1026 0.23953,-0.01124c0.06429,-0.11384 0.06129,-0.2934 -0.00671,-0.40103c-0.068,-0.10764 -0.17524,-0.1026 -0.23953,0.01124zM242.18433,178.12143c-0.06429,0.11384 -0.06128,0.2934 0.00672,0.40103c0.068,0.10764 0.17525,0.1026 0.23953,-0.01125c0.06429,-0.11384 0.06129,-0.29339 -0.00671,-0.40102c-0.068,-0.10764 -0.17525,-0.1026 -0.23954,0.01124zM242.68306,182.88105c-0.06429,0.11384 -0.06128,0.2934 0.00672,0.40103c0.068,0.10764 0.17524,0.1026 0.23953,-0.01125c0.06429,-0.11384 0.06128,-0.29339 -0.00672,-0.40102c-0.068,-0.10764 -0.17524,-0.1026 -0.23953,0.01124zM239.24393,175.41088c-0.06429,0.11384 -0.06128,0.2934 0.00672,0.40103c0.068,0.10764 0.17525,0.10261 0.23953,-0.01124c0.06429,-0.11384 0.06129,-0.2934 -0.00671,-0.40103c-0.068,-0.10764 -0.17525,-0.1026 -0.23954,0.01125zM241.13377,176.04495c-0.06429,0.11384 -0.06129,0.29339 0.00671,0.40102c0.068,0.10764 0.17524,0.1026 0.23953,-0.01125c0.06429,-0.11384 0.06129,-0.29339 -0.00671,-0.40102c-0.068,-0.10764 -0.17524,-0.1026 -0.23953,0.01125zM240.59756,186.4865c-0.06429,0.11384 -0.06128,0.2934 0.00672,0.40103c0.068,0.10764 0.17525,0.1026 0.23953,-0.01125c0.06429,-0.11384 0.06129,-0.2934 -0.00671,-0.40103c-0.068,-0.10764 -0.17525,-0.10261 -0.23954,0.01124zM239.66012,186.61554c-0.06429,0.11384 -0.06128,0.2934 0.00672,0.40103c0.068,0.10764 0.17524,0.10261 0.23953,-0.01124c0.06429,-0.11384 0.06128,-0.2934 -0.00672,-0.40103c-0.068,-0.10764 -0.17524,-0.10261 -0.23953,0.01124zM236.88762,178.00866c-0.06429,0.11384 -0.06129,0.2934 0.00671,0.40103c0.068,0.10764 0.17524,0.1026 0.23953,-0.01125c0.06429,-0.11384 0.06129,-0.2934 -0.00671,-0.40103c-0.068,-0.10764 -0.17524,-0.1026 -0.23953,0.01124zM243.22518,178.85911c-0.06429,0.11384 -0.06128,0.2934 0.00672,0.40103c0.068,0.10764 0.17524,0.1026 0.23953,-0.01124c0.06429,-0.11384 0.06128,-0.29339 -0.00672,-0.40102c-0.068,-0.10764 -0.17525,-0.10261 -0.23953,0.01124zM241.30451,177.14235c-0.06429,0.11384 -0.06128,0.2934 0.00672,0.40103c0.068,0.10764 0.17525,0.1026 0.23953,-0.01124c0.06429,-0.11384 0.06128,-0.2934 -0.00672,-0.40103c-0.068,-0.10764 -0.17524,-0.1026 -0.23953,0.01124zM237.50705,179.36135c-0.06429,0.11384 -0.06129,0.2934 0.00671,0.40103c0.068,0.10764 0.17525,0.1026 0.23954,-0.01125c0.06429,-0.11384 0.06128,-0.29339 -0.00672,-0.40102c-0.068,-0.10764 -0.17525,-0.10261 -0.23953,0.01124zM241.75272,178.88571c-0.06429,0.11384 -0.06129,0.2934 0.00671,0.40103c0.068,0.10764 0.17524,0.1026 0.23953,-0.01124c0.06429,-0.11384 0.06129,-0.2934 -0.00671,-0.40103c-0.068,-0.10764 -0.17524,-0.1026 -0.23953,0.01124zM238.14759,185.00716c-0.06429,0.11384 -0.06128,0.29339 0.00672,0.40102c0.068,0.10764 0.17524,0.10261 0.23953,-0.01124c0.06429,-0.11384 0.06128,-0.2934 -0.00672,-0.40103c-0.068,-0.10764 -0.17524,-0.1026 -0.23953,0.01124zM243.02289,181.18572c-0.06429,0.11384 -0.06128,0.2934 0.00672,0.40103c0.068,0.10764 0.17524,0.10261 0.23953,-0.01124c0.06429,-0.11384 0.06128,-0.2934 -0.00672,-0.40103c-0.068,-0.10764 -0.17524,-0.10261 -0.23953,0.01124zM237.84783,183.78827c-0.06429,0.11384 -0.06129,0.2934 0.00671,0.40103c0.068,0.10764 0.17525,0.1026 0.23954,-0.01125c0.06429,-0.11384 0.06128,-0.2934 -0.00672,-0.40103c-0.068,-0.10764 -0.17525,-0.1026 -0.23953,0.01125zM236.50343,180.08871c-0.06429,0.11384 -0.06129,0.2934 0.00671,0.40103c0.068,0.10764 0.17525,0.10261 0.23954,-0.01124c0.06429,-0.11384 0.06128,-0.2934 -0.00672,-0.40103c-0.068,-0.10764 -0.17525,-0.10261 -0.23953,0.01124zM237.1748,184.54262c-0.06429,0.11384 -0.06129,0.2934 0.00671,0.40103c0.068,0.10764 0.17524,0.1026 0.23953,-0.01124c0.06429,-0.11384 0.06129,-0.29339 -0.00671,-0.40102c-0.068,-0.10764 -0.17524,-0.10261 -0.23953,0.01124zM242.82748,177.85739c-0.06429,0.11384 -0.06128,0.2934 0.00672,0.40103c0.068,0.10764 0.17525,0.1026 0.23953,-0.01125c0.06429,-0.11384 0.06129,-0.2934 -0.00671,-0.40103c-0.068,-0.10764 -0.17525,-0.1026 -0.23954,0.01124zM243.40233,178.06426c-0.06429,0.11384 -0.06128,0.2934 0.00672,0.40103c0.068,0.10764 0.17524,0.1026 0.23953,-0.01124c0.06429,-0.11384 0.06128,-0.2934 -0.00672,-0.40103c-0.068,-0.10764 -0.17524,-0.1026 -0.23953,0.01124zM239.03807,186.62347c-0.06429,0.11384 -0.06129,0.2934 0.00671,0.40103c0.068,0.10764 0.17525,0.1026 0.23954,-0.01125c0.06429,-0.11384 0.06128,-0.29339 -0.00672,-0.40102c-0.068,-0.10764 -0.17525,-0.10261 -0.23953,0.01124zM238.89318,184.0368c-0.06429,0.11384 -0.06129,0.2934 0.00671,0.40103c0.068,0.10764 0.17524,0.1026 0.23953,-0.01124c0.06429,-0.11384 0.06129,-0.29339 -0.00671,-0.40102c-0.068,-0.10764 -0.17524,-0.10261 -0.23953,0.01124zM242.62716,182.11654c0.09272,0 0.16788,-0.07516 0.16788,-0.16789c0,-0.09272 -0.07516,-0.16788 -0.16788,-0.16788c-0.09272,0 -0.16789,0.07516 -0.16789,0.16788c0,0.09272 0.07516,0.16789 0.16789,0.16789zM243.42909,182.55091c0.09272,0 0.16788,-0.07516 0.16788,-0.16788c0,-0.09272 -0.07516,-0.16789 -0.16788,-0.16789c-0.09272,0 -0.16789,0.07516 -0.16789,0.16789c0,0.09272 0.07516,0.16788 0.16789,0.16788zM236.41222,182.91846c0.09272,0 0.16788,-0.07516 0.16788,-0.16789c0,-0.09272 -0.07516,-0.16788 -0.16788,-0.16788c-0.09272,0 -0.16789,0.07516 -0.16789,0.16788c0,0.09272 0.07516,0.16789 0.16789,0.16789zM235.91102,181.21437c0.09272,0 0.16789,-0.07516 0.16789,-0.16788c0,-0.09272 -0.07516,-0.16789 -0.16789,-0.16789c-0.09272,0 -0.16788,0.07517 -0.16788,0.16789c0,0.09272 0.07516,0.16788 0.16788,0.16788zM239.95407,179.07589c0.09272,0 0.16789,-0.07517 0.16789,-0.16789c0,-0.09272 -0.07516,-0.16788 -0.16789,-0.16788c-0.09272,0 -0.16789,0.07516 -0.16789,0.16788c0,0.09272 0.07516,0.16789 0.16789,0.16789zM240.48869,183.72039c0.09272,0 0.16788,-0.07516 0.16788,-0.16789c0,-0.09272 -0.07516,-0.16788 -0.16788,-0.16788c-0.09272,0 -0.16789,0.07516 -0.16789,0.16788c0,0.09272 0.07516,0.16789 0.16789,0.16789zM239.68676,178.34079c0.09272,0 0.16788,-0.07516 0.16788,-0.16789c0,-0.09272 -0.07516,-0.16789 -0.16788,-0.16789c-0.09272,0 -0.16789,0.07517 -0.16789,0.16789c0,0.09272 0.07516,0.16789 0.16789,0.16789zM241.29062,180.77999c0.09272,0 0.16788,-0.07516 0.16788,-0.16788c0,-0.09272 -0.07516,-0.16789 -0.16788,-0.16789c-0.09272,0 -0.16789,0.07516 -0.16789,0.16789c0,0.09272 0.07516,0.16788 0.16789,0.16788zM239.41945,183.38626c0.09272,0 0.16789,-0.07516 0.16789,-0.16789c0,-0.09272 -0.07516,-0.16788 -0.16789,-0.16788c-0.09272,0 -0.16788,0.07516 -0.16788,0.16788c0,0.09272 0.07516,0.16789 0.16788,0.16789zM238.24997,181.58192c0.09272,0 0.16789,-0.07517 0.16789,-0.16789c0,-0.09272 -0.07517,-0.16789 -0.16789,-0.16789c-0.09272,0 -0.16789,0.07516 -0.16789,0.16789c0,0.09272 0.07516,0.16789 0.16789,0.16789zM238.55069,179.71075c0.09272,0 0.16788,-0.07516 0.16788,-0.16788c0,-0.09272 -0.07516,-0.16789 -0.16788,-0.16789c-0.09272,0 -0.16789,0.07516 -0.16789,0.16789c0,0.09272 0.07516,0.16788 0.16789,0.16788zM239.58652,179.67734c0.09272,0 0.16788,-0.07516 0.16788,-0.16789c0,-0.09272 -0.07516,-0.16788 -0.16788,-0.16788c-0.09272,0 -0.16789,0.07516 -0.16789,0.16788c0,0.09272 0.07516,0.16789 0.16789,0.16789zM238.88483,178.842c0.09272,0 0.16789,-0.07516 0.16789,-0.16788c0,-0.09272 -0.07516,-0.16789 -0.16789,-0.16789c-0.09272,0 -0.16788,0.07516 -0.16788,0.16789c0,0.09272 0.07516,0.16788 0.16788,0.16788zM239.11873,181.41485c0.09272,0 0.16788,-0.07516 0.16788,-0.16789c0,-0.09272 -0.07516,-0.16789 -0.16788,-0.16789c-0.09272,0 -0.16789,0.07516 -0.16789,0.16789c0,0.09272 0.07517,0.16789 0.16789,0.16789zM242.9613,184.32184c0.09272,0 0.16789,-0.07516 0.16789,-0.16788c0,-0.09272 -0.07516,-0.16789 -0.16789,-0.16789c-0.09272,0 -0.16788,0.07516 -0.16788,0.16789c0,0.09272 0.07516,0.16788 0.16788,0.16788zM236.74636,184.38867c0.09272,0 0.16789,-0.07517 0.16789,-0.16789c0,-0.09272 -0.07516,-0.16789 -0.16789,-0.16789c-0.09272,0 -0.16788,0.07516 -0.16788,0.16789c0,0.09272 0.07516,0.16789 0.16788,0.16789zM238.61753,177.27155c0.09272,0 0.16789,-0.07516 0.16789,-0.16788c0,-0.09272 -0.07516,-0.16789 -0.16789,-0.16789c-0.09272,0 -0.16789,0.07516 -0.16789,0.16789c0,0.09272 0.07517,0.16788 0.16789,0.16788zM241.15696,182.95188c0.09272,0 0.16789,-0.07516 0.16789,-0.16789c0,-0.09272 -0.07516,-0.16788 -0.16789,-0.16788c-0.09272,0 -0.16789,0.07516 -0.16789,0.16788c0,0.09272 0.07517,0.16789 0.16789,0.16789zM239.61993,176.53646c0.09272,0 0.16788,-0.07517 0.16788,-0.16789c0,-0.09272 -0.07516,-0.16788 -0.16788,-0.16788c-0.09272,0 -0.16789,0.07516 -0.16789,0.16788c0,0.09272 0.07516,0.16789 0.16789,0.16789zM237.91584,180.8134c0.09272,0 0.16789,-0.07516 0.16789,-0.16789c0,-0.09272 -0.07516,-0.16789 -0.16789,-0.16789c-0.09272,0 -0.16788,0.07517 -0.16788,0.16789c0,0.09272 0.07516,0.16789 0.16788,0.16789zM239.15214,177.93983c0.09272,0 0.16788,-0.07516 0.16788,-0.16789c0,-0.09272 -0.07516,-0.16789 -0.16788,-0.16789c-0.09272,0 -0.16789,0.07517 -0.16789,0.16789c0,0.09272 0.07516,0.16789 0.16789,0.16789zM238.48387,182.5175c0.09272,0 0.16788,-0.07516 0.16788,-0.16789c0,-0.09272 -0.07516,-0.16789 -0.16788,-0.16789c-0.09272,0 -0.16789,0.07516 -0.16789,0.16789c0,0.09272 0.07516,0.16789 0.16789,0.16789zM240.5221,180.27879c0.09272,0 0.16789,-0.07517 0.16789,-0.16789c0,-0.09272 -0.07516,-0.16789 -0.16789,-0.16789c-0.09272,0 -0.16788,0.07516 -0.16788,0.16789c0,0.09272 0.07516,0.16789 0.16788,0.16789zM239.01848,180.31219c0.09272,0 0.16788,-0.07516 0.16788,-0.16788c0,-0.09272 -0.07516,-0.16789 -0.16788,-0.16789c-0.09272,0 -0.16789,0.07516 -0.16789,0.16789c0,0.09272 0.07516,0.16788 0.16789,0.16788zM239.82041,180.77999c0.09272,0 0.16788,-0.07516 0.16788,-0.16788c0,-0.09272 -0.07516,-0.16789 -0.16788,-0.16789c-0.09272,0 -0.16789,0.07516 -0.16789,0.16789c0,0.09272 0.07516,0.16788 0.16789,0.16788zM236.17832,182.04971c0.09272,0 0.16789,-0.07516 0.16789,-0.16788c0,-0.09272 -0.07517,-0.16789 -0.16789,-0.16789c-0.09272,0 -0.16789,0.07517 -0.16789,0.16789c0,0.09272 0.07516,0.16788 0.16789,0.16788zM238.61753,180.8134c0.09272,0 0.16789,-0.07516 0.16789,-0.16789c0,-0.09272 -0.07516,-0.16789 -0.16789,-0.16789c-0.09272,0 -0.16789,0.07517 -0.16789,0.16789c0,0.09272 0.07517,0.16789 0.16789,0.16789zM241.2572,184.38867c0.09272,0 0.16788,-0.07517 0.16788,-0.16789c0,-0.09272 -0.07516,-0.16789 -0.16788,-0.16789c-0.09272,0 -0.16789,0.07516 -0.16789,0.16789c0,0.09272 0.07516,0.16789 0.16789,0.16789z" data-paper-data="{&quot;index&quot;:null}"/></g></g></svg>