<svg version="1.1" xmlns="http://www.w3.org/2000/svg" xmlns:xlink="http://www.w3.org/1999/xlink" width="122.10746" height="36.96261" viewBox="0,0,122.10746,36.96261"><g transform="translate(-178.91436,-146.78276)"><g data-paper-data="{&quot;isPaintingLayer&quot;:true}" fill-rule="nonzero" stroke-linecap="butt" stroke-linejoin="miter" stroke-miterlimit="10" stroke-dasharray="" stroke-dashoffset="0" style="mix-blend-mode: normal"><path d="M181.41436,177.73707c1.19966,-15.05944 24.70426,-27.51158 54.99592,-28.45431c32.32071,-1.00587 60.12899,11.47212 62.11154,27.87036c0.16706,1.38178 0.14541,2.74731 -0.05366,4.09011" fill="none" stroke="#00abff" stroke-width="5"/><path d="M230.06161,179.18253c-0.34745,-2.87383 7.42272,-5.99241 5.13091,-9.8253c-1.32249,-2.21178 -12.41486,-5.15309 -13.82369,-7.15662c-3.30463,-4.69963 -6.2819,-8.29525 -6.2819,-8.29525c0,0 15.43474,-3.59027 22.35563,-3.80565c7.2035,-0.22418 20.05148,2.48588 20.05148,2.48588c0,0 -2.88633,4.97072 -5.46164,11.00863c-0.70719,1.65803 2.82583,4.47472 2.23175,6.21287c-1.35471,3.96362 -6.45994,6.8472 -6.09707,9.8486c0.05451,0.4509 0.02954,0.90641 -0.0566,1.36405c-2.03707,-0.21269 -4.0635,-0.57308 -6.0571,-1.06344c-3.19451,-0.7752 -7.253,-0.13949 -10.54517,-0.13949c-0.47795,0 -0.94856,-0.01469 -1.41361,-0.04102c0.0018,-0.19605 -0.00886,-0.39379 -0.03298,-0.59326z" fill="#71d0ff" stroke="#00abff" stroke-width="5"/><path d="M209.97507,160.28173c-2.11948,-0.67267 -0.79367,-1.74801 -0.79367,-1.74801l1.93271,-1.49705c5.1439,-1.58025 9.70584,-2.06164 15.43626,-2.83367c0,0 2.41683,-0.32444 3.05629,0.90177c0.63946,1.22621 -1.77737,1.55064 -1.77737,1.55064c-4.79013,0.64087 -8.85595,1.00682 -13.2404,2.20535l-1.16852,1.01829c0,0 -1.32582,1.07534 -3.4453,0.40267z" fill="#a4e1ff" stroke="none" stroke-width="0.5"/><path d="M207.69023,163.47912c-1.5115,-1.01032 0.47982,-1.7772 0.47982,-1.7772l1.11674,-0.42629c4.82435,-1.57857 10.64979,-2.14925 16.2226,-2.73281c0,0 2.44858,-0.25592 2.953,0.9864c0.50442,1.24232 -1.94417,1.49824 -1.94417,1.49824c-4.84424,0.50531 -10.32516,0.95429 -14.4896,2.36955l-0.83556,0.32556c0,0 -1.99132,0.76688 -3.50283,-0.24344z" fill="#a4e1ff" stroke="none" stroke-width="0.5"/><path d="M220.96461,164.08883c-0.15306,-1.26602 2.34225,-1.34368 2.34225,-1.34368l2.71405,-0.08447c3.62058,-0.11268 7.11403,-0.19662 10.74553,-0.15725c0,0 2.4994,0.02775 2.44471,1.29584c-0.05469,1.2681 -2.55409,1.24035 -2.55409,1.24035c-3.49406,-0.03975 -6.84595,0.04467 -10.33002,0.1531l-2.71405,0.08447c0,0 -2.49531,0.07766 -2.64837,-1.18836z" fill="#a4e1ff" stroke="none" stroke-width="0.5"/><path d="M246.67325,156.41515c0.45671,-1.24706 2.91464,-1.01534 2.91464,-1.01534l2.75567,0.25979c5.31537,0.52509 9.47709,2.21422 14.89781,2.63859c0,0 2.46909,0.19883 2.0772,1.45155c-0.39189,1.25272 -2.86099,1.05389 -2.86099,1.05389c-5.4689,-0.45086 -9.74118,-2.18253 -15.02744,-2.64992l-2.75568,-0.25979c0,0 -2.45793,-0.23172 -2.00122,-1.47877z" fill="#a4e1ff" stroke="none" stroke-width="0.5"/><path d="M257.16179,164.21453c-0.70341,-0.03551 -2.15585,-0.22507 -2.27149,-1.18151c-0.15306,-1.26602 2.34225,-1.34368 2.34225,-1.34368l1.59744,0.11772c1.80377,0.45367 3.70074,0.81204 5.61335,1.13095c0,0 2.37368,0.39808 1.58906,1.6024c-0.78462,1.20431 -3.1583,0.80623 -3.1583,0.80623c-1.93944,-0.32697 -3.86239,-0.69111 -5.71231,-1.1321z" fill="#a4e1ff" stroke="none" stroke-width="0.5"/><path d="M244.19816,159.91031c0.15306,1.26602 -2.34225,1.34368 -2.34225,1.34368l-1.9367,-0.10716c-1.16956,-0.32245 -2.58968,-0.47032 -3.91391,-0.40185c0,0 -2.49531,0.07766 -2.64837,-1.18836c-0.15306,-1.26602 2.34225,-1.34368 2.34225,-1.34368c2.18519,-0.04032 4.44556,0.19278 6.43028,0.65841l-0.57968,-0.14939c0,0 2.49531,-0.07766 2.64837,1.18836z" fill="#a4e1ff" stroke="none" stroke-width="0.5"/><path d="M264.17883,170.44595c-2.16342,0.63564 -3.41626,-0.46199 -3.41626,-0.46199l-1.0141,-0.89988c-2.08695,-1.65551 -5.27453,-1.66886 -8.9596,-1.54272c0,0 -2.49531,0.07766 -2.64837,-1.18836c-0.15306,-1.26602 2.34225,-1.34368 2.34225,-1.34368c3.47915,-0.09944 7.90189,-0.07683 10.92098,0.99262c1.08915,0.38581 1.60969,1.0723 2.41454,1.60846l1.27116,1.10228c0,0 1.25285,1.09763 -0.91058,1.73327z" fill="#a4e1ff" stroke="none" stroke-width="0.5"/><path d="M219.59499,169.6602c-0.15306,-1.26602 2.34225,-1.34368 2.34225,-1.34368l-0.26138,0.04608c5.07912,-0.80943 10.48432,-1.05266 15.78395,-1.22026c0,0 2.49531,-0.07766 2.64837,1.18836c0.15306,1.26602 -2.34225,1.34368 -2.34225,1.34368c-4.87482,0.14907 -9.91577,0.35273 -14.58269,1.10698l-0.93988,0.06719c0,0 -2.49531,0.07766 -2.64837,-1.18836z" fill="#a4e1ff" stroke="none" stroke-width="0.5"/></g></g></svg>