<svg version="1.1" xmlns="http://www.w3.org/2000/svg" xmlns:xlink="http://www.w3.org/1999/xlink" width="152.63789" height="21.60723" viewBox="0,0,152.63789,21.60723"><g transform="translate(-216.67556,-169.74539)"><g data-paper-data="{&quot;isPaintingLayer&quot;:true}" fill="#ffffff" fill-rule="nonzero" stroke="none" stroke-width="0" stroke-linecap="round" stroke-linejoin="miter" stroke-miterlimit="10" stroke-dasharray="" stroke-dashoffset="0" style="mix-blend-mode: normal"><path d="M221.40451,176.04126l86.07389,0.44333l-3.90536,1.15633l-18.22508,1.6519l39.05373,0.16519l44.91177,0.90854l-42.30821,1.4867l-43.60999,0.57816l17.57418,0.90854l11.06522,1.32152c0,0 -79.70068,1.82848 -88.82742,1.62314c-1.66291,-0.03741 -2.94884,-3.68801 -2.94884,-3.68801c0,0 4.01834,-1.23418 3.78526,-1.84052c-0.19339,-0.50308 -5.08704,-1.54588 -5.08704,-1.54588z"/><path d="M216.67556,176.9478l13.86866,-7.20241l-0.61185,3.05558l-2.85531,4.3651l6.11853,0.4365l7.03631,2.4008l-6.6284,3.92858l-6.83237,1.52778l2.75333,2.4008l1.73358,3.49208l-14.37855,-5.45638c0,0 0.62955,-3.26131 0.59304,-4.86354c-0.0303,-1.32937 -0.79699,-4.08495 -0.79699,-4.08495z"/><path d="M222.22774,179.16217l13.86868,-4.53646l-0.61186,1.92457l-2.85531,2.74937l6.11853,0.27493l7.03631,1.51216l-6.62842,2.47443l-6.83235,0.96228l2.75333,1.51215l1.73358,2.1995l-14.37853,-3.43672c0,0 0.62955,-2.05414 0.59302,-3.06332c-0.03031,-0.83731 -0.79699,-2.57291 -0.79699,-2.57291z"/><path d="M229.24866,179.91781l13.86866,-3.27894l-0.61186,1.39107l-2.85531,1.98724l6.11853,0.19872l7.0363,1.09298l-6.62842,1.78851l-6.83235,0.69553l2.75333,1.09298l1.73359,1.58979l-14.37853,-2.48405c0,0 0.62955,-1.48473 0.59302,-2.21415c-0.03031,-0.6052 -0.79699,-1.85969 -0.79699,-1.85969z"/></g></g></svg>