<svg version="1.1" xmlns="http://www.w3.org/2000/svg" xmlns:xlink="http://www.w3.org/1999/xlink" width="91.10432" height="181.38419" viewBox="0,0,91.10432,181.38419"><defs><radialGradient cx="237.66985" cy="132.01911" r="32.68651" gradientUnits="userSpaceOnUse" id="color-1"><stop offset="0" stop-color="#00e4ff"/><stop offset="1" stop-color="#00e4ff" stop-opacity="0"/></radialGradient><radialGradient cx="250.64594" cy="133.3411" r="51.32462" gradientUnits="userSpaceOnUse" id="color-2"><stop offset="0" stop-color="#00e4ff"/><stop offset="1" stop-color="#00e4ff" stop-opacity="0"/></radialGradient><radialGradient cx="238.22771" cy="205.81798" r="24.24548" gradientUnits="userSpaceOnUse" id="color-3"><stop offset="0" stop-color="#00e4ff"/><stop offset="1" stop-color="#00e4ff" stop-opacity="0"/></radialGradient><radialGradient cx="228.98487" cy="211.90328" r="51.07143" gradientUnits="userSpaceOnUse" id="color-4"><stop offset="0" stop-color="#00e4ff"/><stop offset="1" stop-color="#00e4ff" stop-opacity="0"/></radialGradient><radialGradient cx="227.6487" cy="201.31595" r="24.24548" gradientUnits="userSpaceOnUse" id="color-5"><stop offset="0" stop-color="#00e4ff"/><stop offset="1" stop-color="#00e4ff" stop-opacity="0"/></radialGradient><radialGradient cx="218.19149" cy="190.20751" r="35.26984" gradientUnits="userSpaceOnUse" id="color-6"><stop offset="0" stop-color="#00e4ff"/><stop offset="1" stop-color="#00e4ff" stop-opacity="0"/></radialGradient><radialGradient cx="225.0097" cy="179.36044" r="24.24548" gradientUnits="userSpaceOnUse" id="color-7"><stop offset="0" stop-color="#00e4ff"/><stop offset="1" stop-color="#00e4ff" stop-opacity="0"/></radialGradient><radialGradient cx="238.37003" cy="151.92327" r="24.24548" gradientUnits="userSpaceOnUse" id="color-8"><stop offset="0" stop-color="#00e4ff"/><stop offset="1" stop-color="#00e4ff" stop-opacity="0"/></radialGradient><radialGradient cx="232.68538" cy="142.69219" r="46.11046" gradientUnits="userSpaceOnUse" id="color-9"><stop offset="0" stop-color="#00e4ff"/><stop offset="1" stop-color="#00e4ff" stop-opacity="0"/></radialGradient><radialGradient cx="221.16722" cy="160.69594" r="33.61619" gradientUnits="userSpaceOnUse" id="color-10"><stop offset="0" stop-color="#00e4ff"/><stop offset="1" stop-color="#00e4ff" stop-opacity="0"/></radialGradient><radialGradient cx="223.75669" cy="167.40307" r="24.24548" gradientUnits="userSpaceOnUse" id="color-11"><stop offset="0" stop-color="#00e4ff"/><stop offset="1" stop-color="#00e4ff" stop-opacity="0"/></radialGradient><radialGradient cx="212.31918" cy="178.38082" r="51.43891" gradientUnits="userSpaceOnUse" id="color-12"><stop offset="0" stop-color="#00e4ff"/><stop offset="1" stop-color="#00e4ff" stop-opacity="0"/></radialGradient><radialGradient cx="240.0281" cy="225.68937" r="32.68651" gradientUnits="userSpaceOnUse" id="color-13"><stop offset="0" stop-color="#00e4ff"/><stop offset="1" stop-color="#00e4ff" stop-opacity="0"/></radialGradient><radialGradient cx="251.90431" cy="223.69223" r="51.32462" gradientUnits="userSpaceOnUse" id="color-14"><stop offset="0" stop-color="#00e4ff"/><stop offset="1" stop-color="#00e4ff" stop-opacity="0"/></radialGradient></defs><g transform="translate(-167.23791,-87.82259)"><g data-paper-data="{&quot;isPaintingLayer&quot;:true}" fill-rule="nonzero" stroke="#000000" stroke-width="0" stroke-linecap="butt" stroke-linejoin="miter" stroke-miterlimit="10" stroke-dasharray="" stroke-dashoffset="0" style="mix-blend-mode: normal"><path d="M226.75353,133.7664c-6.7471,-10.22098 -9.54133,-21.19981 -6.24108,-24.52191c3.30024,-3.3221 11.44521,2.27054 18.19232,12.49153c6.74711,10.22099 9.54134,21.19984 6.24109,24.52193c-3.30024,3.3221 -11.44523,-2.27056 -18.19233,-12.49156z" data-paper-data="{&quot;index&quot;:null}" fill="url(#color-1)"/><path d="M241.68924,121.57509c1.40374,-19.23186 6.12759,-34.33564 10.55104,-33.7352c4.42345,0.60044 6.87141,16.67766 5.46768,35.90957c-1.40374,19.2319 -6.1276,34.33567 -10.55105,33.73524c-4.42345,-0.60043 -6.8714,-16.6777 -5.46767,-35.9096z" data-paper-data="{&quot;index&quot;:null}" fill="url(#color-2)"/><path d="M233.32412,219.13764c-9.02725,0 -16.34527,-4.9143 -16.34527,-10.97639c0,-6.06209 7.31802,-10.97639 16.34527,-10.97639c9.02725,0 16.34527,4.9143 16.34527,10.97639c0,6.06209 -7.31803,10.97639 -16.34527,10.97639z" data-paper-data="{&quot;index&quot;:null}" fill="url(#color-3)"/><path d="M226.14766,228.57248c-16.74267,9.09694 -32.62389,12.14448 -35.47177,6.8069c-2.84788,-5.33758 8.41605,-17.03907 25.15868,-26.13599c16.74267,-9.09694 32.62393,-12.14449 35.47181,-6.80691c2.84788,5.33758 -8.41608,17.03907 -25.15872,26.136z" data-paper-data="{&quot;index&quot;:null}" fill="url(#color-4)"/><path d="M222.74512,214.63561c-9.02725,0 -16.34525,-4.9143 -16.34525,-10.97639c0,-6.06209 7.31802,-10.97639 16.34525,-10.97639c9.02725,0 16.34527,4.9143 16.34527,10.97639c0,6.06209 -7.31803,10.97639 -16.34527,10.97639z" data-paper-data="{&quot;index&quot;:null}" fill="url(#color-5)"/><path d="M213.28128,204.51406c-12.95987,2.13806 -24.2516,-0.97861 -25.22081,-6.96128c-0.96922,-5.98267 8.75111,-12.56583 21.71096,-14.70389c12.95987,-2.13806 24.25162,0.97861 25.22084,6.96128c0.96922,5.98267 -8.75113,12.56583 -21.71099,14.70389z" data-paper-data="{&quot;index&quot;:null}" fill="url(#color-6)"/><path d="M220.10611,192.6801c-9.02725,0 -16.34525,-4.9143 -16.34525,-10.97639c0,-6.06209 7.31802,-10.97639 16.34525,-10.97639c9.02725,0 16.34527,4.9143 16.34527,10.97639c0,6.06209 -7.31802,10.97639 -16.34527,10.97639z" data-paper-data="{&quot;index&quot;:null}" fill="url(#color-7)"/><path d="M249.81171,149.58c0,6.06209 -7.31803,10.97639 -16.34527,10.97639c-9.02725,0 -16.34525,-4.9143 -16.34525,-10.97639c0,-6.06209 7.31802,-10.97638 16.34525,-10.97638c9.02725,0 16.34527,4.91429 16.34527,10.97638z" data-paper-data="{&quot;index&quot;:null}" fill="url(#color-8)"/><path d="M253.38052,149.87055c-2.5445,5.49142 -17.21463,3.99421 -32.76661,-3.34412c-15.55201,-7.33833 -26.09663,-17.73889 -23.55213,-23.23031c2.5445,-5.49142 17.21461,-3.99421 32.76658,3.3441c15.55201,7.33833 26.09666,17.7389 23.55217,23.23032z" data-paper-data="{&quot;index&quot;:null}" fill="url(#color-9)"/><path d="M236.44328,165.60814c-2.63361,5.44847 -13.88793,5.37649 -25.13721,-0.16076c-11.24929,-5.53726 -18.23365,-14.44295 -15.60005,-19.89142c2.63361,-5.44847 13.88792,-5.3765 25.13719,0.16075c11.24929,5.53726 18.23368,14.44296 15.60008,19.89143z" data-paper-data="{&quot;index&quot;:null}" fill="url(#color-10)"/><path d="M235.19838,165.05978c0,6.06209 -7.31802,10.97639 -16.34527,10.97639c-9.02725,0 -16.34525,-4.9143 -16.34525,-10.97639c0,-6.06209 7.31802,-10.97639 16.34525,-10.97639c9.02725,0 16.34527,4.9143 16.34527,10.97639z" data-paper-data="{&quot;index&quot;:null}" fill="url(#color-11)"/><path d="M236.59371,176.03755c0,6.06209 -15.52582,10.97639 -34.67792,10.97639c-19.1521,0 -34.67788,-4.9143 -34.67788,-10.97639c0,-6.06209 15.52582,-10.97639 34.67788,-10.97639c19.1521,0 34.67792,4.9143 34.67792,10.97639z" data-paper-data="{&quot;index&quot;:null}" fill="url(#color-12)"/><path d="M246.55505,211.08547c3.46815,3.14309 1.24761,14.25457 -4.95969,24.81816c-6.20732,10.5636 -14.05082,16.57909 -17.51896,13.43599c-3.46815,-3.14309 -1.24762,-14.25456 4.95968,-24.81814c6.20732,-10.5636 14.05083,-16.57911 17.51898,-13.43602z" data-paper-data="{&quot;index&quot;:null}" fill="url(#color-13)"/><path d="M249.97087,199.37139c4.45267,-0.31031 8.19806,15.07029 8.36555,34.35355c0.16749,19.28326 -3.30635,35.16693 -7.75903,35.47723c-4.45267,0.31031 -8.19806,-15.0703 -8.36555,-34.35352c-0.16749,-19.28326 3.30635,-35.16697 7.75903,-35.47727z" data-paper-data="{&quot;index&quot;:null}" fill="url(#color-14)"/></g></g></svg>