<svg version="1.1" xmlns="http://www.w3.org/2000/svg" xmlns:xlink="http://www.w3.org/1999/xlink" width="61.42052" height="96.16595" viewBox="0,0,61.42052,96.16595"><g transform="translate(-211.90641,-138.01017)"><g data-paper-data="{&quot;isPaintingLayer&quot;:true}" fill="#b1b1b1" fill-rule="nonzero" stroke="#000000" stroke-width="1.5" stroke-linecap="butt" stroke-linejoin="miter" stroke-miterlimit="10" stroke-dasharray="" stroke-dashoffset="0" style="mix-blend-mode: normal"><path d="M260.83213,202.01944l-22.58107,-26.46436l11.43733,-9.75345l22.58105,26.46436z" data-paper-data="{&quot;index&quot;:null}"/><path d="M246.92992,228.9556v-36.76232h18.24296v36.76232z"/><path d="M226.49625,195.36434l11.23094,-34.22087l27.29832,8.95903l-11.23095,34.22088c0,0 -7.06162,-2.31756 -11.11317,-3.64723c-4.88945,-1.60468 -16.18516,-5.3118 -16.18516,-5.3118z"/><path d="M270.06006,154.16986c0,8.51054 -7.34426,15.4097 -16.40387,15.4097c-9.05961,0 -16.40387,-6.89916 -16.40387,-15.4097c0,-8.51054 7.34426,-15.40969 16.40387,-15.40969c9.05961,0 16.40387,6.89915 16.40387,15.4097z" data-paper-data="{&quot;index&quot;:null}"/><path d="M212.89359,225.80212l14.88556,-34.15675l16.94998,7.38682l-14.88556,34.15675z"/><path d="M229.10483,201.09985l-7.44192,-33.98359l14.68251,-3.21962l7.44192,33.9836z" data-paper-data="{&quot;index&quot;:null}"/></g></g></svg>