<svg version="1.1" xmlns="http://www.w3.org/2000/svg" xmlns:xlink="http://www.w3.org/1999/xlink" width="75.96523" height="101.64366" viewBox="0,0,75.96523,101.64366"><g transform="translate(-202.87818,-130.19179)"><g data-paper-data="{&quot;isPaintingLayer&quot;:true}" fill="#b1b1b1" fill-rule="nonzero" stroke="#000000" stroke-width="1.5" stroke-linecap="butt" stroke-linejoin="miter" stroke-miterlimit="10" stroke-dasharray="" stroke-dashoffset="0" style="mix-blend-mode: normal"><path d="M278.01373,171.62086l-34.56642,3.92804l-1.69298,-14.93573l34.56641,-3.92804z" data-paper-data="{&quot;index&quot;:null}"/><path d="M236.56068,225.16826l-0.24547,-36.76151l18.24256,-0.12182l0.24547,36.76151z"/><path d="M209.6726,225.19313l11.48173,-35.44621l17.58987,5.6977l-11.48173,35.44621z"/><path d="M220.56098,194.79952l2.94617,-35.896l28.63459,2.35019l-2.94616,35.89601c0,0 -7.4073,-0.60796 -11.65716,-0.95675c-5.1288,-0.42094 -16.97742,-1.39342 -16.97742,-1.39342z"/><path d="M255.69298,143.97207c1.15987,8.43113 -5.1756,16.26684 -14.15068,17.50155c-8.97508,1.2347 -17.19108,-4.59916 -18.35095,-13.03029c-1.15987,-8.43113 5.1756,-16.26683 14.15068,-17.50154c8.97508,-1.2347 17.19107,4.59915 18.35095,13.03029z" data-paper-data="{&quot;index&quot;:null}"/><path d="M237.01644,186.06831l-33.19858,-10.39813l4.4887,-14.34552l33.19859,10.39815z" data-paper-data="{&quot;index&quot;:null}"/></g></g></svg>