<svg version="1.1" xmlns="http://www.w3.org/2000/svg" xmlns:xlink="http://www.w3.org/1999/xlink" width="76.63789" height="35.19687" viewBox="0,0,76.63789,35.19687"><g transform="translate(-216.67556,-162.15575)"><g data-paper-data="{&quot;isPaintingLayer&quot;:true}" fill="#ffffff" fill-rule="nonzero" stroke="none" stroke-width="0" stroke-linecap="round" stroke-linejoin="miter" stroke-miterlimit="10" stroke-dasharray="" stroke-dashoffset="0" style="mix-blend-mode: normal"><g><path d="M219.04991,172.41134l43.2168,0.72216l-1.96084,1.88359l-9.15062,2.69084l19.60847,0.26908l22.54973,1.47996l-21.24251,2.42175l-21.89612,0.94179l8.82381,1.47996l5.55573,2.15267c0,0 -40.01688,2.97849 -44.59932,2.644c-0.83493,-0.06094 -1.48058,-6.00755 -1.48058,-6.00755c0,0 2.01757,-2.01041 1.90054,-2.9981c-0.0971,-0.81948 -2.55415,-2.51814 -2.55415,-2.51814z"/><path d="M216.67556,173.88804l6.96331,-11.73229l-0.3072,4.97735l-1.43362,7.11049l3.07205,0.71104l3.53286,3.91076l-3.32805,6.39942l-3.43046,2.48866l1.38242,3.91076l0.87041,5.68839l-7.21932,-8.88811c0,0 0.31609,-5.31247 0.29776,-7.92242c-0.01521,-2.16546 -0.40016,-6.65413 -0.40016,-6.65413z"/><path d="M219.46325,177.49511l6.96332,-7.38962l-0.30721,3.135l-1.43362,4.47856l3.07205,0.44785l3.53286,2.46321l-3.32806,4.0307l-3.43045,1.56749l1.38242,2.4632l0.87041,3.58285l-7.21931,-5.59821c0,0 0.31609,-3.34607 0.29775,-4.98996c-0.01522,-1.36392 -0.40016,-4.19112 -0.40016,-4.19112z"/><path d="M222.98838,178.726l6.96331,-5.34119l-0.30721,2.26597l-1.43362,3.23709l3.07205,0.3237l3.53285,1.7804l-3.32806,2.91337l-3.43045,1.13298l1.38242,1.7804l0.87042,2.58967l-7.21931,-4.04636c0,0 0.31609,-2.41853 0.29775,-3.60672c-0.01522,-0.98584 -0.40016,-3.02933 -0.40016,-3.02933z"/></g></g></g></svg>