<svg version="1.1" xmlns="http://www.w3.org/2000/svg" xmlns:xlink="http://www.w3.org/1999/xlink" width="59.22281" height="99.66219" viewBox="0,0,59.22281,99.66219"><g transform="translate(-207.06594,-132.65927)"><g data-paper-data="{&quot;isPaintingLayer&quot;:true}" fill="#b1b1b1" fill-rule="nonzero" stroke="#000000" stroke-width="1.5" stroke-linecap="butt" stroke-linejoin="miter" stroke-miterlimit="10" stroke-dasharray="" stroke-dashoffset="0" style="mix-blend-mode: normal"><path d="M243.9076,168.3327l-25.23448,23.94761l-10.34405,-10.90609l25.23448,-23.94759z" data-paper-data="{&quot;index&quot;:null}"/><path d="M235.65358,224.21261l12.21255,-35.2011l17.46823,6.06037l-12.21255,35.2011z"/><path d="M208.10492,221.24149l20.23412,-30.69281l15.23102,10.041l-20.23412,30.69281z"/><path d="M237.48911,197.85362c-4.24941,-0.35432 -11.65592,-0.97188 -11.65592,-0.97188l2.99274,-35.89215l28.63152,2.38733l-2.99275,35.89214c0,0 -11.84736,-0.98784 -16.9756,-1.41544z" data-paper-data="{&quot;index&quot;:null}"/><path d="M262.53025,150.9812c-1.11172,8.43762 -9.29428,14.31829 -18.27626,13.13484c-8.98198,-1.18344 -15.36208,-8.98286 -14.25036,-17.42048c1.11172,-8.43762 9.29428,-14.31828 18.27626,-13.13483c8.98198,1.18344 15.36208,8.98285 14.25036,17.42048z" data-paper-data="{&quot;index&quot;:null}"/><path d="M216.87045,181.92478l33.76332,-8.38479l3.62699,14.58723l-33.76334,8.38479z" data-paper-data="{&quot;index&quot;:null}"/></g></g></svg>