<svg version="1.1" xmlns="http://www.w3.org/2000/svg" xmlns:xlink="http://www.w3.org/1999/xlink" width="56.8563" height="100.37596" viewBox="0,0,56.8563,100.37596"><g transform="translate(-212.92121,-131.28985)"><g data-paper-data="{&quot;isPaintingLayer&quot;:true}" fill="#b1b1b1" fill-rule="nonzero" stroke="#000000" stroke-width="1.5" stroke-linecap="butt" stroke-linejoin="miter" stroke-miterlimit="10" stroke-dasharray="" stroke-dashoffset="0" style="mix-blend-mode: normal"><path d="M225.48034,229.29675v-36.76232h18.24296v36.76232z"/><path d="M237.12511,223.40029l14.67186,-34.24909l16.9958,7.28078l-14.67186,34.24909z"/><path d="M244.317,149.82931l-17.34381,30.15724l-13.02803,-7.49751l17.34382,-30.15722z" data-paper-data="{&quot;index&quot;:null}"/><path d="M225.05057,196.10683l4.70481,-35.70808l28.48469,3.75308l-4.70481,35.70809c0,0 -7.36852,-0.97086 -11.59614,-1.52788c-5.10195,-0.67222 -16.88855,-2.2252 -16.88855,-2.2252z"/><path d="M257.60032,149.61178c-1.11172,8.43762 -9.29428,14.31829 -18.27626,13.13484c-8.98198,-1.18344 -15.36208,-8.98286 -14.25036,-17.42048c1.11172,-8.43762 9.29428,-14.31828 18.27626,-13.13483c8.98198,1.18344 15.36208,8.98285 14.25036,17.42048z" data-paper-data="{&quot;index&quot;:null}"/><path d="M254.00934,202.78206l-7.2211,-34.0312l14.70311,-3.12422l7.22109,34.03121z" data-paper-data="{&quot;index&quot;:null}"/></g></g></svg>