<svg version="1.1" xmlns="http://www.w3.org/2000/svg" xmlns:xlink="http://www.w3.org/1999/xlink" width="49.68538" height="104.32594" viewBox="0,0,49.68538,104.32594"><g transform="translate(-215.70681,-130.9157)"><g data-paper-data="{&quot;isPaintingLayer&quot;:true}" fill="#b1b1b1" fill-rule="nonzero" stroke="#000000" stroke-width="1.5" stroke-linecap="butt" stroke-linejoin="miter" stroke-miterlimit="10" stroke-dasharray="" stroke-dashoffset="0" style="mix-blend-mode: normal"><path d="M258.3032,131.70296l1.78417,34.7431l-15.01181,0.76663l-1.78416,-34.7431z" data-paper-data="{&quot;index&quot;:null}"/><path d="M246.38444,228.05569l-1.49879,-36.73176l18.22779,-0.74377l1.49879,36.73176z"/><path d="M216.65688,228.39313l11.88625,-35.3126l17.52356,5.89842l-11.88625,35.31261z"/><path d="M225.34303,199.42529l-2.69148,-35.91598l28.65054,-2.14704l2.69147,35.91598c0,0 -7.41142,0.55539 -11.66365,0.87407c-5.13165,0.38455 -16.98688,1.27298 -16.98688,1.27298z"/><path d="M252.58687,150.06901c-0.09775,8.50997 -7.52077,15.32433 -16.57979,15.22028c-9.05901,-0.10406 -16.32354,-7.0871 -16.22581,-15.59708c0.09775,-8.50997 7.52077,-15.32431 16.57978,-15.22027c9.05901,0.10406 16.32354,7.08709 16.2258,15.59709z" data-paper-data="{&quot;index&quot;:null}"/><path d="M239.62714,136.60345l-3.50639,34.61173l-14.95527,-1.51077l3.50639,-34.61173z" data-paper-data="{&quot;index&quot;:null}"/></g></g></svg>