<svg version="1.1" xmlns="http://www.w3.org/2000/svg" xmlns:xlink="http://www.w3.org/1999/xlink" width="78.86092" height="101.3406" viewBox="0,0,78.86092,101.3406"><g transform="translate(-211.50423,-129.1919)"><g data-paper-data="{&quot;isPaintingLayer&quot;:true}" fill="#b1b1b1" fill-rule="nonzero" stroke="#000000" stroke-width="1.5" stroke-linecap="butt" stroke-linejoin="miter" stroke-miterlimit="10" stroke-dasharray="" stroke-dashoffset="0" style="mix-blend-mode: normal"><path d="M246.85312,181.32113l-34.50989,-4.39708l1.9041,-14.91028l34.50988,4.3971z" data-paper-data="{&quot;index&quot;:null}"/><path d="M234.54959,226.91929l4.13368,-36.52918l18.12726,2.05129l-4.13368,36.52918z"/><path d="M225.53227,227.62389l4.18957,-37.02312l18.37237,2.07903l-4.18957,37.02312z"/><path d="M229.08184,194.11064l4.04983,-35.78827l28.54867,3.23059l-4.04984,35.78828c0,0 -7.38506,-0.83569 -11.62219,-1.31518c-5.1134,-0.57864 -16.92648,-1.91541 -16.92648,-1.91541z"/><path d="M265.70845,147.2106c-0.95695,8.45656 -9.0304,14.48617 -18.03255,13.46747c-9.00216,-1.01869 -15.52407,-8.69991 -14.56713,-17.15648c0.95695,-8.45656 9.0304,-14.48616 18.03256,-13.46746c9.00216,1.01869 15.52407,8.6999 14.56713,17.15648z" data-paper-data="{&quot;index&quot;:null}"/><path d="M289.46654,178.2647l-33.91234,7.76018l-3.35712,-14.6517l33.91234,-7.76017z" data-paper-data="{&quot;index&quot;:null}"/></g></g></svg>