<svg version="1.1" xmlns="http://www.w3.org/2000/svg" xmlns:xlink="http://www.w3.org/1999/xlink" width="77.24366" height="99.01426" viewBox="0,0,77.24366,99.01426"><g transform="translate(-205.56613,-132.83175)"><g data-paper-data="{&quot;isPaintingLayer&quot;:true}" fill="#b1b1b1" fill-rule="nonzero" stroke="#000000" stroke-width="1.5" stroke-linecap="butt" stroke-linejoin="miter" stroke-miterlimit="10" stroke-dasharray="" stroke-dashoffset="0" style="mix-blend-mode: normal"><path d="M234.28656,200.39757l-21.70719,-27.18574l11.74891,-9.37578l21.70717,27.18575z" data-paper-data="{&quot;index&quot;:null}"/><path d="M237.04248,225.89922l6.10925,-36.75514l18.2394,3.03166l-6.10925,36.75514z"/><path d="M206.5802,222.28033l17.23282,-32.47304l16.11445,8.55162l-17.23282,32.47304z"/><path d="M222.09185,191.5683l9.90887,-34.62682l27.62215,7.9044l-9.90887,34.62682c0,0 -7.1454,-2.04474 -11.245,-3.21789c-4.94746,-1.41577 -16.37715,-4.68651 -16.37715,-4.68651z"/><path d="M267.85398,148.99144c0,8.51054 -7.34426,15.4097 -16.40387,15.4097c-9.05961,0 -16.40387,-6.89916 -16.40387,-15.4097c0,-8.51054 7.34426,-15.40969 16.40387,-15.40969c9.05961,0 16.40387,6.89915 16.40387,15.4097z" data-paper-data="{&quot;index&quot;:null}"/><path d="M281.75843,172.27399l-27.65895,21.10092l-9.12054,-11.94814l27.65897,-21.10091z" data-paper-data="{&quot;index&quot;:null}"/></g></g></svg>