<svg version="1.1" xmlns="http://www.w3.org/2000/svg" xmlns:xlink="http://www.w3.org/1999/xlink" width="50.94812" height="103.81436" viewBox="0,0,50.94812,103.81436"><g transform="translate(-222.05053,-129.33985)"><g data-paper-data="{&quot;isPaintingLayer&quot;:true}" fill="#b1b1b1" fill-rule="nonzero" stroke="#000000" stroke-width="1.5" stroke-linecap="butt" stroke-linejoin="miter" stroke-miterlimit="10" stroke-dasharray="" stroke-dashoffset="0" style="mix-blend-mode: normal"><path d="M272.02544,172.64385l-32.34633,12.80554l-5.52897,-13.97757l32.34633,-12.80552z" data-paper-data="{&quot;index&quot;:null}"/><path d="M223.01413,225.86231l12.75251,-34.47959l17.11017,6.3283l-12.75251,34.47959z"/><path d="M230.58077,196.00405l0.51766,-36.01296l28.72791,0.41294l-0.51767,36.01297c0,0 -7.43143,-0.10681 -11.69516,-0.16811c-5.1455,-0.07397 -17.03275,-0.24483 -17.03275,-0.24483z"/><path d="M233.50955,216.68983l20.12551,-31.35647l15.56035,9.98709l-20.12551,31.35647z"/><path d="M262.4273,145.73556c-0.12232,8.50965 -7.56498,15.30256 -16.62365,15.17234c-9.05868,-0.13021 -16.30301,-7.13422 -16.1807,-15.64388c0.12232,-8.50965 7.56498,-15.30255 16.62366,-15.17233c9.05868,0.13021 16.30301,7.13421 16.1807,15.64388z" data-paper-data="{&quot;index&quot;:null}"/><path d="M266.45777,184.52404l-32.98694,11.0512l-4.77897,-14.25146l32.98694,-11.05119z" data-paper-data="{&quot;index&quot;:null}"/></g></g></svg>