<svg version="1.1" xmlns="http://www.w3.org/2000/svg" xmlns:xlink="http://www.w3.org/1999/xlink" width="74.117" height="103.26993" viewBox="0,0,74.117,103.26993"><g transform="translate(-211.17841,-129.33985)"><g data-paper-data="{&quot;isPaintingLayer&quot;:true}" fill="#b1b1b1" fill-rule="nonzero" stroke="#000000" stroke-width="1.5" stroke-linecap="butt" stroke-linejoin="miter" stroke-miterlimit="10" stroke-dasharray="" stroke-dashoffset="0" style="mix-blend-mode: normal"><path d="M233.31429,191.65806l-9.43209,-33.48586l14.46951,-4.07125l9.43207,33.48585z" data-paper-data="{&quot;index&quot;:null}"/><path d="M214.86291,221.30962l20.67192,-30.39968l15.08555,10.25823l-20.67192,30.39968z"/><path d="M230.58077,196.00405l0.51766,-36.01296l28.72791,0.41294l-0.51767,36.01297c0,0 -7.43143,-0.10681 -11.69516,-0.16811c-5.1455,-0.07397 -17.03275,-0.24483 -17.03275,-0.24483z"/><path d="M248.57326,210.11657l20.12551,-31.35647l15.56035,9.98709l-20.12551,31.35647z"/><path d="M262.4273,145.73556c-0.12232,8.50965 -7.56498,15.30256 -16.62365,15.17234c-9.05868,-0.13021 -16.30301,-7.13422 -16.1807,-15.64388c0.12232,-8.50965 7.56498,-15.30255 16.62366,-15.17233c9.05868,0.13021 16.30301,7.13421 16.1807,15.64388z" data-paper-data="{&quot;index&quot;:null}"/><path d="M235.63971,200.30406l-23.40198,-25.7413l11.1193,-10.11454l23.40197,25.74131z" data-paper-data="{&quot;index&quot;:null}"/></g></g></svg>