<svg version="1.1" xmlns="http://www.w3.org/2000/svg" xmlns:xlink="http://www.w3.org/1999/xlink" width="69.81471" height="94.56841" viewBox="0,0,69.81471,94.56841"><g transform="translate(-210.29527,-134.62799)"><g data-paper-data="{&quot;isPaintingLayer&quot;:true}" fill="#b1b1b1" fill-rule="nonzero" stroke="#000000" stroke-width="1.5" stroke-linecap="butt" stroke-linejoin="miter" stroke-miterlimit="10" stroke-dasharray="" stroke-dashoffset="0" style="mix-blend-mode: normal"><path d="M279.14556,174.40599l-32.60058,12.14369l-5.24298,-14.08735l32.60057,-12.14367z" data-paper-data="{&quot;index&quot;:null}"/><path d="M248.27846,224.3062l4.54576,-36.48019l18.10295,2.25579l-4.54576,36.48019z"/><path d="M211.35542,215.47414l25.51606,-27.15132l13.47359,12.66211l-25.51606,27.15132z"/><path d="M233.64933,195.50567l8.8998,-34.89979l27.83991,7.09946l-8.8998,34.8998c0,0 -7.20172,-1.83651 -11.33365,-2.89019c-4.98646,-1.2716 -16.50626,-4.20926 -16.50626,-4.20926z"/><path d="M276.33827,154.90752c-2.10297,8.24662 -10.92428,13.11705 -19.70295,10.87841c-8.77867,-2.23865 -14.19038,-10.73864 -12.08741,-18.98527c2.10297,-8.24662 10.92428,-13.11705 19.70294,-10.8784c8.77867,2.23865 14.19038,10.73863 12.08741,18.98527z" data-paper-data="{&quot;index&quot;:null}"/><path d="M272.21488,184.63741l-34.78092,-0.74471l0.31751,-15.02802l34.78092,0.74472z" data-paper-data="{&quot;index&quot;:null}"/></g></g></svg>