<svg version="1.1" xmlns="http://www.w3.org/2000/svg" xmlns:xlink="http://www.w3.org/1999/xlink" width="129.38789" height="59.42294" viewBox="0,0,129.38789,59.42294"><g transform="translate(-175.30605,-150.28853)"><g data-paper-data="{&quot;isPaintingLayer&quot;:true}" fill="#ffffff" fill-rule="nonzero" stroke="none" stroke-width="0" stroke-linecap="round" stroke-linejoin="miter" stroke-miterlimit="10" stroke-dasharray="" stroke-dashoffset="0" style="mix-blend-mode: normal"><path d="M179.31467,167.60306l72.963,1.21922l-3.31049,3.18007l-15.44901,4.54295l33.10502,0.45429l38.07075,2.49862l-35.86377,4.08864l-36.96726,1.59003l14.89725,2.49862l9.37975,3.63436c0,0 -67.56057,5.02859 -75.29711,4.46387c-1.40961,-0.10289 -2.49967,-10.14256 -2.49967,-10.14256c0,0 3.40627,-3.39418 3.20869,-5.0617c-0.16393,-1.38353 -4.31218,-4.25138 -4.31218,-4.25138z"/><path d="M175.30606,170.09618l11.75617,-19.80765l-0.51865,8.40327l-2.42038,12.00465l5.18655,1.20045l5.96453,6.60254l-5.61875,10.80415l-5.79165,4.20161l2.33394,6.60254l1.46951,9.60372l-12.18839,-15.00581c0,0 0.53366,-8.96905 0.50271,-13.37544c-0.02568,-3.65595 -0.67559,-11.23418 -0.67559,-11.23418z"/><path d="M180.01252,176.186l11.75619,-12.47591l-0.51866,5.29283l-2.42038,7.56116l5.18655,0.75611l5.96453,4.15864l-5.61877,6.80504l-5.79164,2.6464l2.33394,4.15863l1.46951,6.04893l-12.18837,-9.45147c0,0 0.53366,-5.64918 0.50269,-8.42456c-0.0257,-2.30271 -0.67559,-7.07588 -0.67559,-7.07588z"/><path d="M185.964,178.26411l11.75617,-9.01754l-0.51866,3.82564l-2.42038,5.46518l5.18655,0.5465l5.96452,3.00585l-5.61877,4.91865l-5.79164,1.91281l2.33394,3.00585l1.46953,4.37214l-12.18837,-6.83148c0,0 0.53366,-4.08321 0.50269,-6.08923c-0.0257,-1.6644 -0.67559,-5.11442 -0.67559,-5.11442z"/></g></g></svg>