<svg version="1.1" xmlns="http://www.w3.org/2000/svg" xmlns:xlink="http://www.w3.org/1999/xlink" width="15.77794" height="14.00964" viewBox="0,0,15.77794,14.00964"><defs><radialGradient cx="238.54762" cy="180.00002" r="8.73573" gradientUnits="userSpaceOnUse" id="color-1"><stop offset="0" stop-color="#d900ff"/><stop offset="1" stop-color="#d900ff" stop-opacity="0"/></radialGradient><radialGradient cx="241.45369" cy="182.38097" r="8.57857" gradientUnits="userSpaceOnUse" id="color-2"><stop offset="0" stop-color="#d900ff"/><stop offset="1" stop-color="#d900ff" stop-opacity="0"/></radialGradient><radialGradient cx="245.62034" cy="175.98159" r="2.48335" gradientUnits="userSpaceOnUse" id="color-3"><stop offset="0" stop-color="#d900ff"/><stop offset="1" stop-color="#d900ff" stop-opacity="0"/></radialGradient><radialGradient cx="232.81082" cy="180.5054" r="2.48335" gradientUnits="userSpaceOnUse" id="color-4"><stop offset="0" stop-color="#d900ff"/><stop offset="1" stop-color="#d900ff" stop-opacity="0"/></radialGradient></defs><g transform="translate(-231.32662,-173.42376)"><g data-paper-data="{&quot;isPaintingLayer&quot;:true}" fill-rule="nonzero" stroke="none" stroke-width="0" stroke-linecap="butt" stroke-linejoin="miter" stroke-miterlimit="10" stroke-dasharray="" stroke-dashoffset="0" style="mix-blend-mode: normal"><path d="M242.36054,184.54342c-1.96977,2.62578 -5.27367,2.72024 -7.37949,0.21098c-2.10581,-2.50925 -2.21609,-6.67201 -0.24633,-9.2978c0.01714,-0.02284 0.03437,-0.0455 0.05171,-0.06797c0.00674,0.12735 0.05013,0.25195 0.12951,0.34656c0.16726,0.1993 0.43103,0.18998 0.58917,-0.02082c0.15813,-0.2108 0.15074,-0.54324 -0.01652,-0.74255c-0.06258,-0.07457 -0.13868,-0.11993 -0.21769,-0.13647c0.74187,-0.74505 1.61298,-1.19637 2.51356,-1.35111c-0.06195,0.10091 -0.05425,0.24655 0.02086,0.33605c0.07999,0.09532 0.20615,0.09087 0.28178,-0.00995c0.07562,-0.10081 0.07209,-0.25982 -0.0079,-0.35513c-0.00292,-0.00347 -0.00589,-0.00681 -0.00892,-0.01002c1.06457,-0.1083 2.15536,0.19356 3.11043,0.91022c-0.01684,0.01203 -0.03257,0.02739 -0.04657,0.04605c-0.07562,0.10081 -0.07209,0.25981 0.0079,0.35512c0.07999,0.09532 0.20615,0.09087 0.28177,-0.00995c0.03222,-0.04296 0.05008,-0.09648 0.05376,-0.15114c0.22173,0.1928 0.4347,0.40948 0.63663,0.65011c0.16894,0.20129 0.32501,0.41322 0.4682,0.63414c-0.13628,-0.03472 -0.28326,0.01725 -0.38581,0.15396c-0.13537,0.18046 -0.14944,0.45008 -0.04574,0.64899c-0.14773,-0.0593 -0.31595,-0.01188 -0.42961,0.13963c-0.15813,0.2108 -0.15074,0.54324 0.01652,0.74254c0.16726,0.1993 0.43103,0.18997 0.58917,-0.02082c0.13537,-0.18046 0.14943,-0.45008 0.04574,-0.64898c0.14773,0.0593 0.31596,0.01187 0.42961,-0.13964c0.0652,-0.08692 0.10227,-0.19454 0.11157,-0.30496c0.19599,0.37818 0.35844,0.77613 0.4872,1.18697c-0.0801,-0.07908 -0.19629,-0.06967 -0.26758,0.02537c-0.07562,0.10081 -0.07209,0.25982 0.00789,0.35513c0.07999,0.09532 0.20614,0.09086 0.28177,-0.00995c0.02684,-0.03578 0.04373,-0.0789 0.05074,-0.1239c0.62299,2.24533 0.26143,4.8267 -1.11336,6.65934zM237.67569,184.30696c-0.15813,0.2108 -0.15074,0.54324 0.01652,0.74254c0.16726,0.1993 0.43103,0.18997 0.58917,-0.02082c0.15813,-0.2108 0.15072,-0.54324 -0.01653,-0.74254c-0.16726,-0.1993 -0.43103,-0.18997 -0.58917,0.02082zM239.92359,184.64167c-0.15813,0.2108 -0.15074,0.54324 0.01652,0.74254c0.16726,0.1993 0.43103,0.18997 0.58918,-0.02082c0.15813,-0.2108 0.15072,-0.54324 -0.01653,-0.74254c-0.16726,-0.1993 -0.43103,-0.18998 -0.58917,0.02082zM238.71233,181.22071c-0.15813,0.2108 -0.15074,0.54324 0.01652,0.74255c0.16726,0.1993 0.43103,0.18997 0.58917,-0.02082c0.15813,-0.2108 0.15074,-0.54324 -0.01652,-0.74255c-0.16726,-0.1993 -0.43103,-0.18997 -0.58917,0.02082zM239.42117,178.84257c-0.15813,0.2108 -0.15074,0.54324 0.01652,0.74255c0.16726,0.1993 0.43103,0.18997 0.58917,-0.02083c0.15813,-0.2108 0.15074,-0.54324 -0.01652,-0.74254c-0.16726,-0.1993 -0.43103,-0.18998 -0.58917,0.02082zM235.91541,178.36405c-0.15813,0.2108 -0.15074,0.54324 0.01652,0.74254c0.16726,0.1993 0.43103,0.18998 0.58917,-0.02082c0.15813,-0.2108 0.15074,-0.54324 -0.01652,-0.74254c-0.16726,-0.1993 -0.43103,-0.18997 -0.58917,0.02082zM234.8227,180.94402c-0.15813,0.2108 -0.15074,0.54324 0.01652,0.74254c0.16726,0.1993 0.43103,0.18997 0.58917,-0.02082c0.15813,-0.2108 0.15072,-0.54324 -0.01653,-0.74254c-0.16726,-0.1993 -0.43103,-0.18998 -0.58917,0.02082zM238.6331,174.97369c-0.15813,0.2108 -0.15074,0.54324 0.01652,0.74255c0.16726,0.1993 0.43103,0.18998 0.58917,-0.02082c0.15813,-0.2108 0.15074,-0.54324 -0.01652,-0.74255c-0.16726,-0.1993 -0.43103,-0.18998 -0.58917,0.02082zM242.87658,180.26414c0.05843,0.00627 0.11848,-0.01984 0.1619,-0.07772c0.07562,-0.10081 0.07209,-0.25982 -0.0079,-0.35513c-0.07999,-0.09532 -0.20614,-0.09086 -0.28177,0.00995c-0.0556,0.07412 -0.06842,0.17967 -0.03952,0.26825c-0.05843,-0.00627 -0.11848,0.01984 -0.1619,0.07772c-0.07562,0.10081 -0.07209,0.25982 0.0079,0.35513c0.07999,0.09532 0.20615,0.09086 0.28177,-0.00995c0.0556,-0.07412 0.0684,-0.17967 0.03951,-0.26825zM234.8203,177.55677c0.02303,-0.01307 0.04446,-0.03192 0.06289,-0.05649c0.07562,-0.10081 0.07209,-0.25981 -0.0079,-0.35512c-0.07999,-0.09532 -0.20615,-0.09086 -0.28177,0.00995c-0.07205,0.09604 -0.07225,0.24488 -0.00295,0.34117c-0.02303,0.01307 -0.04445,0.03191 -0.06288,0.05648c-0.07562,0.10081 -0.07209,0.25982 0.00789,0.35513c0.07999,0.09532 0.20615,0.09086 0.28177,-0.00995c0.07205,-0.09604 0.07225,-0.24488 0.00295,-0.34116zM234.11089,178.96053c-0.07562,0.10081 -0.07209,0.25982 0.00789,0.35513c0.07999,0.09532 0.20614,0.09086 0.28177,-0.00995c0.07562,-0.10081 0.07209,-0.25982 -0.00789,-0.35513c-0.07999,-0.09532 -0.20614,-0.09086 -0.28177,0.00996zM239.78561,174.8821c-0.07562,0.10081 -0.07209,0.25982 0.00789,0.35513c0.07999,0.09532 0.20614,0.09086 0.28177,-0.00995c0.07562,-0.10081 0.07209,-0.25981 -0.00789,-0.35512c-0.07999,-0.09532 -0.20614,-0.09087 -0.28177,0.00995zM235.42956,182.50946c-0.07562,0.10081 -0.07209,0.25982 0.00789,0.35513c0.07999,0.09532 0.20615,0.09086 0.28177,-0.00996c0.07562,-0.10081 0.07209,-0.25982 -0.00789,-0.35513c-0.07999,-0.09532 -0.20615,-0.09086 -0.28177,0.00996zM242.95803,181.18925c-0.07562,0.10081 -0.07209,0.25982 0.00789,0.35513c0.07999,0.09532 0.20615,0.09086 0.28177,-0.00995c0.07562,-0.10081 0.07209,-0.25982 -0.00789,-0.35513c-0.07999,-0.09532 -0.20615,-0.09086 -0.28177,0.00995zM241.37238,179.7393c-0.07562,0.10081 -0.07209,0.25982 0.0079,0.35513c0.07999,0.09532 0.20615,0.09086 0.28177,-0.00996c0.07562,-0.10081 0.07209,-0.25982 -0.0079,-0.35513c-0.07999,-0.09532 -0.20615,-0.09086 -0.28177,0.00995zM238.84689,184.38412c-0.07562,0.10081 -0.07209,0.25982 0.00789,0.35513c0.07999,0.09532 0.20615,0.09086 0.28178,-0.00995c0.07562,-0.10081 0.07209,-0.25982 -0.0079,-0.35513c-0.07999,-0.09532 -0.20615,-0.09086 -0.28177,0.00995zM240.72323,176.07257c-0.07562,0.10081 -0.07209,0.25982 0.00789,0.35513c0.07999,0.09532 0.20614,0.09087 0.28177,-0.00995c0.07562,-0.10081 0.07209,-0.25982 -0.0079,-0.35513c-0.07999,-0.09532 -0.20614,-0.09086 -0.28177,0.00995zM241.91748,179.40001c-0.07562,0.10081 -0.07209,0.25982 0.0079,0.35513c0.07999,0.09532 0.20615,0.09086 0.28177,-0.00995c0.07562,-0.10081 0.07209,-0.25982 -0.00789,-0.35513c-0.07999,-0.09532 -0.20615,-0.09086 -0.28178,0.00995zM241.19468,180.47974c-0.07562,0.10081 -0.07209,0.25982 0.0079,0.35513c0.07999,0.09532 0.20614,0.09086 0.28177,-0.00996c0.07562,-0.10081 0.07209,-0.25982 -0.0079,-0.35513c-0.07999,-0.09532 -0.20615,-0.09086 -0.28177,0.00996zM240.77345,182.35827c-0.07562,0.10081 -0.07209,0.25982 0.00789,0.35513c0.07999,0.09532 0.20614,0.09086 0.28177,-0.00995c0.07562,-0.10081 0.07209,-0.25982 -0.00789,-0.35513c-0.07999,-0.09532 -0.20614,-0.09086 -0.28177,0.00995zM238.65218,176.97405c-0.07562,0.10081 -0.07209,0.25981 0.0079,0.35512c0.07999,0.09532 0.20615,0.09087 0.28177,-0.00995c0.07562,-0.10081 0.07209,-0.25982 -0.00789,-0.35513c-0.07999,-0.09532 -0.20615,-0.09086 -0.28178,0.00995zM240.74135,181.58759c-0.07562,0.10081 -0.07209,0.25982 0.0079,0.35513c0.07999,0.09532 0.20614,0.09086 0.28177,-0.00996c0.07562,-0.10081 0.07209,-0.25982 -0.0079,-0.35513c-0.07999,-0.09532 -0.20615,-0.09086 -0.28177,0.00996zM240.75836,183.69537c-0.07562,0.10081 -0.07209,0.25982 0.0079,0.35513c0.07999,0.09532 0.20615,0.09087 0.28177,-0.00995c0.07562,-0.10081 0.07209,-0.25982 -0.00789,-0.35513c-0.07999,-0.09532 -0.20615,-0.09087 -0.28178,0.00995zM241.49316,184.49769c-0.07562,0.10081 -0.07209,0.25982 0.0079,0.35513c0.07999,0.09532 0.20615,0.09086 0.28177,-0.00995c0.07562,-0.10081 0.07209,-0.25981 -0.00789,-0.35512c-0.07999,-0.09532 -0.20615,-0.09087 -0.28178,0.00995zM236.55854,174.84552c-0.07562,0.10081 -0.07209,0.25982 0.00789,0.35513c0.07999,0.09532 0.20614,0.09086 0.28177,-0.00995c0.07562,-0.10081 0.07209,-0.25982 -0.00789,-0.35513c-0.07999,-0.09532 -0.20614,-0.09086 -0.28177,0.00995zM235.79027,176.5669c-0.07562,0.10081 -0.07209,0.25982 0.00789,0.35513c0.07999,0.09532 0.20614,0.09086 0.28177,-0.00995c0.07562,-0.10081 0.07209,-0.25982 -0.00789,-0.35513c-0.07999,-0.09532 -0.20614,-0.09086 -0.28177,0.00995zM241.11712,178.33646c-0.07562,0.10081 -0.07209,0.25982 0.0079,0.35513c0.07999,0.09532 0.20615,0.09086 0.28177,-0.00996c0.07562,-0.10081 0.07209,-0.25981 -0.00789,-0.35512c-0.07999,-0.09532 -0.20615,-0.09086 -0.28178,0.00995zM241.70379,182.5513c-0.07562,0.10081 -0.07209,0.25982 0.0079,0.35513c0.07999,0.09532 0.20614,0.09086 0.28177,-0.00996c0.07562,-0.10081 0.07209,-0.25981 -0.0079,-0.35512c-0.07999,-0.09532 -0.20614,-0.09086 -0.28177,0.00995zM237.65823,175.93616c-0.07562,0.10081 -0.07209,0.25982 0.0079,0.35513c0.07999,0.09532 0.20615,0.09087 0.28177,-0.00995c0.07562,-0.10081 0.07209,-0.25982 -0.00789,-0.35513c-0.07999,-0.09532 -0.20615,-0.09086 -0.28178,0.00996zM239.88131,176.49765c-0.07562,0.10081 -0.07209,0.25981 0.00789,0.35512c0.07999,0.09532 0.20614,0.09086 0.28177,-0.00996c0.07562,-0.10081 0.07209,-0.25981 -0.00789,-0.35512c-0.07999,-0.09532 -0.20614,-0.09086 -0.28177,0.00996zM239.25055,185.74407c-0.07562,0.10081 -0.07209,0.25982 0.0079,0.35513c0.07999,0.09532 0.20615,0.09086 0.28177,-0.00996c0.07562,-0.10081 0.07209,-0.25982 -0.00789,-0.35513c-0.07999,-0.09532 -0.20615,-0.09087 -0.28178,0.00995zM238.14781,185.85834c-0.07562,0.10081 -0.07209,0.25982 0.0079,0.35513c0.07999,0.09532 0.20614,0.09087 0.28177,-0.00995c0.07562,-0.10081 0.07209,-0.25982 -0.0079,-0.35513c-0.07999,-0.09532 -0.20614,-0.09087 -0.28177,0.00995zM234.88643,178.2366c-0.07562,0.10081 -0.07209,0.25982 0.00789,0.35513c0.07999,0.09532 0.20614,0.09086 0.28177,-0.00996c0.07562,-0.10081 0.07209,-0.25982 -0.00789,-0.35513c-0.07999,-0.09532 -0.20614,-0.09086 -0.28177,0.00995zM242.34151,178.98971c-0.07562,0.10081 -0.07209,0.25982 0.0079,0.35513c0.07999,0.09532 0.20614,0.09086 0.28177,-0.00995c0.07562,-0.10081 0.07209,-0.25981 -0.0079,-0.35512c-0.07999,-0.09532 -0.20615,-0.09087 -0.28177,0.00995zM240.08216,177.46944c-0.07562,0.10081 -0.07209,0.25982 0.0079,0.35513c0.07999,0.09532 0.20615,0.09086 0.28177,-0.00995c0.07562,-0.10081 0.07209,-0.25982 -0.0079,-0.35513c-0.07999,-0.09532 -0.20614,-0.09086 -0.28177,0.00995zM235.61508,179.43446c-0.07562,0.10081 -0.07209,0.25982 0.00789,0.35513c0.07999,0.09532 0.20615,0.09086 0.28178,-0.00996c0.07562,-0.10081 0.07209,-0.25981 -0.0079,-0.35512c-0.07999,-0.09532 -0.20615,-0.09087 -0.28177,0.00995zM240.6094,179.01326c-0.07562,0.10081 -0.07209,0.25982 0.00789,0.35513c0.07999,0.09532 0.20614,0.09086 0.28177,-0.00995c0.07562,-0.10081 0.07209,-0.25982 -0.00789,-0.35513c-0.07999,-0.09532 -0.20614,-0.09086 -0.28177,0.00995zM236.36857,184.43406c-0.07562,0.10081 -0.07209,0.25981 0.0079,0.35512c0.07999,0.09532 0.20614,0.09087 0.28177,-0.00995c0.07562,-0.10081 0.07209,-0.25982 -0.0079,-0.35513c-0.07999,-0.09532 -0.20614,-0.09086 -0.28177,0.00995zM242.10355,181.05001c-0.07562,0.10081 -0.07209,0.25982 0.0079,0.35513c0.07999,0.09532 0.20614,0.09087 0.28177,-0.00995c0.07562,-0.10081 0.07209,-0.25982 -0.0079,-0.35513c-0.07999,-0.09532 -0.20614,-0.09087 -0.28177,0.00995zM236.01595,183.35468c-0.07562,0.10081 -0.07209,0.25982 0.00789,0.35513c0.07999,0.09532 0.20615,0.09086 0.28178,-0.00996c0.07562,-0.10081 0.07209,-0.25982 -0.0079,-0.35513c-0.07999,-0.09532 -0.20615,-0.09086 -0.28177,0.00996zM234.43449,180.07857c-0.07562,0.10081 -0.07209,0.25982 0.00789,0.35513c0.07999,0.09532 0.20615,0.09087 0.28178,-0.00995c0.07562,-0.10081 0.07209,-0.25982 -0.0079,-0.35513c-0.07999,-0.09532 -0.20615,-0.09087 -0.28177,0.00995zM235.22424,184.02269c-0.07562,0.10081 -0.07209,0.25982 0.00789,0.35513c0.07999,0.09532 0.20614,0.09086 0.28177,-0.00995c0.07562,-0.10081 0.07209,-0.25981 -0.00789,-0.35512c-0.07999,-0.09532 -0.20614,-0.09087 -0.28177,0.00995zM241.87368,178.10264c-0.07562,0.10081 -0.07209,0.25982 0.0079,0.35513c0.07999,0.09532 0.20615,0.09086 0.28177,-0.00996c0.07562,-0.10081 0.07209,-0.25982 -0.00789,-0.35513c-0.07999,-0.09532 -0.20615,-0.09086 -0.28178,0.00995zM242.54989,178.28583c-0.07562,0.10081 -0.07209,0.25982 0.0079,0.35513c0.07999,0.09532 0.20614,0.09086 0.28177,-0.00995c0.07562,-0.10081 0.07209,-0.25982 -0.0079,-0.35513c-0.07999,-0.09532 -0.20614,-0.09086 -0.28177,0.00995zM237.41607,185.86537c-0.07562,0.10081 -0.07209,0.25982 0.00789,0.35513c0.07999,0.09532 0.20615,0.09086 0.28178,-0.00996c0.07562,-0.10081 0.07209,-0.25981 -0.0079,-0.35512c-0.07999,-0.09532 -0.20615,-0.09087 -0.28177,0.00995zM237.24563,183.57476c-0.07562,0.10081 -0.07209,0.25982 0.00789,0.35513c0.07999,0.09532 0.20614,0.09086 0.28177,-0.00995c0.07562,-0.10081 0.07209,-0.25981 -0.00789,-0.35512c-0.07999,-0.09532 -0.20614,-0.09087 -0.28177,0.00995zM241.63803,181.87429c0.10907,0 0.19748,-0.06656 0.19748,-0.14867c0,-0.08211 -0.08841,-0.14866 -0.19748,-0.14866c-0.10907,0 -0.19749,0.06656 -0.19749,0.14866c0,0.08211 0.08841,0.14867 0.19749,0.14867zM242.58138,182.25895c0.10907,0 0.19748,-0.06656 0.19748,-0.14866c0,-0.08211 -0.08841,-0.14867 -0.19748,-0.14867c-0.10907,0 -0.19749,0.06656 -0.19749,0.14867c0,0.08211 0.08841,0.14866 0.19749,0.14866zM234.32719,182.58443c0.10907,0 0.19748,-0.06656 0.19748,-0.14867c0,-0.08211 -0.08841,-0.14866 -0.19748,-0.14866c-0.10907,0 -0.19749,0.06656 -0.19749,0.14866c0,0.08211 0.08841,0.14867 0.19749,0.14867zM233.73761,181.07539c0.10907,0 0.19749,-0.06656 0.19749,-0.14866c0,-0.08211 -0.08841,-0.14867 -0.19749,-0.14867c-0.10907,0 -0.19748,0.06657 -0.19748,0.14867c0,0.08211 0.08841,0.14866 0.19748,0.14866zM238.49359,179.18167c0.10907,0 0.19749,-0.06657 0.19749,-0.14867c0,-0.08211 -0.08841,-0.14866 -0.19749,-0.14866c-0.10907,0 -0.19749,0.06656 -0.19749,0.14866c0,0.08211 0.08841,0.14867 0.19749,0.14867zM239.12248,183.29457c0.10907,0 0.19748,-0.06656 0.19748,-0.14867c0,-0.08211 -0.08841,-0.14866 -0.19748,-0.14866c-0.10907,0 -0.19749,0.06656 -0.19749,0.14866c0,0.08211 0.08841,0.14867 0.19749,0.14867zM238.17914,178.53071c0.10907,0 0.19748,-0.06656 0.19748,-0.14867c0,-0.08211 -0.08841,-0.14867 -0.19748,-0.14867c-0.10907,0 -0.19749,0.06657 -0.19749,0.14867c0,0.08211 0.08841,0.14867 0.19749,0.14867zM240.06582,180.69072c0.10907,0 0.19748,-0.06656 0.19748,-0.14866c0,-0.08211 -0.08841,-0.14867 -0.19748,-0.14867c-0.10907,0 -0.19749,0.06656 -0.19749,0.14867c0,0.08211 0.08841,0.14866 0.19749,0.14866zM237.8647,182.99868c0.10907,0 0.19749,-0.06656 0.19749,-0.14867c0,-0.08211 -0.08841,-0.14866 -0.19749,-0.14866c-0.10907,0 -0.19748,0.06656 -0.19748,0.14866c0,0.08211 0.08841,0.14867 0.19748,0.14867zM236.489,181.40087c0.10907,0 0.19749,-0.06657 0.19749,-0.14867c0,-0.08211 -0.08842,-0.14867 -0.19749,-0.14867c-0.10907,0 -0.19749,0.06656 -0.19749,0.14867c0,0.08211 0.08841,0.14867 0.19749,0.14867zM236.84274,179.74387c0.10907,0 0.19748,-0.06656 0.19748,-0.14866c0,-0.08211 -0.08841,-0.14867 -0.19748,-0.14867c-0.10907,0 -0.19749,0.06656 -0.19749,0.14867c0,0.08211 0.08841,0.14866 0.19749,0.14866zM238.06123,179.71428c0.10907,0 0.19748,-0.06656 0.19748,-0.14867c0,-0.08211 -0.08841,-0.14866 -0.19748,-0.14866c-0.10907,0 -0.19749,0.06656 -0.19749,0.14866c0,0.08211 0.08841,0.14867 0.19749,0.14867zM237.23581,178.97455c0.10907,0 0.19749,-0.06656 0.19749,-0.14866c0,-0.08211 -0.08841,-0.14867 -0.19749,-0.14867c-0.10907,0 -0.19748,0.06656 -0.19748,0.14867c0,0.08211 0.08841,0.14866 0.19748,0.14866zM237.51095,181.25292c0.10907,0 0.19748,-0.06656 0.19748,-0.14867c0,-0.08211 -0.08841,-0.14867 -0.19748,-0.14867c-0.10907,0 -0.19749,0.06656 -0.19749,0.14867c0,0.08211 0.08842,0.14867 0.19749,0.14867zM242.03109,183.82718c0.10907,0 0.19749,-0.06656 0.19749,-0.14866c0,-0.08211 -0.08841,-0.14867 -0.19749,-0.14867c-0.10907,0 -0.19748,0.06656 -0.19748,0.14867c0,0.08211 0.08841,0.14866 0.19748,0.14866zM234.72025,183.88636c0.10907,0 0.19749,-0.06657 0.19749,-0.14867c0,-0.08211 -0.08841,-0.14867 -0.19749,-0.14867c-0.10907,0 -0.19748,0.06656 -0.19748,0.14867c0,0.08211 0.08841,0.14867 0.19748,0.14867zM236.92137,177.58386c0.10907,0 0.19749,-0.06656 0.19749,-0.14866c0,-0.08211 -0.08841,-0.14867 -0.19749,-0.14867c-0.10907,0 -0.19749,0.06656 -0.19749,0.14867c0,0.08211 0.08842,0.14866 0.19749,0.14866zM239.90859,182.61402c0.10907,0 0.19749,-0.06656 0.19749,-0.14867c0,-0.08211 -0.08841,-0.14866 -0.19749,-0.14866c-0.10907,0 -0.19749,0.06656 -0.19749,0.14866c0,0.08211 0.08842,0.14867 0.19749,0.14867zM238.10053,176.9329c0.10907,0 0.19748,-0.06657 0.19748,-0.14867c0,-0.08211 -0.08841,-0.14866 -0.19748,-0.14866c-0.10907,0 -0.19749,0.06656 -0.19749,0.14866c0,0.08211 0.08841,0.14867 0.19749,0.14867zM236.09595,180.72031c0.10907,0 0.19749,-0.06656 0.19749,-0.14867c0,-0.08211 -0.08841,-0.14867 -0.19749,-0.14867c-0.10907,0 -0.19748,0.06657 -0.19748,0.14867c0,0.08211 0.08841,0.14867 0.19748,0.14867zM237.55026,178.17565c0.10907,0 0.19748,-0.06656 0.19748,-0.14867c0,-0.08211 -0.08841,-0.14867 -0.19748,-0.14867c-0.10907,0 -0.19749,0.06657 -0.19749,0.14867c0,0.08211 0.08841,0.14867 0.19749,0.14867zM236.76415,182.22936c0.10907,0 0.19748,-0.06656 0.19748,-0.14867c0,-0.08211 -0.08841,-0.14867 -0.19748,-0.14867c-0.10907,0 -0.19749,0.06656 -0.19749,0.14867c0,0.08211 0.08841,0.14867 0.19749,0.14867zM239.16178,180.24689c0.10907,0 0.19749,-0.06657 0.19749,-0.14867c0,-0.08211 -0.08841,-0.14867 -0.19749,-0.14867c-0.10907,0 -0.19748,0.06656 -0.19748,0.14867c0,0.08211 0.08841,0.14867 0.19748,0.14867zM237.39303,180.27647c0.10907,0 0.19748,-0.06656 0.19748,-0.14866c0,-0.08211 -0.08841,-0.14867 -0.19748,-0.14867c-0.10907,0 -0.19749,0.06656 -0.19749,0.14867c0,0.08211 0.08841,0.14866 0.19749,0.14866zM238.33636,180.69072c0.10907,0 0.19748,-0.06656 0.19748,-0.14866c0,-0.08211 -0.08841,-0.14867 -0.19748,-0.14867c-0.10907,0 -0.19749,0.06656 -0.19749,0.14867c0,0.08211 0.08841,0.14866 0.19749,0.14866zM234.05205,181.81511c0.10907,0 0.19749,-0.06656 0.19749,-0.14866c0,-0.08211 -0.08842,-0.14867 -0.19749,-0.14867c-0.10907,0 -0.19749,0.06657 -0.19749,0.14867c0,0.08211 0.08841,0.14866 0.19749,0.14866zM236.92137,180.72031c0.10907,0 0.19749,-0.06656 0.19749,-0.14867c0,-0.08211 -0.08841,-0.14867 -0.19749,-0.14867c-0.10907,0 -0.19749,0.06657 -0.19749,0.14867c0,0.08211 0.08842,0.14867 0.19749,0.14867zM240.02651,183.88636c0.10907,0 0.19748,-0.06657 0.19748,-0.14867c0,-0.08211 -0.08841,-0.14867 -0.19748,-0.14867c-0.10907,0 -0.19749,0.06656 -0.19749,0.14867c0,0.08211 0.08841,0.14867 0.19749,0.14867z" data-paper-data="{&quot;index&quot;:null}" fill="url(#color-1)"/><path d="M245.198,185.8716c-1.93433,2.01735 -5.17879,2.08992 -7.24673,0.16209c-2.06793,-1.92782 -2.17622,-5.12601 -0.2419,-7.14337c0.01683,-0.01755 0.03375,-0.03496 0.05078,-0.05222c0.00662,0.09784 0.04922,0.19357 0.12718,0.26626c0.16425,0.15312 0.42328,0.14596 0.57857,-0.016c0.15529,-0.16195 0.14803,-0.41736 -0.01622,-0.57049c-0.06146,-0.05729 -0.13619,-0.09214 -0.21378,-0.10485c0.72852,-0.57241 1.58396,-0.91915 2.46834,-1.03804c-0.06083,0.07753 -0.05327,0.18942 0.02048,0.25818c0.07855,0.07323 0.20244,0.06981 0.27671,-0.00764c0.07426,-0.07745 0.07079,-0.19962 -0.00776,-0.27284c-0.00287,-0.00267 -0.00579,-0.00523 -0.00876,-0.0077c1.04541,-0.08321 2.11658,0.14871 3.05447,0.69931c-0.01654,0.00924 -0.03198,0.02104 -0.04574,0.03538c-0.07426,0.07745 -0.07079,0.19961 0.00776,0.27283c0.07855,0.07323 0.20244,0.06981 0.2767,-0.00764c0.03164,-0.03301 0.04918,-0.07412 0.05279,-0.11612c0.21774,0.14813 0.42688,0.3146 0.62518,0.49947c0.1659,0.15465 0.31916,0.31747 0.45978,0.4872c-0.13383,-0.02667 -0.27817,0.01325 -0.37887,0.11829c-0.13294,0.13864 -0.14675,0.34579 -0.04492,0.49861c-0.14508,-0.04556 -0.31026,-0.00913 -0.42188,0.10728c-0.15529,0.16195 -0.14803,0.41736 0.01622,0.57048c0.16425,0.15312 0.42328,0.14595 0.57857,-0.016c0.13294,-0.13864 0.14674,-0.34579 0.04492,-0.4986c0.14508,0.04556 0.31028,0.00912 0.42188,-0.10728c0.06403,-0.06678 0.10043,-0.14946 0.10957,-0.2343c0.19246,0.29055 0.35199,0.59629 0.47843,0.91193c-0.07866,-0.06076 -0.19276,-0.05353 -0.26277,0.01949c-0.07426,0.07745 -0.0708,0.19962 0.00775,0.27284c0.07855,0.07323 0.20244,0.06981 0.2767,-0.00764c0.02636,-0.02749 0.04294,-0.06062 0.04982,-0.09519c0.61178,1.72506 0.25672,3.70829 -1.09333,5.11628zM240.59744,185.68993c-0.15529,0.16195 -0.14803,0.41736 0.01622,0.57048c0.16425,0.15312 0.42328,0.14595 0.57857,-0.016c0.15529,-0.16195 0.14801,-0.41736 -0.01623,-0.57048c-0.16425,-0.15312 -0.42328,-0.14595 -0.57857,0.016zM242.8049,185.94708c-0.15529,0.16195 -0.14803,0.41736 0.01622,0.57048c0.16425,0.15312 0.42328,0.14595 0.57858,-0.016c0.15529,-0.16195 0.14801,-0.41736 -0.01623,-0.57048c-0.16425,-0.15312 -0.42328,-0.14596 -0.57857,0.016zM241.61543,183.31881c-0.15529,0.16195 -0.14803,0.41736 0.01622,0.57049c0.16425,0.15312 0.42328,0.14595 0.57857,-0.016c0.15529,-0.16195 0.14803,-0.41736 -0.01622,-0.57049c-0.16425,-0.15312 -0.42328,-0.14595 -0.57857,0.016zM242.31152,181.49172c-0.15529,0.16195 -0.14803,0.41736 0.01622,0.57049c0.16425,0.15312 0.42328,0.14595 0.57857,-0.016c0.15529,-0.16195 0.14803,-0.41736 -0.01622,-0.57048c-0.16425,-0.15312 -0.42328,-0.14596 -0.57857,0.016zM238.86883,181.12408c-0.15529,0.16195 -0.14803,0.41736 0.01622,0.57048c0.16425,0.15312 0.42328,0.14596 0.57857,-0.016c0.15529,-0.16195 0.14803,-0.41736 -0.01622,-0.57048c-0.16425,-0.15312 -0.42328,-0.14595 -0.57857,0.016zM237.79578,183.10623c-0.15529,0.16195 -0.14803,0.41736 0.01622,0.57048c0.16425,0.15312 0.42328,0.14595 0.57857,-0.016c0.15529,-0.16195 0.14801,-0.41736 -0.01623,-0.57048c-0.16425,-0.15312 -0.42328,-0.14596 -0.57857,0.016zM241.53763,178.51931c-0.15529,0.16195 -0.14803,0.41736 0.01622,0.57049c0.16425,0.15312 0.42328,0.14596 0.57857,-0.016c0.15529,-0.16195 0.14803,-0.41736 -0.01622,-0.57049c-0.16425,-0.15312 -0.42328,-0.14596 -0.57857,0.016zM245.70476,182.58389c0.05738,0.00482 0.11635,-0.01524 0.15899,-0.05971c0.07426,-0.07745 0.07079,-0.19962 -0.00776,-0.27284c-0.07855,-0.07323 -0.20244,-0.06981 -0.2767,0.00764c-0.0546,0.05695 -0.06719,0.13804 -0.03881,0.20609c-0.05738,-0.00482 -0.11635,0.01524 -0.15899,0.05971c-0.07426,0.07745 -0.07079,0.19962 0.00776,0.27284c0.07855,0.07323 0.20244,0.06981 0.2767,-0.00764c0.0546,-0.05695 0.06717,-0.13804 0.0388,-0.20609zM237.79343,180.50385c0.02262,-0.01004 0.04366,-0.02452 0.06175,-0.0434c0.07426,-0.07745 0.07079,-0.19961 -0.00776,-0.27283c-0.07855,-0.07323 -0.20244,-0.06981 -0.2767,0.00764c-0.07075,0.07379 -0.07095,0.18814 -0.0029,0.26212c-0.02262,0.01004 -0.04365,0.02452 -0.06175,0.04339c-0.07426,0.07745 -0.0708,0.19962 0.00775,0.27284c0.07855,0.07323 0.20244,0.06981 0.2767,-0.00764c0.07075,-0.07379 0.07095,-0.18814 0.0029,-0.26211zM237.09677,181.58234c-0.07426,0.07745 -0.0708,0.19962 0.00775,0.27284c0.07855,0.07323 0.20244,0.06981 0.2767,-0.00764c0.07426,-0.07745 0.0708,-0.19962 -0.00775,-0.27284c-0.07855,-0.07323 -0.20244,-0.06981 -0.2767,0.00765zM242.66941,178.44894c-0.07426,0.07745 -0.0708,0.19962 0.00775,0.27284c0.07855,0.07323 0.20244,0.06981 0.2767,-0.00764c0.07426,-0.07745 0.0708,-0.19961 -0.00775,-0.27283c-0.07855,-0.07323 -0.20244,-0.06981 -0.2767,0.00764zM238.39172,184.30894c-0.07426,0.07745 -0.0708,0.19962 0.00775,0.27284c0.07855,0.07323 0.20244,0.06981 0.2767,-0.00765c0.07426,-0.07745 0.0708,-0.19962 -0.00775,-0.27284c-0.07855,-0.07323 -0.20244,-0.06981 -0.2767,0.00765zM245.78474,183.29464c-0.07426,0.07745 -0.0708,0.19962 0.00775,0.27284c0.07855,0.07323 0.20244,0.06981 0.2767,-0.00764c0.07426,-0.07745 0.0708,-0.19962 -0.00775,-0.27284c-0.07855,-0.07323 -0.20244,-0.06981 -0.2767,0.00764zM244.22762,182.18066c-0.07426,0.07745 -0.07079,0.19962 0.00776,0.27284c0.07855,0.07323 0.20244,0.06981 0.2767,-0.00765c0.07426,-0.07745 0.07079,-0.19962 -0.00776,-0.27284c-0.07855,-0.07323 -0.20244,-0.06981 -0.2767,0.00764zM241.74757,185.74921c-0.07426,0.07745 -0.0708,0.19962 0.00775,0.27284c0.07855,0.07323 0.20244,0.06981 0.27671,-0.00764c0.07426,-0.07745 0.07079,-0.19962 -0.00776,-0.27284c-0.07855,-0.07323 -0.20244,-0.06981 -0.2767,0.00764zM243.59015,179.36356c-0.07426,0.07745 -0.0708,0.19962 0.00775,0.27284c0.07855,0.07323 0.20244,0.06981 0.2767,-0.00764c0.07426,-0.07745 0.07079,-0.19962 -0.00776,-0.27284c-0.07855,-0.07323 -0.20244,-0.06981 -0.2767,0.00764zM244.76292,181.91999c-0.07426,0.07745 -0.07079,0.19962 0.00776,0.27284c0.07855,0.07323 0.20244,0.06981 0.2767,-0.00764c0.07426,-0.07745 0.0708,-0.19962 -0.00775,-0.27284c-0.07855,-0.07323 -0.20244,-0.06981 -0.27671,0.00764zM244.05312,182.74953c-0.07426,0.07745 -0.07079,0.19962 0.00776,0.27284c0.07855,0.07323 0.20244,0.06981 0.2767,-0.00765c0.07426,-0.07745 0.07079,-0.19962 -0.00776,-0.27284c-0.07855,-0.07323 -0.20244,-0.06981 -0.2767,0.00765zM243.63947,184.19278c-0.07426,0.07745 -0.0708,0.19962 0.00775,0.27284c0.07855,0.07323 0.20244,0.06981 0.2767,-0.00764c0.07426,-0.07745 0.0708,-0.19962 -0.00775,-0.27284c-0.07855,-0.07323 -0.20244,-0.06981 -0.2767,0.00764zM241.55636,180.05616c-0.07426,0.07745 -0.07079,0.19961 0.00776,0.27283c0.07855,0.07323 0.20244,0.06981 0.2767,-0.00764c0.07426,-0.07745 0.0708,-0.19962 -0.00775,-0.27284c-0.07855,-0.07323 -0.20244,-0.06981 -0.27671,0.00764zM243.60795,183.60068c-0.07426,0.07745 -0.07079,0.19962 0.00776,0.27284c0.07855,0.07323 0.20244,0.06981 0.2767,-0.00765c0.07426,-0.07745 0.07079,-0.19962 -0.00776,-0.27284c-0.07855,-0.07323 -0.20244,-0.06981 -0.2767,0.00765zM243.62465,185.22005c-0.07426,0.07745 -0.07079,0.19962 0.00776,0.27284c0.07855,0.07323 0.20244,0.06981 0.2767,-0.00764c0.07426,-0.07745 0.0708,-0.19962 -0.00775,-0.27284c-0.07855,-0.07323 -0.20244,-0.06981 -0.27671,0.00764zM244.34623,185.83647c-0.07426,0.07745 -0.07079,0.19962 0.00776,0.27284c0.07855,0.07323 0.20244,0.06981 0.2767,-0.00764c0.07426,-0.07745 0.0708,-0.19961 -0.00775,-0.27283c-0.07855,-0.07323 -0.20244,-0.06981 -0.27671,0.00764zM239.5004,178.42084c-0.07426,0.07745 -0.0708,0.19962 0.00775,0.27284c0.07855,0.07323 0.20244,0.06981 0.2767,-0.00764c0.07426,-0.07745 0.0708,-0.19962 -0.00775,-0.27284c-0.07855,-0.07323 -0.20244,-0.06981 -0.2767,0.00764zM238.74595,179.74335c-0.07426,0.07745 -0.0708,0.19962 0.00775,0.27284c0.07855,0.07323 0.20244,0.06981 0.2767,-0.00764c0.07426,-0.07745 0.0708,-0.19962 -0.00775,-0.27284c-0.07855,-0.07323 -0.20244,-0.06981 -0.2767,0.00764zM243.97696,181.10288c-0.07426,0.07745 -0.07079,0.19962 0.00776,0.27284c0.07855,0.07323 0.20244,0.06981 0.2767,-0.00765c0.07426,-0.07745 0.0708,-0.19961 -0.00775,-0.27283c-0.07855,-0.07323 -0.20244,-0.06981 -0.27671,0.00764zM244.55307,184.34108c-0.07426,0.07745 -0.07079,0.19962 0.00776,0.27284c0.07855,0.07323 0.20244,0.06981 0.2767,-0.00765c0.07426,-0.07745 0.07079,-0.19961 -0.00776,-0.27283c-0.07855,-0.07323 -0.20244,-0.06981 -0.2767,0.00764zM240.5803,179.25876c-0.07426,0.07745 -0.07079,0.19962 0.00776,0.27284c0.07855,0.07323 0.20244,0.06981 0.2767,-0.00764c0.07426,-0.07745 0.0708,-0.19962 -0.00775,-0.27284c-0.07855,-0.07323 -0.20244,-0.06981 -0.27671,0.00765zM242.76338,179.69015c-0.07426,0.07745 -0.0708,0.19961 0.00775,0.27283c0.07855,0.07323 0.20244,0.06981 0.2767,-0.00765c0.07426,-0.07745 0.0708,-0.19961 -0.00775,-0.27283c-0.07855,-0.07323 -0.20244,-0.06981 -0.2767,0.00765zM242.14397,186.79404c-0.07426,0.07745 -0.07079,0.19962 0.00776,0.27284c0.07855,0.07323 0.20244,0.06981 0.2767,-0.00765c0.07426,-0.07745 0.0708,-0.19962 -0.00775,-0.27284c-0.07855,-0.07323 -0.20244,-0.06981 -0.27671,0.00764zM241.06107,186.88183c-0.07426,0.07745 -0.07079,0.19962 0.00776,0.27284c0.07855,0.07323 0.20244,0.06981 0.2767,-0.00764c0.07426,-0.07745 0.07079,-0.19962 -0.00776,-0.27284c-0.07855,-0.07323 -0.20244,-0.06981 -0.2767,0.00764zM237.85836,181.02616c-0.07426,0.07745 -0.0708,0.19962 0.00775,0.27284c0.07855,0.07323 0.20244,0.06981 0.2767,-0.00765c0.07426,-0.07745 0.0708,-0.19962 -0.00775,-0.27284c-0.07855,-0.07323 -0.20244,-0.06981 -0.2767,0.00764zM245.17932,181.60476c-0.07426,0.07745 -0.07079,0.19962 0.00776,0.27284c0.07855,0.07323 0.20244,0.06981 0.2767,-0.00764c0.07426,-0.07745 0.07079,-0.19961 -0.00776,-0.27283c-0.07855,-0.07323 -0.20244,-0.06981 -0.2767,0.00764zM242.96062,180.43676c-0.07426,0.07745 -0.07079,0.19962 0.00776,0.27284c0.07855,0.07323 0.20244,0.06981 0.2767,-0.00764c0.07426,-0.07745 0.07079,-0.19962 -0.00776,-0.27284c-0.07855,-0.07323 -0.20244,-0.06981 -0.2767,0.00764zM238.5739,181.94646c-0.07426,0.07745 -0.0708,0.19962 0.00775,0.27284c0.07855,0.07323 0.20244,0.06981 0.27671,-0.00765c0.07426,-0.07745 0.07079,-0.19961 -0.00776,-0.27283c-0.07855,-0.07323 -0.20244,-0.06981 -0.2767,0.00764zM243.47837,181.62285c-0.07426,0.07745 -0.0708,0.19962 0.00775,0.27284c0.07855,0.07323 0.20244,0.06981 0.2767,-0.00764c0.07426,-0.07745 0.0708,-0.19962 -0.00775,-0.27284c-0.07855,-0.07323 -0.20244,-0.06981 -0.2767,0.00764zM239.31384,185.78758c-0.07426,0.07745 -0.07079,0.19961 0.00776,0.27283c0.07855,0.07323 0.20244,0.06981 0.2767,-0.00764c0.07426,-0.07745 0.07079,-0.19962 -0.00776,-0.27284c-0.07855,-0.07323 -0.20244,-0.06981 -0.2767,0.00764zM244.94564,183.18766c-0.07426,0.07745 -0.07079,0.19962 0.00776,0.27284c0.07855,0.07323 0.20244,0.06981 0.2767,-0.00764c0.07426,-0.07745 0.07079,-0.19962 -0.00776,-0.27284c-0.07855,-0.07323 -0.20244,-0.06981 -0.2767,0.00764zM238.96757,184.95831c-0.07426,0.07745 -0.0708,0.19962 0.00775,0.27284c0.07855,0.07323 0.20244,0.06981 0.27671,-0.00765c0.07426,-0.07745 0.07079,-0.19962 -0.00776,-0.27284c-0.07855,-0.07323 -0.20244,-0.06981 -0.2767,0.00765zM237.41455,182.44132c-0.07426,0.07745 -0.0708,0.19962 0.00775,0.27284c0.07855,0.07323 0.20244,0.06981 0.27671,-0.00764c0.07426,-0.07745 0.07079,-0.19962 -0.00776,-0.27284c-0.07855,-0.07323 -0.20244,-0.06981 -0.2767,0.00764zM238.1901,185.47153c-0.07426,0.07745 -0.0708,0.19962 0.00775,0.27284c0.07855,0.07323 0.20244,0.06981 0.2767,-0.00764c0.07426,-0.07745 0.0708,-0.19961 -0.00775,-0.27283c-0.07855,-0.07323 -0.20244,-0.06981 -0.2767,0.00764zM244.71991,180.92324c-0.07426,0.07745 -0.07079,0.19962 0.00776,0.27284c0.07855,0.07323 0.20244,0.06981 0.2767,-0.00765c0.07426,-0.07745 0.0708,-0.19962 -0.00775,-0.27284c-0.07855,-0.07323 -0.20244,-0.06981 -0.27671,0.00764zM245.38395,181.06398c-0.07426,0.07745 -0.07079,0.19962 0.00776,0.27284c0.07855,0.07323 0.20244,0.06981 0.2767,-0.00764c0.07426,-0.07745 0.07079,-0.19962 -0.00776,-0.27284c-0.07855,-0.07323 -0.20244,-0.06981 -0.2767,0.00764zM240.34249,186.88723c-0.07426,0.07745 -0.0708,0.19962 0.00775,0.27284c0.07855,0.07323 0.20244,0.06981 0.27671,-0.00765c0.07426,-0.07745 0.07079,-0.19961 -0.00776,-0.27283c-0.07855,-0.07323 -0.20244,-0.06981 -0.2767,0.00764zM240.17512,185.12739c-0.07426,0.07745 -0.0708,0.19962 0.00775,0.27284c0.07855,0.07323 0.20244,0.06981 0.2767,-0.00764c0.07426,-0.07745 0.0708,-0.19961 -0.00775,-0.27283c-0.07855,-0.07323 -0.20244,-0.06981 -0.2767,0.00764zM244.4885,183.82094c0.10711,0 0.19393,-0.05114 0.19393,-0.11422c0,-0.06308 -0.08682,-0.11421 -0.19393,-0.11421c-0.10711,0 -0.19394,0.05114 -0.19394,0.11421c0,0.06308 0.08682,0.11422 0.19394,0.11422zM245.41487,184.11647c0.10711,0 0.19393,-0.05114 0.19393,-0.11421c0,-0.06308 -0.08682,-0.11422 -0.19393,-0.11422c-0.10711,0 -0.19394,0.05114 -0.19394,0.11422c0,0.06308 0.08682,0.11421 0.19394,0.11421zM237.30919,184.36653c0.10711,0 0.19393,-0.05114 0.19393,-0.11422c0,-0.06308 -0.08682,-0.11421 -0.19393,-0.11421c-0.10711,0 -0.19394,0.05114 -0.19394,0.11421c0,0.06308 0.08682,0.11422 0.19394,0.11422zM236.73022,183.20716c0.10711,0 0.19394,-0.05114 0.19394,-0.11421c0,-0.06308 -0.08682,-0.11422 -0.19394,-0.11422c-0.10711,0 -0.19393,0.05114 -0.19393,0.11422c0,0.06308 0.08682,0.11421 0.19393,0.11421zM241.40063,181.75224c0.10711,0 0.19394,-0.05114 0.19394,-0.11422c0,-0.06308 -0.08682,-0.11421 -0.19394,-0.11421c-0.10711,0 -0.19394,0.05114 -0.19394,0.11421c0,0.06308 0.08682,0.11422 0.19394,0.11422zM242.01821,184.91212c0.10711,0 0.19393,-0.05114 0.19393,-0.11422c0,-0.06308 -0.08682,-0.11421 -0.19393,-0.11421c-0.10711,0 -0.19394,0.05114 -0.19394,0.11421c0,0.06308 0.08682,0.11422 0.19394,0.11422zM241.09184,181.25212c0.10711,0 0.19393,-0.05114 0.19393,-0.11422c0,-0.06308 -0.08682,-0.11422 -0.19393,-0.11422c-0.10711,0 -0.19394,0.05114 -0.19394,0.11422c0,0.06308 0.08682,0.11422 0.19394,0.11422zM242.94457,182.91162c0.10711,0 0.19393,-0.05114 0.19393,-0.11421c0,-0.06308 -0.08682,-0.11422 -0.19393,-0.11422c-0.10711,0 -0.19394,0.05114 -0.19394,0.11422c0,0.06308 0.08682,0.11421 0.19394,0.11421zM240.78305,184.6848c0.10711,0 0.19394,-0.05114 0.19394,-0.11422c0,-0.06308 -0.08682,-0.11421 -0.19394,-0.11421c-0.10711,0 -0.19393,0.05114 -0.19393,0.11421c0,0.06308 0.08682,0.11422 0.19393,0.11422zM239.4321,183.45722c0.10711,0 0.19394,-0.05114 0.19394,-0.11422c0,-0.06308 -0.08683,-0.11422 -0.19394,-0.11422c-0.10711,0 -0.19394,0.05114 -0.19394,0.11422c0,0.06308 0.08682,0.11422 0.19394,0.11422zM239.77948,182.18417c0.10711,0 0.19393,-0.05114 0.19393,-0.11421c0,-0.06308 -0.08682,-0.11422 -0.19393,-0.11422c-0.10711,0 -0.19394,0.05114 -0.19394,0.11422c0,0.06308 0.08682,0.11421 0.19394,0.11421zM240.97605,182.16144c0.10711,0 0.19393,-0.05114 0.19393,-0.11422c0,-0.06308 -0.08682,-0.11421 -0.19393,-0.11421c-0.10711,0 -0.19394,0.05114 -0.19394,0.11421c0,0.06308 0.08682,0.11422 0.19394,0.11422zM240.16548,181.59311c0.10711,0 0.19394,-0.05114 0.19394,-0.11421c0,-0.06308 -0.08682,-0.11422 -0.19394,-0.11422c-0.10711,0 -0.19393,0.05114 -0.19393,0.11422c0,0.06308 0.08682,0.11421 0.19393,0.11421zM240.43567,183.34355c0.10711,0 0.19393,-0.05114 0.19393,-0.11422c0,-0.06308 -0.08682,-0.11422 -0.19393,-0.11422c-0.10711,0 -0.19394,0.05114 -0.19394,0.11422c0,0.06308 0.08683,0.11422 0.19394,0.11422zM244.87449,185.32132c0.10711,0 0.19394,-0.05114 0.19394,-0.11421c0,-0.06308 -0.08682,-0.11422 -0.19394,-0.11422c-0.10711,0 -0.19393,0.05114 -0.19393,0.11422c0,0.06308 0.08682,0.11421 0.19393,0.11421zM237.69518,185.36679c0.10711,0 0.19394,-0.05114 0.19394,-0.11422c0,-0.06308 -0.08682,-0.11422 -0.19394,-0.11422c-0.10711,0 -0.19393,0.05114 -0.19393,0.11422c0,0.06308 0.08682,0.11422 0.19393,0.11422zM239.8567,180.52467c0.10711,0 0.19394,-0.05114 0.19394,-0.11421c0,-0.06308 -0.08682,-0.11422 -0.19394,-0.11422c-0.10711,0 -0.19394,0.05114 -0.19394,0.11422c0,0.06308 0.08683,0.11421 0.19394,0.11421zM242.79017,184.38927c0.10711,0 0.19394,-0.05114 0.19394,-0.11422c0,-0.06308 -0.08682,-0.11421 -0.19394,-0.11421c-0.10711,0 -0.19394,0.05114 -0.19394,0.11421c0,0.06308 0.08683,0.11422 0.19394,0.11422zM241.01464,180.02454c0.10711,0 0.19393,-0.05114 0.19393,-0.11422c0,-0.06308 -0.08682,-0.11421 -0.19393,-0.11421c-0.10711,0 -0.19394,0.05114 -0.19394,0.11421c0,0.06308 0.08682,0.11422 0.19394,0.11422zM239.04612,182.93436c0.10711,0 0.19394,-0.05114 0.19394,-0.11422c0,-0.06308 -0.08682,-0.11422 -0.19394,-0.11422c-0.10711,0 -0.19393,0.05114 -0.19393,0.11422c0,0.06308 0.08682,0.11422 0.19393,0.11422zM240.47427,180.97933c0.10711,0 0.19393,-0.05114 0.19393,-0.11422c0,-0.06308 -0.08682,-0.11422 -0.19393,-0.11422c-0.10711,0 -0.19394,0.05114 -0.19394,0.11422c0,0.06308 0.08682,0.11422 0.19394,0.11422zM239.7023,184.09374c0.10711,0 0.19393,-0.05114 0.19393,-0.11422c0,-0.06308 -0.08682,-0.11422 -0.19393,-0.11422c-0.10711,0 -0.19394,0.05114 -0.19394,0.11422c0,0.06308 0.08682,0.11422 0.19394,0.11422zM242.0568,182.57064c0.10711,0 0.19394,-0.05114 0.19394,-0.11422c0,-0.06308 -0.08682,-0.11422 -0.19394,-0.11422c-0.10711,0 -0.19393,0.05114 -0.19393,0.11422c0,0.06308 0.08682,0.11422 0.19393,0.11422zM240.31986,182.59336c0.10711,0 0.19393,-0.05114 0.19393,-0.11421c0,-0.06308 -0.08682,-0.11422 -0.19393,-0.11422c-0.10711,0 -0.19394,0.05114 -0.19394,0.11422c0,0.06308 0.08682,0.11421 0.19394,0.11421zM241.24623,182.91162c0.10711,0 0.19393,-0.05114 0.19393,-0.11421c0,-0.06308 -0.08682,-0.11422 -0.19393,-0.11422c-0.10711,0 -0.19394,0.05114 -0.19394,0.11422c0,0.06308 0.08682,0.11421 0.19394,0.11421zM237.039,183.77548c0.10711,0 0.19394,-0.05114 0.19394,-0.11421c0,-0.06308 -0.08683,-0.11422 -0.19394,-0.11422c-0.10711,0 -0.19394,0.05114 -0.19394,0.11422c0,0.06308 0.08682,0.11421 0.19394,0.11421zM239.8567,182.93436c0.10711,0 0.19394,-0.05114 0.19394,-0.11422c0,-0.06308 -0.08682,-0.11422 -0.19394,-0.11422c-0.10711,0 -0.19394,0.05114 -0.19394,0.11422c0,0.06308 0.08683,0.11422 0.19394,0.11422zM242.90597,185.36679c0.10711,0 0.19393,-0.05114 0.19393,-0.11422c0,-0.06308 -0.08682,-0.11422 -0.19393,-0.11422c-0.10711,0 -0.19394,0.05114 -0.19394,0.11422c0,0.06308 0.08682,0.11422 0.19394,0.11422z" data-paper-data="{&quot;index&quot;:null}" fill="url(#color-2)"/><path d="M246.70426,176.99207c-0.55996,0.58399 -1.49917,0.605 -2.09781,0.04692c-0.59863,-0.55807 -0.62998,-1.48389 -0.07003,-2.06789c0.00487,-0.00508 0.00977,-0.01012 0.0147,-0.01512c0.00192,0.02832 0.01425,0.05604 0.03682,0.07708c0.04755,0.04433 0.12253,0.04225 0.16749,-0.00463c0.04495,-0.04688 0.04285,-0.12082 -0.00469,-0.16515c-0.01779,-0.01658 -0.03942,-0.02667 -0.06189,-0.03035c0.21089,-0.1657 0.45853,-0.26608 0.71455,-0.3005c-0.01761,0.02244 -0.01542,0.05484 0.00593,0.07474c0.02274,0.0212 0.0586,0.02021 0.0801,-0.00221c0.0215,-0.02242 0.02049,-0.05779 -0.00225,-0.07898c-0.00083,-0.00077 -0.00167,-0.00152 -0.00253,-0.00223c0.30263,-0.02409 0.61272,0.04305 0.88422,0.20244c-0.00479,0.00267 -0.00926,0.00609 -0.01324,0.01024c-0.0215,0.02242 -0.02049,0.05778 0.00225,0.07898c0.02274,0.0212 0.0586,0.02021 0.0801,-0.00221c0.00916,-0.00955 0.01424,-0.02146 0.01528,-0.03361c0.06303,0.04288 0.12358,0.09107 0.18098,0.14459c0.04802,0.04477 0.09239,0.0919 0.1331,0.14104c-0.03874,-0.00772 -0.08053,0.00384 -0.10968,0.03424c-0.03848,0.04014 -0.04248,0.1001 -0.013,0.14434c-0.042,-0.01319 -0.08982,-0.00264 -0.12213,0.03105c-0.04495,0.04688 -0.04285,0.12082 0.0047,0.16515c0.04755,0.04433 0.12253,0.04225 0.16749,-0.00463c0.03848,-0.04014 0.04248,-0.1001 0.013,-0.14434c0.042,0.01319 0.08982,0.00264 0.12213,-0.03106c0.01854,-0.01933 0.02907,-0.04327 0.03172,-0.06783c0.05572,0.08411 0.1019,0.17262 0.1385,0.26399c-0.02277,-0.01759 -0.0558,-0.0155 -0.07607,0.00564c-0.0215,0.02242 -0.02049,0.05779 0.00224,0.07898c0.02274,0.0212 0.0586,0.02021 0.0801,-0.00221c0.00763,-0.00796 0.01243,-0.01755 0.01442,-0.02756c0.1771,0.49938 0.07432,1.07349 -0.3165,1.48108zM245.37247,176.93948c-0.04495,0.04688 -0.04285,0.12082 0.0047,0.16515c0.04755,0.04433 0.12253,0.04225 0.16749,-0.00463c0.04495,-0.04688 0.04285,-0.12082 -0.0047,-0.16514c-0.04755,-0.04433 -0.12253,-0.04225 -0.16749,0.00463zM246.01149,177.01393c-0.04495,0.04688 -0.04285,0.12082 0.0047,0.16514c0.04755,0.04433 0.12253,0.04225 0.16749,-0.00463c0.04495,-0.04688 0.04285,-0.12082 -0.0047,-0.16515c-0.04755,-0.04433 -0.12253,-0.04225 -0.16749,0.00463zM245.66716,176.25308c-0.04495,0.04688 -0.04285,0.12082 0.00469,0.16515c0.04755,0.04433 0.12253,0.04225 0.16749,-0.00463c0.04495,-0.04688 0.04285,-0.12082 -0.00469,-0.16515c-0.04755,-0.04433 -0.12253,-0.04225 -0.16749,0.00463zM245.86867,175.72417c-0.04495,0.04688 -0.04285,0.12082 0.00469,0.16515c0.04755,0.04433 0.12253,0.04225 0.16749,-0.00463c0.04495,-0.04688 0.04285,-0.12082 -0.00469,-0.16515c-0.04755,-0.04433 -0.12253,-0.04225 -0.16749,0.00463zM244.87207,175.61774c-0.04495,0.04688 -0.04285,0.12082 0.0047,0.16515c0.04755,0.04433 0.12253,0.04225 0.16749,-0.00463c0.04495,-0.04688 0.04285,-0.12082 -0.0047,-0.16515c-0.04755,-0.04433 -0.12253,-0.04225 -0.16749,0.00463zM244.56144,176.19155c-0.04495,0.04688 -0.04285,0.12082 0.0047,0.16515c0.04755,0.04433 0.12253,0.04225 0.16749,-0.00463c0.04495,-0.04688 0.04285,-0.12082 -0.0047,-0.16515c-0.04755,-0.04433 -0.12253,-0.04225 -0.16749,0.00463zM245.64464,174.86371c-0.04495,0.04688 -0.04285,0.12082 0.00469,0.16515c0.04755,0.04433 0.12253,0.04225 0.16749,-0.00463c0.04495,-0.04688 0.04285,-0.12082 -0.0047,-0.16515c-0.04755,-0.04433 -0.12253,-0.04225 -0.16749,0.00463zM246.85096,176.04034c0.01661,0.00139 0.03368,-0.00441 0.04602,-0.01729c0.0215,-0.02242 0.02049,-0.05779 -0.00225,-0.07898c-0.02274,-0.0212 -0.0586,-0.02021 -0.0801,0.00221c-0.01581,0.01648 -0.01945,0.03996 -0.01124,0.05966c-0.01661,-0.00139 -0.03368,0.00441 -0.04602,0.01729c-0.0215,0.02242 -0.02049,0.05779 0.00225,0.07898c0.02274,0.0212 0.0586,0.02021 0.0801,-0.00221c0.01581,-0.01648 0.01945,-0.03996 0.01123,-0.05966zM244.56076,175.4382c0.00655,-0.00291 0.01264,-0.0071 0.01788,-0.01256c0.0215,-0.02242 0.02049,-0.05778 -0.00225,-0.07898c-0.02274,-0.0212 -0.0586,-0.02021 -0.0801,0.00221c-0.02048,0.02136 -0.02054,0.05446 -0.00084,0.07588c-0.00655,0.00291 -0.01264,0.0071 -0.01787,0.01256c-0.0215,0.02242 -0.0205,0.05779 0.00224,0.07898c0.02274,0.0212 0.0586,0.02021 0.0801,-0.00221c0.02048,-0.02136 0.02054,-0.05446 0.00084,-0.07588zM244.35909,175.75041c-0.0215,0.02242 -0.0205,0.05779 0.00224,0.07898c0.02274,0.0212 0.0586,0.02021 0.0801,-0.00221c0.0215,-0.02242 0.0205,-0.05779 -0.00224,-0.07898c-0.02274,-0.0212 -0.0586,-0.02021 -0.0801,0.00221zM245.97227,174.84334c-0.0215,0.02242 -0.02049,0.05779 0.00224,0.07898c0.02274,0.0212 0.0586,0.02021 0.0801,-0.00221c0.0215,-0.02242 0.0205,-0.05778 -0.00224,-0.07898c-0.02274,-0.0212 -0.0586,-0.02021 -0.0801,0.00221zM244.73395,176.53971c-0.0215,0.02242 -0.02049,0.05779 0.00224,0.07898c0.02274,0.0212 0.0586,0.02021 0.0801,-0.00221c0.0215,-0.02242 0.0205,-0.05779 -0.00224,-0.07898c-0.02274,-0.0212 -0.0586,-0.02021 -0.0801,0.00221zM246.87411,176.24609c-0.0215,0.02242 -0.0205,0.05779 0.00224,0.07898c0.02274,0.0212 0.0586,0.02021 0.0801,-0.00221c0.0215,-0.02242 0.02049,-0.05779 -0.00224,-0.07898c-0.02274,-0.0212 -0.0586,-0.02021 -0.0801,0.00221zM246.42335,175.92361c-0.0215,0.02242 -0.02049,0.05779 0.00225,0.07898c0.02274,0.0212 0.0586,0.02021 0.0801,-0.00221c0.0215,-0.02242 0.02049,-0.05779 -0.00225,-0.07898c-0.02274,-0.0212 -0.0586,-0.02021 -0.0801,0.00221zM245.70542,176.95664c-0.0215,0.02242 -0.02049,0.05779 0.00224,0.07898c0.02274,0.0212 0.0586,0.02021 0.0801,-0.00221c0.0215,-0.02242 0.02049,-0.05779 -0.00225,-0.07898c-0.02274,-0.0212 -0.0586,-0.02021 -0.0801,0.00221zM246.23881,175.10811c-0.0215,0.02242 -0.02049,0.05779 0.00224,0.07898c0.02274,0.0212 0.0586,0.02021 0.0801,-0.00221c0.0215,-0.02242 0.02049,-0.05779 -0.00225,-0.07898c-0.02274,-0.0212 -0.0586,-0.02021 -0.0801,0.00221zM246.57831,175.84815c-0.0215,0.02242 -0.02049,0.05779 0.00225,0.07898c0.02274,0.0212 0.0586,0.02021 0.0801,-0.00221c0.0215,-0.02242 0.02049,-0.05779 -0.00224,-0.07898c-0.02274,-0.0212 -0.0586,-0.02021 -0.0801,0.00221zM246.37283,176.08829c-0.0215,0.02242 -0.02049,0.05779 0.00225,0.07898c0.02274,0.0212 0.0586,0.02021 0.0801,-0.00221c0.0215,-0.02242 0.02049,-0.05779 -0.00225,-0.07898c-0.02274,-0.0212 -0.0586,-0.02021 -0.0801,0.00221zM246.25309,176.50608c-0.0215,0.02242 -0.02049,0.05779 0.00224,0.07898c0.02274,0.0212 0.0586,0.02021 0.0801,-0.00221c0.0215,-0.02242 0.0205,-0.05779 -0.00224,-0.07898c-0.02274,-0.0212 -0.0586,-0.02021 -0.0801,0.00221zM245.65006,175.3086c-0.0215,0.02242 -0.02049,0.05778 0.00225,0.07898c0.02274,0.0212 0.0586,0.02021 0.0801,-0.00221c0.0215,-0.02242 0.02049,-0.05779 -0.00224,-0.07898c-0.02274,-0.0212 -0.0586,-0.02021 -0.0801,0.00221zM246.24396,176.33468c-0.0215,0.02242 -0.02049,0.05779 0.00225,0.07898c0.02274,0.0212 0.0586,0.02021 0.0801,-0.00222c0.0215,-0.02242 0.02049,-0.05779 -0.00225,-0.07898c-0.02274,-0.0212 -0.0586,-0.02021 -0.0801,0.00221zM246.2488,176.80346c-0.0215,0.02242 -0.02049,0.05779 0.00225,0.07898c0.02274,0.0212 0.0586,0.02021 0.0801,-0.00221c0.0215,-0.02242 0.0205,-0.05779 -0.00224,-0.07898c-0.02274,-0.0212 -0.0586,-0.02021 -0.0801,0.00221zM246.45768,176.9819c-0.0215,0.02242 -0.02049,0.05779 0.00225,0.07898c0.02274,0.0212 0.0586,0.02021 0.0801,-0.00221c0.0215,-0.02242 0.0205,-0.05778 -0.00224,-0.07898c-0.02274,-0.0212 -0.0586,-0.02021 -0.0801,0.00221zM245.05489,174.8352c-0.0215,0.02242 -0.02049,0.05779 0.00224,0.07898c0.02274,0.0212 0.0586,0.02021 0.0801,-0.00221c0.0215,-0.02242 0.0205,-0.05779 -0.00224,-0.07898c-0.02274,-0.0212 -0.0586,-0.02021 -0.0801,0.00221zM244.83649,175.21805c-0.0215,0.02242 -0.02049,0.05779 0.00224,0.07898c0.02274,0.0212 0.0586,0.02021 0.0801,-0.00221c0.0215,-0.02242 0.0205,-0.05779 -0.00224,-0.07898c-0.02274,-0.0212 -0.0586,-0.02021 -0.0801,0.00221zM246.35079,175.61161c-0.0215,0.02242 -0.02049,0.05779 0.00225,0.07898c0.02274,0.0212 0.0586,0.02021 0.0801,-0.00221c0.0215,-0.02242 0.02049,-0.05778 -0.00224,-0.07898c-0.02274,-0.0212 -0.0586,-0.02021 -0.0801,0.00221zM246.51756,176.54901c-0.0215,0.02242 -0.02049,0.05779 0.00225,0.07898c0.02274,0.0212 0.0586,0.02021 0.0801,-0.00221c0.0215,-0.02242 0.02049,-0.05778 -0.00224,-0.07898c-0.02274,-0.0212 -0.0586,-0.02021 -0.0801,0.00221zM245.36751,175.07777c-0.0215,0.02242 -0.02049,0.05779 0.00225,0.07898c0.02274,0.0212 0.0586,0.02021 0.0801,-0.00221c0.0215,-0.02242 0.0205,-0.05779 -0.00224,-0.07898c-0.02274,-0.0212 -0.0586,-0.02021 -0.0801,0.00221zM245.99948,175.20264c-0.0215,0.02242 -0.0205,0.05778 0.00224,0.07898c0.02274,0.0212 0.0586,0.02021 0.0801,-0.00221c0.0215,-0.02242 0.02049,-0.05778 -0.00224,-0.07898c-0.02274,-0.0212 -0.0586,-0.02021 -0.0801,0.00221zM245.82017,177.25911c-0.0215,0.02242 -0.02049,0.05779 0.00225,0.07898c0.02274,0.0212 0.0586,0.02021 0.0801,-0.00222c0.0215,-0.02242 0.0205,-0.05779 -0.00224,-0.07898c-0.02274,-0.0212 -0.0586,-0.02021 -0.0801,0.00221zM245.50668,177.28452c-0.0215,0.02242 -0.02049,0.05779 0.00225,0.07898c0.02274,0.0212 0.0586,0.02021 0.0801,-0.00221c0.0215,-0.02242 0.02049,-0.05779 -0.00225,-0.07898c-0.02274,-0.0212 -0.0586,-0.02021 -0.0801,0.00221zM244.57955,175.5894c-0.0215,0.02242 -0.02049,0.05779 0.00224,0.07898c0.02274,0.0212 0.0586,0.02021 0.0801,-0.00222c0.0215,-0.02242 0.0205,-0.05779 -0.00224,-0.07898c-0.02274,-0.0212 -0.0586,-0.02021 -0.0801,0.00221zM246.69885,175.75689c-0.0215,0.02242 -0.02049,0.05779 0.00225,0.07898c0.02274,0.0212 0.0586,0.02021 0.0801,-0.00221c0.0215,-0.02242 0.02049,-0.05778 -0.00224,-0.07898c-0.02274,-0.0212 -0.0586,-0.02021 -0.0801,0.00221zM246.05657,175.41878c-0.0215,0.02242 -0.02049,0.05779 0.00225,0.07898c0.02274,0.0212 0.0586,0.02021 0.0801,-0.00221c0.0215,-0.02242 0.02049,-0.05779 -0.00225,-0.07898c-0.02274,-0.0212 -0.0586,-0.02021 -0.0801,0.00221zM244.78669,175.85581c-0.0215,0.02242 -0.0205,0.05779 0.00224,0.07898c0.02274,0.0212 0.0586,0.02021 0.0801,-0.00222c0.0215,-0.02242 0.02049,-0.05778 -0.00224,-0.07898c-0.02274,-0.0212 -0.0586,-0.02021 -0.0801,0.00221zM246.20645,175.76213c-0.0215,0.02242 -0.0205,0.05779 0.00224,0.07898c0.02274,0.0212 0.0586,0.02021 0.0801,-0.00221c0.0215,-0.02242 0.02049,-0.05779 -0.00224,-0.07898c-0.02274,-0.0212 -0.0586,-0.02021 -0.0801,0.00221zM245.00089,176.96775c-0.0215,0.02242 -0.02049,0.05778 0.00225,0.07898c0.02274,0.0212 0.0586,0.02021 0.0801,-0.00221c0.0215,-0.02242 0.02049,-0.05779 -0.00225,-0.07898c-0.02274,-0.0212 -0.0586,-0.02021 -0.0801,0.00221zM246.6312,176.21512c-0.0215,0.02242 -0.02049,0.05779 0.00224,0.07898c0.02274,0.0212 0.0586,0.02021 0.0801,-0.00221c0.0215,-0.02242 0.02049,-0.05779 -0.00225,-0.07898c-0.02274,-0.0212 -0.0586,-0.02021 -0.0801,0.00221zM244.90065,176.72769c-0.0215,0.02242 -0.02049,0.05779 0.00224,0.07898c0.02274,0.0212 0.0586,0.02021 0.0801,-0.00222c0.0215,-0.02242 0.02049,-0.05779 -0.00225,-0.07898c-0.02274,-0.0212 -0.0586,-0.02021 -0.0801,0.00221zM244.45108,175.99906c-0.0215,0.02242 -0.0205,0.05779 0.00224,0.07898c0.02274,0.0212 0.0586,0.02021 0.0801,-0.00221c0.0215,-0.02242 0.02049,-0.05779 -0.00225,-0.07898c-0.02274,-0.0212 -0.0586,-0.02021 -0.0801,0.00221zM244.67559,176.87626c-0.0215,0.02242 -0.0205,0.05779 0.00224,0.07898c0.02274,0.0212 0.0586,0.02021 0.0801,-0.00221c0.0215,-0.02242 0.0205,-0.05778 -0.00224,-0.07898c-0.02274,-0.0212 -0.0586,-0.02021 -0.0801,0.00221zM246.56586,175.55961c-0.0215,0.02242 -0.02049,0.05779 0.00224,0.07898c0.02274,0.0212 0.0586,0.02021 0.0801,-0.00222c0.0215,-0.02242 0.0205,-0.05779 -0.00224,-0.07898c-0.02274,-0.0212 -0.0586,-0.02021 -0.0801,0.00221zM246.75809,175.60035c-0.0215,0.02242 -0.02049,0.05779 0.00224,0.07898c0.02274,0.0212 0.0586,0.02021 0.0801,-0.00221c0.0215,-0.02242 0.02049,-0.05779 -0.00225,-0.07898c-0.02274,-0.0212 -0.0586,-0.02021 -0.0801,0.00221zM245.29867,177.28608c-0.0215,0.02242 -0.02049,0.05779 0.00224,0.07898c0.02274,0.0212 0.0586,0.02021 0.0801,-0.00221c0.0215,-0.02242 0.02049,-0.05778 -0.00225,-0.07898c-0.02274,-0.0212 -0.0586,-0.02021 -0.0801,0.00221zM245.25022,176.77664c-0.0215,0.02242 -0.0205,0.05779 0.00224,0.07898c0.02274,0.0212 0.0586,0.02021 0.0801,-0.00221c0.0215,-0.02242 0.0205,-0.05778 -0.00224,-0.07898c-0.02274,-0.0212 -0.0586,-0.02021 -0.0801,0.00221zM246.49887,176.39844c0.03101,0 0.05614,-0.0148 0.05614,-0.03306c0,-0.01826 -0.02513,-0.03306 -0.05614,-0.03306c-0.03101,0 -0.05614,0.0148 -0.05614,0.03306c0,0.01826 0.02513,0.03306 0.05614,0.03306zM246.76704,176.48399c0.03101,0 0.05614,-0.0148 0.05614,-0.03306c0,-0.01826 -0.02513,-0.03306 -0.05614,-0.03306c-0.03101,0 -0.05614,0.0148 -0.05614,0.03306c0,0.01826 0.02513,0.03306 0.05614,0.03306zM244.42058,176.55638c0.03101,0 0.05614,-0.0148 0.05614,-0.03306c0,-0.01826 -0.02513,-0.03306 -0.05614,-0.03306c-0.03101,0 -0.05614,0.0148 -0.05614,0.03306c0,0.01826 0.02513,0.03306 0.05614,0.03306zM244.25297,176.22076c0.03101,0 0.05614,-0.0148 0.05614,-0.03306c0,-0.01826 -0.02513,-0.03306 -0.05614,-0.03306c-0.03101,0 -0.05614,0.01481 -0.05614,0.03306c0,0.01826 0.02514,0.03306 0.05614,0.03306zM245.60498,175.79959c0.03101,0 0.05614,-0.01481 0.05614,-0.03306c0,-0.01826 -0.02513,-0.03306 -0.05614,-0.03306c-0.03101,0 -0.05614,0.0148 -0.05614,0.03306c0,0.01826 0.02513,0.03306 0.05614,0.03306zM245.78376,176.71432c0.03101,0 0.05614,-0.0148 0.05614,-0.03306c0,-0.01826 -0.02514,-0.03306 -0.05614,-0.03306c-0.03101,0 -0.05614,0.0148 -0.05614,0.03306c0,0.01826 0.02513,0.03306 0.05614,0.03306zM245.51559,175.65481c0.03101,0 0.05614,-0.0148 0.05614,-0.03307c0,-0.01826 -0.02513,-0.03306 -0.05614,-0.03306c-0.03101,0 -0.05614,0.01481 -0.05614,0.03306c0,0.01826 0.02513,0.03307 0.05614,0.03307zM246.05193,176.13521c0.03101,0 0.05614,-0.0148 0.05614,-0.03306c0,-0.01826 -0.02513,-0.03306 -0.05614,-0.03306c-0.03101,0 -0.05614,0.0148 -0.05614,0.03306c0,0.01826 0.02513,0.03306 0.05614,0.03306zM245.4262,176.64851c0.03101,0 0.05614,-0.0148 0.05614,-0.03306c0,-0.01826 -0.02513,-0.03306 -0.05614,-0.03306c-0.03101,0 -0.05614,0.0148 -0.05614,0.03306c0,0.01826 0.02513,0.03306 0.05614,0.03306zM245.03513,176.29315c0.03101,0 0.05614,-0.01481 0.05614,-0.03306c0,-0.01826 -0.02514,-0.03306 -0.05614,-0.03306c-0.03101,0 -0.05614,0.0148 -0.05614,0.03306c0,0.01826 0.02513,0.03306 0.05614,0.03306zM245.13569,175.92462c0.03101,0 0.05614,-0.0148 0.05614,-0.03306c0,-0.01826 -0.02513,-0.03306 -0.05614,-0.03306c-0.03101,0 -0.05614,0.0148 -0.05614,0.03306c0,0.01826 0.02513,0.03306 0.05614,0.03306zM245.48207,175.91804c0.03101,0 0.05614,-0.0148 0.05614,-0.03307c0,-0.01826 -0.02513,-0.03306 -0.05614,-0.03306c-0.03101,0 -0.05614,0.0148 -0.05614,0.03306c0,0.01826 0.02513,0.03307 0.05614,0.03307zM245.24743,175.75352c0.03101,0 0.05614,-0.0148 0.05614,-0.03306c0,-0.01826 -0.02513,-0.03306 -0.05614,-0.03306c-0.03101,0 -0.05614,0.0148 -0.05614,0.03306c0,0.01826 0.02514,0.03306 0.05614,0.03306zM245.32564,176.26025c0.03101,0 0.05614,-0.0148 0.05614,-0.03306c0,-0.01826 -0.02513,-0.03307 -0.05614,-0.03307c-0.03101,0 -0.05614,0.0148 -0.05614,0.03307c0,0.01826 0.02514,0.03306 0.05614,0.03306zM246.61061,176.83278c0.03101,0 0.05614,-0.0148 0.05614,-0.03306c0,-0.01826 -0.02513,-0.03307 -0.05614,-0.03307c-0.03101,0 -0.05614,0.0148 -0.05614,0.03307c0,0.01826 0.02513,0.03306 0.05614,0.03306zM244.53231,176.84594c0.03101,0 0.05614,-0.01481 0.05614,-0.03306c0,-0.01826 -0.02513,-0.03307 -0.05614,-0.03307c-0.03101,0 -0.05614,0.0148 -0.05614,0.03307c0,0.01826 0.02513,0.03306 0.05614,0.03306zM245.15804,175.44422c0.03101,0 0.05614,-0.0148 0.05614,-0.03306c0,-0.01826 -0.02513,-0.03307 -0.05614,-0.03307c-0.03101,0 -0.05614,0.0148 -0.05614,0.03307c0,0.01826 0.02514,0.03306 0.05614,0.03306zM246.00723,176.56296c0.03101,0 0.05614,-0.0148 0.05614,-0.03307c0,-0.01826 -0.02513,-0.03306 -0.05614,-0.03306c-0.03101,0 -0.05614,0.0148 -0.05614,0.03306c0,0.01826 0.02514,0.03307 0.05614,0.03307zM245.49324,175.29945c0.03101,0 0.05614,-0.01481 0.05614,-0.03307c0,-0.01826 -0.02513,-0.03306 -0.05614,-0.03306c-0.03101,0 -0.05614,0.0148 -0.05614,0.03306c0,0.01826 0.02513,0.03307 0.05614,0.03307zM244.92339,176.14179c0.03101,0 0.05614,-0.0148 0.05614,-0.03306c0,-0.01826 -0.02513,-0.03306 -0.05614,-0.03306c-0.03101,0 -0.05614,0.01481 -0.05614,0.03306c0,0.01826 0.02513,0.03306 0.05614,0.03306zM245.33681,175.57584c0.03101,0 0.05614,-0.0148 0.05614,-0.03306c0,-0.01826 -0.02514,-0.03306 -0.05614,-0.03306c-0.03101,0 -0.05614,0.01481 -0.05614,0.03306c0,0.01826 0.02513,0.03306 0.05614,0.03306zM245.11334,176.47741c0.03101,0 0.05614,-0.0148 0.05614,-0.03306c0,-0.01826 -0.02513,-0.03307 -0.05614,-0.03307c-0.03101,0 -0.05614,0.0148 -0.05614,0.03307c0,0.01826 0.02513,0.03306 0.05614,0.03306zM245.79493,176.0365c0.03101,0 0.05614,-0.01481 0.05614,-0.03306c0,-0.01826 -0.02513,-0.03306 -0.05614,-0.03306c-0.03101,0 -0.05614,0.0148 -0.05614,0.03306c0,0.01826 0.02514,0.03306 0.05614,0.03306zM245.29212,176.04308c0.03101,0 0.05614,-0.0148 0.05614,-0.03306c0,-0.01826 -0.02513,-0.03307 -0.05614,-0.03307c-0.03101,0 -0.05614,0.0148 -0.05614,0.03307c0,0.01826 0.02513,0.03306 0.05614,0.03306zM245.56028,176.13521c0.03101,0 0.05614,-0.0148 0.05614,-0.03306c0,-0.01826 -0.02513,-0.03306 -0.05614,-0.03306c-0.03101,0 -0.05614,0.0148 -0.05614,0.03306c0,0.01826 0.02513,0.03306 0.05614,0.03306zM244.34236,176.38528c0.03101,0 0.05614,-0.0148 0.05614,-0.03306c0,-0.01826 -0.02514,-0.03307 -0.05614,-0.03307c-0.03101,0 -0.05614,0.01481 -0.05614,0.03307c0,0.01826 0.02513,0.03306 0.05614,0.03306zM245.15804,176.14179c0.03101,0 0.05614,-0.0148 0.05614,-0.03306c0,-0.01826 -0.02513,-0.03306 -0.05614,-0.03306c-0.03101,0 -0.05614,0.01481 -0.05614,0.03306c0,0.01826 0.02514,0.03306 0.05614,0.03306zM246.04075,176.84594c0.03101,0 0.05614,-0.01481 0.05614,-0.03306c0,-0.01826 -0.02513,-0.03307 -0.05614,-0.03307c-0.03101,0 -0.05614,0.0148 -0.05614,0.03307c0,0.01826 0.02513,0.03306 0.05614,0.03306z" data-paper-data="{&quot;index&quot;:null}" fill="url(#color-3)"/><path d="M233.89474,181.51588c-0.55996,0.58399 -1.49917,0.605 -2.09781,0.04692c-0.59863,-0.55807 -0.62998,-1.48389 -0.07003,-2.06789c0.00487,-0.00508 0.00977,-0.01012 0.0147,-0.01512c0.00192,0.02832 0.01425,0.05604 0.03682,0.07708c0.04755,0.04433 0.12253,0.04225 0.16749,-0.00463c0.04495,-0.04688 0.04285,-0.12082 -0.00469,-0.16515c-0.01779,-0.01658 -0.03942,-0.02667 -0.06189,-0.03035c0.21089,-0.1657 0.45853,-0.26608 0.71455,-0.3005c-0.01761,0.02244 -0.01542,0.05484 0.00593,0.07474c0.02274,0.0212 0.0586,0.02021 0.0801,-0.00221c0.0215,-0.02242 0.02049,-0.05779 -0.00225,-0.07898c-0.00083,-0.00077 -0.00167,-0.00152 -0.00253,-0.00223c0.30263,-0.02409 0.61272,0.04305 0.88422,0.20244c-0.00479,0.00267 -0.00926,0.00609 -0.01324,0.01024c-0.0215,0.02242 -0.02049,0.05778 0.00225,0.07898c0.02274,0.0212 0.0586,0.02021 0.0801,-0.00221c0.00916,-0.00955 0.01424,-0.02146 0.01528,-0.03361c0.06303,0.04288 0.12358,0.09107 0.18098,0.14459c0.04802,0.04477 0.09239,0.0919 0.1331,0.14104c-0.03874,-0.00772 -0.08053,0.00384 -0.10968,0.03424c-0.03848,0.04014 -0.04248,0.1001 -0.013,0.14434c-0.042,-0.01319 -0.08982,-0.00264 -0.12213,0.03105c-0.04495,0.04688 -0.04285,0.12082 0.0047,0.16515c0.04755,0.04433 0.12253,0.04225 0.16749,-0.00463c0.03848,-0.04014 0.04248,-0.1001 0.013,-0.14434c0.042,0.01319 0.08982,0.00264 0.12213,-0.03106c0.01854,-0.01933 0.02907,-0.04327 0.03172,-0.06783c0.05572,0.08411 0.1019,0.17262 0.1385,0.26399c-0.02277,-0.01759 -0.0558,-0.0155 -0.07607,0.00564c-0.0215,0.02242 -0.02049,0.05779 0.00224,0.07898c0.02274,0.0212 0.0586,0.02021 0.0801,-0.00221c0.00763,-0.00796 0.01243,-0.01755 0.01442,-0.02756c0.1771,0.49938 0.07432,1.07349 -0.3165,1.48108zM232.56295,181.46329c-0.04495,0.04688 -0.04285,0.12082 0.0047,0.16515c0.04755,0.04433 0.12253,0.04225 0.16749,-0.00463c0.04495,-0.04688 0.04285,-0.12082 -0.0047,-0.16514c-0.04755,-0.04433 -0.12253,-0.04225 -0.16749,0.00463zM233.20197,181.53774c-0.04495,0.04688 -0.04285,0.12082 0.0047,0.16514c0.04755,0.04433 0.12253,0.04225 0.16749,-0.00463c0.04495,-0.04688 0.04285,-0.12082 -0.0047,-0.16515c-0.04755,-0.04433 -0.12253,-0.04225 -0.16749,0.00463zM232.85764,180.77689c-0.04495,0.04688 -0.04285,0.12082 0.00469,0.16515c0.04755,0.04433 0.12253,0.04225 0.16749,-0.00463c0.04495,-0.04688 0.04285,-0.12082 -0.00469,-0.16515c-0.04755,-0.04433 -0.12253,-0.04225 -0.16749,0.00463zM233.05915,180.24798c-0.04495,0.04688 -0.04285,0.12082 0.00469,0.16515c0.04755,0.04433 0.12253,0.04225 0.16749,-0.00463c0.04495,-0.04688 0.04285,-0.12082 -0.00469,-0.16515c-0.04755,-0.04433 -0.12253,-0.04225 -0.16749,0.00463zM232.06255,180.14155c-0.04495,0.04688 -0.04285,0.12082 0.0047,0.16515c0.04755,0.04433 0.12253,0.04225 0.16749,-0.00463c0.04495,-0.04688 0.04285,-0.12082 -0.0047,-0.16515c-0.04755,-0.04433 -0.12253,-0.04225 -0.16749,0.00463zM231.75192,180.71536c-0.04495,0.04688 -0.04285,0.12082 0.0047,0.16515c0.04755,0.04433 0.12253,0.04225 0.16749,-0.00463c0.04495,-0.04688 0.04285,-0.12082 -0.0047,-0.16515c-0.04755,-0.04433 -0.12253,-0.04225 -0.16749,0.00463zM232.83512,179.38752c-0.04495,0.04688 -0.04285,0.12082 0.00469,0.16515c0.04755,0.04433 0.12253,0.04225 0.16749,-0.00463c0.04495,-0.04688 0.04285,-0.12082 -0.0047,-0.16515c-0.04755,-0.04433 -0.12253,-0.04225 -0.16749,0.00463zM234.04144,180.56415c0.01661,0.00139 0.03368,-0.00441 0.04602,-0.01729c0.0215,-0.02242 0.02049,-0.05779 -0.00225,-0.07898c-0.02274,-0.0212 -0.0586,-0.02021 -0.0801,0.00221c-0.01581,0.01648 -0.01945,0.03996 -0.01124,0.05966c-0.01661,-0.00139 -0.03368,0.00441 -0.04602,0.01729c-0.0215,0.02242 -0.02049,0.05779 0.00225,0.07898c0.02274,0.0212 0.0586,0.02021 0.0801,-0.00221c0.01581,-0.01648 0.01945,-0.03996 0.01123,-0.05966zM231.75124,179.96201c0.00655,-0.00291 0.01264,-0.0071 0.01788,-0.01256c0.0215,-0.02242 0.02049,-0.05778 -0.00225,-0.07898c-0.02274,-0.0212 -0.0586,-0.02021 -0.0801,0.00221c-0.02048,0.02136 -0.02054,0.05446 -0.00084,0.07588c-0.00655,0.00291 -0.01264,0.0071 -0.01787,0.01256c-0.0215,0.02242 -0.0205,0.05779 0.00224,0.07898c0.02274,0.0212 0.0586,0.02021 0.0801,-0.00221c0.02048,-0.02136 0.02054,-0.05446 0.00084,-0.07588zM231.54957,180.27422c-0.0215,0.02242 -0.0205,0.05779 0.00224,0.07898c0.02274,0.0212 0.0586,0.02021 0.0801,-0.00221c0.0215,-0.02242 0.0205,-0.05779 -0.00224,-0.07898c-0.02274,-0.0212 -0.0586,-0.02021 -0.0801,0.00221zM233.16275,179.36715c-0.0215,0.02242 -0.02049,0.05779 0.00224,0.07898c0.02274,0.0212 0.0586,0.02021 0.0801,-0.00221c0.0215,-0.02242 0.0205,-0.05778 -0.00224,-0.07898c-0.02274,-0.0212 -0.0586,-0.02021 -0.0801,0.00221zM231.92443,181.06352c-0.0215,0.02242 -0.02049,0.05779 0.00224,0.07898c0.02274,0.0212 0.0586,0.02021 0.0801,-0.00221c0.0215,-0.02242 0.0205,-0.05779 -0.00224,-0.07898c-0.02274,-0.0212 -0.0586,-0.02021 -0.0801,0.00221zM234.06459,180.7699c-0.0215,0.02242 -0.0205,0.05779 0.00224,0.07898c0.02274,0.0212 0.0586,0.02021 0.0801,-0.00221c0.0215,-0.02242 0.02049,-0.05779 -0.00224,-0.07898c-0.02274,-0.0212 -0.0586,-0.02021 -0.0801,0.00221zM233.61383,180.44742c-0.0215,0.02242 -0.02049,0.05779 0.00225,0.07898c0.02274,0.0212 0.0586,0.02021 0.0801,-0.00221c0.0215,-0.02242 0.02049,-0.05779 -0.00225,-0.07898c-0.02274,-0.0212 -0.0586,-0.02021 -0.0801,0.00221zM232.8959,181.48045c-0.0215,0.02242 -0.02049,0.05779 0.00224,0.07898c0.02274,0.0212 0.0586,0.02021 0.0801,-0.00221c0.0215,-0.02242 0.02049,-0.05779 -0.00225,-0.07898c-0.02274,-0.0212 -0.0586,-0.02021 -0.0801,0.00221zM233.42929,179.63192c-0.0215,0.02242 -0.02049,0.05779 0.00224,0.07898c0.02274,0.0212 0.0586,0.02021 0.0801,-0.00221c0.0215,-0.02242 0.02049,-0.05779 -0.00225,-0.07898c-0.02274,-0.0212 -0.0586,-0.02021 -0.0801,0.00221zM233.76879,180.37196c-0.0215,0.02242 -0.02049,0.05779 0.00225,0.07898c0.02274,0.0212 0.0586,0.02021 0.0801,-0.00221c0.0215,-0.02242 0.02049,-0.05779 -0.00224,-0.07898c-0.02274,-0.0212 -0.0586,-0.02021 -0.0801,0.00221zM233.56331,180.6121c-0.0215,0.02242 -0.02049,0.05779 0.00225,0.07898c0.02274,0.0212 0.0586,0.02021 0.0801,-0.00221c0.0215,-0.02242 0.02049,-0.05779 -0.00225,-0.07898c-0.02274,-0.0212 -0.0586,-0.02021 -0.0801,0.00221zM233.44357,181.02989c-0.0215,0.02242 -0.02049,0.05779 0.00224,0.07898c0.02274,0.0212 0.0586,0.02021 0.0801,-0.00221c0.0215,-0.02242 0.0205,-0.05779 -0.00224,-0.07898c-0.02274,-0.0212 -0.0586,-0.02021 -0.0801,0.00221zM232.84054,179.83241c-0.0215,0.02242 -0.02049,0.05778 0.00225,0.07898c0.02274,0.0212 0.0586,0.02021 0.0801,-0.00221c0.0215,-0.02242 0.02049,-0.05779 -0.00224,-0.07898c-0.02274,-0.0212 -0.0586,-0.02021 -0.0801,0.00221zM233.43444,180.85849c-0.0215,0.02242 -0.02049,0.05779 0.00225,0.07898c0.02274,0.0212 0.0586,0.02021 0.0801,-0.00222c0.0215,-0.02242 0.02049,-0.05779 -0.00225,-0.07898c-0.02274,-0.0212 -0.0586,-0.02021 -0.0801,0.00221zM233.43928,181.32727c-0.0215,0.02242 -0.02049,0.05779 0.00225,0.07898c0.02274,0.0212 0.0586,0.02021 0.0801,-0.00221c0.0215,-0.02242 0.0205,-0.05779 -0.00224,-0.07898c-0.02274,-0.0212 -0.0586,-0.02021 -0.0801,0.00221zM233.64816,181.50571c-0.0215,0.02242 -0.02049,0.05779 0.00225,0.07898c0.02274,0.0212 0.0586,0.02021 0.0801,-0.00221c0.0215,-0.02242 0.0205,-0.05778 -0.00224,-0.07898c-0.02274,-0.0212 -0.0586,-0.02021 -0.0801,0.00221zM232.24537,179.35901c-0.0215,0.02242 -0.02049,0.05779 0.00224,0.07898c0.02274,0.0212 0.0586,0.02021 0.0801,-0.00221c0.0215,-0.02242 0.0205,-0.05779 -0.00224,-0.07898c-0.02274,-0.0212 -0.0586,-0.02021 -0.0801,0.00221zM232.02697,179.74186c-0.0215,0.02242 -0.02049,0.05779 0.00224,0.07898c0.02274,0.0212 0.0586,0.02021 0.0801,-0.00221c0.0215,-0.02242 0.0205,-0.05779 -0.00224,-0.07898c-0.02274,-0.0212 -0.0586,-0.02021 -0.0801,0.00221zM233.54127,180.13542c-0.0215,0.02242 -0.02049,0.05779 0.00225,0.07898c0.02274,0.0212 0.0586,0.02021 0.0801,-0.00221c0.0215,-0.02242 0.02049,-0.05778 -0.00224,-0.07898c-0.02274,-0.0212 -0.0586,-0.02021 -0.0801,0.00221zM233.70804,181.07282c-0.0215,0.02242 -0.02049,0.05779 0.00225,0.07898c0.02274,0.0212 0.0586,0.02021 0.0801,-0.00221c0.0215,-0.02242 0.02049,-0.05778 -0.00224,-0.07898c-0.02274,-0.0212 -0.0586,-0.02021 -0.0801,0.00221zM232.55799,179.60158c-0.0215,0.02242 -0.02049,0.05779 0.00225,0.07898c0.02274,0.0212 0.0586,0.02021 0.0801,-0.00221c0.0215,-0.02242 0.0205,-0.05779 -0.00224,-0.07898c-0.02274,-0.0212 -0.0586,-0.02021 -0.0801,0.00221zM233.18996,179.72645c-0.0215,0.02242 -0.0205,0.05778 0.00224,0.07898c0.02274,0.0212 0.0586,0.02021 0.0801,-0.00221c0.0215,-0.02242 0.02049,-0.05778 -0.00224,-0.07898c-0.02274,-0.0212 -0.0586,-0.02021 -0.0801,0.00221zM233.01065,181.78292c-0.0215,0.02242 -0.02049,0.05779 0.00225,0.07898c0.02274,0.0212 0.0586,0.02021 0.0801,-0.00222c0.0215,-0.02242 0.0205,-0.05779 -0.00224,-0.07898c-0.02274,-0.0212 -0.0586,-0.02021 -0.0801,0.00221zM232.69716,181.80833c-0.0215,0.02242 -0.02049,0.05779 0.00225,0.07898c0.02274,0.0212 0.0586,0.02021 0.0801,-0.00221c0.0215,-0.02242 0.02049,-0.05779 -0.00225,-0.07898c-0.02274,-0.0212 -0.0586,-0.02021 -0.0801,0.00221zM231.77003,180.11321c-0.0215,0.02242 -0.02049,0.05779 0.00224,0.07898c0.02274,0.0212 0.0586,0.02021 0.0801,-0.00222c0.0215,-0.02242 0.0205,-0.05779 -0.00224,-0.07898c-0.02274,-0.0212 -0.0586,-0.02021 -0.0801,0.00221zM233.88933,180.2807c-0.0215,0.02242 -0.02049,0.05779 0.00225,0.07898c0.02274,0.0212 0.0586,0.02021 0.0801,-0.00221c0.0215,-0.02242 0.02049,-0.05778 -0.00224,-0.07898c-0.02274,-0.0212 -0.0586,-0.02021 -0.0801,0.00221zM233.24705,179.94259c-0.0215,0.02242 -0.02049,0.05779 0.00225,0.07898c0.02274,0.0212 0.0586,0.02021 0.0801,-0.00221c0.0215,-0.02242 0.02049,-0.05779 -0.00225,-0.07898c-0.02274,-0.0212 -0.0586,-0.02021 -0.0801,0.00221zM231.97717,180.37962c-0.0215,0.02242 -0.0205,0.05779 0.00224,0.07898c0.02274,0.0212 0.0586,0.02021 0.0801,-0.00222c0.0215,-0.02242 0.02049,-0.05778 -0.00224,-0.07898c-0.02274,-0.0212 -0.0586,-0.02021 -0.0801,0.00221zM233.39693,180.28594c-0.0215,0.02242 -0.0205,0.05779 0.00224,0.07898c0.02274,0.0212 0.0586,0.02021 0.0801,-0.00221c0.0215,-0.02242 0.02049,-0.05779 -0.00224,-0.07898c-0.02274,-0.0212 -0.0586,-0.02021 -0.0801,0.00221zM232.19137,181.49156c-0.0215,0.02242 -0.02049,0.05778 0.00225,0.07898c0.02274,0.0212 0.0586,0.02021 0.0801,-0.00221c0.0215,-0.02242 0.02049,-0.05779 -0.00225,-0.07898c-0.02274,-0.0212 -0.0586,-0.02021 -0.0801,0.00221zM233.82168,180.73893c-0.0215,0.02242 -0.02049,0.05779 0.00224,0.07898c0.02274,0.0212 0.0586,0.02021 0.0801,-0.00221c0.0215,-0.02242 0.02049,-0.05779 -0.00225,-0.07898c-0.02274,-0.0212 -0.0586,-0.02021 -0.0801,0.00221zM232.09113,181.2515c-0.0215,0.02242 -0.02049,0.05779 0.00224,0.07898c0.02274,0.0212 0.0586,0.02021 0.0801,-0.00222c0.0215,-0.02242 0.02049,-0.05779 -0.00225,-0.07898c-0.02274,-0.0212 -0.0586,-0.02021 -0.0801,0.00221zM231.64156,180.52287c-0.0215,0.02242 -0.0205,0.05779 0.00224,0.07898c0.02274,0.0212 0.0586,0.02021 0.0801,-0.00221c0.0215,-0.02242 0.02049,-0.05779 -0.00225,-0.07898c-0.02274,-0.0212 -0.0586,-0.02021 -0.0801,0.00221zM231.86607,181.40007c-0.0215,0.02242 -0.0205,0.05779 0.00224,0.07898c0.02274,0.0212 0.0586,0.02021 0.0801,-0.00221c0.0215,-0.02242 0.0205,-0.05778 -0.00224,-0.07898c-0.02274,-0.0212 -0.0586,-0.02021 -0.0801,0.00221zM233.75634,180.08342c-0.0215,0.02242 -0.02049,0.05779 0.00224,0.07898c0.02274,0.0212 0.0586,0.02021 0.0801,-0.00222c0.0215,-0.02242 0.0205,-0.05779 -0.00224,-0.07898c-0.02274,-0.0212 -0.0586,-0.02021 -0.0801,0.00221zM233.94857,180.12416c-0.0215,0.02242 -0.02049,0.05779 0.00224,0.07898c0.02274,0.0212 0.0586,0.02021 0.0801,-0.00221c0.0215,-0.02242 0.02049,-0.05779 -0.00225,-0.07898c-0.02274,-0.0212 -0.0586,-0.02021 -0.0801,0.00221zM232.48915,181.80989c-0.0215,0.02242 -0.02049,0.05779 0.00224,0.07898c0.02274,0.0212 0.0586,0.02021 0.0801,-0.00221c0.0215,-0.02242 0.02049,-0.05778 -0.00225,-0.07898c-0.02274,-0.0212 -0.0586,-0.02021 -0.0801,0.00221zM232.4407,181.30045c-0.0215,0.02242 -0.0205,0.05779 0.00224,0.07898c0.02274,0.0212 0.0586,0.02021 0.0801,-0.00221c0.0215,-0.02242 0.0205,-0.05778 -0.00224,-0.07898c-0.02274,-0.0212 -0.0586,-0.02021 -0.0801,0.00221zM233.68935,180.92225c0.03101,0 0.05614,-0.0148 0.05614,-0.03306c0,-0.01826 -0.02513,-0.03306 -0.05614,-0.03306c-0.03101,0 -0.05614,0.0148 -0.05614,0.03306c0,0.01826 0.02513,0.03306 0.05614,0.03306zM233.95752,181.0078c0.03101,0 0.05614,-0.0148 0.05614,-0.03306c0,-0.01826 -0.02513,-0.03306 -0.05614,-0.03306c-0.03101,0 -0.05614,0.0148 -0.05614,0.03306c0,0.01826 0.02513,0.03306 0.05614,0.03306zM231.61106,181.08019c0.03101,0 0.05614,-0.0148 0.05614,-0.03306c0,-0.01826 -0.02513,-0.03306 -0.05614,-0.03306c-0.03101,0 -0.05614,0.0148 -0.05614,0.03306c0,0.01826 0.02513,0.03306 0.05614,0.03306zM231.44345,180.74457c0.03101,0 0.05614,-0.0148 0.05614,-0.03306c0,-0.01826 -0.02513,-0.03306 -0.05614,-0.03306c-0.03101,0 -0.05614,0.01481 -0.05614,0.03306c0,0.01826 0.02514,0.03306 0.05614,0.03306zM232.79546,180.3234c0.03101,0 0.05614,-0.01481 0.05614,-0.03306c0,-0.01826 -0.02513,-0.03306 -0.05614,-0.03306c-0.03101,0 -0.05614,0.0148 -0.05614,0.03306c0,0.01826 0.02513,0.03306 0.05614,0.03306zM232.97424,181.23813c0.03101,0 0.05614,-0.0148 0.05614,-0.03306c0,-0.01826 -0.02514,-0.03306 -0.05614,-0.03306c-0.03101,0 -0.05614,0.0148 -0.05614,0.03306c0,0.01826 0.02513,0.03306 0.05614,0.03306zM232.70607,180.17862c0.03101,0 0.05614,-0.0148 0.05614,-0.03307c0,-0.01826 -0.02513,-0.03306 -0.05614,-0.03306c-0.03101,0 -0.05614,0.01481 -0.05614,0.03306c0,0.01826 0.02513,0.03307 0.05614,0.03307zM233.24241,180.65902c0.03101,0 0.05614,-0.0148 0.05614,-0.03306c0,-0.01826 -0.02513,-0.03306 -0.05614,-0.03306c-0.03101,0 -0.05614,0.0148 -0.05614,0.03306c0,0.01826 0.02513,0.03306 0.05614,0.03306zM232.61668,181.17232c0.03101,0 0.05614,-0.0148 0.05614,-0.03306c0,-0.01826 -0.02513,-0.03306 -0.05614,-0.03306c-0.03101,0 -0.05614,0.0148 -0.05614,0.03306c0,0.01826 0.02513,0.03306 0.05614,0.03306zM232.22561,180.81696c0.03101,0 0.05614,-0.01481 0.05614,-0.03306c0,-0.01826 -0.02514,-0.03306 -0.05614,-0.03306c-0.03101,0 -0.05614,0.0148 -0.05614,0.03306c0,0.01826 0.02513,0.03306 0.05614,0.03306zM232.32617,180.44843c0.03101,0 0.05614,-0.0148 0.05614,-0.03306c0,-0.01826 -0.02513,-0.03306 -0.05614,-0.03306c-0.03101,0 -0.05614,0.0148 -0.05614,0.03306c0,0.01826 0.02513,0.03306 0.05614,0.03306zM232.67255,180.44185c0.03101,0 0.05614,-0.0148 0.05614,-0.03307c0,-0.01826 -0.02513,-0.03306 -0.05614,-0.03306c-0.03101,0 -0.05614,0.0148 -0.05614,0.03306c0,0.01826 0.02513,0.03307 0.05614,0.03307zM232.43791,180.27733c0.03101,0 0.05614,-0.0148 0.05614,-0.03306c0,-0.01826 -0.02513,-0.03306 -0.05614,-0.03306c-0.03101,0 -0.05614,0.0148 -0.05614,0.03306c0,0.01826 0.02514,0.03306 0.05614,0.03306zM232.51612,180.78406c0.03101,0 0.05614,-0.0148 0.05614,-0.03306c0,-0.01826 -0.02513,-0.03307 -0.05614,-0.03307c-0.03101,0 -0.05614,0.0148 -0.05614,0.03307c0,0.01826 0.02514,0.03306 0.05614,0.03306zM233.80109,181.35659c0.03101,0 0.05614,-0.0148 0.05614,-0.03306c0,-0.01826 -0.02513,-0.03307 -0.05614,-0.03307c-0.03101,0 -0.05614,0.0148 -0.05614,0.03307c0,0.01826 0.02513,0.03306 0.05614,0.03306zM231.72279,181.36975c0.03101,0 0.05614,-0.01481 0.05614,-0.03306c0,-0.01826 -0.02513,-0.03307 -0.05614,-0.03307c-0.03101,0 -0.05614,0.0148 -0.05614,0.03307c0,0.01826 0.02513,0.03306 0.05614,0.03306zM232.34852,179.96803c0.03101,0 0.05614,-0.0148 0.05614,-0.03306c0,-0.01826 -0.02513,-0.03307 -0.05614,-0.03307c-0.03101,0 -0.05614,0.0148 -0.05614,0.03307c0,0.01826 0.02514,0.03306 0.05614,0.03306zM233.19771,181.08677c0.03101,0 0.05614,-0.0148 0.05614,-0.03307c0,-0.01826 -0.02513,-0.03306 -0.05614,-0.03306c-0.03101,0 -0.05614,0.0148 -0.05614,0.03306c0,0.01826 0.02514,0.03307 0.05614,0.03307zM232.68372,179.82326c0.03101,0 0.05614,-0.01481 0.05614,-0.03307c0,-0.01826 -0.02513,-0.03306 -0.05614,-0.03306c-0.03101,0 -0.05614,0.0148 -0.05614,0.03306c0,0.01826 0.02513,0.03307 0.05614,0.03307zM232.11387,180.6656c0.03101,0 0.05614,-0.0148 0.05614,-0.03306c0,-0.01826 -0.02513,-0.03306 -0.05614,-0.03306c-0.03101,0 -0.05614,0.01481 -0.05614,0.03306c0,0.01826 0.02513,0.03306 0.05614,0.03306zM232.52729,180.09965c0.03101,0 0.05614,-0.0148 0.05614,-0.03306c0,-0.01826 -0.02514,-0.03306 -0.05614,-0.03306c-0.03101,0 -0.05614,0.01481 -0.05614,0.03306c0,0.01826 0.02513,0.03306 0.05614,0.03306zM232.30382,181.00122c0.03101,0 0.05614,-0.0148 0.05614,-0.03306c0,-0.01826 -0.02513,-0.03307 -0.05614,-0.03307c-0.03101,0 -0.05614,0.0148 -0.05614,0.03307c0,0.01826 0.02513,0.03306 0.05614,0.03306zM232.98541,180.56031c0.03101,0 0.05614,-0.01481 0.05614,-0.03306c0,-0.01826 -0.02513,-0.03306 -0.05614,-0.03306c-0.03101,0 -0.05614,0.0148 -0.05614,0.03306c0,0.01826 0.02514,0.03306 0.05614,0.03306zM232.4826,180.56689c0.03101,0 0.05614,-0.0148 0.05614,-0.03306c0,-0.01826 -0.02513,-0.03307 -0.05614,-0.03307c-0.03101,0 -0.05614,0.0148 -0.05614,0.03307c0,0.01826 0.02513,0.03306 0.05614,0.03306zM232.75076,180.65902c0.03101,0 0.05614,-0.0148 0.05614,-0.03306c0,-0.01826 -0.02513,-0.03306 -0.05614,-0.03306c-0.03101,0 -0.05614,0.0148 -0.05614,0.03306c0,0.01826 0.02513,0.03306 0.05614,0.03306zM231.53284,180.90909c0.03101,0 0.05614,-0.0148 0.05614,-0.03306c0,-0.01826 -0.02514,-0.03307 -0.05614,-0.03307c-0.03101,0 -0.05614,0.01481 -0.05614,0.03307c0,0.01826 0.02513,0.03306 0.05614,0.03306zM232.34852,180.6656c0.03101,0 0.05614,-0.0148 0.05614,-0.03306c0,-0.01826 -0.02513,-0.03306 -0.05614,-0.03306c-0.03101,0 -0.05614,0.01481 -0.05614,0.03306c0,0.01826 0.02514,0.03306 0.05614,0.03306zM233.23123,181.36975c0.03101,0 0.05614,-0.01481 0.05614,-0.03306c0,-0.01826 -0.02513,-0.03307 -0.05614,-0.03307c-0.03101,0 -0.05614,0.0148 -0.05614,0.03307c0,0.01826 0.02513,0.03306 0.05614,0.03306z" data-paper-data="{&quot;index&quot;:null}" fill="url(#color-4)"/></g></g></svg>