<svg version="1.1" xmlns="http://www.w3.org/2000/svg" xmlns:xlink="http://www.w3.org/1999/xlink" width="38.60133" height="101.694" viewBox="0,0,38.60133,101.694"><g transform="translate(-215.7786,-129.16571)"><g data-paper-data="{&quot;isPaintingLayer&quot;:true}" fill="#b1b1b1" fill-rule="nonzero" stroke="#000000" stroke-width="1.5" stroke-linecap="butt" stroke-linejoin="miter" stroke-miterlimit="10" stroke-dasharray="" stroke-dashoffset="0" style="mix-blend-mode: normal"><path d="M250.91425,175.6294l-34.2673,-6.00159l2.59734,-14.80527l34.26729,6.00161z" data-paper-data="{&quot;index&quot;:null}"/><path d="M233.52744,228.14487l-0.96045,-36.74977l18.23673,-0.47662l0.96045,36.74977z"/><path d="M224.69435,230.09037l-0.97344,-37.2467l18.48332,-0.48306l0.97344,37.2467z"/><path d="M223.57271,196.40834l-0.94097,-36.00439l28.72107,-0.75063l0.94097,36.0044c0,0 -7.42966,0.19418 -11.69237,0.30558c-5.14428,0.13444 -17.02869,0.44505 -17.02869,0.44505z"/><path d="M253.35769,144.89157c0.22235,8.50763 -6.93916,15.59632 -15.99567,15.83301c-9.05652,0.23669 -16.57851,-6.46824 -16.80087,-14.97587c-0.22235,-8.50763 6.93916,-15.59631 15.99568,-15.833c9.05652,-0.23669 16.57851,6.46823 16.80087,14.97587z" data-paper-data="{&quot;index&quot;:null}"/><path d="M252.56396,187.49124l-34.74169,1.81168l-0.78703,-15.01077l34.74169,-1.81167z" data-paper-data="{&quot;index&quot;:null}"/></g></g></svg>