<svg version="1.1" xmlns="http://www.w3.org/2000/svg" xmlns:xlink="http://www.w3.org/1999/xlink" width="58.85876" height="103.96643" viewBox="0,0,58.85876,103.96643"><g transform="translate(-201.39958,-131.29264)"><g data-paper-data="{&quot;isPaintingLayer&quot;:true}" fill="#b1b1b1" fill-rule="nonzero" stroke="#000000" stroke-width="1.5" stroke-linecap="butt" stroke-linejoin="miter" stroke-miterlimit="10" stroke-dasharray="" stroke-dashoffset="0" style="mix-blend-mode: normal"><path d="M244.45902,199.97002l-1.57315,-34.7533l15.01619,-0.67546l1.57313,34.7533z" data-paper-data="{&quot;index&quot;:null}"/><path d="M240.01893,229.44747l-0.66152,-36.75637l18.24,-0.32828l0.66152,36.75637z"/><path d="M218.48627,232.18385l4.51373,-36.98499l18.35346,2.23988l-4.51373,36.985z"/><path d="M222.73258,197.23126l0.01292,-36.01668l28.73087,0.0103l-0.01293,36.01669c0,0 -7.43219,-0.00267 -11.69636,-0.00419c-5.14604,-0.00185 -17.03452,-0.00611 -17.03452,-0.00611z"/><path d="M252.97871,147.01657c0.22332,8.50761 -6.93737,15.59712 -15.99386,15.83486c-9.05649,0.23773 -16.57926,-6.46632 -16.8026,-14.97393c-0.22332,-8.50761 6.93737,-15.5971 15.99386,-15.83485c9.05649,-0.23773 16.57926,6.46631 16.80259,14.97393z" data-paper-data="{&quot;index&quot;:null}"/><path d="M220.95129,198.97537l-18.51768,-29.45102l12.72275,-8.00462l18.51768,29.45101z" data-paper-data="{&quot;index&quot;:null}"/></g></g></svg>