<svg version="1.1" xmlns="http://www.w3.org/2000/svg" xmlns:xlink="http://www.w3.org/1999/xlink" width="60.09682" height="97.65117" viewBox="0,0,60.09682,97.65117"><g transform="translate(-211.41234,-135.63409)"><g data-paper-data="{&quot;isPaintingLayer&quot;:true}" fill="#b1b1b1" fill-rule="nonzero" stroke="#000000" stroke-width="1.5" stroke-linecap="butt" stroke-linejoin="miter" stroke-miterlimit="10" stroke-dasharray="" stroke-dashoffset="0" style="mix-blend-mode: normal"><path d="M249.28614,201.54051l-13.06484,-32.24247l13.93273,-5.64102l13.06481,32.24247z" data-paper-data="{&quot;index&quot;:null}"/><path d="M246.02177,227.65343v-36.76232h18.24296v36.76232z"/><path d="M221.45413,192.18832l13.15663,-33.52767l26.74537,10.49517l-13.15664,33.52769c0,0 -6.91858,-2.71493 -10.88805,-4.2726c-4.79041,-1.87982 -15.8573,-6.22258 -15.8573,-6.22258z"/><path d="M212.39148,225.26355l14.19186,-34.45076l17.09587,7.04258l-14.19186,34.45076z"/><path d="M270.75917,151.79378c0,8.51054 -7.34426,15.4097 -16.40387,15.4097c-9.05961,0 -16.40387,-6.89916 -16.40387,-15.4097c0,-8.51054 7.34426,-15.40969 16.40387,-15.40969c9.05961,0 16.40387,6.89915 16.40387,15.4097z" data-paper-data="{&quot;index&quot;:null}"/><path d="M212.30682,196.9992l2.80914,-34.67529l14.98264,1.20951l-2.80915,34.67529z" data-paper-data="{&quot;index&quot;:null}"/></g></g></svg>