<svg version="1.1" xmlns="http://www.w3.org/2000/svg" xmlns:xlink="http://www.w3.org/1999/xlink" width="41.22485" height="101.36885" viewBox="0,0,41.22485,101.36885"><g transform="translate(-220.8624,-128.83411)"><g data-paper-data="{&quot;isPaintingLayer&quot;:true}" fill="#b1b1b1" fill-rule="nonzero" stroke="#000000" stroke-width="1.5" stroke-linecap="butt" stroke-linejoin="miter" stroke-miterlimit="10" stroke-dasharray="" stroke-dashoffset="0" style="mix-blend-mode: normal"><path d="M230.70016,226.65531l3.89478,-36.55543l18.14029,1.93274l-3.89478,36.55543z"/><path d="M221.68764,227.41885l3.94745,-37.04971l18.38559,1.95887l-3.94745,37.04971z"/><path d="M225.01803,193.88311l3.81577,-35.81399l28.56918,3.04388l-3.81577,35.814c0,0 -7.39036,-0.7874 -11.63053,-1.23917c-5.11707,-0.5452 -16.93864,-1.80472 -16.93864,-1.80472z"/><path d="M261.33725,146.74461c-0.90165,8.46264 -8.93551,14.54489 -17.94413,13.58506c-9.00863,-0.95982 -15.58063,-8.59824 -14.67897,-17.06087c0.90165,-8.46264 8.93551,-14.54488 17.94413,-13.58505c9.00863,0.95982 15.58063,8.59823 14.67897,17.06087z" data-paper-data="{&quot;index&quot;:null}"/></g></g></svg>