<svg version="1.1" xmlns="http://www.w3.org/2000/svg" xmlns:xlink="http://www.w3.org/1999/xlink" width="79.12853" height="101.49899" viewBox="0,0,79.12853,101.49899"><g transform="translate(-201.01805,-130.23422)"><g data-paper-data="{&quot;isPaintingLayer&quot;:true}" fill="#b1b1b1" fill-rule="nonzero" stroke="#000000" stroke-width="1.5" stroke-linecap="butt" stroke-linejoin="miter" stroke-miterlimit="10" stroke-dasharray="" stroke-dashoffset="0" style="mix-blend-mode: normal"><path d="M266.99765,195.47306l-20.64791,-27.99876l12.10007,-8.91799l20.64789,27.99877z" data-paper-data="{&quot;index&quot;:null}"/><path d="M251.89186,230.72449l-16.68603,-32.75736l16.25554,-8.28029l16.68603,32.75736z"/><path d="M207.92124,218.79063l23.73868,-28.71826l14.25117,11.7801l-23.73868,28.71826z"/><path d="M226.27947,195.81144l2.82516,-35.90572l28.64235,2.25366l-2.82516,35.90572c0,0 -7.4093,-0.58298 -11.66032,-0.91746c-5.13019,-0.40365 -16.98202,-1.33619 -16.98202,-1.33619z"/><path d="M261.28289,147.68781c-0.66757,8.48432 -8.53037,14.78614 -17.56207,14.07549c-9.0317,-0.71064 -15.81216,-8.16462 -15.14459,-16.64894c0.66757,-8.48432 8.53037,-14.78613 17.56207,-14.07549c9.0317,0.71064 15.81216,8.16462 15.14459,16.64894z" data-paper-data="{&quot;index&quot;:null}"/><path d="M202.07652,183.81462l22.91545,-26.17535l11.31249,9.89797l-22.91546,26.17535z" data-paper-data="{&quot;index&quot;:null}"/></g></g></svg>