<svg version="1.1" xmlns="http://www.w3.org/2000/svg" xmlns:xlink="http://www.w3.org/1999/xlink" width="86.89755" height="82.40884" viewBox="0,0,86.89755,82.40884"><g transform="translate(-198.92545,-164.63994)"><g data-paper-data="{&quot;isPaintingLayer&quot;:true}" fill="#b1b1b1" fill-rule="nonzero" stroke="#000000" stroke-width="1.5" stroke-linecap="butt" stroke-linejoin="miter" stroke-miterlimit="10" stroke-dasharray="" stroke-dashoffset="0" style="mix-blend-mode: normal"><path d="M224.79515,171.83412l7.9964,33.85742l-14.62987,3.45088l-7.9964,-33.85742z" data-paper-data="{&quot;index&quot;:null}"/><path d="M284.94914,205.76387l-36.1495,6.68444l-3.3171,-17.93885l36.1495,-6.68444z" data-paper-data="{&quot;index&quot;:null}"/><path d="M268.52495,180.56515l-29.97817,22.1263l-10.97998,-14.87639l29.97817,-22.1263z" data-paper-data="{&quot;index&quot;:null}"/><path d="M242.66294,185.06594c0,0 7.44761,9.26653 10.67138,13.27764c2.67131,3.32373 7.32727,9.11681 7.32727,9.11681l-28.07343,22.56291l-17.99865,-22.39445l28.07343,-22.56289z" data-paper-data="{&quot;index&quot;:null}"/><path d="M216.42306,213.55063c8.48252,0.69015 14.76337,8.56971 14.02869,17.59947c-0.73468,9.02977 -8.20667,15.79036 -16.68919,15.10021c-8.48249,-0.69015 -14.76337,-8.56971 -14.02869,-17.59947c0.73468,-9.02978 8.20668,-15.79037 16.6892,-15.10022z" data-paper-data="{&quot;index&quot;:null}"/><path d="M263.47514,200.09311l-12.04034,32.63889l-14.10389,-5.19831l12.04034,-32.63888z" data-paper-data="{&quot;index&quot;:null}"/></g></g></svg>