<svg version="1.1" xmlns="http://www.w3.org/2000/svg" xmlns:xlink="http://www.w3.org/1999/xlink" width="60.34131" height="103.26659" viewBox="0,0,60.34131,103.26659"><g transform="translate(-217.55919,-129.33985)"><g data-paper-data="{&quot;isPaintingLayer&quot;:true}" fill="#b1b1b1" fill-rule="nonzero" stroke="#000000" stroke-width="1.5" stroke-linecap="butt" stroke-linejoin="miter" stroke-miterlimit="10" stroke-dasharray="" stroke-dashoffset="0" style="mix-blend-mode: normal"><path d="M258.71158,187.95927l-29.89449,-17.79288l7.6915,-12.91444l29.89447,17.79289z" data-paper-data="{&quot;index&quot;:null}"/><path d="M218.90585,225.31454l12.75251,-34.47959l17.11017,6.3283l-12.75251,34.47959z"/><path d="M230.58077,196.00405l0.51766,-36.01296l28.72791,0.41294l-0.51767,36.01297c0,0 -7.43143,-0.10681 -11.69516,-0.16811c-5.1455,-0.07397 -17.03275,-0.24483 -17.03275,-0.24483z"/><path d="M241.17835,212.03377l20.12551,-31.35647l15.56035,9.98709l-20.12551,31.35647z"/><path d="M262.4273,145.73556c-0.12232,8.50965 -7.56498,15.30256 -16.62365,15.17234c-9.05868,-0.13021 -16.30301,-7.13422 -16.1807,-15.64388c0.12232,-8.50965 7.56498,-15.30255 16.62366,-15.17233c9.05868,0.13021 16.30301,7.13421 16.1807,15.64388z" data-paper-data="{&quot;index&quot;:null}"/><path d="M251.15934,196.81978l-32.63706,-12.04532l5.20049,-14.10311l32.63705,12.04533z" data-paper-data="{&quot;index&quot;:null}"/></g></g></svg>