<svg version="1.1" xmlns="http://www.w3.org/2000/svg" xmlns:xlink="http://www.w3.org/1999/xlink" width="59.45813" height="99.32327" viewBox="0,0,59.45813,99.32327"><g transform="translate(-208.54254,-132.06938)"><g data-paper-data="{&quot;isPaintingLayer&quot;:true}" fill="#b1b1b1" fill-rule="nonzero" stroke="#000000" stroke-width="1.5" stroke-linecap="butt" stroke-linejoin="miter" stroke-miterlimit="10" stroke-dasharray="" stroke-dashoffset="0" style="mix-blend-mode: normal"><path d="M260.2041,191.40415l-31.04328,-15.70291l6.78862,-13.41107l31.04327,15.70292z" data-paper-data="{&quot;index&quot;:null}"/><path d="M236.70965,227.10567v-36.76232h18.24296v36.76232z"/><path d="M231.98459,230.4856l-8.87503,-36.18698l17.95746,-4.40416l8.87503,36.18698z"/><path d="M221.38152,191.96855l7.57719,-35.21062l28.08786,6.0444l-7.57719,35.21063c0,0 -7.26587,-1.56358 -11.43459,-2.46068c-5.03087,-1.08263 -16.65328,-3.58372 -16.65328,-3.58372z"/><path d="M263.35468,148.22907c0,8.51054 -7.34426,15.4097 -16.40387,15.4097c-9.05961,0 -16.40387,-6.89916 -16.40387,-15.4097c0,-8.51054 7.34426,-15.40969 16.40387,-15.40969c9.05961,0 16.40387,6.89915 16.40387,15.4097z" data-paper-data="{&quot;index&quot;:null}"/><path d="M224.15961,204.96216l-14.6214,-31.5671l13.63753,-6.32139l14.62139,31.56711z" data-paper-data="{&quot;index&quot;:null}"/></g></g></svg>