<svg version="1.1" xmlns="http://www.w3.org/2000/svg" xmlns:xlink="http://www.w3.org/1999/xlink" width="157.66904" height="220.69008" viewBox="0,0,157.66904,220.69008"><g transform="translate(-161.16548,-69.65496)"><g data-paper-data="{&quot;isPaintingLayer&quot;:true}" fill-rule="nonzero" stroke-width="0" stroke-linecap="butt" stroke-linejoin="miter" stroke-miterlimit="10" stroke-dasharray="" stroke-dashoffset="0" style="mix-blend-mode: normal"><path d="M178.54297,155.32095l47.56786,-9.17254l9.44635,48.9878l-47.56786,9.17254z" data-paper-data="{&quot;index&quot;:null}" fill="#1cb800" stroke="none"/><path d="M185.32301,157.53034l-14.67452,-64.63607l64.63607,-14.67452l14.67452,64.63607z" data-paper-data="{&quot;index&quot;:null}" fill="#2fec00" stroke="none"/><path d="M218.74892,165.18322l6.42874,-83.69197l83.69197,6.42874l-6.42874,83.69197z" data-paper-data="{&quot;index&quot;:null}" fill="#1d9300" stroke="none"/><path d="M188.83645,139.66829l40.88779,-70.01333l70.01333,40.88779l-40.88779,70.01333z" data-paper-data="{&quot;index&quot;:null}" fill="#33ff00" stroke="none"/><path d="M233.75,290.34504l-12.60051,-4v-114.24146h23.13751v114.24146z" data-paper-data="{&quot;index&quot;:null}" fill="#a16000" stroke="#000000"/><path d="M234.81374,174.31303l35.89188,-49.88971l48.1289,34.62511l-35.89188,49.88971z" data-paper-data="{&quot;index&quot;:null}" fill="#26c400" stroke="none"/><path d="M197.96484,193.33268l17.86261,-46.58288l46.58288,17.86261l-17.86261,46.58288z" data-paper-data="{&quot;index&quot;:null}" fill="#1d9300" stroke="none"/><path d="M220.17111,112.23085l6.0108,61.16437l-59.00563,5.79866l-6.0108,-61.16437z" data-paper-data="{&quot;index&quot;:null}" fill="#26c400" stroke="none"/><path d="M217.75834,196.87666l24.89311,-42.62517l42.62517,24.89311l-24.89311,42.62517z" data-paper-data="{&quot;index&quot;:null}" fill="#2fec00" stroke="none"/></g></g></svg>