<svg version="1.1" xmlns="http://www.w3.org/2000/svg" xmlns:xlink="http://www.w3.org/1999/xlink" width="82.35698" height="101.10049" viewBox="0,0,82.35698,101.10049"><g transform="translate(-210.73811,-132.75108)"><g data-paper-data="{&quot;isPaintingLayer&quot;:true}" fill="#b1b1b1" fill-rule="nonzero" stroke="#000000" stroke-width="1.5" stroke-linecap="butt" stroke-linejoin="miter" stroke-miterlimit="10" stroke-dasharray="" stroke-dashoffset="0" style="mix-blend-mode: normal"><path d="M256.9853,159.7568l34.76446,-1.30368l0.56754,15.02067l-34.76446,1.30367z" data-paper-data="{&quot;index&quot;:null}"/><path d="M211.77437,222.82981l20.12227,-31.35854l15.56139,9.98549l-20.12228,31.35855z"/><path d="M243.61757,226.4903l9.93134,-35.39543l17.56465,4.92834l-9.93133,35.39544z"/><path d="M229.49943,195.22236l6.29089,-35.46303l28.28922,5.0183l-6.29089,35.46305c0,0 -7.31795,-1.29816 -11.51655,-2.04296c-5.06693,-0.89885 -16.77265,-2.97535 -16.77265,-2.97535z"/><path d="M270.48048,148.91077c0,8.51054 -7.34426,15.4097 -16.40387,15.4097c-9.05961,0 -16.40387,-6.89916 -16.40387,-15.4097c0,-8.51054 7.34426,-15.40969 16.40387,-15.40969c9.05961,0 16.40387,6.89915 16.40387,15.4097z" data-paper-data="{&quot;index&quot;:null}"/><path d="M223.65484,179.98272l34.45709,4.79335l-2.07531,14.88741l-34.45706,-4.79338z" data-paper-data="{&quot;index&quot;:null}"/></g></g></svg>