<svg version="1.1" xmlns="http://www.w3.org/2000/svg" xmlns:xlink="http://www.w3.org/1999/xlink" width="122.93296" height="36.54149" viewBox="0,0,122.93296,36.54149"><g transform="translate(-177.39146,-148.59928)"><g data-paper-data="{&quot;isPaintingLayer&quot;:true}" fill-rule="nonzero" stroke-linecap="butt" stroke-linejoin="miter" stroke-miterlimit="10" stroke-dasharray="" stroke-dashoffset="0" style="mix-blend-mode: normal"><path d="M181.60884,182.64077c-1.08383,-5.76676 1.32945,-11.74929 7.67512,-17.14035c16.24855,-13.80422 52.12695,-18.50308 80.13665,-10.49518c15.70873,4.49108 25.60635,12.02505 28.40382,20.21128" fill="none" stroke="#00abff" stroke-width="5"/><path d="M203.7968,157.20539c0,0 7.03672,0.13581 13.54595,3.40345c5.79361,2.9084 10.66711,4.22015 14.52322,6.84243c3.72005,2.52975 6.39539,6.38547 13.2964,8.35845c2.61123,0.74654 4.06399,2.47297 5.9898,4.09433c-1.47312,0.20839 -2.99492,0.26928 -4.75442,0.26932c-3.49826,0.00009 -6.76412,-0.35656 -10.36087,-0.35656c-2.1997,0 -2.98603,1.18948 -5.08365,1.89456c-4.44193,-2.04919 -7.70293,-5.02553 -11.548,-6.34973c-4.98601,-1.71712 -11.34694,-0.81647 -18.79318,-1.69069c-8.78784,-1.03173 -18.13453,1.64658 -18.13453,1.64658c0,0 4.13837,-7.52182 7.89906,-10.71678c3.27971,-2.78633 13.42022,-7.39537 13.42022,-7.39537z" fill="#71d0ff" stroke="#00abff" stroke-width="5"/><path d="M266.58626,176.6372c0.34541,0.09875 0.60365,0.20892 0.79374,0.32435c-0.1967,0.00165 -0.39557,0.0024 -0.59683,0.0024c-1.36134,0 -2.65377,0.19376 -3.92312,0.43876l0.30927,-0.31801c0,0 1.25446,-1.06575 3.41694,-0.4475z" fill="#a4e1ff" stroke="none" stroke-width="0.5"/><path d="M220.03806,170.58577c0.97731,1.13405 -1.32375,1.6157 -1.32375,1.6157l-0.63835,-0.0077c-1.32652,0.75574 -2.52101,1.59343 -3.3205,2.51174c0,0 -1.00799,1.12751 -3.29577,0.63073c-2.28779,-0.49677 -1.2798,-1.62428 -1.2798,-1.62428c0.19533,-0.21403 0.4056,-0.42494 0.62914,-0.63265c-0.05933,0.01828 -0.09465,0.02749 -0.09465,0.02749c-2.99904,0.71046 -3.4292,1.61739 -5.08143,3.02107l-0.14853,0.3867c0,0 -0.69253,1.18388 -3.0947,0.84257c-2.40217,-0.3413 -1.70964,-1.52518 -1.70964,-1.52518l0.6279,-0.94059c2.18108,-1.85297 3.18945,-2.88994 7.06856,-3.96282c0,0 2.2099,-0.57608 3.37881,0.51304c0.22748,0.21195 0.327,0.40447 0.33974,0.5771c0.66791,-0.49531 1.40165,-0.96983 2.17447,-1.42277l2.49012,-0.66255c0,0 2.30106,-0.48165 3.27836,0.6524z" fill="#a4e1ff" stroke="none" stroke-width="0.5"/><path d="M197.81988,180.71108c-2.41614,0.31643 -3.0582,-0.87433 -3.0582,-0.87433l-0.43745,-0.82542c-1.98963,-3.00375 -0.12901,-5.65049 4.10903,-7.96204c0,0 1.6937,-0.90625 3.53255,-0.07154c1.83886,0.83472 0.14515,1.74097 0.14515,1.74097c-2.92547,1.52686 -4.64452,3.46196 -3.06717,5.47895l0.55017,1.0062c0,0 0.64206,1.19077 -1.77408,1.5072z" fill="#a4e1ff" stroke="none" stroke-width="0.5"/><path d="M191.73563,170.05068c-2.40217,-0.3413 -1.70964,-1.52518 -1.70964,-1.52518l0.6279,-0.94059c2.32094,-1.9533 4.77121,-2.98649 8.49391,-4.3396c0,0 2.01605,-0.72859 3.49441,0.26499c1.47836,0.99358 -0.53769,1.72217 -0.53769,1.72217c-3.23233,1.16069 -5.17425,1.91213 -7.12566,3.58893l-0.14853,0.3867c0,0 -0.69253,1.18388 -3.09469,0.84257z" fill="#a4e1ff" stroke="none" stroke-width="0.5"/><path d="M223.67599,163.46977c-0.54825,0.46577 -1.26992,0.6099 -1.90872,0.62456c-0.86241,0.51995 -1.66129,1.06651 -2.33728,1.64737c0,0 -1.25446,1.06575 -3.41694,0.4475c-0.23347,-0.06675 -0.42711,-0.13871 -0.5868,-0.21399c-0.20173,-0.02751 -0.3997,-0.06805 -0.58922,-0.12223c-0.86308,-0.24675 -1.31475,-0.70893 -1.23742,-1.16845c-0.19169,0.14683 -1.41043,0.99241 -3.39032,0.42637c-2.16248,-0.61825 -0.90802,-1.684 -0.90802,-1.684c2.39227,-2.02332 4.87031,-3.40589 8.64068,-4.83177l2.21137,-0.8931c0,0 1.93389,-0.78081 3.51821,0.17228c1.58432,0.95309 -0.34957,1.7339 -0.34957,1.7339l-2.28154,0.92092c-2.69552,1.00077 -4.54235,1.93997 -6.25083,3.20598c0.46161,-0.13846 1.0057,-0.20036 1.54608,-0.17439c0.83537,-0.58994 1.75468,-1.15249 2.71537,-1.69256l3.71694,-0.08239c0,0 2.16248,0.61825 0.90802,1.684z" fill="#a4e1ff" stroke="none" stroke-width="0.5"/><path d="M236.32919,161.64163c1.10344,1.10558 -1.13987,1.6494 -1.13987,1.6494l-1.17257,0.28354c-0.39386,0.08772 -4.53345,0.98705 -4.9506,1.16587c-1.88196,0.80676 -3.15657,1.90399 -4.77389,2.83982c0,0 -1.62107,0.93796 -3.52426,0.13904c-1.90319,-0.79892 -0.28213,-1.73689 -0.28213,-1.73689c1.81288,-1.04891 3.29057,-2.26232 5.42365,-3.153c0.97867,-0.40865 4.72221,-1.20441 6.04615,-1.49993l1.02677,-0.24962c0,0 2.2433,-0.54382 3.34674,0.56177z" fill="#a4e1ff" stroke="none" stroke-width="0.5"/><path d="M211.42379,166.89746c1.87446,0.81525 0.22027,1.73906 0.22027,1.73906l-1.22758,0.68345c-0.65081,0.33036 -1.30163,0.66071 -1.95245,0.99107c0,0 -1.74149,0.88398 -3.53515,0.02571c-1.79366,-0.85827 -0.05218,-1.74225 -0.05218,-1.74225c0.65081,-0.33036 1.30163,-0.66071 1.95245,-0.99107l1.06597,-0.59741c0,0 1.6542,-0.92381 3.52867,-0.10856z" fill="#a4e1ff" stroke="none" stroke-width="0.5"/><path d="M216.10844,155.33591c1.54192,0.96984 -0.42595,1.72975 -0.42595,1.72975l-1.72753,0.65209c-2.72944,0.76619 -4.20334,1.53271 -5.7557,2.87653c0,0 -1.25446,1.06575 -3.41694,0.4475c-2.16248,-0.61825 -0.90802,-1.684 -0.90802,-1.684c2.02817,-1.69745 4.12068,-2.76925 7.57032,-3.77114l1.15404,-0.46066c0,0 1.96787,-0.75991 3.50978,0.20992z" fill="#a4e1ff" stroke="none" stroke-width="0.5"/></g></g></svg>