<svg version="1.1" xmlns="http://www.w3.org/2000/svg" xmlns:xlink="http://www.w3.org/1999/xlink" width="71.60399" height="202.52215" viewBox="0,0,71.60399,202.52215"><defs><radialGradient cx="235.18981" cy="246.88787" r="31.74706" gradientUnits="userSpaceOnUse" id="color-1"><stop offset="0" stop-color="#ffffff"/><stop offset="1" stop-color="#ffffff" stop-opacity="0"/></radialGradient><radialGradient cx="244.66769" cy="258.56092" r="31.74706" gradientUnits="userSpaceOnUse" id="color-2"><stop offset="0" stop-color="#ffffff"/><stop offset="1" stop-color="#ffffff" stop-opacity="0"/></radialGradient><radialGradient cx="221.33766" cy="236.87153" r="31.74706" gradientUnits="userSpaceOnUse" id="color-3"><stop offset="0" stop-color="#ffffff"/><stop offset="1" stop-color="#ffffff" stop-opacity="0"/></radialGradient><radialGradient cx="216.05508" cy="212.44769" r="31.74706" gradientUnits="userSpaceOnUse" id="color-4"><stop offset="0" stop-color="#ffffff"/><stop offset="1" stop-color="#ffffff" stop-opacity="0"/></radialGradient><radialGradient cx="217.88213" cy="188.02383" r="31.74706" gradientUnits="userSpaceOnUse" id="color-5"><stop offset="0" stop-color="#ffffff"/><stop offset="1" stop-color="#ffffff" stop-opacity="0"/></radialGradient><radialGradient cx="235.37617" cy="126.98029" r="31.74706" gradientUnits="userSpaceOnUse" id="color-6"><stop offset="0" stop-color="#ffffff"/><stop offset="1" stop-color="#ffffff" stop-opacity="0"/></radialGradient><radialGradient cx="244.85407" cy="115.30726" r="31.74707" gradientUnits="userSpaceOnUse" id="color-7"><stop offset="0" stop-color="#ffffff"/><stop offset="1" stop-color="#ffffff" stop-opacity="0"/></radialGradient><radialGradient cx="221.52401" cy="136.99663" r="31.74707" gradientUnits="userSpaceOnUse" id="color-8"><stop offset="0" stop-color="#ffffff"/><stop offset="1" stop-color="#ffffff" stop-opacity="0"/></radialGradient><radialGradient cx="216.24146" cy="161.42049" r="31.74706" gradientUnits="userSpaceOnUse" id="color-9"><stop offset="0" stop-color="#ffffff"/><stop offset="1" stop-color="#ffffff" stop-opacity="0"/></radialGradient><radialGradient cx="218.06851" cy="185.84433" r="31.74707" gradientUnits="userSpaceOnUse" id="color-10"><stop offset="0" stop-color="#ffffff"/><stop offset="1" stop-color="#ffffff" stop-opacity="0"/></radialGradient></defs><g transform="translate(-188.23183,-85.673)"><g data-paper-data="{&quot;isPaintingLayer&quot;:true}" fill-rule="nonzero" stroke="none" stroke-width="0" stroke-linecap="butt" stroke-linejoin="miter" stroke-miterlimit="10" stroke-dasharray="" stroke-dashoffset="0" style="mix-blend-mode: normal"><g><path d="M228.76905,276.5221c-11.82029,0 -21.40251,-10.93358 -21.40251,-24.42081c0,-13.48723 9.58222,-24.42082 21.40251,-24.42082c11.82029,0 21.40251,10.93358 21.40251,24.42082c0,13.48723 -9.58224,24.42081 -21.40251,24.42081z" data-paper-data="{&quot;index&quot;:null}" fill="url(#color-1)"/><path d="M238.24693,288.19515c-11.82029,0 -21.40249,-10.93356 -21.40249,-24.42079c0,-13.48723 9.58222,-24.42081 21.40249,-24.42081c11.82029,0 21.40252,10.93357 21.40252,24.42081c0,13.48723 -9.58225,24.42079 -21.40252,24.42079z" data-paper-data="{&quot;index&quot;:null}" fill="url(#color-2)"/><path d="M214.9169,266.50577c-11.82029,0 -21.4025,-10.93358 -21.4025,-24.42082c0,-13.48723 9.58223,-24.42081 21.4025,-24.42081c11.82029,0 21.40251,10.93357 21.40251,24.42081c0,13.48723 -9.58224,24.42082 -21.40251,24.42082z" data-paper-data="{&quot;index&quot;:null}" fill="url(#color-3)"/><path d="M209.63433,242.08193c-11.82029,0 -21.40249,-10.93358 -21.40249,-24.42081c0,-13.48723 9.58222,-24.42082 21.40249,-24.42082c11.82029,0 21.40252,10.93358 21.40252,24.42082c0,13.48723 -9.58225,24.42081 -21.40252,24.42081z" data-paper-data="{&quot;index&quot;:null}" fill="url(#color-4)"/><path d="M211.46137,217.65807c-11.82029,0 -21.40249,-10.93358 -21.40249,-24.42082c0,-13.48723 9.58222,-24.42081 21.40249,-24.42081c11.82029,0 21.40252,10.93357 21.40252,24.42081c0,13.48723 -9.58223,24.42082 -21.40252,24.42082z" data-paper-data="{&quot;index&quot;:null}" fill="url(#color-5)"/><path d="M250.35792,121.76684c0,13.48723 -9.58224,24.42082 -21.40251,24.42082c-11.82029,0 -21.4025,-10.93358 -21.4025,-24.42082c0,-13.48723 9.58223,-24.42079 21.4025,-24.42079c11.82029,0 21.40251,10.93355 21.40251,24.42079z" data-paper-data="{&quot;index&quot;:null}" fill="url(#color-6)"/><path d="M259.83582,110.09382c0,13.48723 -9.58225,24.42081 -21.40252,24.42081c-11.82029,0 -21.40249,-10.93357 -21.40249,-24.42081c0,-13.48723 9.58222,-24.42082 21.40249,-24.42082c11.82029,0 21.40252,10.93358 21.40252,24.42082z" data-paper-data="{&quot;index&quot;:null}" fill="url(#color-7)"/><path d="M236.50577,131.7832c0,13.48723 -9.58225,24.42082 -21.40252,24.42082c-11.82029,0 -21.40249,-10.93358 -21.40249,-24.42082c0,-13.48723 9.58222,-24.42081 21.40249,-24.42081c11.82029,0 21.40252,10.93357 21.40252,24.42081z" data-paper-data="{&quot;index&quot;:null}" fill="url(#color-8)"/><path d="M231.22322,156.20704c0,13.48723 -9.58223,24.42081 -21.40252,24.42081c-11.82029,0 -21.40249,-10.93357 -21.40249,-24.42081c0,-13.48723 9.58222,-24.42082 21.40249,-24.42082c11.82029,0 21.40252,10.93358 21.40252,24.42082z" data-paper-data="{&quot;index&quot;:null}" fill="url(#color-9)"/><path d="M233.05026,180.6309c0,13.48723 -9.58223,24.42082 -21.40252,24.42082c-11.82029,0 -21.40249,-10.93358 -21.40249,-24.42082c0,-13.48723 9.58222,-24.42081 21.40249,-24.42081c11.82029,0 21.40252,10.93357 21.40252,24.42081z" data-paper-data="{&quot;index&quot;:null}" fill="url(#color-10)"/></g></g></g></svg>