<svg version="1.1" xmlns="http://www.w3.org/2000/svg" xmlns:xlink="http://www.w3.org/1999/xlink" width="74.17217" height="105.59539" viewBox="0,0,74.17217,105.59539"><g transform="translate(-193.4243,-117.78472)"><g data-paper-data="{&quot;isPaintingLayer&quot;:true}" fill="#b1b1b1" fill-rule="nonzero" stroke="#000000" stroke-width="1.5" stroke-linecap="butt" stroke-linejoin="miter" stroke-miterlimit="10" stroke-dasharray="" stroke-dashoffset="0" style="mix-blend-mode: normal"><path d="M194.47346,205.85188l21.89669,-29.5297l14.65384,10.86603l-21.89669,29.5297z" data-paper-data="{&quot;index&quot;:null}"/><path d="M241.10168,218.77382l7.49779,-36.49722l18.11141,3.72071l-7.49779,36.49722z" data-paper-data="{&quot;index&quot;:null}"/><g><path d="M224.14194,184.66544v-36.01669h28.73087v36.0167c0,0 -7.4322,0 -11.69636,0c-5.14604,0 -17.03451,0 -17.03451,0z"/><path d="M255.26268,133.94441c0,8.51054 -7.34426,15.4097 -16.40387,15.4097c-9.05961,0 -16.40387,-6.89916 -16.40387,-15.4097c0,-8.51054 7.34426,-15.40969 16.40387,-15.40969c9.05961,0 16.40387,6.89915 16.40387,15.4097z" data-paper-data="{&quot;index&quot;:null}"/><path d="M226.7404,173.32618l25.80648,-23.33008l10.07716,11.15317l-25.80648,23.33005z" data-paper-data="{&quot;index&quot;:null}"/><path d="M216.70828,158.21813l15.79963,-30.99417l13.39371,6.82281l-15.79964,30.99417z" data-paper-data="{&quot;index&quot;:null}"/></g></g></g></svg>