<svg version="1.1" xmlns="http://www.w3.org/2000/svg" xmlns:xlink="http://www.w3.org/1999/xlink" width="121.93201" height="38.15341" viewBox="0,0,121.93201,38.15341"><g transform="translate(-179.20948,-173.24729)"><g data-paper-data="{&quot;isPaintingLayer&quot;:true}" fill-rule="nonzero" stroke-linecap="butt" stroke-linejoin="miter" stroke-miterlimit="10" stroke-dasharray="" stroke-dashoffset="0" style="mix-blend-mode: normal"><path d="M297.99558,175.74729c1.89648,6.25431 -0.34031,12.85694 -7.27954,18.75227c-16.24855,13.80422 -52.12695,18.50308 -80.13665,10.49518c-16.76065,-4.79182 -26.90586,-13.0477 -28.86991,-21.86388" fill="none" stroke="#00abff" stroke-width="5"/><path d="M258.44551,183.20077c4.36223,0.64713 15.33231,-2.32245 19.40059,-1.82277c9.54285,1.17208 17.09257,1.8846 17.09257,1.8846c0,0 -2.65569,8.26518 -6.13503,11.22111c-3.62141,3.07662 -15.18425,6.89104 -15.18425,6.89104c0,0 -6.55918,-3.85844 -15.04199,-8.16334c-2.32941,-1.18214 -8.90858,-1.24758 -11.43211,-2.4264c-5.7546,-2.68815 -7.65965,-6.33436 -12.78632,-7.80006c-0.9722,-0.27795 -1.88633,-0.61183 -2.75455,-0.98383c1.71168,-0.70206 2.51753,-1.68432 4.43247,-1.68432c3.59788,0 6.85884,0.35665 10.36088,0.35656c1.95293,-0.00005 3.64308,-0.06257 5.29733,-0.32682c1.59706,1.25555 3.58092,2.38403 6.75041,2.85422z" fill="#71d0ff" stroke="#00abff" stroke-width="5"/><path d="M287.30516,177.73473c2.27772,-0.50789 3.30826,0.61465 3.30826,0.61465l1.38652,1.59844c-0.25531,2.96095 -1.9917,5.09195 -3.89822,7.85879c0,0 -0.80601,1.1663 -3.17251,0.76907c-2.3665,-0.39723 -1.5605,-1.56353 -1.5605,-1.56353c1.60104,-2.31043 3.25213,-4.17574 3.7133,-6.61969l-1.02403,-1.02731c0,0 -1.03054,-1.12254 1.24718,-1.63043z" fill="#a4e1ff" stroke="none" stroke-width="0.5"/><path d="M283.32315,175.07708c2.49514,-0.07676 2.6509,1.15294 2.6509,1.15294l0.08115,0.68759c-0.08109,2.82891 -2.37068,5.52644 -4.49922,8.12722c0,0 -0.93603,1.14247 -3.25419,0.68116c-2.31816,-0.46131 -1.38212,-1.60379 -1.38212,-1.60379c1.85348,-2.25971 4.15198,-4.75039 4.13563,-7.22065l-0.07155,-0.51802c0,0 -0.15575,-1.2297 2.33939,-1.30646z" fill="#a4e1ff" stroke="none" stroke-width="0.5"/><path d="M274.97113,180.19636c2.16248,0.61825 0.90802,1.684 0.90802,1.684l-1.36443,1.15918c-1.82017,1.54636 -3.61709,3.02509 -5.69284,4.49413c0,0 -1.42971,1.01073 -3.48054,0.30611c-2.05083,-0.70462 -0.62112,-1.71534 -0.62112,-1.71534c2.00026,-1.41244 3.718,-2.83333 5.46954,-4.32139l1.36443,-1.15918c0,0 1.25446,-1.06575 3.41694,-0.4475z" fill="#a4e1ff" stroke="none" stroke-width="0.5"/><path d="M273.32716,194.87421c1.79366,0.85827 0.05217,1.74225 0.05217,1.74225l-1.95245,0.99107c-3.80541,1.89874 -8.88228,2.69787 -12.58075,4.69403c0,0 -1.6937,0.90625 -3.53255,0.07154c-1.83886,-0.83472 -0.14515,-1.74097 -0.14515,-1.74097c3.76862,-2.00167 8.97653,-2.82329 12.67113,-4.74113l1.95245,-0.99107c0,0 1.74149,-0.88398 3.53515,-0.02571z" fill="#a4e1ff" stroke="none" stroke-width="0.5"/><path d="M254.71873,194.9826c0.44783,-0.26955 1.56329,-0.7636 3.19698,-0.29653c2.16248,0.61825 0.90802,1.684 0.90802,1.684l-1.07786,0.5922c-1.74347,0.49614 -3.38215,1.0818 -4.96473,1.6951c0,0 -1.96786,0.75991 -3.50978,-0.20992c-1.54192,-0.96984 0.42595,-1.72975 0.42595,-1.72975c1.61067,-0.61997 3.27321,-1.21319 5.02142,-1.73509z" fill="#a4e1ff" stroke="none" stroke-width="0.5"/><path d="M268.96184,191.97831c-2.16248,-0.61825 -0.90802,-1.684 -0.90802,-1.684l1.24842,-0.7371c1.17689,-0.30648 2.20603,-0.80969 2.82703,-1.38993c0,0 1.25446,-1.06575 3.41694,-0.4475c2.16248,0.61825 0.90802,1.684 0.90802,1.684c-1.144,0.9184 -2.77834,1.72057 -4.64165,2.28454l0.5662,-0.15751c0,0 -1.25446,1.06575 -3.41694,0.4475z" fill="#a4e1ff" stroke="none" stroke-width="0.5"/><path d="M240.60606,194.50992c0.15494,-1.22973 2.65013,-1.15337 2.65013,-1.15337l2.03843,0.06794c3.87268,0.03419 5.65987,-1.26669 7.49367,-2.84675c0,0 1.25446,-1.06575 3.41694,-0.4475c2.16248,0.61825 0.90802,1.684 0.90802,1.684c-1.76357,1.4812 -4.25,3.28395 -7.6771,3.94755c-1.23634,0.2394 -2.65125,0.08371 -3.97687,0.12556l-2.51297,-0.07134c0,0 -2.49519,-0.07636 -2.34026,-1.30608z" fill="#a4e1ff" stroke="none" stroke-width="0.5"/><path d="M267.49428,178.3212l0.06913,-0.13205c-1.48446,2.5197 -4.07869,4.86862 -6.7386,7.13353c0,0 -1.25446,1.06575 -3.41694,0.4475c-2.16248,-0.61825 -0.90802,-1.684 -0.90802,-1.684c2.27656,-1.92936 4.5552,-3.9426 5.94833,-6.07572c1.40583,-0.2929 2.8321,-0.54651 4.33499,-0.54651c0.35511,0 0.70322,-0.0024 1.04543,-0.00802c0.14573,0.45744 -0.33431,0.86527 -0.33431,0.86527z" fill="#a4e1ff" stroke="none" stroke-width="0.5"/><path d="M266.58626,176.6372c0.34541,0.09875 0.60365,0.20892 0.79374,0.32435c-0.1967,0.00165 -0.39557,0.0024 -0.59683,0.0024c-1.36134,0 -2.65377,0.19376 -3.92312,0.43876l0.30927,-0.31801c0,0 1.25446,-1.06575 3.41694,-0.4475z" fill="#a4e1ff" stroke="none" stroke-width="0.5"/></g></g></svg>