<svg version="1.1" xmlns="http://www.w3.org/2000/svg" xmlns:xlink="http://www.w3.org/1999/xlink" width="121.58355" height="36.50758" viewBox="0,0,121.58355,36.50758"><g transform="translate(-179.55088,-149.96593)"><g data-paper-data="{&quot;isPaintingLayer&quot;:true}" fill-rule="nonzero" stroke-linecap="butt" stroke-linejoin="miter" stroke-miterlimit="10" stroke-dasharray="" stroke-dashoffset="0" style="mix-blend-mode: normal"><path d="M182.05088,175.77831c1.47717,-4.49831 5.35421,-8.88681 11.74543,-12.7285c19.93517,-11.98278 56.78191,-14.10788 82.29951,-4.74655c17.18626,6.30491 24.85026,16.21217 21.93235,25.67025" fill="none" stroke="#00abff" stroke-width="5"/><path d="M232.2857,177.05133c3.49368,-2.10001 13.38602,-1.84338 16.6764,-5.21323c1.89872,-1.94458 -2.56591,-7.43528 -1.00385,-9.26239c3.66407,-4.28579 6.1312,-7.70451 6.1312,-7.70451c0,0 16.24817,2.31498 21.7123,4.31954c5.68725,2.08641 11.76864,7.9632 11.76864,7.9632c0,0 -8.65435,2.54701 -18.46977,5.93048c-2.69535,0.92911 -3.72885,3.9809 -6.44414,5.00074c-4.59641,1.72638 -9.96309,2.39706 -13.91616,3.52524c-2.30299,-0.45022 -4.56977,-1.112 -6.8436,-1.70431c-3.37129,-0.87819 -6.72682,-1.56647 -10.06213,-2.59462c0.15316,-0.08477 0.30358,-0.17145 0.45112,-0.26013z" fill="#71d0ff" stroke="#00abff" stroke-width="5"/><path d="M241.9324,157.69986c-0.70854,-1.12584 1.68895,-1.45856 1.68895,-1.45856l3.40281,-0.43614c5.91622,0.50555 9.96129,1.5916 15.26102,2.83986c0,0 2.23366,0.52727 1.11082,1.57617c-1.12284,1.0489 -3.35649,0.52163 -3.35649,0.52163c-4.42425,-1.04654 -7.94701,-2.05822 -12.79589,-2.59199l-2.20518,0.34214c0,0 -2.39749,0.33272 -3.10603,-0.79311z" fill="#a4e1ff" stroke="none" stroke-width="0.5"/><path d="M236.04485,159.20495c0.1878,-1.17065 2.68073,-1.08247 2.68073,-1.08247l1.39312,0.05207c5.67474,0.40726 10.78262,1.82465 15.71814,3.15449c0,0 2.16794,0.58464 0.92293,1.60268c-1.24501,1.01804 -3.41295,0.4334 -3.41295,0.4334c-4.28771,-1.15734 -8.97863,-2.55185 -13.94586,-2.86694l-1.05097,-0.03439c0,0 -2.49294,-0.08819 -2.30514,-1.25884z" fill="#a4e1ff" stroke="none" stroke-width="0.5"/><path d="M245.1891,163.75866c1.53909,-0.92513 3.50917,-0.20239 3.50917,-0.20239l2.14278,0.7861c2.85849,1.04866 5.58425,2.07767 8.25231,3.23511c0,0 1.83546,0.79707 0.13808,1.65898c-1.69738,0.86191 -3.53284,0.06484 -3.53284,0.06484c-2.56464,-1.11494 -5.18502,-2.09956 -7.93573,-3.10868l-2.14278,-0.7861c0,0 -1.97008,-0.72274 -0.43099,-1.64787z" fill="#a4e1ff" stroke="none" stroke-width="0.5"/><path d="M274.46485,166.44072c1.97095,-0.72221 3.50892,0.20332 3.50892,0.20332l1.72428,1.03765c3.29458,2.01814 4.20474,4.48406 7.70979,6.46517c0,0 1.58929,0.90621 -0.34052,1.65253c-1.92981,0.74631 -3.5191,-0.1599 -3.5191,-0.1599c-3.50652,-2.01447 -4.4439,-4.54428 -7.79206,-6.51337l-1.72428,-1.03765c0,0 -1.53797,-0.92554 0.43298,-1.64775z" fill="#a4e1ff" stroke="none" stroke-width="0.5"/><path d="M272.13156,175.11068c-0.48037,-0.24352 -1.32044,-0.82692 -0.15771,-1.52583c1.53909,-0.92513 3.50917,-0.20239 3.50917,-0.20239l1.04249,0.57873c0.75818,0.87579 1.71063,1.71454 2.72634,2.5308c0,0 1.25757,1.01463 -0.90311,1.60517c-2.16067,0.59054 -3.41825,-0.42409 -3.41825,-0.42409c-1.02527,-0.8302 -1.98965,-1.68103 -2.79894,-2.56239z" fill="#a4e1ff" stroke="none" stroke-width="0.5"/><path d="M268.04589,168.09298c-1.53909,0.92513 -3.50917,0.20239 -3.50917,0.20239l-1.31034,-0.677c-0.45464,-0.58747 -1.32497,-1.13191 -2.40606,-1.49657c0,0 -1.97008,-0.72274 -0.43099,-1.64787c1.53909,-0.92513 3.50917,-0.20239 3.50917,-0.20239c1.68907,0.65211 3.07729,1.51711 3.95536,2.45751l-0.23895,-0.28395c0,0 1.97008,0.72274 0.43099,1.64787z" fill="#a4e1ff" stroke="none" stroke-width="0.5"/><path d="M269.2467,181.61351c-2.45039,-0.23271 -1.95484,-1.38339 -1.95484,-1.38339l0.41602,-0.93931c0.59964,-1.79693 -1.76998,-2.79818 -4.69436,-3.85759c0,0 -1.97008,-0.72274 -0.43099,-1.64787c1.53909,-0.92513 3.50917,-0.20239 3.50917,-0.20239c2.73529,1.01382 6.01778,2.40589 6.88171,4.0867c0.31167,0.60636 -0.19523,1.24417 -0.29285,1.86626l-0.48791,1.1596c0,0 -0.49555,1.15068 -2.94594,0.91797z" fill="#a4e1ff" stroke="none" stroke-width="0.5"/><path d="M236.88598,167.19399c1.53909,-0.92513 3.50917,-0.20239 3.50917,-0.20239l-0.25592,-0.04941c4.86085,1.01965 9.22631,2.53321 13.41391,4.06634c0,0 1.97008,0.72274 0.43099,1.64787c-1.53909,0.92513 -3.50917,0.20239 -3.50917,0.20239c-3.84528,-1.41376 -7.88628,-2.8414 -12.36638,-3.77101l-0.79161,-0.24593c0,0 -1.97008,-0.72274 -0.43099,-1.64787z" fill="#a4e1ff" stroke="none" stroke-width="0.5"/></g></g></svg>