<svg version="1.1" xmlns="http://www.w3.org/2000/svg" xmlns:xlink="http://www.w3.org/1999/xlink" width="62.59852" height="92.70377" viewBox="0,0,62.59852,92.70377"><g transform="translate(-203.55385,-141.82248)"><g data-paper-data="{&quot;isPaintingLayer&quot;:true}" fill="#b1b1b1" fill-rule="nonzero" stroke="#000000" stroke-width="1.5" stroke-linecap="butt" stroke-linejoin="miter" stroke-miterlimit="10" stroke-dasharray="" stroke-dashoffset="0" style="mix-blend-mode: normal"><path d="M240.79112,172.10444l-13.87203,31.90351l-13.78636,-5.98984l13.87205,-31.90351z" data-paper-data="{&quot;index&quot;:null}"/><path d="M223.13576,233.64684l-7.11425,-36.57392l18.14947,-3.5304l7.11425,36.57392z"/><path d="M248.94608,233.32796l-16.07571,-32.90617l16.20649,-8.11784l16.07566,32.90619z"/><path d="M229.66327,205.40703l-14.62328,-32.88942l25.48672,-11.04544l14.62329,32.88944c0,0 -6.59298,2.85726 -10.37567,4.49662c-4.56497,1.97836 -15.11106,6.54882 -15.11106,6.54882z"/><path d="M237.10539,158.41281c-0.22298,8.50763 -7.74548,15.21199 -16.80198,14.97461c-9.05651,-0.23737 -16.21746,-7.32658 -15.99449,-15.83422c0.22298,-8.50763 7.74548,-15.21197 16.802,-14.97461c9.05651,0.23737 16.21748,7.32657 15.99449,15.83422z" data-paper-data="{&quot;index&quot;:null}"/><path d="M261.96375,172.08704l-16.95649,30.3767l-13.12288,-7.33019l16.95651,-30.37669z" data-paper-data="{&quot;index&quot;:null}"/></g></g></svg>