<svg version="1.1" xmlns="http://www.w3.org/2000/svg" xmlns:xlink="http://www.w3.org/1999/xlink" width="74.57086" height="89.78894" viewBox="0,0,74.57086,89.78894"><g transform="translate(-202.17901,-128.19494)"><g data-paper-data="{&quot;isPaintingLayer&quot;:true}" fill="#b1b1b1" fill-rule="nonzero" stroke="#000000" stroke-width="1.5" stroke-linecap="butt" stroke-linejoin="miter" stroke-miterlimit="10" stroke-dasharray="" stroke-dashoffset="0" style="mix-blend-mode: normal"><path d="M236.81775,187.93l13.92144,-31.88198l13.77366,6.019l-13.92145,31.88196z" data-paper-data="{&quot;index&quot;:null}"/><path d="M264.77798,216.93412l-29.44554,-22.00973l10.92213,-14.61207l29.44554,22.00973z"/><path d="M221.79062,188.61119l7.49058,-35.22915l28.10265,5.97531l-7.49059,35.22916c0,0 -7.26969,-1.54572 -11.44061,-2.43256c-5.03351,-1.07025 -16.66203,-3.54275 -16.66203,-3.54275z"/><path d="M262.61414,147.81393c-1.76999,8.32445 -10.38851,13.54533 -19.25002,11.66115c-8.86151,-1.88418 -14.61033,-10.1599 -12.84035,-18.48435c1.76999,-8.32445 10.3885,-13.54532 19.25002,-11.66115c8.86151,1.88418 14.61034,10.15989 12.84035,18.48435z" data-paper-data="{&quot;index&quot;:null}"/><path d="M203.23092,179.12433l21.21747,-27.56965l11.91473,9.16414l-21.21748,27.56964z" data-paper-data="{&quot;index&quot;:null}"/><path d="M213.5454,202.10479l27.64788,-24.97716l12.39469,13.72001l-27.64788,24.97716z"/></g></g></svg>