<svg version="1.1" xmlns="http://www.w3.org/2000/svg" xmlns:xlink="http://www.w3.org/1999/xlink" width="64.55872" height="101.39964" viewBox="0,0,64.55872,101.39964"><g transform="translate(-207.74395,-129.30651)"><g data-paper-data="{&quot;isPaintingLayer&quot;:true}" fill="#b1b1b1" fill-rule="nonzero" stroke="#000000" stroke-width="1.5" stroke-linecap="butt" stroke-linejoin="miter" stroke-miterlimit="10" stroke-dasharray="" stroke-dashoffset="0" style="mix-blend-mode: normal"><path d="M243.2892,181.50128l-34.7721,-1.08067l0.4712,-15.02398l34.77209,1.08069z" data-paper-data="{&quot;index&quot;:null}"/><path d="M235.39737,228.06616l0.62559,-36.757l18.24031,0.31043l-0.62559,36.757z"/><path d="M226.48858,229.62886l0.63405,-37.25402l18.48695,0.31464l-0.63405,37.25402z"/><path d="M226.8208,195.92979l0.61289,-36.01147l28.72672,0.48891l-0.6129,36.01148c0,0 -7.43112,-0.12646 -11.69467,-0.19904c-5.14529,-0.08757 -17.03204,-0.28987 -17.03204,-0.28987z"/><path d="M258.80016,145.7457c-0.14482,8.5093 -7.60542,15.2825 -16.66372,15.12832c-9.0583,-0.15417 -16.28409,-7.17731 -16.13927,-15.68662c0.14482,-8.5093 7.60542,-15.28249 16.66373,-15.12831c9.0583,0.15417 16.28409,7.1773 16.13927,15.68662z" data-paper-data="{&quot;index&quot;:null}"/><path d="M271.4829,152.16448l-3.4026,34.6221l-14.95973,-1.46594l3.4026,-34.62209z" data-paper-data="{&quot;index&quot;:null}"/></g></g></svg>