<svg version="1.1" xmlns="http://www.w3.org/2000/svg" xmlns:xlink="http://www.w3.org/1999/xlink" width="57.17909" height="99.93609" viewBox="0,0,57.17909,99.93609"><g transform="translate(-211.722,-132.65927)"><g data-paper-data="{&quot;isPaintingLayer&quot;:true}" fill="#b1b1b1" fill-rule="nonzero" stroke="#000000" stroke-width="1.5" stroke-linecap="butt" stroke-linejoin="miter" stroke-miterlimit="10" stroke-dasharray="" stroke-dashoffset="0" style="mix-blend-mode: normal"><path d="M253.16692,154.87229l7.91744,33.87596l-14.63595,3.42508l-7.91744,-33.87598z" data-paper-data="{&quot;index&quot;:null}"/><path d="M249.75103,227.48242l-5.31172,-36.87885l18.3008,-2.63589l5.31172,36.87885z"/><path d="M212.76098,221.51538l20.23412,-30.69281l15.23102,10.041l-20.23412,30.69281z"/><path d="M237.48911,197.85362c-4.24941,-0.35432 -11.65592,-0.97188 -11.65592,-0.97188l2.99274,-35.89215l28.63152,2.38733l-2.99275,35.89214c0,0 -11.84736,-0.98784 -16.9756,-1.41544z" data-paper-data="{&quot;index&quot;:null}"/><path d="M262.53025,150.9812c-1.11172,8.43762 -9.29428,14.31829 -18.27626,13.13484c-8.98198,-1.18344 -15.36208,-8.98286 -14.25036,-17.42048c1.11172,-8.43762 9.29428,-14.31828 18.27626,-13.13483c8.98198,1.18344 15.36208,8.98285 14.25036,17.42048z" data-paper-data="{&quot;index&quot;:null}"/><path d="M231.85768,161.14688l28.4181,20.06686l-8.67384,12.27626l-28.41808,-20.06686z" data-paper-data="{&quot;index&quot;:null}"/></g></g></svg>