<svg version="1.1" xmlns="http://www.w3.org/2000/svg" xmlns:xlink="http://www.w3.org/1999/xlink" width="57.27606" height="93.49395" viewBox="0,0,57.27606,93.49395"><defs><radialGradient cx="277.65017" cy="182.13161" r="26.13148" gradientUnits="userSpaceOnUse" id="color-1"><stop offset="0" stop-color="#ffffff"/><stop offset="1" stop-color="#ffffff" stop-opacity="0"/></radialGradient><radialGradient cx="279.28307" cy="189.861" r="26.13148" gradientUnits="userSpaceOnUse" id="color-2"><stop offset="0" stop-color="#ffffff"/><stop offset="1" stop-color="#ffffff" stop-opacity="0"/></radialGradient><radialGradient cx="269.59006" cy="203.31425" r="26.13148" gradientUnits="userSpaceOnUse" id="color-3"><stop offset="0" stop-color="#ffffff"/><stop offset="1" stop-color="#ffffff" stop-opacity="0"/></radialGradient><radialGradient cx="256.10724" cy="214.17562" r="24.66342" gradientUnits="userSpaceOnUse" id="color-4"><stop offset="0" stop-color="#ffffff"/><stop offset="1" stop-color="#ffffff" stop-opacity="0"/></radialGradient><radialGradient cx="277.80358" cy="177.86842" r="26.13148" gradientUnits="userSpaceOnUse" id="color-5"><stop offset="0" stop-color="#ffffff"/><stop offset="1" stop-color="#ffffff" stop-opacity="0"/></radialGradient><radialGradient cx="279.43646" cy="170.13902" r="26.13147" gradientUnits="userSpaceOnUse" id="color-6"><stop offset="0" stop-color="#ffffff"/><stop offset="1" stop-color="#ffffff" stop-opacity="0"/></radialGradient><radialGradient cx="269.74346" cy="156.68578" r="26.13147" gradientUnits="userSpaceOnUse" id="color-7"><stop offset="0" stop-color="#ffffff"/><stop offset="1" stop-color="#ffffff" stop-opacity="0"/></radialGradient><radialGradient cx="256.26065" cy="145.8244" r="24.66342" gradientUnits="userSpaceOnUse" id="color-8"><stop offset="0" stop-color="#ffffff"/><stop offset="1" stop-color="#ffffff" stop-opacity="0"/></radialGradient></defs><g transform="translate(-234.49211,-133.25304)"><g data-paper-data="{&quot;isPaintingLayer&quot;:true}" fill-rule="nonzero" stroke="none" stroke-width="0" stroke-linecap="butt" stroke-linejoin="miter" stroke-miterlimit="10" stroke-dasharray="" stroke-dashoffset="0" style="mix-blend-mode: normal"><path d="M289.98188,179.78833c0,6.06209 -7.88727,10.97639 -17.61673,10.97639c-9.72944,0 -17.61673,-4.9143 -17.61673,-10.97639c0,-6.06209 7.88727,-10.97639 17.61673,-10.97639c9.72944,0 17.61673,4.9143 17.61673,10.97639z" fill="url(#color-1)"/><path d="M273.99805,203.18066c-9.72946,0 -17.61673,-4.91429 -17.61673,-10.97638c0,-6.06209 7.88727,-10.97639 17.61673,-10.97639c9.72946,0 17.61673,4.9143 17.61673,10.97639c0,6.06209 -7.88727,10.97638 -17.61673,10.97638z" data-paper-data="{&quot;index&quot;:null}" fill="url(#color-2)"/><path d="M264.30503,216.63391c-9.72946,0 -17.61671,-4.91429 -17.61671,-10.97638c0,-6.06209 7.88727,-10.97639 17.61671,-10.97639c9.72946,0 17.61673,4.9143 17.61673,10.97639c0,6.06209 -7.88729,10.97638 -17.61673,10.97638z" data-paper-data="{&quot;index&quot;:null}" fill="url(#color-3)"/><path d="M251.11913,226.74699c-9.18285,0 -16.62702,-4.63821 -16.62702,-10.35973c0,-5.72152 7.44417,-10.35974 16.62702,-10.35974c9.18285,0 16.62702,4.63822 16.62702,10.35974c0,5.72152 -7.44417,10.35973 -16.62702,10.35973z" data-paper-data="{&quot;index&quot;:null}" fill="url(#color-4)"/><path d="M272.51855,191.18808c-9.72946,0 -17.61673,-4.91429 -17.61673,-10.97638c0,-6.06209 7.88727,-10.97639 17.61673,-10.97639c9.72944,0 17.61673,4.9143 17.61673,10.97639c0,6.06209 -7.88729,10.97638 -17.61673,10.97638z" data-paper-data="{&quot;index&quot;:null}" fill="url(#color-5)"/><path d="M291.76817,167.79575c0,6.06209 -7.88729,10.97639 -17.61673,10.97639c-9.72946,0 -17.61673,-4.9143 -17.61673,-10.97639c0,-6.06209 7.88727,-10.97638 17.61673,-10.97638c9.72944,0 17.61673,4.91429 17.61673,10.97638z" data-paper-data="{&quot;index&quot;:null}" fill="url(#color-6)"/><path d="M282.07517,154.3425c0,6.06209 -7.88727,10.97639 -17.61673,10.97639c-9.72946,0 -17.61671,-4.9143 -17.61671,-10.97639c0,-6.06209 7.88727,-10.97638 17.61671,-10.97638c9.72946,0 17.61673,4.91429 17.61673,10.97638z" data-paper-data="{&quot;index&quot;:null}" fill="url(#color-7)"/><path d="M267.89958,143.61277c0,5.72153 -7.44417,10.35974 -16.62702,10.35974c-9.18285,0 -16.62702,-4.63822 -16.62702,-10.35974c0,-5.72153 7.44417,-10.35973 16.62702,-10.35973c9.18285,0 16.62702,4.63821 16.62702,10.35974z" data-paper-data="{&quot;index&quot;:null}" fill="url(#color-8)"/></g></g></svg>