<svg version="1.1" xmlns="http://www.w3.org/2000/svg" xmlns:xlink="http://www.w3.org/1999/xlink" width="63.87105" height="98.06487" viewBox="0,0,63.87105,98.06487"><g transform="translate(-203.80092,-132.66216)"><g data-paper-data="{&quot;isPaintingLayer&quot;:true}" fill="#b1b1b1" fill-rule="nonzero" stroke="#000000" stroke-width="1.5" stroke-linecap="butt" stroke-linejoin="miter" stroke-miterlimit="10" stroke-dasharray="" stroke-dashoffset="0" style="mix-blend-mode: normal"><path d="M232.74649,197.1274l-11.29126,-32.90554l14.21901,-4.87462l11.29124,32.90554z" data-paper-data="{&quot;index&quot;:null}"/><path d="M204.85968,215.58402l24.39364,-27.50306l13.64814,12.10511l-24.39364,27.50306z"/><path d="M218.49068,192.30676l10.82062,-34.35282l27.40359,8.63172l-10.82062,34.35283c0,0 -7.08885,-2.23288 -11.15602,-3.51398c-4.90831,-1.54604 -16.24756,-5.11774 -16.24756,-5.11774z"/><path d="M265.56854,151.43302c-1.34024,8.40435 -9.67933,14.06085 -18.6259,12.63415c-8.94657,-1.4267 -15.11271,-9.39635 -13.77248,-17.80069c1.34024,-8.40435 9.67933,-14.06084 18.6259,-12.63414c8.94657,1.4267 15.11271,9.39634 13.77248,17.80069z" data-paper-data="{&quot;index&quot;:null}"/><path d="M233.80806,224.73475l10.20775,-35.83386l17.78222,5.0655l-10.20775,35.83386z"/><path d="M265.35392,193.48791l-34.61492,-3.47471l1.49709,-14.95663l34.61493,3.47473z" data-paper-data="{&quot;index&quot;:null}"/></g></g></svg>