<svg version="1.1" xmlns="http://www.w3.org/2000/svg" xmlns:xlink="http://www.w3.org/1999/xlink" width="62.26551" height="98.12314" viewBox="0,0,62.26551,98.12314"><g transform="translate(-207.50939,-133.55842)"><g data-paper-data="{&quot;isPaintingLayer&quot;:true}" fill="#b1b1b1" fill-rule="nonzero" stroke="#000000" stroke-width="1.5" stroke-linecap="butt" stroke-linejoin="miter" stroke-miterlimit="10" stroke-dasharray="" stroke-dashoffset="0" style="mix-blend-mode: normal"><path d="M228.40405,161.96802l-5.17671,34.40156l-14.86467,-2.23251l5.17672,-34.40157z" data-paper-data="{&quot;index&quot;:null}"/><path d="M250.20306,230.67386l-16.58592,-32.80816l16.28075,-8.23061l16.58592,32.80816z"/><path d="M215.91822,226.90438l1.33897,-37.23535l18.4777,0.66445l-1.33897,37.23535z"/><path d="M230.12191,199.45233l-6.28494,-35.46409l28.29006,-5.01356l6.28495,35.46409c0,0 -7.31818,1.29693 -11.51691,2.04103c-5.06708,0.89799 -16.77314,2.97254 -16.77314,2.97254z"/><path d="M254.26467,151.62867c-0.98329,8.45355 -9.07548,14.45796 -18.07442,13.41123c-8.99894,-1.04673 -15.4969,-8.74822 -14.51361,-17.20177c0.98329,-8.45355 9.07548,-14.45795 18.07442,-13.41122c8.99894,1.04673 15.4969,8.74821 14.51361,17.20177z" data-paper-data="{&quot;index&quot;:null}"/><path d="M268.74513,185.65707l-29.76409,18.01015l-7.77807,-12.8625l29.76409,-18.01013z" data-paper-data="{&quot;index&quot;:null}"/></g></g></svg>