<svg version="1.1" xmlns="http://www.w3.org/2000/svg" xmlns:xlink="http://www.w3.org/1999/xlink" width="88.29753" height="114.01015" viewBox="0,0,88.29753,114.01015"><g transform="translate(-192.55511,-116.63753)"><g data-paper-data="{&quot;isPaintingLayer&quot;:true}" fill-rule="nonzero" stroke-linejoin="miter" stroke-miterlimit="10" stroke-dasharray="" stroke-dashoffset="0" style="mix-blend-mode: normal"><path d="M251.47669,195.19678l0.07968,-34.7888l15.03132,0.03869l-0.07969,34.78879z" data-paper-data="{&quot;index&quot;:null}" fill="#b1b1b1" stroke="#000000" stroke-width="1.5" stroke-linecap="butt"/><path d="M237.01544,229.13543v-36.76232h18.24296v36.76232z" data-paper-data="{&quot;index&quot;:null}" fill="#9b6a16" stroke="#000000" stroke-width="1.5" stroke-linecap="butt"/><path d="M225.15637,229.47307l0.82264,-37.25033l18.48513,0.40823l-0.82264,37.25033z" data-paper-data="{&quot;index&quot;:null}" fill="#9b6a16" stroke="#000000" stroke-width="1.5" stroke-linecap="butt"/><g data-paper-data="{&quot;index&quot;:null}" stroke="#000000" stroke-linecap="butt"><path d="M226.49192,196.21544v-36.01669h28.73087v36.0167c0,0 -7.4322,0 -11.69636,0c-5.14604,0 -17.03451,0 -17.03451,0z" fill="#9b6a16" stroke-width="1.5"/><path d="M239.35011,167.2337c0.48834,1.36736 0.60902,2.67794 0.04857,4.02188c-0.3163,0.75847 -1.82983,1.05888 -1.62436,1.85456c0.749,2.9005 -1.86617,4.33063 -4.568,3.124c-1.23025,-0.54942 -0.69658,-3.13706 -0.90576,-3.30861c-1.42217,-1.16637 -3.12804,-0.99609 -3.50158,-3.38938c-0.1906,-1.22117 1.48294,-4.3588 3.0761,-3.9243c0.20027,-0.0517 0.41027,-0.0792 0.6267,-0.0792c0.51362,0 0.99107,0.15489 1.38817,0.42051c2.24548,0.25871 4.63334,-1.03457 5.46017,1.28054z" fill="#b1b1b1" stroke-width="1"/><path d="M252.33935,190.77985c-0.43697,0.5098 -6.56041,3.37659 -6.70356,3.37659c-3.76118,0 -6.44862,-5.59562 -3.70638,-8.22359c2.11475,-2.02664 4.96812,-0.7764 7.32167,-1.24711c0.17418,-0.03842 0.35518,-0.05867 0.54091,-0.05867c1.31001,0 2.38468,1.00759 2.49131,2.29006c0.66961,1.32159 0.87843,2.90329 0.05605,3.86273z" fill="#b1b1b1" stroke-width="1"/></g><g data-paper-data="{&quot;index&quot;:null}"><path d="M234.06384,157.2774l-14.58393,-3.45805l10.07343,-1.5035l-15.48602,-3.15735l11.27623,-1.20279l-16.08742,-3.9091h9.77274l0.3007,-1.95454l-7.66784,-2.10489l9.92308,-0.9021l1.2028,-3.00699l1.95455,-3.00699l3.90909,-3.45804l6.01399,-2.85665l5.26224,-1.20279l2.7063,-2.85665l3.00699,-1.95455l6.91609,-2.10489h6.61539l-2.85665,2.10489l-2.10489,2.25524l-1.35315,3.15735l2.70629,-0.9021l4.96154,-0.6014h5.11189l5.86364,1.20279l3.007,2.1049h-3.6084l-5.41259,1.35315l-4.20979,1.95455l-2.85665,1.8042l-3.30769,3.30769l2.85665,-1.2028l2.4056,-0.6014l6.61539,0.6014l4.81119,2.85664l-1.8042,0.45105l-4.96154,1.65385l-3.007,1.50349l-2.7063,2.4056l-2.4056,3.45804l1.95454,-0.9021h2.85665l3.45805,2.1049h-1.8042l-3.45804,1.05245l-3.75874,1.05245l-2.85665,1.65384z" fill="#000000" stroke="#000000" stroke-width="4" stroke-linecap="round"/><path d="M257.61266,145.49441c0,8.51054 -7.34426,15.4097 -16.40387,15.4097c-9.05961,0 -16.40387,-6.89916 -16.40387,-15.4097c0,-8.51054 7.34426,-15.40969 16.40387,-15.40969c9.05961,0 16.40387,6.89915 16.40387,15.4097z" data-paper-data="{&quot;index&quot;:null}" fill="#b1b1b1" stroke="#000000" stroke-width="1.5" stroke-linecap="butt"/><path d="M238.3632,136.21199c0.05679,-0.02839 0.11254,-0.05521 0.16729,-0.08045c0.2902,-0.16535 0.62014,-0.26899 0.97192,-0.29306c0.11878,-0.01132 0.23235,-0.01073 0.34165,0.00183c1.17715,0.09335 2.10331,1.07818 2.10331,2.27933c0.31549,0.63107 -0.04913,1.10928 -0.55968,1.4988c-0.283,0.32579 -0.65667,0.57071 -1.08172,0.69548c-0.17921,0.11613 -0.32513,0.22546 -0.40619,0.33179c-0.08749,0.11477 -0.18342,0.24445 -0.28702,0.38644c1.46954,1.36697 2.37051,2.81397 1.67556,3.8564c-0.42607,0.63912 -1.30787,0.8799 -2.06108,1.03054c-0.14677,0.02936 -1.16119,-0.53492 -2.40451,-1.2749c-1.49287,1.66377 -3.20236,2.98144 -4.64766,2.25879c-1.5225,-0.76125 -1.43138,-1.92591 -1.02258,-3.06776c0.07254,-0.20263 0.64309,-0.90978 1.43164,-1.81336c-0.45481,-0.29083 -0.78545,-0.50674 -0.91481,-0.59729c-0.12106,-0.05739 -0.23627,-0.12509 -0.34451,-0.20199c-0.58325,-0.41436 -0.96378,-1.0954 -0.96378,-1.86533c0,-1.12294 0.80948,-2.05682 1.87675,-2.24994c0.08862,-0.02864 0.18234,-0.04621 0.28199,-0.05087c0.09453,-0.00442 0.20421,0.00347 0.32717,0.02282c0.27274,0.02355 0.53178,0.09499 0.76868,0.20585c0.65632,0.22847 1.47208,0.61491 2.32824,1.10318c1.07948,-1.10363 1.98098,-1.94934 2.226,-2.01059z" fill="#000000" stroke="none" stroke-width="0.5" stroke-linecap="butt"/><path d="M249.17349,137.06575c0.19928,0.04982 0.93249,0.73765 1.81044,1.63525c0.69633,-0.39712 1.3598,-0.71141 1.8936,-0.89723c0.19268,-0.09017 0.40336,-0.14826 0.62518,-0.16742c0.10001,-0.01574 0.18921,-0.02216 0.2661,-0.01856c0.08105,0.00379 0.15727,0.01808 0.22935,0.04137c0.86803,0.15707 1.52639,0.91661 1.52639,1.82991c0,0.62619 -0.30949,1.18011 -0.78386,1.51711c-0.08802,0.06254 -0.18174,0.1176 -0.2802,0.16428c-0.10521,0.07364 -0.37411,0.24925 -0.74402,0.48578c0.64134,0.73489 1.10538,1.31003 1.16438,1.47484c0.33247,0.92869 0.40659,1.87591 -0.83168,2.49505c-1.17549,0.58774 -2.56583,-0.48394 -3.78001,-1.83712c-1.0112,0.60183 -1.83625,1.06078 -1.95562,1.0369c-0.61259,-0.12251 -1.32978,-0.31835 -1.67631,-0.83816c-0.56521,-0.84783 0.16755,-2.02469 1.36275,-3.13647c-0.08426,-0.11549 -0.16228,-0.22095 -0.23344,-0.31429c-0.06593,-0.08648 -0.1846,-0.17541 -0.33036,-0.26986c-0.34571,-0.10148 -0.64961,-0.30068 -0.87978,-0.56564c-0.41524,-0.3168 -0.71179,-0.70575 -0.4552,-1.219c0,-0.97691 0.75326,-1.7779 1.71066,-1.85382c0.08889,-0.01021 0.18125,-0.0107 0.27786,-0.00149c0.28611,0.01958 0.55446,0.10387 0.79049,0.23835c0.04453,0.02052 0.08987,0.04234 0.13606,0.06543z" data-paper-data="{&quot;index&quot;:null}" fill="#000000" stroke="none" stroke-width="0.5" stroke-linecap="butt"/><path d="M242.92387,156.33493c-2.47363,0.19028 -6.26479,0.32201 -8.25006,-1.56909c-0.45842,-0.43667 -0.48096,-1.9938 -0.40368,-2.60034c0.47491,-3.72754 4.69822,-3.25174 7.47277,-3.25174l0.02855,-0.01427c0.34741,-0.18291 0.74312,-0.28643 1.16302,-0.28643c0.09384,0 0.18647,0.00517 0.27763,0.01524c7.39567,-0.92157 6.21945,7.20604 -0.28822,7.70663z" fill="#000000" stroke="none" stroke-width="0.5" stroke-linecap="butt"/><path d="M233.16173,127.50814l-4.81119,10.67483c0,0 -2.25909,2.62367 -2.4056,4.05945c-0.14651,1.43578 1.65385,3.30769 1.65385,3.30769c0,0 -1.91864,-0.04324 -2.6914,-0.37134c-0.56171,-0.2385 0.0493,-0.69841 -0.31948,-1.05634c-0.82474,-0.80049 -2.101,-3.53386 -2.101,-3.53386l3.15734,-3.15734" fill="none" stroke="#000000" stroke-width="4" stroke-linecap="round"/><path d="M229.55335,132.01864v3.45804l3.00699,5.11189l0.15035,-4.36014l1.5035,-3.45804l4.96154,-5.41259l15.33567,-1.35315l2.7063,3.75874l-1.8042,5.71329l-1.8042,2.4056v-3.00699l-1.8042,-3.90909l-6.61539,-2.7063l2.25525,5.11189l-2.25525,4.20979l-1.8042,-3.90909l-3.60839,-2.7063l-3.30769,-2.7063z" fill="#000000" stroke="#000000" stroke-width="4" stroke-linecap="round"/></g><g data-paper-data="{&quot;index&quot;:null}" stroke="#000000" stroke-width="1.5" stroke-linecap="butt"><path d="M211.28149,195.49718l-0.17477,-34.78844l15.03115,-0.07977l0.17475,34.78845z" data-paper-data="{&quot;index&quot;:null}" fill="#b1b1b1"/><path d="M211.2327,185.78745l-0.12599,-25.0787l15.03115,-0.07977l0.12205,24.29647z" data-paper-data="{&quot;index&quot;:null}" fill="#9b6a16"/><path d="M216.25346,178.77035c-0.19226,-1.36726 0.76026,-2.6315 2.12752,-2.82376c1.36726,-0.19226 2.6315,0.76026 2.82376,2.12752c0.19226,1.36726 -0.76026,2.6315 -2.12752,2.82376c-1.36726,0.19226 -2.6315,-0.76026 -2.82376,-2.12752z" fill="#b1b1b1"/><path d="M216.13982,164.25152c2.12846,-0.4016 4.59587,1.48168 4.71836,3.68809c0.1935,3.48555 -5.68538,2.61179 -6.11836,0.42191c-0.30604,-0.35212 -0.51715,-0.79386 -0.58696,-1.29028c-0.17096,-1.2158 0.56327,-2.35014 1.68939,-2.72172c0.09159,-0.0445 0.19038,-0.07779 0.29757,-0.09801z" fill="#b1b1b1"/></g></g></g></svg>