<svg version="1.1" xmlns="http://www.w3.org/2000/svg" xmlns:xlink="http://www.w3.org/1999/xlink" width="56.01556" height="100.67165" viewBox="0,0,56.01556,100.67165"><g transform="translate(-211.71816,-132.99948)"><g data-paper-data="{&quot;isPaintingLayer&quot;:true}" fill="#b1b1b1" fill-rule="nonzero" stroke="#000000" stroke-width="1.5" stroke-linecap="butt" stroke-linejoin="miter" stroke-miterlimit="10" stroke-dasharray="" stroke-dashoffset="0" style="mix-blend-mode: normal"><path d="M246.46753,199.41089l5.569,-34.34025l14.83684,2.41043l-5.56902,34.34024z" data-paper-data="{&quot;index&quot;:null}"/><path d="M238.37704,229.96849l5.68628,-36.3199l18.0234,2.82177l-5.68628,36.3199z"/><path d="M215.04637,225.96031l13.5802,-34.69643l17.21778,6.73905l-13.5802,34.69643z"/><path d="M226.49106,196.76867l4.88211,-35.68426l28.46569,3.8945l-4.88211,35.68427c0,0 -7.36361,-1.00745 -11.58841,-1.58546c-5.09854,-0.69755 -16.87728,-2.30905 -16.87728,-2.30905z"/><path d="M264.08303,151.40359c-1.15361,8.43199 -9.36527,14.27195 -18.34128,13.04391c-8.97599,-1.22804 -15.31728,-9.05905 -14.16366,-17.49104c1.15361,-8.43199 9.36527,-14.27194 18.34127,-13.0439c8.97599,1.22804 15.31728,9.05904 14.16366,17.49104z" data-paper-data="{&quot;index&quot;:null}"/><path d="M212.69009,193.82762l12.68556,-32.39358l13.99797,5.47712l-12.68556,32.39357z" data-paper-data="{&quot;index&quot;:null}"/></g></g></svg>