<svg version="1.1" xmlns="http://www.w3.org/2000/svg" xmlns:xlink="http://www.w3.org/1999/xlink" width="77.49467" height="102.28894" viewBox="0,0,77.49467,102.28894"><g transform="translate(-201.09858,-129.41017)"><g data-paper-data="{&quot;isPaintingLayer&quot;:true}" fill="#b1b1b1" fill-rule="nonzero" stroke="#000000" stroke-width="1.5" stroke-linecap="butt" stroke-linejoin="miter" stroke-miterlimit="10" stroke-dasharray="" stroke-dashoffset="0" style="mix-blend-mode: normal"><path d="M272.53731,188.37803l-32.73192,-11.78509l5.09604,-14.14117l32.73191,11.7851z" data-paper-data="{&quot;index&quot;:null}"/><path d="M239.96124,228.38397l-3.28629,-36.61514l18.16992,-1.63079l3.28629,36.61514z"/><path d="M231.26912,230.88507l-3.33072,-37.11024l18.41562,-1.65284l3.33072,37.11024z"/><path d="M228.01627,197.34172l-3.21964,-35.87249l28.61585,-2.56834l3.21964,35.8725c0,0 -7.40244,0.66439 -11.64953,1.04557c-5.12544,0.46001 -16.96632,1.52276 -16.96632,1.52276z"/><path d="M254.47832,144.04178c0.76078,8.47647 -5.93734,16.00453 -14.96068,16.81439c-9.02334,0.80986 -16.95494,-5.40515 -17.71571,-13.88161c-0.76078,-8.47647 5.93734,-16.00452 14.96068,-16.81438c9.02334,-0.80986 16.95494,5.40514 17.71571,13.88161z" data-paper-data="{&quot;index&quot;:null}"/><path d="M230.14581,196.44275l-27.99865,-20.64807l8.91806,-12.10001l27.99864,20.64808z" data-paper-data="{&quot;index&quot;:null}"/></g></g></svg>