<svg version="1.1" xmlns="http://www.w3.org/2000/svg" xmlns:xlink="http://www.w3.org/1999/xlink" width="52.05326" height="104.83426" viewBox="0,0,52.05326,104.83426"><g transform="translate(-212.83063,-116.78472)"><g data-paper-data="{&quot;isPaintingLayer&quot;:true}" fill="#b1b1b1" fill-rule="nonzero" stroke="#000000" stroke-width="1.5" stroke-linecap="butt" stroke-linejoin="miter" stroke-miterlimit="10" stroke-dasharray="" stroke-dashoffset="0" style="mix-blend-mode: normal"><path d="M245.88086,220.80501l-0.63078,-36.75691l18.24028,-0.31302l0.63078,36.75691z"/><path d="M213.97903,220.86116l-0.39058,-37.25737l18.48863,-0.19382l0.39058,37.25737z"/><g><path d="M224.14193,183.66544v-36.01669h28.73087v36.0167c0,0 -7.4322,0 -11.69636,0c-5.14604,0 -17.03451,0 -17.03451,0z"/><path d="M255.26267,132.94441c0,8.51054 -7.34426,15.4097 -16.40387,15.4097c-9.05961,0 -16.40387,-6.89916 -16.40387,-15.4097c0,-8.51054 7.34426,-15.40969 16.40387,-15.40969c9.05961,0 16.40387,6.89915 16.40387,15.4097z" data-paper-data="{&quot;index&quot;:null}"/><path d="M226.74039,172.32618l25.80648,-23.33008l10.07716,11.15317l-25.80648,23.33005z" data-paper-data="{&quot;index&quot;:null}"/><path d="M216.70827,157.21813l15.79963,-30.99417l13.39371,6.82281l-15.79964,30.99417z" data-paper-data="{&quot;index&quot;:null}"/></g></g></g></svg>