<svg version="1.1" xmlns="http://www.w3.org/2000/svg" xmlns:xlink="http://www.w3.org/1999/xlink" width="121.49776" height="36.24562" viewBox="0,0,121.49776,36.24562"><g transform="translate(-178.86558,-173.79116)"><g data-paper-data="{&quot;isPaintingLayer&quot;:true}" fill-rule="nonzero" stroke-linecap="butt" stroke-linejoin="miter" stroke-miterlimit="10" stroke-dasharray="" stroke-dashoffset="0" style="mix-blend-mode: normal"><path d="M297.86334,184.4751c-1.53793,4.40961 -5.38849,8.70558 -11.65964,12.47509c-19.93517,11.98278 -56.78191,14.10788 -82.29951,4.74655c-17.02601,-6.24613 -24.70651,-16.02773 -22.01122,-25.40557" fill="none" stroke="#00abff" stroke-width="5"/><path d="M189.22162,193.86245c0,0 1.23767,-3.25542 8.69773,-5.85637c6.63991,-2.315 9.94454,-4.41058 15.74375,-5.86172c5.20195,-1.30169 12.58419,-2.03349 17.54315,-4.50313c0.13225,0.04033 0.26448,0.08098 0.39669,0.12197c3.37,1.04473 6.76116,1.73936 10.16776,2.62675c1.98843,0.51797 3.97103,1.08713 5.97683,1.52451c-0.96218,0.31758 -1.81553,0.67513 -2.52139,1.09941c-4.50133,2.70569 -13.42268,3.95887 -17.37225,5.95997c-4.13481,2.09496 -3.19666,5.17143 -5.97461,8.52088c-3.27846,3.95293 0.8233,8.65046 0.8233,8.65046c0,0 -14.55081,-2.90755 -20.4568,-5.07421c-5.15063,-1.88955 -13.02414,-7.20853 -13.02414,-7.20853z" fill="#71d0ff" stroke="#00abff" stroke-width="5"/><path d="M218.34156,188.05562c2.41332,-0.30646 3.06593,0.82681 3.06593,0.82681l-0.103,0.29593c1.3371,0.71576 2.85702,1.38081 4.59313,1.87265c0,0 2.12799,0.61615 0.81588,1.61544c-1.31212,0.99928 -3.44011,0.38313 -3.44011,0.38313c-0.40341,-0.11882 -0.79847,-0.24418 -1.18532,-0.37529c0.02861,0.02999 0.04227,0.04762 0.04227,0.04762c1.0168,1.48783 2.78068,1.80639 5.37543,2.75829l0.75687,0.1196c0,0 2.28454,0.47678 1.26922,1.54958c-1.01532,1.07279 -3.29986,0.59601 -3.29986,0.59601l-1.80441,-0.41494c-3.42528,-1.25659 -5.37125,-1.8611 -6.99582,-3.80563c0,0 -0.8549,-1.1032 1.49438,-1.50465c0.45719,-0.07813 0.85778,-0.09927 1.20649,-0.08265c-0.90397,-0.37538 -1.75711,-0.77867 -2.56152,-1.19732l-0.99027,-1.24484c0,0 -0.65261,-1.13327 1.76071,-1.43972z" fill="#a4e1ff" stroke="none" stroke-width="0.5"/><path d="M235.64647,199.71317c0.30476,1.16522 -2.1766,1.30833 -2.1766,1.30833l-1.71898,0.09566c-6.31004,0.53311 -11.37466,-0.67811 -15.43964,-2.95141c0,0 -1.58929,-0.90621 0.34052,-1.65253c1.92981,-0.74631 3.5191,0.1599 3.5191,0.1599c2.66778,1.56025 6.32146,2.61265 10.59169,2.14242l2.0978,-0.12447c0,0 2.48136,-0.14311 2.78611,1.02211z" fill="#a4e1ff" stroke="none" stroke-width="0.5"/><path d="M213.38592,201.15073c-1.01532,1.07279 -3.29986,0.59601 -3.29986,0.59601l-1.80441,-0.41494c-3.60776,-1.33476 -5.34844,-2.60947 -7.55771,-4.51786c0,0 -1.188,-1.03295 1.01169,-1.59082c2.19969,-0.55788 3.3877,0.47508 3.3877,0.47508c1.88973,1.65515 3.13384,2.65661 6.23651,3.78336l0.75687,0.1196c0,0 2.28454,0.47678 1.26922,1.54958z" fill="#a4e1ff" stroke="none" stroke-width="0.5"/><path d="M204.53782,185.43386c0.861,0.31586 1.05174,0.67038 0.99363,0.96944c0.92682,0.46907 1.91582,0.91208 2.99062,1.30239c0,0 1.97008,0.72274 0.43099,1.64787c-0.16617,0.09988 -0.33735,0.18055 -0.51055,0.245c-0.08295,0.09024 -0.19157,0.17703 -0.32646,0.25811c-0.61427,0.36923 -1.60514,0.51896 -2.51813,0.42296c0.26883,0.10835 1.80129,0.78571 0.39216,1.63272c-1.53909,0.92513 -3.50917,0.20239 -3.50917,0.20239c-3.73871,-1.37708 -6.17782,-2.71036 -8.5268,-4.65043l-1.49188,-1.14529c0,0 -1.30423,-1.00156 0.8286,-1.61401c2.13284,-0.61245 3.43706,0.3891 3.43706,0.3891l1.53817,1.18157c1.6419,1.38457 3.27643,2.36631 5.58676,3.3264c-0.21501,-0.23281 -0.26482,-0.49398 -0.13854,-0.74195c-1.07119,-0.46564 -2.07585,-0.96675 -3.02963,-1.48417l0.34399,-1.73972c0,0 1.53909,-0.92513 3.50917,-0.20239z" fill="#a4e1ff" stroke="none" stroke-width="0.5"/><path d="M202.59814,179.30935c2.3734,-0.36885 3.15888,0.74568 3.15888,0.74568l0.40913,0.58247c0.12232,0.19466 1.36235,2.23769 1.66458,2.45509c1.36349,0.98079 3.39409,1.71701 5.0533,2.59156c0,0 1.66298,0.87657 -0.2037,1.65749c-1.86668,0.78092 -3.52966,-0.09566 -3.52966,-0.09566c-1.85967,-0.98029 -4.09592,-1.82615 -5.59368,-2.93471c-0.68718,-0.50862 -1.77335,-2.35389 -2.18582,-3.00833l-0.36095,-0.51022c0,0 -0.78547,-1.11452 1.58793,-1.48337z" fill="#a4e1ff" stroke="none" stroke-width="0.5"/><path d="M209.74742,191.58079c1.89556,-0.76542 3.52555,0.12471 3.52555,0.12471l1.20537,0.66029c0.57476,0.34588 1.14952,0.69177 1.72428,1.03765c0,0 1.53798,0.92554 -0.43297,1.64775c-1.97095,0.72221 -3.50892,-0.20332 -3.50892,-0.20332c-0.57476,-0.34588 -1.14952,-0.69177 -1.72428,-1.03765l-1.0546,-0.57388c0,0 -1.62998,-0.89014 0.26558,-1.65556z" fill="#a4e1ff" stroke="none" stroke-width="0.5"/><path d="M187.15203,187.89142c2.16067,-0.59054 3.41825,0.42409 3.41825,0.42409l1.07379,0.88875c1.16578,1.3697 2.50433,2.15542 4.99248,3.05305c0,0 1.97008,0.72274 0.43099,1.64787c-1.53909,0.92513 -3.50917,0.20239 -3.50917,0.20239c-3.13367,-1.16515 -5.001,-2.2785 -6.54177,-4.01399l-0.76768,-0.59698c0,0 -1.25757,-1.01463 0.90311,-1.60517z" fill="#a4e1ff" stroke="none" stroke-width="0.5"/></g></g></svg>