<svg version="1.1" xmlns="http://www.w3.org/2000/svg" xmlns:xlink="http://www.w3.org/1999/xlink" width="71.88564" height="101.95323" viewBox="0,0,71.88564,101.95323"><g transform="translate(-205.14717,-129.27653)"><g data-paper-data="{&quot;isPaintingLayer&quot;:true}" fill="#b1b1b1" fill-rule="nonzero" stroke="#000000" stroke-width="1.5" stroke-linecap="butt" stroke-linejoin="miter" stroke-miterlimit="10" stroke-dasharray="" stroke-dashoffset="0" style="mix-blend-mode: normal"><path d="M264.61411,194.20275l-22.78758,-26.28675l11.36061,-9.8427l22.78756,26.28675z" data-paper-data="{&quot;index&quot;:null}"/><path d="M238.00059,228.2991l-1.7922,-36.71861l18.22127,-0.88936l1.7922,36.71861z"/><path d="M229.21381,230.44409l-1.81643,-37.21511l18.46766,-0.90139l1.81643,37.21511z"/><path d="M227.32991,196.79608l-1.75585,-35.97386l28.69671,-1.40066l1.75585,35.97387c0,0 -7.42336,0.36233 -11.68245,0.57021c-5.13992,0.25087 -17.01426,0.83045 -17.01426,0.83045z"/><path d="M255.94095,144.61819c0.4149,8.50042 -6.58429,15.74942 -15.63313,16.19108c-9.04884,0.44166 -16.72071,-6.09125 -17.1356,-14.59167c-0.4149,-8.50042 6.58429,-15.74941 15.63313,-16.19107c9.04884,-0.44166 16.72071,6.09124 17.1356,14.59167z" data-paper-data="{&quot;index&quot;:null}"/><path d="M221.64926,198.1587l-15.49662,-31.14678l13.45581,-6.6995l15.49661,31.14678z" data-paper-data="{&quot;index&quot;:null}"/></g></g></svg>