<svg version="1.1" xmlns="http://www.w3.org/2000/svg" xmlns:xlink="http://www.w3.org/1999/xlink" width="120.8431" height="39.06113" viewBox="0,0,120.8431,39.06113"><g transform="translate(-180.29083,-173.18177)"><g data-paper-data="{&quot;isPaintingLayer&quot;:true}" fill-rule="nonzero" stroke-linecap="butt" stroke-linejoin="miter" stroke-miterlimit="10" stroke-dasharray="" stroke-dashoffset="0" style="mix-blend-mode: normal"><path d="M298.06539,175.68177c2.1582,7.87294 -1.80258,16.16514 -12.31816,22.85728c-20.25372,12.88951 -57.15434,14.96223 -82.41984,4.62953c-10.80305,-4.41806 -17.72971,-10.38879 -20.53656,-16.78428" fill="none" stroke="#00abff" stroke-width="5"/><path d="M257.26716,184.51305c4.11688,0.99508 15.86454,-1.20759 19.7355,-0.38585c9.08001,1.92754 16.32871,3.23267 16.32871,3.23267c0,0 -5.13326,8.257 -9.47023,11.01706c-4.51406,2.87276 -17.10412,5.89492 -17.10412,5.89492c0,0 -5.31491,-4.44949 -12.39639,-9.50267c-1.9446,-1.38762 -8.42996,-1.95643 -10.56751,-3.35546c-2.82931,-1.85179 -4.27831,-3.93502 -5.90049,-5.72696c2.00593,-0.21614 4.01134,-0.37341 6.05856,-0.37555c3.62858,-0.00385 6.74343,-1.30723 10.20257,-1.38502c0.36806,-0.00828 0.73409,-0.0301 1.09846,-0.06303c0.59468,0.24851 1.26126,0.46772 2.01494,0.64989z" fill="#71d0ff" stroke="#00abff" stroke-width="5"/><path d="M287.46066,181.11974c2.40619,-0.3461 3.0846,0.88145 3.0846,0.88145l0.88601,1.74179c-1.15071,3.01111 -3.51406,5.05978 -6.23853,7.74629c0,0 -1.15077,1.13225 -3.37017,0.54517c-2.2194,-0.58708 -1.06863,-1.71933 -1.06863,-1.71933c2.28396,-2.24265 4.48237,-4.02589 5.67979,-6.49215l-0.70086,-1.12958c0,0 -0.67841,-1.22755 1.72779,-1.57365z" fill="#a4e1ff" stroke="none" stroke-width="0.5"/><path d="M284.32966,178.09586c2.49038,0.11175 2.27133,1.38226 2.27133,1.38226l-0.12836,0.70995c-0.93839,2.88926 -4.0206,5.47559 -6.91421,7.97518c0,0 -1.2721,1.09794 -3.42425,0.44896c-2.15215,-0.64898 -0.88004,-1.74693 -0.88004,-1.74693c2.51818,-2.17148 5.54644,-4.54542 6.27969,-7.07502l0.08641,-0.53566c0,0 0.0615,-0.35666 0.48973,-0.67542c0.31253,-0.09685 0.61124,-0.2414 0.90799,-0.39009c0.34585,-0.0774 0.77629,-0.11727 1.31172,-0.09324z" fill="#a4e1ff" stroke="none" stroke-width="0.5"/><path d="M274.51848,182.69848c1.95061,0.79773 0.38693,1.79286 0.38693,1.79286l-1.70076,1.08237c-2.26883,1.44389 -4.49416,2.82034 -6.99224,4.1656c0,0 -1.72027,0.92545 -3.53429,0.04783c-1.81402,-0.87762 -0.09375,-1.80306 -0.09375,-1.80306c2.40627,-1.29308 4.53576,-2.61638 6.71905,-4.00583l1.70076,-1.08237c0,0 1.56368,-0.99513 3.5143,-0.1974z" fill="#a4e1ff" stroke="none" stroke-width="0.5"/><path d="M268.44014,197.59615c1.51312,1.01527 -0.47696,1.78721 -0.47696,1.78721l-2.23116,0.86545c-4.33866,1.65314 -9.6009,2.08382 -13.86337,3.84482c0,0 -1.94959,0.79838 -3.51455,-0.19623c-1.56496,-0.99461 0.38464,-1.79299 0.38464,-1.79299c4.33351,-1.7613 9.73214,-2.205 13.96703,-3.88613l2.23116,-0.86545c0,0 1.99009,-0.77194 3.50321,0.24333z" fill="#a4e1ff" stroke="none" stroke-width="0.5"/><path d="M250.00799,196.28771c0.52457,-0.24173 1.77737,-0.66232 3.251,-0.05965c1.95061,0.79773 0.38693,1.79286 0.38693,1.79286l-1.2454,0.52391c-1.87439,0.37483 -3.67232,0.84926 -5.42317,1.35628c0,0 -2.17628,0.62769 -3.40664,-0.48257c-1.23036,-1.11026 0.94592,-1.73794 0.94592,-1.73794c1.78065,-0.5117 3.60447,-0.99205 5.49136,-1.39288z" fill="#a4e1ff" stroke="none" stroke-width="0.5"/><path d="M265.00243,194.29917c-1.95061,-0.79773 -0.38693,-1.79286 -0.38693,-1.79286l1.458,-0.65921c1.25664,-0.22392 2.42687,-0.66047 3.21692,-1.20699c0,0 1.56368,-0.99513 3.5143,-0.1974c1.95061,0.79773 0.38693,1.79286 0.38693,1.79286c-1.40976,0.85274 -3.26908,1.54912 -5.28254,1.98422l0.60762,-0.11803c0,0 -1.56368,0.99513 -3.5143,0.1974z" fill="#a4e1ff" stroke="none" stroke-width="0.5"/><path d="M236.19735,194.72745c0.52626,-1.24683 2.97024,-0.97835 2.97024,-0.97835l1.99491,0.22502c3.81878,0.33038 5.98053,-0.86477 8.27306,-2.34212c0,0 1.56368,-0.99513 3.5143,-0.1974c1.95061,0.79773 0.38693,1.79286 0.38693,1.79286c-2.1931,1.38151 -5.19848,3.03701 -8.78838,3.45482c-1.29507,0.15072 -2.64684,-0.11655 -3.97026,-0.17483l-2.46308,-0.2647c0,0 -2.44398,-0.26847 -1.91773,-1.5153z" fill="#a4e1ff" stroke="none" stroke-width="0.5"/><path d="M258.97598,186.86635c0,0 -1.56368,0.99513 -3.5143,0.1974c-1.95061,-0.79773 -0.38693,-1.79286 -0.38693,-1.79286c0.92864,-0.5897 1.86023,-1.18859 2.76435,-1.80034c2.21944,-0.4459 4.40928,-1.09375 6.65785,-1.36404c0.50533,-0.06106 1,-0.14881 1.48733,-0.25543c-2.02565,1.77177 -4.50574,3.41941 -7.0083,5.01527z" fill="#a4e1ff" stroke="none" stroke-width="0.5"/><path d="M267.30761,178.41605c1.95061,0.79773 0.38693,1.79286 0.38693,1.79286l0.10841,-0.12988c-0.33034,0.3649 -0.68357,0.72412 -1.05644,1.0782c-0.75259,0.19633 -1.51826,0.35728 -2.30954,0.45289c-1.86985,0.22705 -3.70081,0.71589 -5.54198,1.1298c1.66671,-1.18204 3.19105,-2.41566 4.36471,-3.726l0.5336,-0.40047c0,0 1.56368,-0.99513 3.5143,-0.1974z" fill="#a4e1ff" stroke="none" stroke-width="0.5"/></g></g></svg>