<svg version="1.1" xmlns="http://www.w3.org/2000/svg" xmlns:xlink="http://www.w3.org/1999/xlink" width="46.37908" height="100.25009" viewBox="0,0,46.37908,100.25009"><g transform="translate(-220.80049,-131.10818)"><g data-paper-data="{&quot;isPaintingLayer&quot;:true}" fill="#b1b1b1" fill-rule="nonzero" stroke="#000000" stroke-width="1.5" stroke-linecap="butt" stroke-linejoin="miter" stroke-miterlimit="10" stroke-dasharray="" stroke-dashoffset="0" style="mix-blend-mode: normal"><path d="M248.86682,197.08478l-4.02358,-34.55543l14.93099,-1.73425l4.02356,34.55542z" data-paper-data="{&quot;index&quot;:null}"/><path d="M240.54725,228.14286l0.2725,-36.76131l18.24246,0.13522l-0.2725,36.76131z"/><path d="M223.07019,228.97032l3.17733,-37.12369l18.42229,1.57672l-3.17733,37.12369z"/><path d="M227.22358,194.83326l3.57987,-35.83833l28.5886,2.8557l-3.57987,35.83834c0,0 -7.39539,-0.73872 -11.63844,-1.16256c-5.12055,-0.51149 -16.95016,-1.69314 -16.95016,-1.69314z"/><path d="M266.42957,148.6205c-0.69771,8.48189 -8.58285,14.75573 -17.61196,14.01301c-9.02911,-0.74272 -15.78305,-8.22075 -15.08534,-16.70264c0.69771,-8.48189 8.58285,-14.75572 17.61196,-14.013c9.02911,0.74272 15.78305,8.22074 15.08534,16.70264z" data-paper-data="{&quot;index&quot;:null}"/><path d="M221.66093,196.4169l5.56989,-34.34011l14.83814,2.4024l-5.5699,34.34011z" data-paper-data="{&quot;index&quot;:null}"/></g></g></svg>