<svg version="1.1" xmlns="http://www.w3.org/2000/svg" xmlns:xlink="http://www.w3.org/1999/xlink" width="57.16038" height="102.93784" viewBox="0,0,57.16038,102.93784"><g transform="translate(-209.45844,-132.49485)"><g data-paper-data="{&quot;isPaintingLayer&quot;:true}" fill="#b1b1b1" fill-rule="nonzero" stroke="#000000" stroke-width="1.5" stroke-linecap="butt" stroke-linejoin="miter" stroke-miterlimit="10" stroke-dasharray="" stroke-dashoffset="0" style="mix-blend-mode: normal"><path d="M254.69507,201.21808l-24.05178,-25.1352l10.86322,-10.38907l24.05176,25.13522z" data-paper-data="{&quot;index&quot;:null}"/><path d="M241.51638,230.44577l-0.66152,-36.75637l18.24,-0.32828l0.66152,36.75637z"/><path d="M210.41817,228.20928l12.62228,-35.05626l17.39635,6.26367l-12.62228,35.05627z"/><path d="M221.6396,196.92285l1.27936,-35.99395l28.71274,1.02055l-1.27937,35.99396c0,0 -7.4275,-0.26401 -11.68898,-0.41546c-5.14279,-0.1828 -17.02377,-0.60509 -17.02377,-0.60509z"/><path d="M256.62762,148.80105c-0.07597,8.5102 -7.48152,15.34354 -16.54077,15.26268c-9.05925,-0.08087 -16.34163,-7.04529 -16.26568,-15.5555c0.07597,-8.5102 7.48152,-15.34352 16.54077,-15.26267c9.05925,0.08087 16.34163,7.04528 16.26567,15.5555z" data-paper-data="{&quot;index&quot;:null}"/><path d="M255.92637,176.88259l-30.82516,16.12688l-6.97179,-13.31678l30.82516,-16.12688z" data-paper-data="{&quot;index&quot;:null}"/></g></g></svg>