<svg version="1.1" xmlns="http://www.w3.org/2000/svg" xmlns:xlink="http://www.w3.org/1999/xlink" width="67.4185" height="181.38419" viewBox="0,0,67.4185,181.38419"><defs><radialGradient cx="260.64146" cy="134.98973" r="24.18848" gradientUnits="userSpaceOnUse" id="color-1"><stop offset="0" stop-color="#00e5ff"/><stop offset="1" stop-color="#00e5ff" stop-opacity="0"/></radialGradient><radialGradient cx="251.03897" cy="136.31172" r="37.98095" gradientUnits="userSpaceOnUse" id="color-2"><stop offset="0" stop-color="#00e5ff"/><stop offset="1" stop-color="#00e5ff" stop-opacity="0"/></radialGradient><radialGradient cx="260.22864" cy="208.78861" r="17.942" gradientUnits="userSpaceOnUse" id="color-3"><stop offset="0" stop-color="#00e5ff"/><stop offset="1" stop-color="#00e5ff" stop-opacity="0"/></radialGradient><radialGradient cx="267.06847" cy="214.87391" r="37.79358" gradientUnits="userSpaceOnUse" id="color-4"><stop offset="0" stop-color="#00e5ff"/><stop offset="1" stop-color="#00e5ff" stop-opacity="0"/></radialGradient><radialGradient cx="268.05725" cy="204.28658" r="17.942" gradientUnits="userSpaceOnUse" id="color-5"><stop offset="0" stop-color="#00e5ff"/><stop offset="1" stop-color="#00e5ff" stop-opacity="0"/></radialGradient><radialGradient cx="275.05572" cy="193.17814" r="26.10018" gradientUnits="userSpaceOnUse" id="color-6"><stop offset="0" stop-color="#00e5ff"/><stop offset="1" stop-color="#00e5ff" stop-opacity="0"/></radialGradient><radialGradient cx="270.01015" cy="182.33107" r="17.942" gradientUnits="userSpaceOnUse" id="color-7"><stop offset="0" stop-color="#00e5ff"/><stop offset="1" stop-color="#00e5ff" stop-opacity="0"/></radialGradient><radialGradient cx="260.12332" cy="154.89389" r="17.942" gradientUnits="userSpaceOnUse" id="color-8"><stop offset="0" stop-color="#00e5ff"/><stop offset="1" stop-color="#00e5ff" stop-opacity="0"/></radialGradient><radialGradient cx="264.33004" cy="145.66282" r="34.12239" gradientUnits="userSpaceOnUse" id="color-9"><stop offset="0" stop-color="#00e5ff"/><stop offset="1" stop-color="#00e5ff" stop-opacity="0"/></radialGradient><radialGradient cx="272.85364" cy="163.66657" r="24.87646" gradientUnits="userSpaceOnUse" id="color-10"><stop offset="0" stop-color="#00e5ff"/><stop offset="1" stop-color="#00e5ff" stop-opacity="0"/></radialGradient><radialGradient cx="270.93739" cy="170.3737" r="17.942" gradientUnits="userSpaceOnUse" id="color-11"><stop offset="0" stop-color="#00e5ff"/><stop offset="1" stop-color="#00e5ff" stop-opacity="0"/></radialGradient><radialGradient cx="279.40132" cy="181.35145" r="38.06552" gradientUnits="userSpaceOnUse" id="color-12"><stop offset="0" stop-color="#00e5ff"/><stop offset="1" stop-color="#00e5ff" stop-opacity="0"/></radialGradient><radialGradient cx="258.89632" cy="228.65999" r="24.18848" gradientUnits="userSpaceOnUse" id="color-13"><stop offset="0" stop-color="#00e5ff"/><stop offset="1" stop-color="#00e5ff" stop-opacity="0"/></radialGradient><radialGradient cx="250.10776" cy="226.66286" r="37.98095" gradientUnits="userSpaceOnUse" id="color-14"><stop offset="0" stop-color="#00e5ff"/><stop offset="1" stop-color="#00e5ff" stop-opacity="0"/></radialGradient></defs><g transform="translate(-245.3436,-90.79322)"><g data-paper-data="{&quot;isPaintingLayer&quot;:true}" fill-rule="nonzero" stroke="#000000" stroke-width="0" stroke-linecap="butt" stroke-linejoin="miter" stroke-miterlimit="10" stroke-dasharray="" stroke-dashoffset="0" style="mix-blend-mode: normal"><path d="M255.25711,149.22858c-2.44223,-3.32209 -0.37445,-14.30094 4.6185,-24.52193c4.99296,-10.22099 11.02035,-15.81363 13.46257,-12.49153c2.44223,3.3221 0.37446,14.30094 -4.61849,24.52191c-4.99295,10.22099 -11.02036,15.81365 -13.46258,12.49156z" data-paper-data="{&quot;index&quot;:null}" fill="url(#color-1)"/><path d="M253.62091,160.45532c-3.27341,0.60044 -6.76914,-14.50333 -7.80792,-33.73524c-1.03878,-19.2319 0.77274,-35.30913 4.04616,-35.90956c3.27342,-0.60044 6.76914,14.50334 7.80792,33.7352c1.03879,19.23191 -0.77274,35.30917 -4.04615,35.90961z" data-paper-data="{&quot;index&quot;:null}" fill="url(#color-2)"/><path d="M251.76163,211.13188c0,-6.06209 5.41545,-10.97639 12.09574,-10.97639c6.68029,0 12.09573,4.9143 12.09573,10.97639c0,6.06209 -5.41544,10.97639 -12.09573,10.97639c-6.68029,0 -12.09574,-4.9143 -12.09574,-10.97639z" data-paper-data="{&quot;index&quot;:null}" fill="url(#color-3)"/><path d="M250.55024,205.40711c2.10747,-5.33758 13.85983,-2.29003 26.24964,6.80691c12.38978,9.09692 20.72526,20.79841 18.61778,26.13599c-2.10748,5.33758 -13.8598,2.29004 -26.24961,-6.80689c-12.38979,-9.09693 -20.72528,-20.79842 -18.61781,-26.136z" data-paper-data="{&quot;index&quot;:null}" fill="url(#color-4)"/><path d="M259.59024,206.62985c0,-6.06209 5.41544,-10.97639 12.09573,-10.97639c6.68028,0 12.09572,4.9143 12.09572,10.97639c0,6.06209 -5.41543,10.97639 -12.09572,10.97639c-6.68029,0 -12.09573,-4.9143 -12.09573,-10.97639z" data-paper-data="{&quot;index&quot;:null}" fill="url(#color-5)"/><path d="M262.62291,192.7808c0.71724,-5.98267 9.07329,-9.09934 18.66377,-6.96127c9.59046,2.13806 16.78366,8.72122 16.06642,14.70389c-0.71724,5.98267 -9.07326,9.09935 -18.66376,6.96128c-9.59048,-2.13807 -16.78367,-8.72122 -16.06644,-14.70389z" data-paper-data="{&quot;index&quot;:null}" fill="url(#color-6)"/><path d="M261.54314,184.67434c0,-6.06209 5.41544,-10.97639 12.09573,-10.97639c6.68028,0 12.09572,4.9143 12.09572,10.97639c0,6.06209 -5.41543,10.97639 -12.09572,10.97639c-6.68029,0 -12.09573,-4.9143 -12.09573,-10.97639z" data-paper-data="{&quot;index&quot;:null}" fill="url(#color-7)"/><path d="M263.75205,141.57424c6.68028,0 12.09572,4.91429 12.09572,10.97638c0,6.06209 -5.41543,10.97639 -12.09572,10.97639c-6.68029,0 -12.09573,-4.9143 -12.09573,-10.97639c0,-6.06209 5.41544,-10.97638 12.09573,-10.97638z" data-paper-data="{&quot;index&quot;:null}" fill="url(#color-8)"/><path d="M266.44428,129.61085c11.50868,-7.33831 22.36477,-8.83552 24.24773,-3.3441c1.88297,5.49142 -5.92021,15.89198 -17.42892,23.23031c-11.50869,7.33832 -22.36479,8.83554 -24.24775,3.34412c-1.88297,-5.49142 5.92023,-15.89199 17.42894,-23.23033z" data-paper-data="{&quot;index&quot;:null}" fill="url(#color-9)"/><path d="M273.09342,148.68732c8.32462,-5.53725 16.65296,-5.60922 18.60187,-0.16075c1.94891,5.44847 -3.21962,14.35415 -11.54426,19.89142c-8.32463,5.53725 -16.65298,5.60923 -18.60189,0.16076c-1.94891,-5.44847 3.21963,-14.35417 11.54427,-19.89143z" data-paper-data="{&quot;index&quot;:null}" fill="url(#color-10)"/><path d="M274.56612,157.05402c6.68028,0 12.09571,4.9143 12.09571,10.97639c0,6.06209 -5.41542,10.97639 -12.09571,10.97639c-6.68029,0 -12.09574,-4.9143 -12.09574,-10.97639c0,-6.06209 5.41545,-10.97639 12.09574,-10.97639z" data-paper-data="{&quot;index&quot;:null}" fill="url(#color-11)"/><path d="M287.09997,168.03179c14.1728,0 25.66213,4.9143 25.66213,10.97639c0,6.06209 -11.4893,10.97639 -25.66213,10.97639c-14.17282,0 -25.66215,-4.9143 -25.66215,-10.97639c0,-6.06209 11.48933,-10.97639 25.66215,-10.97639z" data-paper-data="{&quot;index&quot;:null}" fill="url(#color-12)"/><path d="M267.03057,227.49211c4.59349,10.56358 6.23671,21.67504 3.67024,24.81813c-2.56648,3.14309 -8.37078,-2.87238 -12.96428,-13.43599c-4.59349,-10.56359 -6.23672,-21.67507 -3.67025,-24.81816c2.56648,-3.14309 8.37079,2.87242 12.96429,13.43602z" data-paper-data="{&quot;index&quot;:null}" fill="url(#color-13)"/><path d="M257.28032,237.81929c-0.12394,19.28321 -2.89559,34.66382 -6.19063,34.35351c-3.29504,-0.3103 -5.86573,-16.19397 -5.74179,-35.47723c0.12394,-19.28326 2.89558,-34.66386 6.19062,-34.35355c3.29504,0.3103 5.86573,16.19401 5.74179,35.47727z" data-paper-data="{&quot;index&quot;:null}" fill="url(#color-14)"/></g></g></svg>