<svg version="1.1" xmlns="http://www.w3.org/2000/svg" xmlns:xlink="http://www.w3.org/1999/xlink" width="68.60161" height="67.87178" viewBox="0,0,68.60161,67.87178"><defs><radialGradient cx="240" cy="179.99999" r="34.30079" gradientUnits="userSpaceOnUse" id="color-1"><stop offset="0" stop-color="#f0f0f0"/><stop offset="1" stop-color="#f0f0f0" stop-opacity="0"/></radialGradient><radialGradient cx="240" cy="179.99996" r="27.50533" gradientUnits="userSpaceOnUse" id="color-2"><stop offset="0" stop-color="#737373"/><stop offset="1" stop-color="#737373" stop-opacity="0"/></radialGradient></defs><g transform="translate(-205.69919,-146.06411)"><g data-paper-data="{&quot;isPaintingLayer&quot;:true}" fill-rule="nonzero" stroke="none" stroke-width="0" stroke-linecap="butt" stroke-linejoin="miter" stroke-miterlimit="10" stroke-dasharray="" stroke-dashoffset="0" style="mix-blend-mode: normal"><path d="M274.3008,179.99999c0,13.08108 -7.48081,24.43352 -18.44072,30.09816c0.12702,-0.20111 0.20053,-0.43939 0.20053,-0.69484c0,-0.7196 -0.58335,-1.30295 -1.30295,-1.30295c-0.7196,0 -1.30295,0.58335 -1.30295,1.30295c0,0.67836 0.5184,1.23563 1.18064,1.29728c-2.0755,0.97018 -4.26521,1.74041 -6.54371,2.28557c0.34928,-0.45802 0.55668,-1.03003 0.55668,-1.65048c0,-1.08138 -0.63005,-2.01562 -1.54309,-2.45563c1.20129,-0.28398 2.09519,-1.36327 2.09519,-2.65134c0,-1.50462 -1.21973,-2.72435 -2.72435,-2.72435c-1.50462,0 -2.72435,1.21973 -2.72435,2.72435c0,1.08138 0.63005,2.01562 1.54309,2.45563c-1.20129,0.28398 -2.09519,1.36327 -2.09519,2.65134c0,0.97578 0.513,1.83175 1.28401,2.3129c-1.46742,0.18953 -2.96399,0.28731 -4.48365,0.28731c-1.81662,0 -3.60026,-0.13972 -5.34054,-0.40889c0.17724,-0.22256 0.28315,-0.50444 0.28315,-0.81106c0,-0.7196 -0.58335,-1.30295 -1.30295,-1.30295c-0.7196,0 -1.30295,0.58335 -1.30295,1.30295c0,0.13317 0.01997,0.26166 0.0571,0.38267c-7.09022,-1.58814 -13.34708,-5.34911 -18.01785,-10.53818c0.02583,0.00153 0.05186,0.00231 0.07807,0.00231c0.7196,0 1.30295,-0.58335 1.30295,-1.30295c0,-0.7196 -0.58335,-1.30295 -1.30295,-1.30295c-0.67568,0 -1.23123,0.51431 -1.29653,1.17281c-3.72647,-4.62768 -6.256,-10.24067 -7.12505,-16.38036c0.43424,0.29254 0.95731,0.46329 1.52027,0.46329c1.50462,0 2.72435,-1.21973 2.72435,-2.72435c0,-1.50462 -1.21973,-2.72435 -2.72435,-2.72435c-0.71419,0 -1.36419,0.27481 -1.85003,0.72447c-0.00232,-0.16251 -0.00348,-0.32529 -0.00348,-0.48835c0,-18.74227 15.35697,-33.93589 34.30079,-33.93589c18.94382,0 34.30079,15.19362 34.30079,33.93589zM242.74938,191.00965c1.50462,0 2.72435,-1.21973 2.72435,-2.72435c0,-1.50462 -1.21973,-2.72435 -2.72435,-2.72435c-1.50462,0 -2.72435,1.21973 -2.72435,2.72435c0,1.50462 1.21973,2.72435 2.72435,2.72435zM224.39191,177.06901c1.50462,0 2.72435,-1.21973 2.72435,-2.72435c0,-1.50462 -1.21973,-2.72435 -2.72435,-2.72435c-1.50462,0 -2.72435,1.21973 -2.72435,2.72435c0,1.50462 1.21973,2.72435 2.72435,2.72435zM247.85635,178.86335c1.50462,0 2.72435,-1.21973 2.72435,-2.72435c0,-1.50462 -1.21973,-2.72435 -2.72435,-2.72435c-1.50462,0 -2.72435,1.21973 -2.72435,2.72435c0,1.50462 1.21973,2.72435 2.72435,2.72435zM253.92949,162.57627c1.50462,0 2.72435,-1.21973 2.72435,-2.72435c0,-1.50462 -1.21973,-2.72435 -2.72435,-2.72435c-1.50462,0 -2.72435,1.21973 -2.72435,2.72435c0,1.50462 1.21973,2.72435 2.72435,2.72435zM225.22006,202.05174c1.50462,0 2.72435,-1.21973 2.72435,-2.72435c0,-1.50462 -1.21973,-2.72435 -2.72435,-2.72435c-1.50462,0 -2.72435,1.21973 -2.72435,2.72435c0,1.50462 1.21973,2.72435 2.72435,2.72435zM228.39466,162.43825c1.50462,0 2.72435,-1.21973 2.72435,-2.72435c0,-1.50462 -1.21973,-2.72435 -2.72435,-2.72435c-1.50462,0 -2.72435,1.21973 -2.72435,2.72435c0,1.50462 1.21973,2.72435 2.72435,2.72435zM265.79975,171.40994c1.50462,0 2.72435,-1.21973 2.72435,-2.72435c0,-1.50462 -1.21973,-2.72435 -2.72435,-2.72435c-1.50462,0 -2.72435,1.21973 -2.72435,2.72435c0,1.50462 1.21973,2.72435 2.72435,2.72435zM262.27178,197.257c0,-0.7196 -0.58335,-1.30295 -1.30295,-1.30295c-0.7196,0 -1.30295,0.58335 -1.30295,1.30295c0,0.41306 0.19221,0.78123 0.49207,1.01995c-0.45288,0.20412 -0.76813,0.65948 -0.76813,1.18847c0,0.7196 0.58335,1.30295 1.30295,1.30295c0.7196,0 1.30295,-0.58335 1.30295,-1.30295c0,-0.41306 -0.19221,-0.78123 -0.49207,-1.01995c0.45288,-0.20412 0.76813,-0.65948 0.76813,-1.18847zM214.79079,171.17007c0,-0.7196 -0.58335,-1.30295 -1.30295,-1.30295c-0.7196,0 -1.30295,0.58335 -1.30295,1.30295c0,0.17533 0.03463,0.34258 0.09743,0.49527c-0.67226,0.05169 -1.20164,0.61356 -1.20164,1.29907c0,0.7196 0.58335,1.30295 1.30295,1.30295c0.7196,0 1.30295,-0.58335 1.30295,-1.30295c0,-0.17533 -0.03463,-0.34258 -0.09743,-0.49527c0.67226,-0.05169 1.20164,-0.61356 1.20164,-1.29907zM228.94677,206.15139c0.7196,0 1.30295,-0.58335 1.30295,-1.30295c0,-0.7196 -0.58335,-1.30295 -1.30295,-1.30295c-0.7196,0 -1.30295,0.58335 -1.30295,1.30295c0,0.7196 0.58335,1.30295 1.30295,1.30295zM237.64241,205.87534c0.7196,0 1.30295,-0.58335 1.30295,-1.30295c0,-0.7196 -0.58335,-1.30295 -1.30295,-1.30295c-0.7196,0 -1.30295,0.58335 -1.30295,1.30295c0,0.7196 0.58335,1.30295 1.30295,1.30295zM255.72384,202.14863c0.7196,0 1.30295,-0.58335 1.30295,-1.30295c0,-0.7196 -0.58335,-1.30295 -1.30295,-1.30295c-0.7196,0 -1.30295,0.58335 -1.30295,1.30295c0,0.7196 0.58335,1.30295 1.30295,1.30295zM265.38567,185.86155c0.7196,0 1.30295,-0.58335 1.30295,-1.30295c0,-0.7196 -0.58335,-1.30295 -1.30295,-1.30295c-0.7196,0 -1.30295,0.58335 -1.30295,1.30295c0,0.7196 0.58335,1.30295 1.30295,1.30295zM271.32079,177.57998c0.7196,0 1.30295,-0.58335 1.30295,-1.30295c0,-0.7196 -0.58335,-1.30295 -1.30295,-1.30295c-0.7196,0 -1.30295,0.58335 -1.30295,1.30295c0,0.7196 0.58335,1.30295 1.30295,1.30295zM260.2787,182.41089c0.7196,0 1.30295,-0.58335 1.30295,-1.30295c0,-0.7196 -0.58335,-1.30295 -1.30295,-1.30295c-0.7196,0 -1.30295,0.58335 -1.30295,1.30295c0,0.7196 0.58335,1.30295 1.30295,1.30295zM246.75214,154.80567c0.7196,0 1.30295,-0.58335 1.30295,-1.30295c0,-0.7196 -0.58335,-1.30295 -1.30295,-1.30295c-0.7196,0 -1.30295,0.58335 -1.30295,1.30295c0,0.7196 0.58335,1.30295 1.30295,1.30295zM215.97231,181.85879c0.7196,0 1.30295,-0.58335 1.30295,-1.30295c0,-0.7196 -0.58335,-1.30295 -1.30295,-1.30295c-0.7196,0 -1.30295,0.58335 -1.30295,1.30295c0,0.7196 0.58335,1.30295 1.30295,1.30295zM235.43399,157.84224c0.7196,0 1.30295,-0.58335 1.30295,-1.30295c0,-0.7196 -0.58335,-1.30295 -1.30295,-1.30295c-0.7196,0 -1.30295,0.58335 -1.30295,1.30295c0,0.7196 0.58335,1.30295 1.30295,1.30295zM261.93502,193.31496c0.7196,0 1.30295,-0.58335 1.30295,-1.30295c0,-0.7196 -0.58335,-1.30295 -1.30295,-1.30295c-0.7196,0 -1.30295,0.58335 -1.30295,1.30295c0,0.7196 0.58335,1.30295 1.30295,1.30295zM231.01716,193.17693c0.7196,0 1.30295,-0.58335 1.30295,-1.30295c0,-0.7196 -0.58335,-1.30295 -1.30295,-1.30295c-0.7196,0 -1.30295,0.58335 -1.30295,1.30295c0,0.7196 0.58335,1.30295 1.30295,1.30295zM257.38015,185.17142c0.7196,0 1.30295,-0.58335 1.30295,-1.30295c0,-0.7196 -0.58335,-1.30295 -1.30295,-1.30295c-0.7196,0 -1.30295,0.58335 -1.30295,1.30295c0,0.7196 0.58335,1.30295 1.30295,1.30295zM239.57478,197.73179c0.7196,0 1.30295,-0.58335 1.30295,-1.30295c0,-0.7196 -0.58335,-1.30295 -1.30295,-1.30295c-0.7196,0 -1.30295,0.58335 -1.30295,1.30295c0,0.7196 0.58335,1.30295 1.30295,1.30295zM258.34634,166.12381c0.7196,0 1.30295,-0.58335 1.30295,-1.30295c0,-0.7196 -0.58335,-1.30295 -1.30295,-1.30295c-0.7196,0 -1.30295,0.58335 -1.30295,1.30295c0,0.7196 0.58335,1.30295 1.30295,1.30295zM247.85635,161.98303c0.7196,0 1.30295,-0.58335 1.30295,-1.30295c0,-0.7196 -0.58335,-1.30295 -1.30295,-1.30295c-0.7196,0 -1.30295,0.58335 -1.30295,1.30295c0,0.7196 0.58335,1.30295 1.30295,1.30295zM264.97159,177.30392c0.7196,0 1.30295,-0.58335 1.30295,-1.30295c0,-0.7196 -0.58335,-1.30295 -1.30295,-1.30295c-0.7196,0 -1.30295,0.58335 -1.30295,1.30295c0,0.7196 0.58335,1.30295 1.30295,1.30295zM266.48988,196.62758c0.7196,0 1.30295,-0.58335 1.30295,-1.30295c0,-0.7196 -0.58335,-1.30295 -1.30295,-1.30295c-0.7196,0 -1.30295,0.58335 -1.30295,1.30295c0,0.7196 0.58335,1.30295 1.30295,1.30295zM255.17173,198.69798c0.7196,0 1.30295,-0.58335 1.30295,-1.30295c0,-0.7196 -0.58335,-1.30295 -1.30295,-1.30295c-0.7196,0 -1.30295,0.58335 -1.30295,1.30295c0,0.7196 0.58335,1.30295 1.30295,1.30295zM254.20555,205.73731c0.7196,0 1.30295,-0.58335 1.30295,-1.30295c0,-0.7196 -0.58335,-1.30295 -1.30295,-1.30295c-0.7196,0 -1.30295,0.58335 -1.30295,1.30295c0,0.7196 0.58335,1.30295 1.30295,1.30295zM222.59757,192.62483c0.7196,0 1.30295,-0.58335 1.30295,-1.30295c0,-0.7196 -0.58335,-1.30295 -1.30295,-1.30295c-0.7196,0 -1.30295,0.58335 -1.30295,1.30295c0,0.7196 0.58335,1.30295 1.30295,1.30295zM241.23109,157.29014c0.7196,0 1.30295,-0.58335 1.30295,-1.30295c0,-0.7196 -0.58335,-1.30295 -1.30295,-1.30295c-0.7196,0 -1.30295,0.58335 -1.30295,1.30295c0,0.7196 0.58335,1.30295 1.30295,1.30295zM256.82804,154.11554c0.7196,0 1.30295,-0.58335 1.30295,-1.30295c0,-0.7196 -0.58335,-1.30295 -1.30295,-1.30295c-0.7196,0 -1.30295,0.58335 -1.30295,1.30295c0,0.7196 0.58335,1.30295 1.30295,1.30295zM225.35809,170.2646c0.7196,0 1.30295,-0.58335 1.30295,-1.30295c0,-0.7196 -0.58335,-1.30295 -1.30295,-1.30295c-0.7196,0 -1.30295,0.58335 -1.30295,1.30295c0,0.7196 0.58335,1.30295 1.30295,1.30295zM235.15794,200.49232c0.7196,0 1.30295,-0.58335 1.30295,-1.30295c0,-0.7196 -0.58335,-1.30295 -1.30295,-1.30295c-0.7196,0 -1.30295,0.58335 -1.30295,1.30295c0,0.7196 0.58335,1.30295 1.30295,1.30295zM216.52442,165.29566c0.7196,0 1.30295,-0.58335 1.30295,-1.30295c0,-0.7196 -0.58335,-1.30295 -1.30295,-1.30295c-0.7196,0 -1.30295,0.58335 -1.30295,1.30295c0,0.7196 0.58335,1.30295 1.30295,1.30295zM222.04546,162.53513c0.7196,0 1.30295,-0.58335 1.30295,-1.30295c0,-0.7196 -0.58335,-1.30295 -1.30295,-1.30295c-0.7196,0 -1.30295,0.58335 -1.30295,1.30295c0,0.7196 0.58335,1.30295 1.30295,1.30295zM253.79147,194.97127c0.7196,0 1.30295,-0.58335 1.30295,-1.30295c0,-0.7196 -0.58335,-1.30295 -1.30295,-1.30295c-0.7196,0 -1.30295,0.58335 -1.30295,1.30295c0,0.7196 0.58335,1.30295 1.30295,1.30295zM239.85084,151.21699c0.7196,0 1.30295,-0.58335 1.30295,-1.30295c0,-0.7196 -0.58335,-1.30295 -1.30295,-1.30295c-0.7196,0 -1.30295,0.58335 -1.30295,1.30295c0,0.7196 0.58335,1.30295 1.30295,1.30295zM247.5803,194.28114c0.7196,0 1.30295,-0.58335 1.30295,-1.30295c0,-0.7196 -0.58335,-1.30295 -1.30295,-1.30295c-0.7196,0 -1.30295,0.58335 -1.30295,1.30295c0,0.7196 0.58335,1.30295 1.30295,1.30295zM247.5803,199.11206c0.7196,0 1.30295,-0.58335 1.30295,-1.30295c0,-0.7196 -0.58335,-1.30295 -1.30295,-1.30295c-0.7196,0 -1.30295,0.58335 -1.30295,1.30295c0,0.7196 0.58335,1.30295 1.30295,1.30295zM265.10961,162.81118c0.7196,0 1.30295,-0.58335 1.30295,-1.30295c0,-0.7196 -0.58335,-1.30295 -1.30295,-1.30295c-0.7196,0 -1.30295,0.58335 -1.30295,1.30295c0,0.7196 0.58335,1.30295 1.30295,1.30295zM250.34082,203.39086c0.7196,0 1.30295,-0.58335 1.30295,-1.30295c0,-0.7196 -0.58335,-1.30295 -1.30295,-1.30295c-0.7196,0 -1.30295,0.58335 -1.30295,1.30295c0,0.7196 0.58335,1.30295 1.30295,1.30295zM213.48784,191.79667c0.7196,0 1.30295,-0.58335 1.30295,-1.30295c0,-0.7196 -0.58335,-1.30295 -1.30295,-1.30295c-0.7196,0 -1.30295,0.58335 -1.30295,1.30295c0,0.7196 0.58335,1.30295 1.30295,1.30295zM260.2787,157.42817c0.7196,0 1.30295,-0.58335 1.30295,-1.30295c0,-0.7196 -0.58335,-1.30295 -1.30295,-1.30295c-0.7196,0 -1.30295,0.58335 -1.30295,1.30295c0,0.7196 0.58335,1.30295 1.30295,1.30295zM255.58581,191.3826c0.7196,0 1.30295,-0.58335 1.30295,-1.30295c0,-0.7196 -0.58335,-1.30295 -1.30295,-1.30295c-0.7196,0 -1.30295,0.58335 -1.30295,1.30295c0,0.7196 0.58335,1.30295 1.30295,1.30295zM217.62863,171.50683c0.7196,0 1.30295,-0.58335 1.30295,-1.30295c0,-0.7196 -0.58335,-1.30295 -1.30295,-1.30295c-0.7196,0 -1.30295,0.58335 -1.30295,1.30295c0,0.7196 0.58335,1.30295 1.30295,1.30295z" fill="url(#color-1)"/><path d="M259.98668,198.89647c-10.32522,10.92088 -27.64378,11.31378 -38.68211,0.87753c-11.03833,-10.43625 -11.6164,-27.74962 -1.29118,-38.67051c0.08983,-0.09501 0.18018,-0.18923 0.27106,-0.28264c0.03538,0.52966 0.26273,1.04788 0.67888,1.44133c0.87672,0.8289 2.2594,0.79013 3.0883,-0.08659c0.8289,-0.87672 0.79013,-2.2594 -0.08659,-3.0883c-0.32803,-0.31014 -0.7269,-0.4988 -1.14108,-0.56757c3.88877,-3.09876 8.45493,-4.97585 13.1757,-5.61941c-0.32471,0.41967 -0.28434,1.02542 0.10937,1.39765c0.4193,0.39643 1.08058,0.37789 1.47701,-0.04141c0.39643,-0.4193 0.37789,-1.08058 -0.04141,-1.47701c-0.01527,-0.01444 -0.03087,-0.02833 -0.04676,-0.04167c5.58028,-0.45045 11.29802,0.80501 16.30432,3.78566c-0.0883,0.05006 -0.17073,0.11392 -0.24409,0.19152c-0.39643,0.4193 -0.37789,1.08058 0.04141,1.47701c0.4193,0.39643 1.08058,0.37789 1.47701,-0.04141c0.16892,-0.17866 0.2625,-0.40126 0.28183,-0.62858c1.16231,0.80188 2.2786,1.70308 3.33712,2.70387c0.88548,0.83719 1.70365,1.71863 2.45428,2.63748c-0.71433,-0.14439 -1.48481,0.07175 -2.02237,0.64033c-0.7096,0.75055 -0.78331,1.87189 -0.23979,2.69916c-0.77442,-0.24661 -1.65622,-0.04934 -2.25196,0.58077c-0.8289,0.87672 -0.79013,2.2594 0.08659,3.0883c0.87672,0.8289 2.2594,0.79013 3.0883,-0.08659c0.7096,-0.75055 0.78331,-1.87189 0.23979,-2.69916c0.77442,0.24661 1.65622,0.04934 2.25196,-0.58077c0.34181,-0.36153 0.53608,-0.8091 0.58489,-1.2684c1.02733,1.5729 1.87892,3.22802 2.55381,4.93674c-0.41985,-0.32891 -1.02892,-0.28978 -1.40263,0.10549c-0.39643,0.4193 -0.37789,1.08058 0.04141,1.47701c0.4193,0.39643 1.08058,0.37789 1.47701,-0.04141c0.14072,-0.14884 0.22916,-0.32818 0.26594,-0.51534c3.26553,9.33858 1.37039,20.07472 -5.83605,27.69691zM244.57901,175.18601c-0.8289,0.87672 -0.79013,2.2594 0.08659,3.0883c0.87672,0.8289 2.2594,0.79013 3.0883,-0.08659c0.8289,-0.87672 0.79013,-2.2594 -0.08659,-3.0883c-0.87672,-0.8289 -2.2594,-0.79013 -3.0883,0.08659zM226.20237,173.19582c-0.8289,0.87672 -0.79013,2.2594 0.08659,3.0883c0.87672,0.8289 2.2594,0.79013 3.0883,-0.08659c0.8289,-0.87672 0.79013,-2.2594 -0.08659,-3.0883c-0.87672,-0.8289 -2.2594,-0.79013 -3.0883,0.08659zM240.86332,185.07696c-0.8289,0.87672 -0.79013,2.2594 0.08659,3.0883c0.87672,0.8289 2.2594,0.79013 3.0883,-0.08659c0.8289,-0.87672 0.79013,-2.2594 -0.08659,-3.0883c-0.87672,-0.8289 -2.2594,-0.79013 -3.0883,0.08659zM235.42943,197.91297c-0.8289,0.87672 -0.79013,2.2594 0.08659,3.0883c0.87672,0.8289 2.2594,0.79013 3.0883,-0.08659c0.8289,-0.87672 0.79013,-2.2594 -0.08659,-3.0883c-0.87672,-0.8289 -2.2594,-0.79013 -3.0883,0.08659zM240.44805,159.09493c-0.8289,0.87672 -0.79013,2.2594 0.08659,3.0883c0.87672,0.8289 2.2594,0.79013 3.0883,-0.08659c0.8289,-0.87672 0.79013,-2.2594 -0.08659,-3.0883c-0.87672,-0.8289 -2.2594,-0.79013 -3.0883,0.08659zM220.47456,183.92612c-0.8289,0.87672 -0.79013,2.2594 0.08659,3.0883c0.87672,0.8289 2.2594,0.79013 3.0883,-0.08659c0.8289,-0.87672 0.79013,-2.2594 -0.08659,-3.0883c-0.87672,-0.8289 -2.2594,-0.79013 -3.0883,0.08659zM247.21259,199.30509c-0.8289,0.87672 -0.79013,2.2594 0.08659,3.0883c0.87672,0.8289 2.2594,0.79013 3.0883,-0.08659c0.8289,-0.87672 0.79013,-2.2594 -0.08659,-3.0883c-0.87672,-0.8289 -2.2594,-0.79013 -3.0883,0.08659zM262.69163,181.09849c0.30624,0.02609 0.62106,-0.08254 0.84862,-0.32323c0.39643,-0.4193 0.37789,-1.08058 -0.04141,-1.47701c-0.4193,-0.39643 -1.08058,-0.37789 -1.47701,0.04141c-0.29142,0.30823 -0.3586,0.74725 -0.20716,1.11567c-0.30624,-0.02609 -0.62106,0.08254 -0.84862,0.32323c-0.39643,0.4193 -0.37789,1.08058 0.04141,1.47701c0.4193,0.39643 1.08058,0.37789 1.47701,-0.04141c0.29142,-0.30823 0.3586,-0.74725 0.20716,-1.11567zM220.46194,169.83822c0.12071,-0.05437 0.23303,-0.13275 0.32962,-0.23491c0.39643,-0.4193 0.37789,-1.08058 -0.04141,-1.47701c-0.4193,-0.39643 -1.08058,-0.37789 -1.47701,0.04141c-0.37765,0.39943 -0.37872,1.01847 -0.01548,1.41894c-0.12071,0.05437 -0.23303,0.13275 -0.32962,0.23491c-0.39643,0.4193 -0.37789,1.08058 0.04141,1.47701c0.4193,0.39643 1.08058,0.37789 1.47701,-0.04141c0.37765,-0.39943 0.37872,-1.01847 0.01548,-1.41894zM246.48936,158.714c-0.39643,0.4193 -0.37789,1.08058 0.04141,1.47701c0.4193,0.39643 1.08058,0.37789 1.47701,-0.04141c0.39643,-0.4193 0.37789,-1.08058 -0.04141,-1.47701c-0.4193,-0.39643 -1.08058,-0.37789 -1.47701,0.04141zM251.40412,163.66532c-0.39643,0.4193 -0.37789,1.08058 0.04141,1.47701c0.4193,0.39643 1.08058,0.37789 1.47701,-0.04141c0.39643,-0.4193 0.37789,-1.08058 -0.04141,-1.47701c-0.4193,-0.39643 -1.08058,-0.37789 -1.47701,0.04141zM259.88688,175.79798c-0.39643,0.4193 -0.37789,1.08058 0.04141,1.47701c0.4193,0.39643 1.08058,0.37789 1.47701,-0.04141c0.39643,-0.4193 0.37789,-1.08058 -0.04141,-1.47701c-0.4193,-0.39643 -1.08058,-0.37789 -1.47701,0.04141zM256.54407,190.61101c-0.39643,0.4193 -0.37789,1.08058 0.04141,1.47701c0.4193,0.39643 1.08058,0.37789 1.47701,-0.04141c0.39643,-0.4193 0.37789,-1.08058 -0.04141,-1.47701c-0.4193,-0.39643 -1.08058,-0.37789 -1.47701,0.04141zM255.44003,198.70627c-0.39643,0.4193 -0.37789,1.08058 0.04141,1.47701c0.4193,0.39643 1.08058,0.37789 1.47701,-0.04141c0.39643,-0.4193 0.37789,-1.08058 -0.04141,-1.47701c-0.4193,-0.39643 -1.08058,-0.37789 -1.47701,0.04141zM251.66732,189.80821c-0.39643,0.4193 -0.37789,1.08058 0.04141,1.47701c0.4193,0.39643 1.08058,0.37789 1.47701,-0.04141c0.39643,-0.4193 0.37789,-1.08058 -0.04141,-1.47701c-0.4193,-0.39643 -1.08058,-0.37789 -1.47701,0.04141zM228.57769,198.44157c-0.39643,0.4193 -0.37789,1.08058 0.04141,1.47701c0.4193,0.39643 1.08058,0.37789 1.47701,-0.04141c0.39643,-0.4193 0.37789,-1.08058 -0.04141,-1.47701c-0.4193,-0.39643 -1.08058,-0.37789 -1.47701,0.04141zM225.54638,165.72129c-0.39643,0.4193 -0.37789,1.08058 0.04141,1.47701c0.4193,0.39643 1.08058,0.37789 1.47701,-0.04141c0.39643,-0.4193 0.37789,-1.08058 -0.04141,-1.47701c-0.4193,-0.39643 -1.08058,-0.37789 -1.47701,0.04141zM223.65562,190.43698c-0.39643,0.4193 -0.37789,1.08058 0.04141,1.47701c0.4193,0.39643 1.08058,0.37789 1.47701,-0.04141c0.39643,-0.4193 0.37789,-1.08058 -0.04141,-1.47701c-0.4193,-0.39643 -1.08058,-0.37789 -1.47701,0.04141zM258.63954,184.36702c-0.39643,0.4193 -0.37789,1.08058 0.04141,1.47701c0.4193,0.39643 1.08058,0.37789 1.47701,-0.04141c0.39643,-0.4193 0.37789,-1.08058 -0.04141,-1.47701c-0.4193,-0.39643 -1.08058,-0.37789 -1.47701,0.04141zM240.54805,167.41463c-0.39643,0.4193 -0.37789,1.08058 0.04141,1.47701c0.4193,0.39643 1.08058,0.37789 1.47701,-0.04141c0.39643,-0.4193 0.37789,-1.08058 -0.04141,-1.47701c-0.4193,-0.39643 -1.08058,-0.37789 -1.47701,0.04141zM251.49916,186.60286c-0.39643,0.4193 -0.37789,1.08058 0.04141,1.47701c0.4193,0.39643 1.08058,0.37789 1.47701,-0.04141c0.39643,-0.4193 0.37789,-1.08058 -0.04141,-1.47701c-0.4193,-0.39643 -1.08058,-0.37789 -1.47701,0.04141zM248.04376,169.47502c-0.39643,0.4193 -0.37789,1.08058 0.04141,1.47701c0.4193,0.39643 1.08058,0.37789 1.47701,-0.04141c0.39643,-0.4193 0.37789,-1.08058 -0.04141,-1.47701c-0.4193,-0.39643 -1.08058,-0.37789 -1.47701,0.04141zM241.56871,198.23394c-0.39643,0.4193 -0.37789,1.08058 0.04141,1.47701c0.4193,0.39643 1.08058,0.37789 1.47701,-0.04141c0.39643,-0.4193 0.37789,-1.08058 -0.04141,-1.47701c-0.4193,-0.39643 -1.08058,-0.37789 -1.47701,0.04141zM233.17515,194.86773c-0.39643,0.4193 -0.37789,1.08058 0.04141,1.47701c0.4193,0.39643 1.08058,0.37789 1.47701,-0.04141c0.39643,-0.4193 0.37789,-1.08058 -0.04141,-1.47701c-0.4193,-0.39643 -1.08058,-0.37789 -1.47701,0.04141zM251.58834,195.36932c-0.39643,0.4193 -0.37789,1.08058 0.04141,1.47701c0.4193,0.39643 1.08058,0.37789 1.47701,-0.04141c0.39643,-0.4193 0.37789,-1.08058 -0.04141,-1.47701c-0.4193,-0.39643 -1.08058,-0.37789 -1.47701,0.04141zM263.11855,184.94609c-0.39643,0.4193 -0.37789,1.08058 0.04141,1.47701c0.4193,0.39643 1.08058,0.37789 1.47701,-0.04141c0.39643,-0.4193 0.37789,-1.08058 -0.04141,-1.47701c-0.4193,-0.39643 -1.08058,-0.37789 -1.47701,0.04141zM257.66419,177.50448c-0.39643,0.4193 -0.37789,1.08058 0.04141,1.47701c0.4193,0.39643 1.08058,0.37789 1.47701,-0.04141c0.39643,-0.4193 0.37789,-1.08058 -0.04141,-1.47701c-0.4193,-0.39643 -1.08058,-0.37789 -1.47701,0.04141zM260.97921,172.87047c-0.39643,0.4193 -0.37789,1.08058 0.04141,1.47701c0.4193,0.39643 1.08058,0.37789 1.47701,-0.04141c0.39643,-0.4193 0.37789,-1.08058 -0.04141,-1.47701c-0.4193,-0.39643 -1.08058,-0.37789 -1.47701,0.04141zM235.3379,163.09794c-0.39643,0.4193 -0.37789,1.08058 0.04141,1.47701c0.4193,0.39643 1.08058,0.37789 1.47701,-0.04141c0.39643,-0.4193 0.37789,-1.08058 -0.04141,-1.47701c-0.4193,-0.39643 -1.08058,-0.37789 -1.47701,0.04141zM226.72935,193.95233c-0.39643,0.4193 -0.37789,1.08058 0.04141,1.47701c0.4193,0.39643 1.08058,0.37789 1.47701,-0.04141c0.39643,-0.4193 0.37789,-1.08058 -0.04141,-1.47701c-0.4193,-0.39643 -1.08058,-0.37789 -1.47701,0.04141zM234.0686,204.39458c-0.39643,0.4193 -0.37789,1.08058 0.04141,1.47701c0.4193,0.39643 1.08058,0.37789 1.47701,-0.04141c0.39643,-0.4193 0.37789,-1.08058 -0.04141,-1.47701c-0.4193,-0.39643 -1.08058,-0.37789 -1.47701,0.04141zM224.62805,177.64775c-0.39643,0.4193 -0.37789,1.08058 0.04141,1.47701c0.4193,0.39643 1.08058,0.37789 1.47701,-0.04141c0.39643,-0.4193 0.37789,-1.08058 -0.04141,-1.47701c-0.4193,-0.39643 -1.08058,-0.37789 -1.47701,0.04141zM246.99092,165.43323c-0.39643,0.4193 -0.37789,1.08058 0.04141,1.47701c0.4193,0.39643 1.08058,0.37789 1.47701,-0.04141c0.39643,-0.4193 0.37789,-1.08058 -0.04141,-1.47701c-0.4193,-0.39643 -1.08058,-0.37789 -1.47701,0.04141zM216.74337,175.67658c-0.39643,0.4193 -0.37789,1.08058 0.04141,1.47701c0.4193,0.39643 1.08058,0.37789 1.47701,-0.04141c0.39643,-0.4193 0.37789,-1.08058 -0.04141,-1.47701c-0.4193,-0.39643 -1.08058,-0.37789 -1.47701,0.04141zM218.43962,180.32668c-0.39643,0.4193 -0.37789,1.08058 0.04141,1.47701c0.4193,0.39643 1.08058,0.37789 1.47701,-0.04141c0.39643,-0.4193 0.37789,-1.08058 -0.04141,-1.47701c-0.4193,-0.39643 -1.08058,-0.37789 -1.47701,0.04141zM254.80687,178.91559c-0.39643,0.4193 -0.37789,1.08058 0.04141,1.47701c0.4193,0.39643 1.08058,0.37789 1.47701,-0.04141c0.39643,-0.4193 0.37789,-1.08058 -0.04141,-1.47701c-0.4193,-0.39643 -1.08058,-0.37789 -1.47701,0.04141zM222.57937,196.73069c-0.39643,0.4193 -0.37789,1.08058 0.04141,1.47701c0.4193,0.39643 1.08058,0.37789 1.47701,-0.04141c0.39643,-0.4193 0.37789,-1.08058 -0.04141,-1.47701c-0.4193,-0.39643 -1.08058,-0.37789 -1.47701,0.04141zM250.8075,175.89595c-0.39643,0.4193 -0.37789,1.08058 0.04141,1.47701c0.4193,0.39643 1.08058,0.37789 1.47701,-0.04141c0.39643,-0.4193 0.37789,-1.08058 -0.04141,-1.47701c-0.4193,-0.39643 -1.08058,-0.37789 -1.47701,0.04141zM253.46888,173.08104c-0.39643,0.4193 -0.37789,1.08058 0.04141,1.47701c0.4193,0.39643 1.08058,0.37789 1.47701,-0.04141c0.39643,-0.4193 0.37789,-1.08058 -0.04141,-1.47701c-0.4193,-0.39643 -1.08058,-0.37789 -1.47701,0.04141zM243.68464,203.89009c-0.39643,0.4193 -0.37789,1.08058 0.04141,1.47701c0.4193,0.39643 1.08058,0.37789 1.47701,-0.04141c0.39643,-0.4193 0.37789,-1.08058 -0.04141,-1.47701c-0.4193,-0.39643 -1.08058,-0.37789 -1.47701,0.04141zM257.43462,172.10861c-0.39643,0.4193 -0.37789,1.08058 0.04141,1.47701c0.4193,0.39643 1.08058,0.37789 1.47701,-0.04141c0.39643,-0.4193 0.37789,-1.08058 -0.04141,-1.47701c-0.4193,-0.39643 -1.08058,-0.37789 -1.47701,0.04141zM229.57354,158.5619c-0.39643,0.4193 -0.37789,1.08058 0.04141,1.47701c0.4193,0.39643 1.08058,0.37789 1.47701,-0.04141c0.39643,-0.4193 0.37789,-1.08058 -0.04141,-1.47701c-0.4193,-0.39643 -1.08058,-0.37789 -1.47701,0.04141zM237.90421,204.36533c-0.39643,0.4193 -0.37789,1.08058 0.04141,1.47701c0.4193,0.39643 1.08058,0.37789 1.47701,-0.04141c0.39643,-0.4193 0.37789,-1.08058 -0.04141,-1.47701c-0.4193,-0.39643 -1.08058,-0.37789 -1.47701,0.04141zM253.87539,181.99518c-0.39643,0.4193 -0.37789,1.08058 0.04141,1.47701c0.4193,0.39643 1.08058,0.37789 1.47701,-0.04141c0.39643,-0.4193 0.37789,-1.08058 -0.04141,-1.47701c-0.4193,-0.39643 -1.08058,-0.37789 -1.47701,0.04141zM220.80855,172.66572c-0.39643,0.4193 -0.37789,1.08058 0.04141,1.47701c0.4193,0.39643 1.08058,0.37789 1.47701,-0.04141c0.39643,-0.4193 0.37789,-1.08058 -0.04141,-1.47701c-0.4193,-0.39643 -1.08058,-0.37789 -1.47701,0.04141z" data-paper-data="{&quot;index&quot;:null}" fill="url(#color-2)"/></g></g></svg>