<svg version="1.1" xmlns="http://www.w3.org/2000/svg" xmlns:xlink="http://www.w3.org/1999/xlink" width="96.12442" height="85.93324" viewBox="0,0,96.12442,85.93324"><g transform="translate(-201.97528,-143.97301)"><g data-paper-data="{&quot;isPaintingLayer&quot;:true}" fill="#b1b1b1" fill-rule="nonzero" stroke="#000000" stroke-width="1.5" stroke-linecap="butt" stroke-linejoin="miter" stroke-miterlimit="10" stroke-dasharray="" stroke-dashoffset="0" style="mix-blend-mode: normal"><path d="M215.29688,170.01519l33.10992,-10.67711l4.60925,14.30724l-33.10991,10.67708z" data-paper-data="{&quot;index&quot;:null}"/><path d="M247.51132,229.14396l-0.60705,-36.75732l18.24048,-0.30125l0.60705,36.75732z"/><path d="M203.00461,212.86071l31.92447,-19.21177l9.53369,15.84221l-31.92447,19.21177z"/><path d="M226.35879,190.7869l22.60206,-28.04191l22.36932,18.02989l-22.60207,28.04192c0,0 -5.78656,-4.66402 -9.10656,-7.33998c-4.0066,-3.22937 -13.26274,-10.68991 -13.26274,-10.68991z"/><path d="M282.4185,170.82612c-5.34074,6.62614 -15.38838,7.38884 -22.442,1.70353c-7.05365,-5.68531 -8.44221,-15.66572 -3.10147,-22.29184c5.34074,-6.62614 15.38837,-7.38883 22.442,-1.70352c7.05365,5.68531 8.44222,15.66571 3.10147,22.29184z" data-paper-data="{&quot;index&quot;:null}"/><path d="M290.28642,211.83496l-31.01504,-15.75862l6.8051,-13.40273l31.01503,15.75863z" data-paper-data="{&quot;index&quot;:null}"/></g></g></svg>