<svg version="1.1" xmlns="http://www.w3.org/2000/svg" xmlns:xlink="http://www.w3.org/1999/xlink" width="481.34493" height="277.30008" viewBox="0,0,481.34493,277.30008"><defs><linearGradient x1="240.14336" y1="254.32374" x2="240.14336" y2="194.87315" gradientUnits="userSpaceOnUse" id="color-1"><stop offset="0" stop-color="#424242"/><stop offset="1" stop-color="#424242" stop-opacity="0"/></linearGradient><linearGradient x1="240.14336" y1="101.786" x2="240.14336" y2="129.16457" gradientUnits="userSpaceOnUse" id="color-2"><stop offset="0" stop-color="#565656"/><stop offset="1" stop-color="#565656" stop-opacity="0"/></linearGradient></defs><g transform="translate(0.00579,22.26172)"><g data-paper-data="{&quot;isPaintingLayer&quot;:true}" fill-rule="nonzero" stroke-linecap="butt" stroke-linejoin="miter" stroke-miterlimit="10" stroke-dasharray="" stroke-dashoffset="0" style="mix-blend-mode: normal"><text transform="translate(164,15.41665) scale(0.80336,0.80336)" font-size="40" xml:space="preserve" fill="#ffffff" fill-rule="nonzero" stroke="#929292" stroke-width="4" stroke-linecap="butt" stroke-linejoin="miter" stroke-miterlimit="10" stroke-dasharray="" stroke-dashoffset="0" font-family="Sans Serif" font-weight="normal" text-anchor="start" style="mix-blend-mode: normal"><tspan x="0" dy="0">SCEngine</tspan></text><path d="" fill="#d9d9d9" stroke="#000000" stroke-width="1"/><path d="" fill="none" stroke="#000000" stroke-width="1"/><path d="" fill="#d9d9d9" stroke="#000000" stroke-width="1"/><path d="" fill="none" stroke="#000000" stroke-width="1"/><path d="" fill="#d9d9d9" stroke="#000000" stroke-width="1"/><path d="" fill="none" stroke="#000000" stroke-width="1"/><path d="" fill="#d9d9d9" stroke="#000000" stroke-width="1"/><g fill="#b1b1b1" stroke="#616161" stroke-width="0.5"><g><g><g><path d="M0.24421,103.94252v-2.36995h48.45228v2.36995z"/><path d="M0.24423,106.28558v-2.36995h48.45228v2.36995z"/><path d="M96.88316,103.91563v2.36995h-48.45228v-2.36995z" data-paper-data="{&quot;index&quot;:null}"/><path d="M96.88316,101.57257v2.36995h-48.45228v-2.36995z" data-paper-data="{&quot;index&quot;:null}"/></g><g><path d="M95.59227,103.94252v-2.36995h48.45228v2.36995z"/><path d="M95.59229,106.28558v-2.36995h48.45228v2.36995z"/><path d="M192.23121,103.91563v2.36995h-48.45228v-2.36995z" data-paper-data="{&quot;index&quot;:null}"/><path d="M192.23121,101.57257v2.36995h-48.45228v-2.36995z" data-paper-data="{&quot;index&quot;:null}"/></g></g><g><g><path d="M191.9656,103.94252v-2.36995h48.45228v2.36995z"/><path d="M191.96561,106.28558v-2.36995h48.45228v2.36995z"/><path d="M288.60451,103.91563v2.36995h-48.45228v-2.36995z" data-paper-data="{&quot;index&quot;:null}"/><path d="M288.60451,101.57257v2.36995h-48.45228v-2.36995z" data-paper-data="{&quot;index&quot;:null}"/></g><g><path d="M287.31362,103.94252v-2.36995h48.45228v2.36995z"/><path d="M287.31364,106.28558v-2.36995h48.45228v2.36995z"/><path d="M383.95256,103.91563v2.36995h-48.45228v-2.36995z" data-paper-data="{&quot;index&quot;:null}"/><path d="M383.95256,101.57257v2.36995h-48.45228v-2.36995z" data-paper-data="{&quot;index&quot;:null}"/></g></g></g><path d="M384.29652,103.94252v-2.36995h48.45228v2.36995z"/><path d="M384.29653,106.28558v-2.36995h48.45228v2.36995z"/><path d="M480.93545,103.91563v2.36995h-48.45228v-2.36995z" data-paper-data="{&quot;index&quot;:null}"/><path d="M480.93545,101.57256v2.36995h-48.45228v-2.36995z" data-paper-data="{&quot;index&quot;:null}"/></g><g fill="#b1b1b1" stroke="#616161" stroke-width="0.5"><g><g><g><path d="M0.24421,111.76306v-5.99049h48.45228v5.99049z"/><path d="M0.24423,117.68556v-5.99049h48.45228v5.99049z"/><path d="M96.88316,111.69509v5.99049h-48.45228v-5.99049z" data-paper-data="{&quot;index&quot;:null}"/><path d="M96.88316,105.77257v5.99049h-48.45228v-5.99049z" data-paper-data="{&quot;index&quot;:null}"/></g><g><path d="M95.59227,111.76306v-5.99049h48.45228v5.99049z"/><path d="M95.59229,117.68556v-5.99049h48.45228v5.99049z"/><path d="M192.23121,111.69507v5.99049h-48.45228v-5.99049z" data-paper-data="{&quot;index&quot;:null}"/><path d="M192.23121,105.77257v5.99049h-48.45228v-5.99049z" data-paper-data="{&quot;index&quot;:null}"/></g></g><g><g><path d="M191.9656,111.76306v-5.99049h48.45228v5.99049z"/><path d="M191.96561,117.68556v-5.99049h48.45228v5.99049z"/><path d="M288.60451,111.69507v5.99049h-48.45228v-5.99049z" data-paper-data="{&quot;index&quot;:null}"/><path d="M288.60451,105.77257v5.99049h-48.45228v-5.99049z" data-paper-data="{&quot;index&quot;:null}"/></g><g><path d="M287.31362,111.76306v-5.99049h48.45228v5.99049z"/><path d="M287.31364,117.68556v-5.99049h48.45228v5.99049z"/><path d="M383.95256,111.69507v5.99049h-48.45228v-5.99049z" data-paper-data="{&quot;index&quot;:null}"/><path d="M383.95256,105.77257v5.99049h-48.45228v-5.99049z" data-paper-data="{&quot;index&quot;:null}"/></g></g></g><path d="M384.29652,111.76306v-5.99049h48.45228v5.99049z"/><path d="M384.29653,117.68556v-5.99049h48.45228v5.99049z"/><path d="M480.93545,111.69507v5.99049h-48.45228v-5.99049z" data-paper-data="{&quot;index&quot;:null}"/><path d="M480.93545,105.77256v5.99049h-48.45228v-5.99049z" data-paper-data="{&quot;index&quot;:null}"/></g><g fill="#b1b1b1" stroke="#616161" stroke-width="0.5"><g><g><g><path d="M0.24421,127.89641v-10.35138h48.45228v10.35138z"/><path d="M0.24423,138.13029v-10.35138h48.45228v10.35138z"/><path d="M96.88316,127.77893v10.35138h-48.45228v-10.35138z" data-paper-data="{&quot;index&quot;:null}"/><path d="M96.88316,117.54503v10.35138h-48.45228v-10.35138z" data-paper-data="{&quot;index&quot;:null}"/></g><g><path d="M95.59227,127.89641v-10.35138h48.45228v10.35138z"/><path d="M95.59229,138.13029v-10.35138h48.45228v10.35138z"/><path d="M192.23121,127.77892v10.35138h-48.45228v-10.35138z" data-paper-data="{&quot;index&quot;:null}"/><path d="M192.23121,117.54503v10.35138h-48.45228v-10.35138z" data-paper-data="{&quot;index&quot;:null}"/></g></g><g><g><path d="M191.9656,127.89641v-10.35138h48.45228v10.35138z"/><path d="M191.96561,138.13029v-10.35138h48.45228v10.35138z"/><path d="M288.60451,127.77892v10.35138h-48.45228v-10.35138z" data-paper-data="{&quot;index&quot;:null}"/><path d="M288.60451,117.54503v10.35138h-48.45228v-10.35138z" data-paper-data="{&quot;index&quot;:null}"/></g><g><path d="M287.31362,127.89641v-10.35138h48.45228v10.35138z"/><path d="M287.31364,138.13029v-10.35138h48.45228v10.35138z"/><path d="M383.95256,127.77892v10.35138h-48.45228v-10.35138z" data-paper-data="{&quot;index&quot;:null}"/><path d="M383.95256,117.54503v10.35138h-48.45228v-10.35138z" data-paper-data="{&quot;index&quot;:null}"/></g></g></g><path d="M384.29652,127.89641v-10.35138h48.45228v10.35138z"/><path d="M384.29653,138.13029v-10.35138h48.45228v10.35138z"/><path d="M480.93545,127.77892v10.35138h-48.45228v-10.35138z" data-paper-data="{&quot;index&quot;:null}"/><path d="M480.93545,117.54502v10.35138h-48.45228v-10.35138z" data-paper-data="{&quot;index&quot;:null}"/></g><g fill="#b1b1b1" stroke="#616161" stroke-width="0.5"><g><g><g><path d="M0.24422,152.93551v-14.91288h48.45228v14.91288z"/><path d="M0.24423,167.67916v-14.91288h48.45228v14.91288z"/><path d="M96.88317,152.76627v14.91288h-48.45228v-14.91288z" data-paper-data="{&quot;index&quot;:null}"/><path d="M96.88317,138.02264v14.91288h-48.45228v-14.91288z" data-paper-data="{&quot;index&quot;:null}"/></g><g><path d="M95.59227,152.93551v-14.91288h48.45228v14.91288z"/><path d="M95.59229,167.67916v-14.91288h48.45228v14.91288z"/><path d="M192.23121,152.76627v14.91288h-48.45228v-14.91288z" data-paper-data="{&quot;index&quot;:null}"/><path d="M192.23121,138.02262v14.91288h-48.45228v-14.91288z" data-paper-data="{&quot;index&quot;:null}"/></g></g><g><g><path d="M191.96559,152.93551v-14.91288h48.45228v14.91288z"/><path d="M191.9656,167.67916v-14.91288h48.45227v14.91288z"/><path d="M288.60451,152.76627v14.91288h-48.45228v-14.91288z" data-paper-data="{&quot;index&quot;:null}"/><path d="M288.60451,138.02262v14.91288h-48.45228v-14.91288z" data-paper-data="{&quot;index&quot;:null}"/></g><g><path d="M287.31362,152.93551v-14.91288h48.45227v14.91288z"/><path d="M287.31362,167.67914v-14.91288h48.45227v14.91288z"/><path d="M383.95255,152.76627v14.91288h-48.45227v-14.91288z" data-paper-data="{&quot;index&quot;:null}"/><path d="M383.95255,138.02262v14.91288h-48.45227v-14.91288z" data-paper-data="{&quot;index&quot;:null}"/></g></g></g><path d="M384.29651,152.93551v-14.91288h48.45227v14.91288z"/><path d="M384.29652,167.67914v-14.91288h48.45227v14.91288z"/><path d="M480.93544,152.76627v14.91288h-48.45227v-14.91288z" data-paper-data="{&quot;index&quot;:null}"/><path d="M480.93544,138.02262v14.91288h-48.45227v-14.91288z" data-paper-data="{&quot;index&quot;:null}"/></g><g fill="#b1b1b1" stroke="#616161" stroke-width="0.5"><g><g><g><path d="M0.39791,188.71441v-21.16678h48.45228v21.16678z"/><path d="M0.39793,209.64095v-21.16677h48.45228v21.16677z"/><path d="M97.03687,188.47417v21.16677h-48.45228v-21.16677z" data-paper-data="{&quot;index&quot;:null}"/><path d="M97.03687,167.54763v21.16678h-48.45228v-21.16678z" data-paper-data="{&quot;index&quot;:null}"/></g><g><path d="M95.74597,188.71441v-21.16678h48.45228v21.16678z"/><path d="M95.74598,209.64095v-21.16678h48.45228v21.16678z"/><path d="M192.3849,188.47417v21.16678h-48.45228v-21.16678z" data-paper-data="{&quot;index&quot;:null}"/><path d="M192.3849,167.54763v21.16678h-48.45228v-21.16678z" data-paper-data="{&quot;index&quot;:null}"/></g></g><g><g><path d="M192.11929,188.71441v-21.16678h48.45228v21.16678z"/><path d="M192.1193,209.64095v-21.16678h48.45228v21.16678z"/><path d="M288.75818,188.47417v21.16678h-48.45228v-21.16678z" data-paper-data="{&quot;index&quot;:null}"/><path d="M288.75818,167.54763v21.16678h-48.45228v-21.16678z" data-paper-data="{&quot;index&quot;:null}"/></g><g><path d="M287.46729,188.71441v-21.16678h48.45228v21.16678z"/><path d="M287.46733,209.64094v-21.16677h48.45228v21.16677z"/><path d="M384.10625,188.47417v21.16677h-48.45228v-21.16677z" data-paper-data="{&quot;index&quot;:null}"/><path d="M384.10625,167.54761v21.16678h-48.45228v-21.16678z" data-paper-data="{&quot;index&quot;:null}"/></g></g></g><path d="M384.45021,188.71441v-21.16678h48.45228v21.16678z"/><path d="M384.45022,209.64094v-21.16677h48.45228v21.16677z"/><path d="M481.08914,188.47417v21.16677h-48.45228v-21.16677z" data-paper-data="{&quot;index&quot;:null}"/><path d="M481.08914,167.54761v21.16678h-48.45228v-21.16678z" data-paper-data="{&quot;index&quot;:null}"/></g><g fill="#b1b1b1" stroke="#616161" stroke-width="0.5"><g><g><g><path d="M0.39791,232.24489v-22.80227h48.45228v22.80227z"/><path d="M0.39793,254.78837v-22.80227h48.45228v22.80227z"/><path d="M97.03687,231.9861v22.80227h-48.45228v-22.80227z" data-paper-data="{&quot;index&quot;:null}"/><path d="M97.03687,209.44262v22.80227h-48.45228v-22.80227z" data-paper-data="{&quot;index&quot;:null}"/></g><g><path d="M95.74597,232.24489v-22.80227h48.45228v22.80227z"/><path d="M95.74598,254.78837v-22.80227h48.45228v22.80227z"/><path d="M192.3849,231.9861v22.80227h-48.45228v-22.80227z" data-paper-data="{&quot;index&quot;:null}"/><path d="M192.3849,209.44261v22.80227h-48.45228v-22.80227z" data-paper-data="{&quot;index&quot;:null}"/></g></g><g><g><path d="M192.11927,232.24489v-22.80227h48.45228v22.80227z"/><path d="M192.11929,254.78837v-22.80227h48.45227v22.80227z"/><path d="M288.75818,231.9861v22.80227h-48.45228v-22.80227z" data-paper-data="{&quot;index&quot;:null}"/><path d="M288.75818,209.44261v22.80227h-48.45228v-22.80227z" data-paper-data="{&quot;index&quot;:null}"/></g><g><path d="M287.46729,232.24489v-22.80227h48.45227v22.80227z"/><path d="M287.46729,254.78837v-22.80227h48.45227v22.80227z"/><path d="M384.10624,231.9861v22.80227h-48.45227v-22.80227z" data-paper-data="{&quot;index&quot;:null}"/><path d="M384.10624,209.44261v22.80227h-48.45227v-22.80227z" data-paper-data="{&quot;index&quot;:null}"/></g></g></g><path d="M384.4502,232.24489v-22.80227h48.45227v22.80227z"/><path d="M384.45021,254.78835v-22.80227h48.45227v22.80227z"/><path d="M481.08913,231.98608v22.80227h-48.45227v-22.80227z" data-paper-data="{&quot;index&quot;:null}"/><path d="M481.08913,209.44258v22.80227h-48.45227v-22.80227z" data-paper-data="{&quot;index&quot;:null}"/></g><path d="M480.29249,194.87315v59.4506h-480.29827v-59.4506z" data-paper-data="{&quot;index&quot;:null}" fill="url(#color-1)" stroke="#616161" stroke-width="0"/><path d="M-0.00578,129.16457v-27.37857h480.29827v27.37857z" fill="url(#color-2)" stroke="#616161" stroke-width="0"/><text transform="translate(175,12.41666) scale(0.80336,0.80336)" font-size="40" xml:space="preserve" fill="#ffffff" fill-rule="nonzero" stroke="#000000" stroke-width="1" stroke-linecap="butt" stroke-linejoin="miter" stroke-miterlimit="10" stroke-dasharray="" stroke-dashoffset="0" font-family="Sans Serif" font-weight="normal" text-anchor="start" style="mix-blend-mode: normal"><tspan x="0" dy="0">SCEngine</tspan></text></g></g></svg>