<svg version="1.1" xmlns="http://www.w3.org/2000/svg" xmlns:xlink="http://www.w3.org/1999/xlink" width="54.6634" height="109.23432" viewBox="0,0,54.6634,109.23432"><g transform="translate(-219.58201,-123.76166)"><g data-paper-data="{&quot;isPaintingLayer&quot;:true}" fill="#b1b1b1" fill-rule="nonzero" stroke="#000000" stroke-width="1.5" stroke-linecap="butt" stroke-linejoin="miter" stroke-miterlimit="10" stroke-dasharray="" stroke-dashoffset="0" style="mix-blend-mode: normal"><path d="M254.60058,124.71033l11.01381,32.99945l-14.25954,4.75473l-11.0138,-32.99944z" data-paper-data="{&quot;index&quot;:null}"/><path d="M245.71101,220.61097l10.06133,-35.3587l17.54643,4.99284l-10.06133,35.3587z"/><path d="M226.94247,226.66876l10.86393,-35.64041l17.68623,5.39113l-10.86393,35.64041z"/><path d="M235.6232,199.49177l-9.34571,-34.78303l27.74677,-7.45517l9.34572,34.78305c0,0 -7.17763,1.92852 -11.29574,3.035c-4.96977,1.33531 -16.45104,4.42016 -16.45104,4.42016z"/><path d="M252.51674,142.43275c2.20835,8.21903 -3.09414,16.78759 -11.84345,19.1384c-8.7493,2.35082 -17.63222,-2.40632 -19.84056,-10.62535c-2.20835,-8.21903 3.09414,-16.78759 11.84345,-19.1384c8.7493,-2.35082 17.63222,2.40631 19.84056,10.62535z" data-paper-data="{&quot;index&quot;:null}"/><path d="M239.72258,128.29822l4.61588,34.48131l-14.89792,1.99864l-4.61588,-34.48131z" data-paper-data="{&quot;index&quot;:null}"/></g></g></svg>