<svg version="1.1" xmlns="http://www.w3.org/2000/svg" xmlns:xlink="http://www.w3.org/1999/xlink" width="57.21764" height="100.42547" viewBox="0,0,57.21764,100.42547"><g transform="translate(-211.61795,-131.99669)"><g data-paper-data="{&quot;isPaintingLayer&quot;:true}" fill="#b1b1b1" fill-rule="nonzero" stroke="#000000" stroke-width="1.5" stroke-linecap="butt" stroke-linejoin="miter" stroke-miterlimit="10" stroke-dasharray="" stroke-dashoffset="0" style="mix-blend-mode: normal"><path d="M261.34915,203.72726l-31.38763,-15.0028l6.48617,-13.55993l31.3876,15.00282z" data-paper-data="{&quot;index&quot;:null}"/><path d="M241.8318,226.99755v-36.76232h18.24296v36.76232z"/><path d="M212.61452,223.61749l15.73451,-33.77409l16.76008,7.80811l-15.73451,33.77409z"/><path d="M224.19681,196.76082l2.9736,-35.89372l28.63279,2.37206l-2.9736,35.89374c0,0 -7.40683,-0.61362 -11.65642,-0.96568c-5.12847,-0.42487 -16.97635,-1.4064 -16.97635,-1.4064z"/><path d="M258.78748,148.15638c0,8.51054 -7.34426,15.4097 -16.40387,15.4097c-9.05961,0 -16.40387,-6.89916 -16.40387,-15.4097c0,-8.51054 7.34426,-15.40969 16.40387,-15.40969c9.05961,0 16.40387,6.89915 16.40387,15.4097z" data-paper-data="{&quot;index&quot;:null}"/><path d="M264.52735,182.78051l-32.66882,11.95888l-5.17113,-14.11389l32.66883,-11.95887z" data-paper-data="{&quot;index&quot;:null}"/></g></g></svg>