<svg version="1.1" xmlns="http://www.w3.org/2000/svg" xmlns:xlink="http://www.w3.org/1999/xlink" width="93.77338" height="99.15895" viewBox="0,0,93.77338,99.15895"><g transform="translate(-196.32784,-131.28984)"><g data-paper-data="{&quot;isPaintingLayer&quot;:true}" fill="#b1b1b1" fill-rule="nonzero" stroke="#000000" stroke-width="1.5" stroke-linecap="butt" stroke-linejoin="miter" stroke-miterlimit="10" stroke-dasharray="" stroke-dashoffset="0" style="mix-blend-mode: normal"><path d="M246.26274,229.60607l-4.9344,-36.93122l18.32679,-2.44865l4.9344,36.93122z"/><path d="M289.32921,173.9488l-34.77375,1.02621l-0.44766,-15.02471l34.77376,-1.0262z" data-paper-data="{&quot;index&quot;:null}"/><path d="M221.09817,228.74897v-36.76232h18.24296v36.76232z"/><path d="M228.61059,199.12306l-2.58718,-35.92365l28.65665,-2.06382l2.58719,35.92366c0,0 -7.413,0.53388 -11.66615,0.84018c-5.13275,0.36966 -16.99051,1.22363 -16.99051,1.22363z"/><path d="M254.58757,149.61177c-1.11172,8.43762 -9.29428,14.31829 -18.27626,13.13484c-8.98198,-1.18344 -15.36208,-8.98286 -14.25036,-17.42048c1.11172,-8.43762 9.29428,-14.31828 18.27626,-13.13483c8.98198,1.18344 15.36208,8.98285 14.25036,17.42048z" data-paper-data="{&quot;index&quot;:null}"/><path d="M203.10802,156.28371l32.09968,13.41184l-5.79884,13.86779l-32.09966,-13.41185z" data-paper-data="{&quot;index&quot;:null}"/></g></g></svg>