<svg version="1.1" xmlns="http://www.w3.org/2000/svg" xmlns:xlink="http://www.w3.org/1999/xlink" width="70.87266" height="86.81343" viewBox="0,0,70.87266,86.81343"><g transform="translate(-207.50704,-143.4299)"><g data-paper-data="{&quot;isPaintingLayer&quot;:true}" fill="#b1b1b1" fill-rule="nonzero" stroke="#000000" stroke-width="1.5" stroke-linecap="butt" stroke-linejoin="miter" stroke-miterlimit="10" stroke-dasharray="" stroke-dashoffset="0" style="mix-blend-mode: normal"><path d="M244.33593,198.16191l-23.84127,-25.33496l10.9495,-10.29809l23.84125,25.33497z" data-paper-data="{&quot;index&quot;:null}"/><path d="M208.55897,218.05011l22.4514,-29.11019l14.44566,11.1413l-22.4514,29.11019z"/><path d="M224.02004,192.15597l18.16829,-31.09847l24.80756,14.49303l-18.1683,31.09848c0,0 -6.4173,-3.7491 -10.09918,-5.90013c-4.44333,-2.59587 -14.70839,-8.5929 -14.70839,-8.5929z"/><path d="M277.06913,162.19213c-1.33585,8.40505 -9.67199,14.0659 -18.6193,12.64387c-8.94731,-1.42203 -15.11761,-9.38846 -13.78176,-17.79351c1.33585,-8.40505 9.67199,-14.06589 18.6193,-12.64386c8.94731,1.42203 15.11761,9.38845 13.78176,17.79351z" data-paper-data="{&quot;index&quot;:null}"/><path d="M248.98763,228.4065v-37.25941h18.48964v37.25941z"/><path d="M277.43758,191.34039l-33.15491,10.53655l-4.55663,-14.32408l33.15491,-10.53654z" data-paper-data="{&quot;index&quot;:null}"/></g></g></svg>