<svg version="1.1" xmlns="http://www.w3.org/2000/svg" xmlns:xlink="http://www.w3.org/1999/xlink" width="71.89881" height="87.1692" viewBox="0,0,71.89881,87.1692"><g transform="translate(-204.09102,-142.79051)"><g data-paper-data="{&quot;isPaintingLayer&quot;:true}" fill="#b1b1b1" fill-rule="nonzero" stroke="#000000" stroke-width="1.5" stroke-linecap="butt" stroke-linejoin="miter" stroke-miterlimit="10" stroke-dasharray="" stroke-dashoffset="0" style="mix-blend-mode: normal"><path d="M206.52751,203.82198l13.30244,-32.14517l13.88746,5.75158l-13.30244,32.14516z" data-paper-data="{&quot;index&quot;:null}"/><path d="M220.07871,226.61499l-4.39929,-36.49815l18.11187,-2.18312l4.39929,36.49815z"/><path d="M259.96839,228.91235l-21.8571,-30.17501l14.97408,-10.84639l21.8571,30.17501z"/><path d="M230.54326,205.09857l-13.81991,-33.25978l26.53165,-11.02428l13.81992,33.25979c0,0 -6.86331,2.85179 -10.80105,4.488c-4.75214,1.97458 -15.73059,6.53628 -15.73059,6.53628z"/><path d="M237.34265,156.57079c1.15987,8.43113 -5.1756,16.26684 -14.15068,17.50155c-8.97508,1.2347 -17.19108,-4.59916 -18.35095,-13.03029c-1.15987,-8.43113 5.1756,-16.26683 14.15068,-17.50154c8.97508,-1.2347 17.19107,4.59915 18.35095,13.03029z" data-paper-data="{&quot;index&quot;:null}"/><path d="M209.88424,202.28625l26.13237,-22.96446l9.91915,11.29394l-26.13237,22.96444z" data-paper-data="{&quot;index&quot;:null}"/></g></g></svg>