<svg version="1.1" xmlns="http://www.w3.org/2000/svg" xmlns:xlink="http://www.w3.org/1999/xlink" width="88.365" height="113.99009" viewBox="0,0,88.365,113.99009"><g transform="translate(-192.69506,-116.75958)"><g data-paper-data="{&quot;isPaintingLayer&quot;:true}" fill-rule="nonzero" stroke-linejoin="miter" stroke-miterlimit="10" stroke-dasharray="" stroke-dashoffset="0" style="mix-blend-mode: normal"><path d="M235.26264,228.22664l0.2094,-36.76172l18.24266,0.10392l-0.20941,36.76172z" fill="#9b6a16" stroke="#000000" stroke-width="1.5" stroke-linecap="butt"/><path d="M226.37211,229.89009l0.21224,-37.2588l18.48934,0.10533l-0.21224,37.2588z" fill="#9b6a16" stroke="#000000" stroke-width="1.5" stroke-linecap="butt"/><path d="M271.6473,183.28049l-34.46411,4.74248l-2.04487,-14.89163l34.46411,-4.74247z" data-paper-data="{&quot;index&quot;:null}" fill="#b1b1b1" stroke="#000000" stroke-width="1.5" stroke-linecap="butt"/><g stroke="#000000" stroke-linecap="butt"><path d="M226.3228,196.18942l0.20516,-36.01611l28.7304,0.16366l-0.20516,36.01612c0,0 -7.43208,-0.04234 -11.69617,-0.06663c-5.14595,-0.02931 -17.03423,-0.09703 -17.03423,-0.09703z" fill="#9b6a16" stroke-width="1.5"/><path d="M239.34586,167.2814c0.48054,1.37011 0.59376,2.68136 0.02567,4.02209c-0.32061,0.75665 -1.83583,1.04844 -1.6349,1.84528c0.73246,2.90473 -1.89081,4.31993 -4.58572,3.09793c-1.2271,-0.55641 -0.6787,-3.14098 -0.8869,-3.31372c-1.4155,-1.17445 -3.12231,-1.01389 -3.48221,-3.40928c-0.18365,-1.22224 1.50774,-4.35028 3.0984,-3.90671c0.20056,-0.05056 0.41072,-0.07686 0.62715,-0.07563c0.51361,0.00292 0.99017,0.16053 1.38575,0.42842c2.24397,0.27149 4.63915,-1.00816 5.45279,1.31162z" fill="#b1b1b1" stroke-width="1"/><path d="M252.20077,190.90115c-0.43987,0.5073 -6.57954,3.33917 -6.72268,3.33835c-3.76111,-0.02142 -6.41665,-5.63227 -3.65948,-8.24457c2.12626,-2.01456 4.97246,-0.74809 7.32865,-1.20539c0.1744,-0.03743 0.35551,-0.05665 0.54124,-0.05559c1.30999,0.00746 2.3789,1.02116 2.47822,2.30422c0.66207,1.32538 0.86188,2.90824 0.03404,3.86299z" fill="#b1b1b1" stroke-width="1"/></g><g><path d="M234.11639,157.29515l-14.56399,-3.54107l10.08182,-1.44609l-15.46778,-3.24551l11.2829,-1.13854l-16.0649,-4.00067l9.77258,0.05567l0.31184,-1.9528l-7.65572,-2.14854l9.92806,-0.84556l1.2199,-3.00009l1.97165,-2.9958l3.92872,-3.43572l6.03017,-2.82234l5.269,-1.1728l2.72253,-2.84118l3.01807,-1.93739l6.92797,-2.06546l6.61529,0.03768l-2.8686,2.08858l-2.11771,2.24321l-1.37112,3.14959l2.71139,-0.88666l4.96489,-0.57314l5.11181,0.02912l5.8567,1.23616l2.99496,2.12199l-3.60834,-0.02056l-5.42021,1.32229l-4.22086,1.93054l-2.86688,1.7879l-3.32648,3.28879l2.86345,-1.18651l2.40899,-0.58769l6.61186,0.63907l4.79484,2.884l-1.80674,0.44076l-4.97088,1.62556l-3.01551,1.48634l-2.71996,2.39015l-2.42525,3.44428l1.95965,-0.89096l2.85661,0.01628l3.446,2.12457l-1.80418,-0.01028l-3.46398,1.03273l-3.76468,1.03102l-2.86603,1.63754z" fill="#000000" stroke="#000000" stroke-width="4" stroke-linecap="round"/><path d="M257.73195,145.64649c-0.04847,8.5104 -7.43192,15.36762 -16.49139,15.31601c-9.05946,-0.0516 -16.3643,-6.99248 -16.31583,-15.50288c0.04847,-8.5104 7.43191,-15.36761 16.49138,-15.31601c9.05946,0.0516 16.36431,6.99248 16.31583,15.50289z" data-paper-data="{&quot;index&quot;:null}" fill="#b1b1b1" stroke="#000000" stroke-width="1.5" stroke-linecap="butt"/><path d="M238.53567,136.25457c0.05695,-0.02806 0.11286,-0.05457 0.16775,-0.0795c0.29114,-0.16369 0.62166,-0.26545 0.97357,-0.28752c0.11884,-0.01064 0.23241,-0.00941 0.34163,0.00377c1.17659,0.10005 2.09713,1.09015 2.09029,2.29127c0.31189,0.63285 -0.05544,1.10899 -0.56821,1.49559c-0.28485,0.32417 -0.65991,0.56696 -1.08566,0.6893c-0.17987,0.11511 -0.32641,0.2236 -0.40807,0.32947c-0.08814,0.11426 -0.18481,0.24341 -0.28922,0.3848c1.46174,1.37532 2.35444,2.82742 1.65357,3.86587c-0.42971,0.63668 -1.31286,0.87243 -2.06691,1.01879c-0.14694,0.02852 -1.15812,-0.54153 -2.39721,-1.28858c-1.50232,1.65524 -3.21929,2.96316 -4.66045,2.23229c-1.51814,-0.76991 -1.42038,-1.93403 -1.00509,-3.07353c0.07369,-0.20221 0.64826,-0.9061 1.44195,-1.80518c-0.45315,-0.29342 -0.78256,-0.5112 -0.91139,-0.60249c-0.12073,-0.05808 -0.23555,-0.12643 -0.34335,-0.20395c-0.58088,-0.41768 -0.95753,-1.10087 -0.95314,-1.87078c0.00639,-1.12293 0.82118,-2.05218 1.88953,-2.23922c0.08879,-0.02813 0.1826,-0.04516 0.28227,-0.04926c0.09456,-0.00388 0.20418,0.00463 0.32703,0.02468c0.2726,0.0251 0.53123,0.09802 0.7675,0.21023c0.655,0.2322 1.46855,0.62329 2.32191,1.11642c1.08575,-1.09746 1.99205,-1.93802 2.23741,-1.99788z" fill="#000000" stroke="none" stroke-width="0.5" stroke-linecap="butt"/><path d="M249.34092,137.16989c0.19899,0.05095 0.92827,0.74295 1.8011,1.64554c0.69858,-0.39315 1.36383,-0.70364 1.89867,-0.88643c0.1932,-0.08908 0.4042,-0.14596 0.62613,-0.16386c0.1001,-0.01517 0.18934,-0.02107 0.26621,-0.01704c0.08103,0.00426 0.15716,0.01897 0.22911,0.04268c0.86712,0.16201 1.52114,0.92529 1.51594,1.83857c-0.00357,0.62618 -0.31621,1.17833 -0.79249,1.51262c-0.08838,0.06204 -0.18241,0.11657 -0.28113,0.16268c-0.10563,0.07304 -0.37553,0.24712 -0.74677,0.48154c0.63715,0.73854 1.09789,1.31631 1.15596,1.48145c0.32717,0.93057 0.3959,1.8782 -0.84588,2.49026c-1.17882,0.58104 -2.56303,-0.49855 -3.76948,-1.85862c-1.01461,0.59606 -1.84227,1.0503 -1.9615,1.02575c-0.61188,-0.12599 -1.32794,-0.32593 -1.6715,-0.8477c-0.56036,-0.85103 0.17908,-2.0237 1.38059,-3.12865c-0.0836,-0.11596 -0.16102,-0.22187 -0.23165,-0.31562c-0.06544,-0.08685 -0.18359,-0.17646 -0.32881,-0.27173c-0.34512,-0.10344 -0.64789,-0.30437 -0.87654,-0.57064c-0.41343,-0.31915 -0.70775,-0.7098 -0.44825,-1.22158c0.00556,-0.9769 0.76337,-1.77359 1.72119,-1.84405c0.08894,-0.0097 0.18131,-0.00967 0.27786,0.0001c0.28599,0.02122 0.55385,0.10702 0.78912,0.24284c0.04441,0.02077 0.08962,0.04286 0.13568,0.06621z" data-paper-data="{&quot;index&quot;:null}" fill="#000000" stroke="none" stroke-width="0.5" stroke-linecap="butt"/><path d="M242.98164,156.40316c-2.47467,0.17619 -6.26651,0.28632 -8.24098,-1.61606c-0.45593,-0.43928 -0.46959,-1.9965 -0.38886,-2.60259c0.49613,-3.72477 4.71667,-3.22492 7.49117,-3.20912l0.02863,-0.01411c0.34845,-0.18093 0.74474,-0.2822 1.16463,-0.2798c0.09384,0.00053 0.18644,0.00623 0.27754,0.01682c7.4008,-0.87943 6.1783,7.24135 -0.33212,7.70487z" fill="#000000" stroke="none" stroke-width="0.5" stroke-linecap="butt"/><path d="M233.38386,127.52123l-4.87192,10.64725c0,0 -2.27399,2.61076 -2.42868,4.04568c-0.15469,1.43492 1.63498,3.31706 1.63498,3.31706c0,0 -1.91836,-0.05416 -2.68924,-0.38666c-0.56034,-0.24169 0.05327,-0.69812 -0.31346,-1.05814c-0.82017,-0.80517 -2.08083,-3.54577 -2.08083,-3.54577l3.17527,-3.13931" fill="none" stroke="#000000" stroke-width="4" stroke-linecap="round"/><path d="M229.74986,132.0111l-0.01969,3.45799l2.97782,5.12894l0.17518,-4.35922l1.52318,-3.44942l4.99229,-5.38425l15.34312,-1.26578l2.68485,3.77409l-1.83672,5.70293l-1.81787,2.39529l0.01713,-3.00693l-1.7819,-3.91931l-6.59986,-2.74393l2.22609,5.12465l-2.27919,4.19688l-1.7819,-3.9193l-3.59291,-2.72682l-3.29222,-2.7251z" fill="#000000" stroke="#000000" stroke-width="4" stroke-linecap="round"/></g><g stroke="#000000" stroke-width="1.5" stroke-linecap="butt"><path d="M257.29663,182.73492l-34.68201,2.72477l-1.18154,-14.98486l34.68202,-2.72475z" data-paper-data="{&quot;index&quot;:null}" fill="#b1b1b1"/><path d="M247.6166,183.49543l-25.00198,1.96426l-1.18154,-14.98486l24.22214,-1.90299z" data-paper-data="{&quot;index&quot;:null}" fill="#9b6a16"/><path d="M240.2503,179.00263c-1.34948,0.29199 -2.68015,-0.5653 -2.97215,-1.91478c-0.29199,-1.34948 0.56529,-2.68016 1.91477,-2.97215c1.34948,-0.29199 2.68016,0.5653 2.97215,1.91478c0.29199,1.34948 -0.56529,2.68016 -1.91477,2.97215z" fill="#b1b1b1"/><path d="M225.77888,180.18039c-0.55657,-2.0933 1.14076,-4.69213 3.33225,-4.97606c3.46198,-0.44851 3.02157,5.4786 0.86934,6.07096c-0.32874,0.33103 -0.7538,0.57396 -1.24377,0.67997c-1.2,0.25965 -2.38512,-0.38946 -2.83826,-1.48531c-0.0511,-0.08808 -0.09154,-0.18416 -0.11956,-0.28958z" fill="#b1b1b1"/></g></g></g></svg>