<svg version="1.1" xmlns="http://www.w3.org/2000/svg" xmlns:xlink="http://www.w3.org/1999/xlink" width="68.4744" height="96.23909" viewBox="0,0,68.4744,96.23909"><g transform="translate(-205.97981,-134.08963)"><g data-paper-data="{&quot;isPaintingLayer&quot;:true}" fill="#b1b1b1" fill-rule="nonzero" stroke="#000000" stroke-width="1.5" stroke-linecap="butt" stroke-linejoin="miter" stroke-miterlimit="10" stroke-dasharray="" stroke-dashoffset="0" style="mix-blend-mode: normal"><path d="M243.74816,195.09483l16.4473,-30.65539l13.24338,7.11021l-16.44731,30.65537z" data-paper-data="{&quot;index&quot;:null}"/><path d="M232.75821,217.98614l17.91443,-32.10205l15.93034,8.88987l-17.91443,32.10205z"/><path d="M207.02335,218.76154l21.20672,-30.63558l15.20262,10.52364l-21.20672,30.63558z"/><path d="M225.26465,195.5439l7.81709,-35.15814l28.046,6.23577l-7.81709,35.15815c0,0 -7.25504,-1.61309 -11.41755,-2.53859c-5.02337,-1.1169 -16.62845,-3.69718 -16.62845,-3.69718z"/><path d="M267.94208,153.8614c-1.84713,8.30767 -10.51372,13.44837 -19.35738,11.48207c-8.84365,-1.9663 -14.51545,-10.29501 -12.66831,-18.60268c1.84713,-8.30767 10.51372,-13.44836 19.35737,-11.48206c8.84365,1.9663 14.51545,10.295 12.66831,18.60268z" data-paper-data="{&quot;index&quot;:null}"/><path d="M207.43393,186.97502l19.6001,-28.74201l12.42107,8.46517l-19.60011,28.742z" data-paper-data="{&quot;index&quot;:null}"/></g></g></svg>