<svg version="1.1" xmlns="http://www.w3.org/2000/svg" xmlns:xlink="http://www.w3.org/1999/xlink" width="12.62472" height="12.87226" viewBox="0,0,12.62472,12.87226"><defs><radialGradient cx="240.13488" cy="180.21847" r="6.54555" gradientUnits="userSpaceOnUse" id="color-1"><stop offset="0" stop-color="#d900ff"/><stop offset="1" stop-color="#d900ff" stop-opacity="0"/></radialGradient><radialGradient cx="241.9151" cy="176.76493" r="3.74616" gradientUnits="userSpaceOnUse" id="color-2"><stop offset="0" stop-color="#d900ff"/><stop offset="1" stop-color="#d900ff" stop-opacity="0"/></radialGradient><radialGradient cx="241.4845" cy="184.49974" r="3.74616" gradientUnits="userSpaceOnUse" id="color-3"><stop offset="0" stop-color="#d900ff"/><stop offset="1" stop-color="#d900ff" stop-opacity="0"/></radialGradient><radialGradient cx="242.37716" cy="180.11904" r="6.54555" gradientUnits="userSpaceOnUse" id="color-4"><stop offset="0" stop-color="#d900ff"/><stop offset="1" stop-color="#d900ff" stop-opacity="0"/></radialGradient><radialGradient cx="236.47116" cy="181.04597" r="3.74616" gradientUnits="userSpaceOnUse" id="color-5"><stop offset="0" stop-color="#d900ff"/><stop offset="1" stop-color="#d900ff" stop-opacity="0"/></radialGradient></defs><g transform="translate(-233.66445,-173.94482)"><g data-paper-data="{&quot;isPaintingLayer&quot;:true}" fill-rule="nonzero" stroke="none" stroke-width="0" stroke-linecap="butt" stroke-linejoin="miter" stroke-miterlimit="10" stroke-dasharray="" stroke-dashoffset="0" style="mix-blend-mode: normal"><path d="M237.16411,183.52391c-2.15472,-1.18592 -2.5714,-3.62719 -0.93067,-5.45275c1.64071,-1.82554 4.71752,-2.34406 6.87224,-1.15815c0.01874,0.01032 0.03736,0.02072 0.05585,0.03124c-0.09377,0.01836 -0.18166,0.06362 -0.24353,0.13244c-0.13031,0.145 -0.09573,0.33971 0.07725,0.43493c0.17298,0.0952 0.41884,0.05485 0.54917,-0.09016c0.04875,-0.05425 0.07443,-0.11547 0.07841,-0.17582c0.63058,0.47224 1.0568,1.07117 1.26609,1.72308c-0.08136,-0.03538 -0.18861,-0.01438 -0.24713,0.05073c-0.06232,0.06935 -0.04579,0.16248 0.03695,0.20801c0.08273,0.04553 0.20033,0.02623 0.26264,-0.04312c0.00227,-0.00253 0.00443,-0.00508 0.0065,-0.00767c0.19203,0.77845 0.08251,1.61938 -0.34899,2.40313c-0.01069,-0.01123 -0.02373,-0.02129 -0.03905,-0.02972c-0.08273,-0.04553 -0.20032,-0.02623 -0.26264,0.04312c-0.06232,0.06935 -0.04579,0.16248 0.03695,0.20801c0.03525,0.0194 0.07683,0.02703 0.11777,0.02403c-0.11978,0.18473 -0.2582,0.36546 -0.41554,0.54052c-0.13161,0.14645 -0.27247,0.28448 -0.42135,0.41389c0.01147,-0.10475 -0.04252,-0.20834 -0.1547,-0.27008c-0.14809,-0.0815 -0.3496,-0.06365 -0.48629,0.03415c0.02849,-0.11582 -0.02433,-0.23565 -0.14866,-0.30408c-0.17298,-0.0952 -0.41884,-0.05485 -0.54916,0.09015c-0.13031,0.145 -0.09572,0.33971 0.07725,0.43493c0.14809,0.0815 0.3496,0.06365 0.48628,-0.03415c-0.02849,0.11582 0.02434,0.23565 0.14867,0.30408c0.07133,0.03925 0.15506,0.05547 0.23795,0.05078c-0.26001,0.18508 -0.53821,0.34734 -0.82951,0.48597c0.05026,-0.06772 0.03109,-0.15294 -0.04689,-0.19585c-0.08273,-0.04553 -0.20033,-0.02623 -0.26264,0.04311c-0.06232,0.06935 -0.04578,0.16247 0.03695,0.20801c0.02936,0.01616 0.06313,0.02417 0.09725,0.02465c-1.60046,0.69775 -3.55352,0.70031 -5.05739,-0.1274zM236.84807,180.02339c-0.17298,-0.0952 -0.41884,-0.05485 -0.54916,0.09015c-0.13031,0.145 -0.09572,0.33971 0.07725,0.43493c0.17298,0.0952 0.41884,0.05483 0.54916,-0.09016c0.13031,-0.145 0.09572,-0.33971 -0.07725,-0.43493zM236.83556,181.72624c-0.17298,-0.0952 -0.41884,-0.05485 -0.54916,0.09015c-0.13031,0.145 -0.09572,0.33971 0.07725,0.43493c0.17298,0.0952 0.41884,0.05483 0.54916,-0.09016c0.13031,-0.145 0.09573,-0.33971 -0.07725,-0.43493zM239.24652,180.46872c-0.17298,-0.0952 -0.41884,-0.05485 -0.54917,0.09016c-0.13031,0.145 -0.09572,0.33971 0.07725,0.43493c0.17298,0.0952 0.41884,0.05485 0.54917,-0.09016c0.13031,-0.145 0.09572,-0.33971 -0.07725,-0.43493zM241.08524,180.74513c-0.17298,-0.0952 -0.41884,-0.05485 -0.54917,0.09016c-0.13031,0.145 -0.09572,0.33971 0.07726,0.43493c0.17298,0.0952 0.41884,0.05485 0.54916,-0.09015c0.13031,-0.145 0.09573,-0.33971 -0.07725,-0.43493zM241.07248,178.09399c-0.17298,-0.0952 -0.41884,-0.05485 -0.54916,0.09015c-0.13031,0.145 -0.09573,0.33971 0.07725,0.43493c0.17298,0.0952 0.41884,0.05485 0.54916,-0.09015c0.13031,-0.145 0.09572,-0.33971 -0.07725,-0.43493zM239.04375,177.55396c-0.17298,-0.0952 -0.41884,-0.05485 -0.54916,0.09015c-0.13031,0.145 -0.09572,0.33971 0.07725,0.43493c0.17298,0.0952 0.41884,0.05483 0.54916,-0.09016c0.13031,-0.145 0.09573,-0.33971 -0.07725,-0.43493zM243.8729,179.75458c-0.17298,-0.0952 -0.41884,-0.05485 -0.54917,0.09016c-0.13031,0.145 -0.09573,0.33971 0.07725,0.43493c0.17298,0.0952 0.41884,0.05485 0.54917,-0.09016c0.13031,-0.145 0.09573,-0.33971 -0.07725,-0.43493zM240.39306,183.45784c0.00148,0.04401 0.02715,0.08582 0.07464,0.11196c0.08273,0.04553 0.20033,0.02623 0.26264,-0.04312c0.06232,-0.06935 0.04578,-0.16247 -0.03695,-0.20801c-0.06083,-0.03347 -0.14047,-0.03192 -0.20317,-0.00118c-0.00148,-0.04401 -0.02715,-0.08582 -0.07464,-0.11196c-0.08273,-0.04553 -0.20033,-0.02623 -0.26264,0.04312c-0.06232,0.06935 -0.04578,0.16248 0.03695,0.20801c0.06083,0.03347 0.14047,0.0319 0.20316,0.00117zM241.55652,177.19683c0.01211,0.01572 0.02835,0.02963 0.04851,0.04073c0.08273,0.04553 0.20032,0.02623 0.26264,-0.04312c0.06232,-0.06935 0.04578,-0.16248 -0.03695,-0.20801c-0.07881,-0.04338 -0.18925,-0.02792 -0.25342,0.0336c-0.01211,-0.01572 -0.02834,-0.02963 -0.0485,-0.04073c-0.08273,-0.04553 -0.20033,-0.02623 -0.26264,0.04311c-0.06232,0.06935 -0.04578,0.16248 0.03695,0.20801c0.07881,0.04338 0.18925,0.02792 0.25342,-0.0336zM240.44064,176.81778c-0.08273,-0.04553 -0.20033,-0.02623 -0.26264,0.04311c-0.06232,0.06935 -0.04578,0.16247 0.03695,0.20801c0.08273,0.04553 0.20033,0.02623 0.26264,-0.04311c0.06232,-0.06935 0.04578,-0.16247 -0.03695,-0.20801zM244.06176,180.60003c-0.08273,-0.04553 -0.20033,-0.02623 -0.26264,0.04311c-0.06232,0.06935 -0.04578,0.16247 0.03695,0.20801c0.08273,0.04553 0.20032,0.02623 0.26264,-0.04311c0.06232,-0.06935 0.04579,-0.16247 -0.03695,-0.20801zM237.94601,178.16841c-0.08273,-0.04553 -0.20033,-0.02623 -0.26264,0.04311c-0.06232,0.06935 -0.04578,0.16248 0.03695,0.20801c0.08273,0.04553 0.20033,0.02623 0.26264,-0.04311c0.06232,-0.06935 0.04578,-0.16248 -0.03695,-0.20801zM239.71527,183.61532c-0.08273,-0.04553 -0.20033,-0.02623 -0.26264,0.04311c-0.06232,0.06935 -0.04578,0.16248 0.03695,0.20801c0.08273,0.04553 0.20033,0.02623 0.26264,-0.04311c0.06232,-0.06935 0.04578,-0.16248 -0.03695,-0.20801zM240.62464,182.28682c-0.08273,-0.04553 -0.20033,-0.02623 -0.26264,0.04312c-0.06232,0.06935 -0.04578,0.16248 0.03695,0.20801c0.08273,0.04553 0.20033,0.02623 0.26264,-0.04312c0.06232,-0.06935 0.04578,-0.16248 -0.03695,-0.20801zM236.91369,180.9004c-0.08273,-0.04553 -0.20033,-0.02623 -0.26264,0.04311c-0.06232,0.06935 -0.04578,0.16248 0.03695,0.20801c0.08273,0.04553 0.20033,0.02623 0.26264,-0.04312c0.06232,-0.06935 0.04578,-0.16248 -0.03695,-0.20801zM243.27691,181.42055c-0.08273,-0.04553 -0.20033,-0.02623 -0.26264,0.04311c-0.06232,0.06935 -0.04579,0.16247 0.03695,0.20801c0.08273,0.04553 0.20033,0.02623 0.26264,-0.04312c0.06232,-0.06935 0.04578,-0.16247 -0.03695,-0.20801zM240.93355,182.65563c-0.08273,-0.04553 -0.20033,-0.02623 -0.26264,0.04312c-0.06232,0.06935 -0.04578,0.16248 0.03695,0.20801c0.08273,0.04553 0.20033,0.02623 0.26264,-0.04311c0.06232,-0.06935 0.04578,-0.16248 -0.03695,-0.20801zM240.05666,182.23266c-0.08273,-0.04553 -0.20033,-0.02623 -0.26264,0.04312c-0.06232,0.06935 -0.04578,0.16247 0.03695,0.20801c0.08273,0.04553 0.20033,0.02623 0.26264,-0.04312c0.06232,-0.06935 0.04578,-0.16248 -0.03695,-0.20801zM238.61879,182.11721c-0.08273,-0.04553 -0.20033,-0.02623 -0.26264,0.04311c-0.06232,0.06935 -0.04578,0.16247 0.03695,0.20801c0.08273,0.04553 0.20033,0.02623 0.26264,-0.04311c0.06232,-0.06935 0.04578,-0.16247 -0.03695,-0.20801zM242.39083,179.97859c-0.08273,-0.04553 -0.20032,-0.02623 -0.26264,0.04312c-0.06232,0.06935 -0.04579,0.16248 0.03695,0.20801c0.08273,0.04553 0.20033,0.02623 0.26264,-0.04311c0.06232,-0.06935 0.04578,-0.16248 -0.03695,-0.20801zM239.18719,182.01254c-0.08273,-0.04553 -0.20033,-0.02623 -0.26264,0.04312c-0.06232,0.06935 -0.04578,0.16247 0.03695,0.20801c0.08273,0.04553 0.20033,0.02623 0.26264,-0.04312c0.06232,-0.06935 0.04578,-0.16248 -0.03695,-0.20801zM237.6252,182.24628c-0.08273,-0.04553 -0.20033,-0.02623 -0.26264,0.04312c-0.06232,0.06935 -0.04579,0.16248 0.03695,0.20801c0.08273,0.04553 0.20033,0.02623 0.26264,-0.04311c0.06232,-0.06935 0.04579,-0.16248 -0.03695,-0.20801zM237.10704,182.8756c-0.08273,-0.04553 -0.20033,-0.02623 -0.26264,0.04312c-0.06232,0.06935 -0.04578,0.16248 0.03695,0.20801c0.08273,0.04553 0.20032,0.02623 0.26264,-0.04311c0.06232,-0.06935 0.04579,-0.16248 -0.03695,-0.20801zM243.75036,178.20202c-0.08273,-0.04553 -0.20033,-0.02623 -0.26264,0.04311c-0.06232,0.06935 -0.04578,0.16247 0.03695,0.20801c0.08273,0.04553 0.20033,0.02623 0.26264,-0.04311c0.06232,-0.06935 0.04578,-0.16247 -0.03695,-0.20801zM242.39267,177.81261c-0.08273,-0.04553 -0.20033,-0.02623 -0.26264,0.04311c-0.06232,0.06935 -0.04578,0.16247 0.03695,0.20801c0.08273,0.04553 0.20033,0.02623 0.26264,-0.04311c0.06232,-0.06935 0.04578,-0.16247 -0.03695,-0.20801zM241.63864,181.95026c-0.08273,-0.04553 -0.20033,-0.02623 -0.26264,0.04312c-0.06232,0.06935 -0.04578,0.16248 0.03695,0.20801c0.08273,0.04553 0.20032,0.02623 0.26264,-0.04311c0.06232,-0.06935 0.04578,-0.16248 -0.03695,-0.20801zM238.57317,182.82769c-0.08273,-0.04553 -0.20033,-0.02623 -0.26264,0.04312c-0.06232,0.06935 -0.04578,0.16247 0.03695,0.20801c0.08273,0.04553 0.20032,0.02623 0.26264,-0.04312c0.06232,-0.06935 0.04578,-0.16247 -0.03695,-0.20801zM243.05658,179.1323c-0.08273,-0.04553 -0.20033,-0.02623 -0.26264,0.04312c-0.06232,0.06935 -0.04579,0.16248 0.03695,0.20801c0.08273,0.04553 0.20033,0.02623 0.26264,-0.04311c0.06232,-0.06935 0.04578,-0.16248 -0.03695,-0.20801zM242.87322,180.84051c-0.08273,-0.04553 -0.20032,-0.02623 -0.26264,0.04311c-0.06232,0.06935 -0.04578,0.16247 0.03695,0.20801c0.08273,0.04553 0.20032,0.02623 0.26264,-0.04311c0.06232,-0.06935 0.04578,-0.16247 -0.03695,-0.20801zM235.94708,181.34255c-0.08273,-0.04553 -0.20033,-0.02623 -0.26264,0.04312c-0.06232,0.06935 -0.04578,0.16248 0.03695,0.20801c0.08273,0.04553 0.20033,0.02623 0.26264,-0.04311c0.06232,-0.06935 0.04579,-0.16248 -0.03695,-0.20801zM235.74662,180.53641c-0.08273,-0.04553 -0.20033,-0.02623 -0.26264,0.04312c-0.06232,0.06935 -0.04579,0.16247 0.03695,0.20801c0.08273,0.04553 0.20033,0.02623 0.26264,-0.04312c0.06232,-0.06935 0.04579,-0.16247 -0.03695,-0.20801zM241.05909,177.31721c-0.08273,-0.04553 -0.20033,-0.02623 -0.26264,0.04311c-0.06232,0.06935 -0.04578,0.16247 0.03695,0.20801c0.08273,0.04553 0.20033,0.02623 0.26264,-0.04311c0.06232,-0.06935 0.04578,-0.16247 -0.03695,-0.20801zM241.28244,182.92718c-0.08273,-0.04553 -0.20033,-0.02623 -0.26264,0.04312c-0.06232,0.06935 -0.04578,0.16247 0.03695,0.20801c0.08273,0.04553 0.20032,0.02623 0.26264,-0.04312c0.06232,-0.06935 0.04579,-0.16248 -0.03695,-0.20801zM242.17332,181.09147c-0.08273,-0.04553 -0.20033,-0.02623 -0.26264,0.04312c-0.06232,0.06935 -0.04578,0.16248 0.03695,0.20801c0.08273,0.04553 0.20033,0.02623 0.26264,-0.04312c0.06232,-0.06935 0.04578,-0.16247 -0.03695,-0.20801zM240.24684,177.98347c-0.08273,-0.04553 -0.20033,-0.02623 -0.26264,0.04311c-0.06232,0.06935 -0.04578,0.16248 0.03695,0.20801c0.08273,0.04553 0.20032,0.02623 0.26264,-0.04312c0.06232,-0.06935 0.04579,-0.16248 -0.03695,-0.20801zM241.08325,181.64459c-0.08273,-0.04553 -0.20033,-0.02623 -0.26264,0.04311c-0.06232,0.06935 -0.04578,0.16247 0.03695,0.20801c0.08273,0.04553 0.20033,0.02623 0.26264,-0.04311c0.06232,-0.06935 0.04578,-0.16247 -0.03695,-0.20801zM236.61665,179.06697c-0.08273,-0.04553 -0.20032,-0.02623 -0.26264,0.04312c-0.06232,0.06935 -0.04579,0.16247 0.03695,0.20801c0.08273,0.04553 0.20033,0.02623 0.26264,-0.04312c0.06232,-0.06935 0.04578,-0.16247 -0.03695,-0.20801zM239.72893,182.96677c-0.08273,-0.04553 -0.20033,-0.02623 -0.26264,0.04312c-0.06232,0.06935 -0.04579,0.16247 0.03695,0.20801c0.08273,0.04553 0.20033,0.02623 0.26264,-0.04312c0.06232,-0.06935 0.04579,-0.16247 -0.03695,-0.20801zM237.38045,178.69212c-0.08273,-0.04553 -0.20033,-0.02623 -0.26264,0.04311c-0.06232,0.06935 -0.04578,0.16248 0.03695,0.20801c0.08273,0.04553 0.20033,0.02623 0.26264,-0.04312c0.06232,-0.06935 0.04578,-0.16248 -0.03695,-0.20801zM239.64511,177.17515c-0.08273,-0.04553 -0.20033,-0.02623 -0.26264,0.04311c-0.06232,0.06935 -0.04579,0.16248 0.03695,0.20801c0.08273,0.04553 0.20033,0.02623 0.26264,-0.04312c0.06232,-0.06935 0.04579,-0.16248 -0.03695,-0.20801zM236.8018,178.17483c-0.08273,-0.04553 -0.20033,-0.02623 -0.26264,0.04311c-0.06232,0.06935 -0.04578,0.16247 0.03695,0.20801c0.08273,0.04553 0.20032,0.02623 0.26264,-0.04311c0.06232,-0.06935 0.04579,-0.16247 -0.03695,-0.20801zM241.89148,182.48703c-0.08273,-0.04553 -0.20033,-0.02623 -0.26264,0.04312c-0.06232,0.06935 -0.04578,0.16248 0.03695,0.20801c0.08273,0.04553 0.20033,0.02623 0.26264,-0.04311c0.06232,-0.06935 0.04578,-0.16248 -0.03695,-0.20801zM241.82651,183.00794c-0.08273,-0.04553 -0.20033,-0.02623 -0.26264,0.04312c-0.06232,0.06935 -0.04578,0.16247 0.03695,0.20801c0.08273,0.04553 0.20033,0.02623 0.26264,-0.04312c0.06232,-0.06935 0.04578,-0.16247 -0.03695,-0.20801zM235.66464,179.99427c-0.08273,-0.04553 -0.20033,-0.02623 -0.26264,0.04311c-0.06232,0.06935 -0.04578,0.16248 0.03695,0.20801c0.08273,0.04553 0.20032,0.02623 0.26264,-0.04312c0.06232,-0.06935 0.04579,-0.16248 -0.03695,-0.20801zM237.34618,179.62752c-0.08273,-0.04553 -0.20033,-0.02623 -0.26264,0.04311c-0.06232,0.06935 -0.04578,0.16247 0.03695,0.20801c0.08273,0.04553 0.20032,0.02623 0.26264,-0.04311c0.06232,-0.06935 0.04579,-0.16247 -0.03695,-0.20801zM239.06856,182.70787c0.01144,0.08092 0.0701,0.13953 0.13102,0.13092c0.06091,-0.00861 0.10102,-0.08118 0.08958,-0.16211c-0.01144,-0.08092 -0.0701,-0.13954 -0.13101,-0.13093c-0.06091,0.00861 -0.10103,0.08118 -0.08958,0.16212zM238.88214,183.4481c0.01144,0.08092 0.0701,0.13953 0.13101,0.13092c0.06091,-0.00861 0.10103,-0.08118 0.08959,-0.16211c-0.01144,-0.08092 -0.0701,-0.13954 -0.13102,-0.13093c-0.06091,0.00861 -0.10102,0.08118 -0.08957,0.16212zM237.77475,177.35842c0.01144,0.08092 0.0701,0.13953 0.13102,0.13092c0.06091,-0.00861 0.10102,-0.08118 0.08958,-0.16211c-0.01144,-0.08092 -0.0701,-0.13954 -0.13101,-0.13093c-0.06091,0.00861 -0.10103,0.08118 -0.08958,0.16212zM238.83246,176.76271c0.01144,0.08092 0.0701,0.13954 0.13101,0.13093c0.06091,-0.00861 0.10103,-0.08118 0.08958,-0.16212c-0.01144,-0.08092 -0.07011,-0.13953 -0.13102,-0.13092c-0.06091,0.00861 -0.10102,0.08118 -0.08958,0.16211zM240.73635,180.09252c0.01144,0.08092 0.07011,0.13954 0.13102,0.13093c0.06091,-0.00861 0.10102,-0.08118 0.08957,-0.16212c-0.01144,-0.08092 -0.0701,-0.13954 -0.13101,-0.13093c-0.06091,0.00861 -0.10103,0.08118 -0.08958,0.16212zM237.75094,180.99057c0.01144,0.08092 0.0701,0.13953 0.13102,0.13092c0.06091,-0.00861 0.10102,-0.08118 0.08958,-0.16211c-0.01144,-0.08092 -0.0701,-0.13954 -0.13101,-0.13093c-0.06091,0.00861 -0.10103,0.08118 -0.08958,0.16212zM241.18631,179.79095c0.01144,0.08092 0.0701,0.13953 0.13102,0.13092c0.06091,-0.00861 0.10103,-0.08118 0.08959,-0.16211c-0.01144,-0.08092 -0.07011,-0.13954 -0.13102,-0.13093c-0.06091,0.00861 -0.10103,0.08118 -0.08958,0.16212zM239.78172,181.41728c0.01144,0.08092 0.0701,0.13953 0.13101,0.13092c0.06091,-0.00861 0.10103,-0.08118 0.08959,-0.16211c-0.01144,-0.08092 -0.0701,-0.13954 -0.13102,-0.13093c-0.06091,0.00861 -0.10102,0.08118 -0.08957,0.16212zM237.83852,180.02637c0.01144,0.08092 0.0701,0.13954 0.13102,0.13093c0.06091,-0.00861 0.10102,-0.08118 0.08957,-0.16212c-0.01144,-0.08092 -0.0701,-0.13953 -0.13101,-0.13092c-0.06091,0.00861 -0.10103,0.08118 -0.08959,0.16211zM238.87962,178.83812c0.01144,0.08092 0.07011,0.13954 0.13102,0.13093c0.06091,-0.00861 0.10103,-0.08119 0.08958,-0.16212c-0.01144,-0.08092 -0.0701,-0.13954 -0.13102,-0.13093c-0.06091,0.00861 -0.10103,0.08118 -0.08958,0.16212zM240.14607,178.92673c0.01144,0.08092 0.0701,0.13953 0.13101,0.13092c0.06091,-0.00861 0.10103,-0.08118 0.08959,-0.16211c-0.01144,-0.08092 -0.0701,-0.13954 -0.13102,-0.13093c-0.06091,0.00861 -0.10102,0.08118 -0.08957,0.16212zM240.29585,179.82763c0.01144,0.08092 0.0701,0.13953 0.13102,0.13092c0.06091,-0.00861 0.10102,-0.08118 0.08958,-0.16211c-0.01144,-0.08092 -0.0701,-0.13954 -0.13101,-0.13093c-0.06091,0.00861 -0.10103,0.08118 -0.08958,0.16212zM240.75807,179.13765c0.01144,0.08092 0.0701,0.13954 0.13101,0.13093c0.06091,-0.00861 0.10103,-0.08118 0.08958,-0.16212c-0.01144,-0.08092 -0.0701,-0.13953 -0.13102,-0.13092c-0.06091,0.00861 -0.10102,0.08118 -0.08958,0.16211zM239.09659,179.58078c0.01144,0.08092 0.0701,0.13953 0.13102,0.13092c0.06091,-0.00861 0.10103,-0.08118 0.08959,-0.16211c-0.01144,-0.08092 -0.0701,-0.13954 -0.13102,-0.13093c-0.06091,0.00861 -0.10103,0.08119 -0.08958,0.16212zM237.66093,183.20436c0.01144,0.08092 0.0701,0.13954 0.13101,0.13093c0.06091,-0.00861 0.10103,-0.08118 0.08958,-0.16212c-0.01144,-0.08092 -0.0701,-0.13953 -0.13102,-0.13092c-0.06091,0.00861 -0.10102,0.08118 -0.08958,0.16211zM236.85007,177.78661c0.01144,0.08092 0.07011,0.13954 0.13102,0.13093c0.06091,-0.00861 0.10103,-0.08118 0.08958,-0.16212c-0.01144,-0.08092 -0.0701,-0.13953 -0.13102,-0.13092c-0.06091,0.00861 -0.10103,0.08118 -0.08959,0.16211zM241.75684,178.75847c0.01144,0.08092 0.0701,0.13954 0.13101,0.13093c0.06091,-0.00861 0.10103,-0.08118 0.08958,-0.16212c-0.01144,-0.08092 -0.0701,-0.13954 -0.13102,-0.13093c-0.06091,0.00861 -0.10102,0.08119 -0.08957,0.16212zM238.33832,181.50239c0.01144,0.08092 0.0701,0.13954 0.13102,0.13093c0.06091,-0.00861 0.10102,-0.08118 0.08957,-0.16212c-0.01144,-0.08092 -0.0701,-0.13954 -0.13101,-0.13093c-0.06091,0.00861 -0.10103,0.08119 -0.08958,0.16212zM242.36349,179.56501c0.01144,0.08092 0.07011,0.13953 0.13102,0.13092c0.06091,-0.00861 0.10102,-0.08118 0.08958,-0.16211c-0.01144,-0.08092 -0.0701,-0.13954 -0.13101,-0.13093c-0.06091,0.00861 -0.10103,0.08118 -0.08958,0.16212zM239.3433,178.47512c0.01144,0.08092 0.0701,0.13954 0.13102,0.13093c0.06091,-0.00861 0.10103,-0.08118 0.08958,-0.16212c-0.01144,-0.08092 -0.07011,-0.13953 -0.13102,-0.13092c-0.06091,0.00861 -0.10103,0.08118 -0.08959,0.16211zM241.38376,179.28713c0.01144,0.08092 0.0701,0.13953 0.13102,0.13092c0.06091,-0.00861 0.10103,-0.08118 0.08959,-0.16211c-0.01144,-0.08092 -0.07011,-0.13954 -0.13102,-0.13093c-0.06091,0.00861 -0.10103,0.08118 -0.08958,0.16212zM238.29383,179.12917c0.01144,0.08092 0.0701,0.13953 0.13102,0.13092c0.06091,-0.00861 0.10103,-0.08118 0.08959,-0.16211c-0.01144,-0.08092 -0.0701,-0.13954 -0.13102,-0.13093c-0.06091,0.00861 -0.10103,0.08118 -0.08958,0.16212zM240.01615,180.70001c0.01144,0.08092 0.07011,0.13954 0.13102,0.13093c0.06091,-0.00861 0.10103,-0.08118 0.08958,-0.16212c-0.01144,-0.08092 -0.0701,-0.13953 -0.13102,-0.13092c-0.06091,0.00861 -0.10103,0.08118 -0.08959,0.16211zM239.80866,179.39087c0.01144,0.08092 0.0701,0.13953 0.13101,0.13092c0.06091,-0.00861 0.10103,-0.08118 0.08959,-0.16211c-0.01144,-0.08092 -0.0701,-0.13954 -0.13102,-0.13093c-0.06091,0.00861 -0.10102,0.08118 -0.08957,0.16212zM239.60029,180.13418c0.01144,0.08092 0.0701,0.13953 0.13101,0.13092c0.06091,-0.00861 0.10103,-0.08118 0.08959,-0.16211c-0.01144,-0.08092 -0.0701,-0.13954 -0.13102,-0.13093c-0.06091,0.00861 -0.10102,0.08118 -0.08957,0.16212zM238.31665,177.07359c0.01144,0.08092 0.0701,0.13954 0.13101,0.13093c0.06091,-0.00861 0.10103,-0.08119 0.08958,-0.16212c-0.01144,-0.08092 -0.07011,-0.13954 -0.13102,-0.13093c-0.06091,0.00861 -0.10102,0.08118 -0.08957,0.16212zM239.42989,179.0875c0.01144,0.08092 0.0701,0.13954 0.13102,0.13093c0.06091,-0.00861 0.10103,-0.08118 0.08958,-0.16212c-0.01144,-0.08092 -0.07011,-0.13954 -0.13102,-0.13093c-0.06091,0.00861 -0.10103,0.08119 -0.08958,0.16212zM237.40673,181.72336c0.01144,0.08092 0.07011,0.13953 0.13102,0.13092c0.06091,-0.00861 0.10103,-0.08118 0.08959,-0.16211c-0.01144,-0.08092 -0.0701,-0.13954 -0.13102,-0.13093c-0.06091,0.00861 -0.10103,0.08118 -0.08958,0.16212z" data-paper-data="{&quot;index&quot;:null}" fill="url(#color-1)"/><path d="M243.5502,178.71328c-0.8447,1.12602 -2.26152,1.16652 -3.16456,0.09047c-0.90304,-1.07605 -0.95033,-2.86117 -0.10563,-3.98719c0.00735,-0.00979 0.01474,-0.01951 0.02217,-0.02915c0.00289,0.05461 0.0215,0.10805 0.05554,0.14862c0.07173,0.08546 0.18484,0.08147 0.25265,-0.00893c0.06781,-0.0904 0.06465,-0.23296 -0.00708,-0.31843c-0.02683,-0.03198 -0.05947,-0.05143 -0.09335,-0.05852c0.31814,-0.3195 0.6917,-0.51304 1.07789,-0.5794c-0.02657,0.04327 -0.02326,0.10573 0.00895,0.14411c0.0343,0.04088 0.0884,0.03897 0.12084,-0.00427c0.03243,-0.04323 0.03092,-0.11142 -0.00339,-0.15229c-0.00125,-0.00149 -0.00252,-0.00292 -0.00382,-0.00429c0.45652,-0.04644 0.92428,0.083 1.33385,0.39033c-0.00722,0.00516 -0.01397,0.01175 -0.01997,0.01975c-0.03243,0.04323 -0.03091,0.11142 0.00339,0.15229c0.0343,0.04088 0.0884,0.03897 0.12083,-0.00427c0.01382,-0.01842 0.02148,-0.04138 0.02305,-0.06482c0.09509,0.08268 0.18641,0.1756 0.27301,0.27879c0.07245,0.08632 0.13937,0.1772 0.20078,0.27194c-0.05844,-0.01489 -0.12147,0.0074 -0.16545,0.06603c-0.05805,0.07739 -0.06409,0.19301 -0.01962,0.2783c-0.06335,-0.02543 -0.13549,-0.00509 -0.18423,0.05988c-0.06781,0.0904 -0.06464,0.23296 0.00709,0.31843c0.07173,0.08546 0.18484,0.08146 0.25265,-0.00893c0.05805,-0.07739 0.06408,-0.19301 0.01962,-0.2783c0.06335,0.02543 0.1355,0.00509 0.18423,-0.05988c0.02796,-0.03728 0.04386,-0.08343 0.04784,-0.13078c0.08405,0.16218 0.15371,0.33283 0.20893,0.50901c-0.03435,-0.03391 -0.08417,-0.02987 -0.11474,0.01088c-0.03243,0.04323 -0.03092,0.11142 0.00338,0.15229c0.0343,0.04088 0.0884,0.03896 0.12083,-0.00427c0.01151,-0.01535 0.01875,-0.03383 0.02176,-0.05313c0.26716,0.96287 0.11211,2.06984 -0.47744,2.85574zM241.54119,178.61188c-0.06781,0.0904 -0.06464,0.23296 0.00709,0.31842c0.07173,0.08546 0.18484,0.08147 0.25266,-0.00893c0.06781,-0.0904 0.06463,-0.23296 -0.00709,-0.31843c-0.07173,-0.08546 -0.18484,-0.08146 -0.25266,0.00893zM242.50516,178.75541c-0.06781,0.0904 -0.06464,0.23296 0.00709,0.31842c0.07173,0.08546 0.18484,0.08147 0.25266,-0.00893c0.06781,-0.0904 0.06463,-0.23296 -0.00709,-0.31843c-0.07173,-0.08546 -0.18484,-0.08147 -0.25265,0.00893zM241.98573,177.2884c-0.06781,0.0904 -0.06464,0.23296 0.00709,0.31843c0.07173,0.08546 0.18484,0.08146 0.25265,-0.00893c0.06781,-0.0904 0.06465,-0.23296 -0.00708,-0.31843c-0.07173,-0.08546 -0.18484,-0.08147 -0.25266,0.00893zM242.2897,176.26858c-0.06781,0.0904 -0.06464,0.23296 0.00709,0.31843c0.07173,0.08546 0.18484,0.08147 0.25266,-0.00893c0.06781,-0.0904 0.06464,-0.23296 -0.00709,-0.31843c-0.07173,-0.08546 -0.18484,-0.08147 -0.25266,0.00893zM240.78632,176.06337c-0.06781,0.0904 -0.06464,0.23296 0.00709,0.31843c0.07173,0.08546 0.18484,0.08147 0.25265,-0.00893c0.06781,-0.0904 0.06464,-0.23296 -0.00709,-0.31843c-0.07173,-0.08546 -0.18484,-0.08147 -0.25265,0.00893zM240.31774,177.16974c-0.06781,0.0904 -0.06464,0.23296 0.00709,0.31842c0.07173,0.08546 0.18484,0.08147 0.25265,-0.00893c0.06781,-0.0904 0.06463,-0.23296 -0.00709,-0.31843c-0.07173,-0.08546 -0.18484,-0.08147 -0.25265,0.00893zM241.95176,174.60948c-0.06781,0.0904 -0.06464,0.23296 0.00709,0.31843c0.07173,0.08546 0.18484,0.08147 0.25265,-0.00893c0.06781,-0.0904 0.06464,-0.23296 -0.00709,-0.31843c-0.07173,-0.08546 -0.18484,-0.08147 -0.25265,0.00893zM243.7715,176.87819c0.02506,0.00269 0.05081,-0.00851 0.06943,-0.03333c0.03243,-0.04323 0.03092,-0.11142 -0.00339,-0.15229c-0.0343,-0.04088 -0.0884,-0.03896 -0.12083,0.00427c-0.02384,0.03178 -0.02934,0.07705 -0.01695,0.11504c-0.02506,-0.00269 -0.05081,0.00851 -0.06943,0.03333c-0.03243,0.04323 -0.03092,0.11142 0.00339,0.15229c0.0343,0.04088 0.0884,0.03896 0.12083,-0.00427c0.02384,-0.03178 0.02933,-0.07705 0.01695,-0.11504zM240.31671,175.71718c0.00988,-0.00561 0.01907,-0.01369 0.02697,-0.02422c0.03243,-0.04323 0.03092,-0.11142 -0.00339,-0.15229c-0.0343,-0.04088 -0.0884,-0.03896 -0.12083,0.00427c-0.0309,0.04119 -0.03098,0.10501 -0.00127,0.14631c-0.00988,0.00561 -0.01906,0.01368 -0.02696,0.02422c-0.03243,0.04323 -0.03092,0.11142 0.00338,0.15229c0.0343,0.04088 0.0884,0.03896 0.12083,-0.00427c0.0309,-0.04119 0.03098,-0.10501 0.00127,-0.1463zM240.01249,176.31916c-0.03243,0.04323 -0.03091,0.11142 0.00339,0.15229c0.0343,0.04088 0.0884,0.03896 0.12083,-0.00427c0.03243,-0.04323 0.03092,-0.11142 -0.00338,-0.15229c-0.0343,-0.04088 -0.0884,-0.03896 -0.12084,0.00427zM242.44599,174.5702c-0.03243,0.04323 -0.03092,0.11142 0.00338,0.15229c0.0343,0.04088 0.0884,0.03896 0.12083,-0.00427c0.03243,-0.04323 0.03092,-0.11142 -0.00338,-0.15229c-0.0343,-0.04088 -0.0884,-0.03896 -0.12083,0.00427zM240.57797,177.84105c-0.03243,0.04323 -0.03091,0.11142 0.00339,0.15229c0.0343,0.04088 0.0884,0.03896 0.12083,-0.00427c0.03243,-0.04323 0.03091,-0.11142 -0.00339,-0.15229c-0.0343,-0.04088 -0.0884,-0.03896 -0.12083,0.00427zM243.80642,177.27491c-0.03243,0.04323 -0.03092,0.11142 0.00338,0.15229c0.0343,0.04088 0.0884,0.03896 0.12083,-0.00427c0.03243,-0.04323 0.03092,-0.11142 -0.00338,-0.15229c-0.0343,-0.04088 -0.0884,-0.03896 -0.12083,0.00427zM243.12645,176.65312c-0.03243,0.04323 -0.03092,0.11142 0.00339,0.15229c0.0343,0.04088 0.0884,0.03896 0.12083,-0.00427c0.03243,-0.04323 0.03092,-0.11142 -0.00339,-0.15229c-0.0343,-0.04088 -0.0884,-0.03896 -0.12083,0.00427zM242.04343,178.64497c-0.03243,0.04323 -0.03092,0.11142 0.00338,0.15229c0.0343,0.04088 0.0884,0.03896 0.12084,-0.00427c0.03243,-0.04323 0.03092,-0.11142 -0.00339,-0.15229c-0.0343,-0.04088 -0.0884,-0.03896 -0.12083,0.00427zM242.84807,175.08071c-0.03243,0.04323 -0.03092,0.11142 0.00338,0.15229c0.0343,0.04088 0.0884,0.03897 0.12083,-0.00427c0.03243,-0.04323 0.03092,-0.11142 -0.00339,-0.15229c-0.0343,-0.04088 -0.0884,-0.03896 -0.12083,0.00427zM243.3602,176.50762c-0.03243,0.04323 -0.03091,0.11142 0.00339,0.15229c0.0343,0.04088 0.0884,0.03896 0.12083,-0.00427c0.03243,-0.04323 0.03092,-0.11142 -0.00338,-0.15229c-0.0343,-0.04088 -0.08841,-0.03896 -0.12084,0.00427zM243.05024,176.97064c-0.03243,0.04323 -0.03092,0.11142 0.00339,0.15229c0.0343,0.04088 0.0884,0.03896 0.12083,-0.00427c0.03243,-0.04323 0.03092,-0.11142 -0.00339,-0.15229c-0.0343,-0.04088 -0.0884,-0.03896 -0.12083,0.00427zM242.86961,177.77622c-0.03243,0.04323 -0.03092,0.11142 0.00338,0.15229c0.0343,0.04088 0.0884,0.03896 0.12083,-0.00427c0.03243,-0.04323 0.03092,-0.11142 -0.00338,-0.15229c-0.0343,-0.04088 -0.0884,-0.03896 -0.12083,0.00427zM241.95994,175.46729c-0.03243,0.04323 -0.03092,0.11142 0.00339,0.15229c0.0343,0.04088 0.0884,0.03897 0.12083,-0.00427c0.03243,-0.04323 0.03092,-0.11142 -0.00338,-0.15229c-0.0343,-0.04088 -0.0884,-0.03896 -0.12084,0.00427zM242.85584,177.44573c-0.03243,0.04323 -0.03091,0.11142 0.00339,0.15229c0.0343,0.04088 0.0884,0.03896 0.12083,-0.00427c0.03243,-0.04323 0.03092,-0.11142 -0.00339,-0.15229c-0.0343,-0.04088 -0.08841,-0.03896 -0.12084,0.00427zM242.86314,178.34961c-0.03243,0.04323 -0.03092,0.11142 0.00339,0.15229c0.0343,0.04088 0.0884,0.03897 0.12083,-0.00427c0.03243,-0.04323 0.03092,-0.11142 -0.00338,-0.15229c-0.0343,-0.04088 -0.0884,-0.03896 -0.12084,0.00427zM243.17824,178.69367c-0.03243,0.04323 -0.03091,0.11142 0.00339,0.15229c0.0343,0.04088 0.0884,0.03896 0.12083,-0.00427c0.03243,-0.04323 0.03091,-0.11142 -0.00339,-0.15229c-0.0343,-0.04088 -0.0884,-0.03897 -0.12084,0.00427zM241.06212,174.55451c-0.03243,0.04323 -0.03092,0.11142 0.00338,0.15229c0.0343,0.04088 0.0884,0.03896 0.12083,-0.00427c0.03243,-0.04323 0.03092,-0.11142 -0.00338,-0.15229c-0.0343,-0.04088 -0.0884,-0.03896 -0.12083,0.00427zM240.73266,175.2927c-0.03243,0.04323 -0.03092,0.11142 0.00338,0.15229c0.0343,0.04088 0.0884,0.03896 0.12083,-0.00427c0.03243,-0.04323 0.03092,-0.11142 -0.00338,-0.15229c-0.0343,-0.04088 -0.0884,-0.03896 -0.12083,0.00427zM243.01698,176.05154c-0.03243,0.04323 -0.03092,0.11142 0.00339,0.15229c0.0343,0.04088 0.0884,0.03896 0.12083,-0.00427c0.03243,-0.04323 0.03092,-0.11141 -0.00338,-0.15228c-0.0343,-0.04088 -0.0884,-0.03896 -0.12084,0.00427zM243.26856,177.859c-0.03243,0.04323 -0.03092,0.11142 0.00339,0.15229c0.0343,0.04088 0.0884,0.03896 0.12083,-0.00427c0.03243,-0.04323 0.03092,-0.11142 -0.00339,-0.15229c-0.0343,-0.04088 -0.0884,-0.03896 -0.12083,0.00427zM241.5337,175.02221c-0.03243,0.04323 -0.03091,0.11142 0.00339,0.15229c0.0343,0.04088 0.0884,0.03897 0.12083,-0.00427c0.03243,-0.04323 0.03091,-0.11142 -0.00339,-0.15229c-0.0343,-0.04088 -0.0884,-0.03896 -0.12084,0.00427zM242.48703,175.263c-0.03243,0.04323 -0.03092,0.11142 0.00338,0.15229c0.0343,0.04088 0.0884,0.03896 0.12083,-0.00427c0.03243,-0.04323 0.03092,-0.11141 -0.00338,-0.15228c-0.0343,-0.04088 -0.0884,-0.03896 -0.12083,0.00427zM242.21654,179.22816c-0.03243,0.04323 -0.03092,0.11142 0.00339,0.15229c0.0343,0.04088 0.0884,0.03896 0.12083,-0.00427c0.03243,-0.04323 0.03092,-0.11142 -0.00338,-0.15229c-0.0343,-0.04088 -0.0884,-0.03897 -0.12084,0.00427zM241.74365,179.27716c-0.03243,0.04323 -0.03091,0.11142 0.00339,0.15229c0.0343,0.04088 0.0884,0.03897 0.12083,-0.00427c0.03243,-0.04323 0.03091,-0.11142 -0.00339,-0.15229c-0.0343,-0.04088 -0.0884,-0.03897 -0.12083,0.00427zM240.34506,176.00872c-0.03243,0.04323 -0.03092,0.11142 0.00338,0.15229c0.0343,0.04088 0.0884,0.03896 0.12083,-0.00427c0.03243,-0.04323 0.03092,-0.11142 -0.00338,-0.15229c-0.0343,-0.04088 -0.0884,-0.03896 -0.12083,0.00427zM243.54204,176.33167c-0.03243,0.04323 -0.03092,0.11142 0.00339,0.15229c0.0343,0.04088 0.0884,0.03896 0.12083,-0.00427c0.03243,-0.04323 0.03092,-0.11142 -0.00339,-0.15229c-0.0343,-0.04088 -0.0884,-0.03897 -0.12083,0.00427zM242.57316,175.67973c-0.03243,0.04323 -0.03092,0.11142 0.00339,0.15229c0.0343,0.04088 0.08841,0.03896 0.12084,-0.00427c0.03243,-0.04323 0.03091,-0.11142 -0.00339,-0.15229c-0.0343,-0.04088 -0.0884,-0.03896 -0.12083,0.00427zM240.65753,176.5224c-0.03243,0.04323 -0.03092,0.11142 0.00338,0.15229c0.0343,0.04088 0.0884,0.03896 0.12084,-0.00427c0.03243,-0.04323 0.03092,-0.11142 -0.00339,-0.15229c-0.0343,-0.04088 -0.0884,-0.03897 -0.12083,0.00427zM242.79925,176.34177c-0.03243,0.04323 -0.03092,0.11142 0.00338,0.15229c0.0343,0.04088 0.0884,0.03896 0.12083,-0.00427c0.03243,-0.04323 0.03092,-0.11142 -0.00338,-0.15229c-0.0343,-0.04088 -0.0884,-0.03896 -0.12083,0.00427zM240.98065,178.66638c-0.03243,0.04323 -0.03092,0.11142 0.00339,0.15229c0.0343,0.04088 0.0884,0.03897 0.12083,-0.00427c0.03243,-0.04323 0.03092,-0.11142 -0.00339,-0.15229c-0.0343,-0.04088 -0.0884,-0.03896 -0.12083,0.00427zM243.43999,177.21519c-0.03243,0.04323 -0.03092,0.11142 0.00339,0.15229c0.0343,0.04088 0.0884,0.03897 0.12083,-0.00427c0.03243,-0.04323 0.03092,-0.11142 -0.00339,-0.15229c-0.0343,-0.04088 -0.0884,-0.03897 -0.12083,0.00427zM240.82944,178.20351c-0.03243,0.04323 -0.03092,0.11142 0.00338,0.15229c0.0343,0.04088 0.0884,0.03896 0.12084,-0.00427c0.03243,-0.04323 0.03092,-0.11142 -0.00339,-0.15229c-0.0343,-0.04088 -0.0884,-0.03896 -0.12083,0.00427zM240.15126,176.79861c-0.03243,0.04323 -0.03092,0.11142 0.00338,0.15229c0.0343,0.04088 0.0884,0.03897 0.12084,-0.00427c0.03243,-0.04323 0.03092,-0.11142 -0.00339,-0.15229c-0.0343,-0.04088 -0.0884,-0.03897 -0.12083,0.00427zM240.48993,178.48997c-0.03243,0.04323 -0.03092,0.11142 0.00338,0.15229c0.0343,0.04088 0.0884,0.03896 0.12083,-0.00427c0.03243,-0.04323 0.03092,-0.11141 -0.00338,-0.15228c-0.0343,-0.04088 -0.0884,-0.03897 -0.12083,0.00427zM243.34142,175.95127c-0.03243,0.04323 -0.03092,0.11142 0.00339,0.15229c0.0343,0.04088 0.0884,0.03896 0.12083,-0.00427c0.03243,-0.04323 0.03092,-0.11142 -0.00338,-0.15229c-0.0343,-0.04088 -0.0884,-0.03896 -0.12084,0.00427zM243.6314,176.02983c-0.03243,0.04323 -0.03092,0.11142 0.00339,0.15229c0.0343,0.04088 0.0884,0.03896 0.12083,-0.00427c0.03243,-0.04323 0.03092,-0.11142 -0.00339,-0.15229c-0.0343,-0.04088 -0.0884,-0.03896 -0.12083,0.00427zM241.42985,179.28017c-0.03243,0.04323 -0.03091,0.11142 0.00339,0.15229c0.0343,0.04088 0.0884,0.03896 0.12084,-0.00427c0.03243,-0.04323 0.03091,-0.11142 -0.00339,-0.15229c-0.0343,-0.04088 -0.0884,-0.03897 -0.12083,0.00427zM241.35676,178.29789c-0.03243,0.04323 -0.03092,0.11142 0.00338,0.15229c0.0343,0.04088 0.0884,0.03896 0.12083,-0.00427c0.03243,-0.04323 0.03092,-0.11141 -0.00338,-0.15228c-0.0343,-0.04088 -0.0884,-0.03897 -0.12083,0.00427zM243.24037,177.56867c0.04677,0 0.08468,-0.02854 0.08468,-0.06375c0,-0.03521 -0.03791,-0.06375 -0.08468,-0.06375c-0.04677,0 -0.08469,0.02855 -0.08469,0.06375c0,0.03521 0.03791,0.06375 0.08469,0.06375zM243.6449,177.73363c0.04677,0 0.08468,-0.02855 0.08468,-0.06375c0,-0.03521 -0.03791,-0.06376 -0.08468,-0.06376c-0.04677,0 -0.08469,0.02855 -0.08469,0.06376c0,0.03521 0.03791,0.06375 0.08469,0.06375zM240.10524,177.8732c0.04677,0 0.08468,-0.02855 0.08468,-0.06376c0,-0.03521 -0.03791,-0.06375 -0.08468,-0.06375c-0.04677,0 -0.08469,0.02854 -0.08469,0.06375c0,0.03521 0.03791,0.06376 0.08469,0.06376zM239.85242,177.22608c0.04677,0 0.08469,-0.02855 0.08469,-0.06375c0,-0.03521 -0.03791,-0.06376 -0.08469,-0.06376c-0.04677,0 -0.08469,0.02855 -0.08469,0.06376c0,0.03521 0.03791,0.06375 0.08469,0.06375zM241.89193,176.41399c0.04677,0 0.08469,-0.02855 0.08469,-0.06376c0,-0.03521 -0.03791,-0.06375 -0.08469,-0.06375c-0.04677,0 -0.08469,0.02854 -0.08469,0.06375c0,0.03521 0.03791,0.06376 0.08469,0.06376zM242.16162,178.17773c0.04677,0 0.08468,-0.02855 0.08468,-0.06376c0,-0.03521 -0.03791,-0.06375 -0.08468,-0.06375c-0.04677,0 -0.08469,0.02855 -0.08469,0.06375c0,0.03521 0.03791,0.06376 0.08469,0.06376zM241.75708,176.13484c0.04677,0 0.08468,-0.02855 0.08468,-0.06376c0,-0.03521 -0.03791,-0.06376 -0.08468,-0.06376c-0.04677,0 -0.08469,0.02855 -0.08469,0.06376c0,0.03521 0.03791,0.06376 0.08469,0.06376zM242.56615,177.06112c0.04677,0 0.08469,-0.02855 0.08469,-0.06375c0,-0.03521 -0.03791,-0.06375 -0.08469,-0.06375c-0.04677,0 -0.08469,0.02854 -0.08469,0.06375c0,0.03521 0.03791,0.06375 0.08469,0.06375zM241.62224,178.05085c0.04677,0 0.08469,-0.02855 0.08469,-0.06376c0,-0.03521 -0.03791,-0.06375 -0.08469,-0.06375c-0.04677,0 -0.08469,0.02855 -0.08469,0.06375c0,0.03521 0.03791,0.06376 0.08469,0.06376zM241.0323,177.36566c0.04677,0 0.08469,-0.02855 0.08469,-0.06376c0,-0.03521 -0.03791,-0.06376 -0.08469,-0.06376c-0.04677,0 -0.08469,0.02855 -0.08469,0.06376c0,0.03521 0.03791,0.06376 0.08469,0.06376zM241.18399,176.65508c0.04677,0 0.08468,-0.02854 0.08468,-0.06375c0,-0.03521 -0.03791,-0.06376 -0.08468,-0.06376c-0.04677,0 -0.08469,0.02855 -0.08469,0.06376c0,0.03521 0.03791,0.06375 0.08469,0.06375zM241.70652,176.64239c0.04677,0 0.08468,-0.02855 0.08468,-0.06376c0,-0.03521 -0.03791,-0.06375 -0.08468,-0.06375c-0.04677,0 -0.08469,0.02854 -0.08469,0.06375c0,0.03521 0.03791,0.06376 0.08469,0.06376zM241.35255,176.32517c0.04677,0 0.08469,-0.02855 0.08469,-0.06375c0,-0.03521 -0.03791,-0.06375 -0.08469,-0.06375c-0.04677,0 -0.08469,0.02854 -0.08469,0.06375c0,0.03521 0.03791,0.06375 0.08469,0.06375zM241.47054,177.30221c0.04677,0 0.08468,-0.02854 0.08468,-0.06375c0,-0.03521 -0.03791,-0.06376 -0.08468,-0.06376c-0.04677,0 -0.08469,0.02855 -0.08469,0.06376c0,0.03521 0.03792,0.06375 0.08469,0.06375zM243.40892,178.40613c0.04677,0 0.08469,-0.02855 0.08469,-0.06375c0,-0.03521 -0.03791,-0.06376 -0.08469,-0.06376c-0.04677,0 -0.08468,0.02855 -0.08468,0.06376c0,0.03521 0.03791,0.06375 0.08468,0.06375zM240.2738,178.43151c0.04677,0 0.08469,-0.02855 0.08469,-0.06376c0,-0.03521 -0.03791,-0.06375 -0.08469,-0.06375c-0.04677,0 -0.08468,0.02854 -0.08468,0.06375c0,0.03521 0.03791,0.06376 0.08468,0.06376zM241.21771,175.7288c0.04677,0 0.08469,-0.02855 0.08469,-0.06375c0,-0.03521 -0.03791,-0.06375 -0.08469,-0.06375c-0.04677,0 -0.08469,0.02854 -0.08469,0.06375c0,0.03521 0.03792,0.06375 0.08469,0.06375zM242.49872,177.88589c0.04677,0 0.08469,-0.02855 0.08469,-0.06376c0,-0.03521 -0.03791,-0.06375 -0.08469,-0.06375c-0.04677,0 -0.08469,0.02854 -0.08469,0.06375c0,0.03521 0.03791,0.06376 0.08469,0.06376zM241.72337,175.44965c0.04677,0 0.08468,-0.02855 0.08468,-0.06376c0,-0.03521 -0.03791,-0.06375 -0.08468,-0.06375c-0.04677,0 -0.08469,0.02854 -0.08469,0.06375c0,0.03521 0.03791,0.06376 0.08469,0.06376zM240.86375,177.07381c0.04677,0 0.08469,-0.02854 0.08469,-0.06375c0,-0.03521 -0.03791,-0.06376 -0.08469,-0.06376c-0.04677,0 -0.08469,0.02855 -0.08469,0.06376c0,0.03521 0.03791,0.06375 0.08469,0.06375zM241.4874,175.98258c0.04677,0 0.08469,-0.02855 0.08469,-0.06376c0,-0.03521 -0.03791,-0.06376 -0.08469,-0.06376c-0.04677,0 -0.08469,0.02855 -0.08469,0.06376c0,0.03521 0.03791,0.06376 0.08469,0.06376zM241.15029,177.72094c0.04677,0 0.08468,-0.02855 0.08468,-0.06376c0,-0.03521 -0.03791,-0.06376 -0.08468,-0.06376c-0.04677,0 -0.08469,0.02855 -0.08469,0.06376c0,0.03521 0.03791,0.06376 0.08469,0.06376zM242.17847,176.87079c0.04677,0 0.08469,-0.02855 0.08469,-0.06376c0,-0.03521 -0.03791,-0.06375 -0.08469,-0.06375c-0.04677,0 -0.08468,0.02854 -0.08468,0.06375c0,0.03521 0.03791,0.06376 0.08468,0.06376zM241.41998,176.88348c0.04677,0 0.08468,-0.02854 0.08468,-0.06375c0,-0.03521 -0.03791,-0.06376 -0.08468,-0.06376c-0.04677,0 -0.08469,0.02855 -0.08469,0.06376c0,0.03521 0.03791,0.06375 0.08469,0.06375zM241.82451,177.06112c0.04677,0 0.08468,-0.02855 0.08468,-0.06375c0,-0.03521 -0.03791,-0.06375 -0.08468,-0.06375c-0.04677,0 -0.08469,0.02854 -0.08469,0.06375c0,0.03521 0.03791,0.06375 0.08469,0.06375zM239.98726,177.5433c0.04677,0 0.08469,-0.02855 0.08469,-0.06375c0,-0.03521 -0.03791,-0.06376 -0.08469,-0.06376c-0.04677,0 -0.08469,0.02855 -0.08469,0.06376c0,0.03521 0.03791,0.06375 0.08469,0.06375zM241.21771,177.07381c0.04677,0 0.08469,-0.02854 0.08469,-0.06375c0,-0.03521 -0.03791,-0.06376 -0.08469,-0.06376c-0.04677,0 -0.08469,0.02855 -0.08469,0.06376c0,0.03521 0.03792,0.06375 0.08469,0.06375zM242.5493,178.43151c0.04677,0 0.08468,-0.02855 0.08468,-0.06376c0,-0.03521 -0.03791,-0.06375 -0.08468,-0.06375c-0.04677,0 -0.08469,0.02854 -0.08469,0.06375c0,0.03521 0.03791,0.06376 0.08469,0.06376z" data-paper-data="{&quot;index&quot;:null}" fill="url(#color-2)"/><path d="M243.89884,183.69935c0.73467,1.2007 0.2493,2.53241 -1.08411,2.97445c-1.3334,0.44203 -3.0099,-0.17299 -3.74457,-1.37369c-0.00639,-0.01045 -0.0127,-0.02091 -0.01891,-0.03137c0.05182,0.01747 0.10836,0.0199 0.15863,0.00325c0.10591,-0.03511 0.14395,-0.1417 0.08497,-0.2381c-0.05898,-0.09639 -0.19264,-0.14609 -0.29855,-0.11097c-0.03963,0.01313 -0.06975,0.03629 -0.08885,0.06516c-0.17949,-0.41361 -0.22146,-0.83223 -0.14057,-1.21564c0.03041,0.04066 0.08968,0.06064 0.13723,0.04488c0.05065,-0.01679 0.06885,-0.06777 0.04064,-0.11388c-0.02821,-0.0461 -0.09214,-0.06986 -0.14279,-0.05307c-0.00185,0.00062 -0.00364,0.00127 -0.0054,0.00197c0.12536,-0.44142 0.41834,-0.82837 0.85515,-1.09555c0.00213,0.00861 0.00576,0.01731 0.01098,0.02585c0.02821,0.0461 0.09213,0.06985 0.14278,0.05306c0.05065,-0.01679 0.06885,-0.06777 0.04064,-0.11387c-0.01202,-0.01964 -0.03053,-0.03523 -0.05173,-0.04535c0.11194,-0.05785 0.232,-0.10843 0.35987,-0.15081c0.10697,-0.03546 0.21613,-0.06413 0.32685,-0.08622c-0.03541,0.04882 -0.03796,0.11562 0.00029,0.17814c0.05049,0.08252 0.15571,0.1308 0.25141,0.12096c-0.04702,0.04949 -0.05475,0.12404 -0.01236,0.19332c0.05898,0.09639 0.19264,0.14607 0.29855,0.11096c0.10591,-0.03511 0.14394,-0.1417 0.08497,-0.2381c-0.05049,-0.08252 -0.15572,-0.13081 -0.25141,-0.12097c0.04702,-0.04949 0.05475,-0.12405 0.01236,-0.19332c-0.02432,-0.03974 -0.06134,-0.07155 -0.10388,-0.09274c0.18175,-0.01824 0.36606,-0.01999 0.55019,-0.00627c-0.0442,0.0194 -0.05884,0.0672 -0.03225,0.11066c0.02821,0.0461 0.09214,0.06986 0.14279,0.05307c0.05065,-0.01679 0.06884,-0.06777 0.04063,-0.11387c-0.01001,-0.01636 -0.02452,-0.02992 -0.04135,-0.03983c0.99348,0.10715 1.96504,0.65988 2.47779,1.49791zM243.06297,185.52904c0.05898,0.09639 0.19264,0.14608 0.29855,0.11096c0.10591,-0.03511 0.14395,-0.14172 0.08497,-0.23811c-0.05898,-0.09639 -0.19264,-0.14607 -0.29855,-0.11096c-0.10591,0.03511 -0.14395,0.14172 -0.08497,0.23811zM243.55222,184.68614c0.05898,0.09639 0.19264,0.14608 0.29855,0.11096c0.10591,-0.03511 0.14394,-0.14171 0.08497,-0.2381c-0.05898,-0.09639 -0.19264,-0.14607 -0.29855,-0.11096c-0.10591,0.03511 -0.14395,0.1417 -0.08497,0.2381zM241.99707,184.62733c0.05898,0.09639 0.19264,0.14608 0.29855,0.11096c0.10591,-0.03511 0.14394,-0.14171 0.08497,-0.2381c-0.05898,-0.09639 -0.19264,-0.14608 -0.29855,-0.11096c-0.10591,0.03511 -0.14394,0.14171 -0.08497,0.2381zM241.16149,183.96837c0.05898,0.09639 0.19264,0.14607 0.29855,0.11096c0.10591,-0.03511 0.14395,-0.14171 0.08497,-0.2381c-0.05898,-0.09639 -0.19265,-0.14607 -0.29856,-0.11096c-0.10591,0.03511 -0.14394,0.14171 -0.08496,0.23811zM240.41581,185.28981c0.05898,0.09639 0.19264,0.14608 0.29855,0.11096c0.10591,-0.03511 0.14395,-0.14171 0.08497,-0.2381c-0.05898,-0.09639 -0.19264,-0.14608 -0.29855,-0.11096c-0.10591,0.03511 -0.14394,0.14171 -0.08497,0.2381zM241.27107,186.13372c0.05898,0.09639 0.19263,0.14608 0.29854,0.11096c0.10591,-0.03511 0.14395,-0.14171 0.08498,-0.2381c-0.05898,-0.09639 -0.19265,-0.14607 -0.29856,-0.11096c-0.10591,0.03511 -0.14394,0.14171 -0.08496,0.23811zM239.49482,183.67c0.05898,0.09639 0.19264,0.14607 0.29855,0.11096c0.10591,-0.03511 0.14395,-0.1417 0.08497,-0.2381c-0.05898,-0.09639 -0.19264,-0.14608 -0.29855,-0.11096c-0.10591,0.03511 -0.14395,0.14171 -0.08497,0.2381zM242.27505,182.81627c0.01175,-0.02229 0.01085,-0.05035 -0.00535,-0.07682c-0.02821,-0.0461 -0.09214,-0.06986 -0.14278,-0.05307c-0.05065,0.01679 -0.06885,0.06777 -0.04064,0.11388c0.02073,0.03389 0.06078,0.05571 0.10065,0.05822c-0.01175,0.02229 -0.01085,0.05036 0.00535,0.07683c0.02821,0.0461 0.09214,0.06986 0.14279,0.05307c0.05065,-0.01679 0.06885,-0.06777 0.04064,-0.11387c-0.02073,-0.03389 -0.06078,-0.0557 -0.10065,-0.05822zM239.92071,185.59847c-0.00156,-0.01125 -0.00568,-0.02278 -0.01256,-0.03401c-0.02821,-0.0461 -0.09213,-0.06986 -0.14278,-0.05307c-0.05065,0.01679 -0.06885,0.06777 -0.04064,0.11387c0.02687,0.04392 0.08616,0.06756 0.1355,0.05519c0.00156,0.01125 0.00568,0.02277 0.01255,0.034c0.02821,0.0461 0.09214,0.06986 0.14278,0.05307c0.05065,-0.01679 0.06885,-0.06778 0.04064,-0.11388c-0.02687,-0.04392 -0.08616,-0.06756 -0.1355,-0.05518zM240.36787,186.10342c0.02821,0.0461 0.09214,0.06986 0.14279,0.05307c0.05065,-0.01679 0.06884,-0.06777 0.04064,-0.11387c-0.02821,-0.0461 -0.09214,-0.06986 -0.14278,-0.05307c-0.05065,0.01679 -0.06885,0.06777 -0.04064,0.11388zM239.64077,183.19617c0.02821,0.0461 0.09213,0.06986 0.14278,0.05307c0.05065,-0.01679 0.06884,-0.06777 0.04064,-0.11387c-0.02821,-0.0461 -0.09214,-0.06986 -0.14278,-0.05307c-0.05065,0.01679 -0.06884,0.06777 -0.04063,0.11387zM241.99103,186.13967c0.02821,0.0461 0.09214,0.06986 0.14278,0.05307c0.05065,-0.01679 0.06885,-0.06778 0.04064,-0.11388c-0.02821,-0.0461 -0.09214,-0.06986 -0.14279,-0.05307c-0.05065,0.01679 -0.06885,0.06777 -0.04063,0.11387zM242.65664,182.93026c0.02821,0.0461 0.09213,0.06986 0.14278,0.05307c0.05065,-0.01679 0.06885,-0.06778 0.04064,-0.11388c-0.02821,-0.0461 -0.09214,-0.06986 -0.14278,-0.05307c-0.05065,0.01679 -0.06884,0.06778 -0.04064,0.11388zM241.82776,183.33268c0.02821,0.0461 0.09214,0.06986 0.14279,0.05307c0.05065,-0.01679 0.06885,-0.06777 0.04063,-0.11387c-0.02821,-0.0461 -0.09214,-0.06986 -0.14278,-0.05307c-0.05065,0.01679 -0.06884,0.06778 -0.04064,0.11388zM243.27913,185.07448c0.02821,0.0461 0.09214,0.06986 0.14278,0.05307c0.05065,-0.01679 0.06885,-0.06777 0.04064,-0.11388c-0.02821,-0.0461 -0.09214,-0.06986 -0.14279,-0.05307c-0.05065,0.01679 -0.06885,0.06777 -0.04064,0.11387zM240.26365,183.01094c0.02821,0.0461 0.09214,0.06986 0.14278,0.05307c0.05065,-0.01679 0.06884,-0.06777 0.04063,-0.11387c-0.02821,-0.0461 -0.09214,-0.06986 -0.14278,-0.05307c-0.05065,0.01679 -0.06884,0.06778 -0.04064,0.11388zM241.77882,183.06172c0.02821,0.0461 0.09214,0.06986 0.14279,0.05307c0.05065,-0.01679 0.06885,-0.06778 0.04064,-0.11388c-0.02821,-0.0461 -0.09214,-0.06986 -0.14278,-0.05307c-0.05065,0.01679 -0.06885,0.06778 -0.04065,0.11388zM242.09472,183.52071c0.02821,0.0461 0.09214,0.06986 0.14279,0.05307c0.05065,-0.01679 0.06884,-0.06777 0.04063,-0.11387c-0.02821,-0.0461 -0.09214,-0.06986 -0.14278,-0.05307c-0.05065,0.01679 -0.06885,0.06778 -0.04064,0.11388zM242.77672,183.98597c0.02821,0.0461 0.09213,0.06986 0.14278,0.05307c0.05065,-0.01679 0.06884,-0.06777 0.04064,-0.11387c-0.02821,-0.0461 -0.09214,-0.06986 -0.14278,-0.05307c-0.05065,0.01679 -0.06884,0.06777 -0.04063,0.11387zM240.29507,183.97905c0.02821,0.0461 0.09213,0.06986 0.14278,0.05307c0.05065,-0.01679 0.06886,-0.06778 0.04064,-0.11388c-0.02821,-0.0461 -0.09214,-0.06986 -0.14278,-0.05307c-0.05065,0.01679 -0.06884,0.06778 -0.04064,0.11388zM242.46449,183.87676c0.02821,0.0461 0.09214,0.06985 0.14279,0.05306c0.05065,-0.01679 0.06884,-0.06777 0.04063,-0.11387c-0.02821,-0.0461 -0.09214,-0.06986 -0.14279,-0.05307c-0.05065,0.01679 -0.06885,0.06778 -0.04064,0.11388zM243.30722,184.20364c0.02821,0.0461 0.09214,0.06986 0.14278,0.05307c0.05065,-0.01679 0.06886,-0.06778 0.04064,-0.11388c-0.02821,-0.0461 -0.09214,-0.06986 -0.14278,-0.05307c-0.05065,0.01679 -0.06885,0.06777 -0.04064,0.11388zM243.7433,184.03781c0.02821,0.0461 0.09214,0.06985 0.14279,0.05306c0.05065,-0.01679 0.06885,-0.06777 0.04064,-0.11387c-0.02821,-0.0461 -0.09213,-0.06986 -0.14278,-0.05307c-0.05065,0.01679 -0.06885,0.06777 -0.04064,0.11388zM239.11533,184.4765c0.02821,0.0461 0.09214,0.06986 0.14278,0.05307c0.05065,-0.01679 0.06884,-0.06777 0.04064,-0.11387c-0.02821,-0.0461 -0.09214,-0.06986 -0.14278,-0.05307c-0.05065,0.01679 -0.06884,0.06777 -0.04064,0.11387zM239.67976,185.0552c0.02821,0.0461 0.09213,0.06986 0.14278,0.05307c0.05065,-0.01679 0.06884,-0.06777 0.04064,-0.11387c-0.02821,-0.0461 -0.09214,-0.06986 -0.14278,-0.05307c-0.05065,0.01679 -0.06884,0.06777 -0.04063,0.11387zM241.22826,183.21234c0.02821,0.0461 0.09214,0.06986 0.14279,0.05307c0.05065,-0.01679 0.06884,-0.06778 0.04063,-0.11387c-0.02821,-0.0461 -0.09213,-0.06986 -0.14278,-0.05307c-0.05065,0.01679 -0.06884,0.06778 -0.04064,0.11388zM243.00092,183.64574c0.02821,0.0461 0.09214,0.06986 0.14278,0.05307c0.05065,-0.01679 0.06885,-0.06777 0.04064,-0.11388c-0.02821,-0.0461 -0.09213,-0.06986 -0.14278,-0.05307c-0.05065,0.01679 -0.06884,0.06777 -0.04064,0.11387zM239.72408,184.21089c0.02821,0.0461 0.09214,0.06986 0.14279,0.05307c0.05065,-0.01679 0.06885,-0.06778 0.04064,-0.11388c-0.02821,-0.0461 -0.09214,-0.06986 -0.14279,-0.05307c-0.05065,0.01679 -0.06885,0.06777 -0.04064,0.11388zM240.29978,183.41378c0.02821,0.0461 0.09213,0.06986 0.14278,0.05307c0.05065,-0.01679 0.06885,-0.06777 0.04064,-0.11388c-0.02821,-0.0461 -0.09213,-0.06986 -0.14278,-0.05307c-0.05065,0.01679 -0.06885,0.06777 -0.04064,0.11388zM243.88503,185.12889c0.02821,0.0461 0.09214,0.06986 0.14279,0.05307c0.05065,-0.01679 0.06885,-0.06777 0.04063,-0.11387c-0.02821,-0.0461 -0.09214,-0.06986 -0.14278,-0.05307c-0.05065,0.01679 -0.06885,0.06777 -0.04064,0.11388zM243.75601,185.58647c0.02821,0.0461 0.09214,0.06986 0.14279,0.05307c0.05065,-0.01679 0.06885,-0.06777 0.04064,-0.11388c-0.02821,-0.0461 -0.09214,-0.06985 -0.14279,-0.05306c-0.05065,0.01679 -0.06885,0.06777 -0.04064,0.11387zM240.20213,185.67974c0.02821,0.0461 0.09214,0.06986 0.14279,0.05307c0.05065,-0.01679 0.06884,-0.06777 0.04063,-0.11387c-0.02821,-0.0461 -0.09214,-0.06986 -0.14278,-0.05307c-0.05065,0.01679 -0.06884,0.06778 -0.04064,0.11388zM241.68243,182.82777c0.02821,0.0461 0.09214,0.06986 0.14279,0.05307c0.05065,-0.01679 0.06884,-0.06777 0.04064,-0.11387c-0.02821,-0.0461 -0.09213,-0.06986 -0.14278,-0.05307c-0.05065,0.01679 -0.06885,0.06777 -0.04064,0.11387zM240.71888,183.48756c0.02821,0.0461 0.09214,0.06986 0.14278,0.05307c0.05065,-0.01679 0.06884,-0.06778 0.04064,-0.11388c-0.02821,-0.0461 -0.09214,-0.06986 -0.14279,-0.05307c-0.05065,0.01679 -0.06884,0.06777 -0.04063,0.11387zM240.79487,185.57896c0.02821,0.0461 0.09214,0.06986 0.14278,0.05307c0.05065,-0.01679 0.06885,-0.06777 0.04064,-0.11388c-0.02821,-0.0461 -0.09213,-0.06986 -0.14278,-0.05307c-0.05065,0.01679 -0.06885,0.06777 -0.04064,0.11387zM241.41762,183.52183c0.02821,0.0461 0.09214,0.06986 0.14278,0.05307c0.05065,-0.01679 0.06884,-0.06777 0.04064,-0.11387c-0.02821,-0.0461 -0.09214,-0.06986 -0.14278,-0.05307c-0.05065,0.01679 -0.06884,0.06777 -0.04064,0.11387zM242.90671,186.0701c0.02821,0.0461 0.09214,0.06986 0.14278,0.05307c0.05065,-0.01679 0.06885,-0.06777 0.04064,-0.11388c-0.02821,-0.0461 -0.09213,-0.06986 -0.14278,-0.05307c-0.05065,0.01679 -0.06884,0.06777 -0.04064,0.11387zM242.46588,183.24876c0.02821,0.0461 0.09214,0.06986 0.14278,0.05307c0.05065,-0.01679 0.06885,-0.06777 0.04064,-0.11388c-0.02821,-0.0461 -0.09214,-0.06986 -0.14279,-0.05307c-0.05065,0.01679 -0.06885,0.06777 -0.04064,0.11387zM242.42071,186.03977c0.02821,0.0461 0.09214,0.06986 0.14278,0.05307c0.05065,-0.01679 0.06885,-0.06777 0.04064,-0.11388c-0.02821,-0.0461 -0.09214,-0.06986 -0.14278,-0.05307c-0.05065,0.01679 -0.06885,0.06778 -0.04064,0.11388zM240.86469,186.15144c0.02821,0.0461 0.09214,0.06986 0.14278,0.05307c0.05065,-0.01679 0.06885,-0.06777 0.04064,-0.11388c-0.02821,-0.0461 -0.09213,-0.06986 -0.14278,-0.05307c-0.05065,0.01679 -0.06885,0.06777 -0.04064,0.11387zM242.56161,186.46105c0.02821,0.0461 0.09214,0.06986 0.14278,0.05307c0.05065,-0.01679 0.06884,-0.06778 0.04064,-0.11388c-0.02821,-0.0461 -0.09213,-0.06986 -0.14278,-0.05307c-0.05065,0.01679 -0.06885,0.06777 -0.04064,0.11388zM241.25484,182.8738c0.02821,0.0461 0.09214,0.06986 0.14279,0.05307c0.05065,-0.01679 0.06884,-0.06778 0.04063,-0.11387c-0.02821,-0.0461 -0.09213,-0.06986 -0.14278,-0.05307c-0.05065,0.01679 -0.06885,0.06777 -0.04064,0.11388zM241.43489,182.6333c0.02821,0.0461 0.09214,0.06986 0.14279,0.05307c0.05065,-0.01679 0.06884,-0.06777 0.04064,-0.11387c-0.02821,-0.0461 -0.09214,-0.06986 -0.14279,-0.05307c-0.05065,0.01679 -0.06884,0.06777 -0.04064,0.11387zM243.64297,185.87921c0.02821,0.0461 0.09214,0.06986 0.14279,0.05307c0.05065,-0.01679 0.06885,-0.06777 0.04064,-0.11388c-0.02821,-0.0461 -0.09213,-0.06986 -0.14278,-0.05307c-0.05065,0.01679 -0.06886,0.06778 -0.04064,0.11388zM242.70308,185.58453c0.02821,0.0461 0.09214,0.06986 0.14278,0.05307c0.05065,-0.01679 0.06884,-0.06778 0.04064,-0.11388c-0.02821,-0.0461 -0.09213,-0.06986 -0.14278,-0.05307c-0.05065,0.01679 -0.06885,0.06777 -0.04064,0.11387zM242.7207,183.56477c0.01727,-0.04347 0.00473,-0.08924 -0.02799,-0.10223c-0.03272,-0.013 -0.07324,0.0117 -0.09051,0.05517c-0.01727,0.04347 -0.00473,0.08925 0.02798,0.10225c0.03272,0.013 0.07325,-0.01171 0.09051,-0.05518zM243.02333,183.24971c0.01727,-0.04347 0.00473,-0.08925 -0.02799,-0.10224c-0.03272,-0.013 -0.07325,0.01171 -0.09051,0.05517c-0.01727,0.04347 -0.00474,0.08924 0.02799,0.10224c0.03272,0.013 0.07324,-0.0117 0.09051,-0.05517zM241.84639,186.59088c0.01727,-0.04347 0.00473,-0.08924 -0.02799,-0.10223c-0.03272,-0.013 -0.07324,0.0117 -0.0905,0.05517c-0.01727,0.04347 -0.00474,0.08925 0.02798,0.10225c0.03272,0.013 0.07325,-0.01171 0.09051,-0.05518zM241.15165,186.58697c0.01727,-0.04347 0.00473,-0.08925 -0.02799,-0.10224c-0.03272,-0.013 -0.07324,0.0117 -0.09051,0.05517c-0.01727,0.04347 -0.00473,0.08925 0.02799,0.10224c0.03272,0.013 0.07325,-0.01171 0.09051,-0.05517zM241.1498,184.39173c0.01727,-0.04347 0.00473,-0.08925 -0.02799,-0.10224c-0.03272,-0.013 -0.07324,0.0117 -0.09051,0.05518c-0.01727,0.04347 -0.00474,0.08924 0.02798,0.10224c0.03272,0.013 0.07324,-0.0117 0.09051,-0.05517zM242.88853,184.79217c0.01727,-0.04347 0.00473,-0.08924 -0.028,-0.10224c-0.03272,-0.013 -0.07324,0.0117 -0.0905,0.05517c-0.01727,0.04347 -0.00474,0.08925 0.02798,0.10225c0.03272,0.013 0.07325,-0.0117 0.09052,-0.05518zM240.84058,184.414c0.01727,-0.04347 0.00474,-0.08924 -0.02799,-0.10224c-0.03272,-0.013 -0.07325,0.0117 -0.09052,0.05517c-0.01727,0.04347 -0.00472,0.08925 0.02799,0.10224c0.03272,0.013 0.07324,-0.0117 0.09051,-0.05517zM242.00011,184.00401c0.01727,-0.04347 0.00473,-0.08925 -0.02799,-0.10224c-0.03272,-0.013 -0.07324,0.01171 -0.09051,0.05518c-0.01727,0.04347 -0.00474,0.08924 0.02798,0.10224c0.03272,0.013 0.07324,-0.0117 0.09051,-0.05517zM242.57149,185.2466c0.01727,-0.04347 0.00474,-0.08924 -0.02799,-0.10224c-0.03272,-0.013 -0.07324,0.0117 -0.09051,0.05517c-0.01727,0.04347 -0.00473,0.08925 0.02799,0.10224c0.03272,0.013 0.07325,-0.01171 0.09051,-0.05517zM241.71691,185.54195c0.01727,-0.04347 0.00473,-0.08925 -0.02799,-0.10224c-0.03272,-0.013 -0.07325,0.0117 -0.09052,0.05517c-0.01727,0.04347 -0.00473,0.08925 0.02799,0.10224c0.03272,0.013 0.07324,-0.0117 0.09051,-0.05517zM241.11253,185.13866c0.01727,-0.04347 0.00473,-0.08924 -0.02799,-0.10223c-0.03272,-0.013 -0.07324,0.0117 -0.09051,0.05517c-0.01727,0.04347 -0.00474,0.08925 0.02798,0.10225c0.03272,0.013 0.07325,-0.01171 0.09051,-0.05518zM241.29363,184.64835c0.01727,-0.04347 0.00473,-0.08924 -0.028,-0.10224c-0.03272,-0.013 -0.07324,0.0117 -0.0905,0.05517c-0.01727,0.04347 -0.00474,0.08924 0.02798,0.10224c0.03272,0.013 0.07325,-0.0117 0.09052,-0.05517zM240.86815,184.86022c0.01727,-0.04347 0.00473,-0.08925 -0.02799,-0.10224c-0.03272,-0.013 -0.07324,0.0117 -0.09051,0.05517c-0.01727,0.04347 -0.00474,0.08924 0.02799,0.10224c0.03272,0.013 0.07325,-0.01171 0.09051,-0.05517zM241.81973,185.11123c0.01727,-0.04347 0.00473,-0.08924 -0.02799,-0.10223c-0.03272,-0.013 -0.07325,0.0117 -0.09052,0.05516c-0.01727,0.04347 -0.00473,0.08925 0.02799,0.10225c0.03272,0.013 0.07325,-0.01171 0.09051,-0.05518zM243.56123,183.71728c0.01727,-0.04347 0.00473,-0.08925 -0.02799,-0.10224c-0.03272,-0.013 -0.07324,0.0117 -0.09051,0.05517c-0.01727,0.04347 -0.00473,0.08924 0.02799,0.10223c0.03272,0.013 0.07324,-0.0117 0.09051,-0.05517zM242.42749,186.64033c0.01727,-0.04347 0.00473,-0.08925 -0.02799,-0.10225c-0.03272,-0.013 -0.07325,0.01171 -0.09051,0.05518c-0.01727,0.04347 -0.00473,0.08924 0.02799,0.10223c0.03272,0.013 0.07325,-0.0117 0.09052,-0.05516zM240.26411,184.76539c0.01727,-0.04347 0.00473,-0.08925 -0.02799,-0.10224c-0.03272,-0.013 -0.07324,0.0117 -0.09051,0.05518c-0.01727,0.04347 -0.00474,0.08924 0.02798,0.10224c0.03272,0.013 0.07325,-0.01171 0.09051,-0.05517zM242.74174,184.37113c0.01727,-0.04347 0.00474,-0.08924 -0.02799,-0.10224c-0.03272,-0.013 -0.07324,0.0117 -0.09051,0.05517c-0.01727,0.04347 -0.00473,0.08925 0.02799,0.10224c0.03272,0.013 0.07325,-0.01171 0.09051,-0.05517zM240.19134,184.19239c0.01727,-0.04347 0.00473,-0.08924 -0.02799,-0.10223c-0.03272,-0.013 -0.07324,0.0117 -0.09051,0.05517c-0.01727,0.04347 -0.00473,0.08925 0.02799,0.10224c0.03272,0.013 0.07324,-0.0117 0.09051,-0.05517zM241.38346,185.59086c0.01727,-0.04347 0.00474,-0.08924 -0.02799,-0.10224c-0.03272,-0.013 -0.07324,0.0117 -0.09051,0.05517c-0.01727,0.04347 -0.00473,0.08925 0.02799,0.10224c0.03272,0.013 0.07325,-0.01171 0.09051,-0.05517zM240.59953,184.60843c0.01727,-0.04347 0.00473,-0.08925 -0.02799,-0.10224c-0.03272,-0.013 -0.07325,0.01171 -0.09051,0.05517c-0.01727,0.04347 -0.00473,0.08925 0.02799,0.10224c0.03272,0.013 0.07325,-0.0117 0.09052,-0.05517zM242.09067,185.56344c0.01727,-0.04347 0.00473,-0.08925 -0.02799,-0.10224c-0.03272,-0.013 -0.07325,0.01171 -0.09051,0.05517c-0.01727,0.04347 -0.00474,0.08924 0.02799,0.10224c0.03272,0.013 0.07325,-0.0117 0.09052,-0.05517zM241.68011,184.29405c0.01727,-0.04347 0.00473,-0.08925 -0.02799,-0.10224c-0.03272,-0.013 -0.07324,0.0117 -0.09051,0.05517c-0.01727,0.04347 -0.00474,0.08924 0.02799,0.10224c0.03272,0.013 0.07325,-0.01171 0.09051,-0.05517zM241.4119,185.00365c0.01727,-0.04347 0.00473,-0.08924 -0.02798,-0.10223c-0.03272,-0.013 -0.07324,0.0117 -0.09051,0.05517c-0.01727,0.04347 -0.00474,0.08925 0.02798,0.10225c0.03272,0.013 0.07324,-0.01171 0.09051,-0.05518zM241.72633,184.69327c0.01727,-0.04347 0.00473,-0.08924 -0.02799,-0.10223c-0.03272,-0.013 -0.07324,0.0117 -0.0905,0.05517c-0.01727,0.04347 -0.00474,0.08924 0.02798,0.10224c0.03272,0.013 0.07324,-0.0117 0.09051,-0.05517zM241.49624,186.57876c0.01727,-0.04347 0.00473,-0.08925 -0.02799,-0.10224c-0.03272,-0.013 -0.07325,0.0117 -0.09052,0.05517c-0.01727,0.04347 -0.00473,0.08925 0.02799,0.10225c0.03272,0.013 0.07325,-0.01171 0.09051,-0.05518zM241.51413,185.26189c0.01727,-0.04347 0.00474,-0.08924 -0.02799,-0.10224c-0.03272,-0.013 -0.07324,0.0117 -0.09051,0.05517c-0.01727,0.04347 -0.00473,0.08925 0.02799,0.10224c0.03272,0.013 0.07325,-0.01171 0.09051,-0.05517zM243.26749,184.52555c0.01727,-0.04347 0.00472,-0.08924 -0.028,-0.10224c-0.03272,-0.013 -0.07324,0.0117 -0.09051,0.05517c-0.01727,0.04347 -0.00474,0.08924 0.02799,0.10224c0.03272,0.013 0.07325,-0.0117 0.09052,-0.05517z" data-paper-data="{&quot;index&quot;:null}" fill="url(#color-3)"/><path d="M239.5202,176.71474c1.47592,-1.96746 3.95148,-2.03823 5.52934,-0.15808c1.57785,1.88014 1.66048,4.99923 0.18457,6.9667c-0.01284,0.01711 -0.02575,0.0341 -0.03875,0.05093c-0.00505,-0.09542 -0.03756,-0.18878 -0.09704,-0.25967c-0.12533,-0.14934 -0.32296,-0.14235 -0.44145,0.0156c-0.11848,0.15795 -0.11295,0.40705 0.01237,0.55639c0.04689,0.05587 0.10392,0.08986 0.16312,0.10226c-0.55587,0.55826 -1.20858,0.89642 -1.88338,1.01236c0.04642,-0.07561 0.04065,-0.18473 -0.01563,-0.25179c-0.05993,-0.07142 -0.15447,-0.06809 -0.21114,0.00745c-0.05666,0.07554 -0.05401,0.19467 0.00592,0.26609c0.00219,0.0026 0.00441,0.0051 0.00669,0.00751c-0.79766,0.08115 -1.61498,-0.14503 -2.3306,-0.68202c0.01262,-0.00902 0.02441,-0.02052 0.0349,-0.0345c0.05666,-0.07554 0.05401,-0.19467 -0.00592,-0.26609c-0.05993,-0.07142 -0.15447,-0.06809 -0.21113,0.00746c-0.02414,0.03219 -0.03752,0.07229 -0.04028,0.11325c-0.16614,-0.14446 -0.32572,-0.30682 -0.47702,-0.48712c-0.12659,-0.15082 -0.24352,-0.30962 -0.35081,-0.47515c0.10211,0.02602 0.21224,-0.01292 0.28909,-0.11536c0.10143,-0.13521 0.11197,-0.33724 0.03427,-0.48628c0.11069,0.04443 0.23674,0.0089 0.3219,-0.10462c0.11848,-0.15795 0.11294,-0.40704 -0.01238,-0.55637c-0.12533,-0.14934 -0.32296,-0.14234 -0.44145,0.0156c-0.10143,0.13521 -0.11196,0.33723 -0.03427,0.48627c-0.11069,-0.04443 -0.23675,-0.00889 -0.3219,0.10463c-0.04886,0.06513 -0.07663,0.14576 -0.0836,0.2285c-0.14685,-0.28337 -0.26857,-0.58154 -0.36505,-0.88938c0.06002,0.05926 0.14708,0.0522 0.2005,-0.01901c0.05666,-0.07554 0.05401,-0.19468 -0.00592,-0.2661c-0.05993,-0.07142 -0.15445,-0.06808 -0.21112,0.00746c-0.02011,0.02681 -0.03277,0.05911 -0.03802,0.09283c-0.46679,-1.68239 -0.19589,-3.61658 0.83423,-4.98974zM243.03049,176.89192c0.11848,-0.15795 0.11295,-0.40704 -0.01237,-0.55638c-0.12533,-0.14934 -0.32297,-0.14234 -0.44146,0.0156c-0.11848,0.15795 -0.11293,0.40704 0.01238,0.55637c0.12533,0.14934 0.32297,0.14234 0.44146,-0.0156zM241.34617,176.64112c0.11848,-0.15795 0.11294,-0.40704 -0.01238,-0.55638c-0.12533,-0.14934 -0.32296,-0.14234 -0.44146,0.0156c-0.11848,0.15795 -0.11293,0.40704 0.01238,0.55638c0.12533,0.14934 0.32297,0.14235 0.44146,-0.0156zM242.25375,179.2044c0.11848,-0.15795 0.11295,-0.40705 -0.01237,-0.55639c-0.12533,-0.14934 -0.32297,-0.14234 -0.44146,0.0156c-0.11848,0.15795 -0.11294,0.40705 0.01238,0.55639c0.12533,0.14934 0.32296,0.14234 0.44145,-0.0156zM241.72263,180.9863c0.11848,-0.15795 0.11294,-0.40705 -0.01238,-0.55639c-0.12533,-0.14934 -0.32296,-0.14234 -0.44145,0.01561c-0.11848,0.15795 -0.11295,0.40704 0.01237,0.55638c0.12533,0.14934 0.32297,0.14235 0.44146,-0.0156zM244.34944,181.34485c0.11848,-0.15795 0.11295,-0.40704 -0.01237,-0.55638c-0.12533,-0.14934 -0.32297,-0.14235 -0.44146,0.0156c-0.11848,0.15795 -0.11295,0.40704 0.01237,0.55638c0.12533,0.14934 0.32297,0.14234 0.44146,-0.0156zM245.16819,179.41172c0.11848,-0.15795 0.11295,-0.40704 -0.01238,-0.55638c-0.12533,-0.14934 -0.32297,-0.14234 -0.44146,0.0156c-0.11848,0.15795 -0.11293,0.40704 0.01239,0.55638c0.12533,0.14934 0.32296,0.14235 0.44145,-0.0156zM242.31312,183.8852c0.11848,-0.15795 0.11295,-0.40705 -0.01238,-0.55639c-0.12533,-0.14934 -0.32297,-0.14235 -0.44146,0.0156c-0.11848,0.15795 -0.11295,0.40705 0.01238,0.55639c0.12533,0.14934 0.32297,0.14235 0.44146,-0.0156zM239.13354,179.92114c-0.04378,-0.0047 -0.08877,0.01486 -0.12131,0.05823c-0.05666,0.07554 -0.05401,0.19468 0.00592,0.2661c0.05993,0.07142 0.15446,0.06808 0.21113,-0.00745c0.04166,-0.05553 0.05127,-0.13462 0.02961,-0.201c0.04378,0.0047 0.08877,-0.01486 0.12131,-0.05823c0.05666,-0.07554 0.05401,-0.19468 -0.00592,-0.2661c-0.05993,-0.07142 -0.15446,-0.06808 -0.21112,0.00746c-0.04166,0.05553 -0.05125,0.13462 -0.02961,0.20099zM245.16999,181.94973c-0.01726,0.00979 -0.03331,0.02391 -0.04712,0.04232c-0.05666,0.07554 -0.05401,0.19468 0.00592,0.26609c0.05993,0.07142 0.15447,0.06807 0.21113,-0.00746c0.05399,-0.07196 0.05414,-0.18348 0.00221,-0.25563c0.01726,-0.00979 0.0333,-0.02391 0.04711,-0.04232c0.05666,-0.07554 0.05402,-0.19468 -0.00591,-0.26609c-0.05993,-0.07142 -0.15447,-0.06808 -0.21113,0.00745c-0.05399,0.07196 -0.05414,0.18349 -0.00221,0.25563zM245.70154,180.89792c0.05666,-0.07554 0.05402,-0.19468 -0.00591,-0.2661c-0.05993,-0.07142 -0.15446,-0.06808 -0.21113,0.00745c-0.05666,0.07554 -0.05402,0.19468 0.00591,0.2661c0.05993,0.07142 0.15446,0.06808 0.21113,-0.00746zM241.44956,183.95382c0.05666,-0.07554 0.05401,-0.19468 -0.00592,-0.2661c-0.05993,-0.07142 -0.15445,-0.06808 -0.21112,0.00745c-0.05666,0.07554 -0.05402,0.19468 0.00591,0.26609c0.05993,0.07142 0.15446,0.06808 0.21113,-0.00746zM244.71348,178.23876c0.05666,-0.07554 0.05401,-0.19468 -0.00592,-0.2661c-0.05993,-0.07142 -0.15446,-0.06808 -0.21112,0.00746c-0.05666,0.07554 -0.05402,0.19468 0.00591,0.2661c0.05993,0.07142 0.15447,0.06808 0.21113,-0.00746zM239.07251,179.22797c0.05666,-0.07554 0.05402,-0.19468 -0.00591,-0.26609c-0.05993,-0.07142 -0.15447,-0.06808 -0.21113,0.00746c-0.05666,0.07554 -0.05402,0.19467 0.00591,0.26609c0.05993,0.07142 0.15447,0.06808 0.21113,-0.00745zM240.26061,180.31439c0.05666,-0.07554 0.05401,-0.19467 -0.00592,-0.26609c-0.05993,-0.07142 -0.15446,-0.06809 -0.21112,0.00746c-0.05666,0.07554 -0.05401,0.19468 0.00592,0.2661c0.05993,0.07142 0.15446,0.06808 0.21112,-0.00745zM242.15293,176.8341c0.05666,-0.07554 0.05402,-0.19468 -0.00591,-0.2661c-0.05993,-0.07142 -0.15446,-0.06808 -0.21113,0.00745c-0.05666,0.07554 -0.05402,0.19468 0.00591,0.2661c0.05993,0.07142 0.15447,0.06808 0.21113,-0.00745zM240.74701,183.06182c0.05666,-0.07554 0.05402,-0.19468 -0.00591,-0.2661c-0.05993,-0.07142 -0.15446,-0.06809 -0.21113,0.00745c-0.05666,0.07554 -0.05401,0.19468 0.00592,0.2661c0.05993,0.07142 0.15446,0.06808 0.21113,-0.00745zM239.85218,180.56862c0.05666,-0.07554 0.05401,-0.19467 -0.00592,-0.26609c-0.05993,-0.07142 -0.15446,-0.06808 -0.21112,0.00745c-0.05666,0.07554 -0.05402,0.19468 0.00591,0.2661c0.05993,0.07142 0.15446,0.06807 0.21113,-0.00746zM240.39376,179.75959c0.05666,-0.07554 0.05401,-0.19467 -0.00592,-0.26609c-0.05993,-0.07142 -0.15445,-0.06809 -0.21112,0.00746c-0.05666,0.07554 -0.05401,0.19468 0.00592,0.2661c0.05993,0.07142 0.15446,0.06808 0.21112,-0.00746zM240.70938,178.35204c0.05666,-0.07554 0.05402,-0.19467 -0.00591,-0.26609c-0.05993,-0.07142 -0.15445,-0.06808 -0.21112,0.00745c-0.05666,0.07554 -0.05402,0.19467 0.00591,0.26609c0.05993,0.07142 0.15445,0.06808 0.21112,-0.00745zM242.29882,182.38636c0.05666,-0.07554 0.05401,-0.19468 -0.00592,-0.26609c-0.05993,-0.07142 -0.15446,-0.06809 -0.21112,0.00746c-0.05666,0.07554 -0.05402,0.19468 0.00591,0.26609c0.05993,0.07142 0.15446,0.06808 0.21113,-0.00745zM240.73344,178.9295c0.05666,-0.07554 0.05401,-0.19468 -0.00592,-0.2661c-0.05993,-0.07142 -0.15446,-0.06808 -0.21113,0.00746c-0.05666,0.07554 -0.05401,0.19468 0.00592,0.2661c0.05993,0.07142 0.15447,0.06808 0.21113,-0.00746zM240.72069,177.35017c0.05666,-0.07554 0.05402,-0.19468 -0.00592,-0.26609c-0.05993,-0.07142 -0.15447,-0.06809 -0.21113,0.00745c-0.05666,0.07554 -0.05401,0.19468 0.00592,0.2661c0.05993,0.07142 0.15446,0.06809 0.21113,-0.00746zM240.17012,176.749c0.05666,-0.07554 0.05402,-0.19467 -0.00592,-0.26609c-0.05993,-0.07142 -0.15447,-0.06808 -0.21113,0.00745c-0.05666,0.07554 -0.05401,0.19467 0.00592,0.26609c0.05993,0.07142 0.15446,0.06809 0.21113,-0.00745zM243.86755,183.98123c0.05666,-0.07554 0.05402,-0.19468 -0.00591,-0.2661c-0.05993,-0.07142 -0.15446,-0.06808 -0.21113,0.00745c-0.05666,0.07554 -0.05402,0.19468 0.00591,0.2661c0.05993,0.07142 0.15446,0.06808 0.21113,-0.00745zM244.44321,182.69143c0.05666,-0.07554 0.05401,-0.19468 -0.00592,-0.2661c-0.05993,-0.07142 -0.15445,-0.06808 -0.21112,0.00745c-0.05666,0.07554 -0.05402,0.19468 0.00591,0.2661c0.05993,0.07142 0.15446,0.06808 0.21113,-0.00745zM240.45188,181.36552c0.05666,-0.07554 0.05401,-0.19468 -0.00592,-0.2661c-0.05993,-0.07142 -0.15447,-0.06808 -0.21113,0.00746c-0.05666,0.07554 -0.05402,0.19467 0.00591,0.26609c0.05993,0.07142 0.15447,0.06808 0.21114,-0.00745zM240.01229,178.20741c0.05666,-0.07554 0.05401,-0.19468 -0.00592,-0.26609c-0.05993,-0.07142 -0.15446,-0.06809 -0.21113,0.00746c-0.05666,0.07554 -0.05401,0.19468 0.00592,0.26609c0.05993,0.07142 0.15446,0.06808 0.21113,-0.00746zM243.04357,183.16403c0.05666,-0.07554 0.05401,-0.19468 -0.00592,-0.2661c-0.05993,-0.07142 -0.15446,-0.06809 -0.21112,0.00746c-0.05666,0.07554 -0.05402,0.19468 0.00591,0.26609c0.05993,0.07142 0.15446,0.06808 0.21113,-0.00746zM241.37785,182.74331c0.05666,-0.07554 0.05402,-0.19467 -0.00591,-0.26609c-0.05993,-0.07142 -0.15446,-0.06808 -0.21113,0.00746c-0.05666,0.07554 -0.05402,0.19467 0.00591,0.26609c0.05993,0.07142 0.15446,0.06808 0.21113,-0.00746zM241.85047,175.81511c0.05666,-0.07554 0.05401,-0.19468 -0.00592,-0.2661c-0.05993,-0.07142 -0.15446,-0.06808 -0.21112,0.00746c-0.05666,0.07554 -0.05402,0.19468 0.00591,0.2661c0.05993,0.07142 0.15446,0.06809 0.21113,-0.00746zM242.67674,175.72949c0.05666,-0.07554 0.05401,-0.19468 -0.00592,-0.26609c-0.05993,-0.07142 -0.15446,-0.06809 -0.21113,0.00746c-0.05666,0.07554 -0.05402,0.19467 0.00591,0.26609c0.05993,0.07142 0.15446,0.06809 0.21113,-0.00745zM245.12044,181.44035c0.05666,-0.07554 0.05402,-0.19468 -0.00591,-0.2661c-0.05993,-0.07142 -0.15445,-0.06808 -0.21112,0.00746c-0.05666,0.07554 -0.05402,0.19468 0.00591,0.2661c0.05993,0.07142 0.15445,0.06808 0.21112,-0.00746zM239.53446,180.87605c0.05666,-0.07554 0.05401,-0.19468 -0.00592,-0.26609c-0.05993,-0.07142 -0.15446,-0.06808 -0.21113,0.00745c-0.05666,0.07554 -0.05401,0.19467 0.00592,0.26609c0.05993,0.07142 0.15447,0.06809 0.21113,-0.00746zM241.22736,182.01517c0.05666,-0.07554 0.05401,-0.19468 -0.00592,-0.2661c-0.05993,-0.07142 -0.15446,-0.06808 -0.21112,0.00746c-0.05666,0.07554 -0.05401,0.19468 0.00592,0.26609c0.05993,0.07142 0.15445,0.06808 0.21112,-0.00745zM244.57447,180.54281c0.05666,-0.07554 0.05402,-0.19468 -0.00591,-0.2661c-0.05993,-0.07142 -0.15446,-0.06808 -0.21113,0.00746c-0.05666,0.07554 -0.05402,0.19467 0.00592,0.26609c0.05993,0.07142 0.15447,0.06809 0.21113,-0.00745zM240.8323,180.85841c0.05666,-0.07554 0.05402,-0.19468 -0.00591,-0.2661c-0.05993,-0.07142 -0.15446,-0.06808 -0.21113,0.00745c-0.05666,0.07554 -0.05402,0.19468 0.00591,0.2661c0.05993,0.07142 0.15446,0.06808 0.21113,-0.00745zM244.00989,176.79668c0.05666,-0.07554 0.05401,-0.19468 -0.00592,-0.26609c-0.05993,-0.07142 -0.15445,-0.06808 -0.21112,0.00746c-0.05666,0.07554 -0.05401,0.19467 0.00592,0.26609c0.05993,0.07142 0.15445,0.06808 0.21112,-0.00745zM239.71276,179.3323c0.05666,-0.07554 0.05401,-0.19468 -0.00592,-0.26609c-0.05993,-0.07142 -0.15445,-0.06809 -0.21112,0.00745c-0.05666,0.07554 -0.05401,0.19468 0.00592,0.26609c0.05993,0.07142 0.15445,0.06809 0.21112,-0.00745zM244.27411,177.60544c0.05666,-0.07554 0.05402,-0.19468 -0.00591,-0.26609c-0.05993,-0.07142 -0.15446,-0.06808 -0.21113,0.00746c-0.05666,0.07554 -0.05402,0.19468 0.00592,0.2661c0.05993,0.07142 0.15447,0.06808 0.21113,-0.00746zM245.45907,180.06018c0.05666,-0.07554 0.05401,-0.19467 -0.00592,-0.26609c-0.05993,-0.07142 -0.15446,-0.06809 -0.21113,0.00745c-0.05666,0.07554 -0.05401,0.19468 0.00592,0.2661c0.05993,0.07142 0.15447,0.06808 0.21113,-0.00746zM244.86732,177.10491c0.05666,-0.07554 0.05402,-0.19467 -0.00591,-0.26609c-0.05993,-0.07142 -0.15446,-0.06808 -0.21113,0.00745c-0.05666,0.07554 -0.05402,0.19467 0.00591,0.26609c0.05993,0.07142 0.15446,0.06809 0.21113,-0.00745zM239.885,181.54072c0.05666,-0.07554 0.05401,-0.19467 -0.00592,-0.26609c-0.05993,-0.07142 -0.15447,-0.06809 -0.21113,0.00746c-0.05666,0.07554 -0.05402,0.19468 0.00591,0.2661c0.05993,0.07142 0.15447,0.06808 0.21114,-0.00745zM239.37832,181.40346c0.05666,-0.07554 0.05401,-0.19468 -0.00592,-0.2661c-0.05993,-0.07142 -0.15446,-0.06808 -0.21113,0.00745c-0.05666,0.07554 -0.05401,0.19468 0.00592,0.2661c0.05993,0.07142 0.15446,0.06808 0.21113,-0.00745zM243.22502,175.72422c0.05666,-0.07554 0.05402,-0.19468 -0.00591,-0.2661c-0.05993,-0.07142 -0.15446,-0.06808 -0.21113,0.00746c-0.05666,0.07554 -0.05401,0.19467 0.00592,0.26609c0.05993,0.07142 0.15446,0.06809 0.21112,-0.00745zM243.35273,177.44054c0.05666,-0.07554 0.05402,-0.19468 -0.00591,-0.2661c-0.05993,-0.07142 -0.15446,-0.06808 -0.21113,0.00746c-0.05666,0.07554 -0.05402,0.19467 0.00591,0.26608c0.05993,0.07142 0.15446,0.06809 0.21113,-0.00745zM240.06157,178.71468c-0.08173,0 -0.14797,0.04987 -0.14797,0.1114c0,0.06152 0.06625,0.11139 0.14797,0.11139c0.08173,0 0.14798,-0.04987 0.14798,-0.11139c0,-0.06152 -0.06625,-0.1114 -0.14798,-0.1114zM239.35473,178.42646c-0.08173,0 -0.14797,0.04987 -0.14797,0.11139c0,0.06152 0.06625,0.11139 0.14797,0.11139c0.08173,0 0.14798,-0.04987 0.14798,-0.11139c0,-0.06152 -0.06625,-0.11139 -0.14798,-0.11139zM245.53947,178.18258c-0.08173,0 -0.14796,0.04987 -0.14796,0.11139c0,0.06152 0.06624,0.11139 0.14796,0.11139c0.08173,0 0.14798,-0.04987 0.14798,-0.11139c0,-0.06152 -0.06625,-0.11139 -0.14798,-0.11139zM245.98123,179.31328c-0.08173,0 -0.14797,0.04987 -0.14797,0.11139c0,0.06152 0.06624,0.1114 0.14797,0.1114c0.08173,0 0.14797,-0.04988 0.14797,-0.1114c0,-0.06152 -0.06625,-0.11139 -0.14797,-0.11139zM242.41765,180.73222c-0.08173,0 -0.14798,0.04988 -0.14798,0.1114c0,0.06152 0.06625,0.11139 0.14798,0.11139c0.08173,0 0.14798,-0.04987 0.14798,-0.11139c0,-0.06152 -0.06625,-0.1114 -0.14798,-0.1114zM241.94643,177.65048c-0.08173,0 -0.14797,0.04987 -0.14797,0.1114c0,0.06152 0.06624,0.11139 0.14797,0.11139c0.08173,0 0.14798,-0.04987 0.14798,-0.11139c0,-0.06152 -0.06625,-0.1114 -0.14798,-0.1114zM242.65326,181.21997c-0.08173,0 -0.14797,0.04987 -0.14797,0.1114c0,0.06152 0.06624,0.1114 0.14797,0.1114c0.08173,0 0.14798,-0.04988 0.14798,-0.1114c0,-0.06152 -0.06625,-0.1114 -0.14798,-0.1114zM241.2396,179.60151c-0.08173,0 -0.14797,0.04987 -0.14797,0.11139c0,0.06152 0.06624,0.11139 0.14797,0.11139c0.08173,0 0.14798,-0.04987 0.14798,-0.11139c0,-0.06152 -0.06625,-0.11139 -0.14798,-0.11139zM242.88887,177.87219c-0.08173,0 -0.14798,0.04988 -0.14798,0.1114c0,0.06152 0.06625,0.11138 0.14798,0.11138c0.08173,0 0.14797,-0.04987 0.14797,-0.11138c0,-0.06152 -0.06624,-0.1114 -0.14797,-0.1114zM243.91966,179.06941c-0.08173,0 -0.14798,0.04988 -0.14798,0.1114c0,0.06152 0.06625,0.11139 0.14798,0.11139c0.08173,0 0.14798,-0.04987 0.14798,-0.11139c0,-0.06152 -0.06625,-0.1114 -0.14798,-0.1114zM243.65461,180.31097c-0.08173,0 -0.14797,0.04987 -0.14797,0.11139c0,0.06152 0.06625,0.1114 0.14797,0.1114c0.08173,0 0.14798,-0.04988 0.14798,-0.1114c0,-0.06152 -0.06625,-0.11139 -0.14798,-0.11139zM242.74161,180.33314c-0.08173,0 -0.14796,0.04987 -0.14796,0.11139c0,0.06152 0.06624,0.11139 0.14796,0.11139c0.08173,0 0.14798,-0.04987 0.14798,-0.11139c0,-0.06152 -0.06625,-0.11139 -0.14798,-0.11139zM243.36008,180.88741c-0.08173,0 -0.14797,0.04987 -0.14797,0.11139c0,0.06152 0.06624,0.1114 0.14797,0.1114c0.08173,0 0.14797,-0.04988 0.14797,-0.1114c0,-0.06152 -0.06625,-0.11139 -0.14797,-0.11139zM243.15393,179.18026c-0.08173,0 -0.14797,0.04987 -0.14797,0.11139c0,0.06152 0.06624,0.1114 0.14797,0.1114c0.08173,0 0.14798,-0.04987 0.14798,-0.1114c0,-0.06152 -0.06625,-0.11139 -0.14798,-0.11139zM239.76705,177.25141c-0.08173,0 -0.14798,0.04987 -0.14798,0.11139c0,0.06152 0.06625,0.11139 0.14798,0.11139c0.08173,0 0.14797,-0.04987 0.14797,-0.11139c0,-0.06152 -0.06625,-0.11139 -0.14797,-0.11139zM245.24496,177.20706c-0.08173,0 -0.14798,0.04988 -0.14798,0.1114c0,0.06152 0.06625,0.11139 0.14798,0.11139c0.08173,0 0.14796,-0.04987 0.14796,-0.11139c0,-0.06152 -0.06624,-0.1114 -0.14796,-0.1114zM243.59569,181.92943c-0.08173,0 -0.14798,0.04987 -0.14798,0.11139c0,0.06152 0.06625,0.1114 0.14798,0.1114c0.08173,0 0.14798,-0.04987 0.14798,-0.1114c0,-0.06152 -0.06625,-0.11139 -0.14798,-0.11139zM241.35741,178.16041c-0.08173,0 -0.14798,0.04988 -0.14798,0.1114c0,0.06152 0.06625,0.11139 0.14798,0.11139c0.08173,0 0.14798,-0.04987 0.14798,-0.11139c0,-0.06152 -0.06625,-0.1114 -0.14798,-0.1114zM242.71216,182.41719c-0.08173,0 -0.14797,0.04988 -0.14797,0.1114c0,0.06152 0.06624,0.11139 0.14797,0.11139c0.08173,0 0.14798,-0.04987 0.14798,-0.11139c0,-0.06152 -0.06625,-0.1114 -0.14798,-0.1114zM244.21416,179.57934c-0.08173,0 -0.14798,0.04987 -0.14798,0.11139c0,0.06152 0.06625,0.1114 0.14798,0.1114c0.08173,0 0.14797,-0.04988 0.14797,-0.1114c0,-0.06152 -0.06625,-0.11139 -0.14797,-0.11139zM243.12447,181.48601c-0.08173,0 -0.14797,0.04988 -0.14797,0.1114c0,0.06152 0.06625,0.1114 0.14797,0.1114c0.08173,0 0.14798,-0.04988 0.14798,-0.1114c0,-0.06152 -0.06625,-0.1114 -0.14798,-0.1114zM243.71349,178.44863c-0.08173,0 -0.14797,0.04988 -0.14797,0.1114c0,0.06152 0.06625,0.1114 0.14797,0.1114c0.08173,0 0.14797,-0.04987 0.14797,-0.1114c0,-0.06152 -0.06624,-0.1114 -0.14797,-0.1114zM241.91698,179.93407c-0.08173,0 -0.14798,0.04988 -0.14798,0.11139c0,0.06152 0.06625,0.1114 0.14798,0.1114c0.08173,0 0.14797,-0.04987 0.14797,-0.1114c0,-0.06152 -0.06624,-0.11139 -0.14797,-0.11139zM243.24228,179.9119c-0.08173,0 -0.14797,0.04987 -0.14797,0.11139c0,0.06152 0.06624,0.1114 0.14797,0.1114c0.08173,0 0.14798,-0.04987 0.14798,-0.1114c0,-0.06152 -0.06625,-0.11139 -0.14798,-0.11139zM242.53546,179.60151c-0.08173,0 -0.14797,0.04987 -0.14797,0.11139c0,0.06152 0.06624,0.11139 0.14797,0.11139c0.08173,0 0.14798,-0.04987 0.14798,-0.11139c0,-0.06152 -0.06625,-0.11139 -0.14798,-0.11139zM245.74563,178.75902c-0.08173,0 -0.14798,0.04987 -0.14798,0.11139c0,0.06152 0.06625,0.1114 0.14798,0.1114c0.08173,0 0.14798,-0.04988 0.14798,-0.1114c0,-0.06152 -0.06625,-0.11139 -0.14798,-0.11139zM243.59569,179.57934c-0.08173,0 -0.14798,0.04987 -0.14798,0.11139c0,0.06152 0.06625,0.1114 0.14798,0.1114c0.08173,0 0.14798,-0.04988 0.14798,-0.1114c0,-0.06152 -0.06625,-0.11139 -0.14798,-0.11139zM241.26905,177.20706c-0.08173,0 -0.14796,0.04988 -0.14796,0.1114c0,0.06152 0.06624,0.11139 0.14796,0.11139c0.08173,0 0.14798,-0.04987 0.14798,-0.11139c0,-0.06152 -0.06625,-0.1114 -0.14798,-0.1114z" data-paper-data="{&quot;index&quot;:null}" fill="url(#color-4)"/><path d="M238.1714,179.15419c1.23319,0.67873 1.47167,2.07592 0.53264,3.12072c-0.93902,1.04479 -2.69993,1.34156 -3.93313,0.66283c-0.01072,-0.00591 -0.02138,-0.01186 -0.03197,-0.01788c0.05367,-0.01051 0.10398,-0.03642 0.13938,-0.0758c0.07458,-0.08299 0.05478,-0.19441 -0.04422,-0.24891c-0.099,-0.05449 -0.23972,-0.0314 -0.31429,0.05159c-0.0279,0.03105 -0.0426,0.06608 -0.04487,0.10062c-0.3609,-0.27027 -0.60483,-0.61306 -0.72461,-0.98615c0.04656,0.02025 0.10795,0.00823 0.14143,-0.02904c0.03567,-0.03968 0.02621,-0.09299 -0.02115,-0.11904c-0.04734,-0.02606 -0.11465,-0.01502 -0.15032,0.02468c-0.0013,0.00145 -0.00254,0.00291 -0.00371,0.00439c-0.10991,-0.44552 -0.04723,-0.92681 0.19973,-1.37536c0.00612,0.00644 0.01358,0.01219 0.02235,0.01702c0.04734,0.02606 0.11465,0.01501 0.15031,-0.02469c0.03567,-0.03968 0.02621,-0.09299 -0.02115,-0.11904c-0.02017,-0.0111 -0.04398,-0.01547 -0.06741,-0.01375c0.06854,-0.10573 0.14777,-0.20916 0.23782,-0.30934c0.07533,-0.08381 0.15594,-0.16282 0.24115,-0.23688c-0.00656,0.05995 0.02433,0.11924 0.08853,0.15458c0.08475,0.04664 0.20008,0.03644 0.27832,-0.01954c-0.01631,0.06629 0.01392,0.13487 0.08508,0.17403c0.099,0.05449 0.23972,0.0314 0.31429,-0.05159c0.07458,-0.08299 0.05479,-0.19443 -0.04422,-0.24892c-0.08475,-0.04664 -0.20008,-0.03643 -0.2783,0.01955c0.01631,-0.06629 -0.01393,-0.13488 -0.08508,-0.17403c-0.04082,-0.02247 -0.08874,-0.03175 -0.13619,-0.02906c0.14881,-0.10593 0.30803,-0.19879 0.47475,-0.27813c-0.02877,0.03876 -0.01779,0.08752 0.02685,0.11209c0.04734,0.02606 0.11465,0.01501 0.15032,-0.02468c0.03567,-0.03968 0.0262,-0.09297 -0.02115,-0.11904c-0.0168,-0.00925 -0.03612,-0.01383 -0.05565,-0.01411c0.91598,-0.39934 2.03376,-0.4008 2.89445,0.07291zM238.35227,181.15761c0.099,0.05449 0.23972,0.0314 0.31429,-0.05159c0.07458,-0.08299 0.05479,-0.19443 -0.04422,-0.24892c-0.099,-0.05449 -0.23971,-0.03138 -0.3143,0.0516c-0.07458,0.08299 -0.05478,0.19442 0.04422,0.24892zM238.35942,180.18304c0.099,0.05449 0.23972,0.0314 0.31429,-0.05159c0.07458,-0.08299 0.05479,-0.19443 -0.04422,-0.24892c-0.099,-0.05449 -0.23971,-0.03138 -0.31429,0.0516c-0.07458,0.08299 -0.05479,0.19443 0.04422,0.24892zM236.97958,180.90274c0.099,0.05449 0.23972,0.03139 0.3143,-0.0516c0.07458,-0.08299 0.05478,-0.19441 -0.04422,-0.24891c-0.099,-0.05449 -0.23972,-0.0314 -0.31429,0.05159c-0.07458,0.08299 -0.05479,0.19443 0.04422,0.24892zM235.92725,180.74455c0.099,0.05449 0.23972,0.0314 0.3143,-0.05159c0.07458,-0.08299 0.05479,-0.19443 -0.04422,-0.24892c-0.099,-0.05449 -0.23973,-0.0314 -0.3143,0.05159c-0.07458,0.08299 -0.05479,0.19443 0.04422,0.24892zM235.93455,182.26185c0.099,0.05449 0.23972,0.03139 0.3143,-0.0516c0.07458,-0.08299 0.05479,-0.19443 -0.04422,-0.24891c-0.099,-0.05449 -0.23973,-0.03139 -0.3143,0.0516c-0.07458,0.08299 -0.05479,0.19443 0.04422,0.24892zM237.09563,182.57092c0.099,0.05449 0.23972,0.0314 0.31429,-0.05159c0.07458,-0.08299 0.05479,-0.19443 -0.04422,-0.24891c-0.099,-0.05449 -0.23971,-0.03138 -0.31429,0.0516c-0.07458,0.08299 -0.05479,0.19442 0.04422,0.24891zM234.3318,181.31145c0.099,0.05449 0.23972,0.03139 0.3143,-0.0516c0.07458,-0.08299 0.05478,-0.19441 -0.04422,-0.24891c-0.099,-0.05449 -0.23972,-0.0314 -0.31429,0.05159c-0.07458,0.08299 -0.05479,0.19443 0.04422,0.24891zM236.3234,179.19199c-0.00085,-0.02519 -0.01554,-0.04912 -0.04272,-0.06408c-0.04734,-0.02606 -0.11465,-0.01501 -0.15032,0.02468c-0.03567,0.03968 -0.0262,0.09297 0.02115,0.11904c0.03481,0.01915 0.0804,0.01826 0.11628,0.00067c0.00085,0.02519 0.01554,0.04912 0.04272,0.06408c0.04734,0.02606 0.11465,0.01502 0.15032,-0.02468c0.03567,-0.03968 0.0262,-0.09298 -0.02115,-0.11904c-0.03481,-0.01915 -0.0804,-0.01826 -0.11628,-0.00067zM235.65752,182.77531c-0.00694,-0.00899 -0.01623,-0.01697 -0.02777,-0.02331c-0.04734,-0.02606 -0.11464,-0.01501 -0.15032,0.02468c-0.03567,0.03968 -0.0262,0.09298 0.02115,0.11904c0.04511,0.02482 0.10831,0.01597 0.14505,-0.01923c0.00694,0.00899 0.01621,0.01696 0.02775,0.0233c0.04734,0.02606 0.11465,0.01502 0.15032,-0.02467c0.03567,-0.03968 0.02621,-0.09299 -0.02114,-0.11904c-0.04511,-0.02482 -0.10831,-0.01597 -0.14504,0.01923zM236.29616,182.99225c0.04734,0.02606 0.11465,0.01501 0.15032,-0.02468c0.03567,-0.03968 0.0262,-0.09298 -0.02115,-0.11904c-0.04734,-0.02606 -0.11465,-0.01501 -0.15032,0.02468c-0.03567,0.03968 -0.02621,0.09299 0.02115,0.11904zM234.22372,180.82759c0.04734,0.02606 0.11465,0.01502 0.15032,-0.02467c0.03567,-0.03968 0.0262,-0.09298 -0.02115,-0.11904c-0.04734,-0.02606 -0.11465,-0.01502 -0.15032,0.02467c-0.03567,0.03968 -0.0262,0.09298 0.02115,0.11904zM237.72389,182.21926c0.04734,0.02606 0.11465,0.01501 0.15032,-0.02468c0.03567,-0.03968 0.02621,-0.09299 -0.02115,-0.11904c-0.04734,-0.02606 -0.11465,-0.01501 -0.15032,0.02468c-0.03567,0.03968 -0.0262,0.09298 0.02115,0.11904zM236.71132,179.10187c0.04734,0.02606 0.11464,0.01502 0.15032,-0.02467c0.03567,-0.03968 0.0262,-0.09298 -0.02115,-0.11904c-0.04734,-0.02606 -0.11465,-0.01501 -0.15032,0.02468c-0.03567,0.03968 -0.0262,0.09298 0.02115,0.11904zM236.19086,179.8622c0.04734,0.02606 0.11465,0.01502 0.15032,-0.02468c0.03567,-0.03968 0.02621,-0.09299 -0.02115,-0.11904c-0.04734,-0.02606 -0.11465,-0.01502 -0.15032,0.02468c-0.03567,0.03968 -0.0262,0.09298 0.02115,0.11904zM238.31472,180.65567c0.04734,0.02606 0.11465,0.01502 0.15032,-0.02467c0.03567,-0.03968 0.0262,-0.09298 -0.02115,-0.11904c-0.04734,-0.02606 -0.11465,-0.01502 -0.15032,0.02468c-0.03567,0.03968 -0.0262,0.09298 0.02115,0.11904zM234.67291,180.35799c0.04734,0.02606 0.11465,0.01502 0.15032,-0.02467c0.03567,-0.03968 0.02621,-0.09299 -0.02115,-0.11904c-0.04734,-0.02606 -0.11465,-0.01501 -0.15032,0.02468c-0.03567,0.03968 -0.0262,0.09298 0.02115,0.11904zM236.01406,179.65113c0.04734,0.02606 0.11465,0.01501 0.15032,-0.02468c0.03567,-0.03968 0.0262,-0.09298 -0.02115,-0.11904c-0.04734,-0.02606 -0.11465,-0.01502 -0.15033,0.02467c-0.03567,0.03968 -0.0262,0.09299 0.02115,0.11905zM236.51592,179.89321c0.04734,0.02606 0.11465,0.01501 0.15032,-0.02468c0.03567,-0.03968 0.0262,-0.09298 -0.02115,-0.11904c-0.04734,-0.02606 -0.11465,-0.01501 -0.15032,0.02468c-0.03567,0.03968 -0.02621,0.09299 0.02115,0.11904zM237.33885,179.95927c0.04734,0.02606 0.11465,0.01502 0.15032,-0.02467c0.03567,-0.03968 0.02621,-0.09299 -0.02114,-0.11904c-0.04734,-0.02606 -0.11465,-0.01501 -0.15033,0.02468c-0.03567,0.03968 -0.0262,0.09297 0.02115,0.11904zM235.18003,181.18325c0.04734,0.02606 0.11464,0.01502 0.15032,-0.02468c0.03567,-0.03968 0.02621,-0.09299 -0.02115,-0.11904c-0.04734,-0.02606 -0.11465,-0.01501 -0.15032,0.02468c-0.03567,0.03968 -0.02621,0.09299 0.02114,0.11904zM237.01354,180.01918c0.04734,0.02606 0.11465,0.01501 0.15032,-0.02468c0.03567,-0.03968 0.02621,-0.09299 -0.02115,-0.11904c-0.04734,-0.02606 -0.11465,-0.01501 -0.15033,0.02468c-0.03567,0.03968 -0.0262,0.09298 0.02115,0.11904zM237.9075,179.8854c0.04734,0.02606 0.11465,0.01502 0.15032,-0.02468c0.03567,-0.03968 0.02621,-0.09299 -0.02115,-0.11904c-0.04734,-0.02606 -0.11465,-0.01501 -0.15033,0.02468c-0.03567,0.03968 -0.0262,0.09298 0.02115,0.11904zM238.20406,179.52523c0.04734,0.02606 0.11465,0.01501 0.15032,-0.02468c0.03567,-0.03968 0.02621,-0.09299 -0.02114,-0.11904c-0.04734,-0.02606 -0.11464,-0.01501 -0.15032,0.02468c-0.03567,0.03968 -0.02621,0.09299 0.02115,0.11904zM234.40194,182.20002c0.04734,0.02606 0.11465,0.01502 0.15032,-0.02467c0.03567,-0.03968 0.0262,-0.09298 -0.02115,-0.11904c-0.04734,-0.02606 -0.11465,-0.01501 -0.15033,0.02468c-0.03567,0.03968 -0.0262,0.09297 0.02115,0.11904zM235.17898,182.42289c0.04734,0.02606 0.11465,0.01501 0.15032,-0.02468c0.03567,-0.03968 0.0262,-0.09297 -0.02115,-0.11904c-0.04734,-0.02606 -0.11465,-0.01502 -0.15032,0.02467c-0.03567,0.03968 -0.0262,0.09298 0.02115,0.11904zM235.61053,180.05482c0.04734,0.02606 0.11465,0.01502 0.15032,-0.02468c0.03567,-0.03968 0.0262,-0.09298 -0.02115,-0.11904c-0.04734,-0.02606 -0.11464,-0.01501 -0.15031,0.02468c-0.03567,0.03968 -0.02621,0.09299 0.02114,0.11904zM237.36496,179.55265c0.04734,0.02606 0.11464,0.01502 0.15032,-0.02468c0.03567,-0.03968 0.0262,-0.09297 -0.02115,-0.11904c-0.04734,-0.02606 -0.11464,-0.01502 -0.15032,0.02467c-0.03567,0.03968 -0.0262,0.09298 0.02115,0.11904zM234.79901,181.6676c0.04734,0.02606 0.11465,0.01501 0.15032,-0.02468c0.03567,-0.03968 0.02621,-0.09299 -0.02115,-0.11904c-0.04734,-0.02606 -0.11465,-0.01501 -0.15032,0.02468c-0.03567,0.03968 -0.02621,0.09299 0.02115,0.11904zM234.90395,180.68995c0.04734,0.02606 0.11464,0.01502 0.15032,-0.02467c0.03567,-0.03968 0.0262,-0.09298 -0.02115,-0.11904c-0.04734,-0.02606 -0.11464,-0.01501 -0.15031,0.02468c-0.03567,0.03968 -0.02621,0.09299 0.02115,0.11904zM238.86793,180.40262c0.04734,0.02606 0.11464,0.01502 0.15032,-0.02468c0.03567,-0.03968 0.0262,-0.09298 -0.02115,-0.11904c-0.04734,-0.02606 -0.11465,-0.01501 -0.15032,0.02468c-0.03567,0.03968 -0.02621,0.09299 0.02115,0.11904zM238.98265,180.864c0.04734,0.02606 0.11465,0.01501 0.15032,-0.02468c0.03567,-0.03968 0.02621,-0.09298 -0.02115,-0.11904c-0.04734,-0.02606 -0.11465,-0.01501 -0.15032,0.02468c-0.03567,0.03968 -0.02621,0.09299 0.02115,0.11904zM235.94222,182.70642c0.04734,0.02606 0.11465,0.01501 0.15032,-0.02468c0.03567,-0.03968 0.0262,-0.09298 -0.02115,-0.11904c-0.04734,-0.02606 -0.11465,-0.01502 -0.15032,0.02467c-0.03567,0.03968 -0.0262,0.09298 0.02115,0.11904zM235.81439,179.49571c0.04734,0.02606 0.11465,0.01501 0.15032,-0.02468c0.03567,-0.03968 0.0262,-0.09298 -0.02115,-0.11904c-0.04734,-0.02606 -0.11465,-0.01502 -0.15032,0.02468c-0.03567,0.03968 -0.02621,0.09299 0.02115,0.11904zM235.30452,180.54632c0.04734,0.02606 0.11465,0.01502 0.15033,-0.02467c0.03567,-0.03968 0.0262,-0.09299 -0.02115,-0.11905c-0.04734,-0.02606 -0.11465,-0.01501 -0.15032,0.02469c-0.03567,0.03968 -0.0262,0.09297 0.02115,0.11904zM236.40708,182.32511c0.04734,0.02606 0.11465,0.01502 0.15033,-0.02467c0.03567,-0.03968 0.02621,-0.09299 -0.02115,-0.11904c-0.04734,-0.02606 -0.11465,-0.01501 -0.15032,0.02468c-0.03567,0.03968 -0.02621,0.09299 0.02114,0.11904zM235.92838,180.22977c0.04734,0.02606 0.11465,0.01501 0.15033,-0.02468c0.03567,-0.03968 0.0262,-0.09297 -0.02115,-0.11904c-0.04734,-0.02606 -0.11465,-0.01502 -0.15032,0.02467c-0.03567,0.03968 -0.0262,0.09298 0.02115,0.11904zM238.48472,181.70499c0.04734,0.02606 0.11465,0.01501 0.15032,-0.02468c0.03567,-0.03968 0.02621,-0.09299 -0.02115,-0.11904c-0.04734,-0.02606 -0.11465,-0.01502 -0.15032,0.02468c-0.03567,0.03968 -0.0262,0.09298 0.02115,0.11904zM236.70349,179.47305c0.04734,0.02606 0.11465,0.01502 0.15032,-0.02467c0.03567,-0.03968 0.02621,-0.09299 -0.02115,-0.11904c-0.04734,-0.02606 -0.11465,-0.01502 -0.15032,0.02468c-0.03567,0.03968 -0.02621,0.09298 0.02115,0.11904zM238.04757,181.91952c0.04734,0.02606 0.11465,0.01501 0.15032,-0.02468c0.03567,-0.03968 0.0262,-0.09298 -0.02115,-0.11904c-0.04734,-0.02606 -0.11465,-0.01502 -0.15032,0.02468c-0.03567,0.03968 -0.02621,0.09299 0.02115,0.11904zM236.75146,182.78772c0.04734,0.02606 0.11465,0.01501 0.15033,-0.02468c0.03567,-0.03968 0.02621,-0.09299 -0.02115,-0.11904c-0.04734,-0.02606 -0.11465,-0.01501 -0.15032,0.02468c-0.03567,0.03968 -0.02621,0.09299 0.02115,0.11904zM238.37875,182.21558c0.04734,0.02606 0.11465,0.01502 0.15032,-0.02467c0.03567,-0.03968 0.0262,-0.09298 -0.02115,-0.11904c-0.04734,-0.02606 -0.11464,-0.01502 -0.15032,0.02467c-0.03567,0.03968 -0.02621,0.09299 0.02115,0.11904zM235.46582,179.74761c0.04734,0.02606 0.11465,0.01502 0.15032,-0.02468c0.03567,-0.03968 0.0262,-0.09298 -0.02115,-0.11904c-0.04734,-0.02606 -0.11465,-0.01502 -0.15032,0.02467c-0.03567,0.03968 -0.0262,0.09298 0.02115,0.11904zM235.503,179.44949c0.04734,0.02606 0.11465,0.01501 0.15033,-0.02468c0.03567,-0.03968 0.0262,-0.09298 -0.02115,-0.11904c-0.04734,-0.02606 -0.11465,-0.01502 -0.15032,0.02468c-0.03567,0.03968 -0.02621,0.09299 0.02114,0.11904zM239.02957,181.17428c0.04734,0.02606 0.11465,0.01501 0.15032,-0.02468c0.03567,-0.03968 0.0262,-0.09299 -0.02115,-0.11905c-0.04734,-0.02606 -0.11465,-0.01501 -0.15031,0.02469c-0.03567,0.03968 -0.0262,0.09298 0.02115,0.11904zM238.0672,181.38418c0.04734,0.02606 0.11465,0.01502 0.15032,-0.02467c0.03567,-0.03968 0.0262,-0.09298 -0.02115,-0.11904c-0.04734,-0.02606 -0.11464,-0.01502 -0.15032,0.02467c-0.03567,0.03968 -0.0262,0.09298 0.02115,0.11904zM237.08144,179.62122c-0.00655,-0.04631 -0.04012,-0.07986 -0.07498,-0.07493c-0.03486,0.00493 -0.05781,0.04646 -0.05126,0.09278c0.00655,0.04631 0.04013,0.07987 0.07498,0.07494c0.03486,-0.00493 0.05781,-0.04646 0.05126,-0.09279zM237.18814,179.19758c-0.00655,-0.04631 -0.04012,-0.07985 -0.07499,-0.07492c-0.03486,0.00493 -0.05781,0.04646 -0.05127,0.09277c0.00655,0.04631 0.04012,0.07986 0.07498,0.07493c0.03486,-0.00493 0.05782,-0.04646 0.05127,-0.09278zM237.82191,182.68282c-0.00655,-0.04631 -0.04012,-0.07985 -0.07499,-0.07492c-0.03486,0.00493 -0.05782,0.04645 -0.05127,0.09277c0.00655,0.04631 0.04013,0.07987 0.07498,0.07494c0.03486,-0.00493 0.05782,-0.04646 0.05127,-0.09279zM237.21656,183.02377c-0.00655,-0.04631 -0.04012,-0.07985 -0.07498,-0.07492c-0.03486,0.00493 -0.05782,0.04645 -0.05127,0.09277c0.00655,0.04631 0.04013,0.07986 0.07498,0.07493c0.03486,-0.00493 0.05781,-0.04646 0.05126,-0.09278zM236.12692,181.11804c-0.00655,-0.04631 -0.04014,-0.07987 -0.07499,-0.07494c-0.03486,0.00493 -0.0578,0.04646 -0.05125,0.09279c0.00655,0.04631 0.04011,0.07985 0.07497,0.07492c0.03486,-0.00493 0.05783,-0.04645 0.05128,-0.09277zM237.83553,180.60407c-0.00655,-0.04631 -0.04012,-0.07985 -0.07499,-0.07492c-0.03486,0.00493 -0.05781,0.04646 -0.05127,0.09277c0.00655,0.04631 0.04013,0.07986 0.07498,0.07493c0.03486,-0.00493 0.05782,-0.04646 0.05127,-0.09278zM235.8694,181.29065c-0.00655,-0.04631 -0.04012,-0.07986 -0.07498,-0.07493c-0.03486,0.00493 -0.05782,0.04646 -0.05127,0.09278c0.00655,0.04631 0.04013,0.07986 0.07499,0.07493c0.03486,-0.00493 0.05781,-0.04646 0.05126,-0.09278zM236.67328,180.35986c-0.00655,-0.04631 -0.04013,-0.07986 -0.07498,-0.07493c-0.03486,0.00493 -0.05781,0.04646 -0.05126,0.09278c0.00655,0.04631 0.04012,0.07986 0.07498,0.07493c0.03486,-0.00493 0.05781,-0.04646 0.05126,-0.09278zM237.78542,181.1559c-0.00655,-0.04631 -0.04012,-0.07986 -0.07498,-0.07493c-0.03486,0.00493 -0.05782,0.04646 -0.05127,0.09278c0.00655,0.04631 0.04013,0.07986 0.07499,0.07493c0.03486,-0.00493 0.05781,-0.04646 0.05126,-0.09278zM237.18957,181.83597c-0.00655,-0.04631 -0.04013,-0.07986 -0.07499,-0.07493c-0.03486,0.00493 -0.05781,0.04646 -0.05126,0.09278c0.00655,0.04631 0.04012,0.07986 0.07498,0.07493c0.03486,-0.00493 0.05782,-0.04646 0.05127,-0.09278zM236.46476,181.78526c-0.00655,-0.04631 -0.04012,-0.07986 -0.07497,-0.07493c-0.03486,0.00493 -0.05782,0.04646 -0.05127,0.09278c0.00655,0.04631 0.04013,0.07986 0.07499,0.07493c0.03486,-0.00493 0.0578,-0.04646 0.05125,-0.09278zM236.37903,181.26965c-0.00655,-0.04631 -0.04012,-0.07985 -0.07499,-0.07492c-0.03486,0.00493 -0.05781,0.04645 -0.05126,0.09277c0.00655,0.04631 0.04012,0.07987 0.07497,0.07494c0.03486,-0.00493 0.05782,-0.04646 0.05127,-0.09279zM236.1145,181.66455c-0.00655,-0.04631 -0.04013,-0.07986 -0.07498,-0.07493c-0.03486,0.00493 -0.05781,0.04646 -0.05126,0.09278c0.00655,0.04631 0.04012,0.07986 0.07498,0.07493c0.03486,-0.00493 0.05781,-0.04646 0.05126,-0.09278zM237.06539,181.41092c-0.00655,-0.04631 -0.04012,-0.07986 -0.07498,-0.07493c-0.03486,0.00493 -0.05782,0.04646 -0.05127,0.09278c0.00655,0.04631 0.04013,0.07986 0.07499,0.07493c0.03486,-0.00493 0.05781,-0.04646 0.05126,-0.09278zM237.88705,179.33708c-0.00655,-0.04631 -0.04013,-0.07986 -0.07498,-0.07493c-0.03486,0.00493 -0.05783,0.04645 -0.05127,0.09278c0.00655,0.04631 0.04013,0.07986 0.07499,0.07493c0.03486,-0.00493 0.05781,-0.04646 0.05126,-0.09278zM238.35112,182.43777c-0.00655,-0.04631 -0.04013,-0.07986 -0.07499,-0.07493c-0.03486,0.00493 -0.05781,0.04646 -0.05126,0.09278c0.00655,0.04631 0.04012,0.07986 0.07498,0.07493c0.03486,-0.00493 0.05782,-0.04646 0.05127,-0.09278zM235.54288,181.88155c-0.00655,-0.04631 -0.04013,-0.07986 -0.07498,-0.07493c-0.03486,0.00493 -0.05781,0.04646 -0.05126,0.09278c0.00655,0.04631 0.04012,0.07986 0.07498,0.07493c0.03486,-0.00493 0.05781,-0.04647 0.05126,-0.09278zM237.49937,180.31115c-0.00655,-0.04631 -0.04012,-0.07987 -0.07498,-0.07494c-0.03486,0.00493 -0.05781,0.04646 -0.05126,0.09279c0.00655,0.04631 0.04011,0.07985 0.07498,0.07492c0.03486,-0.00493 0.05781,-0.04646 0.05127,-0.09277zM235.19568,181.41996c-0.00655,-0.04631 -0.04013,-0.07986 -0.07498,-0.07493c-0.03486,0.00493 -0.05781,0.04646 -0.05126,0.09278c0.00655,0.04631 0.04013,0.07986 0.07498,0.07493c0.03486,-0.00493 0.05781,-0.04646 0.05126,-0.09278zM236.9242,182.04372c-0.00655,-0.04631 -0.04013,-0.07986 -0.07499,-0.07493c-0.03486,0.00493 -0.05782,0.04645 -0.05126,0.09278c0.00655,0.04631 0.04013,0.07986 0.07498,0.07493c0.03486,-0.00493 0.05782,-0.04646 0.05127,-0.09278zM235.7564,181.57899c-0.00655,-0.04631 -0.04013,-0.07986 -0.07499,-0.07493c-0.03486,0.00493 -0.05781,0.04646 -0.05126,0.09278c0.00655,0.04631 0.04012,0.07985 0.07498,0.07492c0.03486,-0.00493 0.05783,-0.04645 0.05128,-0.09277zM237.52484,181.66939c-0.00655,-0.04631 -0.04012,-0.07985 -0.07499,-0.07492c-0.03486,0.00493 -0.05782,0.04645 -0.05127,0.09277c0.00655,0.04631 0.04012,0.07987 0.07498,0.07494c0.03486,-0.00493 0.05782,-0.04646 0.05127,-0.09279zM236.53911,180.77037c-0.00655,-0.04631 -0.04013,-0.07987 -0.07498,-0.07494c-0.03486,0.00493 -0.05781,0.04646 -0.05126,0.09279c0.00655,0.04631 0.04011,0.07985 0.07498,0.07492c0.03486,-0.00493 0.05781,-0.04646 0.05127,-0.09277zM236.65786,181.51961c-0.00655,-0.04631 -0.04012,-0.07986 -0.07498,-0.07493c-0.03486,0.00493 -0.05781,0.04646 -0.05126,0.09278c0.00655,0.04631 0.04012,0.07986 0.07498,0.07493c0.03486,-0.00493 0.05781,-0.04646 0.05126,-0.09278zM236.77712,181.0942c-0.00655,-0.04631 -0.04012,-0.07985 -0.07498,-0.07492c-0.03486,0.00493 -0.05781,0.04646 -0.05127,0.09277c0.00655,0.04631 0.04012,0.07986 0.07498,0.07493c0.03486,-0.00493 0.05781,-0.04646 0.05126,-0.09278zM237.51177,182.84584c-0.00655,-0.04631 -0.04013,-0.07986 -0.07498,-0.07493c-0.03486,0.00493 -0.05781,0.04646 -0.05126,0.09278c0.00655,0.04631 0.04013,0.07987 0.07498,0.07494c0.03486,-0.00493 0.05781,-0.04646 0.05126,-0.09279zM236.87464,181.69324c-0.00655,-0.04631 -0.04013,-0.07986 -0.07499,-0.07493c-0.03486,0.00493 -0.05781,0.04646 -0.05126,0.09278c0.00655,0.04631 0.04013,0.07986 0.07498,0.07493c0.03486,-0.00493 0.05782,-0.04647 0.05127,-0.09278zM238.03254,180.18468c-0.00655,-0.04631 -0.04012,-0.07985 -0.07499,-0.07492c-0.03486,0.00493 -0.05782,0.04645 -0.05127,0.09277c0.00655,0.04631 0.04012,0.07987 0.07498,0.07494c0.03486,-0.00493 0.05782,-0.04646 0.05127,-0.09279z" data-paper-data="{&quot;index&quot;:null}" fill="url(#color-5)"/></g></g></svg>