<svg version="1.1" xmlns="http://www.w3.org/2000/svg" xmlns:xlink="http://www.w3.org/1999/xlink" width="88.22975" height="67.2827" viewBox="0,0,88.22975,67.2827"><g transform="translate(-195.88909,-146.50872)"><g data-paper-data="{&quot;isPaintingLayer&quot;:true}" fill="#b1b1b1" fill-rule="nonzero" stroke="#000000" stroke-width="1.5" stroke-linecap="butt" stroke-linejoin="miter" stroke-miterlimit="10" stroke-dasharray="" stroke-dashoffset="0" style="mix-blend-mode: normal"><path d="M196.94217,198.19776l29.30148,-23.01494l11.42096,14.54058l-29.30148,23.01494z"/><path d="M266.16644,161.81455l-33.25853,10.20476l-4.41328,-14.3689l33.25854,-10.20474z" data-paper-data="{&quot;index&quot;:null}"/><path d="M223.08735,179.49556l32.37727,-15.7247l11.89912,25.09951l-32.37729,15.72471c0,0 -3.0781,-6.49282 -4.84415,-10.21803c-2.13127,-4.49561 -7.05497,-14.88147 -7.05497,-14.88147z"/><path d="M197.48024,188.68144l30.58946,-20.39002l10.11836,15.17975l-30.58947,20.39z"/><path d="M274.86282,181.70702c-7.67258,3.68252 -17.07029,0.04665 -20.99038,-8.12094c-3.92009,-8.16759 -0.8781,-17.77397 6.79449,-21.45649c7.67258,-3.68252 17.07027,-0.04665 20.99037,8.12094c3.92009,8.16759 0.87811,17.77397 -6.79449,21.45649z" data-paper-data="{&quot;index&quot;:null}"/><path d="M236.56097,203.43956l-2.52543,-34.69711l14.99201,-1.08692l2.52542,34.6971z" data-paper-data="{&quot;index&quot;:null}"/></g></g></svg>