<svg version="1.1" xmlns="http://www.w3.org/2000/svg" xmlns:xlink="http://www.w3.org/1999/xlink" width="993.34945" height="777.81532" viewBox="0,0,993.34945,777.81532"><defs><linearGradient x1="240.59914" y1="253.82225" x2="240.59914" y2="194.37167" gradientUnits="userSpaceOnUse" id="color-1"><stop offset="0" stop-color="#424242"/><stop offset="1" stop-color="#424242" stop-opacity="0"/></linearGradient><linearGradient x1="240.59915" y1="101.28452" x2="240.59915" y2="128.66307" gradientUnits="userSpaceOnUse" id="color-2"><stop offset="0" stop-color="#4c4c4c"/><stop offset="1" stop-color="#4c4c4c" stop-opacity="0"/></linearGradient></defs><g transform="translate(514.14974,480.37891)"><g data-paper-data="{&quot;isPaintingLayer&quot;:true}" fill-rule="nonzero" stroke-linecap="butt" stroke-linejoin="miter" stroke-miterlimit="10" stroke-dasharray="" stroke-dashoffset="0" style="mix-blend-mode: normal"><g><path d="M168.83809,153.20969v-177.17718h90.09009v177.17718z" data-paper-data="{&quot;index&quot;:null}" fill="#4f4f4f" stroke="none" stroke-width="0"/><path d="M136.30055,59.6211v-177.17718h90.09009v177.17718z" data-paper-data="{&quot;index&quot;:null}" fill="#4f4f4f" stroke="none" stroke-width="0"/><path d="M94.754,21.58806v-177.17718h90.09009v177.17718z" data-paper-data="{&quot;index&quot;:null}" fill="#4f4f4f" stroke="none" stroke-width="0"/><path d="" data-paper-data="{&quot;index&quot;:null}" fill="#d9d9d9" stroke="#000000" stroke-width="1"/><path d="" data-paper-data="{&quot;index&quot;:null}" fill="none" stroke="#000000" stroke-width="1"/><path d="" data-paper-data="{&quot;index&quot;:null}" fill="#d9d9d9" stroke="#000000" stroke-width="1"/><path d="" data-paper-data="{&quot;index&quot;:null}" fill="none" stroke="#000000" stroke-width="1"/><path d="" data-paper-data="{&quot;index&quot;:null}" fill="#d9d9d9" stroke="#000000" stroke-width="1"/><path d="" data-paper-data="{&quot;index&quot;:null}" fill="none" stroke="#000000" stroke-width="1"/><path d="" data-paper-data="{&quot;index&quot;:null}" fill="#d9d9d9" stroke="#000000" stroke-width="1"/><path d="M5.93747,255.33059v-151.65166h467.75884v151.65165z" data-paper-data="{&quot;index&quot;:null}" fill="#c9c9c9" stroke="#616161" stroke-width="0.5"/><path d="M479.19971,194.37167v59.4506h-477.20111v-59.4506z" data-paper-data="{&quot;index&quot;:null}" fill="url(#color-1)" stroke="#616161" stroke-width="0"/><path d="M1.9986,128.66307v-27.37857h477.20111v27.37857z" data-paper-data="{&quot;index&quot;:null}" fill="url(#color-2)" stroke="#616161" stroke-width="0"/><path d="M-3.87962,222.29754v-213.21322h84.08408v213.21321z" data-paper-data="{&quot;index&quot;:null}" fill="#4f4f4f" stroke="none" stroke-width="0"/><path d="M24.64891,162.26374v-177.17718h90.09009v177.17718z" data-paper-data="{&quot;index&quot;:null}" fill="#4f4f4f" stroke="none" stroke-width="0"/><path d="M-47.91866,45.64213v-177.17718h90.09009v177.17717z" data-paper-data="{&quot;index&quot;:null}" fill="#4f4f4f" stroke="none" stroke-width="0"/><path d="M-70.93668,172.26374v-177.17717h90.09009v177.17717z" data-paper-data="{&quot;index&quot;:null}" fill="#4f4f4f" stroke="none" stroke-width="0"/><path d="M-63.92467,282.36885v-177.17718h90.09009v177.17718z" data-paper-data="{&quot;index&quot;:null}" fill="#4f4f4f" stroke="none" stroke-width="0"/><path d="M-128.98474,222.80428v-177.17718h90.09009v177.17718z" data-paper-data="{&quot;index&quot;:null}" fill="#4f4f4f" stroke="none" stroke-width="0"/><path d="M-124.97573,61.13761v-177.17717h90.09009v177.17717z" data-paper-data="{&quot;index&quot;:null}" fill="#4f4f4f" stroke="none" stroke-width="0"/><path d="M30.68494,31.60308v-177.17717h90.09009v177.17717z" data-paper-data="{&quot;index&quot;:null}" fill="#4f4f4f" stroke="none" stroke-width="0"/><g data-paper-data="{&quot;index&quot;:null}" stroke="none" stroke-width="0"><path d="M189.38651,129.10537l-11.10258,3.60036l-64.99858,-0.06936v-147.78086c0,0 30.62676,-3.41369 48.32199,5.39517c9.58402,4.77102 19.09767,22.64599 22.37455,42.00936c4.7585,28.11843 4.60132,89.58597 4.60132,89.58597z" fill="#8c8c8c"/><path d="M103.46184,177.12565l-19.4981,-11.96321c0,0 -5.86432,-101.07984 -5.86432,-133.70649c0,-15.14696 14.03599,-39.07376 30.65365,-45.31806c5.44044,-2.04431 16.07021,-2.97816 25.46693,-2.4127c10.33427,0.62188 19.2263,2.86059 19.2263,2.86059l-1.45645,3.81994c0,0 -11.39122,4.88012 -17.44163,12.03802c-7.31652,8.65576 -9.53424,20.64232 -9.53424,31.35794c0,32.75846 0,131.36076 0,131.36076z" fill="#b8b8b8"/><path d="M117.92892,70.16046c0,-44.04733 13.67497,-79.75475 30.54389,-79.75475c4.35836,0 8.50352,2.38359 12.25471,6.67876c10.76767,12.32916 18.28918,40.40902 18.28918,73.07599c0,21.74173 0.22467,62.87533 0.22467,62.87533l-56.15393,33.15272c0,0 -5.15853,-74.71658 -5.15853,-96.02805z" fill="#000000"/></g><path d="M-275.2233,-19.41794v-346.84685h534.53453v346.84685z" data-paper-data="{&quot;index&quot;:null}" fill="#4f4f4f" stroke="none" stroke-width="0"/><path d="M223.08751,-2.90143v-477.47748h54.05405v477.47748z" data-paper-data="{&quot;index&quot;:null}" fill="#4f4f4f" stroke="none" stroke-width="0"/><path d="M235.09951,112.75173v-184.68468h99.0991v184.68468z" data-paper-data="{&quot;index&quot;:null}" fill="#4f4f4f" stroke="none" stroke-width="0"/><path d="M-514.14974,297.43641v-552.55255h487.98799v552.55255z" data-paper-data="{&quot;index&quot;:null}" fill="#4f4f4f" stroke="none" stroke-width="0"/><path d="M105.95582,175.8148l82.58258,-46.54655h288.28829v60.06006z" data-paper-data="{&quot;index&quot;:null}" fill="#989898" stroke="none" stroke-width="0"/></g></g></g></svg>