<svg version="1.1" xmlns="http://www.w3.org/2000/svg" xmlns:xlink="http://www.w3.org/1999/xlink" width="74.23745" height="101.82031" viewBox="0,0,74.23745,101.82031"><g transform="translate(-205.85211,-129.36171)"><g data-paper-data="{&quot;isPaintingLayer&quot;:true}" fill="#b1b1b1" fill-rule="nonzero" stroke="#000000" stroke-width="1.5" stroke-linecap="butt" stroke-linejoin="miter" stroke-miterlimit="10" stroke-dasharray="" stroke-dashoffset="0" style="mix-blend-mode: normal"><path d="M271.21781,190.64782l-29.68641,-18.13792l7.84056,-12.8245l29.68639,18.13793z" data-paper-data="{&quot;index&quot;:null}"/><path d="M243.0778,221.89585l4.18857,-36.52292l18.12416,2.07854l-4.18857,36.52292z"/><path d="M224.6296,228.2448l4.24521,-37.01678l18.36924,2.10665l-4.24521,37.01678z"/><path d="M229.79077,197.36939l-3.54298,-35.842l28.59152,-2.82627l3.54298,35.84201c0,0 -7.39615,0.73111 -11.63963,1.15058c-5.12108,0.50622 -16.95189,1.67569 -16.95189,1.67569z"/><path d="M255.77111,143.833c0.83719,8.46926 -5.79278,16.05742 -14.80845,16.94862c-9.01567,0.8912 -17.00298,-5.25204 -17.84017,-13.7213c-0.83719,-8.46926 5.79278,-16.05741 14.80845,-16.94861c9.01567,-0.8912 17.00298,5.25203 17.84017,13.7213z" data-paper-data="{&quot;index&quot;:null}"/><path d="M228.92375,197.63549l-22.01643,-26.93592l11.63561,-9.51603l22.01643,26.93592z" data-paper-data="{&quot;index&quot;:null}"/></g></g></svg>