<svg version="1.1" xmlns="http://www.w3.org/2000/svg" xmlns:xlink="http://www.w3.org/1999/xlink" width="32.18375" height="91.02736" viewBox="0,0,32.18375,91.02736"><defs><radialGradient cx="235.33797" cy="206.94736" r="14.26931" gradientUnits="userSpaceOnUse" id="color-1"><stop offset="0" stop-color="#ffffff"/><stop offset="1" stop-color="#ffffff" stop-opacity="0"/></radialGradient><radialGradient cx="239.59798" cy="212.19403" r="14.26931" gradientUnits="userSpaceOnUse" id="color-2"><stop offset="0" stop-color="#ffffff"/><stop offset="1" stop-color="#ffffff" stop-opacity="0"/></radialGradient><radialGradient cx="229.11186" cy="202.44533" r="14.26931" gradientUnits="userSpaceOnUse" id="color-3"><stop offset="0" stop-color="#ffffff"/><stop offset="1" stop-color="#ffffff" stop-opacity="0"/></radialGradient><radialGradient cx="226.73751" cy="191.46758" r="14.26931" gradientUnits="userSpaceOnUse" id="color-4"><stop offset="0" stop-color="#ffffff"/><stop offset="1" stop-color="#ffffff" stop-opacity="0"/></radialGradient><radialGradient cx="227.55871" cy="180.48982" r="14.26931" gradientUnits="userSpaceOnUse" id="color-5"><stop offset="0" stop-color="#ffffff"/><stop offset="1" stop-color="#ffffff" stop-opacity="0"/></radialGradient><radialGradient cx="235.42173" cy="153.05266" r="14.26931" gradientUnits="userSpaceOnUse" id="color-6"><stop offset="0" stop-color="#ffffff"/><stop offset="1" stop-color="#ffffff" stop-opacity="0"/></radialGradient><radialGradient cx="239.68175" cy="147.806" r="14.26931" gradientUnits="userSpaceOnUse" id="color-7"><stop offset="0" stop-color="#ffffff"/><stop offset="1" stop-color="#ffffff" stop-opacity="0"/></radialGradient><radialGradient cx="229.19562" cy="157.55469" r="14.26931" gradientUnits="userSpaceOnUse" id="color-8"><stop offset="0" stop-color="#ffffff"/><stop offset="1" stop-color="#ffffff" stop-opacity="0"/></radialGradient><radialGradient cx="226.82128" cy="168.53245" r="14.26931" gradientUnits="userSpaceOnUse" id="color-9"><stop offset="0" stop-color="#ffffff"/><stop offset="1" stop-color="#ffffff" stop-opacity="0"/></radialGradient><radialGradient cx="227.64248" cy="179.5102" r="14.26931" gradientUnits="userSpaceOnUse" id="color-10"><stop offset="0" stop-color="#ffffff"/><stop offset="1" stop-color="#ffffff" stop-opacity="0"/></radialGradient></defs><g transform="translate(-214.23183,-134.48632)"><g data-paper-data="{&quot;isPaintingLayer&quot;:true}" fill-rule="nonzero" stroke="none" stroke-width="0" stroke-linecap="butt" stroke-linejoin="miter" stroke-miterlimit="10" stroke-dasharray="" stroke-dashoffset="0" style="mix-blend-mode: normal"><path d="M232.45204,220.26702c-5.31285,0 -9.61976,-4.9143 -9.61976,-10.97639c0,-6.06209 4.30691,-10.97639 9.61976,-10.97639c5.31285,0 9.61976,4.9143 9.61976,10.97639c0,6.06209 -4.30692,10.97639 -9.61976,10.97639z" data-paper-data="{&quot;index&quot;:null}" fill="url(#color-1)"/><path d="M236.71205,225.51369c-5.31285,0 -9.61975,-4.91429 -9.61975,-10.97638c0,-6.06209 4.30691,-10.97639 9.61975,-10.97639c5.31285,0 9.61976,4.9143 9.61976,10.97639c0,6.06209 -4.30692,10.97638 -9.61976,10.97638z" data-paper-data="{&quot;index&quot;:null}" fill="url(#color-2)"/><path d="M226.22593,215.76499c-5.31285,0 -9.61975,-4.9143 -9.61975,-10.97639c0,-6.06209 4.30691,-10.97639 9.61975,-10.97639c5.31285,0 9.61976,4.9143 9.61976,10.97639c0,6.06209 -4.30692,10.97639 -9.61976,10.97639z" data-paper-data="{&quot;index&quot;:null}" fill="url(#color-3)"/><path d="M223.85158,204.78724c-5.31285,0 -9.61975,-4.9143 -9.61975,-10.97639c0,-6.06209 4.30691,-10.97639 9.61975,-10.97639c5.31285,0 9.61976,4.9143 9.61976,10.97639c0,6.06209 -4.30692,10.97639 -9.61976,10.97639z" data-paper-data="{&quot;index&quot;:null}" fill="url(#color-4)"/><path d="M224.67278,193.80948c-5.31285,0 -9.61975,-4.9143 -9.61975,-10.97639c0,-6.06209 4.30691,-10.97639 9.61975,-10.97639c5.31285,0 9.61976,4.9143 9.61976,10.97639c0,6.06209 -4.30691,10.97639 -9.61976,10.97639z" data-paper-data="{&quot;index&quot;:null}" fill="url(#color-5)"/><path d="M242.15556,150.70938c0,6.06209 -4.30692,10.97639 -9.61976,10.97639c-5.31285,0 -9.61975,-4.9143 -9.61975,-10.97639c0,-6.06209 4.30691,-10.97638 9.61975,-10.97638c5.31285,0 9.61976,4.91429 9.61976,10.97638z" data-paper-data="{&quot;index&quot;:null}" fill="url(#color-6)"/><path d="M246.41558,145.46272c0,6.06209 -4.30692,10.97639 -9.61976,10.97639c-5.31285,0 -9.61975,-4.9143 -9.61975,-10.97639c0,-6.06209 4.30691,-10.97639 9.61975,-10.97639c5.31285,0 9.61976,4.9143 9.61976,10.97639z" data-paper-data="{&quot;index&quot;:null}" fill="url(#color-7)"/><path d="M235.92945,155.21142c0,6.06209 -4.30692,10.97639 -9.61976,10.97639c-5.31285,0 -9.61975,-4.9143 -9.61975,-10.97639c0,-6.06209 4.30691,-10.97639 9.61975,-10.97639c5.31285,0 9.61976,4.9143 9.61976,10.97639z" data-paper-data="{&quot;index&quot;:null}" fill="url(#color-8)"/><path d="M233.55511,166.18917c0,6.06209 -4.30691,10.97639 -9.61976,10.97639c-5.31285,0 -9.61975,-4.9143 -9.61975,-10.97639c0,-6.06209 4.30691,-10.97639 9.61975,-10.97639c5.31285,0 9.61976,4.9143 9.61976,10.97639z" data-paper-data="{&quot;index&quot;:null}" fill="url(#color-9)"/><path d="M234.37631,177.16693c0,6.06209 -4.30691,10.97639 -9.61976,10.97639c-5.31285,0 -9.61975,-4.9143 -9.61975,-10.97639c0,-6.06209 4.30691,-10.97639 9.61975,-10.97639c5.31285,0 9.61976,4.9143 9.61976,10.97639z" data-paper-data="{&quot;index&quot;:null}" fill="url(#color-10)"/></g></g></svg>