<svg version="1.1" xmlns="http://www.w3.org/2000/svg" xmlns:xlink="http://www.w3.org/1999/xlink" width="98.77451" height="52.53472" viewBox="0,0,98.77451,52.53472"><g transform="translate(-187.10323,-150.85456)"><g data-paper-data="{&quot;isPaintingLayer&quot;:true}" fill="#b1b1b1" fill-rule="nonzero" stroke="#000000" stroke-width="1.5" stroke-linecap="butt" stroke-linejoin="miter" stroke-miterlimit="10" stroke-dasharray="" stroke-dashoffset="0" style="mix-blend-mode: normal"><path d="M188.00156,160.51051l36.32176,-8.30625l4.12191,18.02434l-36.32176,8.30625z"/><path d="M278.0967,178.62462l-32.33999,-12.82153l5.53589,-13.97483l32.33999,12.82155z" data-paper-data="{&quot;index&quot;:null}"/><path d="M221.09078,162.02209l35.99157,-0.40062l0.04742,27.77719l-35.99159,0.40062c0,0 -0.01226,-7.18549 -0.01931,-11.30812c-0.00849,-4.97521 -0.02811,-16.46907 -0.02811,-16.46907z"/><path d="M189.16414,186.29661l32.36298,-17.14298l8.64338,15.93241l-32.36299,17.14295z"/><path d="M269.82494,187.66157c-8.51037,0.0553 -15.45709,-7.24398 -15.51595,-16.30341c-0.05885,-9.05943 6.79243,-16.44834 15.30281,-16.50364c8.51037,-0.0553 15.45707,7.24398 15.51594,16.30341c0.05885,9.05943 -6.79242,16.44835 -15.30281,16.50364z" data-paper-data="{&quot;index&quot;:null}"/><path d="M252.08239,175.48584l32.27503,12.9842l-5.61409,13.94359l-32.27502,-12.98421z" data-paper-data="{&quot;index&quot;:null}"/></g></g></svg>