<svg version="1.1" xmlns="http://www.w3.org/2000/svg" xmlns:xlink="http://www.w3.org/1999/xlink" width="79.65726" height="97.29754" viewBox="0,0,79.65726,97.29754"><g transform="translate(-202.34513,-136.87859)"><g data-paper-data="{&quot;isPaintingLayer&quot;:true}" fill="#b1b1b1" fill-rule="nonzero" stroke="#000000" stroke-width="1.5" stroke-linecap="butt" stroke-linejoin="miter" stroke-miterlimit="10" stroke-dasharray="" stroke-dashoffset="0" style="mix-blend-mode: normal"><path d="M269.50759,201.26506l-22.58107,-26.46436l11.43733,-9.75345l22.58105,26.46436z" data-paper-data="{&quot;index&quot;:null}"/><path d="M246.92993,228.95561v-36.76232h18.24296v36.76232z"/><path d="M228.37385,197.84491l6.51754,-35.42208l28.25654,5.19911l-6.51754,35.42208c0,0 -7.3095,-1.34492 -11.50326,-2.11656c-5.06108,-0.93123 -16.75328,-3.08255 -16.75328,-3.08255z"/><path d="M265.53374,153.03828c0,8.51054 -7.34426,15.4097 -16.40387,15.4097c-9.05961,0 -16.40387,-6.89916 -16.40387,-15.4097c0,-8.51054 7.34426,-15.40969 16.40387,-15.40969c9.05961,0 16.40387,6.89915 16.40387,15.4097z" data-paper-data="{&quot;index&quot;:null}"/><path d="M203.40118,186.21495l22.16479,-26.81397l11.58833,9.57354l-22.1648,26.81397z" data-paper-data="{&quot;index&quot;:null}"/><path d="M212.8936,225.80213l14.88556,-34.15675l16.94998,7.38682l-14.88556,34.15675z"/></g></g></svg>