<svg version="1.1" xmlns="http://www.w3.org/2000/svg" xmlns:xlink="http://www.w3.org/1999/xlink" width="74.52096" height="114.07323" viewBox="0,0,74.52096,114.07323"><g transform="translate(-193.31615,-119.7362)"><g data-paper-data="{&quot;isPaintingLayer&quot;:true}" fill="#b1b1b1" fill-rule="nonzero" stroke="#000000" stroke-width="1.5" stroke-linecap="butt" stroke-linejoin="miter" stroke-miterlimit="10" stroke-dasharray="" stroke-dashoffset="0" style="mix-blend-mode: normal"><path d="M237.55653,120.73557l14.95365,31.41106l-13.57374,6.45723l-14.95363,-31.41107z" data-paper-data="{&quot;index&quot;:null}"/><path d="M249.08527,222.26613l-7.43844,-36.00192l17.86561,-3.69126l7.43844,36.00192z"/><path d="M215.97705,227.28089l11.25863,-35.51769l17.62533,5.58697l-11.25863,35.5177z"/><path d="M228.35277,199.65597l-12.78805,-33.66997l26.85888,-10.20117l12.78804,33.66998c0,0 -6.94795,2.63886 -10.93426,4.15291c-4.81074,1.82714 -15.92461,6.04827 -15.92461,6.04827z"/><path d="M242.34615,144.48066c1.4979,8.37768 -4.51742,16.46178 -13.4356,18.05633c-8.91818,1.59454 -17.36208,-3.90427 -18.86,-12.28195c-1.4979,-8.37768 4.51742,-16.46176 13.4356,-18.05632c8.91818,-1.59454 17.36207,3.90426 18.85999,12.28196z" data-paper-data="{&quot;index&quot;:null}"/><path d="M204.58967,135.4422l25.51714,23.64619l-10.21378,11.0282l-25.51714,-23.64619z" data-paper-data="{&quot;index&quot;:null}"/></g></g></svg>