<svg version="1.1" xmlns="http://www.w3.org/2000/svg" xmlns:xlink="http://www.w3.org/1999/xlink" width="82.88372" height="94.5684" viewBox="0,0,82.88372,94.5684"><g transform="translate(-204.70527,-132.478)"><g data-paper-data="{&quot;isPaintingLayer&quot;:true}" fill="#b1b1b1" fill-rule="nonzero" stroke="#000000" stroke-width="1.5" stroke-linecap="butt" stroke-linejoin="miter" stroke-miterlimit="10" stroke-dasharray="" stroke-dashoffset="0" style="mix-blend-mode: normal"><path d="M286.76285,150.28401l-3.73404,34.58792l-14.94408,-1.61762l3.73406,-34.5879z" data-paper-data="{&quot;index&quot;:null}"/><path d="M237.90959,213.32117l21.15766,-30.06362l14.91879,10.49929l-21.15766,30.06362z"/><path d="M205.76542,213.32414l25.51606,-27.15132l13.47359,12.66211l-25.51606,27.15132z"/><path d="M229.56433,194.00067l8.8998,-34.89979l27.83991,7.09946l-8.8998,34.8998c0,0 -7.20172,-1.83651 -11.33365,-2.89019c-4.98646,-1.2716 -16.50626,-4.20926 -16.50626,-4.20926z"/><path d="M273.54327,152.75752c-2.10297,8.24662 -10.92428,13.11705 -19.70295,10.87841c-8.77867,-2.23865 -14.19038,-10.73864 -12.08741,-18.98527c2.10297,-8.24662 10.92428,-13.11705 19.70294,-10.8784c8.77867,2.23865 14.19038,10.73863 12.08741,18.98527z" data-paper-data="{&quot;index&quot;:null}"/><path d="M221.57484,192.90182l-8.78636,-33.66106l14.54299,-3.80048l8.78635,33.66106z" data-paper-data="{&quot;index&quot;:null}"/></g></g></svg>