<svg version="1.1" xmlns="http://www.w3.org/2000/svg" xmlns:xlink="http://www.w3.org/1999/xlink" width="76.78554" height="77.23043" viewBox="0,0,76.78554,77.23043"><g transform="translate(-201.46416,-141.51579)"><g data-paper-data="{&quot;isPaintingLayer&quot;:true}" fill="#b1b1b1" fill-rule="nonzero" stroke="#000000" stroke-width="1.5" stroke-linecap="butt" stroke-linejoin="miter" stroke-miterlimit="10" stroke-dasharray="" stroke-dashoffset="0" style="mix-blend-mode: normal"><path d="M234.62958,155.88038l24.83351,24.36317l-10.52366,10.7329l-24.83349,-24.36318z" data-paper-data="{&quot;index&quot;:null}"/><path d="M202.69642,201.34543l33.02587,-17.2498l8.56007,16.38878l-33.02587,17.2498z"/><path d="M202.5003,196.28002l19.83697,-30.95097l15.35913,9.84392l-19.83698,30.95096z"/><path d="M223.9456,185.34305l24.99399,-25.90086l19.80563,19.47592l-24.994,25.90087c0,0 -5.12338,-5.03809 -8.0629,-7.92866c-3.54742,-3.48836 -11.74273,-11.54725 -11.74273,-11.54725z"/><path d="M273.32315,169.61262c-5.93801,6.09668 -16.0129,5.91474 -22.5029,-0.40637c-6.49001,-6.32111 -6.93748,-16.38769 -0.99947,-22.48437c5.93801,-6.09668 16.01288,-5.91473 22.50289,0.40638c6.49001,6.32111 6.93749,16.38769 0.99947,22.48437z" data-paper-data="{&quot;index&quot;:null}"/><path d="M217.52345,178.72669l9.4928,-33.4687l14.45978,4.10569l-9.49281,33.46869z" data-paper-data="{&quot;index&quot;:null}"/></g></g></svg>