<svg version="1.1" xmlns="http://www.w3.org/2000/svg" xmlns:xlink="http://www.w3.org/1999/xlink" width="63.12363" height="102.43142" viewBox="0,0,63.12363,102.43142"><g transform="translate(-214.60836,-129.72443)"><g data-paper-data="{&quot;isPaintingLayer&quot;:true}" fill="#b1b1b1" fill-rule="nonzero" stroke="#000000" stroke-width="1.5" stroke-linecap="butt" stroke-linejoin="miter" stroke-miterlimit="10" stroke-dasharray="" stroke-dashoffset="0" style="mix-blend-mode: normal"><path d="M276.67495,169.48751l-26.50416,22.53434l-9.73326,-11.45452l26.50417,-22.53432z" data-paper-data="{&quot;index&quot;:null}"/><path d="M241.44761,228.55204l-4.41872,-36.4958l18.1107,-2.19275l4.41872,36.4958z"/><path d="M232.83712,231.32114l-4.47846,-36.98928l18.3556,-2.2224l4.47846,36.98928z"/><path d="M228.54697,197.89462l-4.3291,-35.75557l28.52258,-3.45337l4.3291,35.75558c0,0 -7.37831,0.89333 -11.61156,1.40587c-5.10873,0.61853 -16.91102,2.04749 -16.91102,2.04749z"/><path d="M253.34557,143.8007c1.02294,8.44884 -5.43882,16.18074 -14.43275,17.26967c-8.99393,1.08893 -17.11421,-4.87745 -18.13714,-13.32628c-1.02294,-8.44884 5.43882,-16.18073 14.43275,-17.26966c8.99393,-1.08893 17.11421,4.87744 18.13714,13.32628z" data-paper-data="{&quot;index&quot;:null}"/><path d="M250.10448,188.50386l-34.69266,-2.58589l1.11305,-14.9901l34.69265,2.5859z" data-paper-data="{&quot;index&quot;:null}"/></g></g></svg>