<svg version="1.1" xmlns="http://www.w3.org/2000/svg" xmlns:xlink="http://www.w3.org/1999/xlink" width="94.97312" height="112.32076" viewBox="0,0,94.97312,112.32076"><g transform="translate(-196.98201,-118.50146)"><g data-paper-data="{&quot;isPaintingLayer&quot;:true}" fill-rule="nonzero" stroke-linejoin="miter" stroke-miterlimit="10" stroke-dasharray="" stroke-dashoffset="0" style="mix-blend-mode: normal"><path d="M228.81541,227.06964l4.64286,-36.46795l18.09689,2.30397l-4.64286,36.46795z" fill="#9b6a16" stroke="#000000" stroke-width="1.5" stroke-linecap="butt"/><path d="M219.78914,227.64837l4.70565,-36.96106l18.3416,2.33513l-4.70565,36.96106z" fill="#9b6a16" stroke="#000000" stroke-width="1.5" stroke-linecap="butt"/><path d="M291.20383,173.4538l-34.78882,0.07048l-0.02618,-15.03134l34.78881,-0.07046z" data-paper-data="{&quot;index&quot;:null}" fill="#b1b1b1" stroke="#000000" stroke-width="1.5" stroke-linecap="butt"/><g stroke="#000000" stroke-linecap="butt"><path d="M223.80589,194.1879l4.54869,-35.7283l28.50081,3.62855l-4.54869,35.72831c0,0 -7.37269,-0.93865 -11.60271,-1.47718c-5.10484,-0.64992 -16.89811,-2.15135 -16.89811,-2.15135z" fill="#9b6a16" stroke-width="1.5"/><path d="M240.22134,167.06214c0.31174,1.41808 0.26594,2.73341 -0.45976,3.99581c-0.40955,0.71244 -1.9489,0.8193 -1.84557,1.63457c0.37668,2.97187 -2.39816,4.06027 -4.92596,2.52207c-1.15101,-0.70039 -0.29481,-3.19992 -0.48065,-3.39652c-1.26348,-1.33664 -2.97719,-1.38316 -3.04548,-3.80447c-0.03485,-1.23546 2.02156,-4.13661 3.54709,-3.50438c0.20519,-0.02599 0.41699,-0.02675 0.63169,0.00059c0.50951,0.06486 0.96358,0.27881 1.32395,0.59247c2.19483,0.54023 4.7269,-0.44112 5.25473,1.95988z" fill="#b1b1b1" stroke-width="1"/><path d="M250.13283,192.06022c-0.49786,0.45053 -6.93432,2.52102 -7.07633,2.50293c-3.73106,-0.47502 -5.6903,-6.36524 -2.63811,-8.62584c2.35377,-1.74334 5.0264,-0.14274 7.42054,-0.31245c0.17764,-0.01611 0.35974,-0.01335 0.544,0.01011c1.29952,0.16544 2.23833,1.30069 2.18213,2.58637c0.49734,1.39557 0.50473,2.99098 -0.43225,3.83888z" fill="#b1b1b1" stroke-width="1"/></g><g><path d="M236.23482,156.51794l-14.03042,-5.27223l10.18265,-0.21925l-14.96326,-5.08786l11.33785,0.23095l-15.46491,-5.90954l9.69449,1.23424l0.54514,-1.90091l-7.3406,-3.05644l9.95755,0.35835l1.57293,-2.831l2.31866,-2.73606l4.31453,-2.93666l6.32661,-2.07424l5.37201,-0.52857l3.04541,-2.49198l3.22976,-1.55914l7.12654,-1.21457l6.56242,0.83548l-3.09961,1.72726l-2.37286,1.97135l-1.74108,2.96117l2.79855,-0.55308l4.99777,0.03002l5.07096,0.6456l5.66479,1.9337l2.71708,2.46781l-3.57951,-0.45572l-5.54014,0.65874l-4.42293,1.40723l-3.06164,1.42898l-3.69894,2.86346l2.98568,-0.83238l2.46229,-0.29278l6.48647,1.43207l4.41189,3.44139l-1.84671,0.21958l-5.13068,1.01399l-3.1728,1.11169l-2.98844,2.04456l-2.82306,3.12653l2.05282,-0.64803l2.83378,0.36078l3.16452,2.52478l-1.78976,-0.22786l-3.56327,0.60729l-3.86156,0.56931l-3.04266,1.27982z" fill="#000000" stroke="#000000" stroke-width="4" stroke-linecap="round"/><path d="M261.0832,147.80337c-1.07483,8.4424 -9.23161,14.35878 -18.21868,13.2146c-8.98706,-1.14417 -15.4012,-8.91562 -14.32637,-17.35802c1.07483,-8.4424 9.23161,-14.35877 18.21868,-13.21459c8.98706,1.14417 15.4012,8.91561 14.32637,17.35802z" data-paper-data="{&quot;index&quot;:null}" fill="#b1b1b1" stroke="#000000" stroke-width="1.5" stroke-linecap="butt"/><path d="M243.16019,136.16418c0.05993,-0.02099 0.11862,-0.04055 0.17611,-0.05868c0.30876,-0.12738 0.64915,-0.18851 1.00115,-0.16796c0.11925,0.00377 0.23184,0.01869 0.33868,0.04497c1.15593,0.24127 1.9503,1.33518 1.7986,2.52671c0.23326,0.66586 -0.18883,1.09419 -0.7445,1.41611c-0.32188,0.28744 -0.72349,0.4832 -1.16089,0.5533c-0.19245,0.09257 -0.351,0.18259 -0.44484,0.27783c-0.10129,0.1028 -0.21282,0.21933 -0.33353,0.3471c1.28514,1.54161 1.99614,3.09082 1.17511,4.03713c-0.50338,0.58019 -1.40851,0.70768 -2.17472,0.76199c-0.1493,0.01059 -1.08433,-0.67729 -2.22424,-1.56837c-1.69104,1.46191 -3.55325,2.55313 -4.89572,1.65373c-1.41417,-0.94743 -1.17669,-2.09126 -0.62695,-3.17234c0.09755,-0.19185 0.75284,-0.82128 1.64919,-1.61803c-0.41445,-0.34594 -0.71516,-0.60188 -0.83205,-0.70805c-0.11285,-0.07221 -0.21858,-0.15393 -0.31624,-0.24389c-0.52625,-0.4847 -0.81772,-1.20835 -0.72048,-1.97211c0.14181,-1.11395 1.06276,-1.93812 2.14587,-1.9949c0.09153,-0.01722 0.18672,-0.0228 0.28616,-0.01484c0.09434,0.00756 0.20214,0.02923 0.32167,0.06395c0.26758,0.05781 0.51552,0.16139 0.73653,0.30129c0.62221,0.30953 1.38264,0.7959 2.17026,1.38838c1.21022,-0.95846 2.21131,-1.68354 2.46211,-1.71336z" fill="#000000" stroke="none" stroke-width="0.5" stroke-linecap="butt"/><path d="M253.77609,138.37639c0.19139,0.0746 0.83186,0.84951 1.58943,1.85081c0.74092,-0.306 1.43876,-0.53398 1.99175,-0.6509c0.20253,-0.06512 0.41886,-0.09614 0.64132,-0.08713c0.1012,-0.00298 0.1905,0.00192 0.26631,0.0152c0.07992,0.014 0.15373,0.03779 0.22229,0.07c0.84124,0.26544 1.3984,1.10205 1.28306,2.00803c-0.07908,0.62119 -0.45606,1.13158 -0.96918,1.40596c-0.09521,0.05093 -0.19514,0.0937 -0.29871,0.12758c-0.11367,0.05976 -0.4026,0.20001 -0.79941,0.38793c0.54339,0.81 0.93108,1.43914 0.96879,1.61009c0.21252,0.96325 0.16642,1.91224 -1.14012,2.37003c-1.2403,0.43458 -2.48416,-0.80411 -3.51772,-2.2998c-1.07911,0.4693 -1.95552,0.82037 -2.07091,0.78162c-0.59221,-0.1989 -1.27893,-0.48375 -1.55703,-1.04315c-0.45361,-0.91242 0.42191,-1.98732 1.74795,-2.93924c-0.069,-0.1252 -0.13308,-0.23968 -0.19188,-0.34126c-0.05448,-0.09411 -0.16097,-0.19732 -0.29363,-0.30942c-0.33012,-0.14432 -0.60643,-0.38031 -0.80129,-0.67223c-0.37191,-0.36671 -0.61696,-0.78999 -0.2976,-1.26673c0.12337,-0.96909 0.97177,-1.66853 1.93109,-1.62293c0.08947,0.0011 0.18115,0.01227 0.27582,0.03361c0.28134,0.05556 0.5369,0.17306 0.75406,0.33627c0.04158,0.02598 0.0838,0.05335 0.12671,0.08209z" data-paper-data="{&quot;index&quot;:null}" fill="#000000" stroke="none" stroke-width="0.5" stroke-linecap="butt"/><path d="M245.14293,156.70198c-2.47785,-0.12365 -6.25529,-0.47177 -7.98583,-2.59846c-0.39961,-0.49108 -0.2253,-2.03857 -0.07204,-2.6305c0.94187,-3.63771 5.07128,-2.63234 7.82361,-2.28194l0.03013,-0.01055c0.36774,-0.13757 0.77334,-0.19029 1.18987,-0.13726c0.0931,0.01184 0.18433,0.02868 0.27348,0.05018c7.45285,0.01984 5.25957,7.93382 -1.25921,7.60852z" fill="#000000" stroke="none" stroke-width="0.5" stroke-linecap="butt"/><path d="M239.09961,126.8731l-6.12083,9.98173c0,0 -2.57235,2.31735 -2.89901,3.72314c-0.32666,1.40579 1.22287,3.49007 1.22287,3.49007c0,0 -1.89782,-0.2852 -2.62295,-0.70828c-0.52709,-0.30753 0.13711,-0.68659 -0.18351,-1.08824c-0.71704,-0.89823 -1.63787,-3.77091 -1.63787,-3.77091l3.53081,-2.73331" fill="none" stroke="#000000" stroke-width="4" stroke-linecap="round"/><path d="M234.95048,130.89178l-0.43673,3.43036l2.33731,5.45072l0.6998,-4.30624l1.9282,-3.24047l5.60538,-4.74264l15.38377,0.59448l2.20992,4.07043l-2.5113,5.43969l-2.09356,2.15848l0.37977,-2.98291l-1.29606,-4.10565l-6.22062,-3.52011l1.59159,5.35578l-2.76886,3.89126l-1.29606,-4.10565l-3.2377,-3.14035l-2.93941,-3.10237z" fill="#000000" stroke="#000000" stroke-width="4" stroke-linecap="round"/></g><g stroke="#000000" stroke-width="1.5" stroke-linecap="butt"><path d="M226.36049,197.905l-27.03233,-21.89794l9.45822,-11.68264l27.03232,21.89795z" data-paper-data="{&quot;index&quot;:null}" fill="#b1b1b1"/><path d="M218.81555,191.79312l-19.48739,-15.78603l9.45822,-11.68264l18.87955,15.29366z" data-paper-data="{&quot;index&quot;:null}" fill="#9b6a16"/><path d="M216.56513,183.46347c-1.17984,-0.71716 -1.55492,-2.25499 -0.83776,-3.43486c0.71716,-1.17984 2.255,-1.55493 3.43484,-0.83777c1.17984,0.71716 1.55492,2.25499 0.83776,3.43486c-0.71716,1.17984 -2.255,1.55493 -3.43484,0.83777z" fill="#b1b1b1"/><path d="M205.25752,174.35594c1.03727,-1.90151 4.05741,-2.61817 5.84246,-1.31555c2.8199,2.05782 -1.57966,6.05389 -3.54853,5.00201c-0.46632,0.01381 -0.94188,-0.10257 -1.37026,-0.36296c-1.04915,-0.63772 -1.46195,-1.92436 -1.03628,-3.03117c0.02356,-0.09905 0.06038,-0.1966 0.11262,-0.29236z" fill="#b1b1b1"/></g></g></g></svg>