<svg version="1.1" xmlns="http://www.w3.org/2000/svg" xmlns:xlink="http://www.w3.org/1999/xlink" width="79.57174" height="85.60316" viewBox="0,0,79.57174,85.60316"><g transform="translate(-203.56793,-143.4775)"><g data-paper-data="{&quot;isPaintingLayer&quot;:true}" fill="#b1b1b1" fill-rule="nonzero" stroke="#000000" stroke-width="1.5" stroke-linecap="butt" stroke-linejoin="miter" stroke-miterlimit="10" stroke-dasharray="" stroke-dashoffset="0" style="mix-blend-mode: normal"><path d="M214.94247,144.51859l30.89736,20.82347l-10.33345,15.33254l-30.89736,-20.82347z"/><path d="M261.39033,205.34616l4.50655,-34.49577l14.90527,1.94295l-4.50657,34.49577z" data-paper-data="{&quot;index&quot;:null}"/><path d="M240.76651,163.66178l24.90302,25.98834l-20.23599,19.02838l-24.90303,-25.98835c0,0 5.23471,-4.92232 8.23809,-7.74648c3.6245,-3.4082 11.9979,-11.2819 11.9979,-11.2819z"/><path d="M241.66215,146.10664l10.42986,35.10644l-17.32319,5.33449l-10.42983,-35.10644z"/><path d="M254.55277,213.61705c-5.85966,-6.17202 -5.28363,-16.23208 1.28659,-22.46977c6.57022,-6.23769 16.6466,-6.29093 22.50626,-0.1189c5.85966,6.17202 5.28362,16.23205 -1.2866,22.46976c-6.57022,6.23769 -16.6466,6.29094 -22.50626,0.1189z" data-paper-data="{&quot;index&quot;:null}"/><path d="M268.20955,194.72813l-9.65,33.42371l-14.44032,-4.1736l9.65,-33.4237z" data-paper-data="{&quot;index&quot;:null}"/></g></g></svg>