<svg version="1.1" xmlns="http://www.w3.org/2000/svg" xmlns:xlink="http://www.w3.org/1999/xlink" width="61.22132" height="101.36707" viewBox="0,0,61.22132,101.36707"><g transform="translate(-221.71633,-129.35423)"><g data-paper-data="{&quot;isPaintingLayer&quot;:true}" fill="#b1b1b1" fill-rule="nonzero" stroke="#000000" stroke-width="1.5" stroke-linecap="butt" stroke-linejoin="miter" stroke-miterlimit="10" stroke-dasharray="" stroke-dashoffset="0" style="mix-blend-mode: normal"><path d="M239.29641,196.95493l-16.56336,-30.59284l13.2204,-7.15285l16.56334,30.59284z" data-paper-data="{&quot;index&quot;:null}"/><path d="M234.52008,227.16922l3.9109,-36.5537l18.13943,1.94075l-3.9109,36.5537z"/><path d="M225.50723,227.92878l3.96378,-37.04797l18.38471,1.96699l-3.96378,37.04797z"/><path d="M228.85241,194.39451l3.83157,-35.8123l28.56783,3.05649l-3.83158,35.81231c0,0 -7.39002,-0.79066 -11.62999,-1.2443c-5.11684,-0.54745 -16.93784,-1.81219 -16.93784,-1.81219z"/><path d="M265.19241,147.27204c-0.90538,8.46224 -8.94192,14.54095 -17.95012,13.57715c-9.0082,-0.96379 -15.57683,-8.60511 -14.67145,-17.06735c0.90538,-8.46224 8.94192,-14.54094 17.95012,-13.57714c9.0082,0.96379 15.57683,8.6051 14.67145,17.06735z" data-paper-data="{&quot;index&quot;:null}"/><path d="M281.87756,173.20107l-25.49228,23.67299l-10.2316,-11.01166l25.49229,-23.67298z" data-paper-data="{&quot;index&quot;:null}"/></g></g></svg>