<svg version="1.1" xmlns="http://www.w3.org/2000/svg" xmlns:xlink="http://www.w3.org/1999/xlink" width="53.39773" height="101.39231" viewBox="0,0,53.39773,101.39231"><g transform="translate(-213.49698,-130.40972)"><g data-paper-data="{&quot;isPaintingLayer&quot;:true}" fill="#b1b1b1" fill-rule="nonzero" stroke="#000000" stroke-width="1.5" stroke-linecap="butt" stroke-linejoin="miter" stroke-miterlimit="10" stroke-dasharray="" stroke-dashoffset="0" style="mix-blend-mode: normal"><path d="M252.60638,195.79096l-16.33232,-30.71681l13.27394,-7.053l16.3323,30.71681z" data-paper-data="{&quot;index&quot;:null}"/><path d="M214.5112,220.91274l17.24843,-32.46475l16.11033,8.55937l-17.24843,32.46475z"/><path d="M224.22401,194.34694l5.27574,-35.6282l28.42097,4.20851l-5.27574,35.62821c0,0 -7.35203,-1.08867 -11.5702,-1.71329c-5.09053,-0.75379 -16.85077,-2.49522 -16.85077,-2.49522z"/><path d="M264.27767,146.56941c0,8.51054 -7.34426,15.4097 -16.40387,15.4097c-9.05961,0 -16.40387,-6.89916 -16.40387,-15.4097c0,-8.51054 7.34426,-15.40969 16.40387,-15.40969c9.05961,0 16.40387,6.89915 16.40387,15.4097z" data-paper-data="{&quot;index&quot;:null}"/><path d="M226.49805,225.80975l10.20775,-35.83386l17.78222,5.0655l-10.20775,35.83386z"/><path d="M225.14213,197.19782l-10.41506,-33.19327l14.34067,-4.50414l10.41505,33.19328z" data-paper-data="{&quot;index&quot;:null}"/></g></g></svg>