<svg version="1.1" xmlns="http://www.w3.org/2000/svg" xmlns:xlink="http://www.w3.org/1999/xlink" width="75.34465" height="97.00748" viewBox="0,0,75.34465,97.00748"><g transform="translate(-202.14939,-129.10763)"><g data-paper-data="{&quot;isPaintingLayer&quot;:true}" fill="#b1b1b1" fill-rule="nonzero" stroke="#000000" stroke-width="1.5" stroke-linecap="butt" stroke-linejoin="miter" stroke-miterlimit="10" stroke-dasharray="" stroke-dashoffset="0" style="mix-blend-mode: normal"><path d="M266.02892,192.52649l-25.1145,-24.07341l10.40457,-10.84837l25.11448,24.07341z" data-paper-data="{&quot;index&quot;:null}"/><path d="M256.59696,225.11834l-15.54269,-33.31506l16.53229,-7.71291l15.54269,33.31506z"/><path d="M228.01752,197.05761l-3.29585,-35.86557l28.61032,-2.62913l3.29585,35.86558c0,0 -7.40102,0.68011 -11.64729,1.07032c-5.12445,0.47091 -16.96304,1.55881 -16.96304,1.55881z"/><path d="M254.36625,143.70156c0.77879,8.47483 -5.90332,16.01711 -14.92492,16.84615c-9.0216,0.82904 -16.96638,-5.36911 -17.74517,-13.84394c-0.77879,-8.47483 5.90332,-16.0171 14.92492,-16.84614c9.0216,-0.82904 16.96638,5.3691 17.74517,13.84394z" data-paper-data="{&quot;index&quot;:null}"/><path d="M226.94415,197.64688l-23.73488,-25.43466l10.98675,-10.25834l23.73488,25.43467z" data-paper-data="{&quot;index&quot;:null}"/><path d="M229.96755,219.40364l11.49023,-35.44345l17.58849,5.70192l-11.49023,35.44345z"/></g></g></svg>