<svg version="1.1" xmlns="http://www.w3.org/2000/svg" xmlns:xlink="http://www.w3.org/1999/xlink" width="70.99539" height="102.8055" viewBox="0,0,70.99539,102.8055"><g transform="translate(-205.46651,-130.23422)"><g data-paper-data="{&quot;isPaintingLayer&quot;:true}" fill="#b1b1b1" fill-rule="nonzero" stroke="#000000" stroke-width="1.5" stroke-linecap="butt" stroke-linejoin="miter" stroke-miterlimit="10" stroke-dasharray="" stroke-dashoffset="0" style="mix-blend-mode: normal"><path d="M261.80708,197.4989l-14.52609,-31.61107l13.6601,-6.27247l14.52607,31.61107z" data-paper-data="{&quot;index&quot;:null}"/><path d="M246.12034,230.40231l-10.26143,-35.30115l17.51787,-5.09214l10.26143,35.30115z"/><path d="M214.12771,224.72318l14.77236,-34.20586l16.97434,7.33065l-14.77236,34.20586z"/><path d="M226.27947,195.81144l2.82516,-35.90572l28.64235,2.25366l-2.82516,35.90572c0,0 -7.4093,-0.58298 -11.66032,-0.91746c-5.13019,-0.40365 -16.98202,-1.33619 -16.98202,-1.33619z"/><path d="M261.28289,147.68781c-0.66757,8.48432 -8.53037,14.78614 -17.56207,14.07549c-9.0317,-0.71064 -15.81216,-8.16462 -15.14459,-16.64894c0.66757,-8.48432 8.53037,-14.78613 17.56207,-14.07549c9.0317,0.71064 15.81216,8.16462 15.14459,16.64894z" data-paper-data="{&quot;index&quot;:null}"/><path d="M206.49988,188.0029l18.40861,-29.51931l12.75678,7.95027l-18.40862,29.51931z" data-paper-data="{&quot;index&quot;:null}"/></g></g></svg>