<svg version="1.1" xmlns="http://www.w3.org/2000/svg" xmlns:xlink="http://www.w3.org/1999/xlink" width="81.79456" height="101.07083" viewBox="0,0,81.79456,101.07083"><g transform="translate(-187.96058,-121.48472)"><g data-paper-data="{&quot;isPaintingLayer&quot;:true}" fill="#b1b1b1" fill-rule="nonzero" stroke="#000000" stroke-width="1.5" stroke-linecap="butt" stroke-linejoin="miter" stroke-miterlimit="10" stroke-dasharray="" stroke-dashoffset="0" style="mix-blend-mode: normal"><path d="M188.97994,193.88847l32.16618,-17.79902l8.8326,15.96217l-32.16618,17.79902z" data-paper-data="{&quot;index&quot;:null}"/><path d="M241.23876,216.79656l9.75101,-35.96083l17.84523,4.83885l-9.75101,35.96083z" data-paper-data="{&quot;index&quot;:null}"/><g><path d="M225.54194,188.36544v-36.01669h28.73087v36.0167c0,0 -7.4322,0 -11.69636,0c-5.14604,0 -17.03451,0 -17.03451,0z"/><path d="M256.66268,137.64441c0,8.51054 -7.34426,15.4097 -16.40387,15.4097c-9.05961,0 -16.40387,-6.89916 -16.40387,-15.4097c0,-8.51054 7.34426,-15.40969 16.40387,-15.40969c9.05961,0 16.40387,6.89915 16.40387,15.4097z" data-paper-data="{&quot;index&quot;:null}"/><path d="M228.1404,177.02618l25.80648,-23.33008l10.07716,11.15317l-25.80648,23.33005z" data-paper-data="{&quot;index&quot;:null}"/><path d="M218.10828,161.91813l15.79963,-30.99417l13.39371,6.82281l-15.79964,30.99417z" data-paper-data="{&quot;index&quot;:null}"/></g></g></g></svg>