<svg version="1.1" xmlns="http://www.w3.org/2000/svg" xmlns:xlink="http://www.w3.org/1999/xlink" width="104.67241" height="105.66139" viewBox="0,0,104.67241,105.66139"><g transform="translate(-179.21103,-115.8387)"><g data-paper-data="{&quot;isPaintingLayer&quot;:true}" fill-rule="nonzero" stroke-linejoin="miter" stroke-miterlimit="10" stroke-dasharray="" stroke-dashoffset="0" style="mix-blend-mode: normal"><path d="M273.39686,160.28295l-34.03966,7.18112l-3.0986,-14.70852l34.03965,-7.18111z" data-paper-data="{&quot;index&quot;:null}" fill="#b1b1b1" stroke="#000000" stroke-width="1.5" stroke-linecap="butt"/><path d="M269.41519,202.60664l-24.92761,-27.02004l13.40844,-12.3701l24.92761,27.02004z" fill="#9b6a16" stroke="#000000" stroke-width="1.5" stroke-linecap="butt"/><path d="M247.94415,220.54844l-12.00476,-35.2725l17.50366,-5.95725l12.00476,35.2725z" fill="#9b6a16" stroke="#000000" stroke-width="1.5" stroke-linecap="butt"/><g stroke="#000000" stroke-linecap="butt"><path d="M242.84344,195.60339l-25.74559,-25.18663l20.09163,-20.53751l25.7456,25.18664c0,0 -5.19737,5.31271 -8.17932,8.36084c-3.59865,3.67851 -11.91231,12.17668 -11.91231,12.17668z" fill="#9b6a16" stroke-width="1.5"/><path d="M231.11839,166.14498c1.31892,0.60712 2.34015,1.43735 2.9089,2.7778c0.32098,0.7565 -0.5227,2.04849 0.18976,2.45803c2.59713,1.49293 1.79062,4.36241 -0.96131,5.44994c-1.25306,0.4952 -2.72957,-1.69583 -2.99848,-1.66627c-1.82828,0.20095 -2.89948,1.53943 -4.87148,0.1328c-1.00621,-0.71772 -2.07875,-4.10817 -0.65405,-4.94315c0.10309,-0.17931 0.23029,-0.34866 0.38164,-0.50337c0.35918,-0.36715 0.80378,-0.60013 1.27134,-0.69823c1.75521,-1.42421 2.50058,-4.0355 4.73368,-3.00757z" fill="#b1b1b1" stroke-width="1"/><path d="M257.03318,173.32589c0.05884,0.66886 -2.17406,7.0508 -2.27416,7.15313c-2.63021,2.68858 -8.50943,0.69659 -8.47031,-3.10138c0.03016,-2.92891 2.91924,-4.09427 4.22861,-6.10581c0.09434,-0.15138 0.20644,-0.29492 0.33632,-0.42768c0.9161,-0.93643 2.38787,-1.00001 3.37917,-0.1794c1.41297,0.44554 2.68963,1.40236 2.80037,2.66116z" fill="#b1b1b1" stroke-width="1"/></g><g><path d="M219.73886,167.91806l-12.93097,7.57887l6.24206,-8.04806l-13.37519,8.41961l7.31925,-8.66191l-14.32939,8.29185l7.06373,-6.75353l-1.13336,-1.62054l-6.99691,3.77751l6.54899,-7.50946l-1.20862,-3.00465l-0.66526,-3.52416l0.43578,-5.20088l2.3728,-6.2208l2.97234,-4.50589l-0.018,-3.93499l0.82274,-3.49075l3.54434,-6.30083l4.7816,-4.57162l-0.61018,3.49552l0.03709,3.08469l1.20386,3.21724l1.3327,-2.52224l3.17059,-3.8634l3.69487,-3.53261l5.06943,-3.18274l3.62807,-0.55659l-2.60815,2.49361l-2.97711,4.71847l-1.69212,4.32196l-0.81798,3.27819l-0.10499,4.6766l1.23358,-2.84349l1.32316,-2.0971l5.1972,-4.13693l5.45163,-1.26004l-0.99237,1.57283l-2.44329,4.62411l-1.13446,3.16473l-0.2937,3.60898l0.65094,4.16188l0.78934,-2.00274l2.06478,-1.97411l3.95408,-0.86829l-1.30407,1.24681l-1.77216,3.15042l-1.98951,3.35822l-0.92188,3.16951z" fill="#000000" stroke="#000000" stroke-width="4" stroke-linecap="round"/><path d="M228.61719,143.12772c5.88128,6.15141 5.34058,16.21343 -1.2077,22.47415c-6.54828,6.26072 -16.62442,6.34932 -22.5057,0.19791c-5.88128,-6.15141 -5.34057,-16.21342 1.20771,-22.47414c6.54828,-6.26072 16.62442,-6.34933 22.5057,-0.19791z" data-paper-data="{&quot;index&quot;:null}" fill="#b1b1b1" stroke="#000000" stroke-width="1.5" stroke-linecap="butt"/><path d="M208.28901,149.72089c0.02143,-0.05977 0.04319,-0.11768 0.06532,-0.17376c0.09549,-0.32006 0.26235,-0.62298 0.49998,-0.88348c0.07803,-0.09027 0.16053,-0.16832 0.24821,-0.23478c0.91535,-0.74601 2.26536,-0.6742 3.09542,0.19399c0.66414,0.23811 0.73107,0.83574 0.63122,1.4701c0.02059,0.43105 -0.08025,0.86631 -0.30125,1.25022c-0.04928,0.20778 -0.0792,0.38765 -0.06431,0.52052c0.01608,0.14342 0.03635,0.30344 0.05959,0.47767c2.00684,-0.02749 3.65802,0.39577 3.87609,1.62949c0.13371,0.75639 -0.33727,1.53981 -0.77758,2.1692c-0.0858,0.12265 -1.20897,0.41581 -2.61901,0.74016c0.07072,2.23423 -0.25431,4.368 -1.79837,4.84446c-1.62653,0.50191 -2.36552,-0.40288 -2.85912,-1.51071c-0.0876,-0.19659 -0.16389,-1.102 -0.21835,-2.30004c-0.52972,0.10409 -0.91791,0.17652 -1.07399,0.20047c-0.12716,0.04218 -0.25722,0.07286 -0.3886,0.09208c-0.70792,0.10356 -1.4536,-0.12573 -1.98567,-0.68223c-0.77602,-0.81166 -0.83629,-2.04607 -0.19833,-2.9232c0.04426,-0.08194 0.09986,-0.15941 0.16867,-0.23164c0.06527,-0.06852 0.15,-0.13861 0.25225,-0.2096c0.21341,-0.17146 0.45001,-0.29883 0.69786,-0.38241c0.63227,-0.28842 1.48896,-0.57284 2.44521,-0.81157c0.01757,-1.54369 0.08474,-2.77795 0.21952,-2.99155z" fill="#000000" stroke="none" stroke-width="0.5" stroke-linecap="butt"/><path d="M216.69268,142.86745c0.17847,-0.1017 1.18376,-0.11123 2.43864,-0.06916c0.22887,-0.76824 0.49124,-1.45391 0.74865,-1.9571c0.07696,-0.19833 0.18909,-0.38591 0.33618,-0.55305c0.06141,-0.08049 0.12145,-0.14677 0.17951,-0.19731c0.0612,-0.05327 0.12617,-0.09561 0.19436,-0.12859c0.73596,-0.48633 1.7367,-0.3923 2.36785,0.26783c0.43273,0.45261 0.59183,1.06686 0.48184,1.63826c-0.0204,0.10603 -0.05009,0.21059 -0.089,0.31238c-0.02516,0.12593 -0.09816,0.43869 -0.20207,0.86528c0.97141,0.08797 1.70427,0.18301 1.86081,0.26136c0.88209,0.4415 1.59025,1.07493 1.12309,2.37816c-0.44348,1.23715 -2.18901,1.42335 -4.00174,1.28434c-0.31499,1.1338 -0.59418,2.03569 -0.69696,2.10092c-0.52744,0.33479 -1.18116,0.68885 -1.79085,0.55261c-0.99443,-0.22222 -1.27807,-1.57923 -1.18249,-3.20878c-0.14071,-0.02525 -0.26999,-0.04756 -0.38592,-0.06585c-0.10742,-0.01695 -0.25465,0.00078 -0.42527,0.03324c-0.32001,0.16556 -0.67732,0.23159 -1.02679,0.19914c-0.51906,0.05797 -1.0022,-0.01823 -1.17142,-0.56652c-0.6751,-0.70611 -0.68418,-1.80561 -0.04463,-2.52211c0.05719,-0.06881 0.12361,-0.13299 0.19981,-0.19309c0.22033,-0.18357 0.47254,-0.30809 0.73608,-0.374c0.04637,-0.01594 0.09422,-0.0315 0.14356,-0.04673z" data-paper-data="{&quot;index&quot;:null}" fill="#000000" stroke="none" stroke-width="0.5" stroke-linecap="butt"/><path d="M225.49158,161.11405c-1.65644,1.84696 -4.30566,4.56208 -7.04747,4.56713c-0.63311,0.00117 -1.72547,-1.10875 -2.08877,-1.60056c-2.23268,-3.02245 1.14873,-5.5971 3.15417,-7.51447l0.01077,-0.03004c0.12471,-0.37229 0.33919,-0.72057 0.64269,-1.01075c0.06783,-0.06485 0.13835,-0.12512 0.2112,-0.18084c4.70873,-5.77695 9.47521,0.91052 5.1174,5.76952z" fill="#000000" stroke="none" stroke-width="0.5" stroke-linecap="butt"/><path d="M198.51452,147.02428l3.89941,11.04057c0,0 0.18024,3.45755 1.06655,4.59658c0.88631,1.13903 3.48121,1.24789 3.48121,1.24789c0,0 -1.41667,1.29464 -2.20196,1.59151c-0.57082,0.21579 -0.44701,-0.53888 -0.96091,-0.54274c-1.14931,-0.00865 -3.9607,-1.10236 -3.9607,-1.10236l0.10022,-4.46403" fill="none" stroke="#000000" stroke-width="4" stroke-linecap="round"/><path d="M199.02341,152.77806l2.38971,2.49947l5.70606,1.61686l-2.90444,-3.25541l-1.30298,-3.53847l-0.15422,-7.34093l10.1495,-11.5759l4.55362,0.8466l2.64414,5.37637l0.35834,2.98557l-2.07801,-2.17345l-4.00548,-1.57868l-6.65181,2.61551l5.16271,2.13636l1.27912,4.60134l-4.00548,-1.57868l-4.47835,0.5375l-4.26101,0.3297z" fill="#000000" stroke="#000000" stroke-width="4" stroke-linecap="round"/></g><g stroke="#000000" stroke-width="1.5" stroke-linecap="butt"><path d="M243.31615,199.83941l-32.97586,-11.08417l4.78515,-14.24936l32.97586,11.08419z" data-paper-data="{&quot;index&quot;:null}" fill="#b1b1b1"/><path d="M234.11232,196.74574l-23.77203,-7.99049l4.78515,-14.24936l23.03055,7.74127z" data-paper-data="{&quot;index&quot;:null}" fill="#9b6a16"/><path d="M229.0958,189.72561c-1.35597,-0.2602 -2.24427,-1.57037 -1.98407,-2.92634c0.2602,-1.35597 1.57037,-2.24427 2.92634,-1.98407c1.35597,0.2602 2.24427,1.57037 1.98407,2.92634c-0.2602,1.35597 -1.57037,2.24427 -2.92634,1.98407z" fill="#b1b1b1"/><path d="M215.32029,185.13818c0.30826,-2.14397 2.88824,-3.86981 5.01571,-3.27223c3.36086,0.94402 0.63297,6.2245 -1.57925,5.92607c-0.43217,0.17573 -0.91844,0.23266 -1.41076,0.13818c-1.20576,-0.23138 -2.04173,-1.29298 -2.02919,-2.47875c-0.01249,-0.10105 -0.01204,-0.20531 0.00348,-0.31328z" fill="#b1b1b1"/></g></g></g></svg>