<svg version="1.1" xmlns="http://www.w3.org/2000/svg" xmlns:xlink="http://www.w3.org/1999/xlink" width="79.5982" height="80.79878" viewBox="0,0,79.5982,80.79878"><g transform="translate(-210.89896,-154.93952)"><g data-paper-data="{&quot;isPaintingLayer&quot;:true}" fill="#b1b1b1" fill-rule="nonzero" stroke="#000000" stroke-width="1.5" stroke-linecap="butt" stroke-linejoin="miter" stroke-miterlimit="10" stroke-dasharray="" stroke-dashoffset="0" style="mix-blend-mode: normal"><path d="M289.2779,206.98241l-34.77377,-1.02528l0.44728,-15.02472l34.77377,1.02529z" data-paper-data="{&quot;index&quot;:null}"/><path d="M249.1469,230.3476l3.70881,-36.57476l18.14988,1.84045l-3.70881,36.57476z"/><path d="M226.50048,197.49856l22.21424,-28.35011l22.61519,17.72051l-22.21425,28.35011c0,0 -5.85016,-4.58401 -9.20666,-7.21403c-4.05063,-3.17396 -13.40853,-10.50647 -13.40853,-10.50647z"/><path d="M281.61938,176.89058c-2.93923,7.98687 -12.21432,11.92508 -20.71649,8.79622c-8.50216,-3.12886 -13.0118,-12.13994 -10.07259,-20.12682c2.93923,-7.98687 12.21431,-11.92506 20.71648,-8.79621c8.50216,3.12886 13.0118,12.13993 10.07257,20.12682z" data-paper-data="{&quot;index&quot;:null}"/><path d="M211.95046,220.01136l29.57323,-22.66466l11.24715,14.67543l-29.57323,22.66467z"/><path d="M274.34353,215.6602l-33.85067,-8.02488l3.46319,-14.62699l33.85067,8.02488z" data-paper-data="{&quot;index&quot;:null}"/></g></g></svg>