<svg version="1.1" xmlns="http://www.w3.org/2000/svg" xmlns:xlink="http://www.w3.org/1999/xlink" width="53.30869" height="96.82339" viewBox="0,0,53.30869,96.82339"><g transform="translate(-220.5471,-135.33533)"><g data-paper-data="{&quot;isPaintingLayer&quot;:true}" fill="#b1b1b1" fill-rule="nonzero" stroke="#000000" stroke-width="1.5" stroke-linecap="butt" stroke-linejoin="miter" stroke-miterlimit="10" stroke-dasharray="" stroke-dashoffset="0" style="mix-blend-mode: normal"><path d="M248.23038,204.0659l-3.92219,-34.56708l14.93601,-1.69044l3.92217,34.56707z" data-paper-data="{&quot;index&quot;:null}"/><path d="M243.01222,228.14286l0.2725,-36.76131l18.24246,0.13522l-0.2725,36.76131z"/><path d="M221.42947,227.65516l7.29727,-36.53784l18.13157,3.6212l-7.29727,36.53784z"/><path d="M225.74374,195.06353l8.49872,-34.99961l27.91955,6.77952l-8.49873,34.99962c0,0 -7.22232,-1.75375 -11.36606,-2.75995c-5.00071,-1.21429 -16.55348,-4.01957 -16.55348,-4.01957z"/><path d="M272.7875,154.94458c-1.76507,8.32549 -10.38051,13.55146 -19.24313,11.67251c-8.86262,-1.87894 -14.61633,-10.15127 -12.85126,-18.47676c1.76507,-8.32549 10.38051,-13.55145 19.24313,-11.6725c8.86262,1.87894 14.61633,10.15126 12.85126,18.47676z" data-paper-data="{&quot;index&quot;:null}"/><path d="M239.88716,206.99128l-3.74924,-34.58627l14.94336,-1.62418l3.74923,34.58627z" data-paper-data="{&quot;index&quot;:null}"/></g></g></svg>