<svg version="1.1" xmlns="http://www.w3.org/2000/svg" xmlns:xlink="http://www.w3.org/1999/xlink" width="67.94396" height="95.26574" viewBox="0,0,67.94396,95.26574"><g transform="translate(-206.30407,-137.2774)"><g data-paper-data="{&quot;isPaintingLayer&quot;:true}" fill="#b1b1b1" fill-rule="nonzero" stroke="#000000" stroke-width="1.5" stroke-linecap="butt" stroke-linejoin="miter" stroke-miterlimit="10" stroke-dasharray="" stroke-dashoffset="0" style="mix-blend-mode: normal"><path d="M261.34915,203.72726l-31.38763,-15.0028l6.48617,-13.55993l31.3876,15.00282z" data-paper-data="{&quot;index&quot;:null}"/><path d="M250.13006,230.39229v-36.76232h18.24296v36.76232z"/><path d="M223.37133,194.10552l13.15663,-33.52767l26.74537,10.49517l-13.15664,33.52769c0,0 -6.91858,-2.71493 -10.88805,-4.2726c-4.79041,-1.87982 -15.8573,-6.22258 -15.8573,-6.22258z"/><path d="M207.35273,220.52987l22.09536,-30.00098l14.88771,10.96462l-22.09536,30.00098z"/><path d="M273.49803,153.43709c0,8.51054 -7.34426,15.4097 -16.40387,15.4097c-9.05961,0 -16.40387,-6.89916 -16.40387,-15.4097c0,-8.51054 7.34426,-15.40969 16.40387,-15.40969c9.05961,0 16.40387,6.89915 16.40387,15.4097z" data-paper-data="{&quot;index&quot;:null}"/><path d="M226.91559,201.39895l-12.80205,-32.34771l13.97504,-5.5354l12.80204,32.34772z" data-paper-data="{&quot;index&quot;:null}"/></g></g></svg>