<svg version="1.1" xmlns="http://www.w3.org/2000/svg" xmlns:xlink="http://www.w3.org/1999/xlink" width="44.31712" height="101.59272" viewBox="0,0,44.31712,101.59272"><g transform="translate(-217.71576,-130.23423)"><g data-paper-data="{&quot;isPaintingLayer&quot;:true}" fill="#b1b1b1" fill-rule="nonzero" stroke="#000000" stroke-width="1.5" stroke-linecap="butt" stroke-linejoin="miter" stroke-miterlimit="10" stroke-dasharray="" stroke-dashoffset="0" style="mix-blend-mode: normal"><path d="M228.56032,191.24634l16.54503,-30.60277l13.22063,7.15243l-16.54503,30.60275z" data-paper-data="{&quot;index&quot;:null}"/><path d="M218.6595,225.29335l11.26443,-34.99401l17.36546,5.58987l-11.26443,34.99401z"/><path d="M236.24295,230.32971l0.64958,-37.25374l18.48682,0.32234l-0.64958,37.25374z"/><path d="M226.27947,195.81146l2.82516,-35.90572l28.64235,2.25366l-2.82516,35.90572c0,0 -7.4093,-0.58298 -11.66032,-0.91746c-5.13019,-0.40365 -16.98202,-1.33619 -16.98202,-1.33619z"/><path d="M261.28289,147.68783c-0.66757,8.48432 -8.53037,14.78614 -17.56207,14.07549c-9.0317,-0.71064 -15.81216,-8.16462 -15.14459,-16.64894c0.66757,-8.48432 8.53037,-14.78613 17.56207,-14.07549c9.0317,0.71064 15.81216,8.16462 15.14459,16.64894z" data-paper-data="{&quot;index&quot;:null}"/><path d="M239.00449,200.64899l-9.71484,-33.40492l14.43221,-4.20161l9.71483,33.40493z" data-paper-data="{&quot;index&quot;:null}"/></g></g></svg>