<svg version="1.1" xmlns="http://www.w3.org/2000/svg" xmlns:xlink="http://www.w3.org/1999/xlink" width="16.55797" height="11.86712" viewBox="0,0,16.55797,11.86712"><defs><radialGradient cx="236.91451" cy="180.17265" r="10.70409" gradientUnits="userSpaceOnUse" id="color-1"><stop offset="0" stop-color="#d900ff"/><stop offset="1" stop-color="#d900ff" stop-opacity="0"/></radialGradient><radialGradient cx="239.53098" cy="179.21229" r="10.13512" gradientUnits="userSpaceOnUse" id="color-2"><stop offset="0" stop-color="#d900ff"/><stop offset="1" stop-color="#d900ff" stop-opacity="0"/></radialGradient><radialGradient cx="239.75922" cy="181.05066" r="10.13512" gradientUnits="userSpaceOnUse" id="color-3"><stop offset="0" stop-color="#d900ff"/><stop offset="1" stop-color="#d900ff" stop-opacity="0"/></radialGradient></defs><g transform="translate(-230.51709,-174.19792)"><g data-paper-data="{&quot;isPaintingLayer&quot;:true}" fill-rule="nonzero" stroke="none" stroke-width="0" stroke-linecap="butt" stroke-linejoin="miter" stroke-miterlimit="10" stroke-dasharray="" stroke-dashoffset="0" style="mix-blend-mode: normal"><path d="M242.31696,183.77427c-2.4136,1.83189 -7.19234,1.46591 -9.77266,-0.28469c-2.5803,-1.75059 -2.71543,-4.65477 -0.30184,-6.48667c0.021,-0.01593 0.04211,-0.03174 0.06337,-0.04742c0.00826,0.08885 0.06142,0.17577 0.15869,0.24178c0.20495,0.13904 0.52816,0.13254 0.72192,-0.01453c0.19376,-0.14707 0.1847,-0.37899 -0.02024,-0.51804c-0.07668,-0.05202 -0.16993,-0.08367 -0.26674,-0.09521c0.90903,-0.51979 1.97642,-0.83466 3.07993,-0.94261c-0.07591,0.0704 -0.06647,0.17201 0.02556,0.23445c0.09801,0.0665 1.2569,-0.03627 1.34956,-0.10661c0.09266,-0.07033 0.08833,-0.18127 -0.00968,-0.24776c-0.00358,-0.00242 -0.00722,-0.00475 -0.01093,-0.00699c1.30444,-0.07556 2.64101,0.13504 3.81128,0.63502c-0.02064,0.00839 -0.03991,0.01911 -0.05707,0.03213c-0.09266,0.07033 -0.08833,0.18126 0.00968,0.24775c0.09801,0.0665 0.2526,0.0634 0.34526,-0.00694c0.03948,-0.02997 0.06136,-0.06731 0.06587,-0.10544c0.27169,0.13451 0.53265,0.28568 0.78008,0.45355c0.207,0.14043 0.39824,0.28829 0.5737,0.44241c-0.16699,-0.02422 -0.34709,0.01203 -0.47275,0.10741c-0.16587,0.1259 -0.18311,0.314 -0.05605,0.45277c-0.18102,-0.04137 -0.38714,-0.00829 -0.52641,0.09741c-0.19376,0.14707 -0.1847,0.37899 0.02024,0.51804c0.20495,0.13904 0.52816,0.13253 0.72192,-0.01453c0.16587,-0.1259 0.1831,-0.314 0.05605,-0.45277c0.18102,0.04137 0.38716,0.00828 0.52641,-0.09742c0.07989,-0.06064 0.12531,-0.13572 0.13671,-0.21276c0.24015,0.26384 0.4392,0.54147 0.59698,0.8281c-0.09815,-0.05517 -0.24051,-0.04861 -0.32788,0.0177c-0.09266,0.07033 -0.08834,0.18127 0.00967,0.24776c0.09801,0.0665 0.25259,0.06339 0.34526,-0.00694c0.03289,-0.02496 0.05358,-0.05505 0.06217,-0.08644c0.76336,1.56647 0.04643,3.89893 -1.63813,5.17748zM236.5765,183.6093c-0.19376,0.14707 -0.1847,0.37899 0.02024,0.51804c0.20495,0.13904 0.52816,0.13253 0.72192,-0.01453c0.19376,-0.14707 0.18468,-0.37899 -0.02026,-0.51804c-0.20495,-0.13904 -0.52816,-0.13253 -0.72192,0.01453zM239.33091,183.84281c-0.19376,0.14707 -0.1847,0.37899 0.02024,0.51804c0.20495,0.13904 0.52816,0.13253 0.72194,-0.01453c0.19376,-0.14707 0.18468,-0.37899 -0.02026,-0.51804c-0.20495,-0.13904 -0.52816,-0.13254 -0.72192,0.01453zM237.84673,181.45616c-0.19376,0.14707 -0.1847,0.37899 0.02024,0.51804c0.20495,0.13904 0.52816,0.13253 0.72192,-0.01453c0.19376,-0.14707 0.1847,-0.37899 -0.02024,-0.51804c-0.20495,-0.13904 -0.52816,-0.13253 -0.72192,0.01453zM239.71958,179.69737c-0.19376,0.14707 -1.189,0.47866 -0.98406,0.61771c0.20495,0.13904 0.52816,0.13253 0.72192,-0.01453c0.19376,-0.14707 1.189,-0.47866 0.98406,-0.6177c-0.20495,-0.13904 -0.52816,-0.13254 -0.72192,0.01453zM233.6892,179.03131c-0.19376,0.14707 -0.1847,0.37899 0.02024,0.51804c0.20495,0.13904 0.52816,0.13254 0.72192,-0.01453c0.19376,-0.14707 0.1847,-0.37899 -0.02024,-0.51804c-0.20495,-0.13904 -0.52816,-0.13253 -0.72192,0.01453zM232.35028,180.83124c-0.19376,0.14707 -0.1847,0.37899 0.02024,0.51804c0.20495,0.13904 0.52816,0.13253 0.72192,-0.01453c0.19376,-0.14707 0.18468,-0.37899 -0.02026,-0.51804c-0.20495,-0.13904 -0.52816,-0.13254 -0.72192,0.01453zM238.02354,176.56633c-0.19376,0.14707 -0.1847,0.37899 0.02024,0.51804c0.20495,0.13904 0.52816,0.13254 0.72192,-0.01453c0.19376,-0.14707 0.1847,-0.37899 -0.02024,-0.51804c-0.20495,-0.13904 -0.52816,-0.13254 -0.72192,0.01453zM242.94927,180.7888c0.07159,0.00437 0.14518,-0.01384 0.19838,-0.05422c0.09266,-0.07033 0.08833,-0.18127 -0.00968,-0.24776c-0.09801,-0.0665 -0.25259,-0.06339 -0.34526,0.00694c-0.06813,0.05171 -0.08383,0.12535 -0.04843,0.18715c-0.07159,-0.00437 -0.14518,0.01384 -0.19838,0.05422c-0.09266,0.07033 -0.08833,0.18127 0.00968,0.24776c0.09801,0.0665 0.2526,0.06339 0.34526,-0.00694c0.06813,-0.05171 0.08381,-0.12535 0.04841,-0.18715zM232.34734,178.4681c0.02822,-0.00912 0.05448,-0.02227 0.07706,-0.03941c0.09266,-0.07033 0.08833,-0.18126 -0.00968,-0.24775c-0.09801,-0.0665 -0.2526,-0.06339 -0.34526,0.00694c-0.08828,0.067 -0.08853,0.17084 -0.00361,0.23802c-0.02822,0.00912 -0.05447,0.02226 -0.07705,0.0394c-0.09266,0.07033 -0.08834,0.18127 0.00967,0.24776c0.09801,0.0665 0.2526,0.06339 0.34526,-0.00694c0.08828,-0.067 0.08853,-0.17084 0.00361,-0.23801zM231.47808,179.44744c-0.09266,0.07033 -0.08834,0.18127 0.00967,0.24776c0.09801,0.0665 0.25259,0.06339 0.34526,-0.00694c0.09266,-0.07033 0.08834,-0.18127 -0.00967,-0.24776c-0.09801,-0.0665 -0.25259,-0.06339 -0.34526,0.00695zM239.43574,176.50244c-0.09266,0.07033 -0.08834,0.18127 0.00967,0.24776c0.09801,0.0665 0.25259,0.06339 0.34526,-0.00694c0.09266,-0.07033 0.08834,-0.18126 -0.00967,-0.24775c-0.09801,-0.0665 -0.25259,-0.0634 -0.34526,0.00694zM233.09387,181.92338c-0.09266,0.07033 -0.08834,0.18127 0.00967,0.24776c0.09801,0.0665 0.2526,0.06339 0.34526,-0.00695c0.09266,-0.07033 0.08834,-0.18127 -0.00967,-0.24776c-0.09801,-0.0665 -0.2526,-0.06339 -0.34526,0.00695zM243.04908,181.43421c-0.09266,0.07033 -0.08834,0.18127 0.00967,0.24776c0.09801,0.0665 0.2526,0.06339 0.34526,-0.00694c0.09266,-0.07033 0.08834,-0.18127 -0.00967,-0.24776c-0.09801,-0.0665 -0.2526,-0.06339 -0.34526,0.00694zM241.10614,180.42264c-0.09266,0.07033 -0.08833,0.18127 0.00968,0.24776c0.09801,0.0665 0.2526,0.06339 0.34526,-0.00695c0.09266,-0.07033 0.08833,-0.18127 -0.00968,-0.24776c-0.09801,-0.0665 -0.2526,-0.06339 -0.34526,0.00694zM238.01161,183.66313c-0.09266,0.07033 -0.08834,0.18127 0.00967,0.24776c0.09801,0.0665 0.2526,0.06339 0.34527,-0.00694c0.09266,-0.07033 0.08833,-0.18127 -0.00968,-0.24776c-0.09801,-0.0665 -0.2526,-0.06339 -0.34526,0.00694zM240.58462,177.33298c-0.09266,0.07033 -0.08834,0.18127 0.00967,0.24776c0.09801,0.0665 0.25259,0.0634 0.34526,-0.00694c0.09266,-0.07033 0.08833,-0.18127 -0.00968,-0.24776c-0.09801,-0.0665 -0.25259,-0.06339 -0.34526,0.00694zM242.77836,180.08627c-0.09266,0.07033 -1.09262,0.28093 -0.99461,0.34742c0.09801,0.0665 0.2526,0.06339 0.34526,-0.00694c0.09266,-0.07033 1.09263,-0.28093 0.99462,-0.34742c-0.09801,-0.0665 -0.2526,-0.06339 -0.34527,0.00694zM240.8884,180.93921c-0.09266,0.07033 -0.08833,0.18127 0.00968,0.24776c0.09801,0.0665 0.25259,0.06339 0.34526,-0.00695c0.09266,-0.07033 0.08833,-0.18127 -0.00968,-0.24776c-0.09801,-0.0665 -0.2526,-0.06339 -0.34526,0.00695zM240.37226,182.24978c-0.09266,0.07033 -0.08834,0.18127 0.00967,0.24776c0.09801,0.0665 0.25259,0.06339 0.34526,-0.00694c0.09266,-0.07033 0.08834,-0.18127 -0.00967,-0.24776c-0.09801,-0.0665 -0.25259,-0.06339 -0.34526,0.00694zM238.04692,177.9619c-0.09266,0.07033 -0.08833,0.18126 0.00968,0.24775c0.09801,0.0665 0.2526,0.0634 0.34526,-0.00694c0.09266,-0.07033 0.08834,-0.18127 -0.00967,-0.24776c-0.09801,-0.0665 -0.2526,-0.06339 -0.34527,0.00694zM240.33294,181.71211c-0.09266,0.07033 -0.08833,0.18127 0.00968,0.24776c0.09801,0.0665 0.25259,0.06339 0.34526,-0.00695c0.09266,-0.07033 0.08833,-0.18127 -0.00968,-0.24776c-0.09801,-0.0665 -0.2526,-0.06339 -0.34526,0.00695zM240.35378,183.18262c-0.09266,0.07033 -0.08833,0.18127 0.00968,0.24776c0.09801,0.0665 0.2526,0.0634 0.34526,-0.00694c0.09266,-0.07033 0.08834,-0.18127 -0.00967,-0.24776c-0.09801,-0.0665 -0.2526,-0.0634 -0.34527,0.00694zM241.25414,183.74236c-0.09266,0.07033 -0.08833,0.18127 0.00968,0.24776c0.09801,0.0665 0.2526,0.06339 0.34526,-0.00694c0.09266,-0.07033 0.08834,-0.18126 -0.00967,-0.24775c-0.09801,-0.0665 -0.2526,-0.0634 -0.34527,0.00694zM234.47725,176.57658c-0.09266,0.07033 -0.08834,0.18127 0.00967,0.24776c0.09801,0.0665 0.25259,0.06339 0.34526,-0.00694c0.09266,-0.07033 0.08834,-0.18127 -0.00967,-0.24776c-0.09801,-0.0665 -0.25259,-0.06339 -0.34526,0.00694zM233.53587,177.77751c-0.09266,0.07033 -0.08834,0.18127 0.00967,0.24776c0.09801,0.0665 0.25259,0.06339 0.34526,-0.00694c0.09266,-0.07033 0.08834,-0.18127 -0.00967,-0.24776c-0.09801,-0.0665 -0.25259,-0.06339 -0.34526,0.00694zM241.06727,178.91239c-0.09266,0.07033 0.64207,0.61315 0.74008,0.67964c0.09801,0.0665 0.2526,0.06339 0.34526,-0.00695c0.09266,-0.07033 -0.64206,-0.61314 -0.74007,-0.67963c-0.09801,-0.0665 -0.2526,-0.06339 -0.34527,0.00694zM241.51223,182.38445c-0.09266,0.07033 -0.08833,0.18127 0.00968,0.24776c0.09801,0.0665 0.25259,0.06339 0.34526,-0.00695c0.09266,-0.07033 0.08833,-0.18126 -0.00968,-0.24775c-0.09801,-0.0665 -0.25259,-0.06339 -0.34526,0.00694zM235.82472,177.33747c-0.09266,0.07033 -0.08833,0.18127 0.00968,0.24776c0.09801,0.0665 1.2569,-0.03627 1.34955,-0.10661c0.09266,-0.07033 0.08834,-0.18127 -0.00967,-0.24776c-0.09801,-0.0665 -1.2569,0.03628 -1.34956,0.10661zM239.55301,177.62954c-0.09266,0.07033 -0.08834,0.18126 0.00967,0.24775c0.09801,0.0665 0.25259,0.06339 0.34526,-0.00695c0.09266,-0.07033 0.08834,-0.18126 -0.00967,-0.24775c-0.09801,-0.0665 -0.25259,-0.06339 -0.34526,0.00695zM238.50622,184.61191c-0.09266,0.07033 -0.08833,0.18127 0.00968,0.24776c0.09801,0.0665 0.2526,0.06339 0.34526,-0.00695c0.09266,-0.07033 0.08834,-0.18127 -0.00967,-0.24776c-0.09801,-0.0665 -0.2526,-0.0634 -0.34527,0.00694zM237.15501,184.69163c-0.09266,0.07033 -0.08833,0.18127 0.00968,0.24776c0.09801,0.0665 0.25259,0.0634 0.34526,-0.00694c0.09266,-0.07033 0.08833,-0.18127 -0.00968,-0.24776c-0.09801,-0.0665 -0.25259,-0.0634 -0.34526,0.00694zM232.42836,178.94239c-0.09266,0.07033 -0.08834,0.18127 0.00967,0.24776c0.09801,0.0665 0.25259,0.06339 0.34526,-0.00695c0.09266,-0.07033 0.08834,-0.18127 -0.00967,-0.24776c-0.09801,-0.0665 -0.25259,-0.06339 -0.34526,0.00694zM243.29794,179.80002c-0.09266,0.07033 -0.08833,0.18127 0.00968,0.24776c0.09801,0.0665 0.25259,0.06339 0.34526,-0.00694c0.09266,-0.07033 0.08833,-0.18126 -0.00968,-0.24775c-0.09801,-0.0665 -0.2526,-0.0634 -0.34526,0.00694zM239.79911,178.30751c-0.09266,0.07033 -0.08833,0.18127 0.00968,0.24776c0.09801,0.0665 0.2526,0.06339 0.34526,-0.00694c0.09266,-0.07033 0.08833,-0.18127 -0.00968,-0.24776c-0.09801,-0.0665 -0.25259,-0.06339 -0.34526,0.00694zM233.3212,179.77808c-0.09266,0.07033 -0.08834,0.18127 0.00967,0.24776c0.09801,0.0665 0.2526,0.06339 0.34527,-0.00695c0.09266,-0.07033 0.08833,-0.18126 -0.00968,-0.24775c-0.09801,-0.0665 -0.2526,-0.0634 -0.34526,0.00694zM241.17555,179.81645c-0.09266,0.07033 -0.08834,0.18127 0.00967,0.24776c0.09801,0.0665 0.25259,0.06339 0.34526,-0.00694c0.09266,-0.07033 0.08834,-0.18127 -0.00967,-0.24776c-0.09801,-0.0665 -0.25259,-0.06339 -0.34526,0.00694zM234.24447,183.26609c-0.09266,0.07033 -0.08833,0.18126 0.00968,0.24775c0.09801,0.0665 0.25259,0.0634 0.34526,-0.00694c0.09266,-0.07033 0.08833,-0.18127 -0.00968,-0.24776c-0.09801,-0.0665 -0.25259,-0.06339 -0.34526,0.00694zM242.00206,181.33707c-0.09266,0.07033 -0.08833,0.18127 0.00968,0.24776c0.09801,0.0665 0.25259,0.0634 0.34526,-0.00694c0.09266,-0.07033 0.08833,-0.18127 -0.00968,-0.24776c-0.09801,-0.0665 -0.25259,-0.0634 -0.34526,0.00694zM233.8124,182.51305c-0.09266,0.07033 -0.08834,0.18127 0.00967,0.24776c0.09801,0.0665 0.2526,0.06339 0.34527,-0.00695c0.09266,-0.07033 0.08833,-0.18127 -0.00968,-0.24776c-0.09801,-0.0665 -0.2526,-0.06339 -0.34526,0.00695zM231.87459,180.22745c-0.09266,0.07033 -0.08834,0.18127 0.00967,0.24776c0.09801,0.0665 0.2526,0.0634 0.34527,-0.00694c0.09266,-0.07033 0.08833,-0.18127 -0.00968,-0.24776c-0.09801,-0.0665 -0.2526,-0.0634 -0.34526,0.00694zM232.8423,182.97909c-0.09266,0.07033 -0.08834,0.18127 0.00967,0.24776c0.09801,0.0665 0.25259,0.06339 0.34526,-0.00694c0.09266,-0.07033 0.08834,-0.18126 -0.00967,-0.24775c-0.09801,-0.0665 -0.25259,-0.0634 -0.34526,0.00694zM241.9943,178.74927c-0.09266,0.07033 -0.08833,0.18127 0.00968,0.24776c0.09801,0.0665 0.2526,0.06339 0.34526,-0.00695c0.09266,-0.07033 0.08834,-0.18127 -0.00967,-0.24776c-0.09801,-0.0665 -0.2526,-0.06339 -0.34527,0.00694zM242.82288,178.87707c-0.09266,0.07033 -0.08833,0.18127 0.00968,0.24776c0.09801,0.0665 0.25259,0.06339 0.34526,-0.00694c0.09266,-0.07033 0.08833,-0.18127 -0.00968,-0.24776c-0.09801,-0.0665 -0.25259,-0.06339 -0.34526,0.00694zM235.52799,184.26465c-0.09266,0.07033 -0.08834,0.18127 0.00967,0.24776c0.09801,0.0665 0.983,0.49527 1.07566,0.42493c0.09266,-0.07033 0.08833,-0.18126 -0.00968,-0.24775c-0.09801,-0.0665 -0.983,-0.49528 -1.07565,-0.42494zM235.31915,182.66659c-0.09266,0.07033 -0.08834,0.18127 0.00967,0.24776c0.09801,0.0665 0.98299,0.49527 1.07565,0.42494c0.09266,-0.07033 0.08834,-0.18126 -0.00967,-0.24775c-0.09801,-0.0665 -0.98299,-0.49528 -1.07565,-0.42494zM241.43166,181.91213c0.13364,0 0.24198,-0.04644 0.24198,-0.10372c0,-0.05728 -0.10834,-0.10371 -0.24198,-0.10371c-0.13364,0 -0.24199,0.04644 -0.24199,0.10371c0,0.05728 0.10834,0.10372 0.24199,0.10372zM242.58756,182.18049c0.13364,0 0.24198,-0.04644 0.24198,-0.10371c0,-0.05728 -0.10834,-0.10372 -0.24198,-0.10372c-0.13364,0 -0.24199,0.04644 -0.24199,0.10372c0,0.05728 0.10834,0.10371 0.24199,0.10371zM231.74312,181.97568c0.13364,0 0.24198,-0.04644 0.24198,-0.10372c0,-0.05728 -0.10834,-0.10371 -0.24198,-0.10371c-0.13364,0 -0.24199,0.04644 -0.24199,0.10371c0,0.05728 0.10834,0.10372 0.24199,0.10372zM231.0207,180.92289c0.13364,0 0.24199,-0.04644 0.24199,-0.10371c0,-0.05728 -0.10834,-0.10372 -0.24199,-0.10372c-0.13364,0 -0.24198,0.04644 -0.24198,0.10372c0,0.05728 0.10834,0.10371 0.24198,0.10371zM238.583,179.93394c0.13364,0 0.24199,-0.04644 0.24199,-0.10372c0,-0.05728 -0.10834,-0.10371 -0.24199,-0.10371c-0.13364,0 -0.24199,0.04644 -0.24199,0.10371c0,0.05728 0.10834,0.10372 0.24199,0.10372zM238.3493,182.903c0.13364,0 0.24198,-0.04644 0.24198,-0.10372c0,-0.05728 -0.10834,-0.10371 -0.24198,-0.10371c-0.13364,0 -0.24199,0.04644 -0.24199,0.10371c0,0.05728 0.10834,0.10372 0.24199,0.10372zM237.4673,179.04791c0.13364,0 0.24198,-0.04644 0.24198,-0.10372c0,-0.05728 -0.10834,-0.10372 -0.24198,-0.10372c-0.13364,0 -0.24199,0.04644 -0.24199,0.10372c0,0.05728 0.10834,0.10372 0.24199,0.10372zM239.50518,181.0864c0.13364,0 0.24198,-0.04644 0.24198,-0.10371c0,-0.05728 -0.10834,-0.10372 -0.24198,-0.10372c-0.13364,0 -0.24199,0.04644 -0.24199,0.10372c0,0.05728 0.10834,0.10371 0.24199,0.10371zM236.8081,182.69657c0.13364,0 0.24199,-0.04644 0.24199,-0.10372c0,-0.05728 -0.10834,-0.10371 -0.24199,-0.10371c-0.13364,0 -0.24198,0.04644 -0.24198,0.10371c0,0.05728 0.10834,0.10372 0.24198,0.10372zM234.39203,181.14996c0.13364,0 0.24199,-0.04644 0.24199,-0.10372c0,-0.05728 -0.10835,-0.10372 -0.24199,-0.10372c-0.13364,0 -0.24199,0.04644 -0.24199,0.10372c0,0.05728 0.10834,0.10372 0.24199,0.10372zM234.82549,179.99395c0.13364,0 0.24198,-0.04644 0.24198,-0.10371c0,-0.05728 -0.10834,-0.10372 -0.24198,-0.10372c-0.13364,0 -0.24199,0.04644 -0.24199,0.10372c0,0.05728 0.10834,0.10371 0.24199,0.10371zM237.04892,180.40519c0.13364,0 0.24198,-0.04644 0.24198,-0.10372c0,-0.05728 0.89596,-0.20338 0.76231,-0.20338c-0.13364,0 -1.24629,0.1461 -1.24629,0.20338c0,0.05728 0.10834,0.10372 0.24199,0.10372zM235.30712,179.45723c0.13364,0 0.24199,-0.04644 0.24199,-0.10371c0,-0.05728 -0.10834,-0.10372 -0.24199,-0.10372c-0.13364,0 -0.24198,0.04644 -0.24198,0.10372c0,0.05728 0.10834,0.10371 0.24198,0.10371zM236.37465,181.47863c0.13364,0 0.24198,-0.04644 0.24198,-0.10372c0,-0.05728 -0.10834,-0.10372 -0.24198,-0.10372c-0.13364,0 -0.97239,-0.38545 -0.97239,-0.32816c0,0.05728 0.83874,0.5356 0.97239,0.5356zM241.91328,183.27458c0.13364,0 0.24199,-0.04644 0.24199,-0.10371c0,-0.05728 -0.10834,-0.10372 -0.24199,-0.10372c-0.13364,0 -0.24198,0.04644 -0.24198,0.10372c0,0.05728 0.10834,0.10371 0.24198,0.10371zM232.22475,182.88398c0.13364,0 0.24199,-0.04644 0.24199,-0.10372c0,-0.05728 -0.10834,-0.10372 -0.24199,-0.10372c-0.13364,0 -0.24198,0.04644 -0.24198,0.10372c0,0.05728 0.10834,0.10372 0.24198,0.10372zM234.92183,178.487c0.13364,0 0.24199,-0.04644 0.24199,-0.10371c0,-0.05728 -0.10834,-0.10372 -0.24199,-0.10372c-0.13364,0 -0.24199,0.04644 -0.24199,0.10372c0,0.05728 0.10835,0.10371 0.24199,0.10371zM239.31254,182.42821c0.13364,0 0.24199,-0.04644 0.24199,-0.10372c0,-0.05728 -0.10834,-0.10371 -0.24199,-0.10371c-0.13364,0 -0.24199,0.04644 -0.24199,0.10371c0,0.05728 0.10835,0.10372 0.24199,0.10372zM237.37098,177.93319c0.13364,0 0.24198,-0.04644 0.24198,-0.10372c0,-0.05728 -0.10834,-0.10371 -0.24198,-0.10371c-0.13364,0 -1.24629,0.1461 -1.24629,0.20338c0,0.05728 1.11263,0.00406 1.24629,0.00406zM233.91042,180.67517c0.13364,0 0.24199,-0.04644 0.24199,-0.10372c0,-0.05728 -0.10834,-0.10372 -0.24199,-0.10372c-0.13364,0 -0.24198,0.04644 -0.24198,0.10372c0,0.05728 0.10834,0.10372 0.24198,0.10372zM235.69242,178.89987c0.13364,0 0.24198,-0.04644 0.24198,-0.10372c0,-0.05728 -0.10834,-0.10372 -0.24198,-0.10372c-0.13364,0 -0.24199,0.04644 -0.24199,0.10372c0,0.05728 0.10834,0.10372 0.24199,0.10372zM234.72918,181.72796c0.13364,0 0.24198,-0.04644 0.24198,-0.10372c0,-0.05728 -0.10834,-0.10372 -0.24198,-0.10372c-0.13364,0 -0.24199,0.04644 -0.24199,0.10372c0,0.05728 0.10834,0.10372 0.24199,0.10372zM238.39745,180.77676c0.13364,0 0.24199,-0.04644 0.24199,-0.10372c0,-0.05728 -0.10834,-0.10372 -0.24199,-0.10372c-0.13364,0 -0.24198,0.04644 -0.24198,0.10372c0,0.05728 0.10834,0.10372 0.24198,0.10372zM235.49976,180.36552c0.13364,0 0.97238,0.38545 0.97238,0.32817c0,-0.05728 -0.83873,-0.5356 -0.97238,-0.5356c-0.13364,0 -0.24199,0.04644 -0.24199,0.10372c0,0.05728 0.10834,0.10371 0.24199,0.10371zM237.38604,181.0864c0.13364,0 0.24198,-0.04644 0.24198,-0.10371c0,-0.05728 -0.10834,-0.10372 -0.24198,-0.10372c-0.13364,0 -0.24199,0.04644 -0.24199,0.10372c0,0.05728 0.10834,0.10371 0.24199,0.10371zM231.40599,181.43896c0.13364,0 0.24199,-0.04644 0.24199,-0.10371c0,-0.05728 -0.10835,-0.10372 -0.24199,-0.10372c-0.13364,0 -0.24199,0.04644 -0.24199,0.10372c0,0.05728 0.10834,0.10371 0.24199,0.10371zM234.92183,180.67517c0.13364,0 0.24199,-0.04644 0.24199,-0.10372c0,-0.05728 -0.10834,-0.10372 -0.24199,-0.10372c-0.13364,0 -0.24199,0.04644 -0.24199,0.10372c0,0.05728 0.10835,0.10372 0.24199,0.10372zM239.45702,183.31586c0.13364,0 0.24198,-0.04644 0.24198,-0.10372c0,-0.05728 -0.10834,-0.10372 -0.24198,-0.10372c-0.13364,0 -0.24199,0.04644 -0.24199,0.10372c0,0.05728 0.10834,0.10372 0.24199,0.10372z" data-paper-data="{&quot;index&quot;:null}" fill="url(#color-1)"/><path d="M246.62356,180.54903c-0.95096,2.44176 -5.4073,3.74974 -8.81445,3.08444c-3.40713,-0.6653 -5.39825,-3.18407 -4.4473,-5.62583c0.00828,-0.02124 0.01673,-0.04241 0.0254,-0.06351c0.06456,0.07565 0.16753,0.13427 0.29598,0.15936c0.27062,0.05284 0.55188,-0.06323 0.62822,-0.25925c0.07634,-0.19602 -0.08114,-0.39777 -0.35176,-0.45062c-0.10125,-0.01977 -0.204,-0.01589 -0.29694,0.00697c0.46782,-0.76936 1.20758,-1.41179 2.11259,-1.88382c-0.02166,0.08809 0.05215,0.1746 0.17368,0.19833c0.12942,0.02528 1.08669,-0.46107 1.12319,-0.55482c0.03651,-0.09374 -0.03882,-0.19024 -0.16823,-0.21551c-0.00472,-0.00092 -0.00944,-0.00173 -0.01416,-0.00244c1.10335,-0.512 2.41951,-0.78224 3.7753,-0.74014c-0.01282,0.01446 -0.02293,0.0305 -0.02969,0.04785c-0.03651,0.09374 0.03881,0.19023 0.16823,0.2155c0.12942,0.02528 0.26395,-0.03024 0.30045,-0.12398c0.01555,-0.03995 0.01081,-0.08039 -0.00979,-0.11561c0.32664,0.02605 0.65455,0.07048 0.98127,0.13429c0.27333,0.05337 0.53752,0.11867 0.79182,0.1949c-0.16309,0.03561 -0.29878,0.12911 -0.34829,0.25623c-0.06535,0.16781 0.04066,0.33982 0.24231,0.41901c-0.18654,0.02525 -0.34725,0.12483 -0.40213,0.26572c-0.07634,0.19602 0.08114,0.39777 0.35175,0.45061c0.27062,0.05284 0.55187,-0.06323 0.62822,-0.25925c0.06535,-0.16781 -0.04067,-0.33982 -0.24231,-0.419c0.18654,-0.02525 0.34727,-0.12484 0.40212,-0.26573c0.03148,-0.08083 0.0232,-0.16264 -0.01638,-0.23457c0.38214,0.15104 0.73688,0.32829 1.06095,0.52758c-0.12224,-0.01522 -0.24374,0.03917 -0.27816,0.12755c-0.03651,0.09374 0.03881,0.19024 0.16823,0.21551c0.12942,0.02528 0.26394,-0.03024 0.30045,-0.12398c0.01296,-0.03327 0.01184,-0.0669 -0.00081,-0.09756c1.68378,1.1229 2.5539,3.42758 1.89018,5.13179zM241.44741,182.36283c-0.07634,0.19602 0.08114,0.39777 0.35175,0.45061c0.27062,0.05284 0.55187,-0.06323 0.62822,-0.25925c0.07634,-0.19602 -0.08116,-0.39776 -0.35177,-0.4506c-0.27062,-0.05284 -0.55187,0.06323 -0.62822,0.25925zM244.03054,181.62885c-0.07634,0.19602 0.08114,0.39777 0.35175,0.45061c0.27062,0.05284 0.55187,-0.06323 0.62823,-0.25926c0.07634,-0.19602 -0.08116,-0.39776 -0.35177,-0.4506c-0.27062,-0.05284 -0.55188,0.06323 -0.62822,0.25925zM241.18152,180.02764c-0.07634,0.19602 0.08114,0.39777 0.35176,0.45062c0.27062,0.05284 0.55187,-0.06323 0.62822,-0.25925c0.07634,-0.19602 -0.08114,-0.39777 -0.35176,-0.45062c-0.27062,-0.05284 -0.55187,0.06323 -0.62822,0.25925zM241.70203,177.83502c-0.07634,0.19602 -0.74159,0.8286 -0.47098,0.88145c0.27062,0.05284 0.55187,-0.06323 0.62821,-0.25926c0.07634,-0.19602 0.74159,-0.8286 0.47098,-0.88144c-0.27062,-0.05284 -0.55188,0.06323 -0.62822,0.25925zM235.94686,179.30523c-0.07634,0.19602 0.08114,0.39777 0.35175,0.45061c0.27062,0.05284 0.55188,-0.06323 0.62822,-0.25925c0.07634,-0.19602 -0.08114,-0.39777 -0.35175,-0.45061c-0.27062,-0.05284 -0.55187,0.06323 -0.62822,0.25925zM235.92443,181.35192c-0.07634,0.19602 0.08114,0.39777 0.35175,0.45061c0.27062,0.05284 0.55187,-0.06323 0.62822,-0.25925c0.07634,-0.19602 -0.08116,-0.39776 -0.35177,-0.4506c-0.27062,-0.05284 -0.55188,0.06323 -0.62822,0.25925zM238.18614,175.64871c-0.07634,0.19602 0.08114,0.39777 0.35176,0.45062c0.27062,0.05284 0.55188,-0.06323 0.62822,-0.25925c0.07634,-0.19602 -0.08114,-0.39777 -0.35176,-0.45062c-0.27062,-0.05284 -0.55188,0.06323 -0.62822,0.25925zM245.25784,177.6965c0.06605,-0.02057 0.1193,-0.06178 0.14026,-0.1156c0.03651,-0.09374 -0.03882,-0.19024 -0.16823,-0.21551c-0.12942,-0.02528 -0.26394,0.03024 -0.30045,0.12398c-0.02684,0.06893 0.00675,0.13932 0.07784,0.18181c-0.06605,0.02057 -0.1193,0.06178 -0.14026,0.1156c-0.03651,0.09374 0.03882,0.19024 0.16823,0.21551c0.12942,0.02528 0.26395,-0.03024 0.30045,-0.12398c0.02684,-0.06893 -0.00677,-0.13931 -0.07786,-0.18181zM234.39877,179.26587c0.01905,-0.01769 0.03376,-0.03826 0.04265,-0.06111c0.03651,-0.09374 -0.03881,-0.19023 -0.16823,-0.2155c-0.12942,-0.02528 -0.26395,0.03024 -0.30045,0.12398c-0.03478,0.08931 0.03192,0.1811 0.15021,0.21145c-0.01905,0.01769 -0.03376,0.03825 -0.04265,0.0611c-0.03651,0.09374 0.03881,0.19024 0.16823,0.21551c0.12942,0.02528 0.26395,-0.03024 0.30045,-0.12398c0.03478,-0.08931 -0.03192,-0.1811 -0.15021,-0.21144zM234.26225,180.42752c-0.03651,0.09374 0.03881,0.19024 0.16823,0.21551c0.12942,0.02528 0.26394,-0.03024 0.30045,-0.12398c0.03651,-0.09374 -0.03881,-0.19024 -0.16823,-0.21551c-0.12942,-0.02528 -0.26394,0.03024 -0.30044,0.12399zM239.39218,175.11023c-0.03651,0.09374 0.03881,0.19024 0.16823,0.21551c0.12942,0.02528 0.26394,-0.03024 0.30045,-0.12398c0.03651,-0.09374 -0.0388,-0.19024 -0.16822,-0.21551c-0.12942,-0.02528 -0.26394,0.03023 -0.30045,0.12398zM237.28505,182.06265c-0.03651,0.09374 0.03881,0.19024 0.16823,0.21551c0.12942,0.02528 0.26395,-0.03024 0.30044,-0.12399c0.03651,-0.09374 -0.03881,-0.19024 -0.16823,-0.21551c-0.12942,-0.02528 -0.26395,0.03024 -0.30044,0.12399zM245.76196,178.23244c-0.03651,0.09374 0.03881,0.19024 0.16823,0.21551c0.12942,0.02528 0.26395,-0.03024 0.30045,-0.12398c0.03651,-0.09374 -0.03881,-0.19024 -0.16823,-0.21551c-0.12942,-0.02528 -0.26395,0.03024 -0.30045,0.12398zM243.39404,178.00227c-0.03651,0.09374 0.03882,0.19024 0.16823,0.21551c0.12942,0.02528 0.26395,-0.03024 0.30044,-0.12399c0.03651,-0.09374 -0.03882,-0.19024 -0.16823,-0.21551c-0.12942,-0.02528 -0.26395,0.03024 -0.30045,0.12398zM242.74955,181.9205c-0.03651,0.09374 0.03881,0.19024 0.16823,0.21551c0.12942,0.02528 0.26395,-0.03024 0.30046,-0.12399c0.03651,-0.09374 -0.03882,-0.19024 -0.16823,-0.21551c-0.12942,-0.02528 -0.26395,0.03024 -0.30045,0.12398zM240.94213,175.45157c-0.03651,0.09374 0.03881,0.19024 0.16823,0.21551c0.12942,0.02528 0.26394,-0.03023 0.30045,-0.12398c0.03651,-0.09374 -0.03882,-0.19024 -0.16823,-0.21551c-0.12942,-0.02528 -0.26394,0.03024 -0.30045,0.12398zM244.65411,177.13439c-0.03651,0.09374 -0.78392,0.62107 -0.6545,0.64634c0.12942,0.02528 0.26395,-0.03024 0.30045,-0.12398c0.03651,-0.09374 0.78393,-0.62108 0.65451,-0.64635c-0.12942,-0.02528 -0.26395,0.03024 -0.30046,0.12399zM243.53468,178.53282c-0.03651,0.09374 0.03882,0.19024 0.16823,0.21551c0.12942,0.02528 0.26394,-0.03024 0.30044,-0.12399c0.03651,-0.09374 -0.03882,-0.19024 -0.16823,-0.21551c-0.12942,-0.02528 -0.26395,0.03024 -0.30044,0.12399zM243.92351,179.86646c-0.03651,0.09374 0.03881,0.19024 0.16823,0.21551c0.12942,0.02528 0.26394,-0.03024 0.30045,-0.12398c0.03651,-0.09374 -0.03881,-0.19024 -0.16823,-0.21551c-0.12942,-0.02528 -0.26394,0.03024 -0.30045,0.12398zM239.10624,176.87326c-0.03651,0.09374 0.03881,0.19023 0.16823,0.2155c0.12942,0.02528 0.26395,-0.03024 0.30045,-0.12398c0.03651,-0.09374 -0.03881,-0.19024 -0.16823,-0.21551c-0.12942,-0.02528 -0.26395,0.03024 -0.30046,0.12399zM243.54225,179.40503c-0.03651,0.09374 0.03882,0.19024 0.16823,0.21551c0.12942,0.02528 0.26394,-0.03024 0.30044,-0.12399c0.03651,-0.09374 -0.03882,-0.19024 -0.16823,-0.21551c-0.12942,-0.02528 -0.26395,0.03024 -0.30044,0.12399zM244.50841,180.69663c-0.03651,0.09374 0.03882,0.19024 0.16823,0.21551c0.12942,0.02528 0.26395,-0.03024 0.30045,-0.12398c0.03651,-0.09374 -0.03881,-0.19024 -0.16823,-0.21551c-0.12942,-0.02528 -0.26395,0.03024 -0.30046,0.12399zM245.66434,180.88365c-0.03651,0.09374 0.03882,0.19024 0.16823,0.21551c0.12942,0.02528 0.26395,-0.03024 0.30045,-0.12398c0.03651,-0.09374 -0.0388,-0.19024 -0.16822,-0.21551c-0.12942,-0.02528 -0.26395,0.03024 -0.30046,0.12399zM235.06075,176.86828c-0.03651,0.09374 0.03881,0.19024 0.16823,0.21551c0.12942,0.02528 0.26394,-0.03024 0.30045,-0.12398c0.03651,-0.09374 -0.03881,-0.19024 -0.16823,-0.21551c-0.12942,-0.02528 -0.26394,0.03024 -0.30045,0.12398zM235.00336,178.25025c-0.03651,0.09374 0.03881,0.19024 0.16823,0.21551c0.12942,0.02528 0.26394,-0.03024 0.30045,-0.12398c0.03651,-0.09374 -0.03881,-0.19024 -0.16823,-0.21551c-0.12942,-0.02528 -0.26394,0.03024 -0.30045,0.12398zM242.38635,176.68172c-0.03651,0.09374 0.96224,0.32235 1.09166,0.34762c0.12942,0.02528 0.26395,-0.03024 0.30044,-0.12399c0.03651,-0.09374 -0.96223,-0.32235 -1.09164,-0.34762c-0.12942,-0.02528 -0.26395,0.03024 -0.30046,0.12399zM245.0171,179.59627c-0.03651,0.09374 0.03882,0.19024 0.16823,0.21551c0.12942,0.02528 0.26394,-0.03024 0.30044,-0.12399c0.03651,-0.09374 -0.03881,-0.19023 -0.16823,-0.2155c-0.12942,-0.02528 -0.26394,0.03024 -0.30045,0.12398zM236.7412,177.08033c-0.03651,0.09374 0.03882,0.19024 0.16823,0.21551c0.12942,0.02528 1.08669,-0.46107 1.12318,-0.55482c0.03651,-0.09374 -0.03881,-0.19024 -0.16823,-0.21551c-0.12942,-0.02528 -1.08668,0.46108 -1.12318,0.55483zM240.22217,176.06563c-0.03651,0.09374 0.0388,0.19024 0.16822,0.21551c0.12942,0.02528 0.26394,-0.03024 0.30044,-0.12399c0.03651,-0.09374 -0.0388,-0.19024 -0.16822,-0.21551c-0.12942,-0.02528 -0.26394,0.03024 -0.30044,0.12399zM243.79788,182.5896c-0.03651,0.09374 0.03882,0.19024 0.16823,0.21551c0.12942,0.02528 0.26395,-0.03024 0.30044,-0.12399c0.03651,-0.09374 -0.03881,-0.19024 -0.16823,-0.21551c-0.12942,-0.02528 -0.26395,0.03024 -0.30046,0.12399zM242.6559,183.12124c-0.03651,0.09374 0.03882,0.19024 0.16823,0.21551c0.12942,0.02528 0.26394,-0.03023 0.30045,-0.12398c0.03651,-0.09374 -0.03882,-0.19024 -0.16823,-0.21551c-0.12942,-0.02528 -0.26394,0.03023 -0.30045,0.12398zM234.77601,179.65709c-0.03651,0.09374 0.03881,0.19024 0.16823,0.21551c0.12942,0.02528 0.26394,-0.03024 0.30044,-0.12399c0.03651,-0.09374 -0.03881,-0.19024 -0.16823,-0.21551c-0.12942,-0.02528 -0.26394,0.03024 -0.30045,0.12398zM244.9285,176.70422c-0.03651,0.09374 0.03882,0.19024 0.16823,0.21551c0.12942,0.02528 0.26394,-0.03024 0.30045,-0.12398c0.03651,-0.09374 -0.03881,-0.19023 -0.16823,-0.2155c-0.12942,-0.02528 -0.26395,0.03024 -0.30045,0.12398zM240.87648,176.58039c-0.03651,0.09374 0.03882,0.19024 0.16823,0.21551c0.12942,0.02528 0.26395,-0.03024 0.30045,-0.12398c0.03651,-0.09374 -0.03882,-0.19024 -0.16823,-0.21551c-0.12942,-0.02528 -0.26394,0.03024 -0.30045,0.12398zM236.10315,180.09039c-0.03651,0.09374 0.03881,0.19024 0.16823,0.21551c0.12942,0.02528 0.26395,-0.03024 0.30045,-0.12399c0.03651,-0.09374 -0.03881,-0.19023 -0.16823,-0.2155c-0.12942,-0.02528 -0.26395,0.03024 -0.30045,0.12398zM243.06465,177.44321c-0.03651,0.09374 0.03881,0.19024 0.16823,0.21551c0.12942,0.02528 0.26394,-0.03024 0.30045,-0.12398c0.03651,-0.09374 -0.03881,-0.19024 -0.16823,-0.21551c-0.12942,-0.02528 -0.26394,0.03024 -0.30045,0.12398zM239.16662,182.85575c-0.03651,0.09374 0.03881,0.19023 0.16823,0.2155c0.12942,0.02528 0.26394,-0.03023 0.30045,-0.12398c0.03651,-0.09374 -0.03882,-0.19024 -0.16823,-0.21551c-0.12942,-0.02528 -0.26394,0.03024 -0.30045,0.12398zM244.77466,178.50405c-0.03651,0.09374 0.03882,0.19024 0.16823,0.21551c0.12942,0.02528 0.26394,-0.03023 0.30045,-0.12398c0.03651,-0.09374 -0.03882,-0.19024 -0.16823,-0.21551c-0.12942,-0.02528 -0.26394,0.03023 -0.30045,0.12398zM238.29968,182.33817c-0.03651,0.09374 0.03881,0.19024 0.16823,0.21551c0.12942,0.02528 0.26395,-0.03024 0.30045,-0.12399c0.03651,-0.09374 -0.03882,-0.19024 -0.16823,-0.21551c-0.12942,-0.02528 -0.26395,0.03024 -0.30044,0.12399zM235.11517,180.98105c-0.03651,0.09374 0.03881,0.19024 0.16823,0.21551c0.12942,0.02528 0.26395,-0.03024 0.30046,-0.12399c0.03651,-0.09374 -0.03882,-0.19024 -0.16823,-0.21551c-0.12942,-0.02528 -0.26395,0.03024 -0.30045,0.12398zM237.74328,183.08091c-0.03651,0.09374 0.03881,0.19024 0.16823,0.21551c0.12942,0.02528 0.26394,-0.03024 0.30045,-0.12398c0.03651,-0.09374 -0.0388,-0.19024 -0.16822,-0.21551c-0.12942,-0.02528 -0.26394,0.03023 -0.30045,0.12398zM243.09994,176.22122c-0.03651,0.09374 0.03882,0.19024 0.16823,0.21551c0.12942,0.02528 0.26395,-0.03024 0.30044,-0.12399c0.03651,-0.09374 -0.03881,-0.19024 -0.16823,-0.21551c-0.12942,-0.02528 -0.26395,0.03024 -0.30046,0.12399zM243.91409,176.05126c-0.03651,0.09374 0.03882,0.19024 0.16823,0.21551c0.12942,0.02528 0.26394,-0.03024 0.30045,-0.12398c0.03651,-0.09374 -0.03882,-0.19024 -0.16823,-0.21551c-0.12942,-0.02528 -0.26394,0.03024 -0.30045,0.12398zM240.94377,183.29953c-0.03651,0.09374 0.03881,0.19024 0.16823,0.21551c0.12942,0.02528 1.18737,0.10187 1.22387,0.00811c0.03651,-0.09374 -0.03881,-0.19023 -0.16823,-0.2155c-0.12942,-0.02528 -1.18737,-0.10187 -1.22387,-0.00812zM239.72936,181.95945c-0.03651,0.09374 0.03881,0.19024 0.16823,0.21551c0.12942,0.02528 1.18736,0.10187 1.22387,0.00812c0.03651,-0.09374 -0.0388,-0.19024 -0.16822,-0.21551c-0.12942,-0.02528 -1.18736,-0.10187 -1.22387,-0.00812zM244.64152,179.20663c0.11803,-0.04562 0.18378,-0.12361 0.14686,-0.1742c-0.03692,-0.05059 -0.16252,-0.05462 -0.28056,-0.009c-0.11803,0.04562 -0.18379,0.12361 -0.14688,0.1742c0.03692,0.05059 0.16253,0.05462 0.28057,0.009zM245.83534,179.04908c0.11803,-0.04562 0.18378,-0.12361 0.14687,-0.1742c-0.03692,-0.05059 -0.16253,-0.05462 -0.28056,-0.009c-0.11803,0.04562 -0.18379,0.12361 -0.14687,0.17421c0.03692,0.05059 0.16252,0.05462 0.28056,0.00899zM236.12581,182.56992c0.11803,-0.04562 0.18378,-0.12361 0.14686,-0.1742c-0.03692,-0.05059 -0.16252,-0.05462 -0.28056,-0.009c-0.11803,0.04562 -0.18379,0.12361 -0.14688,0.1742c0.03692,0.05059 0.16253,0.05462 0.28057,0.009zM234.80925,181.88672c0.11803,-0.04562 0.18379,-0.12361 0.14688,-0.1742c-0.03692,-0.05059 -0.16253,-0.05462 -0.28057,-0.009c-0.11803,0.04562 -0.18378,0.12362 -0.14686,0.1742c0.03692,0.05059 0.16252,0.05462 0.28056,0.009zM240.85069,178.43193c0.11803,-0.04562 0.18379,-0.12362 0.14687,-0.17421c-0.03692,-0.05059 -0.16252,-0.05462 -0.28056,-0.00899c-0.11803,0.04562 -0.18379,0.12361 -0.14688,0.1742c0.03692,0.05059 0.16253,0.05462 0.28057,0.009zM242.55788,181.1339c0.11803,-0.04562 0.18378,-0.12361 0.14686,-0.1742c-0.03692,-0.05059 -0.16252,-0.05462 -0.28056,-0.009c-0.11803,0.04562 -0.18379,0.12361 -0.14688,0.1742c0.03692,0.05059 0.16253,0.05462 0.28057,0.009zM239.29428,178.03025c0.11803,-0.04562 0.18378,-0.12361 0.14686,-0.1742c-0.03692,-0.05059 -0.16253,-0.05462 -0.28056,-0.009c-0.11803,0.04562 -0.18379,0.12362 -0.14687,0.17421c0.03692,0.05059 0.16253,0.05462 0.28057,0.009zM242.40792,179.13497c0.11803,-0.04562 0.18378,-0.12361 0.14687,-0.1742c-0.03692,-0.05059 -0.16253,-0.05462 -0.28056,-0.009c-0.11803,0.04562 -0.18379,0.12361 -0.14687,0.17421c0.03692,0.05059 0.16252,0.05462 0.28056,0.00899zM241.06369,181.47767c0.11803,-0.04562 0.18379,-0.12361 0.14687,-0.17421c-0.03692,-0.05059 -0.16252,-0.05462 -0.28056,-0.00899c-0.11803,0.04562 -0.18378,0.12361 -0.14687,0.1742c0.03692,0.05059 0.16253,0.05462 0.28056,0.009zM237.93308,180.93647c0.11803,-0.04562 0.18379,-0.12362 0.14687,-0.17421c-0.03692,-0.05059 -0.16254,-0.05462 -0.28057,-0.009c-0.11803,0.04562 -0.18379,0.12361 -0.14687,0.17421c0.03692,0.05059 0.16253,0.05462 0.28057,0.009zM237.57083,179.76754c0.11803,-0.04562 0.18378,-0.12361 0.14687,-0.1742c-0.03692,-0.05059 -0.16253,-0.05462 -0.28056,-0.009c-0.11803,0.04562 -0.18379,0.12361 -0.14687,0.17421c0.03692,0.05059 0.16252,0.05462 0.28056,0.00899zM239.79956,179.37177c0.11803,-0.04562 0.18378,-0.12361 0.14686,-0.1742c-0.03692,-0.05059 0.66021,-0.48545 0.54218,-0.43983c-0.11803,0.04562 -1.00653,0.55445 -0.96961,0.60503c0.03692,0.05059 0.16253,0.05462 0.28057,0.009zM237.65027,179.12912c0.11803,-0.04562 0.18379,-0.12361 0.14688,-0.1742c-0.03692,-0.05059 -0.16253,-0.05462 -0.28057,-0.009c-0.11803,0.04562 -0.18378,0.12361 -0.14686,0.1742c0.03692,0.05059 0.16252,0.05462 0.28056,0.009zM239.8959,180.54997c0.11803,-0.04562 0.18378,-0.12361 0.14686,-0.1742c-0.03692,-0.05059 -0.16253,-0.05462 -0.28056,-0.009c-0.11803,0.04562 -1.10721,-0.00849 -1.07029,0.0421c0.03692,0.05059 1.08596,0.18673 1.20399,0.14111zM245.94499,180.24551c0.11803,-0.04562 0.18379,-0.12361 0.14688,-0.1742c-0.03692,-0.05059 -0.16253,-0.05462 -0.28057,-0.009c-0.11803,0.04562 -0.18378,0.12361 -0.14686,0.1742c0.03692,0.05059 0.16252,0.05462 0.28056,0.009zM237.13658,183.20771c0.11803,-0.04562 0.18379,-0.12362 0.14687,-0.17421c-0.03692,-0.05059 -0.16253,-0.05462 -0.28057,-0.009c-0.11803,0.04562 -0.18378,0.12361 -0.14686,0.1742c0.03692,0.05059 0.16253,0.05462 0.28056,0.009zM236.68468,178.40376c0.11803,-0.04562 0.18379,-0.12361 0.14688,-0.1742c-0.03692,-0.05059 -0.16253,-0.05462 -0.28057,-0.009c-0.11803,0.04562 -0.18379,0.12361 -0.14687,0.17421c0.03692,0.05059 0.16253,0.05461 0.28056,0.00899zM243.10258,180.38578c0.11803,-0.04562 0.18379,-0.12361 0.14687,-0.17421c-0.03692,-0.05059 -0.16252,-0.05462 -0.28056,-0.00899c-0.11803,0.04562 -0.18379,0.12361 -0.14688,0.1742c0.03692,0.05059 0.16254,0.05462 0.28057,0.009zM238.49076,177.07864c0.11803,-0.04562 0.18378,-0.12362 0.14686,-0.1742c-0.03692,-0.05059 -0.16252,-0.05462 -0.28056,-0.009c-0.11803,0.04562 -1.00652,0.55445 -0.96961,0.60504c0.03692,0.05059 0.98526,-0.37621 1.1033,-0.42184zM237.20172,180.68154c0.11803,-0.04562 0.18379,-0.12361 0.14687,-0.17421c-0.03692,-0.05059 -0.16253,-0.05462 -0.28057,-0.009c-0.11803,0.04562 -0.18378,0.12362 -0.14686,0.1742c0.03692,0.05059 0.16253,0.05462 0.28056,0.009zM237.63134,178.50536c0.11803,-0.04562 0.18378,-0.12361 0.14686,-0.1742c-0.03692,-0.05059 -0.16253,-0.05462 -0.28056,-0.009c-0.11803,0.04562 -0.18379,0.12362 -0.14687,0.17421c0.03692,0.05059 0.16253,0.05462 0.28057,0.009zM238.60336,181.33186c0.11803,-0.04562 0.18378,-0.12361 0.14686,-0.1742c-0.03692,-0.05059 -0.16253,-0.05462 -0.28056,-0.009c-0.11803,0.04562 -0.18379,0.12361 -0.14687,0.17421c0.03692,0.05059 0.16253,0.05462 0.28057,0.009zM241.23003,179.23963c0.11803,-0.04562 0.18379,-0.12362 0.14687,-0.17421c-0.03692,-0.05059 -0.16253,-0.05462 -0.28057,-0.009c-0.11803,0.04562 -0.18378,0.12361 -0.14686,0.1742c0.03692,0.05059 0.16253,0.05462 0.28056,0.009zM238.40581,179.86555c0.11803,-0.04562 1.1072,0.0085 1.07029,-0.04209c-0.03692,-0.05059 -1.08595,-0.18673 -1.20398,-0.14111c-0.11803,0.04562 -0.18379,0.12361 -0.14687,0.17421c0.03692,0.05059 0.16252,0.05462 0.28056,0.00899zM240.53635,179.85834c0.11803,-0.04562 0.18378,-0.12361 0.14687,-0.1742c-0.03692,-0.05059 -0.16253,-0.05462 -0.28056,-0.009c-0.11803,0.04562 -0.18379,0.12361 -0.14687,0.17421c0.03692,0.05059 0.16252,0.05462 0.28056,0.00899zM235.48214,182.21098c0.11803,-0.04562 0.18379,-0.12361 0.14688,-0.1742c-0.03692,-0.05059 -0.16254,-0.05462 -0.28057,-0.009c-0.11803,0.04562 -0.18379,0.12362 -0.14687,0.17421c0.03692,0.05059 0.16252,0.05462 0.28056,0.00899zM238.09497,180.33629c0.11803,-0.04562 0.18379,-0.12361 0.14687,-0.17421c-0.03692,-0.05059 -0.16253,-0.05462 -0.28057,-0.009c-0.11803,0.04562 -0.18379,0.12362 -0.14687,0.17421c0.03692,0.05059 0.16254,0.05462 0.28057,0.009zM243.80229,181.12041c0.11803,-0.04562 0.18378,-0.12362 0.14686,-0.1742c-0.03692,-0.05059 -0.16253,-0.05462 -0.28056,-0.009c-0.11803,0.04562 -0.18379,0.12361 -0.14687,0.17421c0.03692,0.05059 0.16253,0.05462 0.28057,0.009z" data-paper-data="{&quot;index&quot;:null}" fill="url(#color-2)"/><path d="M246.85174,179.7139c0.66372,1.70421 -0.2064,4.0089 -1.89018,5.13179c0.01265,-0.03066 0.01377,-0.06429 0.00081,-0.09756c-0.03651,-0.09374 -0.17103,-0.14926 -0.30045,-0.12398c-0.12942,0.02527 -0.20473,0.12177 -0.16822,0.21551c0.03442,0.08838 0.15592,0.14278 0.27816,0.12755c-0.32407,0.19929 -0.67881,0.37654 -1.06095,0.52758c0.03958,-0.07192 0.04786,-0.15374 0.01638,-0.23457c-0.05486,-0.14089 -0.21558,-0.24048 -0.40212,-0.26573c0.20164,-0.07918 0.30766,-0.25119 0.24231,-0.41901c-0.07635,-0.19602 -0.3576,-0.31209 -0.62822,-0.25925c-0.27061,0.05284 -0.42809,0.25459 -0.35175,0.45061c0.05488,0.14089 0.21559,0.24047 0.40213,0.26572c-0.20166,0.07919 -0.30766,0.2512 -0.24231,0.41901c0.04951,0.12713 0.1852,0.22062 0.34829,0.25623c-0.2543,0.07623 -0.51849,0.14153 -0.79182,0.1949c-0.32672,0.06381 -0.65463,0.10823 -0.98126,0.13429c0.0206,-0.03522 0.02534,-0.07566 0.00979,-0.11561c-0.0365,-0.09375 -0.17103,-0.14926 -0.30045,-0.12398c-0.12942,0.02527 -0.20474,0.12176 -0.16823,0.2155c0.00676,0.01735 0.01688,0.0334 0.0297,0.04786c-1.35579,0.0421 -2.67195,-0.22814 -3.7753,-0.74014c0.00472,-0.00071 0.00944,-0.00152 0.01416,-0.00244c0.12942,-0.02527 0.20474,-0.12177 0.16823,-0.21551c-0.03651,-0.09375 -0.99377,-0.5801 -1.12319,-0.55483c-0.12152,0.02373 -0.19534,0.11025 -0.17368,0.19833c-0.90501,-0.47202 -1.64477,-1.11446 -2.11259,-1.88382c0.09294,0.02286 0.19569,0.02674 0.29694,0.00697c0.27062,-0.05285 0.4281,-0.25459 0.35176,-0.45062c-0.07634,-0.19602 -0.3576,-0.31209 -0.62822,-0.25925c-0.12845,0.02509 -0.23142,0.08372 -0.29598,0.15937c-0.00867,-0.0211 -0.01713,-0.04227 -0.0254,-0.06351c-0.95095,-2.44176 1.04017,-4.96053 4.4473,-5.62583c3.40716,-0.6653 7.86349,0.64268 8.81445,3.08444zM241.67564,177.90012c0.07635,0.19602 0.3576,0.31209 0.62822,0.25925c0.27061,-0.05284 0.42811,-0.25458 0.35177,-0.4506c-0.07635,-0.19602 -0.3576,-0.31209 -0.62822,-0.25925c-0.27061,0.05284 -0.42809,0.25459 -0.35175,0.45061zM244.88701,178.89336c0.27061,-0.05284 0.42811,-0.25458 0.35177,-0.45061c-0.07636,-0.19602 -0.35761,-0.3121 -0.62823,-0.25926c-0.27061,0.05284 -0.4281,0.25459 -0.35176,0.45061c0.07634,0.19602 0.3576,0.3121 0.62822,0.25926zM242.03799,180.49457c0.27062,-0.05285 0.4281,-0.25459 0.35176,-0.45062c-0.07635,-0.19602 -0.3576,-0.31209 -0.62822,-0.25925c-0.27062,0.05285 -0.4281,0.25459 -0.35176,0.45062c0.07635,0.19602 0.3576,0.31209 0.62822,0.25925zM242.55849,182.68718c0.27061,-0.05284 -0.39464,-0.68542 -0.47098,-0.88145c-0.07634,-0.19602 -0.35759,-0.3121 -0.62821,-0.25926c-0.27062,0.05285 0.39464,0.68543 0.47098,0.88145c0.07634,0.19602 0.3576,0.31209 0.62822,0.25925zM236.80333,181.21697c0.27061,-0.05284 0.42809,-0.25459 0.35175,-0.45061c-0.07634,-0.19602 -0.35759,-0.31209 -0.62821,-0.25925c-0.27061,0.05284 -0.4281,0.25459 -0.35176,0.45061c0.07635,0.19602 0.3576,0.31209 0.62822,0.25925zM236.15267,178.91102c0.07634,0.19602 0.35759,0.31209 0.62821,0.25925c0.27061,-0.05284 0.42811,-0.25458 0.35177,-0.4506c-0.07635,-0.19602 -0.35759,-0.31209 -0.62821,-0.25925c-0.27061,0.05284 -0.4281,0.25459 -0.35176,0.45061zM239.04261,184.8735c0.27062,-0.05285 0.4281,-0.25459 0.35176,-0.45062c-0.07634,-0.19602 -0.3576,-0.3121 -0.62822,-0.25926c-0.27062,0.05285 -0.4281,0.25459 -0.35176,0.45062c0.07634,0.19602 0.3576,0.3121 0.62822,0.25926zM245.48608,182.56644c0.0711,-0.04249 0.1047,-0.11288 0.07786,-0.18181c-0.0365,-0.09374 -0.17103,-0.14926 -0.30045,-0.12398c-0.12942,0.02527 -0.20474,0.12176 -0.16823,0.21551c0.02097,0.05382 0.07421,0.09503 0.14026,0.11561c-0.0711,0.04249 -0.10469,0.11289 -0.07785,0.18182c0.03651,0.09374 0.17103,0.14926 0.30045,0.12398c0.12942,-0.02527 0.20474,-0.12177 0.16823,-0.21551c-0.02097,-0.05382 -0.07421,-0.09503 -0.14026,-0.11561zM234.62702,180.99708c0.11829,-0.03034 0.18499,-0.12213 0.15021,-0.21144c-0.0365,-0.09374 -0.17103,-0.14926 -0.30045,-0.12398c-0.12942,0.02527 -0.20473,0.12177 -0.16822,0.21551c0.00889,0.02284 0.0236,0.04342 0.04265,0.0611c-0.11829,0.03034 -0.185,0.12214 -0.15021,0.21145c0.0365,0.09374 0.17103,0.14926 0.30045,0.12398c0.12942,-0.02527 0.20474,-0.12176 0.16823,-0.2155c-0.00889,-0.02284 -0.02361,-0.04343 -0.04265,-0.06111zM234.49051,179.83543c0.03651,0.09375 0.17102,0.14927 0.30044,0.12399c0.12942,-0.02527 0.20474,-0.12177 0.16823,-0.21551c-0.03651,-0.09374 -0.17103,-0.14926 -0.30045,-0.12398c-0.12942,0.02527 -0.20473,0.12177 -0.16822,0.21551zM239.62043,185.15272c0.03651,0.09375 0.17103,0.14926 0.30045,0.12398c0.12942,-0.02527 0.20473,-0.12176 0.16822,-0.21551c-0.03651,-0.09374 -0.17103,-0.14926 -0.30045,-0.12398c-0.12942,0.02527 -0.20474,0.12177 -0.16823,0.21551zM237.81374,178.32429c0.12942,-0.02527 0.20474,-0.12177 0.16823,-0.21551c-0.0365,-0.09375 -0.17102,-0.14927 -0.30044,-0.12399c-0.12942,0.02527 -0.20474,0.12177 -0.16823,0.21551c0.0365,0.09375 0.17102,0.14927 0.30044,0.12399zM246.29066,182.15449c0.12942,-0.02527 0.20473,-0.12177 0.16822,-0.21551c-0.0365,-0.09374 -0.17103,-0.14926 -0.30045,-0.12398c-0.12942,0.02527 -0.20473,0.12177 -0.16822,0.21551c0.0365,0.09374 0.17103,0.14926 0.30045,0.12398zM243.62229,182.26069c0.0365,0.09374 0.17103,0.14926 0.30045,0.12398c0.12942,-0.02527 0.20474,-0.12177 0.16823,-0.21551c-0.0365,-0.09375 -0.17102,-0.14926 -0.30044,-0.12399c-0.12942,0.02527 -0.20474,0.12177 -0.16823,0.21551zM243.27825,178.46644c0.12942,-0.02527 0.20474,-0.12177 0.16823,-0.21551c-0.03651,-0.09374 -0.17103,-0.14926 -0.30045,-0.12398c-0.12942,0.02527 -0.20474,0.12177 -0.16823,0.21551c0.0365,0.09374 0.17103,0.14926 0.30045,0.12398zM241.17037,184.81138c0.03651,0.09374 0.17102,0.14926 0.30044,0.12398c0.12942,-0.02527 0.20475,-0.12177 0.16824,-0.21551c-0.03651,-0.09375 -0.17103,-0.14926 -0.30045,-0.12398c-0.12942,0.02527 -0.20474,0.12177 -0.16823,0.21551zM245.18282,183.25255c0.12942,-0.02527 -0.618,-0.5526 -0.65451,-0.64635c-0.0365,-0.09374 -0.17102,-0.14926 -0.30044,-0.12398c-0.12942,0.02527 0.61799,0.5526 0.6545,0.64634c0.03651,0.09374 0.17103,0.14926 0.30045,0.12399zM244.06337,181.85413c0.12942,-0.02527 0.20475,-0.12177 0.16824,-0.21551c-0.03651,-0.09375 -0.17102,-0.14927 -0.30044,-0.12399c-0.12942,0.02527 -0.20474,0.12177 -0.16823,0.21551c0.0365,0.09375 0.17102,0.14927 0.30044,0.12399zM244.45221,180.52047c0.12942,-0.02527 0.20473,-0.12177 0.16822,-0.21551c-0.03651,-0.09374 -0.17103,-0.14926 -0.30045,-0.12398c-0.12942,0.02527 -0.20473,0.12177 -0.16822,0.21551c0.03651,0.09374 0.17103,0.14926 0.30045,0.12398zM239.33448,183.3897c0.03651,0.09374 0.17104,0.14926 0.30046,0.12398c0.12942,-0.02527 0.20473,-0.12177 0.16822,-0.21551c-0.0365,-0.09375 -0.17102,-0.14926 -0.30044,-0.12398c-0.12942,0.02527 -0.20474,0.12176 -0.16823,0.2155zM244.07094,180.98191c0.12942,-0.02527 0.20474,-0.12177 0.16823,-0.21551c-0.03651,-0.09375 -0.17102,-0.14926 -0.30044,-0.12399c-0.12942,0.02527 -0.20474,0.12177 -0.16823,0.21551c0.0365,0.09375 0.17102,0.14926 0.30044,0.12399zM245.03711,179.69031c0.12942,-0.02527 0.20474,-0.12177 0.16823,-0.21551c-0.0365,-0.09375 -0.17103,-0.14926 -0.30045,-0.12398c-0.12942,0.02527 -0.20474,0.12177 -0.16823,0.21551c0.03651,0.09375 0.17103,0.14926 0.30045,0.12399zM245.8926,179.3793c0.03651,0.09375 0.17104,0.14926 0.30046,0.12398c0.12942,-0.02527 0.20473,-0.12176 0.16822,-0.21551c-0.0365,-0.09374 -0.17103,-0.14926 -0.30045,-0.12398c-0.12942,0.02527 -0.20474,0.12176 -0.16823,0.21551zM235.58944,183.51865c0.12942,-0.02527 0.20474,-0.12177 0.16823,-0.21551c-0.03651,-0.09374 -0.17103,-0.14926 -0.30045,-0.12398c-0.12942,0.02527 -0.20473,0.12177 -0.16822,0.21551c0.03651,0.09374 0.17102,0.14926 0.30044,0.12398zM235.53205,182.13668c0.12942,-0.02527 0.20473,-0.12177 0.16822,-0.21551c-0.03651,-0.09374 -0.17102,-0.14926 -0.30044,-0.12398c-0.12942,0.02527 -0.20474,0.12177 -0.16823,0.21551c0.03651,0.09374 0.17103,0.14926 0.30045,0.12398zM242.91505,183.70522c0.12942,-0.02527 1.12815,-0.25387 1.09164,-0.34762c-0.0365,-0.09375 -0.17102,-0.14927 -0.30044,-0.12399c-0.12942,0.02527 -1.12817,0.25388 -1.09166,0.34762c0.03651,0.09374 0.17104,0.14926 0.30046,0.12399zM245.5458,180.79066c0.12942,-0.02527 0.20474,-0.12176 0.16823,-0.2155c-0.03651,-0.09375 -0.17102,-0.14927 -0.30044,-0.12399c-0.12942,0.02527 -0.20475,0.12177 -0.16824,0.21551c0.03651,0.09374 0.17103,0.14926 0.30045,0.12398zM236.96946,183.18262c0.03651,0.09375 0.99377,0.5801 1.12319,0.55483c0.12942,-0.02527 0.20473,-0.12177 0.16822,-0.21551c-0.0365,-0.09375 -0.99376,-0.5801 -1.12318,-0.55482c-0.12942,0.02527 -0.20474,0.12177 -0.16823,0.21551zM240.75086,184.32132c0.12942,-0.02527 0.20473,-0.12176 0.16822,-0.21551c-0.03651,-0.09375 -0.17102,-0.14926 -0.30044,-0.12399c-0.12942,0.02527 -0.20473,0.12176 -0.16822,0.21551c0.03651,0.09375 0.17102,0.14926 0.30044,0.12399zM244.02612,177.67336c0.03651,0.09375 0.17104,0.14926 0.30046,0.12399c0.12942,-0.02527 0.20473,-0.12177 0.16822,-0.21551c-0.0365,-0.09375 -0.17102,-0.14927 -0.30044,-0.12399c-0.12942,0.02527 -0.20475,0.12177 -0.16824,0.21551zM243.1846,177.2657c0.12942,-0.02527 0.20475,-0.12177 0.16824,-0.21551c-0.03651,-0.09375 -0.17103,-0.14926 -0.30045,-0.12398c-0.12942,0.02527 -0.20474,0.12177 -0.16823,0.21551c0.03651,0.09375 0.17102,0.14926 0.30044,0.12398zM235.00426,180.60587c0.03651,0.09374 0.17102,0.14926 0.30044,0.12398c0.12942,-0.02527 0.20474,-0.12177 0.16823,-0.21551c-0.03651,-0.09375 -0.17102,-0.14927 -0.30044,-0.12399c-0.12942,0.02527 -0.20473,0.12177 -0.16822,0.21551zM245.15675,183.55872c0.0365,0.09375 0.17103,0.14926 0.30045,0.12398c0.12942,-0.02527 0.20474,-0.12176 0.16823,-0.2155c-0.03651,-0.09374 -0.17102,-0.14926 -0.30044,-0.12398c-0.12942,0.02527 -0.20475,0.12177 -0.16824,0.21551zM241.40518,183.80655c0.12942,-0.02527 0.20474,-0.12177 0.16823,-0.21551c-0.0365,-0.09374 -0.17103,-0.14926 -0.30045,-0.12398c-0.12942,0.02527 -0.20474,0.12177 -0.16823,0.21551c0.03651,0.09374 0.17103,0.14926 0.30045,0.12398zM236.63185,180.29655c0.12942,-0.02527 0.20474,-0.12176 0.16823,-0.21551c-0.03651,-0.09375 -0.17103,-0.14927 -0.30045,-0.12399c-0.12942,0.02527 -0.20474,0.12177 -0.16823,0.21551c0.0365,0.09375 0.17103,0.14926 0.30045,0.12398zM243.59334,182.94373c0.12942,-0.02527 0.20474,-0.12177 0.16823,-0.21551c-0.03651,-0.09374 -0.17103,-0.14926 -0.30045,-0.12398c-0.12942,0.02527 -0.20474,0.12177 -0.16823,0.21551c0.03651,0.09374 0.17103,0.14926 0.30045,0.12398zM239.39486,177.40721c0.03651,0.09374 0.17103,0.14926 0.30045,0.12398c0.12942,-0.02527 0.20474,-0.12177 0.16823,-0.21551c-0.03651,-0.09375 -0.17102,-0.14926 -0.30044,-0.12398c-0.12942,0.02527 -0.20474,0.12176 -0.16823,0.2155zM245.30335,181.88289c0.12942,-0.02527 0.20475,-0.12177 0.16824,-0.21551c-0.03651,-0.09375 -0.17103,-0.14926 -0.30045,-0.12398c-0.12942,0.02527 -0.20474,0.12177 -0.16823,0.21551c0.03651,0.09375 0.17102,0.14926 0.30044,0.12398zM238.82838,178.04877c0.12942,-0.02527 0.20474,-0.12177 0.16823,-0.21551c-0.03651,-0.09375 -0.17103,-0.14927 -0.30045,-0.12399c-0.12942,0.02527 -0.20473,0.12177 -0.16822,0.21551c0.0365,0.09375 0.17102,0.14927 0.30044,0.12399zM235.64387,179.40589c0.12942,-0.02527 0.20474,-0.12177 0.16823,-0.21551c-0.03651,-0.09375 -0.17103,-0.14926 -0.30045,-0.12399c-0.12942,0.02527 -0.20474,0.12177 -0.16823,0.21551c0.0365,0.09375 0.17103,0.14926 0.30045,0.12398zM237.97153,177.18204c0.03651,0.09375 0.17103,0.14926 0.30045,0.12398c0.12942,-0.02527 0.20473,-0.12177 0.16822,-0.21551c-0.03651,-0.09374 -0.17103,-0.14926 -0.30045,-0.12398c-0.12942,0.02527 -0.20474,0.12177 -0.16823,0.21551zM243.32819,184.04174c0.03651,0.09374 0.17103,0.14926 0.30045,0.12399c0.12942,-0.02527 0.20474,-0.12177 0.16823,-0.21551c-0.0365,-0.09375 -0.17102,-0.14926 -0.30044,-0.12399c-0.12942,0.02527 -0.20474,0.12177 -0.16823,0.21551zM244.44278,184.33568c0.12942,-0.02527 0.20475,-0.12177 0.16824,-0.21551c-0.03651,-0.09374 -0.17103,-0.14926 -0.30045,-0.12398c-0.12942,0.02527 -0.20474,0.12177 -0.16823,0.21551c0.03651,0.09374 0.17102,0.14926 0.30044,0.12398zM242.39589,176.95531c0.12942,-0.02527 0.20474,-0.12176 0.16823,-0.21551c-0.03651,-0.09375 -1.09445,-0.01716 -1.22387,0.00812c-0.12942,0.02527 -0.20473,0.12177 -0.16822,0.21551c0.0365,0.09375 1.09444,0.01715 1.22386,-0.00812zM239.95762,178.3035c0.03651,0.09375 1.09445,0.01715 1.22387,-0.00812c0.12942,-0.02527 0.20473,-0.12176 0.16822,-0.21551c-0.03651,-0.09374 -1.09445,-0.01715 -1.22387,0.00812c-0.12942,0.02527 -0.20474,0.12177 -0.16823,0.21551zM244.5892,181.06532c-0.03692,0.05059 0.02885,0.12858 0.14688,0.1742c0.11803,0.04562 0.24363,0.0416 0.28055,-0.009c0.03692,-0.05059 -0.02883,-0.12859 -0.14686,-0.1742c-0.11804,-0.04562 -0.24365,-0.04159 -0.28057,0.009zM245.78303,181.22287c-0.03692,0.05059 0.02884,0.12859 0.14687,0.1742c0.11803,0.04562 0.24364,0.04159 0.28056,-0.009c0.03692,-0.05059 -0.02883,-0.12857 -0.14686,-0.17419c-0.11804,-0.04562 -0.24364,-0.0416 -0.28057,0.00899zM236.07349,177.70204c-0.03692,0.05059 0.02884,0.12858 0.14687,0.1742c0.11803,0.04562 0.24363,0.04159 0.28056,-0.009c0.03692,-0.05059 -0.02883,-0.12858 -0.14686,-0.1742c-0.11804,-0.04562 -0.24364,-0.04159 -0.28057,0.009zM234.75694,178.38523c-0.03692,0.05059 0.02883,0.12859 0.14686,0.1742c0.11804,0.04562 0.24365,0.04159 0.28057,-0.009c0.03692,-0.05059 -0.02884,-0.12858 -0.14687,-0.1742c-0.11803,-0.04562 -0.24363,-0.0416 -0.28056,0.009zM240.79837,181.84002c-0.03692,0.05059 0.02885,0.12858 0.14688,0.1742c0.11804,0.04562 0.24364,0.0416 0.28056,-0.00899c0.03692,-0.05059 -0.02884,-0.12859 -0.14687,-0.17421c-0.11804,-0.04562 -0.24365,-0.04159 -0.28057,0.009zM242.50556,179.13805c-0.03692,0.05059 0.02884,0.12858 0.14687,0.1742c0.11803,0.04562 0.24363,0.0416 0.28056,-0.009c0.03692,-0.05059 -0.02883,-0.12859 -0.14686,-0.1742c-0.11804,-0.04562 -0.24364,-0.04159 -0.28057,0.009zM239.24196,182.2417c-0.03692,0.05059 0.02884,0.12859 0.14687,0.1742c0.11803,0.04562 0.24364,0.04159 0.28056,-0.009c0.03692,-0.05059 -0.02883,-0.12858 -0.14686,-0.1742c-0.11804,-0.04562 -0.24365,-0.04159 -0.28057,0.009zM242.35561,181.13698c-0.03692,0.05059 0.02884,0.12859 0.14687,0.1742c0.11803,0.04562 0.24364,0.04159 0.28056,-0.009c0.03692,-0.05059 -0.02884,-0.12858 -0.14687,-0.1742c-0.11804,-0.04562 -0.24364,-0.0416 -0.28056,0.009zM241.01138,178.79429c-0.03692,0.05059 0.02884,0.12857 0.14687,0.17419c0.11804,0.04562 0.24364,0.0416 0.28056,-0.00899c0.03692,-0.05059 -0.02884,-0.12859 -0.14687,-0.17421c-0.11803,-0.04562 -0.24364,-0.04159 -0.28056,0.00901zM237.88076,179.33549c-0.03692,0.05059 0.02884,0.12859 0.14687,0.17421c0.11803,0.04562 0.24365,0.04159 0.28057,-0.009c0.03692,-0.05059 -0.02884,-0.12859 -0.14687,-0.1742c-0.11804,-0.04562 -0.24364,-0.04159 -0.28057,0.009zM237.51851,180.5044c-0.03692,0.05059 0.02884,0.12859 0.14687,0.17421c0.11803,0.04562 0.24363,0.04159 0.28056,-0.009c0.03692,-0.05059 -0.02883,-0.12858 -0.14686,-0.1742c-0.11804,-0.04562 -0.24364,-0.0416 -0.28057,0.00899zM239.74724,180.90018c-0.03692,0.05059 0.85157,0.55942 0.96961,0.60504c0.11803,0.04562 -0.5791,-0.38924 -0.54218,-0.43983c0.03692,-0.05059 -0.02883,-0.12859 -0.14686,-0.1742c-0.11804,-0.04562 -0.24364,-0.04159 -0.28057,0.009zM237.59796,181.14283c-0.03692,0.05059 0.02883,0.12858 0.14686,0.1742c0.11804,0.04562 0.24364,0.04159 0.28057,-0.009c0.03692,-0.05059 -0.02884,-0.12858 -0.14687,-0.1742c-0.11803,-0.04562 -0.24363,-0.04159 -0.28056,0.009zM238.92016,179.85409c-0.03692,0.05059 0.95226,-0.00352 1.07029,0.0421c0.11803,0.04562 0.24364,0.04159 0.28056,-0.009c0.03692,-0.05059 -0.02883,-0.12859 -0.14686,-0.1742c-0.11803,-0.04562 -1.16707,0.09051 -1.20399,0.14111zM245.89268,180.02644c-0.03692,0.05059 0.02883,0.12859 0.14686,0.1742c0.11804,0.04562 0.24365,0.04159 0.28057,-0.009c0.03692,-0.05059 -0.02885,-0.12858 -0.14688,-0.1742c-0.11803,-0.04562 -0.24363,-0.0416 -0.28056,0.009zM237.08426,177.06425c-0.03692,0.05059 0.02883,0.12858 0.14686,0.1742c0.11804,0.04562 0.24364,0.04159 0.28057,-0.009c0.03692,-0.05059 -0.02884,-0.12859 -0.14687,-0.1742c-0.11803,-0.04562 -0.24364,-0.04159 -0.28056,0.009zM236.63236,181.86818c-0.03692,0.05059 0.02884,0.12859 0.14687,0.17421c0.11804,0.04562 0.24364,0.04159 0.28057,-0.009c0.03692,-0.05059 -0.02884,-0.12858 -0.14687,-0.1742c-0.11803,-0.04562 -0.24364,-0.0416 -0.28057,0.00899zM243.05026,179.88617c-0.03692,0.05059 0.02884,0.12858 0.14687,0.1742c0.11804,0.04562 0.24364,0.0416 0.28056,-0.00899c0.03692,-0.05059 -0.02884,-0.12859 -0.14687,-0.17421c-0.11803,-0.04562 -0.24364,-0.04159 -0.28057,0.009zM237.61571,182.76248c-0.03692,0.05059 0.85158,0.55942 0.96961,0.60504c0.11803,0.04562 0.24363,0.04159 0.28055,-0.009c0.03692,-0.05059 -0.02883,-0.12858 -0.14686,-0.1742c-0.11804,-0.04562 -1.06638,-0.47243 -1.10331,-0.42184zM237.1494,179.59042c-0.03692,0.05059 0.02883,0.12859 0.14686,0.1742c0.11804,0.04562 0.24365,0.04159 0.28057,-0.009c0.03692,-0.05059 -0.02884,-0.12859 -0.14687,-0.17421c-0.11803,-0.04562 -0.24364,-0.04159 -0.28056,0.009zM237.57902,181.7666c-0.03692,0.05059 0.02884,0.12859 0.14687,0.1742c0.11803,0.04562 0.24364,0.04159 0.28056,-0.009c0.03692,-0.05059 -0.02883,-0.12859 -0.14686,-0.1742c-0.11804,-0.04562 -0.24364,-0.04159 -0.28057,0.009zM238.55104,178.94009c-0.03692,0.05059 0.02884,0.12859 0.14687,0.17421c0.11803,0.04562 0.24364,0.04159 0.28056,-0.009c0.03692,-0.05059 -0.02883,-0.12859 -0.14686,-0.1742c-0.11804,-0.04562 -0.24365,-0.04159 -0.28057,0.009zM241.17772,181.03233c-0.03692,0.05059 0.02883,0.12859 0.14686,0.1742c0.11804,0.04562 0.24364,0.04159 0.28057,-0.009c0.03692,-0.05059 -0.02884,-0.12859 -0.14687,-0.17421c-0.11803,-0.04562 -0.24364,-0.04159 -0.28056,0.009zM238.3535,180.4064c-0.03692,0.05059 0.02884,0.12859 0.14687,0.1742c0.11803,0.04562 1.16706,-0.09052 1.20398,-0.14111c0.03692,-0.05059 -0.95226,0.00353 -1.07029,-0.04209c-0.11804,-0.04562 -0.24364,-0.0416 -0.28056,0.009zM240.48403,180.41361c-0.03692,0.05059 0.02884,0.12859 0.14687,0.1742c0.11803,0.04562 0.24364,0.04159 0.28056,-0.009c0.03692,-0.05059 -0.02884,-0.12858 -0.14687,-0.1742c-0.11804,-0.04562 -0.24364,-0.0416 -0.28057,0.009zM235.42982,178.06097c-0.03692,0.05059 0.02884,0.12859 0.14687,0.17421c0.11803,0.04562 0.24365,0.04159 0.28057,-0.009c0.03692,-0.05059 -0.02885,-0.12858 -0.14688,-0.1742c-0.11804,-0.04562 -0.24364,-0.0416 -0.28056,0.00899zM238.04265,179.93566c-0.03692,0.05059 0.02884,0.12859 0.14687,0.17421c0.11804,0.04562 0.24365,0.04159 0.28057,-0.009c0.03692,-0.05059 -0.02884,-0.12859 -0.14687,-0.17421c-0.11803,-0.04562 -0.24364,-0.04159 -0.28057,0.009zM243.74997,179.15154c-0.03692,0.05059 0.02884,0.12859 0.14687,0.17421c0.11803,0.04562 0.24364,0.04159 0.28056,-0.009c0.03692,-0.05059 -0.02883,-0.12859 -0.14686,-0.1742c-0.11804,-0.04562 -0.24364,-0.04159 -0.28057,0.009z" data-paper-data="{&quot;index&quot;:null}" fill="url(#color-3)"/></g></g></svg>