<svg version="1.1" xmlns="http://www.w3.org/2000/svg" xmlns:xlink="http://www.w3.org/1999/xlink" width="77.63991" height="92.85803" viewBox="0,0,77.63991,92.85803"><g transform="translate(-210.48845,-143.20266)"><g data-paper-data="{&quot;isPaintingLayer&quot;:true}" fill="#b1b1b1" fill-rule="nonzero" stroke="#000000" stroke-width="1.5" stroke-linecap="butt" stroke-linejoin="miter" stroke-miterlimit="10" stroke-dasharray="" stroke-dashoffset="0" style="mix-blend-mode: normal"><path d="M287.06942,177.58865l-25.89837,23.22802l-10.03304,-11.19287l25.89837,-23.22801z" data-paper-data="{&quot;index&quot;:null}"/><path d="M246.15029,229.01577l3.70881,-36.57476l18.14988,1.84045l-3.70881,36.57476z"/><path d="M224.36227,198.61055l9.32794,-34.7878l27.75059,7.44097l-9.32795,34.7878c0,0 -7.17861,-1.92487 -11.29728,-3.02922c-4.97045,-1.33278 -16.4533,-4.41174 -16.4533,-4.41174z"/><path d="M272.16473,163.43349c-2.07848,8.25282 -10.8853,13.14942 -19.67058,10.93685c-8.78527,-2.21258 -14.22219,-10.69646 -12.14373,-18.94929c2.07848,-8.25282 10.88529,-13.1494 19.67057,-10.93684c8.78527,2.21258 14.22219,10.69645 12.14371,18.9493z" data-paper-data="{&quot;index&quot;:null}"/><path d="M211.52466,225.04256l20.11509,-31.36313l15.56368,9.98191l-20.11509,31.36314z"/><path d="M279.40425,182.97277l-30.66086,16.4371l-7.10581,-13.24575l30.66086,-16.4371z" data-paper-data="{&quot;index&quot;:null}"/></g></g></svg>