<svg version="1.1" xmlns="http://www.w3.org/2000/svg" xmlns:xlink="http://www.w3.org/1999/xlink" width="74.7672" height="101.30551" viewBox="0,0,74.7672,101.30551"><g transform="translate(-207.61372,-132.65927)"><g data-paper-data="{&quot;isPaintingLayer&quot;:true}" fill="#b1b1b1" fill-rule="nonzero" stroke="#000000" stroke-width="1.5" stroke-linecap="butt" stroke-linejoin="miter" stroke-miterlimit="10" stroke-dasharray="" stroke-dashoffset="0" style="mix-blend-mode: normal"><path d="M246.45957,162.73664l34.32803,5.64385l-2.43435,14.83294l-34.32805,-5.64386z" data-paper-data="{&quot;index&quot;:null}"/><path d="M255.09099,229.76276l-7.57751,-36.48075l18.10325,-3.76027l7.57751,36.48075z"/><path d="M208.6527,222.88481l20.23412,-30.69281l15.23102,10.041l-20.23412,30.69281z"/><path d="M237.48911,197.85362c-4.24941,-0.35432 -11.65592,-0.97188 -11.65592,-0.97188l2.99274,-35.89215l28.63152,2.38733l-2.99275,35.89214c0,0 -11.84736,-0.98784 -16.9756,-1.41544z" data-paper-data="{&quot;index&quot;:null}"/><path d="M262.53025,150.9812c-1.11172,8.43762 -9.29428,14.31829 -18.27626,13.13484c-8.98198,-1.18344 -15.36208,-8.98286 -14.25036,-17.42048c1.11172,-8.43762 9.29428,-14.31828 18.27626,-13.13483c8.98198,1.18344 15.36208,8.98285 14.25036,17.42048z" data-paper-data="{&quot;index&quot;:null}"/><path d="M246.22815,169.70198l34.75953,-1.42923l0.61328,15.01885l-34.75951,1.42921z" data-paper-data="{&quot;index&quot;:null}"/></g></g></svg>