<svg version="1.1" xmlns="http://www.w3.org/2000/svg" xmlns:xlink="http://www.w3.org/1999/xlink" width="50.67218" height="100.17513" viewBox="0,0,50.67218,100.17513"><g transform="translate(-233.16096,-128.57069)"><g data-paper-data="{&quot;isPaintingLayer&quot;:true}" fill="#b1b1b1" fill-rule="nonzero" stroke="#000000" stroke-width="1.5" stroke-linecap="butt" stroke-linejoin="miter" stroke-miterlimit="10" stroke-dasharray="" stroke-dashoffset="0" style="mix-blend-mode: normal"><path d="M282.77278,150.47255l-24.99988,24.19243l-10.44985,-10.80475l24.99987,-24.19242z" data-paper-data="{&quot;index&quot;:null}"/><path d="M264.44729,219.81933l-8.47405,-35.77232l17.75169,-4.20517l8.47405,35.77232z"/><path d="M244.24972,227.87217l-6.761,-36.64086l18.1827,-3.35508l6.761,36.64086z"/><path d="M234.85812,195.06939l-0.49863,-36.01323l28.72811,-0.39777l0.49864,36.01325c0,0 -7.43149,0.10289 -11.69524,0.16192c-5.14554,0.07125 -17.03288,0.23583 -17.03288,0.23583z"/><path d="M266.0957,140.54679c2.20835,8.21903 -3.09414,16.78759 -11.84345,19.1384c-8.7493,2.35082 -17.63222,-2.40632 -19.84056,-10.62535c-2.20835,-8.21903 3.09414,-16.78759 11.84345,-19.1384c8.7493,-2.35082 17.63222,2.40631 19.84056,10.62535z" data-paper-data="{&quot;index&quot;:null}"/><path d="M270.86212,145.86849l-23.92737,25.25368l-10.9144,-10.3353l23.92737,-25.25368z" data-paper-data="{&quot;index&quot;:null}"/></g></g></svg>