<svg version="1.1" xmlns="http://www.w3.org/2000/svg" xmlns:xlink="http://www.w3.org/1999/xlink" width="95.02105" height="90.56332" viewBox="0,0,95.02105,90.56332"><g transform="translate(-207.24605,-142.20538)"><g data-paper-data="{&quot;isPaintingLayer&quot;:true}" fill-rule="nonzero" stroke-linejoin="miter" stroke-miterlimit="10" stroke-dasharray="" stroke-dashoffset="0" style="mix-blend-mode: normal"><path d="M261.00822,210.522l-25.23407,-23.94804l10.35041,-10.90004l25.23405,23.94804z" data-paper-data="{&quot;index&quot;:null}" fill="#b1b1b1" stroke="#000000" stroke-width="1.5" stroke-linecap="butt"/><path d="M238.55722,226.09899v-36.76232h18.24296v36.76232z" fill="#9b6a16" stroke="#000000" stroke-width="1.5" stroke-linecap="butt"/><path d="M208.29199,216.65942l30.35489,-21.60658l10.72207,15.06334l-30.35489,21.60658z" fill="#9b6a16" stroke="#000000" stroke-width="1.5" stroke-linecap="butt"/><g stroke="#000000" stroke-linecap="butt"><path d="M217.78494,200.33501l19.43139,-30.32529l24.19078,15.50061l-19.43139,30.3253c0,0 -6.25775,-4.00975 -9.84809,-6.31031c-4.33286,-2.77634 -14.3427,-9.1903 -14.3427,-9.1903z" fill="#9b6a16" stroke-width="1.5"/><path d="M244.24722,182.87013c-0.32653,1.41475 -0.932,2.58334 -2.12895,3.41254c-0.67552,0.46797 -2.11196,-0.09566 -2.36823,0.68514c-0.93421,2.84625 -3.9077,2.63948 -5.53159,0.16586c-0.73943,-1.12633 1.10597,-3.01715 1.0224,-3.27445c-0.56817,-1.74933 -2.09634,-2.5263 -1.11965,-4.74293c0.49835,-1.13103 3.60022,-2.86996 4.70721,-1.64459c0.19652,0.06452 0.38817,0.15466 0.5704,0.27143c0.43246,0.2771 0.7509,0.66511 0.94194,1.10299c1.75107,1.42929 4.45934,1.62865 3.90648,4.02401z" fill="#b1b1b1" stroke-width="1"/><path d="M242.48048,209.70332c-0.64296,0.19349 -7.34543,-0.69639 -7.46596,-0.77362c-3.16683,-2.0292 -2.4107,-8.19049 1.31602,-8.92372c2.87397,-0.56546 4.60193,2.02664 6.83752,2.90008c0.16738,0.06162 0.33071,0.14222 0.48709,0.24243c1.103,0.70676 1.46424,2.13493 0.86212,3.27227c-0.14921,1.47401 -0.82674,2.91843 -2.03679,3.28258z" fill="#b1b1b1" stroke-width="1"/></g><g><path d="M248.08839,176.48457l-10.77791,-10.41565l9.43051,3.84708l-11.70716,-10.61735l10.31149,4.71945l-11.84078,-11.57074l8.40472,4.98669l1.25594,-1.5275l-5.52042,-5.72287l8.99433,4.28758l2.56879,-1.97232l3.21531,-1.58872l5.1264,-0.9793l6.62978,0.61196l5.13936,1.65072l3.78511,-1.07584l3.5834,-0.14658l7.02201,1.7188l5.68935,3.3756l-3.53082,0.35259l-2.96101,0.86549l-2.77482,2.02491l2.78777,0.6051l4.57388,2.01449l4.39631,2.60842l4.42909,4.02643l1.51201,3.34462l-3.10329,-1.84124l-5.34539,-1.59812l-4.61783,-0.46716l-3.37739,0.09399l-4.53247,1.15687l3.07051,0.42322l2.37573,0.71028l5.38248,3.89282l2.68006,4.91174l-1.7818,-0.53271l-5.11091,-1.10936l-3.35325,-0.24134l-3.55496,0.68793l-3.83337,1.74648l2.14125,0.22151l2.45677,1.45765l1.89993,3.57477l-1.55164,-0.92062l-3.511,-0.85939l-3.76961,-1.01283l-3.30066,-0.03532z" fill="#000000" stroke="#000000" stroke-width="4" stroke-linecap="round"/><path d="M274.35323,178.36714c-4.34263,7.31921 -14.17922,9.50509 -21.97064,4.88229c-7.79142,-4.6228 -10.58721,-14.30372 -6.24458,-21.62293c4.34263,-7.31921 14.17922,-9.50508 21.97064,-4.88228c7.79142,4.6228 10.58721,14.30371 6.24458,21.62293z" data-paper-data="{&quot;index&quot;:null}" fill="#b1b1b1" stroke="#000000" stroke-width="1.5" stroke-linecap="butt"/><path d="M262.53486,160.56177c0.06333,0.00456 0.12496,0.00994 0.18492,0.01617c0.33395,0.00588 0.67059,0.0851 0.98541,0.2439c0.10793,0.05087 0.2053,0.10933 0.29289,0.17591c0.96474,0.68094 1.25873,2.0005 0.64582,3.03351c-0.05069,0.70371 -0.60828,0.92893 -1.24612,1.00341c-0.40962,0.13578 -0.85596,0.15574 -1.28518,0.04616c-0.21338,0.00843 -0.39466,0.028 -0.51863,0.07808c-0.13381,0.05406 -0.28248,0.11664 -0.44403,0.18589c0.56631,1.92547 0.60281,3.62965 -0.52678,4.17155c-0.69255,0.33225 -1.57377,0.08937 -2.29841,-0.16542c-0.14121,-0.04964 -0.72569,-1.05256 -1.41738,-2.32337c-2.13286,0.66911 -4.27541,0.93004 -5.14965,-0.42894c-0.92094,-1.43157 -0.24829,-2.3867 0.68593,-3.16011c0.16578,-0.13725 1.0173,-0.45428 2.15653,-0.829c-0.24274,-0.48219 -0.41693,-0.83659 -0.48198,-0.98048c-0.07483,-0.11113 -0.13937,-0.22814 -0.19322,-0.34951c-0.29017,-0.65397 -0.26992,-1.43385 0.12295,-2.096c0.573,-0.96575 1.74569,-1.35585 2.7621,-0.97735c0.09083,0.02059 0.18039,0.0533 0.26847,0.10014c0.08355,0.04443 0.17385,0.10719 0.26973,0.18657c0.22254,0.15942 0.40887,0.35304 0.55604,0.56927c0.44787,0.53139 0.95225,1.27998 1.43941,2.13677c1.49152,-0.39832 2.69836,-0.66564 2.94033,-0.59329z" fill="#000000" stroke="none" stroke-width="0.5" stroke-linecap="butt"/><path d="M271.39625,166.81213c0.14596,0.14453 0.42556,1.11021 0.7226,2.33015c0.80149,0.01378 1.53246,0.08203 2.08635,0.1946c0.21172,0.02077 0.42255,0.07831 0.62309,0.17502c0.09404,0.03749 0.17403,0.07749 0.23832,0.11982c0.06777,0.04462 0.12603,0.0958 0.17614,0.15261c0.66637,0.57801 0.84501,1.56716 0.37898,2.35262c-0.31952,0.53853 -0.86834,0.85699 -1.44826,0.90476c-0.10761,0.00887 -0.21631,0.0084 -0.3248,-0.00169c-0.12806,0.00965 -0.44892,0.02346 -0.88775,0.03813c0.17657,0.95927 0.28218,1.69069 0.24883,1.86253c-0.18795,0.96834 -0.60754,1.82078 -1.9884,1.72141c-1.31084,-0.09434 -1.95972,-1.72545 -2.31346,-3.50876c-1.17674,0.0016 -2.12049,-0.02469 -2.21096,-0.10613c-0.46433,-0.41794 -0.98119,-0.95233 -1.01397,-1.57619c-0.05347,-1.01756 1.17722,-1.65577 2.77242,-2.00205c-0.01353,-0.14232 -0.02682,-0.27283 -0.04039,-0.38941c-0.01257,-0.10802 -0.06925,-0.24505 -0.14642,-0.40066c-0.24553,-0.26368 -0.40525,-0.59006 -0.468,-0.93538c-0.19546,-0.48434 -0.25203,-0.97016 0.23053,-1.28063c0.49848,-0.84016 1.55502,-1.14466 2.41714,-0.72143c0.08166,0.03658 0.16134,0.08328 0.23972,0.1405c0.23607,0.16283 0.42384,0.37225 0.55821,0.60834c0.02783,0.04037 0.05569,0.08227 0.08363,0.1257z" data-paper-data="{&quot;index&quot;:null}" fill="#000000" stroke="none" stroke-width="0.5" stroke-linecap="butt"/><path d="M256.18908,180.195c-2.22446,-1.09856 -5.55214,-2.91977 -6.29454,-5.55916c-0.17143,-0.60946 0.60373,-1.96012 0.97969,-2.44232c2.31046,-2.96342 5.6998,-0.39921 8.08596,1.01654l0.03183,0.0023c0.39211,0.01997 0.78525,0.13285 1.14637,0.34711c0.0807,0.04788 0.15773,0.0996 0.23099,0.15477c6.83065,2.98119 1.67184,9.37089 -4.1803,6.48077z" fill="#000000" stroke="none" stroke-width="0.5" stroke-linecap="butt"/><path d="M262.50277,150.42218l-9.5847,6.72556c0,0 -3.28162,1.10367 -4.14025,2.2637c-0.85863,1.16004 -0.26546,3.68857 -0.26546,3.68857c0,0 -1.628,-1.0162 -2.12517,-1.69269c-0.36138,-0.49174 0.39877,-0.57549 0.26426,-1.07149c-0.30083,-1.10927 -0.00369,-4.11125 -0.00369,-4.11125l4.32645,-1.10429" fill="none" stroke="#000000" stroke-width="4" stroke-linecap="round"/><path d="M257.09795,152.46006l-1.76452,2.97397l-0.02236,5.93068l2.35413,-3.67308l3.05755,-2.20679l7.02887,-2.12322l13.8794,6.66152l0.40951,4.61351l-4.46694,3.99291l-2.77914,1.14824l1.53436,-2.58606l0.44303,-4.2825l-4.30842,-5.70307l-0.66887,5.54709l-4.08766,2.46972l0.44303,-4.2825l-1.72235,-4.1687l-1.46374,-4.01526z" fill="#000000" stroke="#000000" stroke-width="4" stroke-linecap="round"/></g><g stroke="#000000" stroke-width="1.5" stroke-linecap="butt"><path d="M244.31913,223.29005l-16.51566,-30.61861l13.22748,-7.13973l16.51565,30.61863z" data-paper-data="{&quot;index&quot;:null}" fill="#b1b1b1"/><path d="M239.70947,214.74415l-11.90601,-22.07271l13.22748,-7.13973l11.53463,21.38424z" data-paper-data="{&quot;index&quot;:null}" fill="#9b6a16"/><path d="M240.84006,206.19024c-0.81271,-1.11618 -0.56669,-2.67986 0.54949,-3.49257c1.11618,-0.81271 2.67986,-0.56669 3.49257,0.54949c0.81271,1.11618 0.56669,2.67986 -0.54949,3.49257c-1.11618,0.81271 -2.67986,0.56669 -3.49257,-0.54949z" fill="#b1b1b1"/><path d="M233.9114,193.43082c1.68949,-1.35545 4.7527,-0.85391 5.8985,1.03564c1.81006,2.98499 -3.789,4.9788 -5.20102,3.24987c-0.43569,-0.16681 -0.82975,-0.45736 -1.12482,-0.86262c-0.72268,-0.99254 -0.60821,-2.33891 0.21083,-3.19646c0.0599,-0.08234 0.13143,-0.15819 0.21651,-0.22645z" fill="#b1b1b1"/></g></g></g></svg>