<svg version="1.1" xmlns="http://www.w3.org/2000/svg" xmlns:xlink="http://www.w3.org/1999/xlink" width="61.30405" height="88.81358" viewBox="0,0,61.30405,88.81358"><g transform="translate(-204.30824,-146.72599)"><g data-paper-data="{&quot;isPaintingLayer&quot;:true}" fill="#b1b1b1" fill-rule="nonzero" stroke="#000000" stroke-width="1.5" stroke-linecap="butt" stroke-linejoin="miter" stroke-miterlimit="10" stroke-dasharray="" stroke-dashoffset="0" style="mix-blend-mode: normal"><path d="M241.54551,177.00796l-13.87203,31.90351l-13.78636,-5.98984l13.87205,-31.90351z" data-paper-data="{&quot;index&quot;:null}"/><path d="M223.13576,233.64684l-7.11425,-36.57392l18.14947,-3.5304l7.11425,36.57392z"/><path d="M251.91776,234.47364l-25.99563,-25.79674l12.63918,-12.99233l25.99559,25.79677z"/><path d="M230.41766,210.31055l-14.62328,-32.88942l25.48672,-11.04544l14.62329,32.88944c0,0 -6.59298,2.85726 -10.37567,4.49662c-4.56497,1.97836 -15.11106,6.54882 -15.11106,6.54882z"/><path d="M237.85978,163.31633c-0.22298,8.50763 -7.74548,15.21199 -16.80198,14.97461c-9.05651,-0.23737 -16.21746,-7.32658 -15.99449,-15.83422c0.22298,-8.50763 7.74548,-15.21197 16.802,-14.97461c9.05651,0.23737 16.21748,7.32657 15.99449,15.83422z" data-paper-data="{&quot;index&quot;:null}"/><path d="M262.71814,176.99056l-16.95649,30.3767l-13.12288,-7.33019l16.95651,-30.37669z" data-paper-data="{&quot;index&quot;:null}"/></g></g></svg>