<svg version="1.1" xmlns="http://www.w3.org/2000/svg" xmlns:xlink="http://www.w3.org/1999/xlink" width="55.18375" height="91.02736" viewBox="0,0,55.18375,91.02736"><defs><radialGradient cx="227.4214" cy="206.94737" r="24.46682" gradientUnits="userSpaceOnUse" id="color-1"><stop offset="0" stop-color="#ffffff"/><stop offset="1" stop-color="#ffffff" stop-opacity="0"/></radialGradient><radialGradient cx="234.72581" cy="212.19404" r="24.46682" gradientUnits="userSpaceOnUse" id="color-2"><stop offset="0" stop-color="#ffffff"/><stop offset="1" stop-color="#ffffff" stop-opacity="0"/></radialGradient><radialGradient cx="216.74582" cy="202.44534" r="24.46682" gradientUnits="userSpaceOnUse" id="color-3"><stop offset="0" stop-color="#ffffff"/><stop offset="1" stop-color="#ffffff" stop-opacity="0"/></radialGradient><radialGradient cx="212.67465" cy="191.46759" r="24.46682" gradientUnits="userSpaceOnUse" id="color-4"><stop offset="0" stop-color="#ffffff"/><stop offset="1" stop-color="#ffffff" stop-opacity="0"/></radialGradient><radialGradient cx="214.08272" cy="180.48983" r="24.46682" gradientUnits="userSpaceOnUse" id="color-5"><stop offset="0" stop-color="#ffffff"/><stop offset="1" stop-color="#ffffff" stop-opacity="0"/></radialGradient><radialGradient cx="227.56502" cy="153.05266" r="24.46682" gradientUnits="userSpaceOnUse" id="color-6"><stop offset="0" stop-color="#ffffff"/><stop offset="1" stop-color="#ffffff" stop-opacity="0"/></radialGradient><radialGradient cx="234.86944" cy="147.80601" r="24.46682" gradientUnits="userSpaceOnUse" id="color-7"><stop offset="0" stop-color="#ffffff"/><stop offset="1" stop-color="#ffffff" stop-opacity="0"/></radialGradient><radialGradient cx="216.88944" cy="157.55469" r="24.46682" gradientUnits="userSpaceOnUse" id="color-8"><stop offset="0" stop-color="#ffffff"/><stop offset="1" stop-color="#ffffff" stop-opacity="0"/></radialGradient><radialGradient cx="212.81828" cy="168.53246" r="24.46682" gradientUnits="userSpaceOnUse" id="color-9"><stop offset="0" stop-color="#ffffff"/><stop offset="1" stop-color="#ffffff" stop-opacity="0"/></radialGradient><radialGradient cx="214.22635" cy="179.51021" r="24.46682" gradientUnits="userSpaceOnUse" id="color-10"><stop offset="0" stop-color="#ffffff"/><stop offset="1" stop-color="#ffffff" stop-opacity="0"/></radialGradient></defs><g transform="translate(-191.23183,-134.48633)"><g data-paper-data="{&quot;isPaintingLayer&quot;:true}" fill-rule="nonzero" stroke="none" stroke-width="0" stroke-linecap="butt" stroke-linejoin="miter" stroke-miterlimit="10" stroke-dasharray="" stroke-dashoffset="0" style="mix-blend-mode: normal"><path d="M222.47305,220.26703c-9.10966,0 -16.49449,-4.9143 -16.49449,-10.97639c0,-6.06209 7.38483,-10.97639 16.49449,-10.97639c9.10966,0 16.49449,4.9143 16.49449,10.97639c0,6.06209 -7.38484,10.97639 -16.49449,10.97639z" data-paper-data="{&quot;index&quot;:null}" fill="url(#color-1)"/><path d="M229.77746,225.5137c-9.10966,0 -16.49447,-4.91429 -16.49447,-10.97638c0,-6.06209 7.38483,-10.97639 16.49447,-10.97639c9.10966,0 16.49449,4.9143 16.49449,10.97639c0,6.06209 -7.38484,10.97638 -16.49449,10.97638z" data-paper-data="{&quot;index&quot;:null}" fill="url(#color-2)"/><path d="M211.79747,215.765c-9.10966,0 -16.49447,-4.9143 -16.49447,-10.97639c0,-6.06209 7.38483,-10.97639 16.49447,-10.97639c9.10966,0 16.49449,4.9143 16.49449,10.97639c0,6.06209 -7.38484,10.97639 -16.49449,10.97639z" data-paper-data="{&quot;index&quot;:null}" fill="url(#color-3)"/><path d="M207.7263,204.78725c-9.10966,0 -16.49447,-4.9143 -16.49447,-10.97639c0,-6.06209 7.38483,-10.97639 16.49447,-10.97639c9.10966,0 16.49449,4.9143 16.49449,10.97639c0,6.06209 -7.38484,10.97639 -16.49449,10.97639z" data-paper-data="{&quot;index&quot;:null}" fill="url(#color-4)"/><path d="M209.13437,193.80949c-9.10966,0 -16.49447,-4.9143 -16.49447,-10.97639c0,-6.06209 7.38483,-10.97639 16.49447,-10.97639c9.10966,0 16.49449,4.9143 16.49449,10.97639c0,6.06209 -7.38483,10.97639 -16.49449,10.97639z" data-paper-data="{&quot;index&quot;:null}" fill="url(#color-5)"/><path d="M239.11115,150.70939c0,6.06209 -7.38484,10.97639 -16.49449,10.97639c-9.10966,0 -16.49447,-4.9143 -16.49447,-10.97639c0,-6.06209 7.38483,-10.97638 16.49447,-10.97638c9.10966,0 16.49449,4.91429 16.49449,10.97638z" data-paper-data="{&quot;index&quot;:null}" fill="url(#color-6)"/><path d="M246.41558,145.46272c0,6.06209 -7.38484,10.97639 -16.49449,10.97639c-9.10966,0 -16.49447,-4.9143 -16.49447,-10.97639c0,-6.06209 7.38483,-10.97639 16.49447,-10.97639c9.10966,0 16.49449,4.9143 16.49449,10.97639z" data-paper-data="{&quot;index&quot;:null}" fill="url(#color-7)"/><path d="M228.43558,155.21143c0,6.06209 -7.38484,10.97639 -16.49449,10.97639c-9.10966,0 -16.49447,-4.9143 -16.49447,-10.97639c0,-6.06209 7.38483,-10.97639 16.49447,-10.97639c9.10966,0 16.49449,4.9143 16.49449,10.97639z" data-paper-data="{&quot;index&quot;:null}" fill="url(#color-8)"/><path d="M224.36442,166.18917c0,6.06209 -7.38483,10.97639 -16.49449,10.97639c-9.10966,0 -16.49447,-4.9143 -16.49447,-10.97639c0,-6.06209 7.38483,-10.97639 16.49447,-10.97639c9.10966,0 16.49449,4.9143 16.49449,10.97639z" data-paper-data="{&quot;index&quot;:null}" fill="url(#color-9)"/><path d="M225.77249,177.16694c0,6.06209 -7.38483,10.97639 -16.49449,10.97639c-9.10966,0 -16.49447,-4.9143 -16.49447,-10.97639c0,-6.06209 7.38483,-10.97639 16.49447,-10.97639c9.10966,0 16.49449,4.9143 16.49449,10.97639z" data-paper-data="{&quot;index&quot;:null}" fill="url(#color-10)"/></g></g></svg>