<svg version="1.1" xmlns="http://www.w3.org/2000/svg" xmlns:xlink="http://www.w3.org/1999/xlink" width="122.26217" height="19.72273" viewBox="0,0,122.26217,19.72273"><g transform="translate(-178.86964,-164.42515)"><g data-paper-data="{&quot;isPaintingLayer&quot;:true}" fill-rule="nonzero" stroke-linecap="butt" stroke-linejoin="miter" stroke-miterlimit="10" stroke-dasharray="" stroke-dashoffset="0" style="mix-blend-mode: normal"><path d="M181.36964,180.82102c0.22389,-7.68363 26.38781,-13.89588 58.63036,-13.89588c32.38146,0 58.63181,6.2659 58.63181,13.99527c0,0.66559 -0.19465,1.32033 -0.57111,1.96115" fill="none" stroke="#00abff" stroke-width="5"/><path d="M236.36207,176.33407c-1.05311,-1.05795 -11.76974,-2.60125 -12.93414,-3.56268c-2.73131,-2.25518 -5.2691,-3.98714 -5.2691,-3.98714c0,0 15.83903,-1.46038 22.77294,-1.46038c7.21704,0 19.71388,1.46038 19.71388,1.46038c0,0 -3.48075,2.29201 -6.77984,5.08969c-0.90594,0.76825 2.28055,2.14257 1.47784,2.95009c-1.17186,1.17889 -3.82454,2.12745 -5.58174,3.02863c-3.05039,0.07689 -6.1089,0.13987 -9.14658,0.33446c-3.48436,0.22335 -6.96654,0.41805 -10.45811,0.58162c-0.02917,0.00137 -0.05836,0.00272 -0.08755,0.00407c0.38001,-1.32133 8.07244,-2.65054 6.2924,-4.43875z" fill="#71d0ff" stroke="#00abff" stroke-width="5"/><path d="M212.2871,171.70379c-2.03433,-0.34685 -0.58124,-0.83244 -0.58124,-0.83244l2.10973,-0.67474c5.32495,-0.66689 9.93641,-0.82628 15.74925,-1.10506c0,0 2.45145,-0.11703 2.94174,0.46813c0.49029,0.58516 -1.96116,0.70219 -1.96116,0.70219c-4.85848,0.23094 -8.96083,0.34336 -13.48168,0.84211l-1.28921,0.4611c0,0 -1.4531,0.48559 -3.48743,0.13874z" fill="#a4e1ff" stroke="none" stroke-width="0.5"/><path d="M209.62071,173.17185c-1.38675,-0.49652 0.69338,-0.82754 0.69338,-0.82754l1.16609,-0.18387c5.00579,-0.67077 10.88917,-0.85362 16.52194,-1.04621c0,0 2.47487,-0.08439 2.82843,0.50635c0.35355,0.59075 -2.12132,0.67514 -2.12132,0.67514c-4.89613,0.16649 -10.42095,0.29723 -14.74836,0.90096l-0.87328,0.14067c0,0 -2.08013,0.33101 -3.46688,-0.16551z" fill="#a4e1ff" stroke="none" stroke-width="0.5"/><path d="M222.79662,173.65215c0,-0.59674 2.5,-0.59674 2.5,-0.59674h2.71916c3.62739,0 7.12442,0.01164 10.74434,0.08319c0,0 2.49136,0.04955 2.28375,0.64424c-0.20761,0.59468 -2.69898,0.54512 -2.69898,0.54512c-3.48271,-0.06973 -6.8385,-0.07907 -10.32912,-0.07907h-2.71916c0,0 -2.5,0 -2.5,-0.59674z" fill="#a4e1ff" stroke="none" stroke-width="0.5"/><path d="M249.38303,170.4244c0.60634,-0.57893 3.0317,-0.43419 3.0317,-0.43419l2.71916,0.16226c5.24203,0.32426 9.19211,1.17827 14.55145,1.45677c0,0 2.44047,0.12945 1.89814,0.71199c-0.54233,0.58254 -2.98279,0.45308 -2.98279,0.45308c-5.40423,-0.29164 -9.45953,-1.16725 -14.67948,-1.46398l-2.71916,-0.16226c0,0 -2.42536,-0.14473 -1.81902,-0.72366z" fill="#a4e1ff" stroke="none" stroke-width="0.5"/><path d="M258.91072,174.24017c-0.69781,-0.02695 -2.12465,-0.13719 -2.12465,-0.58802c0,-0.59674 2.5,-0.59674 2.5,-0.59674l1.58024,0.07862c1.74565,0.2394 3.5958,0.4354 5.46634,0.61311c0,0 2.32119,0.22163 1.39272,0.77569c-0.92848,0.55406 -3.24967,0.33244 -3.24967,0.33244c-1.89634,-0.18189 -3.77175,-0.38098 -5.56497,-0.6151z" fill="#a4e1ff" stroke="none" stroke-width="0.5"/><path d="M246.49082,172.02951c0,0.59674 -2.5,0.59674 -2.5,0.59674l-1.92014,-0.07862c-1.12845,-0.16851 -2.52807,-0.2587 -3.85807,-0.2459c0,0 -2.5,0 -2.5,-0.59674c0,-0.59674 2.5,-0.59674 2.5,-0.59674c2.18596,0.013 4.41395,0.15549 6.33877,0.40315l-0.56056,-0.07862c0,0 2.5,0 2.5,0.59674z" fill="#a4e1ff" stroke="none" stroke-width="0.5"/><path d="M265.16263,177.26892c-2.23607,0.26687 -3.3541,-0.26687 -3.3541,-0.26687l-0.90361,-0.43739c-1.88325,-0.80791 -5.06324,-0.86075 -8.75663,-0.85538c0,0 -2.5,0 -2.5,-0.59674c0,-0.59674 2.5,-0.59674 2.5,-0.59674c3.48462,0.00415 7.89634,0.0794 10.78071,0.62572c1.04055,0.19709 1.47727,0.52706 2.21591,0.7906l1.13576,0.53619c0,0 1.11803,0.53374 -1.11803,0.80061z" fill="#a4e1ff" stroke="none" stroke-width="0.5"/><path d="M220.75725,176.24838c0,-0.59674 2.5,-0.59674 2.5,-0.59674l-0.26644,0.01782c5.16727,-0.30587 10.59168,-0.34109 15.90159,-0.34234c0,0 2.5,0 2.5,0.59674c0,0.59674 -2.5,0.59674 -2.5,0.59674c-4.88366,-0.00123 -9.93973,0.02073 -14.68892,0.30671l-0.94623,0.01782c0,0 -2.5,0 -2.5,-0.59674z" fill="#a4e1ff" stroke="none" stroke-width="0.5"/></g></g></svg>