<svg version="1.1" xmlns="http://www.w3.org/2000/svg" xmlns:xlink="http://www.w3.org/1999/xlink" width="699.6982" height="104.65311" viewBox="0,0,699.6982,104.65311"><defs><linearGradient x1="240.00002" y1="144.71472" x2="240.00002" y2="215.28529" gradientUnits="userSpaceOnUse" id="color-1"><stop offset="0" stop-color="#b1b1b1"/><stop offset="1" stop-color="#7e7e7e"/></linearGradient></defs><g transform="translate(109.8491,-111.38219)"><g data-paper-data="{&quot;isPaintingLayer&quot;:true}" fill-rule="nonzero" stroke-linecap="butt" stroke-linejoin="miter" stroke-miterlimit="10" stroke-dasharray="" stroke-dashoffset="0" style="mix-blend-mode: normal"><path d="M-109.0991,215.28529v-70.57057h257.92811c0.12492,0.05815 0.25073,0.11433 0.37748,0.16842c2.34952,1.00276 4.84593,1.82831 7.39351,2.01685c1.57513,0.11657 3.04387,-0.86947 4.60182,-1.12913c2.58207,-0.43035 6.4558,0.07139 9,0c0.4895,-0.37704 1.02172,-0.72529 1.57974,-1.05614h417.31754v70.57057z" fill="url(#color-1)" stroke="#000000" stroke-width="1.5"/><path d="M95.10001,143.89999c0,-2.5 2.5,-2.5 2.5,-2.5h2c0.98495,0.01223 1.96933,0.12593 2.9209,-0.00218c1.71794,0.50218 3.0791,0.50218 3.0791,0.50218l5.16228,-0.51317c6.60226,-2.825 11.93432,1.57379 18.2359,2.38404c3.89352,0.50063 8.38009,-0.36274 12.20364,-1c1.03975,-0.17329 1.96598,-0.79526 3,-1c0.07017,-0.01389 0.14421,-0.01242 0.22043,-0.00118c1.46147,1.22212 3.03466,2.36675 4.78423,3.11346c0.45358,0.19359 0.91264,0.38057 1.37648,0.55763c-0.94729,1.5722 -3.70318,1.09097 -5.55736,0.89234c-1.48223,-0.15878 -2.56748,-1.58754 -4,-2c-0.41013,-0.11809 -0.83506,-0.19406 -1.26743,-0.24762c-0.85482,1.38956 -2.5336,2.4941 -4.43373,3.20723c-1.18766,0.44573 -2.55306,0.4189 -3.82271,0.14377c-0.38028,0.43068 -0.78516,0.8016 -1.32737,0.89662c-2.322,0.40691 -4.75621,-1.60789 -6.97484,-1.9654c-0.98726,-0.15909 -2.01439,0.16905 -3,0c-1.03389,-0.17733 -2.05392,-0.46478 -3.06903,-0.79759c-2.16095,-0.04073 -4.26313,-0.89387 -6.43453,-1.1175c-0.34098,0.31483 -0.71066,0.58403 -1.13928,0.75707c-1.0321,0.41667 -2.19847,0.22103 -3.32934,0.18729c-2.49427,1.26572 -3.75517,0.97574 -6.62737,1.00301h-2c0,0 -2.5,0 -2.5,-2.5z" fill="#de7506" stroke="none" stroke-width="0.5"/><path d="" fill="#de7506" stroke="none" stroke-width="0.5"/><path d="" fill="#de7506" stroke="none" stroke-width="0.5"/><path d="" fill="#de7506" stroke="none" stroke-width="0.5"/><path d="" fill="#de7506" stroke="none" stroke-width="0.5"/><path d="M190.97477,111.38219c-0.14229,0.02778 -0.27806,0.04354 -0.40753,0.04883c0.13558,-0.01604 0.27145,-0.0323 0.40753,-0.04883z" fill="#de7506" stroke="none" stroke-width="0.5"/><path d="" fill="#de7506" stroke="none" stroke-width="0.5"/></g></g></svg>