<svg version="1.1" xmlns="http://www.w3.org/2000/svg" xmlns:xlink="http://www.w3.org/1999/xlink" width="55.43275" height="100.78478" viewBox="0,0,55.43275,100.78478"><g transform="translate(-204.75839,-134.34985)"><g data-paper-data="{&quot;isPaintingLayer&quot;:true}" fill="#b1b1b1" fill-rule="nonzero" stroke="#000000" stroke-width="1.5" stroke-linecap="butt" stroke-linejoin="miter" stroke-miterlimit="10" stroke-dasharray="" stroke-dashoffset="0" style="mix-blend-mode: normal"><path d="M236.18053,196.90493l1.17596,-34.76901l15.02264,0.51236l-1.17599,34.769z" data-paper-data="{&quot;index&quot;:null}"/><path d="M241.22843,229.16648l-3.97482,-36.54681l18.13601,-1.97247l3.97482,36.54681z"/><path d="M219.81742,233.48938l1.73533,-37.21898l18.46957,0.86113l-1.73533,37.21898z"/><path d="M222.3211,200.98529l-6.52387,-35.42091l28.25561,-5.20416l6.52387,35.42092c0,0 -7.30925,1.34622 -11.50288,2.11862c-5.06092,0.93212 -16.75274,3.08554 -16.75274,3.08554z"/><path d="M239.91069,147.30012c1.68766,8.34153 -4.14263,16.56006 -13.02233,18.35661c-8.87969,1.79654 -17.44622,-3.50922 -19.13389,-11.85075c-1.68766,-8.34153 4.14263,-16.56005 13.02233,-18.3566c8.87969,-1.79654 17.44622,3.50921 19.13389,11.85075z" data-paper-data="{&quot;index&quot;:null}"/><path d="M205.57184,201.62654l3.07919,-34.65235l14.97276,1.32619l-3.07919,34.65235z" data-paper-data="{&quot;index&quot;:null}"/></g></g></svg>