<svg version="1.1" xmlns="http://www.w3.org/2000/svg" xmlns:xlink="http://www.w3.org/1999/xlink" width="55.35753" height="101.59272" viewBox="0,0,55.35753,101.59272"><g transform="translate(-213.46914,-130.23423)"><g data-paper-data="{&quot;isPaintingLayer&quot;:true}" fill="#b1b1b1" fill-rule="nonzero" stroke="#000000" stroke-width="1.5" stroke-linecap="butt" stroke-linejoin="miter" stroke-miterlimit="10" stroke-dasharray="" stroke-dashoffset="0" style="mix-blend-mode: normal"><path d="M214.48548,190.47512l16.54503,-30.60277l13.22064,7.15243l-16.54503,30.60275z" data-paper-data="{&quot;index&quot;:null}"/><path d="M215.18899,225.29335l11.26443,-34.99401l17.36547,5.58987l-11.26444,34.99401z"/><path d="M248.28625,230.71478l-9.69248,-35.97664l17.85308,-4.80981l9.69248,35.97664z"/><path d="M226.27947,195.81146l2.82516,-35.90572l28.64235,2.25366l-2.82516,35.90572c0,0 -7.4093,-0.58298 -11.66032,-0.91746c-5.13019,-0.40365 -16.98202,-1.33619 -16.98202,-1.33619z"/><path d="M261.28289,147.68783c-0.66757,8.48432 -8.53037,14.78614 -17.56207,14.07549c-9.0317,-0.71064 -15.81216,-8.16462 -15.14459,-16.64894c0.66757,-8.48432 8.53037,-14.78613 17.56207,-14.07549c9.0317,0.71064 15.81216,8.16462 15.14459,16.64894z" data-paper-data="{&quot;index&quot;:null}"/><path d="M253.46492,198.91374l-9.71483,-33.40493l14.43221,-4.20161l9.71483,33.40493z" data-paper-data="{&quot;index&quot;:null}"/></g></g></svg>