<svg version="1.1" xmlns="http://www.w3.org/2000/svg" xmlns:xlink="http://www.w3.org/1999/xlink" width="89.10197" height="112.54708" viewBox="0,0,89.10197,112.54708"><g transform="translate(-196.55238,-118.25279)"><g data-paper-data="{&quot;isPaintingLayer&quot;:true}" fill-rule="nonzero" stroke-linejoin="miter" stroke-miterlimit="10" stroke-dasharray="" stroke-dashoffset="0" style="mix-blend-mode: normal"><path d="M229.41232,227.16026l4.22994,-36.51815l18.12179,2.09908l-4.22995,36.51815z" fill="#9b6a16" stroke="#000000" stroke-width="1.5" stroke-linecap="butt"/><path d="M220.39317,227.84108l4.28714,-37.01194l18.36684,2.12746l-4.28714,37.01194z" fill="#9b6a16" stroke="#000000" stroke-width="1.5" stroke-linecap="butt"/><path d="M249.88876,174.06462l-30.73278,16.30222l-7.03999,-13.28084l30.73278,-16.30221z" data-paper-data="{&quot;index&quot;:null}" fill="#b1b1b1" stroke="#000000" stroke-width="1.5" stroke-linecap="butt"/><g stroke="#000000" stroke-linecap="butt"><path d="M224.03107,194.3373l4.14415,-35.77748l28.54004,3.30583l-4.14416,35.77749c0,0 -7.38284,-0.85517 -11.61868,-1.34581c-5.11186,-0.59211 -16.92137,-1.96002 -16.92137,-1.96002z" fill="#9b6a16" stroke-width="1.5"/><path d="M240.13855,167.02755c0.32776,1.41446 0.29685,2.73022 -0.41451,4.00076c-0.40146,0.71703 -1.93951,0.8413 -1.82696,1.65534c0.41028,2.96743 -2.35207,4.08714 -4.89711,2.57765c-1.15886,-0.68732 -0.331,-3.19638 -0.51905,-3.39086c-1.27852,-1.32226 -2.99265,-1.34939 -3.08833,-3.76978c-0.04883,-1.235 1.97462,-4.15922 3.5072,-3.54429c0.20489,-0.02831 0.41666,-0.03147 0.63166,-0.00656c0.51021,0.05909 0.96666,0.26789 1.33056,0.57745c2.2008,0.51535 4.7216,-0.49458 5.27657,1.90029z" fill="#b1b1b1" stroke-width="1"/><path d="M250.33225,191.91187c-0.49273,0.45613 -6.90536,2.59931 -7.04755,2.58284c-3.73619,-0.43276 -5.76195,-6.30046 -2.73554,-8.59544c2.33389,-1.76985 5.02446,-0.1996 7.41653,-0.39639c0.17745,-0.01813 0.35957,-0.01742 0.54407,0.00396c1.30131,0.15073 2.2529,1.27529 2.21126,2.56151c0.5131,1.38986 0.53854,2.98507 -0.38878,3.84353z" fill="#b1b1b1" stroke-width="1"/></g><g><path d="M236.03298,156.52913l-14.08917,-5.11314l10.17951,-0.33444l-15.01987,-4.91823l11.33973,0.10266l-15.53079,-5.73418l9.70783,1.12447l0.52361,-1.90696l-7.37471,-2.97319l9.96097,0.24566l1.54079,-2.84862l2.28756,-2.76212l4.28101,-2.98529l6.30274,-2.14569l5.36568,-0.58932l3.01702,-2.52628l3.21191,-1.59558l7.11235,-1.29513l6.57146,0.76118l-3.07988,1.76221l-2.35041,1.99806l-1.70746,2.98068l2.79212,-0.58471l4.99779,-0.02653l5.07794,0.58819l5.68631,1.86947l2.74483,2.43691l-3.58443,-0.4152l-5.53234,0.72137l-4.40673,1.45718l-3.04527,1.46353l-3.66631,2.90513l2.97607,-0.86612l2.45882,-0.32061l6.50226,1.35858l4.45054,3.39125l-1.84412,0.24045l-5.11888,1.07198l-3.16002,1.14752l-2.96512,2.07823l-2.7875,3.15828l2.04536,-0.67122l2.83768,0.3287l3.19288,2.48882l-1.79223,-0.2076l-3.55617,0.64757l-3.85488,0.61297l-3.02798,1.31416z" fill="#000000" stroke="#000000" stroke-width="4" stroke-linecap="round"/><path d="M260.78117,147.53397c-0.97923,8.45401 -9.06856,14.46231 -18.068,13.41989c-8.99944,-1.04241 -15.50109,-8.74079 -14.52185,-17.19481c0.97923,-8.45401 9.06854,-14.4623 18.06799,-13.41989c8.99944,1.04241 15.5011,8.74079 14.52185,17.19482z" data-paper-data="{&quot;index&quot;:null}" fill="#b1b1b1" stroke="#000000" stroke-width="1.5" stroke-linecap="butt"/><path d="M242.72761,136.09832c0.05968,-0.02166 0.11815,-0.0419 0.17544,-0.06067c0.3073,-0.13086 0.64697,-0.19585 0.99918,-0.17928c0.11929,0.00243 0.23204,0.01607 0.33917,0.04112c1.15858,0.22817 1.96528,1.31304 1.82707,2.5062c0.24078,0.66317 -0.17643,1.09627 -0.72842,1.42445c-0.3186,0.29106 -0.71798,0.49136 -1.15455,0.56639c-0.19138,0.09474 -0.34891,0.18655 -0.44167,0.28285c-0.10011,0.10393 -0.21033,0.22173 -0.32958,0.35085c1.3025,1.52698 2.03098,3.06803 1.22071,4.02357c-0.49678,0.58585 -1.40043,0.72356 -2.16596,0.78655c-0.14918,0.01227 -1.09192,-0.66498 -2.24185,-1.5431c-1.67439,1.48095 -3.52414,2.59318 -4.87669,1.70903c-1.4248,-0.93138 -1.20027,-2.07781 -0.66281,-3.16504c0.09537,-0.19293 0.7435,-0.82974 1.63078,-1.63659c-0.41833,-0.34123 -0.72194,-0.59375 -0.84001,-0.69858c-0.11365,-0.07094 -0.2203,-0.15144 -0.31898,-0.24029c-0.5317,-0.47872 -0.83135,-1.19902 -0.74275,-1.96383c0.1292,-1.11549 1.04076,-1.95002 2.12316,-2.01906c0.09133,-0.01825 0.18644,-0.02491 0.28596,-0.01808c0.09442,0.00649 0.20245,0.02694 0.32237,0.06031c0.26822,0.05477 0.51732,0.15555 0.73989,0.29293c0.62567,0.30246 1.39155,0.78021 2.18583,1.36374c1.1993,-0.97209 2.19212,-1.70845 2.44255,-1.74111z" fill="#000000" stroke="none" stroke-width="0.5" stroke-linecap="butt"/><path d="M253.36786,138.19026c0.19222,0.07241 0.84142,0.84004 1.61026,1.83271c0.7374,-0.31436 1.43262,-0.55021 1.98425,-0.67339c0.20179,-0.06741 0.41774,-0.10086 0.6403,-0.09438c0.10116,-0.00413 0.19051,-0.00023 0.26648,0.01219c0.08008,0.0131 0.15414,0.03605 0.22307,0.06749c0.84419,0.2559 1.41078,1.08615 1.3057,1.99338c-0.07205,0.62203 -0.44322,1.13666 -0.95322,1.41684c-0.09464,0.052 -0.19407,0.09591 -0.29724,0.13095c-0.11299,0.06105 -0.40031,0.20455 -0.79497,0.39695c0.55253,0.80381 0.94729,1.42852 0.98695,1.59902c0.2234,0.96078 0.18805,1.91024 -1.11324,2.38277c-1.23531,0.44859 -2.4931,-0.77596 -3.54352,-2.25985c-1.07373,0.48148 -1.94612,0.84245 -2.06195,0.805c-0.59442,-0.19217 -1.28431,-0.46925 -1.56873,-1.02548c-0.46389,-0.90723 0.3994,-1.99196 1.71458,-2.95883c-0.07041,-0.12441 -0.13578,-0.23815 -0.19573,-0.33907c-0.05555,-0.09349 -0.16318,-0.19549 -0.29711,-0.30607c-0.33173,-0.14058 -0.6107,-0.37342 -0.80885,-0.66311c-0.37603,-0.36246 -0.62585,-0.78297 -0.31192,-1.26329c0.1124,-0.97043 0.95282,-1.67943 1.9126,-1.64468c0.08947,0.00009 0.18128,0.01022 0.27618,0.0305c0.28195,0.05238 0.53882,0.16697 0.75782,0.32771c0.04187,0.0255 0.08439,0.05241 0.12762,0.08066z" data-paper-data="{&quot;index&quot;:null}" fill="#000000" stroke="none" stroke-width="0.5" stroke-linecap="butt"/><path d="M244.9426,156.61236c-2.47909,-0.0956 -6.26022,-0.40097 -8.01471,-2.50794c-0.40514,-0.48652 -0.24835,-2.03589 -0.1018,-2.62951c0.90065,-3.64813 5.04117,-2.68955 7.79729,-2.37031l0.03,-0.01089c0.36615,-0.14172 0.77114,-0.19903 1.18825,-0.15071c0.09322,0.01079 0.18464,0.02659 0.27403,0.04708c7.45259,-0.06449 5.349,7.8738 -1.17305,7.62229z" fill="#000000" stroke="none" stroke-width="0.5" stroke-linecap="butt"/><path d="M238.56216,126.85378l-6.0075,10.05034c0,0 -2.54596,2.34631 -2.85671,3.75569c-0.31074,1.40938 1.26227,3.47602 1.26227,3.47602c0,0 -1.90092,-0.26371 -2.6308,-0.67855c-0.53054,-0.30154 0.12933,-0.6881 -0.19582,-1.08608c-0.72716,-0.89007 -1.68043,-3.75213 -1.68043,-3.75213l3.49966,-2.77309" fill="none" stroke="#000000" stroke-width="4" stroke-linecap="round"/><path d="M234.45878,130.91913l-0.39788,3.43508l2.39883,5.42393l0.65103,-4.31389l1.89141,-3.26208l5.55137,-4.80577l15.3895,0.42038l2.25584,4.04516l-2.44961,5.46776l-2.06901,2.18203l0.34599,-2.98701l-1.34242,-4.09073l-6.26005,-3.4495l1.65208,5.33743l-2.72466,3.92234l-1.34243,-4.09072l-3.27303,-3.10352l-2.97433,-3.06892z" fill="#000000" stroke="#000000" stroke-width="4" stroke-linecap="round"/></g><g stroke="#000000" stroke-width="1.5" stroke-linecap="butt"><path d="M278.49057,179.61623l-34.77193,-1.08586l0.46492,-15.02418l34.77194,1.08588z" data-paper-data="{&quot;index&quot;:null}" fill="#b1b1b1"/><path d="M268.78544,179.31316l-25.0668,-0.78279l0.46492,-15.02418l24.28494,0.75838z" data-paper-data="{&quot;index&quot;:null}" fill="#9b6a16"/><path d="M261.95488,174.04145c-1.37332,0.1426 -2.60222,-0.85512 -2.74483,-2.22845c-0.1426,-1.37332 0.85511,-2.60223 2.22844,-2.74483c1.37332,-0.1426 2.60223,0.85512 2.74483,2.22845c0.1426,1.37332 -0.85511,2.60223 -2.22844,2.74483z" fill="#b1b1b1"/><path d="M247.44147,173.62894c-0.32422,-2.14162 1.64724,-4.53916 3.85664,-4.58164c3.49027,-0.06707 2.40406,5.77628 0.19995,6.12963c-0.36298,0.29308 -0.81207,0.48805 -1.31069,0.53982c-1.2212,0.12681 -2.3282,-0.64806 -2.65873,-1.78691c-0.04116,-0.09314 -0.07084,-0.19307 -0.08716,-0.30092z" fill="#b1b1b1"/></g></g></g></svg>