<svg version="1.1" xmlns="http://www.w3.org/2000/svg" xmlns:xlink="http://www.w3.org/1999/xlink" width="77.00315" height="75.30774" viewBox="0,0,77.00315,75.30774"><g transform="translate(-188.30175,-178.69955)"><g data-paper-data="{&quot;isPaintingLayer&quot;:true}" fill="#b1b1b1" fill-rule="nonzero" stroke="#000000" stroke-width="1.5" stroke-linecap="butt" stroke-linejoin="miter" stroke-miterlimit="10" stroke-dasharray="" stroke-dashoffset="0" style="mix-blend-mode: normal"><path d="M201.84764,227.3214l36.30996,5.74933l-2.85306,18.01848l-36.30996,-5.74933z"/><path d="M189.31869,236.74008l32.74674,-17.77399l8.82018,16.25027l-32.74674,17.77399z"/><g><path d="M251.92009,240.30225l-19.8703,-28.55586l12.34068,-8.58194l19.87031,28.55587z" data-paper-data="{&quot;index&quot;:null}"/><path d="M213.25352,232.39789l16.64591,-31.93924l25.47825,13.27862l-16.64593,31.93925c0,0 -6.59081,-3.43496 -10.37222,-5.40574c-4.56346,-2.37835 -15.10603,-7.87288 -15.10603,-7.87288z"/><path d="M235.60664,247.3709l-18.67121,-29.35392l12.68076,-8.07094l18.67121,29.35392z"/><path d="M253.99093,209.96309c-7.43756,4.13667 -17.03668,1.07178 -21.44022,-6.84563c-4.40355,-7.9174 -1.94398,-17.68916 5.49357,-21.82582c7.43756,-4.13667 17.03667,-1.07177 21.44021,6.84563c4.40355,7.9174 1.944,17.68915 -5.49357,21.82582z" data-paper-data="{&quot;index&quot;:null}"/></g></g></g></svg>