<svg version="1.1" xmlns="http://www.w3.org/2000/svg" xmlns:xlink="http://www.w3.org/1999/xlink" width="126.5" height="126.5" viewBox="0,0,126.5,126.5"><g transform="translate(-176.75,-116.75)"><g data-paper-data="{&quot;isPaintingLayer&quot;:true}" fill-rule="nonzero" stroke-linecap="butt" stroke-linejoin="miter" stroke-miterlimit="10" stroke-dasharray="" stroke-dashoffset="0" style="mix-blend-mode: normal"><path d="M179.25,180c0,-33.5513 27.1987,-60.75 60.75,-60.75c33.5513,0 60.75,27.1987 60.75,60.75c0,33.5513 -27.1987,60.75 -60.75,60.75c-33.5513,0 -60.75,-27.1987 -60.75,-60.75z" fill="none" stroke="#00abff" stroke-width="5"/><path d="M208.5,229.33333c0,0 19,-33.61365 19,-51.5c0,-15.64639 -19,-50 -19,-50c0,0 4.36793,-3.4299 11.25644,-5.61135c5.61051,-1.77673 13.39803,-2.38865 17.74356,-2.38865c4.81671,0 12.90273,0.70621 19.13476,2.54271c7.26251,2.14017 12.36524,5.45729 12.36524,5.45729c0,0 -18,33.05085 -18,49.5c0,17.78047 18,53.5 18,53.5c0,0 -2.28075,1.80265 -7.96054,4.2513c-6.44889,2.78023 -16.70138,4.7487 -22.53946,4.7487c-4.02845,0 -11.86662,-1.30447 -17.99776,-3.75422c-6.95617,-2.77939 -12.00224,-6.74578 -12.00224,-6.74578z" fill="#71d0ff" stroke="#00abff" stroke-width="5"/><path d="M199.41648,164.08632c-2.25299,-1.08352 -1.16947,-3.33651 -1.16947,-3.33651l0.92169,-1.84572c0.52305,-1.71167 0.84125,-3.4999 1.56914,-5.135c1.35699,-3.04827 3.82572,-5.0198 5.82881,-7.52074c1.5642,-1.95297 2.97776,-4.17319 5.08597,-5.52087c1.77672,-1.13578 4.01166,-1.33061 5.92473,-2.21768c1.36608,-0.63344 2.46763,-1.7472 3.81573,-2.41807c2.37129,-1.18007 5.36725,-1.93134 7.92012,-2.66222c0,0 2.40381,-0.6868 3.09061,1.71701c0.6868,2.40381 -1.71701,3.09061 -1.71701,3.09061c-4.31258,1.2295 -7.25291,3.07623 -11.26415,4.9197c-1.62922,0.74875 -3.55965,0.82424 -5.07527,1.78232c-1.67598,1.05946 -2.67631,2.93013 -3.91403,4.47913c-3.10382,3.8844 -4.99756,5.88781 -6.47553,10.92253l-1.20483,2.57602c0,0 -1.08352,2.25299 -3.33651,1.16947z" fill="#a4e1ff" stroke="none" stroke-width="0.5"/><path d="M213.26393,159.45136c-1.11803,-2.23607 1.11803,-3.3541 1.11803,-3.3541l0.11803,0.23607c2.10985,-2.74232 4.79609,-4.31354 7.23223,-6.76777c0,0 1.76777,-1.76777 3.53553,0c1.76777,1.76777 0,3.53553 0,3.53553c-2.23667,2.22233 -4.94778,3.71622 -6.76777,6.23223l-1.88197,1.23607c0,0 -2.23607,1.11803 -3.3541,-1.11803z" fill="#a4e1ff" stroke="none" stroke-width="0.5"/><path d="M274.5,153.33333c-2.5,0 -2.5,-2.5 -2.5,-2.5l0.35627,0.28624c-1.5784,-2.64602 -2.0167,-5.13903 -3.16597,-7.82953c-0.63891,-1.49573 -2.10192,-2.49971 -3.32831,-3.56807c-3.72127,-3.24177 -7.12863,-4.70308 -11.79047,-6.56744c0,0 -2.32119,-0.92848 -1.39272,-3.24967c0.92848,-2.32119 3.24967,-1.39272 3.24967,-1.39272c6.75857,2.70396 14.53314,5.79308 17.88122,12.86448c1.17042,2.47203 1.34295,4.70182 2.83403,7.17047l0.35627,2.28624c0,0 0,2.5 -2.5,2.5z" fill="#a4e1ff" stroke="none" stroke-width="0.5"/><path d="M282,170.33333c-2,1.5 -3.5,-0.5 -3.5,-0.5l-1.57462,-2.10503c-0.9343,-1.60729 -2.40851,-2.83788 -3.72054,-4.15503c-2.65546,-2.66581 -4.13789,-6.53924 -8.32103,-7.31337c-4.9539,-0.91678 -8.93039,-0.50123 -13.50184,-2.6905c0,0 -2.23607,-1.11803 -1.11803,-3.3541c1.11803,-2.23607 3.3541,-1.11803 3.3541,-1.11803c3.87854,2.05733 8.12521,1.38762 12.44853,2.30454c5.3216,1.12865 7.26609,5.24312 10.7286,8.69159c1.52675,1.52056 3.15025,3.00977 4.27946,4.84497l1.42538,1.89497c0,0 1.5,2 -0.5,3.5z" fill="#a4e1ff" stroke="none" stroke-width="0.5"/><path d="M286.88675,155.41346c-2.08013,1.38675 -3.46688,-0.69338 -3.46688,-0.69338l-0.41987,-0.88675c-1.6538,-1.28125 -3.04286,-2.93479 -4.14373,-4.71376c0,0 -1.28624,-2.14373 0.85749,-3.42997c2.14373,-1.28624 3.42997,0.85749 3.42997,0.85749c0.72275,1.25859 1.6754,2.44247 2.85627,3.28624l1.58013,2.11325c0,0 1.38675,2.08013 -0.69338,3.46688z" fill="#a4e1ff" stroke="none" stroke-width="0.5"/><path d="M249,142.83333c0,2.5 -2.5,2.5 -2.5,2.5l-2.25483,-0.01205c-2.47058,0.50126 -4.98814,0.74737 -7.49641,0.99964c0,0 -2.48759,0.24876 -2.73635,-2.23883c-0.24876,-2.48759 2.23883,-2.73635 2.23883,-2.73635c2.51095,-0.24957 5.02715,-0.5162 7.50359,-1.00036l2.74517,-0.01205c0,0 2.5,0 2.5,2.5z" fill="#a4e1ff" stroke="none" stroke-width="0.5"/><path d="M257.12829,227.6239c-0.79057,-2.37171 1.58114,-3.16228 1.58114,-3.16228l2.69219,-0.87408c5.23201,-3.53813 7.39906,-7.60262 10.94555,-12.68969c0.89058,-1.27745 2.18835,-2.27616 2.90499,-3.6587c0.55973,-1.07982 0.52687,-2.37534 0.83292,-3.55247c0.90083,-3.46483 1.93858,-6.65281 2.44004,-10.20689c0,0 0.35355,-2.47487 2.82843,-2.12132c2.47487,0.35355 2.12132,2.82843 2.12132,2.82843c-0.54105,3.74541 -1.56684,7.15068 -2.55996,10.79311c-0.40318,1.47872 -0.47405,3.08046 -1.16708,4.44753c-0.80315,1.58429 -2.22786,2.77131 -3.23441,4.23482c-2.39794,3.48658 -4.21903,7.42694 -7.27348,10.46616c-1.01239,1.00734 -4.75341,3.36527 -5.64156,3.95063l-3.30781,1.12592c0,0 -2.37171,0.79057 -3.16228,-1.58114z" fill="#a4e1ff" stroke="none" stroke-width="0.5"/><path d="M229.12829,219.04276c0.79057,-2.37171 3.16228,-1.58114 3.16228,-1.58114l2.81206,0.94543c4.67513,0.78075 10.19207,1.07221 14.84759,-0.01252c2.01184,-0.46875 3.88136,-1.43201 5.87614,-1.96873c3.39345,-0.91306 7.09148,-2.39311 8.35245,-6.02094c0,0 0.92848,-2.32119 3.24967,-1.39272c2.32119,0.92848 1.39272,3.24967 1.39272,3.24967c-2.21287,5.11836 -6.50122,7.55783 -11.64755,8.97906c-2.07305,0.5725 -4.02744,1.55136 -6.12386,2.03127c-5.43417,1.24398 -11.70444,0.89408 -17.15241,-0.01252l-3.18794,-1.05457c0,0 -2.37171,-0.79057 -1.58114,-3.16228z" fill="#a4e1ff" stroke="none" stroke-width="0.5"/><path d="M192.21376,213.1896c2.14373,-1.28624 3.42997,0.85749 3.42997,0.85749l1.32678,2.24771c2.73114,2.86952 6.91679,2.80074 10.46157,4.21879c3.76384,1.50567 6.9959,4.40522 10.58834,6.03748c1.53498,0.69743 3.34052,0.47934 4.98865,0.83465c4.64096,1.00051 8.72366,0.94762 13.49093,0.94762c0,0 2.5,0 2.5,2.5c0,2.5 -2.5,2.5 -2.5,2.5c-5.09915,0 -9.52255,0.00995 -14.50907,-1.05238c-1.09879,-0.23409 -5.00326,-0.72384 -6.01135,-1.16535c-3.57052,-1.56377 -6.70946,-4.48179 -10.41166,-5.96252c-4.82823,-1.9311 -8.63408,-1.97695 -12.53843,-5.78121l-1.67322,-2.75229c0,0 -1.28624,-2.14373 0.85749,-3.42997z" fill="#a4e1ff" stroke="none" stroke-width="0.5"/><path d="M206.11325,198.2532c2.08013,-1.38675 3.46688,0.69338 3.46688,0.69338l0.68764,1.11898c4.38287,4.45714 8.19044,5.26777 14.23223,5.26777c0,0 2.5,0 2.5,2.5c0,2.5 -2.5,2.5 -2.5,2.5c-2.14873,0 -4.35101,0.43716 -6.44606,-0.04012c-4.79677,-1.09275 -7.92881,-3.34607 -11.3217,-6.69212l-1.31236,-1.88102c0,0 -1.38675,-2.08013 0.69338,-3.46688z" fill="#a4e1ff" stroke="none" stroke-width="0.5"/><path d="M186,195.33333c2,-1.5 3.5,0.5 3.5,0.5l1.17435,1.64351c1.57569,0.91198 2.84075,2.32736 4.47238,3.135c1.08743,0.53826 2.41836,0.4502 3.5,1c1.81732,0.92375 3.22223,2.49852 4.85328,3.72149c0,0 2,1.5 0.5,3.5c-1.5,2 -3.5,0.5 -3.5,0.5c-1.40953,-1.05741 -2.56476,-2.50245 -4.14672,-3.27851c-1.08934,-0.53439 -2.41673,-0.45342 -3.5,-1c-2.00724,-1.01278 -3.61458,-2.68389 -5.52762,-3.865l-1.82565,-2.35649c0,0 -1.5,-2 0.5,-3.5z" fill="#a4e1ff" stroke="none" stroke-width="0.5"/></g></g></svg>