<svg version="1.1" xmlns="http://www.w3.org/2000/svg" xmlns:xlink="http://www.w3.org/1999/xlink" width="112.27073" height="79.46907" viewBox="0,0,112.27073,79.46907"><defs><radialGradient cx="82.37494" cy="95.87793" r="0.00125" gradientUnits="userSpaceOnUse" id="color-1"><stop offset="0" stop-color="#000000"/><stop offset="1" stop-color="#000000" stop-opacity="0"/></radialGradient></defs><g transform="translate(-164.74989,-168.48317)"><g data-paper-data="{&quot;isPaintingLayer&quot;:true}" fill-rule="nonzero" stroke-linecap="butt" stroke-linejoin="miter" stroke-miterlimit="10" stroke-dasharray="" stroke-dashoffset="0" style="mix-blend-mode: normal"><path d="M240.64549,232.06344l-33.21673,10.33999l-4.46357,-14.35335l33.21674,-10.33998z" data-paper-data="{&quot;index&quot;:null}" fill="#b1b1b1" stroke="#000000" stroke-width="1.5"/><path d="M269.84797,174.45502l-8.65657,35.72859l-17.72998,-4.29575l8.65657,-35.72859z" fill="#b1b1b1" stroke="#000000" stroke-width="1.5"/><path d="M233.37953,169.50024l17.7885,32.73886l-16.24636,8.82738l-17.7885,-32.73886z" fill="#b1b1b1" stroke="#000000" stroke-width="1.5"/><path d="M259.45422,205.30454l-8.48099,35.00392l-27.92297,-6.76537l8.481,-35.00393c0,0 7.22321,1.75009 11.36747,2.75419c5.00134,1.21175 16.55551,4.01119 16.55551,4.01119z" fill="#b1b1b1" stroke="#000000" stroke-width="1.5"/><path d="M270.41087,246.97562l-32.24958,-13.04727l5.63342,-13.9358l32.24958,13.04727z" fill="#b1b1b1" stroke="#000000" stroke-width="1.5"/><path d="M164.74989,191.75586v0v0v0z" fill="url(#color-1)" stroke="none" stroke-width="0"/></g></g></svg>