<svg version="1.1" xmlns="http://www.w3.org/2000/svg" xmlns:xlink="http://www.w3.org/1999/xlink" width="88.42713" height="113.95039" viewBox="0,0,88.42713,113.95039"><g transform="translate(-192.8679,-116.89763)"><g data-paper-data="{&quot;isPaintingLayer&quot;:true}" fill-rule="nonzero" stroke-linejoin="miter" stroke-miterlimit="10" stroke-dasharray="" stroke-dashoffset="0" style="mix-blend-mode: normal"><path d="M234.9616,228.26837l0.41076,-36.76002l18.24182,0.20383l-0.41076,36.76002z" fill="#9b6a16" stroke="#000000" stroke-width="1.5" stroke-linecap="butt"/><path d="M226.0621,229.88309l0.41632,-37.25708l18.48849,0.20659l-0.41632,37.25708z" fill="#9b6a16" stroke="#000000" stroke-width="1.5" stroke-linecap="butt"/><path d="M262.61269,174.36412l-34.54908,4.07776l-1.75765,-14.92825l34.54907,-4.07774z" data-paper-data="{&quot;index&quot;:null}" fill="#b1b1b1" stroke="#000000" stroke-width="1.5" stroke-linecap="butt"/><g stroke="#000000" stroke-linecap="butt"><path d="M226.19738,196.18266l0.40243,-36.01444l28.72907,0.32103l-0.40242,36.01445c0,0 -7.43174,-0.08305 -11.69563,-0.13069c-5.14572,-0.0575 -17.03344,-0.19033 -17.03344,-0.19033z" fill="#9b6a16" stroke-width="1.5"/><path d="M239.37859,167.3464c0.47303,1.37273 0.57906,2.68457 0.00363,4.02217c-0.32475,0.75488 -1.84154,1.03836 -1.64498,1.8363c0.71654,2.90869 -1.91444,4.30951 -4.60262,3.07276c-1.22403,-0.56313 -0.66148,-3.14465 -0.86874,-3.31853c-1.40905,-1.18219 -3.11671,-1.03097 -3.46349,-3.42829c-0.17695,-1.22322 1.53155,-4.34196 3.11976,-3.88968c0.20083,-0.04946 0.41113,-0.07461 0.62755,-0.07219c0.51359,0.00573 0.98928,0.16595 1.38339,0.436c2.24245,0.28378 4.64461,-0.98273 5.44553,1.34147z" fill="#b1b1b1" stroke-width="1"/><path d="M252.10393,191.03622c-0.44264,0.50488 -6.59773,3.30308 -6.74087,3.30147c-3.76094,-0.04203 -6.3857,-5.66733 -3.61426,-8.26449c2.13726,-2.00289 4.97649,-0.72084 7.33514,-1.16523c0.1746,-0.03647 0.35581,-0.0547 0.54154,-0.05263c1.30993,0.01463 2.37327,1.03417 2.46556,2.31776c0.6548,1.32898 0.84594,2.91292 0.01288,3.86312z" fill="#b1b1b1" stroke-width="1"/></g><g><path d="M234.2039,157.33166l-14.54438,-3.62079l10.0896,-1.39085l-15.44977,-3.33018l11.28897,-1.07673l-16.04274,-4.0886l9.77213,0.1092l0.32252,-1.95106l-7.64384,-2.19044l9.93254,-0.79117l1.23632,-2.99336l1.98802,-2.98496l3.94749,-3.41415l6.04553,-2.78927l5.27535,-1.14392l2.73805,-2.82623l3.02864,-1.92083l6.93917,-2.02748l6.61498,0.07391l-2.87999,2.07284l-2.12996,2.23158l-1.38835,3.14203l2.7162,-0.8718l4.96795,-0.54593l5.11157,0.05712l5.84984,1.26823l2.98329,2.13837l-3.60818,-0.04032l-5.42737,1.29259l-4.23137,1.90739l-2.87663,1.77217l-3.34444,3.27052l2.86991,-1.1708l2.41217,-0.57449l6.60826,0.67528l4.77897,2.91022l-1.80912,0.43086l-4.97971,1.59831l-3.02361,1.4698l-2.73301,2.37522l-2.44408,3.43094l1.9645,-0.88021l2.85648,0.03192l3.43431,2.14341l-1.80409,-0.02016l-3.46959,1.01374l-3.77026,1.01038l-2.87496,1.62182z" fill="#000000" stroke="#000000" stroke-width="4" stroke-linecap="round"/><path d="M257.8829,145.81253c-0.09509,8.51001 -7.51598,15.32668 -16.57503,15.22545c-9.05904,-0.10122 -16.32576,-7.08201 -16.23067,-15.59202c0.09509,-8.51001 7.51598,-15.32667 16.57503,-15.22544c9.05904,0.10122 16.32576,7.082 16.23067,15.59202z" data-paper-data="{&quot;index&quot;:null}" fill="#b1b1b1" stroke="#000000" stroke-width="1.5" stroke-linecap="butt"/><path d="M238.73836,136.3156c0.05711,-0.02775 0.11316,-0.05395 0.16818,-0.07858c0.29203,-0.1621 0.62311,-0.26204 0.97513,-0.28218c0.11889,-0.00999 0.23245,-0.00814 0.34161,0.00565c1.17603,0.1065 2.09113,1.10161 2.07771,2.30268c0.30842,0.63455 -0.06152,1.10866 -0.5764,1.49245c-0.28662,0.32261 -0.66301,0.56333 -1.08942,0.68335c-0.1805,0.11412 -0.32763,0.22181 -0.40987,0.32723c-0.08877,0.11378 -0.18614,0.24239 -0.29132,0.38321c1.45418,1.3833 2.33892,2.84028 1.63237,3.87488c-0.43319,0.63432 -1.31761,0.86523 -2.07246,1.00745c-0.14709,0.02772 -1.15514,-0.54786 -2.39011,-1.30169c-1.51137,1.64699 -3.23547,2.94547 -4.67261,2.20672c-1.5139,-0.77821 -1.40977,-1.94178 -0.98824,-3.07899c0.0748,-0.20181 0.65321,-0.90254 1.45181,-1.79725c-0.45154,-0.29589 -0.77974,-0.51548 -0.90808,-0.60748c-0.12042,-0.05873 -0.23486,-0.12772 -0.34223,-0.20583c-0.57859,-0.42085 -0.95148,-1.1061 -0.94287,-1.87598c0.01254,-1.12287 0.83241,-2.04765 1.90177,-2.22883c0.08894,-0.02765 0.18285,-0.04416 0.28254,-0.04771c0.09458,-0.00336 0.20416,0.00575 0.3269,0.02647c0.27246,0.0266 0.53068,0.10093 0.76634,0.21443c0.65373,0.23579 1.46512,0.63132 2.31576,1.12912c1.09175,-1.0915 2.00264,-1.92708 2.24833,-1.98559z" fill="#000000" stroke="none" stroke-width="0.5" stroke-linecap="butt"/><path d="M249.53843,137.2901c0.19871,0.05205 0.92419,0.74802 1.79206,1.65538c0.70073,-0.38932 1.36767,-0.69617 1.9035,-0.87602c0.19368,-0.08802 0.405,-0.14375 0.62701,-0.16043c0.10018,-0.01462 0.18945,-0.02004 0.26629,-0.01558c0.081,0.0047 0.15706,0.01983 0.22887,0.04393c0.86622,0.16676 1.51605,0.93361 1.50585,1.84685c-0.00699,0.62616 -0.32266,1.17658 -0.80076,1.50825c-0.08871,0.06156 -0.18305,0.11556 -0.28202,0.16114c-0.10603,0.07246 -0.37688,0.24506 -0.7494,0.47744c0.63309,0.74201 1.09067,1.3223 1.14783,1.48776c0.32207,0.93235 0.38561,1.88034 -0.8595,2.4856c-1.18198,0.57457 -2.56026,-0.51258 -3.75924,-1.87924c-1.01786,0.59049 -1.84799,1.04019 -1.96708,1.01499c-0.61118,-0.12935 -1.32614,-0.33319 -1.66684,-0.85683c-0.5557,-0.85409 0.19016,-2.02269 1.39771,-3.12104c-0.08296,-0.11642 -0.15981,-0.22275 -0.22992,-0.31688c-0.06496,-0.08721 -0.18263,-0.17746 -0.32732,-0.27353c-0.34455,-0.10533 -0.64621,-0.30792 -0.8734,-0.57544c-0.41168,-0.32142 -0.70386,-0.71366 -0.44155,-1.22401c0.01091,-0.97685 0.77308,-1.76937 1.73127,-1.83459c0.089,-0.00921 0.18136,-0.00868 0.27786,0.00161c0.28587,0.02278 0.55326,0.11006 0.78778,0.24716c0.0443,0.02102 0.08939,0.04334 0.13532,0.06695z" data-paper-data="{&quot;index&quot;:null}" fill="#000000" stroke="none" stroke-width="0.5" stroke-linecap="butt"/><path d="M243.0739,156.48824c-2.4756,0.16263 -6.26799,0.25199 -8.23201,-1.66117c-0.45352,-0.44177 -0.45865,-1.99904 -0.3746,-2.60469c0.51653,-3.722 4.73426,-3.19904 7.50864,-3.16804l0.02871,-0.01395c0.34944,-0.17902 0.74627,-0.27811 1.16614,-0.27342c0.09384,0.00104 0.18641,0.00725 0.27744,0.01834c7.40551,-0.83888 6.13855,7.27508 -0.37431,7.70293z" fill="#000000" stroke="none" stroke-width="0.5" stroke-linecap="butt"/><path d="M233.63446,127.55417l-4.93016,10.62041c0,0 -2.28826,2.59826 -2.4508,4.03232c-0.16254,1.43406 1.61679,3.32596 1.61679,3.32596c0,0 -1.91804,-0.06467 -2.68708,-0.40139c-0.55901,-0.24476 0.0571,-0.69781 -0.30766,-1.05985c-0.81574,-0.80965 -2.06138,-3.55712 -2.06138,-3.55712l3.19242,-3.12187" fill="none" stroke="#000000" stroke-width="4" stroke-linecap="round"/><path d="M229.97592,132.02408l-0.03864,3.45783l2.94968,5.14517l0.19905,-4.35819l1.54205,-3.44103l5.0217,-5.35682l15.34983,-1.18172l2.66413,3.78874l-1.86792,5.69278l-1.83096,2.38529l0.0336,-3.0068l-1.76041,-3.92901l-6.58473,-2.78004l2.19799,5.13677l-2.30214,4.18433l-1.76041,-3.92901l-3.57792,-2.74645l-3.27724,-2.74309z" fill="#000000" stroke="#000000" stroke-width="4" stroke-linecap="round"/></g><g stroke="#000000" stroke-width="1.5" stroke-linecap="butt"><path d="M260.26927,185.00575l-31.612,14.52404l-6.27933,-13.65694l31.61201,-14.52403z" data-paper-data="{&quot;index&quot;:null}" fill="#b1b1b1"/><path d="M251.44611,189.05953l-22.78883,10.47027l-6.27933,-13.65694l22.07803,-10.14368z" data-paper-data="{&quot;index&quot;:null}" fill="#9b6a16"/><path d="M242.982,187.3843c-1.16586,0.73967 -2.71061,0.39418 -3.4503,-0.77169c-0.73967,-1.16586 -0.39418,-2.71062 0.77168,-3.45029c1.16586,-0.73967 2.71061,-0.39418 3.4503,0.77169c0.73967,1.16586 0.39418,2.71062 -0.77168,3.45029z" fill="#b1b1b1"/><path d="M229.80566,193.48292c-1.24466,-1.7727 -0.54826,-4.79758 1.41068,-5.82022c3.09462,-1.61548 4.72633,4.0996 2.91066,5.39817c-0.19433,0.42412 -0.50947,0.79881 -0.93278,1.06737c-1.03672,0.65774 -2.37302,0.45741 -3.17644,-0.41479c-0.07834,-0.06503 -0.14946,-0.14127 -0.21214,-0.23055z" fill="#b1b1b1"/></g></g></g></svg>