<svg version="1.1" xmlns="http://www.w3.org/2000/svg" xmlns:xlink="http://www.w3.org/1999/xlink" width="122.00011" height="34.95162" viewBox="0,0,122.00011,34.95162"><g transform="translate(-178.88556,-177.64338)"><g data-paper-data="{&quot;isPaintingLayer&quot;:true}" fill-rule="nonzero" stroke-linecap="butt" stroke-linejoin="miter" stroke-miterlimit="10" stroke-dasharray="" stroke-dashoffset="0" style="mix-blend-mode: normal"><path d="M298.38566,181.74324c-2.61096,14.36399 -25.53746,26.01225 -54.79594,26.92282c-32.32071,1.00587 -60.12899,-11.47212 -62.11154,-27.87036c-0.10397,-0.85999 -0.13485,-1.71368 -0.09535,-2.55952" fill="none" stroke="#00abff" stroke-width="5"/><path d="M221.53802,207.26427c0,0 -3.66751,-3.05011 -1.75166,-7.6629c1.70522,-4.10567 1.22245,-6.91235 3.51726,-10.0364c2.01121,-2.73796 6.3488,-5.73559 6.75975,-9.29064c0.47533,0.02725 0.95633,0.04248 1.44483,0.04248c3.23347,0 7.29473,-0.65672 10.42575,0.12502c1.99392,0.49044 4.02263,0.85241 6.0618,1.0684c-0.87378,3.14532 -4.31533,6.34874 -4.4268,8.80892c-0.1398,3.08532 4.90455,5.25903 7.55131,8.90312c3.12364,4.30065 12.82487,6.72222 12.82487,6.72222c0,0 -14.99994,2.5401 -22.48049,2.7729c-6.52381,0.20303 -19.92662,-1.45313 -19.92662,-1.45313z" fill="#71d0ff" stroke="#00abff" stroke-width="5"/><path d="M235.14967,192.77465c1.37474,-1.05941 3.46282,-0.36192 3.46282,-0.36192l0.34051,0.27406c2.01145,0.12953 4.08824,0.15655 6.08248,-0.02925c0,0 2.46315,-0.21699 2.89083,1.03271c0.42769,1.2497 -2.03546,1.46669 -2.03546,1.46669c-0.46978,0.03951 -0.94255,0.07092 -1.41729,0.09491c0.06375,0.01464 0.09885,0.02431 0.09885,0.02431c2.8612,0.8619 4.63169,0.52656 7.91821,0.42428l0.73559,-0.15772c0,0 2.38368,-0.38239 3.13738,0.82699c0.75369,1.20939 -1.62999,1.59178 -1.62999,1.59178l-1.93685,0.27099c-4.33848,0.13502 -6.64888,0.30023 -10.60976,-0.72684c0,0 -2.19714,-0.60514 -1.00442,-1.71988c0.23211,-0.21694 0.50226,-0.36874 0.78686,-0.47254c-1.20672,0.00023 -2.41477,-0.0392 -3.60799,-0.10746l-2.49841,-0.67423c0,0 -2.08809,-0.69749 -0.71335,-1.7569z" fill="#a4e1ff" stroke="none" stroke-width="0.5"/><path d="M264.56086,196.3881c1.87268,0.8403 0.21646,1.79042 0.21646,1.79042l-1.15228,0.65539c-3.97297,2.55303 -9.47505,3.27598 -15.72745,2.80347c0,0 -2.46909,-0.19883 -2.0772,-1.45155c0.39189,-1.25272 2.86099,-1.05389 2.86099,-1.05389c4.19976,0.36537 8.42112,-0.01165 10.95528,-1.82794l1.3953,-0.80608c0,0 1.65622,-0.95012 3.5289,-0.10982z" fill="#a4e1ff" stroke="none" stroke-width="0.5"/><path d="M249.91963,205.03614c0.75369,1.20939 -1.62999,1.59178 -1.62999,1.59178l-1.93685,0.27099c-4.58545,0.13313 -7.68797,-0.31294 -12.0357,-1.11416c0,0 -2.34744,-0.4363 -1.48751,-1.6273c0.85994,-1.191 3.20738,-0.7547 3.20738,-0.7547c3.75105,0.70377 6.09606,1.09572 10.0097,0.96412l0.73559,-0.15772c0,0 2.38368,-0.38239 3.13738,0.82699z" fill="#a4e1ff" stroke="none" stroke-width="0.5"/><path d="M221.11251,195.29479c1.09054,-0.03394 1.73371,0.18876 2.11225,0.45027c1.35606,0.06789 2.72189,0.09378 4.07761,0.04819c0,0 2.49531,-0.07766 2.64837,1.18836c0.01653,0.13668 0.00218,0.25952 -0.03656,0.36989c0.06524,0.10091 0.10639,0.20765 0.1198,0.31861c0.06109,0.50529 -0.46962,0.9596 -1.28881,1.18891c0.35422,-0.00273 2.45778,0.03004 2.59792,1.18917c0.15306,1.26602 -2.34225,1.34368 -2.34225,1.34368c-4.74324,0.14292 -8.45144,-0.1157 -12.9485,-0.89558l-2.73356,-0.42502c0,0 -2.39018,-0.37182 -1.65733,-1.5845c0.73285,-1.21268 3.12302,-0.84086 3.12302,-0.84086l2.81941,0.43881c3.18358,0.56817 5.79315,0.8129 8.87823,0.81287c-0.48957,-0.11607 -0.89546,-0.31063 -1.15085,-0.55372c-1.45933,-0.01657 -2.91888,-0.0842 -4.36336,-0.18215l-2.19765,-1.52326c0,0 -0.15306,-1.26602 2.34225,-1.34368z" fill="#a4e1ff" stroke="none" stroke-width="0.5"/><path d="M211.01649,190.99168c1.25679,-1.09647 3.41792,-0.45882 3.41792,-0.45882l1.12841,0.3337c0.36633,0.11637 4.17825,1.35243 4.7114,1.4267c2.40525,0.33509 4.96491,0.24799 7.44167,0.39769c0,0 2.48244,0.15007 2.18666,1.40956c-0.29578,1.25949 -2.77822,1.10942 -2.77822,1.10942c-2.77611,-0.16785 -5.64451,-0.10031 -8.33063,-0.49364c-1.23241,-0.18046 -4.65002,-1.30825 -5.88251,-1.69906l-0.99037,-0.29145c0,0 -2.16113,-0.63765 -0.90433,-1.73412z" fill="#a4e1ff" stroke="none" stroke-width="0.5"/><path d="M233.6889,198.51656c0.33928,-1.25667 2.81615,-1.08453 2.81615,-1.08453l1.83452,0.12894c0.91856,0.08659 1.83712,0.17319 2.75567,0.25979c0,0 2.45793,0.23172 2.00122,1.47877c-0.45671,1.24706 -2.91464,1.01534 -2.91464,1.01534c-0.91856,-0.08659 -1.83712,-0.17319 -2.75567,-0.25979l-1.59967,-0.10972c0,0 -2.47687,-0.17214 -2.13759,-1.4288z" fill="#a4e1ff" stroke="none" stroke-width="0.5"/><path d="M211.56131,203.12902c0.78462,-1.20431 3.1583,-0.80623 3.1583,-0.80623l2.05841,0.35803c2.80606,0.71623 4.91733,0.90188 8.04742,0.79153c0,0 2.49531,-0.07766 2.64837,1.18836c0.15306,1.26602 -2.34225,1.34368 -2.34225,1.34368c-3.99105,0.11095 -6.96068,-0.16198 -10.56379,-1.04809l-1.4174,-0.22489c0,0 -2.37368,-0.39809 -1.58906,-1.6024z" fill="#a4e1ff" stroke="none" stroke-width="0.5"/></g></g></svg>