<svg version="1.1" xmlns="http://www.w3.org/2000/svg" xmlns:xlink="http://www.w3.org/1999/xlink" width="993.34945" height="777.81532" viewBox="0,0,993.34945,777.81532"><defs><linearGradient x1="242.13551" y1="254.32376" x2="242.13551" y2="194.87318" gradientUnits="userSpaceOnUse" id="color-1"><stop offset="0" stop-color="#424242"/><stop offset="1" stop-color="#424242" stop-opacity="0"/></linearGradient><linearGradient x1="242.1355" y1="101.78603" x2="242.1355" y2="129.16458" gradientUnits="userSpaceOnUse" id="color-2"><stop offset="0" stop-color="#4c4c4c"/><stop offset="1" stop-color="#4c4c4c" stop-opacity="0"/></linearGradient></defs><g transform="translate(-3.53494,479.8774)"><g data-paper-data="{&quot;isPaintingLayer&quot;:true}" fill-rule="nonzero" stroke-linecap="butt" stroke-linejoin="miter" stroke-miterlimit="10" stroke-dasharray="" stroke-dashoffset="0" style="mix-blend-mode: normal"><path d="M223.80647,153.7112v-177.17718h90.09009v177.17718z" fill="#4f4f4f" stroke="none" stroke-width="0"/><path d="M256.34401,60.12261v-177.17718h90.09009v177.17718z" fill="#4f4f4f" stroke="none" stroke-width="0"/><path d="M297.89056,22.08957v-177.17718h90.09009v177.17718z" fill="#4f4f4f" stroke="none" stroke-width="0"/><path d="" fill="#d9d9d9" stroke="#000000" stroke-width="1"/><path d="" fill="none" stroke="#000000" stroke-width="1"/><path d="" fill="#d9d9d9" stroke="#000000" stroke-width="1"/><path d="" fill="none" stroke="#000000" stroke-width="1"/><path d="" fill="#d9d9d9" stroke="#000000" stroke-width="1"/><path d="" fill="none" stroke="#000000" stroke-width="1"/><path d="" fill="#d9d9d9" stroke="#000000" stroke-width="1"/><path d="M9.03834,255.83209v-151.65165h467.75884v151.65166z" fill="#c9c9c9" stroke="#616161" stroke-width="0.5"/><path d="M480.73605,194.87318v59.4506h-477.20111v-59.4506z" data-paper-data="{&quot;index&quot;:null}" fill="url(#color-1)" stroke="#616161" stroke-width="0"/><path d="M3.53494,129.16458v-27.37857h477.20111v27.37857z" fill="url(#color-2)" stroke="#616161" stroke-width="0"/><path d="M402.53019,222.79904v-213.21321h84.08408v213.21322z" fill="#4f4f4f" stroke="none" stroke-width="0"/><path d="M367.99565,162.76525v-177.17718h90.09009v177.17718z" fill="#4f4f4f" stroke="none" stroke-width="0"/><path d="M440.56322,46.14363v-177.17717h90.09009v177.17718z" fill="#4f4f4f" stroke="none" stroke-width="0"/><path d="M463.58124,172.76525v-177.17717h90.09009v177.17717z" fill="#4f4f4f" stroke="none" stroke-width="0"/><path d="M456.56923,282.87036v-177.17718h90.09009v177.17718z" fill="#4f4f4f" stroke="none" stroke-width="0"/><path d="M521.6293,223.30579v-177.17718h90.09009v177.17718z" fill="#4f4f4f" stroke="none" stroke-width="0"/><path d="M517.62029,61.63912v-177.17717h90.09009v177.17717z" fill="#4f4f4f" stroke="none" stroke-width="0"/><path d="M361.95962,32.10459v-177.17717h90.09009v177.17717z" fill="#4f4f4f" stroke="none" stroke-width="0"/><g stroke="none" stroke-width="0"><path d="M294.15144,122.34752c0,0 -0.15718,-61.46754 4.60132,-89.58597c3.27688,-19.36337 12.79053,-37.23834 22.37455,-42.00936c17.69523,-8.80886 48.32199,-5.39517 48.32199,-5.39517v147.78086l-64.99858,0.06936l-11.10258,-3.60036z" fill="#8c8c8c"/><path d="M357.72067,165.66395c0,0 0,-98.6023 0,-131.36076c0,-10.71562 -2.21772,-22.70218 -9.53424,-31.35794c-6.05041,-7.1579 -17.44163,-12.03802 -17.44163,-12.03802l-1.45645,-3.81994c0,0 8.89203,-2.23871 19.2263,-2.86059c9.39672,-0.56546 20.02649,0.36839 25.46693,2.4127c16.61766,6.2443 30.65365,30.1711 30.65365,45.31806c0,32.62665 -5.86432,133.70649 -5.86432,133.70649l-19.4981,11.96321z" fill="#b8b8b8"/><path d="M364.80574,70.66197c0,21.31147 -5.15853,96.02805 -5.15853,96.02805l-56.15393,-33.15272c0,0 0.22467,-41.1336 0.22467,-62.87533c0,-32.66697 7.52151,-60.74683 18.28918,-73.07599c3.75119,-4.29517 7.89635,-6.67876 12.25471,-6.67876c16.86892,0 30.54389,35.70742 30.54389,79.75475z" fill="#000000"/></g><path d="M223.42342,-18.91643v-346.84685h534.53453v346.84685z" fill="#4f4f4f" stroke="none" stroke-width="0"/><path d="M205.59309,-2.39992v-477.47748h54.05405v477.47748z" fill="#4f4f4f" stroke="none" stroke-width="0"/><path d="M148.53604,113.25324v-184.68468h99.0991v184.68468z" fill="#4f4f4f" stroke="none" stroke-width="0"/><path d="M508.8964,297.93792v-552.55255h487.98799v552.55255z" fill="#4f4f4f" stroke="none" stroke-width="0"/><path d="M5.90796,189.82982v-60.06006h288.28829l82.58258,46.54655z" fill="#989898" stroke="none" stroke-width="0"/><path d="M116.18399,7.78811c-0.00388,0.1918 -0.00928,0.38142 -0.01647,0.56859l-0.82667,0.52632l0.28474,0.28474l-2,2c-0.45241,0.45241 -1.07741,0.73223 -1.76777,0.73223c-1.38071,0 -2.5,-1.11929 -2.5,-2.5v-3h0.47794c-0.62976,-5.5353 0.19508,-10.95554 1.5967,-16.60634c0.39688,-1.60008 1.64438,-7.81358 3.30732,-8.62973c1.54364,-0.7576 3.4442,0.38035 5.07474,0.92637c4.21215,1.41051 9.55622,4.8346 7.35299,10.26641c-0.59411,1.46471 -1.95512,2.61522 -3.35299,3.35299c-0.2761,0.14572 -0.58143,0.16493 -0.89918,0.13351c0.11771,0.29159 0.22874,0.57289 0.3352,0.83233c1.93388,4.71255 -2.51706,8.36224 -5.43602,11.03416zM116.12035,2.8168c1.46965,-1.83678 2.51385,-3.24321 2.22972,-4.94566l-2.11394,0.70465c-0.12901,1.34757 -0.13801,2.79221 -0.11578,4.24101zM117.6842,-7.98233c0.35603,-0.38704 0.73856,-0.73246 1.21691,-0.92738c0.61597,-0.25099 3.11306,0.78366 3.64701,-0.64701c0.68222,-1.82792 -2.94412,-3.03011 -4.25153,-3.55333c0.06123,0.29921 0.06123,0.51004 0.06123,0.51004c-0.01609,1.69513 -0.30734,3.17341 -0.67362,4.61768z" fill="#de7506" stroke="none" stroke-width="0.5"/><path d="M193.22953,-2.39058c0.79057,2.37171 -1.58114,3.16228 -1.58114,3.16228l-3,1c-2.59054,0.77109 -5.72224,1.03102 -8.1049,-0.24508c-0.71968,-0.38545 -0.89548,-1.48729 -1.64238,-1.81693c-2.08363,-0.91958 -5.36445,1.21718 -6.81106,-0.54193c-0.07064,-0.0859 -0.13648,-0.17484 -0.19774,-0.26655c-0.97728,1.48642 -2.82506,0.8705 -2.82506,0.8705l-3.52376,-1.24508c-1.9763,-1.90896 -4.00974,-3.37642 -6.24882,-4.56311c-0.46271,1.75669 -1.50366,3.36493 -2.99674,4.48002c-1.26973,0.94829 -3.09249,0.73523 -4.57276,1.30117c-3.87266,1.48061 -4.14763,3.14234 -8.44175,2.08841c-1.44774,-0.35533 -2.55493,-1.63393 -4,-2c-1.1909,-0.30168 -2.50816,0.17547 -3.71182,0.03352c-0.21544,0.30073 -0.42673,0.60726 -0.63367,0.92011c0,0 -1.38675,2.08013 -3.46688,0.69338c-2.08013,-1.38675 -0.69338,-3.46688 -0.69338,-3.46688c0.32402,-0.48272 0.65656,-0.95374 0.99718,-1.41426l-1.15313,-2.08096c0,0 -1.11803,-2.23607 1.11803,-3.3541c2.23607,-1.11803 3.3541,1.11803 3.3541,1.11803l0.10424,0.26471c2.12167,-2.22794 4.44558,-4.25195 6.90034,-6.26815c0.86763,-0.71262 1.60386,-1.64623 2.62745,-2.10761c1.7778,-0.80133 7.22165,-2.09999 9.31155,-0.97511c1.33483,0.71847 1.79171,2.44767 2.75371,3.61921c0.29952,0.36476 0.67899,0.67895 1.05072,0.99616c3.87138,1.47688 7.38878,3.3891 10.33025,6.46218l2.47624,0.75492c0,0 0.25618,0.08539 0.57208,0.28424c0.05929,-0.64546 0.1807,-1.28346 0.32765,-1.86924c0.93944,-3.74484 6.36226,-4.6365 8.99537,-6.16992c1.46412,-0.85265 2.34851,-2.44309 3.54656,-3.64114c0,0 1.76777,-1.76777 3.53553,0c1.76777,1.76777 0,3.53553 0,3.53553c-0.45816,0.45816 -4.14097,4.16717 -4.45344,4.35886c-0.96749,0.59353 -2.19665,0.61982 -3.21595,1.11916c-0.90623,0.44395 -1.69273,1.10035 -2.51341,1.68757c-0.31133,0.22277 -0.5957,0.4811 -0.89105,0.72496c1.18938,-0.65657 2.16532,-0.75639 4.26278,0.03198c1.00256,0.37683 1.47809,1.57188 2.35762,2.18307c1.70762,1.18663 2.07919,0.47137 3.8951,-0.24508l3,-1c0,0 2.37171,-0.79057 3.16228,1.58114zM154.06725,-8.2283c0,0 -2.19973,-0.73324 -1.65608,-2.90589c-0.16732,-0.48636 -0.34045,-0.96256 -0.733,-1.26163c-0.40833,-0.3111 -1.0134,0.16745 -1.5149,0.27708c-1.06175,0.2321 -2.18626,0.29346 -3.17356,0.74781c-0.68242,0.31405 -1.11732,1.00477 -1.69033,1.49055c-1.87388,1.58861 -3.69105,3.13019 -5.38758,4.77978c0.17537,0.00494 0.34908,0.02526 0.5204,0.06746c1.44744,0.35657 2.58941,1.51785 4,2c2.07565,0.70947 3.92952,-1.31564 5.55825,-1.91159c0.66305,-0.24261 5.33611,-0.71914 4.82882,-3.02698c-0.24782,-0.08718 -0.49845,-0.17266 -0.75203,-0.2566z" fill="#de7506" stroke="none" stroke-width="0.5"/><path d="M203.32745,-2.73362c-0.15683,-3.33312 -0.82823,-8.19928 0.22067,-10.82309c3.12349,-7.81338 17.65583,-4.75029 19.70243,2.23225c1.77492,6.05561 -3.42141,6.62997 -6.45937,10.30943c-2.4227,2.93427 -6.35255,8.94332 -11.39513,5.44313c-1.38112,-0.95867 -1.59223,-2.99811 -2.00594,-4.62765c-0.20828,-0.82037 -0.11752,-1.67955 -0.06265,-2.53407zM208.01018,-0.28225c0.05301,0.23541 0.1502,0.45553 0.30941,0.65413c0.18591,0.23192 0.56204,-0.20656 0.81376,-0.36462c0.67511,-0.42392 1.422,-0.78377 1.95669,-1.37504c0.75162,-0.83115 1.11335,-1.95941 1.83441,-2.81721c1.01567,-1.20826 2.11702,-2.36085 3.34838,-3.34838c0.69879,-0.56042 1.76867,-0.59231 2.38079,-1.24629c0.7114,-0.76006 -0.46163,-2.2349 -1.3133,-2.83359c-0.61601,-0.43303 -1.45475,-0.38939 -2.18148,-0.58647c-1.10078,-0.29851 -2.16128,-0.85809 -3.30103,-0.9003c-3.97508,-0.14723 -3.57917,1.56973 -3.5,4.5c0.06302,2.33248 0,4.66667 0,7c0,0 0,0.67101 -0.34764,1.31776z" fill="#de7506" stroke="none" stroke-width="0.5"/><path d="M248.85782,4.89999c-2.5,0 -2.5,-2.5 -2.5,-2.5v-1c0,-4.14624 1.14344,-10.09639 -0.74579,-13.90162c-2.06787,-4.16504 -5.15076,-4.89685 -7.62758,-0.78405c-1.7708,2.94043 -1.68875,6.81725 -1.63999,10.23892c0.43513,1.30234 0.83009,2.49124 0.88507,2.65619l0.12829,2.79057c0,0 0,2.5 -2.5,2.5c-2.5,0 -2.5,-2.5 -2.5,-2.5l0.12829,-1.20943c-0.09011,-0.27034 -0.17433,-0.54311 -0.25512,-0.81727c-0.87317,-0.73342 -0.87317,-1.9733 -0.87317,-1.9733c0,-0.35013 -0.00096,-0.70343 -0.0017,-1.05924c-0.20709,-0.63107 -0.44473,-1.24948 -0.74409,-1.84238c-1.11667,-2.2116 -2.79085,-4.25819 -3.22193,-6.69792c-0.42922,-2.42921 -0.03228,-4.93361 -0.03228,-7.40046c0,0 0,-2.5 2.5,-2.5c2.5,0 2.5,2.5 2.5,2.5c0,2.04024 -0.31239,4.10194 -0.09376,6.12533c0.34379,-1.19747 0.81677,-2.35312 1.46713,-3.43966c3.2401,-5.41316 9.04614,-7.13295 13.89439,-2.45344c5.2262,5.0443 3.73223,13.2661 3.73223,19.76777v1c0,0 0,2.5 -2.5,2.5z" fill="#de7506" stroke="none" stroke-width="0.5"/><path d="M164.11975,28.70916c0.02106,0.16025 0.03564,0.32167 0.04293,0.48441c0.09936,-0.11745 0.20112,-0.21978 0.29468,-0.26129c0.96353,-0.42746 1.95936,-0.83216 3,-1c1.11908,-0.18049 2.26697,-0.02152 3.40046,-0.03228c0,0 1.06427,0 1.80401,0.69439c-2.82615,-4.96371 -0.81901,-11.0708 5.92045,-9.58712c0.21604,0.04756 2.254,1.37851 4.02886,2.55536c-0.04197,-0.12393 -0.08365,-0.24795 -0.12503,-0.37206c0,0 -0.79057,-2.37171 1.58114,-3.16228c2.37171,-0.79057 3.16228,1.58114 3.16228,1.58114c1.56863,4.70589 4.90055,10.49546 5.10956,15.48511c0.07147,1.70622 0.45887,3.83151 -0.7135,5.07323c-1.4345,1.51934 -8.62688,0.73223 -10.76777,0.73223h-3c0,0 -2.5,0 -2.5,-2.5c0,-2.5 2.5,-2.5 2.5,-2.5h3c2,0 4.02928,-0.34096 6,0c0.4708,0.08145 0.78487,0.90001 1.23223,0.73223c0.36504,-0.1369 -0.58106,-0.56009 -0.7135,-0.92677c-0.09535,-0.26399 -0.17328,-0.53327 -0.24164,-0.80546h-2.27709c-1.3189,-0.06343 -2.72071,0.27428 -3.95671,-0.1903c-1.00256,-0.37683 -1.43683,-1.63601 -2.35762,-2.18307c-1.77691,-1.0557 -4.07501,-1.67174 -5.38342,-3.21062c0.12326,0.29541 0.19775,0.65246 0.19775,1.08399c0,2.5 -2.5,2.5 -2.5,2.5c-1.20169,-0.01492 -2.83454,0.42759 -4.51134,0.78407c-0.18182,2.21593 -2.48866,2.21593 -2.48866,2.21593h-2c-1.67604,-0.34607 -4.1416,0.42567 -5.02811,-1.03822c-0.43015,-0.71031 -0.31213,-2.73285 0.31817,-4.49846c-0.33915,0.26775 -0.74935,0.44951 -1.19768,0.51235l-0.92817,0.14629c-0.15811,0.61753 -0.54616,1.14297 -1.06753,1.47968l-2.96774,1.97849l-0.01702,-0.02554c-0.69279,0.63405 -1.42758,1.22758 -2.19102,1.71467c3.35824,-0.63648 3.99296,3.64244 6.77801,4.92104c0.73581,0.3378 2.04435,-0.01307 3.39759,-0.58014l1.87793,-1.87793c0.45241,-0.45241 1.07741,-0.73223 1.76777,-0.73223c1.38071,0 2.5,1.11929 2.5,2.5c0,0.00611 -0.00002,0.01222 -0.00007,0.01833l-0.0194,3.09445l-0.07641,-0.00048l0.0635,0.23895c-1.09567,5.47399 -0.21303,10.61602 -0.99991,16.04922c-0.06445,0.44498 -1.87818,5.63535 -2.06742,6.29851c-0.98467,3.45059 -1.33555,9.53721 -5.82592,10.73415c-1.41602,0.37745 -2.85022,-0.68315 -4.27335,-1.03282c-2.0175,-0.49572 -3.9775,-1.06436 -5.93035,-1.67546c-0.04002,1.14635 -0.8192,2.4921 -0.90297,3.67562c-0.06118,0.86442 0.02804,1.73297 0.03228,2.59954c0.02401,4.90943 -0.86756,10.76634 -0.03228,15.59954c0.17951,1.0387 0.83216,1.95936 1,3c0.39278,2.43537 0.03228,4.93361 0.03228,7.40046l-1.11093,2.7406c-0.26229,0.90035 -0.78826,1.3514 -1.32728,1.56797c-0.47376,0.24672 -1.09089,0.35604 -1.85136,0.07129c-3.21544,-0.79191 -7.66342,-1.55729 -10.52476,-3.25323c-0.12529,-0.07426 -0.23495,-0.16813 -0.33471,-0.27435c-0.34849,0.96109 -1.26954,1.64772 -2.35096,1.64772c-1.1246,0 -2.07576,-0.74256 -2.38994,-1.76412l-0.19504,-0.58512c-0.33958,0.14338 -0.67872,0.26098 -1.01457,0.31696c-0.98639,0.1644 -2.01274,-0.15909 -3,0c-0.724,0.11667 -1.42557,0.32314 -2.11747,0.56862c-0.2702,0.68008 -0.87681,1.44712 -2.23869,1.4634c-0.34801,0.53154 -0.96179,1.00026 -2.0443,1.00026c-2.5,0 -2.5,-2.5 -2.5,-2.5l1.70943,-3.37171c0.04749,-0.01583 0.14799,-0.04943 0.29057,-0.0971c0,-8.84373 0,-17.68746 0,-26.53119c0,-1.22202 -0.16923,-6.75853 0.51634,-8.41213c-0.51634,-0.71435 -0.51634,-1.58787 -0.51634,-1.58787c0,-0.49984 -0.00108,-0.99985 -0.00298,-1.5h-0.49702c-1.3189,-0.06343 -2.72071,0.27428 -3.95671,-0.1903c-1.00256,-0.37683 -1.43683,-1.63601 -2.35762,-2.18307c-0.90622,-0.5384 -2.13464,-0.39812 -3,-1c-1.19347,-0.83008 -1.99691,-2.11328 -2.99537,-3.16992c-0.14689,-3.05404 0.27153,-6.6283 -0.17157,-9.65125c-0.19932,-1.35984 -0.92409,-2.62773 -1,-4c-0.08968,-1.62114 -0.58199,-3.64315 0.51076,-4.84399c3.39406,-3.7298 8.62348,-1.55377 12.37097,-0.92919c0.98639,0.1644 2.05917,-0.33888 3,0c1.82053,0.65575 4.23444,1.13062 5.03267,2.89334c0.15211,0.33589 0.10193,0.65241 -0.06159,0.96085c0.47415,-0.08464 0.94462,-0.1612 1.41222,-0.23044c-0.03343,-0.06499 -0.06465,-0.13138 -0.09346,-0.19932c-0.46323,-1.09243 0.04338,-2.38688 -0.15802,-3.55625c-0.27641,-1.60487 -1.76055,-4.33084 -2.54331,-6.75612c-0.14653,0.11366 -0.30338,0.22775 -0.47149,0.34243c-1.43703,0.98031 -3.34005,0.96488 -5.01993,1.42626l-0.10762,0.32285c-0.31417,1.02156 -1.26534,1.76412 -2.38994,1.76412c-1.38071,0 -2.5,-1.11929 -2.5,-2.5c0,-0.29691 0.05176,-0.58173 0.14675,-0.84593l0.87884,-2.63653c-0.17273,-0.64382 -0.1141,-1.46457 0.70664,-2.28531c0.61606,-0.61606 1.23213,-0.80273 1.77337,-0.78447c1.37395,-1.31094 2.92412,-2.7093 3.03769,-2.75746c0.60389,-0.25607 1.26978,-0.21425 1.94197,-0.1605c0.13558,-0.5678 0.31607,-1.20876 0.54702,-1.93026c0.72567,-2.26702 3.92889,-2.68844 5.89334,-4.03267l0.57438,0.12319v-0.19006h4v0.20547c0.08725,-0.03804 0.17704,-0.07055 0.26987,-0.09648c2.40796,-0.67249 3.49332,-0.64355 4.55787,-0.12405l0.18973,-0.03795l0.21476,-0.21476l0.14318,0.14318l0.2655,-0.0531c0.13413,-0.21067 0.26826,-0.42134 0.40238,-0.63201l0.95671,0.30631v-0.49661h3c1.22423,0 2.24294,0.87996 2.45812,2.04188c1.16192,0.21518 2.04188,1.23389 2.04188,2.45812c0,1.38071 -1.11929,2.5 -2.5,2.5h-0.5l0.15228,0.15228c0.29485,0.03977 0.56931,0.13281 0.80949,0.31961c0.15332,0.11925 0.2887,0.25233 0.40926,0.39688c0.0405,0.03487 0.07914,0.07268 0.11573,0.11374c1.40633,1.57845 1.23556,2.69737 1.34962,3.90855c0.19584,0.53051 0.45325,1.01665 0.84326,1.40474c0.68181,0.67846 1.50189,-1.2034 2.28182,-1.76633c0.01283,-0.00926 0.02567,-0.0185 0.03853,-0.02772c0,-0.00059 0,-0.00117 0,-0.00176c0,-1.1246 0.74256,-2.07576 1.76412,-2.38994l2.94531,-0.98177l0.046,0.13799l0.34412,-0.234c0.13349,0.05148 0.26697,0.10295 0.40046,0.15443v-0.18671h3c1.38071,0 2.5,1.11929 2.5,2.5c0,0.04517 -0.0012,0.09006 -0.00356,0.13464c0.35897,-0.47195 0.77995,-0.83712 1.26138,-1.02664v-2.108c0,-1.38071 1.11929,-2.5 2.5,-2.5c1.38071,0 2.5,1.11929 2.5,2.5v3c-0.06297,0.10596 -0.14802,0.20801 -0.23807,0.30916zM182.47107,27.48012c-1,-0.66667 -2.01116,-1.31689 -3,-2c-1.03138,-0.7125 -2.1645,-2.82485 -3.15147,-2.05202c-0.9197,0.72015 1.25661,3.53394 1.85255,3.84527c0.93428,0.48808 2.09883,0.45318 3,1c0.69796,0.42351 0.89548,1.48729 1.64238,1.81693c0.62581,0.27619 1.36219,-0.12687 2.04329,-0.1903h0.81638c-0.26282,-0.71877 -0.5313,-1.43648 -0.80139,-2.15421c-1.19024,0.54201 -2.40175,-0.26566 -2.40175,-0.26566zM139.35209,30.28452c-0.13562,-0.33384 -0.28878,-0.6551 -0.46833,-0.9568c-0.60361,-0.09073 -1.37214,0.66267 -2.00821,0.46501c-1.14771,-0.35665 -1.86039,-1.61825 -3,-2c-0.34121,-0.1143 -0.70881,-0.07961 -1.08082,-0.01384c0.70786,0.51654 1.40537,1.0549 2.11961,1.49448c1.29827,0.79903 2.91226,0.91906 4.38916,1.33587c0.01637,-0.10925 0.03453,-0.21846 0.0486,-0.32472zM145.70228,37.71879c0.13429,-0.12724 0.27933,-0.24334 0.43595,-0.34691c0.04828,-0.03192 0.09617,-0.06317 0.14369,-0.09375c-0.19992,0.04671 -0.40073,0.08267 -0.60223,0.10689c0.01054,0.1102 0.01809,0.22145 0.02259,0.33376zM135.32447,48.79272c-1.18375,0.37592 -2.48297,0.07151 -3.72446,0.10727c-1,0 -2,0 -3,0h-3c0,0 -0.75413,0 -1.43401,-0.41419c-0.68394,0.10284 -1.3748,0.22367 -2.0757,0.36564c0,0 -1.47789,0.29558 -2.36817,-0.71976c0.07421,1.07858 0.37788,2.19172 0.37788,3.26831c0,5.33333 0,10.66667 0,16c0,0 0,0.21695 -0.06391,0.52304c0.19222,-0.00124 0.38085,-0.00775 0.56391,-0.02304c1.4758,-0.12325 3.53078,-0.35137 5.5,-0.20032v-0.29968c0,-1.38071 1.11929,-2.5 2.5,-2.5c0.69036,0 1.31536,0.27982 1.76777,0.73223l2,2l-0.07172,0.07172c0.1484,0.12084 0.29219,0.24773 0.43058,0.38172c0.62891,0.60885 0.05367,1.89764 0.64114,2.54656c0.46111,0.50935 1.36129,0.21042 2.0228,0.39606c0.88643,0.24875 1.70184,0.75204 2.60989,0.90399c0.69915,0.11699 1.60573,0.04528 2.56092,-0.02927c-0.41157,-0.49884 -0.68418,-1.24029 -0.33308,-2.29358c0.40634,-1.21901 1.23037,-1.60262 1.93538,-1.68756c-0.06367,-0.30547 -0.06367,-0.52187 -0.06367,-0.52187l0.12829,-2.79057c1.87326,-5.40825 1.86192,-11.10394 1.86873,-16.82882c-1.4623,0.13757 -5.52989,0.12326 -7.19842,0.11992c-0.4905,0.37016 -0.99506,0.70831 -1.57414,0.89221zM136.50163,42.15421c0.80114,-0.39912 1.86156,-0.20836 2.58089,-0.74098c0.66035,-0.48894 0.8458,-1.40895 1.2717,-2.11161c2.14419,-3.53756 -5.97359,-4.54426 -8.06854,-5.77499c-0.81291,-0.47757 -1.23221,-1.45283 -2,-2c-1.05943,-0.75501 -2.61136,0.03429 -3.8951,0.24508c-0.51808,0.08507 -1.3197,-0.72327 -1.5545,-0.25367c-0.2348,0.46959 0.89269,0.62597 1.13564,1.0914c0.48777,0.93445 0.67147,1.99841 1,3c0.89008,2.71358 0.31775,5.3281 2.39606,7.0228c0,0 0.13217,0.13217 0.28809,0.36037c1.90111,-0.07776 3.81751,-0.09016 5.80803,-0.09219c0.32572,-0.28366 0.65814,-0.5571 1.03774,-0.7462zM146.57366,69.0016c2.25624,0.64655 4.534,1.24534 6.72532,1.99809c0.62391,0.21432 1.06747,0.94112 1.72665,0.96718c0.32922,0.01302 0.33629,-0.57115 0.44776,-0.88121c0.28111,-0.78194 0.50944,-1.58251 0.72633,-2.38464c0.35873,-1.32673 0.62201,-2.67863 1,-4c0.55189,-1.92932 1.65361,-3.71427 1.93258,-5.70149c0.64047,-4.56223 0.09827,-8.93105 0.60959,-13.47754c-2.08535,0.5632 -4.83752,0.66268 -6.09858,0.18769c-1.09654,-0.41302 -1.80879,-1.47818 -2.61907,-2.34321l-2.27823,2.38095c0.11627,1.85083 0.35402,3.74028 0.35402,4.65256c0,5.38752 -0.47602,10.67987 -2.12829,15.79057l0.12829,1.20943c0,0 0,0.88477 -0.52635,1.60161zM115.06005,60.89999c-0.0379,-4.1689 -0.07381,-8.34112 0.03996,-12.5c0.0011,-0.04014 -0.33467,-2.02914 -0.00624,-3.39285c-0.63291,0.02421 -1.27378,-0.03603 -1.89422,-0.13943c-1.65989,-0.27665 -5.78831,-2.15345 -7.62903,-0.92919c-0.35077,0.2333 0.3923,0.75174 0.51076,1.15601c0.38645,1.31892 0.81018,2.6388 1,4c0.36762,2.63626 0.07534,5.69767 -0.17157,8.34875c1.13142,0.93484 2.74989,1.06873 4.00463,1.83008c0.69796,0.42351 0.89548,1.48729 1.64238,1.81693c0.62581,0.27619 1.36219,-0.12687 2.04329,-0.1903zM121.19955,101.93228c0.98561,-0.16905 2.01361,0.1644 3,0c0.32312,-0.05385 0.6144,-0.11779 0.88043,-0.18821c-0.3222,-6.96113 -2.01484,-13.67147 -1.9477,-20.74453c0.89297,-2.76209 1.50477,-4.73435 2.85611,-6.81394c0.02234,-0.47279 0.04334,-0.94338 0.06097,-1.41066c-0.48225,0.05505 -0.96462,0.10979 -1.44936,0.12505c-1.33267,0.04197 -2.67953,0.18479 -4,0c-0.47318,-0.06622 -0.89438,-1.07008 -1.23223,-0.73223c-0.33785,0.33785 0.66601,0.75905 0.73223,1.23223c0.36959,2.64093 0,5.33333 0,8c0,6.95814 0,13.91627 0,20.87441c0.6028,-0.19567 1.02938,-0.3301 1.09954,-0.34213zM133.91433,103.27337c1.82913,1.11173 4.7539,1.71874 7.20492,2.236c0.0762,-1.90946 0.33719,-3.83322 0.01303,-5.70891c-0.17951,-1.0387 -0.83216,-1.95936 -1,-3c-0.62889,-3.89931 -0.03228,-8.44504 -0.03228,-12.40046c0,-1.3575 -0.80433,-5.42385 0.16444,-7.43378c-1.00551,0.16682 -2.05921,0.0686 -3.0649,-0.0985c-1.28752,-0.21393 -4.08872,-0.96074 -6.17757,-2.11835c-0.0285,0.03694 -0.05711,0.07388 -0.08578,0.11083c-0.16912,3.10006 -0.34721,6.2784 0.13152,9.13935c0.34793,2.07928 1.65445,3.92033 2,6c0.62745,3.7763 -0.46671,7.06767 -0.98645,10.70591c-0.03112,0.21783 -0.03123,0.44033 -0.01606,0.66482c0.67891,0.51955 1.10321,1.44974 1.84911,1.90309z" fill="#de7506" stroke="none" stroke-width="0.5"/><path d="M139.39941,30.30069c-0.01407,0.10626 -0.0339,0.21972 -0.05027,0.32897c-1.4769,-0.41681 -3.18631,-0.55255 -4.48458,-1.35158c-0.71424,-0.43958 -1.40803,-1.00211 -2.11589,-1.51865c0.37201,-0.06577 0.74325,-0.10747 1.08446,0.00683c1.13961,0.38175 1.85537,1.63896 3.00308,1.99561c0.63607,0.19766 1.49386,-0.52197 2.09747,-0.43124c0.17955,0.3017 0.33011,0.63622 0.46573,0.97006z" data-paper-data="{&quot;noHover&quot;:false,&quot;origItem&quot;:[&quot;Path&quot;,{&quot;applyMatrix&quot;:true,&quot;segments&quot;:[[[139.35209,30.28452],[0,0],[-0.13562,-0.33384]],[[138.88376,29.32772],[0.17955,0.3017],[-0.60361,-0.09073]],[[136.87555,29.79273],[0.63607,0.19766],[-1.14771,-0.35665]],[[133.87555,27.79273],[1.13961,0.38175],[-0.34121,-0.1143]],[[132.79473,27.77889],[0.37201,-0.06577],[0.70786,0.51654]],[[134.91434,29.27337],[-0.71424,-0.43958],[1.29827,0.79903]],[[139.3035,30.60924],[-1.4769,-0.41681],[0.01637,-0.10925]],[[139.3521,30.28452],[-0.01407,0.10626],[0,0]]],&quot;closed&quot;:true,&quot;fillColor&quot;:[0,0,0,1]}]}" fill="#000000" stroke="none" stroke-width="0.5"/><path d="M133.90638,103.32274c-0.7459,-0.45335 -1.17889,-1.38575 -1.8578,-1.9053c-0.01517,-0.22449 -0.01592,-0.4473 0.0152,-0.66513c0.51974,-3.63824 1.58142,-6.97865 0.95397,-10.75495c-0.34555,-2.07967 -1.63356,-3.95741 -1.98149,-6.03669c-0.47873,-2.86095 -0.28501,-6.04785 -0.11589,-9.14791c0.02867,-0.03695 0.05762,-0.074 0.08612,-0.11094c2.08885,1.15761 4.90993,1.90216 6.19745,2.11609c1.00569,0.1671 2.07031,0.26753 3.07582,0.10071c-0.96877,2.00993 -0.15079,6.08313 -0.15079,7.44063c0,3.95542 -0.59938,8.58447 0.02951,12.48378c0.16784,1.04064 0.81762,1.96294 0.99713,3.00164c0.32416,1.87569 0.05554,3.8027 -0.02066,5.71216c-2.45102,-0.51726 -5.39944,-1.12237 -7.22857,-2.2341z" data-paper-data="{&quot;noHover&quot;:false,&quot;origItem&quot;:[&quot;Path&quot;,{&quot;applyMatrix&quot;:true,&quot;segments&quot;:[[[133.91433,103.27337],[0,0],[1.82913,1.11173]],[[141.11925,105.50937],[-2.45102,-0.51726],[0.0762,-1.90946]],[[141.13228,99.80046],[0.32416,1.87569],[-0.17951,-1.0387]],[[140.13228,96.80046],[0.16784,1.04064],[-0.62889,-3.89931]],[[140.1,84.4],[0,3.95542],[0,-1.3575]],[[140.26444,76.96622],[-0.96877,2.00993],[-1.00551,0.16682]],[[137.19954,76.86772],[1.00569,0.1671],[-1.28752,-0.21393]],[[131.02197,74.74937],[2.08885,1.15761],[-0.0285,0.03694]],[[130.93619,74.8602],[0.02867,-0.03695],[-0.16912,3.10006]],[[131.06771,83.99955],[-0.47873,-2.86095],[0.34793,2.07928]],[[133.06771,89.99955],[-0.34555,-2.07967],[0.62745,3.7763]],[[132.08126,100.70546],[0.51974,-3.63824],[-0.03112,0.21783]],[[132.0652,101.37028],[-0.01517,-0.22449],[0.67891,0.51955]],[[133.91431,103.27337],[-0.7459,-0.45335],[0,0]]],&quot;closed&quot;:true,&quot;fillColor&quot;:[0,0,0,1]}]}" fill="#398f00" stroke="none" stroke-width="0.5"/><path d="M121.19457,101.98202c-0.07016,0.01203 -0.50017,0.146 -1.10297,0.34167c0,-6.95814 -0.01191,-14.01124 -0.01191,-20.96938c0,-2.66667 0.38073,-5.36254 0.01114,-8.00347c-0.06622,-0.47318 -1.07165,-0.89406 -0.7338,-1.23191c0.33785,-0.33785 0.76262,0.66536 1.2358,0.73158c1.32047,0.18479 2.68119,0.0419 4.01386,-0.00007c0.48474,-0.01526 0.97183,-0.06913 1.45408,-0.12418c-0.01763,0.46728 -0.06238,1.035 -0.08472,1.50779c-1.35134,2.07959 -1.94709,3.95354 -2.84006,6.71563c-0.06714,7.07306 1.62996,13.88259 1.95216,20.84372c-0.26603,0.07042 -0.56032,0.13476 -0.88344,0.18861c-0.98639,0.1644 -2.02451,-0.16903 -3.01012,0.00002z" data-paper-data="{&quot;noHover&quot;:false,&quot;origItem&quot;:[&quot;Path&quot;,{&quot;applyMatrix&quot;:true,&quot;segments&quot;:[[[121.19955,101.93228],[0,0],[0.98561,-0.16905]],[[124.19955,101.93228],[-0.98639,0.1644],[0.32312,-0.05385]],[[125.07998,101.74407],[-0.26603,0.07042],[-0.3222,-6.96113]],[[123.13228,80.99954],[-0.06714,7.07306],[0.89297,-2.76209]],[[125.98839,74.1856],[-1.35134,2.07959],[0.02234,-0.47279]],[[126.04936,72.77494],[-0.01763,0.46728],[-0.48225,0.05505]],[[124.6,72.89999],[0.48474,-0.01526],[-1.33267,0.04197]],[[120.6,72.89999],[1.32047,0.18479],[-0.47318,-0.06622]],[[119.36777,72.16776],[0.33785,-0.33785],[-0.33785,0.33785]],[[120.1,73.39999],[-0.06622,-0.47318],[0.36959,2.64093]],[[120.1,81.39999],[0,-2.66667],[0,6.95814]],[[120.1,102.2744],[0,-6.95814],[0.6028,-0.19567]],[[121.19954,101.93227],[-0.07016,0.01203],[0,0]]],&quot;closed&quot;:true,&quot;fillColor&quot;:[0,0,0,1]}]}" fill="#398f00" stroke="none" stroke-width="0.5"/><path d="M136.5314,42.1944c-0.3796,0.1891 -0.72064,0.46767 -1.04636,0.75133c-1.99052,0.00203 -3.95135,0.01336 -5.85246,0.09112c-0.15592,-0.2282 -0.29092,-0.36198 -0.29092,-0.36198c-2.07831,-1.6947 -1.52828,-4.36432 -2.41836,-7.0779c-0.32853,-1.00159 -0.50551,-2.08067 -0.99328,-3.01512c-0.24295,-0.46543 -1.36961,-0.62302 -1.13481,-1.09261c0.2348,-0.4696 1.03895,0.33545 1.55703,0.25038c1.28374,-0.21079 2.85374,-1.01371 3.91317,-0.2587c0.76779,0.54717 1.20081,1.51857 2.01372,1.99614c2.09495,1.23073 10.2673,2.30092 8.12311,5.83848c-0.4259,0.70266 -0.61807,1.63692 -1.27842,2.12586c-0.71933,0.53262 -1.7913,0.35387 -2.59244,0.75299z" data-paper-data="{&quot;noHover&quot;:false,&quot;origItem&quot;:[&quot;Path&quot;,{&quot;applyMatrix&quot;:true,&quot;segments&quot;:[[[136.50163,42.15421],[0,0],[0.80114,-0.39912]],[[139.08252,41.41323],[-0.71933,0.53262],[0.66035,-0.48894]],[[140.35422,39.30162],[-0.4259,0.70266],[2.14419,-3.53756]],[[132.28568,33.52663],[2.09495,1.23073],[-0.81291,-0.47757]],[[130.28568,31.52663],[0.76779,0.54717],[-1.05943,-0.75501]],[[126.39058,31.77171],[1.28374,-0.21079],[-0.51808,0.08507]],[[124.83608,31.51804],[0.2348,-0.4696],[-0.2348,0.46959]],[[125.97172,32.60944],[-0.24295,-0.46543],[0.48777,0.93445]],[[126.97172,35.60944],[-0.32853,-1.00159],[0.89008,2.71358]],[[129.36778,42.63224],[-2.07831,-1.6947],[0,0]],[[129.65587,42.99261],[-0.15592,-0.2282],[1.90111,-0.07776]],[[135.4639,42.90042],[-1.99052,0.00203],[0.32572,-0.28366]],[[136.50164,42.15422],[-0.3796,0.1891],[0,0]]],&quot;closed&quot;:true,&quot;fillColor&quot;:[0,0,0,1]}]}" fill="#ffffff" stroke="none" stroke-width="0.5"/><path d="M146.54857,69.04482c0.52635,-0.71684 0.52504,-1.6024 0.52504,-1.6024l-0.13124,-1.21141c1.65227,-5.1107 2.13328,-10.48717 2.13328,-15.87469c0,-0.91228 -0.23073,-2.80497 -0.347,-4.6558l2.28821,-2.38351c0.81028,0.86503 1.53194,1.92968 2.62848,2.3427c1.26106,0.47499 4.03503,0.38151 6.12038,-0.18169c-0.51132,4.54649 0.05585,8.97015 -0.58462,13.53238c-0.27897,1.98722 -1.40458,3.80464 -1.95647,5.73396c-0.37799,1.32137 -0.65289,2.67812 -1.01162,4.00485c-0.21689,0.80213 -0.45001,1.60377 -0.73112,2.38571c-0.11147,0.31006 -0.12057,0.89454 -0.44979,0.88152c-0.65918,-0.02606 -1.10869,-0.75244 -1.7326,-0.96676c-2.19132,-0.75275 -4.49472,-1.3583 -6.75096,-2.00485z" data-paper-data="{&quot;noHover&quot;:false,&quot;origItem&quot;:[&quot;Path&quot;,{&quot;applyMatrix&quot;:true,&quot;segments&quot;:[[[146.57366,69.0016],[0,0],[2.25624,0.64655]],[[153.29898,70.99969],[-2.19132,-0.75275],[0.62391,0.21432]],[[155.02563,71.96687],[-0.65918,-0.02606],[0.32922,0.01302]],[[155.47339,71.08566],[-0.11147,0.31006],[0.28111,-0.78194]],[[156.19972,68.70102],[-0.21689,0.80213],[0.35873,-1.32673]],[[157.19972,64.70102],[-0.37799,1.32137],[0.55189,-1.92932]],[[159.1323,58.99953],[-0.27897,1.98722],[0.64047,-4.56223]],[[159.74189,45.52199],[-0.51132,4.54649],[-2.08535,0.5632]],[[153.64331,45.70968],[1.26106,0.47499],[-1.09654,-0.41302]],[[151.02424,43.36647],[0.81028,0.86503],[0,0]],[[148.74601,45.74742],[0,0],[0.11627,1.85083]],[[149.10003,50.39998],[0,-0.91228],[0,5.38752]],[[146.97174,66.19055],[1.65227,-5.1107],[0,0]],[147.10003,67.39998],[[146.57368,69.00159],[0.52635,-0.71684],[0,0]]],&quot;closed&quot;:true,&quot;fillColor&quot;:[0,0,0,1]}]}" fill="#000000" stroke="none" stroke-width="0.5"/><path d="M114.62254,60.94463c-0.6811,0.06343 -1.42744,0.47025 -2.05325,0.19406c-0.7469,-0.32964 -0.95248,-1.39202 -1.65044,-1.81553c-1.25474,-0.76135 -2.90538,-0.90339 -4.0368,-1.83823c0.24691,-2.65108 0.5318,-5.78979 0.16418,-8.42605c-0.18982,-1.3612 -0.60356,-2.68869 -0.99001,-4.00761c-0.11846,-0.40427 -0.86091,-0.92306 -0.51014,-1.15636c1.84072,-1.22426 6.0117,0.64955 7.67159,0.9262c0.62044,0.1034 1.27056,0.16839 1.90347,0.14418c-0.32843,1.36371 0.0186,3.3628 0.0175,3.40294c-0.11377,4.15888 -0.0921,8.40651 -0.0542,12.57541z" data-paper-data="{&quot;noHover&quot;:false,&quot;origItem&quot;:[&quot;Path&quot;,{&quot;applyMatrix&quot;:true,&quot;segments&quot;:[[[115.06005,60.89999],[0,0],[-0.0379,-4.1689]],[[115.10001,48.39999],[-0.11377,4.15888],[0.0011,-0.04014]],[[115.09377,45.00714],[-0.32843,1.36371],[-0.63291,0.02421]],[[113.19955,44.86771],[0.62044,0.1034],[-1.65989,-0.27665]],[[105.57052,43.93852],[1.84072,-1.22426],[-0.35077,0.2333]],[[106.08128,45.09453],[-0.11846,-0.40427],[0.38645,1.31892]],[[107.08128,49.09453],[-0.18982,-1.3612],[0.36762,2.63626]],[[106.90971,57.44328],[0.24691,-2.65108],[1.13142,0.93484]],[[110.91434,59.27336],[-1.25474,-0.76135],[0.69796,0.42351]],[[112.55672,61.09029],[-0.7469,-0.32964],[0.62581,0.27619]],[[114.60001,60.89999],[-0.6811,0.06343],[0,0]]],&quot;closed&quot;:true,&quot;fillColor&quot;:[0,0,0,1]}]}" fill="#000000" stroke="none" stroke-width="0.5"/><path d="M135.33919,48.74494c0.57908,-0.1839 1.08814,-0.52042 1.57864,-0.89058c1.66853,0.00334 5.75238,0.02857 7.21468,-0.109c-0.00681,5.72488 0.01452,11.47661 -1.85874,16.88486l-0.13351,2.79943c0,0 -0.00089,0.21757 0.06278,0.52304c-0.70501,0.08494 -1.53589,0.4757 -1.94223,1.69471c-0.3511,1.05329 -0.08178,1.79733 0.32979,2.29617c-0.95519,0.07455 -1.86842,0.1503 -2.56757,0.03331c-0.90805,-0.15195 -1.73111,-0.65213 -2.61754,-0.90088c-0.66151,-0.18564 -1.56988,0.11511 -2.03099,-0.39424c-0.58747,-0.64892 -0.014,-1.9375 -0.64291,-2.54635c-0.13839,-0.13399 -0.28467,-0.26069 -0.43307,-0.38153l0.0722,-0.07175l-2.01591,-2.00162c-0.45241,-0.45241 -1.092,-0.7388 -1.78236,-0.7388c-1.38071,0 -2.44186,1.03801 -2.44186,2.41872l-0.06042,0.37936c-1.96922,-0.15105 -4.03516,0.06585 -5.51096,0.1891c-0.18306,0.01529 -0.3723,0.02092 -0.56452,0.02216c0.06391,-0.30609 0.06313,-0.52423 0.06313,-0.52423c0,-5.33333 0.00159,-10.72269 0.00159,-16.05602c0,-1.07659 -0.29906,-2.19526 -0.37327,-3.27384c0.89028,1.01534 2.37092,0.71712 2.37092,0.71712c0.7009,-0.14197 1.3969,-0.26681 2.08084,-0.36965c0.67988,0.41419 1.4372,0.41219 1.4372,0.41219l3.01048,-0.00452c1,0 2.01301,-0.0021 3.01301,-0.0021c1.24149,-0.03576 2.55683,0.27084 3.74058,-0.10508z" data-paper-data="{&quot;noHover&quot;:false,&quot;origItem&quot;:[&quot;Path&quot;,{&quot;applyMatrix&quot;:true,&quot;segments&quot;:[[[135.32447,48.79272],[0,0],[-1.18375,0.37592]],[[131.60001,48.89999],[1.24149,-0.03576],[-1,0]],[[128.60001,48.89999],[1,0],[0,0]],[125.60001,48.89999],[[124.166,48.4858],[0.67988,0.41419],[-0.68394,0.10284]],[[122.0903,48.85144],[0.7009,-0.14197],[0,0]],[[119.72213,48.13168],[0.89028,1.01534],[0.07421,1.07858]],[[120.10001,51.39999],[0,-1.07659],[0,5.33333]],[[120.10001,67.39999],[0,-5.33333],[0,0]],[[120.0361,67.92303],[0.06391,-0.30609],[0.19222,-0.00124]],[[120.60001,67.89999],[-0.18306,0.01529],[1.4758,-0.12325]],[[126.10001,67.69967],[-1.96922,-0.15105],[0,0]],[[126.10001,67.39999],[0,0],[0,-1.38071]],[[128.60001,64.89999],[-1.38071,0],[0.69036,0]],[[130.36778,65.63222],[-0.45241,-0.45241],[0,0]],[132.36778,67.63222],[[132.29606,67.70394],[0,0],[0.1484,0.12084]],[[132.72664,68.08566],[-0.13839,-0.13399],[0.62891,0.60885]],[[133.36778,70.63222],[-0.58747,-0.64892],[0.46111,0.50935]],[[135.39058,71.02828],[-0.66151,-0.18564],[0.88643,0.24875]],[[138.00047,71.93227],[-0.90805,-0.15195],[0.69915,0.11699]],[[140.56139,71.903],[-0.95519,0.07455],[-0.41157,-0.49884]],[[140.22831,69.60942],[-0.3511,1.05329],[0.40634,-1.21901]],[[142.16369,67.92186],[-0.70501,0.08494],[-0.06367,-0.30547]],[142.10002,67.39999],[[142.22831,64.60942],[0,0],[1.87326,-5.40825]],[[144.09704,47.7806],[-0.00681,5.72488],[-1.4623,0.13757]],[[136.89862,47.90052],[1.66853,0.00334],[-0.4905,0.37016]],[[135.32448,48.79273],[0.57908,-0.1839],[0,0]]],&quot;closed&quot;:true,&quot;fillColor&quot;:[0,0,0,1]}]}" fill="#000000" stroke="none" stroke-width="0.5"/><path d="M194.36661,36.85126c-2.45041,-0.49072 -1.96025,-2.94156 -1.96025,-2.94156c0.81983,-3.75376 0.45187,-6.89922 4.473,-8.81028c1.19927,-0.56996 2.65098,-0.16936 3.97845,-0.19943c4.2281,-0.09578 10.58842,0.92153 11.5,6.5c0.25019,1.53108 -1.74256,2.57305 -2.73223,3.76777c-3.27918,3.95858 -6.52164,4.66985 -11.4351,5.64152l-3.10043,-2.64152c0,0 -0.53768,-0.53768 -0.72344,-1.3165zM197.40911,33.93489c0.72446,0.20532 1.21647,0.69733 1.21647,0.69733l0.89957,1.35848c2.84867,-1.07625 4.16747,-2.75243 6.5649,-4.35848c0.35693,-0.23911 1.45816,0.1529 1.26777,-0.23223c-0.29745,-0.60169 -1.18961,-0.62795 -1.81433,-0.87337c-1.66903,-0.65567 -4.94861,-1.3001 -6.70722,-0.82606c-1.4546,0.3921 -1.32661,2.51174 -1.42716,4.23433z" fill="#de7506" stroke="none" stroke-width="0.5"/><path d="M227.15059,37.26891c-0.30787,-0.77874 -0.59143,-1.59277 -0.86647,-2.42228c-1.5176,-0.27785 -4.83347,-0.39339 -5.24665,-0.24245c-2.91853,1.06618 1.63599,4.94594 1.94698,5.48149c0.43958,0.75697 0.22315,1.77746 0.64114,2.54656c0.49877,0.91774 2.03928,-0.64825 2.84548,-1.31236l1.01547,-0.12589c-0.07406,-0.22129 -0.11802,-0.45638 -0.127,-0.7004l-0.1273,-2.98794c-0.03764,-0.07402 -0.06397,-0.15333 -0.08165,-0.23673zM230.51018,31.65669c1.27108,1.09025 2.01282,2.80125 1.82891,5.43785c-0.00715,0.10256 -0.01749,0.20436 -0.03079,0.30546h0.04952v3c0,0.54117 -0.17195,1.04219 -0.4642,1.45138c0.27468,0.36147 0.4642,0.86029 0.4642,1.54862c0,2.5 -2.5,2.5 -2.5,2.5l-0.61325,-0.41987c-1.35164,0.79925 -2.48906,2.28013 -4.05492,2.39775c-1.78786,0.1343 -3.69924,-0.59052 -5.0996,-1.71011c-0.96621,-0.77249 -0.71039,-2.39997 -1.35886,-3.45344c-0.51048,-0.8293 -1.6634,-1.1883 -2.04887,-2.08258c-1.77061,-4.10776 -2.3296,-7.49563 1.99585,-10.43593c1.15509,-0.78519 2.78379,-0.24728 4.17964,-0.29581c0.58996,-0.02051 1.18392,-0.02501 1.77129,-0.00534c-0.30968,-0.8305 -0.64309,-1.6363 -1.01708,-2.39629c-1.72857,-3.51267 -5.41078,-6.4817 -7.75421,-9.59838c0,0 -1.5,-2 0.5,-3.5c2,-1.5 3.5,0.5 3.5,0.5c2.61028,3.48985 6.26727,6.49195 8.24579,10.40162c0.9565,1.8901 1.6973,4.13576 2.40657,6.35507z" fill="#de7506" stroke="none" stroke-width="0.5"/></g></g></svg>