<svg version="1.1" xmlns="http://www.w3.org/2000/svg" xmlns:xlink="http://www.w3.org/1999/xlink" width="60.94354" height="97.55979" viewBox="0,0,60.94354,97.55979"><g transform="translate(-211.07951,-133.5966)"><g data-paper-data="{&quot;isPaintingLayer&quot;:true}" fill="#b1b1b1" fill-rule="nonzero" stroke="#000000" stroke-width="1.5" stroke-linecap="butt" stroke-linejoin="miter" stroke-miterlimit="10" stroke-dasharray="" stroke-dashoffset="0" style="mix-blend-mode: normal"><path d="M271.17004,155.33802l-5.162,34.40379l-14.86562,-2.22616l5.16202,-34.40378z" data-paper-data="{&quot;index&quot;:null}"/><path d="M213.49823,218.48757l23.40426,-28.99145l14.38675,11.61414l-23.40426,28.99145z"/><path d="M212.92344,221.44037l5.84489,-36.2947l18.01091,2.90048l-5.8449,36.2947z"/><path d="M225.09625,191.8786l12.58827,-33.72076l25.93037,9.95944l-12.58828,33.72077c0,0 -6.70775,-2.57634 -10.55628,-4.05449c-4.64443,-1.78385 -15.37408,-5.90494 -15.37408,-5.90494z"/><path d="M269.78577,155.69669c-3.01334,7.95922 -12.32462,11.81104 -20.79733,8.60329c-8.47272,-3.20775 -12.8984,-12.26036 -9.88506,-20.21958c3.01334,-7.95922 12.32461,-11.81103 20.79733,-8.60328c8.47272,3.20775 12.89841,12.26035 9.88506,20.21958z" data-paper-data="{&quot;index&quot;:null}"/><path d="M216.56799,188.37303l-4.64503,-34.4774l14.89734,-2.00277l4.64501,34.47739z" data-paper-data="{&quot;index&quot;:null}"/></g></g></svg>