<svg version="1.1" xmlns="http://www.w3.org/2000/svg" xmlns:xlink="http://www.w3.org/1999/xlink" width="50.19297" height="99.68112" viewBox="0,0,50.19297,99.68112"><g transform="translate(-220.5471,-132.4776)"><g data-paper-data="{&quot;isPaintingLayer&quot;:true}" fill="#b1b1b1" fill-rule="nonzero" stroke="#000000" stroke-width="1.5" stroke-linecap="butt" stroke-linejoin="miter" stroke-miterlimit="10" stroke-dasharray="" stroke-dashoffset="0" style="mix-blend-mode: normal"><path d="M250.23625,200.09753l-4.02358,-34.55543l14.93099,-1.73425l4.02356,34.55542z" data-paper-data="{&quot;index&quot;:null}"/><path d="M243.01222,228.14286l0.2725,-36.76131l18.24246,0.13522l-0.2725,36.76131z"/><path d="M221.42947,227.65516l7.29727,-36.53784l18.13157,3.6212l-7.29727,36.53784z"/><path d="M228.39932,195.73765l4.00298,-35.79354l28.55287,3.19322l-4.00298,35.79355c0,0 -7.38615,-0.82603 -11.62389,-1.29996c-5.11415,-0.57194 -16.92898,-1.89325 -16.92898,-1.89325z"/><path d="M269.99008,149.98993c-0.69771,8.48189 -8.58285,14.75573 -17.61196,14.01301c-9.02911,-0.74272 -15.78305,-8.22075 -15.08534,-16.70264c0.69771,-8.48189 8.58285,-14.75572 17.61196,-14.013c9.02911,0.74272 15.78305,8.22074 15.08534,16.70264z" data-paper-data="{&quot;index&quot;:null}"/><path d="M233.76428,200.62757l-0.20553,-34.78828l15.03108,-0.09306l0.20552,34.78828z" data-paper-data="{&quot;index&quot;:null}"/></g></g></svg>