<svg version="1.1" xmlns="http://www.w3.org/2000/svg" xmlns:xlink="http://www.w3.org/1999/xlink" width="210.76481" height="46.24397" viewBox="0,0,210.76481,46.24397"><defs><linearGradient x1="210.83476" y1="179.75418" x2="419.52481" y2="179.75418" gradientUnits="userSpaceOnUse" id="color-1"><stop offset="0" stop-color="#00edff"/><stop offset="1" stop-color="#00edff" stop-opacity="0"/></linearGradient><linearGradient x1="212.8723" y1="180.14123" x2="345.93623" y2="180.14123" gradientUnits="userSpaceOnUse" id="color-2"><stop offset="0" stop-color="#00caf0"/><stop offset="1" stop-color="#00caf0" stop-opacity="0"/></linearGradient><linearGradient x1="208.76009" y1="179.26254" x2="274.29694" y2="179.26254" gradientUnits="userSpaceOnUse" id="color-3"><stop offset="0" stop-color="#00edff"/><stop offset="1" stop-color="#00edff" stop-opacity="0"/></linearGradient><linearGradient x1="209.39994" y1="179.86869" x2="251.18725" y2="179.86869" gradientUnits="userSpaceOnUse" id="color-4"><stop offset="0" stop-color="#00caf0"/><stop offset="1" stop-color="#00caf0" stop-opacity="0"/></linearGradient><linearGradient x1="221.56167" y1="179.37747" x2="287.09857" y2="179.37747" gradientUnits="userSpaceOnUse" id="color-5"><stop offset="0" stop-color="#00edff"/><stop offset="1" stop-color="#00edff" stop-opacity="0"/></linearGradient><linearGradient x1="222.20156" y1="179.85101" x2="263.98887" y2="179.85101" gradientUnits="userSpaceOnUse" id="color-6"><stop offset="0" stop-color="#00caf0"/><stop offset="1" stop-color="#00caf0" stop-opacity="0"/></linearGradient></defs><g transform="translate(-208.76009,-156.14059)"><g data-paper-data="{&quot;isPaintingLayer&quot;:true}" fill-rule="nonzero" stroke="none" stroke-width="0" stroke-linecap="round" stroke-linejoin="miter" stroke-miterlimit="10" stroke-dasharray="" stroke-dashoffset="0" style="mix-blend-mode: normal"><g><path d="M210.83476,174.83272l122.86512,-9.84291l-5.42051,4.17579l-25.29574,5.96541l54.20525,0.59654l62.33602,3.28097l-58.72233,5.36887l-60.52915,2.08789l24.3923,3.28097l15.35815,4.77233l-127.38225,-7.45676c0,0 5.57733,-4.45694 5.25378,-6.64656c-0.26844,-1.81671 -7.06064,-5.58253 -7.06064,-5.58253z" fill="url(#color-1)"/><path d="M212.8723,177.00323l78.34068,-6.27599l-3.4562,2.66255l-16.12894,3.80364l34.56208,0.38036l39.7464,2.092l-37.44224,3.42327l-38.59432,1.33127l15.5529,2.092l9.79259,3.04291l-81.22083,-4.75454c0,0 3.55617,-2.84181 3.34989,-4.23795c-0.17117,-1.15836 -4.50197,-3.55951 -4.50197,-3.55951z" fill="url(#color-2)"/></g><g><path d="M208.76009,171.55522l38.58449,-15.41463l-1.70225,6.53956l-7.94386,9.34222l17.02258,0.93422l19.57594,5.13821l-18.44112,8.408l-19.00851,3.26977l7.66015,5.13821l4.82308,7.47378l-40.00302,-11.67777c0,0 1.7515,-6.97986 1.64988,-10.40894c-0.08432,-2.84508 -2.21731,-8.7426 -2.21731,-8.7426z" fill="url(#color-3)"/><path d="M209.39994,174.95438l24.60204,-9.8286l-1.0854,4.16972l-5.06514,5.95675l10.85385,0.59567l12.48191,3.27621l-11.75834,5.36106l-12.12013,2.08485l4.88423,3.27621l3.07525,4.76539l-25.50653,-7.44592c0,0 1.1168,-4.45046 1.05202,-6.6369c-0.05376,-1.81407 -1.41381,-5.57442 -1.41381,-5.57442z" fill="url(#color-4)"/></g><g><path d="M221.56167,173.35631l38.58449,-12.04231l-1.70225,5.10887l-7.94386,7.29838l17.02258,0.72984l19.57594,4.0141l-18.44112,6.56855l-19.00851,2.55443l7.66015,4.0141l4.82308,5.8387l-40.00302,-9.12297c0,0 1.7515,-5.45284 1.64988,-8.13173c-0.08427,-2.22265 -2.21731,-6.82995 -2.21731,-6.82995z" fill="url(#color-5)"/><path d="M222.20156,176.01182l24.60204,-7.67836l-1.0854,3.2575l-5.06514,4.65357l10.85385,0.46535l12.48191,2.55946l-11.75834,4.1882l-12.12013,1.62874l4.88423,2.55946l3.07525,3.72285l-25.50653,-5.81694c0,0 1.11676,-3.47682 1.05198,-5.18492c-0.05372,-1.41719 -1.41377,-4.35488 -1.41377,-4.35488z" fill="url(#color-6)"/></g></g></g></svg>