<svg version="1.1" xmlns="http://www.w3.org/2000/svg" xmlns:xlink="http://www.w3.org/1999/xlink" width="69.05726" height="103.21321" viewBox="0,0,69.05726,103.21321"><g transform="translate(-206.54022,-130.23422)"><g data-paper-data="{&quot;isPaintingLayer&quot;:true}" fill="#b1b1b1" fill-rule="nonzero" stroke="#000000" stroke-width="1.5" stroke-linecap="butt" stroke-linejoin="miter" stroke-miterlimit="10" stroke-dasharray="" stroke-dashoffset="0" style="mix-blend-mode: normal"><path d="M260.73974,198.27345l-13.37944,-32.1132l13.87692,-5.77697l13.37942,32.1132z" data-paper-data="{&quot;index&quot;:null}"/><path d="M246.42003,232.04716l-9.4327,-35.53157l17.63222,-4.68089l9.4327,35.53157z"/><path d="M213.1319,224.83892l15.3477,-33.9516l16.84817,7.61616l-15.3477,33.9516z"/><path d="M226.27947,195.81145l2.82516,-35.90572l28.64235,2.25366l-2.82516,35.90572c0,0 -7.4093,-0.58298 -11.66032,-0.91746c-5.13019,-0.40365 -16.98202,-1.33619 -16.98202,-1.33619z"/><path d="M261.28289,147.68782c-0.66757,8.48432 -8.53037,14.78614 -17.56207,14.07549c-9.0317,-0.71064 -15.81216,-8.16462 -15.14459,-16.64894c0.66757,-8.48432 8.53037,-14.78613 17.56207,-14.07549c9.0317,0.71064 15.81216,8.16462 15.14459,16.64894z" data-paper-data="{&quot;index&quot;:null}"/><path d="M207.55251,189.92121l16.1245,-30.82641l13.32126,6.96321l-16.12451,30.82641z" data-paper-data="{&quot;index&quot;:null}"/></g></g></svg>