<svg version="1.1" xmlns="http://www.w3.org/2000/svg" xmlns:xlink="http://www.w3.org/1999/xlink" width="69.58452" height="208.00994" viewBox="0,0,69.58452,208.00994"><defs><radialGradient cx="274.61625" cy="180.5523" r="31.74706" gradientUnits="userSpaceOnUse" id="color-1"><stop offset="0" stop-color="#ffffff"/><stop offset="1" stop-color="#ffffff" stop-opacity="0"/></radialGradient><radialGradient cx="276.60006" cy="197.74902" r="31.74706" gradientUnits="userSpaceOnUse" id="color-2"><stop offset="0" stop-color="#ffffff"/><stop offset="1" stop-color="#ffffff" stop-opacity="0"/></radialGradient><radialGradient cx="264.82404" cy="227.68048" r="31.74706" gradientUnits="userSpaceOnUse" id="color-3"><stop offset="0" stop-color="#ffffff"/><stop offset="1" stop-color="#ffffff" stop-opacity="0"/></radialGradient><radialGradient cx="248.44381" cy="251.84539" r="29.96351" gradientUnits="userSpaceOnUse" id="color-4"><stop offset="0" stop-color="#ffffff"/><stop offset="1" stop-color="#ffffff" stop-opacity="0"/></radialGradient><radialGradient cx="274.80263" cy="171.06734" r="31.74706" gradientUnits="userSpaceOnUse" id="color-5"><stop offset="0" stop-color="#ffffff"/><stop offset="1" stop-color="#ffffff" stop-opacity="0"/></radialGradient><radialGradient cx="276.78641" cy="153.87059" r="31.74704" gradientUnits="userSpaceOnUse" id="color-6"><stop offset="0" stop-color="#ffffff"/><stop offset="1" stop-color="#ffffff" stop-opacity="0"/></radialGradient><radialGradient cx="265.01042" cy="123.93916" r="31.74704" gradientUnits="userSpaceOnUse" id="color-7"><stop offset="0" stop-color="#ffffff"/><stop offset="1" stop-color="#ffffff" stop-opacity="0"/></radialGradient><radialGradient cx="248.63019" cy="99.77423" r="29.96351" gradientUnits="userSpaceOnUse" id="color-8"><stop offset="0" stop-color="#ffffff"/><stop offset="1" stop-color="#ffffff" stop-opacity="0"/></radialGradient></defs><g transform="translate(-222.18365,-71.80485)"><g data-paper-data="{&quot;isPaintingLayer&quot;:true}" fill-rule="nonzero" stroke="none" stroke-width="0" stroke-linecap="butt" stroke-linejoin="miter" stroke-miterlimit="10" stroke-dasharray="" stroke-dashoffset="0" style="mix-blend-mode: normal"><g><path d="M289.59801,175.33885c0,13.48724 -9.58223,24.42081 -21.40252,24.42081c-11.82027,0 -21.40252,-10.93358 -21.40252,-24.42081c0,-13.48724 9.58223,-24.42081 21.40252,-24.42081c11.82027,0 21.40252,10.93358 21.40252,24.42081z" fill="url(#color-1)"/><path d="M270.1793,227.38326c-11.82029,0 -21.40252,-10.93355 -21.40252,-24.42079c0,-13.48724 9.58223,-24.42081 21.40252,-24.42081c11.82029,0 21.40252,10.93358 21.40252,24.42081c0,13.48724 -9.58223,24.42079 -21.40252,24.42079z" data-paper-data="{&quot;index&quot;:null}" fill="url(#color-2)"/><path d="M258.40329,257.31471c-11.82029,0 -21.40249,-10.93355 -21.40249,-24.42079c0,-13.48724 9.58223,-24.42081 21.40249,-24.42081c11.82029,0 21.40252,10.93358 21.40252,24.42081c0,13.48724 -9.58225,24.42079 -21.40252,24.42079z" data-paper-data="{&quot;index&quot;:null}" fill="url(#color-3)"/><path d="M242.38377,279.81479c-11.15622,0 -20.20012,-10.31932 -20.20012,-23.04884c0,-12.72952 9.0439,-23.04886 20.20012,-23.04886c11.15622,0 20.20012,10.31934 20.20012,23.04886c0,12.72952 -9.0439,23.04884 -20.20012,23.04884z" data-paper-data="{&quot;index&quot;:null}" fill="url(#color-4)"/><path d="M268.38187,200.70158c-11.82029,0 -21.40252,-10.93355 -21.40252,-24.42079c0,-13.48724 9.58223,-24.42081 21.40252,-24.42081c11.82027,0 21.40252,10.93358 21.40252,24.42081c0,13.48724 -9.58225,24.42079 -21.40252,24.42079z" data-paper-data="{&quot;index&quot;:null}" fill="url(#color-5)"/><path d="M291.76817,148.65717c0,13.48724 -9.58225,24.42081 -21.40252,24.42081c-11.82029,0 -21.40252,-10.93358 -21.40252,-24.42081c0,-13.48724 9.58223,-24.42079 21.40252,-24.42079c11.82027,0 21.40252,10.93355 21.40252,24.42079z" data-paper-data="{&quot;index&quot;:null}" fill="url(#color-6)"/><path d="M279.99218,118.72572c0,13.48724 -9.58223,24.42081 -21.40252,24.42081c-11.82029,0 -21.40249,-10.93358 -21.40249,-24.42081c0,-13.48724 9.58223,-24.42079 21.40249,-24.42079c11.82029,0 21.40252,10.93355 21.40252,24.42079z" data-paper-data="{&quot;index&quot;:null}" fill="url(#color-7)"/><path d="M262.77029,94.85369c0,12.72954 -9.0439,23.04886 -20.20012,23.04886c-11.15622,0 -20.20012,-10.31934 -20.20012,-23.04886c0,-12.72954 9.0439,-23.04884 20.20012,-23.04884c11.15622,0 20.20012,10.31932 20.20012,23.04886z" data-paper-data="{&quot;index&quot;:null}" fill="url(#color-8)"/></g></g></g></svg>