<svg version="1.1" xmlns="http://www.w3.org/2000/svg" xmlns:xlink="http://www.w3.org/1999/xlink" width="480.24493" height="155.07583" viewBox="0,0,480.24493,155.07583"><defs><linearGradient x1="216.32327" y1="133.60928" x2="216.32327" y2="180.00684" gradientUnits="userSpaceOnUse" id="color-1"><stop offset="0" stop-color="#00d614"/><stop offset="1" stop-color="#4b9100"/></linearGradient><linearGradient x1="293.93931" y1="126.76564" x2="293.93931" y2="173.16319" gradientUnits="userSpaceOnUse" id="color-2"><stop offset="0" stop-color="#00d614"/><stop offset="1" stop-color="#4b9100"/></linearGradient><linearGradient x1="274.52437" y1="144.30746" x2="274.52437" y2="190.70502" gradientUnits="userSpaceOnUse" id="color-3"><stop offset="0" stop-color="#00d614"/><stop offset="1" stop-color="#4b9100"/></linearGradient><linearGradient x1="355.0512" y1="124.07994" x2="355.0512" y2="170.47749" gradientUnits="userSpaceOnUse" id="color-4"><stop offset="0" stop-color="#00d614"/><stop offset="1" stop-color="#4b9100"/></linearGradient><linearGradient x1="179.42909" y1="141.32732" x2="179.42909" y2="187.7249" gradientUnits="userSpaceOnUse" id="color-5"><stop offset="0" stop-color="#00d614"/><stop offset="1" stop-color="#4b9100"/></linearGradient><linearGradient x1="126.05988" y1="126.45336" x2="126.05988" y2="172.85089" gradientUnits="userSpaceOnUse" id="color-6"><stop offset="0" stop-color="#00d614"/><stop offset="1" stop-color="#4b9100"/></linearGradient><linearGradient x1="240.57009" y1="118.13749" x2="240.57009" y2="164.53501" gradientUnits="userSpaceOnUse" id="color-7"><stop offset="0" stop-color="#00d614"/><stop offset="1" stop-color="#4b9100"/></linearGradient><linearGradient x1="189.64595" y1="141.34517" x2="189.64595" y2="168.11298" gradientUnits="userSpaceOnUse" id="color-8"><stop offset="0" stop-color="#00d614"/><stop offset="1" stop-color="#4b9100"/></linearGradient><linearGradient x1="213.26652" y1="163.55306" x2="213.26652" y2="118.11456" gradientUnits="userSpaceOnUse" id="color-9"><stop offset="0" stop-color="#00d614"/><stop offset="1" stop-color="#4b9100"/></linearGradient><linearGradient x1="290.88256" y1="170.25524" x2="290.88256" y2="124.81674" gradientUnits="userSpaceOnUse" id="color-10"><stop offset="0" stop-color="#00d614"/><stop offset="1" stop-color="#4b9100"/></linearGradient><linearGradient x1="271.46761" y1="153.07599" x2="271.46761" y2="107.63749" gradientUnits="userSpaceOnUse" id="color-11"><stop offset="0" stop-color="#00d614"/><stop offset="1" stop-color="#4b9100"/></linearGradient><linearGradient x1="351.99445" y1="172.88543" x2="351.99445" y2="127.44692" gradientUnits="userSpaceOnUse" id="color-12"><stop offset="0" stop-color="#00d614"/><stop offset="1" stop-color="#4b9100"/></linearGradient><linearGradient x1="176.37235" y1="155.99451" x2="176.37235" y2="110.55603" gradientUnits="userSpaceOnUse" id="color-13"><stop offset="0" stop-color="#00d614"/><stop offset="1" stop-color="#4b9100"/></linearGradient><linearGradient x1="123.00314" y1="170.56104" x2="123.00314" y2="125.12257" gradientUnits="userSpaceOnUse" id="color-14"><stop offset="0" stop-color="#00d614"/><stop offset="1" stop-color="#4b9100"/></linearGradient><linearGradient x1="237.51335" y1="178.70502" x2="237.51335" y2="133.26653" gradientUnits="userSpaceOnUse" id="color-15"><stop offset="0" stop-color="#00d614"/><stop offset="1" stop-color="#4b9100"/></linearGradient><linearGradient x1="186.5892" y1="155.97704" x2="186.5892" y2="129.76252" gradientUnits="userSpaceOnUse" id="color-16"><stop offset="0" stop-color="#00d614"/><stop offset="1" stop-color="#4b9100"/></linearGradient><linearGradient x1="264.80965" y1="178.90119" x2="264.80965" y2="137.24289" gradientUnits="userSpaceOnUse" id="color-17"><stop offset="0" stop-color="#00d614"/><stop offset="1" stop-color="#4b9100"/></linearGradient><linearGradient x1="193.65083" y1="185.04578" x2="193.65083" y2="143.3875" gradientUnits="userSpaceOnUse" id="color-18"><stop offset="0" stop-color="#00d614"/><stop offset="1" stop-color="#4b9100"/></linearGradient><linearGradient x1="211.45054" y1="169.29573" x2="211.45054" y2="127.63749" gradientUnits="userSpaceOnUse" id="color-19"><stop offset="0" stop-color="#00d614"/><stop offset="1" stop-color="#4b9100"/></linearGradient><linearGradient x1="137.62313" y1="187.45715" x2="137.62313" y2="145.79886" gradientUnits="userSpaceOnUse" id="color-20"><stop offset="0" stop-color="#00d614"/><stop offset="1" stop-color="#4b9100"/></linearGradient><linearGradient x1="298.63442" y1="171.97149" x2="298.63442" y2="130.3132" gradientUnits="userSpaceOnUse" id="color-21"><stop offset="0" stop-color="#00d614"/><stop offset="1" stop-color="#4b9100"/></linearGradient><linearGradient x1="347.56359" y1="185.32617" x2="347.56359" y2="143.66789" gradientUnits="userSpaceOnUse" id="color-22"><stop offset="0" stop-color="#00d614"/><stop offset="1" stop-color="#4b9100"/></linearGradient><linearGradient x1="242.58004" y1="192.79258" x2="242.58004" y2="151.13432" gradientUnits="userSpaceOnUse" id="color-23"><stop offset="0" stop-color="#00d614"/><stop offset="1" stop-color="#4b9100"/></linearGradient><linearGradient x1="289.26756" y1="171.95547" x2="289.26756" y2="147.92183" gradientUnits="userSpaceOnUse" id="color-24"><stop offset="0" stop-color="#00d614"/><stop offset="1" stop-color="#4b9100"/></linearGradient><linearGradient x1="264.80965" y1="164.90119" x2="264.80965" y2="123.24292" gradientUnits="userSpaceOnUse" id="color-25"><stop offset="0" stop-color="#00d614"/><stop offset="1" stop-color="#4b9100"/></linearGradient><linearGradient x1="193.65083" y1="171.04578" x2="193.65083" y2="129.3875" gradientUnits="userSpaceOnUse" id="color-26"><stop offset="0" stop-color="#00d614"/><stop offset="1" stop-color="#4b9100"/></linearGradient><linearGradient x1="211.45054" y1="155.29573" x2="211.45054" y2="113.63749" gradientUnits="userSpaceOnUse" id="color-27"><stop offset="0" stop-color="#00d614"/><stop offset="1" stop-color="#4b9100"/></linearGradient><linearGradient x1="137.62313" y1="173.45715" x2="137.62313" y2="131.79886" gradientUnits="userSpaceOnUse" id="color-28"><stop offset="0" stop-color="#00d614"/><stop offset="1" stop-color="#4b9100"/></linearGradient><linearGradient x1="298.63442" y1="157.97149" x2="298.63442" y2="116.31322" gradientUnits="userSpaceOnUse" id="color-29"><stop offset="0" stop-color="#00d614"/><stop offset="1" stop-color="#4b9100"/></linearGradient><linearGradient x1="347.56359" y1="171.32616" x2="347.56359" y2="129.66789" gradientUnits="userSpaceOnUse" id="color-30"><stop offset="0" stop-color="#00d614"/><stop offset="1" stop-color="#4b9100"/></linearGradient><linearGradient x1="242.58003" y1="178.79258" x2="242.58003" y2="137.13432" gradientUnits="userSpaceOnUse" id="color-31"><stop offset="0" stop-color="#00d614"/><stop offset="1" stop-color="#4b9100"/></linearGradient><linearGradient x1="289.26756" y1="157.95546" x2="289.26756" y2="133.92183" gradientUnits="userSpaceOnUse" id="color-32"><stop offset="0" stop-color="#00d614"/><stop offset="1" stop-color="#4b9100"/></linearGradient><linearGradient x1="240.63388" y1="254.32376" x2="240.63388" y2="194.87318" gradientUnits="userSpaceOnUse" id="color-33"><stop offset="0" stop-color="#424242"/><stop offset="1" stop-color="#424242" stop-opacity="0"/></linearGradient><linearGradient x1="240.63387" y1="101.78603" x2="240.63387" y2="129.16458" gradientUnits="userSpaceOnUse" id="color-34"><stop offset="0" stop-color="#4c4c4c"/><stop offset="1" stop-color="#4c4c4c" stop-opacity="0"/></linearGradient></defs><g transform="translate(-0.53194,-101.00627)"><g data-paper-data="{&quot;isPaintingLayer&quot;:true}" fill-rule="nonzero" stroke-linecap="butt" stroke-linejoin="miter" stroke-miterlimit="10" stroke-dasharray="" stroke-dashoffset="0" style="mix-blend-mode: normal"><path d="" fill="#d9d9d9" stroke="#000000" stroke-width="1"/><path d="" fill="none" stroke="#000000" stroke-width="1"/><path d="" fill="#d9d9d9" stroke="#000000" stroke-width="1"/><path d="" fill="none" stroke="#000000" stroke-width="1"/><path d="" fill="#d9d9d9" stroke="#000000" stroke-width="1"/><path d="" fill="none" stroke="#000000" stroke-width="1"/><path d="" fill="#d9d9d9" stroke="#000000" stroke-width="1"/><path d="M6.06997,255.83209v-151.65165h470.70217v151.65166z" fill="#c9c9c9" stroke="#616161" stroke-width="0.5"/><g stroke="#616161" stroke-width="0"><path d="M417.69285,255.15642v-153.65465h55.0765v153.65465z" fill="#989898"/><path d="M467.13625,255.48675v-153.65465h13.64062v153.65465z" fill="#c9c9c9"/><path d="M414.15266,255.48674v-153.65465h13.64062v153.65465z" fill="#c9c9c9"/></g><g stroke="none" stroke-width="0"><path d="M171.60304,180.00684v-46.39756h89.44044v46.39756z" fill="url(#color-1)"/><path d="M249.21909,173.16319v-46.39756h89.44044v46.39756z" fill="url(#color-2)"/><path d="M229.80417,190.70502v-46.39756h89.44044v46.39756z" fill="url(#color-3)"/><path d="M310.33098,170.47749v-46.39756h89.44044v46.39756z" fill="url(#color-4)"/><path d="M134.70887,187.7249v-46.39756h89.44044v46.39756z" fill="url(#color-5)"/><path d="M81.33966,172.85089v-46.39755h89.44044v46.39755z" fill="url(#color-6)"/><path d="M195.84987,164.53501v-46.39756h89.44045v46.39756z" fill="url(#color-7)"/><path d="M163.84581,168.11298v-26.76783h51.60026v26.76783z" fill="url(#color-8)"/></g><g stroke="#616161" stroke-width="0"><path d="M4.17959,254.66092v-153.65465h55.0765v153.65465z" fill="#989898"/><path d="M53.623,254.99125v-153.65465h13.64062v153.65465z" fill="#c9c9c9"/><path d="M0.63941,254.99124v-153.65465h13.64062v153.65465z" fill="#c9c9c9"/></g><g data-paper-data="{&quot;index&quot;:null}" stroke="none" stroke-width="0"><path d="M257.98674,118.11456v45.43851h-89.44043v-45.43851z" fill="url(#color-9)"/><path d="M335.60277,124.81674v45.4385h-89.44044v-45.4385z" fill="url(#color-10)"/><path d="M316.18785,107.63749v45.43851h-89.44044v-45.43851z" fill="url(#color-11)"/><path d="M396.71468,127.44692v45.4385h-89.44044v-45.4385z" fill="url(#color-12)"/><path d="M221.09257,110.55603v45.43851h-89.44044v-45.43851z" fill="url(#color-13)"/><path d="M167.72334,125.12257v45.4385h-89.44043v-45.43849z" fill="url(#color-14)"/><path d="M282.23357,133.26653v45.4385h-89.44045v-45.4385z" fill="url(#color-15)"/><path d="M212.38932,129.76252v26.21452h-51.60025v-26.21452z" fill="url(#color-16)"/></g><g data-paper-data="{&quot;index&quot;:null}" stroke="none" stroke-width="0"><path d="M305.80939,137.24289v41.65827h-81.99947v-41.65826z" fill="url(#color-17)"/><path d="M234.65058,143.3875v41.65826h-81.99948v-41.65826z" fill="url(#color-18)"/><path d="M252.45029,127.63749v41.65826h-81.99947v-41.65826z" fill="url(#color-19)"/><path d="M178.62286,145.79886c0,0 35.47357,45.05441 24.95076,48.49197c-16.26655,5.31391 -113.06373,-19.70749 -113.06373,-19.70749l6.11349,-28.78448z" fill="url(#color-20)"/><path d="M339.63414,130.3132v41.65827h-81.99948v-41.65826z" fill="url(#color-21)"/><path d="M388.56335,143.66789v41.65826h-81.99947v-41.65826z" fill="url(#color-22)"/><path d="M283.57975,151.13432v41.65827h-81.99948v-41.65827z" fill="url(#color-23)"/><path d="M312.92126,147.92183v24.03361h-47.3074v-24.03361z" fill="url(#color-24)"/></g><g data-paper-data="{&quot;index&quot;:null}" stroke="none" stroke-width="0"><path d="M305.80939,123.24292v41.65827h-81.99947v-41.65827z" fill="url(#color-25)"/><path d="M234.65058,129.3875v41.65826h-81.99948v-41.65826z" fill="url(#color-26)"/><path d="M252.45028,113.63749v41.65827h-81.99948v-41.65827z" fill="url(#color-27)"/><path d="M178.62286,131.79886v41.65827h-81.99948v-41.65827z" fill="url(#color-28)"/><path d="M339.63414,116.31322v41.65827h-81.99948v-41.65827z" fill="url(#color-29)"/><path d="M388.56335,129.66789v41.65826h-81.99947v-41.65826z" fill="url(#color-30)"/><path d="M283.57976,137.13432v41.65827h-81.99948v-41.65827z" fill="url(#color-31)"/><path d="M312.92126,133.92183v24.03361h-47.3074v-24.03361z" fill="url(#color-32)"/></g><path d="M426.99121,151.3347c0,22.72805 -83.90771,41.15278 -187.4131,41.15278c-103.5054,0 -187.41311,-18.42473 -187.41311,-41.15278c0,-22.72805 83.90771,-41.15278 187.41311,-41.15278c103.50541,0 187.4131,18.42473 187.4131,41.15278z" fill="none" stroke="#b3b3b3" stroke-width="12.5"/><path d="M480.73579,194.87318v59.4506h-480.20386v-59.4506z" data-paper-data="{&quot;index&quot;:null}" fill="url(#color-33)" stroke="#616161" stroke-width="0"/><path d="M436.8102,129.76976h40.54785v60.06006l-43.5693,-1.57762z" data-paper-data="{&quot;index&quot;:null}" fill="#989898" stroke="none" stroke-width="0"/><path d="M0.53194,129.16458v-27.37857h480.20386v27.37857z" fill="url(#color-34)" stroke="#616161" stroke-width="0"/></g></g></svg>