<svg version="1.1" xmlns="http://www.w3.org/2000/svg" xmlns:xlink="http://www.w3.org/1999/xlink" width="51.74338" height="102.41102" viewBox="0,0,51.74338,102.41102"><g transform="translate(-216.11193,-130.58677)"><g data-paper-data="{&quot;isPaintingLayer&quot;:true}" fill="#b1b1b1" fill-rule="nonzero" stroke="#000000" stroke-width="1.5" stroke-linecap="butt" stroke-linejoin="miter" stroke-miterlimit="10" stroke-dasharray="" stroke-dashoffset="0" style="mix-blend-mode: normal"><path d="M229.24343,198.3443l-12.16649,-32.59208l14.08367,-5.25283l12.16647,32.59208z" data-paper-data="{&quot;index&quot;:null}"/><path d="M225.60223,228.66381l5.07771,-36.40996l18.06811,2.51977l-5.07772,36.40995z"/><path d="M228.20901,224.11106l15.8964,-33.69819l16.72242,7.88844l-15.8964,33.69819z"/><path d="M227.77492,194.21585l4.46955,-35.67147l25.56592,3.96839l-4.46955,35.67148c0,0 -6.61348,-1.02656 -10.40791,-1.61553c-4.57915,-0.71078 -15.158,-2.35286 -15.158,-2.35286z"/><path d="M265.6031,149.03385c-1.1755,8.42897 -9.40229,14.24759 -18.37507,12.99625c-8.97278,-1.25134 -15.29371,-9.09878 -14.11821,-17.52775c1.1755,-8.42897 9.40229,-14.24758 18.37507,-12.99624c8.97278,1.25134 15.29371,9.09877 14.11821,17.52775z" data-paper-data="{&quot;index&quot;:null}"/><path d="M266.99266,182.92769l-34.32154,5.6832l-2.45976,-14.82875l34.32154,-5.68318z" data-paper-data="{&quot;index&quot;:null}"/></g></g></svg>