<svg version="1.1" xmlns="http://www.w3.org/2000/svg" xmlns:xlink="http://www.w3.org/1999/xlink" width="121.45922" height="19.70831" viewBox="0,0,121.45922,19.70831"><g transform="translate(-178.87669,-176.22314)"><g data-paper-data="{&quot;isPaintingLayer&quot;:true}" fill-rule="nonzero" stroke-linecap="butt" stroke-linejoin="miter" stroke-miterlimit="10" stroke-dasharray="" stroke-dashoffset="0" style="mix-blend-mode: normal"><path d="M297.83591,181.93038c-4.61572,6.52578 -28.753,11.50107 -57.83591,11.50107c-32.04451,0 -58.08484,-6.04019 -58.62331,-13.5393" fill="none" stroke="#00abff" stroke-width="5"/><path d="M218.15883,192.46626c0,0 -3.29256,-1.46265 -0.82367,-3.56731c2.19747,-1.87329 2.0543,-3.17759 4.72179,-4.58863c2.4629,-1.30283 7.53768,-2.70172 7.96885,-4.46279c0.0553,-0.00248 0.11055,-0.00499 0.16575,-0.00754c3.49575,-0.16121 6.98213,-0.3531 10.47066,-0.57321c2.80743,-0.17725 5.63292,-0.24303 8.45315,-0.31171c-0.63451,0.37693 -1.04581,0.74966 -1.04581,1.13245c0,1.71798 -5.38738,3.5026 -5.8763,4.86295c-0.51185,1.42415 4.26072,2.50149 6.46278,4.22402c2.59881,2.03287 11.98962,3.29179 11.98962,3.29179c0,0 -15.27832,0.95835 -22.77293,0.95835c-6.53608,0 -19.71389,-0.95835 -19.71389,-0.95835z" fill="#71d0ff" stroke="#00abff" stroke-width="5"/><path d="M233.49345,185.96437c1.5,-0.46993 3.5,-0.11748 3.5,-0.11748l0.30679,0.13158c1.99204,0.08881 4.06168,0.13118 6.0746,0.07397c0,0 2.48471,-0.06486 2.76079,0.51895c0.27608,0.58381 -2.20863,0.64869 -2.20863,0.64869c-0.47367,0.0115 -0.94934,0.01922 -1.42608,0.02349c0.06186,0.00768 0.09574,0.01266 0.09574,0.01266c2.75182,0.43957 4.55946,0.31003 7.85216,0.31003l0.75324,-0.06232c0,0 2.42536,-0.14247 3.0317,0.4274c0.60634,0.56987 -1.81902,0.71234 -1.81902,0.71234l-1.96592,0.0974c-4.34663,0 -6.67264,0.04314 -10.50215,-0.48861c0,0 -2.12,-0.31133 -0.795,-0.80945c0.25786,-0.09694 0.54582,-0.16322 0.84241,-0.2071c-1.20448,-0.01726 -2.40551,-0.05286 -3.58825,-0.10157l-2.41236,-0.3476c0,0 -2,-0.35244 -0.5,-0.82237z" fill="#a4e1ff" stroke="none" stroke-width="0.5"/><path d="M262.41342,188.05775c1.76777,0.41536 0,0.83072 0,0.83072l-1.2292,0.28637c-4.27359,1.12296 -9.85259,1.37798 -16.03625,1.06964c0,0 -2.44047,-0.12742 -1.89814,-0.70085c0.54233,-0.57343 2.98279,-0.44599 2.98279,-0.44599c4.14779,0.22931 8.40673,0.11576 11.15531,-0.68735l1.48995,-0.35253c0,0 1.76777,-0.41536 3.53553,0z" fill="#a4e1ff" stroke="none" stroke-width="0.5"/><path d="M246.75607,191.84461c0.60634,0.56987 -1.81902,0.71234 -1.81902,0.71234l-1.96592,0.0974c-4.59291,-0.00443 -7.63579,-0.25525 -11.87867,-0.68815c0,0 -2.29039,-0.23545 -1.28835,-0.7736c1.00205,-0.53816 3.29244,-0.30271 3.29244,-0.30271c3.65909,0.37927 5.9524,0.59418 9.87458,0.58965l0.75324,-0.06232c0,0 2.42536,-0.14247 3.0317,0.4274z" fill="#a4e1ff" stroke="none" stroke-width="0.5"/><path d="M219.17851,186.92735c1.09259,0 1.70768,0.11219 2.05395,0.23852c1.34532,0.05089 2.70547,0.0825 4.06415,0.08093c0,0 2.5,0 2.5,0.58741c0,0.06342 -0.02914,0.11999 -0.08113,0.17046c0.05294,0.04759 0.08113,0.09752 0.08113,0.149c0,0.23444 -0.58454,0.43681 -1.42986,0.53102c0.35389,0.00383 2.44954,0.04925 2.44954,0.58705c0,0.58741 -2.5,0.58741 -2.5,0.58741c-4.75159,-0.00216 -8.42162,-0.17505 -12.81613,-0.60024l-2.67714,-0.23578c0,0 -2.34082,-0.20626 -1.46301,-0.75626c0.87781,-0.55001 3.21863,-0.34375 3.21863,-0.34375l2.76117,0.24339c3.10905,0.30843 5.68419,0.4591 8.76348,0.50346c-0.47465,-0.0607 -0.85629,-0.15646 -1.08187,-0.27251c-1.45459,-0.02865 -2.90325,-0.08092 -4.3332,-0.14696l-2.00971,-0.73573c0,0 0,-0.58741 2.5,-0.58741z" fill="#a4e1ff" stroke="none" stroke-width="0.5"/><path d="M209.62071,184.79304c1.38675,-0.48875 3.46688,-0.16292 3.46688,-0.16292l1.08603,0.17049c0.3516,0.05906 4.0072,0.68526 4.53039,0.72726c2.3603,0.18949 4.92566,0.18606 7.37972,0.29088c0,0 2.45967,0.10508 2.01246,0.68302c-0.44721,0.57794 -2.90689,0.47285 -2.90689,0.47285c-2.75065,-0.11753 -5.62182,-0.12756 -8.25543,-0.34803c-1.20832,-0.10114 -4.48343,-0.67162 -5.66645,-0.87l-0.95334,-0.14897c0,0 -2.08013,-0.32583 -0.69338,-0.81459z" fill="#a4e1ff" stroke="none" stroke-width="0.5"/><path d="M231.34253,188.5975c0.49029,-0.57601 2.94174,-0.4608 2.94174,-0.4608l1.81552,0.08599c0.90639,0.05325 1.81277,0.10648 2.71916,0.15973c0,0 2.42536,0.14247 1.81902,0.71234c-0.60634,0.56987 -3.0317,0.4274 -3.0317,0.4274c-0.90639,-0.05325 -1.81277,-0.10648 -2.71916,-0.15973l-1.58342,-0.07373c0,0 -2.45145,-0.1152 -1.96116,-0.69121z" fill="#a4e1ff" stroke="none" stroke-width="0.5"/><path d="M208.69985,190.41125c0.92848,-0.5454 3.24967,-0.32724 3.24967,-0.32724l2.01134,0.19511c2.71436,0.37144 4.79927,0.48762 7.93681,0.48165c0,0 2.5,0 2.5,0.58741c0,0.58741 -2.5,0.58741 -2.5,0.58741c-3.99695,-0.00612 -6.92808,-0.17501 -10.4175,-0.63643l-1.3876,-0.12435c0,0 -2.32119,-0.21816 -1.39272,-0.76356z" fill="#a4e1ff" stroke="none" stroke-width="0.5"/></g></g></svg>