<svg version="1.1" xmlns="http://www.w3.org/2000/svg" xmlns:xlink="http://www.w3.org/1999/xlink" width="85.14505" height="111.25111" viewBox="0,0,85.14505,111.25111"><g transform="translate(-185.44431,-120.55441)"><g data-paper-data="{&quot;isPaintingLayer&quot;:true}" fill="#b1b1b1" fill-rule="nonzero" stroke="#000000" stroke-width="1.5" stroke-linecap="butt" stroke-linejoin="miter" stroke-miterlimit="10" stroke-dasharray="" stroke-dashoffset="0" style="mix-blend-mode: normal"><path d="M224.39533,121.60509l21.03252,27.711l-11.97578,9.08421l-21.03251,-27.71101z" data-paper-data="{&quot;index&quot;:null}"/><path d="M251.92268,221.3935l-8.35215,-35.80098l17.7659,-4.14468l8.35215,35.80098z"/><path d="M222.62763,229.43027l3.15268,-37.12578l18.42333,1.56447l-3.15268,37.12579z"/><path d="M230.37683,200.2049l-15.79714,-32.36745l25.81984,-12.60155l15.79713,32.36746c0,0 -6.67917,3.2598 -10.51127,5.13011c-4.62464,2.25708 -15.30856,7.47145 -15.30856,7.47145z"/><path d="M239.01658,145.47953c1.4979,8.37768 -4.51742,16.46178 -13.4356,18.05633c-8.91818,1.59454 -17.36208,-3.90427 -18.86,-12.28195c-1.4979,-8.37768 4.51742,-16.46176 13.4356,-18.05632c8.91818,-1.59454 17.36207,3.90426 18.85999,12.28196z" data-paper-data="{&quot;index&quot;:null}"/><path d="M195.51265,137.9913l27.82581,20.8804l-9.01847,12.02538l-27.82581,-20.8804z" data-paper-data="{&quot;index&quot;:null}"/></g></g></svg>